%TF.GenerationSoftware,KiCad,Pcbnew,10.0.3*%
%TF.CreationDate,2026-06-21T02:23:58-04:00*%
%TF.ProjectId,Buzzer PCB,42757a7a-6572-4205-9043-422e6b696361,rev?*%
%TF.SameCoordinates,PX4a7b620PY74a2660*%
%TF.FileFunction,Copper,L1,Top*%
%TF.FilePolarity,Positive*%
%FSLAX46Y46*%
G04 Gerber Fmt 4.6, Leading zero omitted, Abs format (unit mm)*
G04 Created by KiCad (PCBNEW 10.0.3) date 2026-06-21 02:23:58*
%MOMM*%
%LPD*%
G01*
G04 APERTURE LIST*
%TA.AperFunction,ComponentPad*%
%ADD10C,1.800000*%
%TD*%
%TA.AperFunction,ComponentPad*%
%ADD11O,1.500000X2.000000*%
%TD*%
%TA.AperFunction,ComponentPad*%
%ADD12C,1.600000*%
%TD*%
%TA.AperFunction,ComponentPad*%
%ADD13O,1.600000X2.500000*%
%TD*%
%TA.AperFunction,ComponentPad*%
%ADD14C,2.000000*%
%TD*%
%TA.AperFunction,ComponentPad*%
%ADD15O,2.500000X1.400000*%
%TD*%
%TA.AperFunction,ComponentPad*%
%ADD16O,1.450000X1.800000*%
%TD*%
%TA.AperFunction,ComponentPad*%
%ADD17O,3.000000X1.800000*%
%TD*%
%TA.AperFunction,ComponentPad*%
%ADD18C,3.000000*%
%TD*%
%TA.AperFunction,ComponentPad*%
%ADD19O,3.000000X2.000000*%
%TD*%
%TA.AperFunction,Conductor*%
%ADD20C,1.000000*%
%TD*%
%TA.AperFunction,Conductor*%
%ADD21C,2.000000*%
%TD*%
%TA.AperFunction,Conductor*%
%ADD22C,1.500000*%
%TD*%
G04 APERTURE END LIST*
D10*
%TO.P,J4,1,Feather D13*%
%TO.N,D13*%
X7770000Y29460000D03*
%TD*%
D11*
%TO.P,C1,1,+*%
%TO.N,SW_BAT*%
X22650000Y11800000D03*
%TO.P,C1,2,-*%
%TO.N,GND*%
X24650000Y11800000D03*
%TD*%
D12*
%TO.P,C2,1,+*%
%TO.N,SW_BAT*%
X29900000Y25050000D03*
%TO.P,C2,2,-*%
%TO.N,GND*%
X27400000Y25050000D03*
%TD*%
D13*
%TO.P,R2,1*%
%TO.N,BUZZER_BASE*%
X10400000Y19990000D03*
D14*
%TO.P,R2,2*%
%TO.N,GND*%
X10400000Y27610000D03*
%TD*%
D15*
%TO.P,SW1,1,ON*%
%TO.N,SW_BAT*%
X28650000Y21300000D03*
%TO.P,SW1,2,COM*%
%TO.N,BAT_IN*%
X28650000Y19300000D03*
%TO.P,SW1,3,NC*%
%TO.N,N/C*%
X28650000Y17300000D03*
%TD*%
D16*
%TO.P,J1,1,+*%
%TO.N,BAT_IN*%
X14400000Y27800000D03*
%TO.P,J1,2,-*%
%TO.N,GND*%
X16400000Y27800000D03*
%TD*%
D10*
%TO.P,Q1,1,B*%
%TO.N,BUZZER_BASE*%
X9900000Y17590000D03*
D17*
%TO.P,Q1,2,C*%
%TO.N,BUZZER_LOW*%
X9900000Y15050000D03*
D10*
%TO.P,Q1,3,E*%
%TO.N,GND*%
X9900000Y12510000D03*
%TD*%
D16*
%TO.P,J2,1,+*%
%TO.N,SW_BAT*%
X21900000Y27800000D03*
%TO.P,J2,2,-*%
%TO.N,GND*%
X23900000Y27800000D03*
%TD*%
D18*
%TO.P,D1,1,K*%
%TO.N,SW_BAT*%
X19480000Y10050000D03*
D19*
%TO.P,D1,2,A*%
%TO.N,BUZZER_LOW*%
X9320000Y10050000D03*
%TD*%
D14*
%TO.P,R1,1*%
%TO.N,D13*%
X7900000Y27610000D03*
D13*
%TO.P,R1,2*%
%TO.N,BUZZER_BASE*%
X7900000Y19990000D03*
%TD*%
D14*
%TO.P,BZ1,1,+*%
%TO.N,SW_BAT*%
X22210000Y18800000D03*
%TO.P,BZ1,2,-*%
%TO.N,BUZZER_LOW*%
X14590000Y18800000D03*
%TD*%
%TO.N,D13*%
D20*
X7770000Y27740000D02*
X7900000Y27610000D01*
D21*
X7770000Y29460000D02*
X7770000Y27740000D01*
%TO.N,SW_BAT*%
D20*
X27127208Y21300000D02*
X28650000Y21300000D01*
X21650000Y9550000D02*
X26150000Y9550000D01*
D22*
X21230000Y11800000D02*
X19480000Y10050000D01*
D20*
X22650000Y18360000D02*
X22210000Y18800000D01*
X21150000Y10050000D02*
X21650000Y9550000D01*
X21900000Y26527208D02*
X21900000Y27800000D01*
X30826131Y15476131D02*
X30900000Y15476131D01*
X30900000Y24380000D02*
X30570000Y24380000D01*
X26400000Y9800000D02*
X26400000Y11050000D01*
X30570000Y24380000D02*
X29900000Y25050000D01*
D22*
X22650000Y11800000D02*
X21230000Y11800000D01*
D20*
X27127208Y21300000D02*
X21900000Y26527208D01*
X26150000Y9550000D02*
X26400000Y9800000D01*
X30900000Y15476131D02*
X30900000Y21300000D01*
X19480000Y10050000D02*
X21150000Y10050000D01*
X30900000Y21300000D02*
X30900000Y24380000D01*
X28650000Y21300000D02*
X30900000Y21300000D01*
X22650000Y11800000D02*
X22650000Y18360000D01*
X26400000Y11050000D02*
X30826131Y15476131D01*
%TO.N,GND*%
X19482792Y20820000D02*
X17556396Y18893604D01*
X16400000Y29072792D02*
X16400000Y27800000D01*
X16400000Y27800000D02*
X18320000Y29720000D01*
X18181396Y19518604D02*
X17556396Y18893604D01*
X10400000Y27610000D02*
X12510000Y29720000D01*
X15752792Y29720000D02*
X16400000Y29072792D01*
X24650000Y19216712D02*
X23046712Y20820000D01*
X11172792Y12510000D02*
X9900000Y12510000D01*
X10400000Y24300000D02*
X13400000Y21300000D01*
X18320000Y29720000D02*
X23252792Y29720000D01*
X16400000Y21300000D02*
X18181396Y19518604D01*
X23252792Y29720000D02*
X23900000Y29072792D01*
X12510000Y29720000D02*
X15752792Y29720000D01*
X26650000Y25050000D02*
X23900000Y27800000D01*
X24650000Y11800000D02*
X24650000Y19216712D01*
X27400000Y25050000D02*
X26650000Y25050000D01*
X17556396Y18893604D02*
X11172792Y12510000D01*
X23046712Y20820000D02*
X19482792Y20820000D01*
X23900000Y29072792D02*
X23900000Y27800000D01*
X10400000Y27610000D02*
X10400000Y24300000D01*
X13400000Y21300000D02*
X16400000Y21300000D01*
%TO.N,BUZZER_BASE*%
D22*
X10400000Y19990000D02*
X10400000Y18090000D01*
D20*
X10400000Y18090000D02*
X9900000Y17590000D01*
D22*
X7900000Y19990000D02*
X10400000Y19990000D01*
%TO.N,BAT_IN*%
D20*
X26716317Y19300000D02*
X28650000Y19300000D01*
X15400000Y22800000D02*
X14400000Y23800000D01*
X14400000Y23800000D02*
X14400000Y27800000D01*
X23216317Y22800000D02*
X15400000Y22800000D01*
X26716317Y19300000D02*
X23216317Y22800000D01*
%TO.N,BUZZER_LOW*%
X9724709Y15050000D02*
X7980000Y13305291D01*
D22*
X10840000Y15050000D02*
X9900000Y15050000D01*
D20*
X7980000Y13305291D02*
X7980000Y11390000D01*
X7980000Y11390000D02*
X9320000Y10050000D01*
D22*
X14590000Y18800000D02*
X10840000Y15050000D01*
D20*
X9900000Y15050000D02*
X9724709Y15050000D01*
%TD*%
M02*
