  0
SECTION
  2
HEADER
  9
$ANGBASE
  50
0.0
  9
$ANGDIR
  70
1
  9
$MEASUREMENT
  70
1
  9
$INSUNITS
  70
4
  0
ENDSEC
  0
SECTION
  2
TABLES
  0
TABLE
  2
LTYPE
  70
4
  0
LTYPE
  5
40F
  2
CONTINUOUS
  70
0
  3
Solid line
  72
65
  73
0
  40
0.0
  0
LTYPE
  5
410
  2
DASHDOT
 70
0
  3
Dash Dot ____ _ ____ _
 72
65
 73
4
 40
2.0
 49
1.25
 49
-0.25
 49
0.25
 49
-0.25
  0
LTYPE
  5
411
  2
DASHED
 70
0
  3
Dashed __ __ __ __ __
 72
65
 73
2
 40
0.75
 49
0.5
 49
-0.25
  0
LTYPE
  5
43B
  2
DOTTED
 70
0
  3
Dotted .  .  .  .
 72
65
 73
2
 40
0.2
 49
0.0
 49
-0.2
  0
ENDTAB
  0
TABLE
  2
STYLE
  70
4
  0
STYLE
  2
KICAD
  70
0
  40
0
  41
1
  42
1
  50
0
  71
0
  3
isocp.shx
  0
STYLE
  2
KICADB
  70
0
  40
0
  41
1
  42
1
  50
0
  71
0
  3
isocp.shx
  0
STYLE
  2
KICADI
  70
0
  40
0
  41
1
  42
1
  50
15
  71
0
  3
isocp.shx
  0
STYLE
  2
KICADBI
  70
0
  40
0
  41
1
  42
1
  50
15
  71
0
  3
isocp.shx
  0
ENDTAB
  0
TABLE
  2
LAYER
  70
1
  0
LAYER
  2
BLACK
  70
0
  62
250
  6
CONTINUOUS
  0
ENDTAB
  0
ENDSEC
  0
SECTION
  2
ENTITIES
0
LINE
8
BLACK
6
CONTINUOUS
10
0.
20
75.2683969999999931
11
136.2567559999999958
21
75.2683969999999931
0
LINE
8
BLACK
6
CONTINUOUS
10
136.2567559999999958
20
75.2683969999999931
11
136.2567559999999958
21
0.
0
LINE
8
BLACK
6
CONTINUOUS
10
136.2567559999999958
20
0.
11
0.
21
0.
0
LINE
8
BLACK
6
CONTINUOUS
10
0.
20
0.
11
0.
21
75.2683969999999931
0
LINE
8
BLACK
6
CONTINUOUS
10
20.1142559999999975
20
64.977499999999992
11
23.2892559999999982
21
61.8024999999999949
0
LINE
8
BLACK
6
CONTINUOUS
10
23.2892559999999982
20
64.977499999999992
11
20.1142559999999975
21
61.8024999999999949
0
LINE
8
BLACK
6
CONTINUOUS
10
20.1142559999999975
20
47.197499999999998
11
23.2892559999999982
21
44.0225000000000009
0
LINE
8
BLACK
6
CONTINUOUS
10
23.2892559999999982
20
47.197499999999998
11
20.1142559999999975
21
44.0225000000000009
0
CIRCLE
8
BLACK
10
19.0867559999999976
20
34.1099999999999994
40
1.625
0
CIRCLE
8
BLACK
10
19.0867559999999976
20
4.5999999999999996
40
1.625
0
CIRCLE
8
BLACK
10
78.0867559999999941
20
34.1099999999999994
40
1.625
0
CIRCLE
8
BLACK
10
78.0867559999999941
20
4.5999999999999996
40
1.625
0
LINE
8
BLACK
6
CONTINUOUS
10
2.5827679999999997
20
-3.1398379999999997
11
2.5827679999999997
21
-1.1398379999999999
0
LINE
8
BLACK
6
CONTINUOUS
10
2.5827679999999997
20
-1.1398379999999999
11
3.0589580000000001
21
-1.1398379999999999
0
LINE
8
BLACK
6
CONTINUOUS
10
3.0589580000000001
20
-1.1398379999999999
11
3.3446729999999998
21
-1.2350759999999998
0
LINE
8
BLACK
6
CONTINUOUS
10
3.3446729999999998
20
-1.2350759999999998
11
3.5351489999999997
21
-1.4255519999999999
0
LINE
8
BLACK
6
CONTINUOUS
10
3.5351489999999997
20
-1.4255519999999999
11
3.6303869999999998
21
-1.616028
0
LINE
8
BLACK
6
CONTINUOUS
10
3.6303869999999998
20
-1.616028
11
3.725625
21
-1.99698
0
LINE
8
BLACK
6
CONTINUOUS
10
3.725625
20
-1.99698
11
3.725625
21
-2.2826949999999999
0
LINE
8
BLACK
6
CONTINUOUS
10
3.725625
20
-2.2826949999999999
11
3.6303869999999998
21
-2.6636470000000001
0
LINE
8
BLACK
6
CONTINUOUS
10
3.6303869999999998
20
-2.6636470000000001
11
3.5351489999999997
21
-2.854123
0
LINE
8
BLACK
6
CONTINUOUS
10
3.5351489999999997
20
-2.854123
11
3.3446729999999998
21
-3.0446
0
LINE
8
BLACK
6
CONTINUOUS
10
3.3446729999999998
20
-3.0446
11
3.0589580000000001
21
-3.1398379999999997
0
LINE
8
BLACK
6
CONTINUOUS
10
3.0589580000000001
20
-3.1398379999999997
11
2.5827679999999997
21
-3.1398379999999997
0
LINE
8
BLACK
6
CONTINUOUS
10
4.5827679999999997
20
-3.1398379999999997
11
4.5827679999999997
21
-1.8065039999999999
0
LINE
8
BLACK
6
CONTINUOUS
10
4.5827679999999997
20
-2.1874569999999998
11
4.6780059999999999
21
-1.99698
0
LINE
8
BLACK
6
CONTINUOUS
10
4.6780059999999999
20
-1.99698
11
4.773244
21
-1.9017419999999998
0
LINE
8
BLACK
6
CONTINUOUS
10
4.773244
20
-1.9017419999999998
11
4.9637199999999995
21
-1.8065039999999999
0
LINE
8
BLACK
6
CONTINUOUS
10
4.9637199999999995
20
-1.8065039999999999
11
5.1541969999999999
21
-1.8065039999999999
0
LINE
8
BLACK
6
CONTINUOUS
10
5.8208630000000001
20
-3.1398379999999997
11
5.8208630000000001
21
-1.8065039999999999
0
LINE
8
BLACK
6
CONTINUOUS
10
5.8208630000000001
20
-1.1398379999999999
11
5.725625
21
-1.2350759999999998
0
LINE
8
BLACK
6
CONTINUOUS
10
5.725625
20
-1.2350759999999998
11
5.8208630000000001
21
-1.330314
0
LINE
8
BLACK
6
CONTINUOUS
10
5.8208630000000001
20
-1.330314
11
5.9161009999999994
21
-1.2350759999999998
0
LINE
8
BLACK
6
CONTINUOUS
10
5.9161009999999994
20
-1.2350759999999998
11
5.8208630000000001
21
-1.1398379999999999
0
LINE
8
BLACK
6
CONTINUOUS
10
5.8208630000000001
20
-1.1398379999999999
11
5.8208630000000001
21
-1.330314
0
LINE
8
BLACK
6
CONTINUOUS
10
7.0589579999999996
20
-3.1398379999999997
11
6.8684819999999993
21
-3.0446
0
LINE
8
BLACK
6
CONTINUOUS
10
6.8684819999999993
20
-3.0446
11
6.773244
21
-2.854123
0
LINE
8
BLACK
6
CONTINUOUS
10
6.773244
20
-2.854123
11
6.773244
21
-1.1398379999999999
0
LINE
8
BLACK
6
CONTINUOUS
10
8.1065769999999997
20
-3.1398379999999997
11
7.9161009999999994
21
-3.0446
0
LINE
8
BLACK
6
CONTINUOUS
10
7.9161009999999994
20
-3.0446
11
7.8208629999999992
21
-2.854123
0
LINE
8
BLACK
6
CONTINUOUS
10
7.8208629999999992
20
-2.854123
11
7.8208629999999992
21
-1.1398379999999999
0
LINE
8
BLACK
6
CONTINUOUS
10
10.3922919999999994
20
-3.1398379999999997
11
10.3922919999999994
21
-1.1398379999999999
0
LINE
8
BLACK
6
CONTINUOUS
10
10.3922919999999994
20
-1.1398379999999999
11
11.0589589999999998
21
-2.5684089999999999
0
LINE
8
BLACK
6
CONTINUOUS
10
11.0589589999999998
20
-2.5684089999999999
11
11.7256249999999991
21
-1.1398379999999999
0
LINE
8
BLACK
6
CONTINUOUS
10
11.7256249999999991
20
-1.1398379999999999
11
11.7256249999999991
21
-3.1398379999999997
0
LINE
8
BLACK
6
CONTINUOUS
10
13.5351489999999988
20
-3.1398379999999997
11
13.5351489999999988
21
-2.0922190000000001
0
LINE
8
BLACK
6
CONTINUOUS
10
13.5351489999999988
20
-2.0922190000000001
11
13.4399109999999986
21
-1.9017419999999998
0
LINE
8
BLACK
6
CONTINUOUS
10
13.4399109999999986
20
-1.9017419999999998
11
13.2494350000000001
21
-1.8065039999999999
0
LINE
8
BLACK
6
CONTINUOUS
10
13.2494350000000001
20
-1.8065039999999999
11
12.8684820000000002
21
-1.8065039999999999
0
LINE
8
BLACK
6
CONTINUOUS
10
12.8684820000000002
20
-1.8065039999999999
11
12.6780059999999999
21
-1.9017419999999998
0
LINE
8
BLACK
6
CONTINUOUS
10
13.5351489999999988
20
-3.0446
11
13.3446730000000002
21
-3.1398379999999997
0
LINE
8
BLACK
6
CONTINUOUS
10
13.3446730000000002
20
-3.1398379999999997
11
12.8684820000000002
21
-3.1398379999999997
0
LINE
8
BLACK
6
CONTINUOUS
10
12.8684820000000002
20
-3.1398379999999997
11
12.6780059999999999
21
-3.0446
0
LINE
8
BLACK
6
CONTINUOUS
10
12.6780059999999999
20
-3.0446
11
12.5827679999999997
21
-2.854123
0
LINE
8
BLACK
6
CONTINUOUS
10
12.5827679999999997
20
-2.854123
11
12.5827679999999997
21
-2.6636470000000001
0
LINE
8
BLACK
6
CONTINUOUS
10
12.5827679999999997
20
-2.6636470000000001
11
12.6780059999999999
21
-2.4731709999999998
0
LINE
8
BLACK
6
CONTINUOUS
10
12.6780059999999999
20
-2.4731709999999998
11
12.8684820000000002
21
-2.3779330000000001
0
LINE
8
BLACK
6
CONTINUOUS
10
12.8684820000000002
20
-2.3779330000000001
11
13.3446730000000002
21
-2.3779330000000001
0
LINE
8
BLACK
6
CONTINUOUS
10
13.3446730000000002
20
-2.3779330000000001
11
13.5351489999999988
21
-2.2826949999999999
0
LINE
8
BLACK
6
CONTINUOUS
10
14.4875299999999996
20
-1.8065039999999999
11
14.4875299999999996
21
-3.8065039999999999
0
LINE
8
BLACK
6
CONTINUOUS
10
14.4875299999999996
20
-1.9017419999999998
11
14.6780059999999999
21
-1.8065039999999999
0
LINE
8
BLACK
6
CONTINUOUS
10
14.6780059999999999
20
-1.8065039999999999
11
15.0589589999999998
21
-1.8065039999999999
0
LINE
8
BLACK
6
CONTINUOUS
10
15.0589589999999998
20
-1.8065039999999999
11
15.2494350000000001
21
-1.9017419999999998
0
LINE
8
BLACK
6
CONTINUOUS
10
15.2494350000000001
20
-1.9017419999999998
11
15.3446729999999985
21
-1.99698
0
LINE
8
BLACK
6
CONTINUOUS
10
15.3446729999999985
20
-1.99698
11
15.4399109999999986
21
-2.1874569999999998
0
LINE
8
BLACK
6
CONTINUOUS
10
15.4399109999999986
20
-2.1874569999999998
11
15.4399109999999986
21
-2.7588849999999998
0
LINE
8
BLACK
6
CONTINUOUS
10
15.4399109999999986
20
-2.7588849999999998
11
15.3446729999999985
21
-2.9493609999999997
0
LINE
8
BLACK
6
CONTINUOUS
10
15.3446729999999985
20
-2.9493609999999997
11
15.2494350000000001
21
-3.0446
0
LINE
8
BLACK
6
CONTINUOUS
10
15.2494350000000001
20
-3.0446
11
15.0589589999999998
21
-3.1398379999999997
0
LINE
8
BLACK
6
CONTINUOUS
10
15.0589589999999998
20
-3.1398379999999997
11
14.6780059999999999
21
-3.1398379999999997
0
LINE
8
BLACK
6
CONTINUOUS
10
14.6780059999999999
20
-3.1398379999999997
11
14.4875299999999996
21
-3.0446
0
LINE
8
BLACK
6
CONTINUOUS
10
16.2970539999999993
20
-2.9493609999999997
11
16.3922919999999976
21
-3.0446
0
LINE
8
BLACK
6
CONTINUOUS
10
16.3922919999999976
20
-3.0446
11
16.2970539999999993
21
-3.1398379999999997
0
LINE
8
BLACK
6
CONTINUOUS
10
16.2970539999999993
20
-3.1398379999999997
11
16.2018160000000009
21
-3.0446
0
LINE
8
BLACK
6
CONTINUOUS
10
16.2018160000000009
20
-3.0446
11
16.2970539999999993
21
-2.9493609999999997
0
LINE
8
BLACK
6
CONTINUOUS
10
16.2970539999999993
20
-2.9493609999999997
11
16.2970539999999993
21
-3.1398379999999997
0
LINE
8
BLACK
6
CONTINUOUS
10
16.2970539999999993
20
-1.9017419999999998
11
16.3922919999999976
21
-1.99698
0
LINE
8
BLACK
6
CONTINUOUS
10
16.3922919999999976
20
-1.99698
11
16.2970539999999993
21
-2.0922190000000001
0
LINE
8
BLACK
6
CONTINUOUS
10
16.2970539999999993
20
-2.0922190000000001
11
16.2018160000000009
21
-1.99698
0
LINE
8
BLACK
6
CONTINUOUS
10
16.2018160000000009
20
-1.99698
11
16.2970539999999993
21
-1.9017419999999998
0
LINE
8
BLACK
6
CONTINUOUS
10
16.2970539999999993
20
-1.9017419999999998
11
16.2970539999999993
21
-2.0922190000000001
0
LINE
8
BLACK
6
CONTINUOUS
10
-2.0249999999999999
20
-5.4249999999999998
11
-0.025
21
-7.4249999999999998
0
LINE
8
BLACK
6
CONTINUOUS
10
-0.025
20
-5.4249999999999998
11
-2.0249999999999999
21
-7.4249999999999998
0
LINE
8
BLACK
6
CONTINUOUS
10
2.3922919999999999
20
-5.3398379999999994
11
3.6303869999999998
21
-5.3398379999999994
0
LINE
8
BLACK
6
CONTINUOUS
10
3.6303869999999998
20
-5.3398379999999994
11
2.9637199999999999
21
-6.1017419999999998
0
LINE
8
BLACK
6
CONTINUOUS
10
2.9637199999999999
20
-6.1017419999999998
11
3.2494350000000001
21
-6.1017419999999998
0
LINE
8
BLACK
6
CONTINUOUS
10
3.2494350000000001
20
-6.1017419999999998
11
3.4399109999999999
21
-6.1969799999999999
0
LINE
8
BLACK
6
CONTINUOUS
10
3.4399109999999999
20
-6.1969799999999999
11
3.5351489999999997
21
-6.2922189999999993
0
LINE
8
BLACK
6
CONTINUOUS
10
3.5351489999999997
20
-6.2922189999999993
11
3.6303869999999998
21
-6.4826949999999997
0
LINE
8
BLACK
6
CONTINUOUS
10
3.6303869999999998
20
-6.4826949999999997
11
3.6303869999999998
21
-6.9588849999999995
0
LINE
8
BLACK
6
CONTINUOUS
10
3.6303869999999998
20
-6.9588849999999995
11
3.5351489999999997
21
-7.1493609999999999
0
LINE
8
BLACK
6
CONTINUOUS
10
3.5351489999999997
20
-7.1493609999999999
11
3.4399109999999999
21
-7.2445999999999993
0
LINE
8
BLACK
6
CONTINUOUS
10
3.4399109999999999
20
-7.2445999999999993
11
3.2494350000000001
21
-7.3398379999999994
0
LINE
8
BLACK
6
CONTINUOUS
10
3.2494350000000001
20
-7.3398379999999994
11
2.6780059999999999
21
-7.3398379999999994
0
LINE
8
BLACK
6
CONTINUOUS
10
2.6780059999999999
20
-7.3398379999999994
11
2.48753
21
-7.2445999999999993
0
LINE
8
BLACK
6
CONTINUOUS
10
2.48753
20
-7.2445999999999993
11
2.3922919999999999
21
-7.1493609999999999
0
LINE
8
BLACK
6
CONTINUOUS
10
4.4875299999999996
20
-7.1493609999999999
11
4.5827679999999997
21
-7.2445999999999993
0
LINE
8
BLACK
6
CONTINUOUS
10
4.5827679999999997
20
-7.2445999999999993
11
4.4875299999999996
21
-7.3398379999999994
0
LINE
8
BLACK
6
CONTINUOUS
10
4.4875299999999996
20
-7.3398379999999994
11
4.3922919999999994
21
-7.2445999999999993
0
LINE
8
BLACK
6
CONTINUOUS
10
4.3922919999999994
20
-7.2445999999999993
11
4.4875299999999996
21
-7.1493609999999999
0
LINE
8
BLACK
6
CONTINUOUS
10
4.4875299999999996
20
-7.1493609999999999
11
4.4875299999999996
21
-7.3398379999999994
0
LINE
8
BLACK
6
CONTINUOUS
10
6.4875299999999996
20
-7.3398379999999994
11
5.3446729999999993
21
-7.3398379999999994
0
LINE
8
BLACK
6
CONTINUOUS
10
5.9161009999999994
20
-7.3398379999999994
11
5.9161009999999994
21
-5.3398379999999994
0
LINE
8
BLACK
6
CONTINUOUS
10
5.9161009999999994
20
-5.3398379999999994
11
5.725625
21
-5.6255519999999999
0
LINE
8
BLACK
6
CONTINUOUS
10
5.725625
20
-5.6255519999999999
11
5.5351489999999997
21
-5.8160279999999993
0
LINE
8
BLACK
6
CONTINUOUS
10
5.5351489999999997
20
-5.8160279999999993
11
5.3446729999999993
21
-5.9112659999999995
0
LINE
8
BLACK
6
CONTINUOUS
10
7.1541969999999999
20
-5.3398379999999994
11
8.4875299999999996
21
-5.3398379999999994
0
LINE
8
BLACK
6
CONTINUOUS
10
8.4875299999999996
20
-5.3398379999999994
11
7.6303869999999998
21
-7.3398379999999994
0
LINE
8
BLACK
6
CONTINUOUS
10
10.2018159999999991
20
-5.3398379999999994
11
9.2494350000000001
21
-5.3398379999999994
0
LINE
8
BLACK
6
CONTINUOUS
10
9.2494350000000001
20
-5.3398379999999994
11
9.1541969999999999
21
-6.2922189999999993
0
LINE
8
BLACK
6
CONTINUOUS
10
9.1541969999999999
20
-6.2922189999999993
11
9.2494350000000001
21
-6.1969799999999999
0
LINE
8
BLACK
6
CONTINUOUS
10
9.2494350000000001
20
-6.1969799999999999
11
9.4399110000000004
21
-6.1017419999999998
0
LINE
8
BLACK
6
CONTINUOUS
10
9.4399110000000004
20
-6.1017419999999998
11
9.9161020000000004
21
-6.1017419999999998
0
LINE
8
BLACK
6
CONTINUOUS
10
9.9161020000000004
20
-6.1017419999999998
11
10.106577999999999
21
-6.1969799999999999
0
LINE
8
BLACK
6
CONTINUOUS
10
10.106577999999999
20
-6.1969799999999999
11
10.2018159999999991
21
-6.2922189999999993
0
LINE
8
BLACK
6
CONTINUOUS
10
10.2018159999999991
20
-6.2922189999999993
11
10.2970539999999993
21
-6.4826949999999997
0
LINE
8
BLACK
6
CONTINUOUS
10
10.2970539999999993
20
-6.4826949999999997
11
10.2970539999999993
21
-6.9588849999999995
0
LINE
8
BLACK
6
CONTINUOUS
10
10.2970539999999993
20
-6.9588849999999995
11
10.2018159999999991
21
-7.1493609999999999
0
LINE
8
BLACK
6
CONTINUOUS
10
10.2018159999999991
20
-7.1493609999999999
11
10.106577999999999
21
-7.2445999999999993
0
LINE
8
BLACK
6
CONTINUOUS
10
10.106577999999999
20
-7.2445999999999993
11
9.9161020000000004
21
-7.3398379999999994
0
LINE
8
BLACK
6
CONTINUOUS
10
9.9161020000000004
20
-7.3398379999999994
11
9.4399110000000004
21
-7.3398379999999994
0
LINE
8
BLACK
6
CONTINUOUS
10
9.4399110000000004
20
-7.3398379999999994
11
9.2494350000000001
21
-7.2445999999999993
0
LINE
8
BLACK
6
CONTINUOUS
10
9.2494350000000001
20
-7.2445999999999993
11
9.1541969999999999
21
-7.1493609999999999
0
LINE
8
BLACK
6
CONTINUOUS
10
11.1541969999999999
20
-7.3398379999999994
11
11.1541969999999999
21
-6.0065039999999996
0
LINE
8
BLACK
6
CONTINUOUS
10
11.1541969999999999
20
-6.1969799999999999
11
11.2494350000000001
21
-6.1017419999999998
0
LINE
8
BLACK
6
CONTINUOUS
10
11.2494350000000001
20
-6.1017419999999998
11
11.4399109999999986
21
-6.0065039999999996
0
LINE
8
BLACK
6
CONTINUOUS
10
11.4399109999999986
20
-6.0065039999999996
11
11.7256260000000001
21
-6.0065039999999996
0
LINE
8
BLACK
6
CONTINUOUS
10
11.7256260000000001
20
-6.0065039999999996
11
11.9161019999999986
21
-6.1017419999999998
0
LINE
8
BLACK
6
CONTINUOUS
10
11.9161019999999986
20
-6.1017419999999998
11
12.0113399999999988
21
-6.2922189999999993
0
LINE
8
BLACK
6
CONTINUOUS
10
12.0113399999999988
20
-6.2922189999999993
11
12.0113399999999988
21
-7.3398379999999994
0
LINE
8
BLACK
6
CONTINUOUS
10
12.0113399999999988
20
-6.2922189999999993
11
12.106577999999999
21
-6.1017419999999998
0
LINE
8
BLACK
6
CONTINUOUS
10
12.106577999999999
20
-6.1017419999999998
11
12.2970539999999993
21
-6.0065039999999996
0
LINE
8
BLACK
6
CONTINUOUS
10
12.2970539999999993
20
-6.0065039999999996
11
12.5827679999999997
21
-6.0065039999999996
0
LINE
8
BLACK
6
CONTINUOUS
10
12.5827679999999997
20
-6.0065039999999996
11
12.7732449999999993
21
-6.1017419999999998
0
LINE
8
BLACK
6
CONTINUOUS
10
12.7732449999999993
20
-6.1017419999999998
11
12.8684829999999994
21
-6.2922189999999993
0
LINE
8
BLACK
6
CONTINUOUS
10
12.8684829999999994
20
-6.2922189999999993
11
12.8684829999999994
21
-7.3398379999999994
0
LINE
8
BLACK
6
CONTINUOUS
10
13.8208640000000003
20
-7.3398379999999994
11
13.8208640000000003
21
-6.0065039999999996
0
LINE
8
BLACK
6
CONTINUOUS
10
13.8208640000000003
20
-6.1969799999999999
11
13.9161019999999986
21
-6.1017419999999998
0
LINE
8
BLACK
6
CONTINUOUS
10
13.9161019999999986
20
-6.1017419999999998
11
14.106577999999999
21
-6.0065039999999996
0
LINE
8
BLACK
6
CONTINUOUS
10
14.106577999999999
20
-6.0065039999999996
11
14.3922929999999987
21
-6.0065039999999996
0
LINE
8
BLACK
6
CONTINUOUS
10
14.3922929999999987
20
-6.0065039999999996
11
14.582768999999999
21
-6.1017419999999998
0
LINE
8
BLACK
6
CONTINUOUS
10
14.582768999999999
20
-6.1017419999999998
11
14.6780069999999991
21
-6.2922189999999993
0
LINE
8
BLACK
6
CONTINUOUS
10
14.6780069999999991
20
-6.2922189999999993
11
14.6780069999999991
21
-7.3398379999999994
0
LINE
8
BLACK
6
CONTINUOUS
10
14.6780069999999991
20
-6.2922189999999993
11
14.7732449999999993
21
-6.1017419999999998
0
LINE
8
BLACK
6
CONTINUOUS
10
14.7732449999999993
20
-6.1017419999999998
11
14.9637209999999996
21
-6.0065039999999996
0
LINE
8
BLACK
6
CONTINUOUS
10
14.9637209999999996
20
-6.0065039999999996
11
15.2494350000000001
21
-6.0065039999999996
0
LINE
8
BLACK
6
CONTINUOUS
10
15.2494350000000001
20
-6.0065039999999996
11
15.4399119999999996
21
-6.1017419999999998
0
LINE
8
BLACK
6
CONTINUOUS
10
15.4399119999999996
20
-6.1017419999999998
11
15.5351499999999998
21
-6.2922189999999993
0
LINE
8
BLACK
6
CONTINUOUS
10
15.5351499999999998
20
-6.2922189999999993
11
15.5351499999999998
21
-7.3398379999999994
0
LINE
8
BLACK
6
CONTINUOUS
10
19.4399119999999996
20
-5.2446000000000002
11
17.7256269999999994
21
-7.8160279999999993
0
LINE
8
BLACK
6
CONTINUOUS
10
22.011340999999998
20
-5.3398379999999994
11
22.2018179999999994
21
-5.3398379999999994
0
LINE
8
BLACK
6
CONTINUOUS
10
22.2018179999999994
20
-5.3398379999999994
11
22.3922939999999997
21
-5.4350759999999996
0
LINE
8
BLACK
6
CONTINUOUS
10
22.3922939999999997
20
-5.4350759999999996
11
22.4875319999999981
21
-5.5303139999999997
0
LINE
8
BLACK
6
CONTINUOUS
10
22.4875319999999981
20
-5.5303139999999997
11
22.58277
21
-5.72079
0
LINE
8
BLACK
6
CONTINUOUS
10
22.58277
20
-5.72079
11
22.6780079999999984
21
-6.1017419999999998
0
LINE
8
BLACK
6
CONTINUOUS
10
22.6780079999999984
20
-6.1017419999999998
11
22.6780079999999984
21
-6.5779329999999998
0
LINE
8
BLACK
6
CONTINUOUS
10
22.6780079999999984
20
-6.5779329999999998
11
22.58277
21
-6.9588849999999995
0
LINE
8
BLACK
6
CONTINUOUS
10
22.58277
20
-6.9588849999999995
11
22.4875319999999981
21
-7.1493609999999999
0
LINE
8
BLACK
6
CONTINUOUS
10
22.4875319999999981
20
-7.1493609999999999
11
22.3922939999999997
21
-7.2445999999999993
0
LINE
8
BLACK
6
CONTINUOUS
10
22.3922939999999997
20
-7.2445999999999993
11
22.2018179999999994
21
-7.3398379999999994
0
LINE
8
BLACK
6
CONTINUOUS
10
22.2018179999999994
20
-7.3398379999999994
11
22.011340999999998
21
-7.3398379999999994
0
LINE
8
BLACK
6
CONTINUOUS
10
22.011340999999998
20
-7.3398379999999994
11
21.8208649999999977
21
-7.2445999999999993
0
LINE
8
BLACK
6
CONTINUOUS
10
21.8208649999999977
20
-7.2445999999999993
11
21.7256269999999994
21
-7.1493609999999999
0
LINE
8
BLACK
6
CONTINUOUS
10
21.7256269999999994
20
-7.1493609999999999
11
21.6303889999999974
21
-6.9588849999999995
0
LINE
8
BLACK
6
CONTINUOUS
10
21.6303889999999974
20
-6.9588849999999995
11
21.535150999999999
21
-6.5779329999999998
0
LINE
8
BLACK
6
CONTINUOUS
10
21.535150999999999
20
-6.5779329999999998
11
21.535150999999999
21
-6.1017419999999998
0
LINE
8
BLACK
6
CONTINUOUS
10
21.535150999999999
20
-6.1017419999999998
11
21.6303889999999974
21
-5.72079
0
LINE
8
BLACK
6
CONTINUOUS
10
21.6303889999999974
20
-5.72079
11
21.7256269999999994
21
-5.5303139999999997
0
LINE
8
BLACK
6
CONTINUOUS
10
21.7256269999999994
20
-5.5303139999999997
11
21.8208649999999977
21
-5.4350759999999996
0
LINE
8
BLACK
6
CONTINUOUS
10
21.8208649999999977
20
-5.4350759999999996
11
22.011340999999998
21
-5.3398379999999994
0
LINE
8
BLACK
6
CONTINUOUS
10
23.535150999999999
20
-7.1493609999999999
11
23.6303889999999974
21
-7.2445999999999993
0
LINE
8
BLACK
6
CONTINUOUS
10
23.6303889999999974
20
-7.2445999999999993
11
23.535150999999999
21
-7.3398379999999994
0
LINE
8
BLACK
6
CONTINUOUS
10
23.535150999999999
20
-7.3398379999999994
11
23.4399130000000007
21
-7.2445999999999993
0
LINE
8
BLACK
6
CONTINUOUS
10
23.4399130000000007
20
-7.2445999999999993
11
23.535150999999999
21
-7.1493609999999999
0
LINE
8
BLACK
6
CONTINUOUS
10
23.535150999999999
20
-7.1493609999999999
11
23.535150999999999
21
-7.3398379999999994
0
LINE
8
BLACK
6
CONTINUOUS
10
25.535150999999999
20
-7.3398379999999994
11
24.3922939999999997
21
-7.3398379999999994
0
LINE
8
BLACK
6
CONTINUOUS
10
24.9637220000000006
20
-7.3398379999999994
11
24.9637220000000006
21
-5.3398379999999994
0
LINE
8
BLACK
6
CONTINUOUS
10
24.9637220000000006
20
-5.3398379999999994
11
24.7732460000000003
21
-5.6255519999999999
0
LINE
8
BLACK
6
CONTINUOUS
10
24.7732460000000003
20
-5.6255519999999999
11
24.58277
21
-5.8160279999999993
0
LINE
8
BLACK
6
CONTINUOUS
10
24.58277
20
-5.8160279999999993
11
24.3922939999999997
21
-5.9112659999999995
0
LINE
8
BLACK
6
CONTINUOUS
10
26.2970559999999978
20
-5.5303139999999997
11
26.3922939999999997
21
-5.4350759999999996
0
LINE
8
BLACK
6
CONTINUOUS
10
26.3922939999999997
20
-5.4350759999999996
11
26.58277
21
-5.3398379999999994
0
LINE
8
BLACK
6
CONTINUOUS
10
26.58277
20
-5.3398379999999994
11
27.058961
21
-5.3398379999999994
0
LINE
8
BLACK
6
CONTINUOUS
10
27.058961
20
-5.3398379999999994
11
27.2494370000000004
21
-5.4350759999999996
0
LINE
8
BLACK
6
CONTINUOUS
10
27.2494370000000004
20
-5.4350759999999996
11
27.3446749999999987
21
-5.5303139999999997
0
LINE
8
BLACK
6
CONTINUOUS
10
27.3446749999999987
20
-5.5303139999999997
11
27.4399129999999971
21
-5.72079
0
LINE
8
BLACK
6
CONTINUOUS
10
27.4399129999999971
20
-5.72079
11
27.4399129999999971
21
-5.9112659999999995
0
LINE
8
BLACK
6
CONTINUOUS
10
27.4399129999999971
20
-5.9112659999999995
11
27.3446749999999987
21
-6.1969799999999999
0
LINE
8
BLACK
6
CONTINUOUS
10
27.3446749999999987
20
-6.1969799999999999
11
26.2018179999999994
21
-7.3398379999999994
0
LINE
8
BLACK
6
CONTINUOUS
10
26.2018179999999994
20
-7.3398379999999994
11
27.4399129999999971
21
-7.3398379999999994
0
LINE
8
BLACK
6
CONTINUOUS
10
29.2494370000000004
20
-5.3398379999999994
11
28.2970559999999978
21
-5.3398379999999994
0
LINE
8
BLACK
6
CONTINUOUS
10
28.2970559999999978
20
-5.3398379999999994
11
28.2018179999999994
21
-6.2922189999999993
0
LINE
8
BLACK
6
CONTINUOUS
10
28.2018179999999994
20
-6.2922189999999993
11
28.2970559999999978
21
-6.1969799999999999
0
LINE
8
BLACK
6
CONTINUOUS
10
28.2970559999999978
20
-6.1969799999999999
11
28.4875319999999981
21
-6.1017419999999998
0
LINE
8
BLACK
6
CONTINUOUS
10
28.4875319999999981
20
-6.1017419999999998
11
28.9637229999999981
21
-6.1017419999999998
0
LINE
8
BLACK
6
CONTINUOUS
10
28.9637229999999981
20
-6.1017419999999998
11
29.1541989999999984
21
-6.1969799999999999
0
LINE
8
BLACK
6
CONTINUOUS
10
29.1541989999999984
20
-6.1969799999999999
11
29.2494370000000004
21
-6.2922189999999993
0
LINE
8
BLACK
6
CONTINUOUS
10
29.2494370000000004
20
-6.2922189999999993
11
29.3446749999999987
21
-6.4826949999999997
0
LINE
8
BLACK
6
CONTINUOUS
10
29.3446749999999987
20
-6.4826949999999997
11
29.3446749999999987
21
-6.9588849999999995
0
LINE
8
BLACK
6
CONTINUOUS
10
29.3446749999999987
20
-6.9588849999999995
11
29.2494370000000004
21
-7.1493609999999999
0
LINE
8
BLACK
6
CONTINUOUS
10
29.2494370000000004
20
-7.1493609999999999
11
29.1541989999999984
21
-7.2445999999999993
0
LINE
8
BLACK
6
CONTINUOUS
10
29.1541989999999984
20
-7.2445999999999993
11
28.9637229999999981
21
-7.3398379999999994
0
LINE
8
BLACK
6
CONTINUOUS
10
28.9637229999999981
20
-7.3398379999999994
11
28.4875319999999981
21
-7.3398379999999994
0
LINE
8
BLACK
6
CONTINUOUS
10
28.4875319999999981
20
-7.3398379999999994
11
28.2970559999999978
21
-7.2445999999999993
0
LINE
8
BLACK
6
CONTINUOUS
10
28.2970559999999978
20
-7.2445999999999993
11
28.2018179999999994
21
-7.1493609999999999
0
LINE
8
BLACK
6
CONTINUOUS
10
30.58277
20
-5.3398379999999994
11
30.7732469999999978
21
-5.3398379999999994
0
LINE
8
BLACK
6
CONTINUOUS
10
30.7732469999999978
20
-5.3398379999999994
11
30.9637229999999981
21
-5.4350759999999996
0
LINE
8
BLACK
6
CONTINUOUS
10
30.9637229999999981
20
-5.4350759999999996
11
31.058961
21
-5.5303139999999997
0
LINE
8
BLACK
6
CONTINUOUS
10
31.058961
20
-5.5303139999999997
11
31.1541989999999984
21
-5.72079
0
LINE
8
BLACK
6
CONTINUOUS
10
31.1541989999999984
20
-5.72079
11
31.2494370000000004
21
-6.1017419999999998
0
LINE
8
BLACK
6
CONTINUOUS
10
31.2494370000000004
20
-6.1017419999999998
11
31.2494370000000004
21
-6.5779329999999998
0
LINE
8
BLACK
6
CONTINUOUS
10
31.2494370000000004
20
-6.5779329999999998
11
31.1541989999999984
21
-6.9588849999999995
0
LINE
8
BLACK
6
CONTINUOUS
10
31.1541989999999984
20
-6.9588849999999995
11
31.058961
21
-7.1493609999999999
0
LINE
8
BLACK
6
CONTINUOUS
10
31.058961
20
-7.1493609999999999
11
30.9637229999999981
21
-7.2445999999999993
0
LINE
8
BLACK
6
CONTINUOUS
10
30.9637229999999981
20
-7.2445999999999993
11
30.7732469999999978
21
-7.3398379999999994
0
LINE
8
BLACK
6
CONTINUOUS
10
30.7732469999999978
20
-7.3398379999999994
11
30.58277
21
-7.3398379999999994
0
LINE
8
BLACK
6
CONTINUOUS
10
30.58277
20
-7.3398379999999994
11
30.3922939999999997
21
-7.2445999999999993
0
LINE
8
BLACK
6
CONTINUOUS
10
30.3922939999999997
20
-7.2445999999999993
11
30.2970559999999978
21
-7.1493609999999999
0
LINE
8
BLACK
6
CONTINUOUS
10
30.2970559999999978
20
-7.1493609999999999
11
30.2018179999999994
21
-6.9588849999999995
0
LINE
8
BLACK
6
CONTINUOUS
10
30.2018179999999994
20
-6.9588849999999995
11
30.1065799999999975
21
-6.5779329999999998
0
LINE
8
BLACK
6
CONTINUOUS
10
30.1065799999999975
20
-6.5779329999999998
11
30.1065799999999975
21
-6.1017419999999998
0
LINE
8
BLACK
6
CONTINUOUS
10
30.1065799999999975
20
-6.1017419999999998
11
30.2018179999999994
21
-5.72079
0
LINE
8
BLACK
6
CONTINUOUS
10
30.2018179999999994
20
-5.72079
11
30.2970559999999978
21
-5.5303139999999997
0
LINE
8
BLACK
6
CONTINUOUS
10
30.2970559999999978
20
-5.5303139999999997
11
30.3922939999999997
21
-5.4350759999999996
0
LINE
8
BLACK
6
CONTINUOUS
10
30.3922939999999997
20
-5.4350759999999996
11
30.58277
21
-5.3398379999999994
0
LINE
8
BLACK
6
CONTINUOUS
10
32.0113419999999991
20
-5.3398379999999994
11
32.0113419999999991
21
-5.72079
0
LINE
8
BLACK
6
CONTINUOUS
10
32.7732469999999978
20
-5.3398379999999994
11
32.7732469999999978
21
-5.72079
0
LINE
8
BLACK
6
CONTINUOUS
10
35.7256289999999979
20
-8.1017419999999998
11
35.6303899999999985
21
-8.0065039999999996
0
LINE
8
BLACK
6
CONTINUOUS
10
35.6303899999999985
20
-8.0065039999999996
11
35.4399140000000017
21
-7.72079
0
LINE
8
BLACK
6
CONTINUOUS
10
35.4399140000000017
20
-7.72079
11
35.3446759999999998
21
-7.5303139999999997
0
LINE
8
BLACK
6
CONTINUOUS
10
35.3446759999999998
20
-7.5303139999999997
11
35.2494379999999978
21
-7.2445999999999993
0
LINE
8
BLACK
6
CONTINUOUS
10
35.2494379999999978
20
-7.2445999999999993
11
35.1541999999999959
21
-6.7684090000000001
0
LINE
8
BLACK
6
CONTINUOUS
10
35.1541999999999959
20
-6.7684090000000001
11
35.1541999999999959
21
-6.3874569999999995
0
LINE
8
BLACK
6
CONTINUOUS
10
35.1541999999999959
20
-6.3874569999999995
11
35.2494379999999978
21
-5.9112659999999995
0
LINE
8
BLACK
6
CONTINUOUS
10
35.2494379999999978
20
-5.9112659999999995
11
35.3446759999999998
21
-5.6255519999999999
0
LINE
8
BLACK
6
CONTINUOUS
10
35.3446759999999998
20
-5.6255519999999999
11
35.4399140000000017
21
-5.4350759999999996
0
LINE
8
BLACK
6
CONTINUOUS
10
35.4399140000000017
20
-5.4350759999999996
11
35.6303899999999985
21
-5.1493609999999999
0
LINE
8
BLACK
6
CONTINUOUS
10
35.6303899999999985
20
-5.1493609999999999
11
35.7256289999999979
21
-5.0541229999999997
0
LINE
8
BLACK
6
CONTINUOUS
10
36.3922949999999972
20
-5.5303139999999997
11
36.4875329999999991
21
-5.4350759999999996
0
LINE
8
BLACK
6
CONTINUOUS
10
36.4875329999999991
20
-5.4350759999999996
11
36.6780089999999959
21
-5.3398379999999994
0
LINE
8
BLACK
6
CONTINUOUS
10
36.6780089999999959
20
-5.3398379999999994
11
37.1541999999999959
21
-5.3398379999999994
0
LINE
8
BLACK
6
CONTINUOUS
10
37.1541999999999959
20
-5.3398379999999994
11
37.3446759999999998
21
-5.4350759999999996
0
LINE
8
BLACK
6
CONTINUOUS
10
37.3446759999999998
20
-5.4350759999999996
11
37.4399140000000017
21
-5.5303139999999997
0
LINE
8
BLACK
6
CONTINUOUS
10
37.4399140000000017
20
-5.5303139999999997
11
37.5351519999999965
21
-5.72079
0
LINE
8
BLACK
6
CONTINUOUS
10
37.5351519999999965
20
-5.72079
11
37.5351519999999965
21
-5.9112659999999995
0
LINE
8
BLACK
6
CONTINUOUS
10
37.5351519999999965
20
-5.9112659999999995
11
37.4399140000000017
21
-6.1969799999999999
0
LINE
8
BLACK
6
CONTINUOUS
10
37.4399140000000017
20
-6.1969799999999999
11
36.2970569999999952
21
-7.3398379999999994
0
LINE
8
BLACK
6
CONTINUOUS
10
36.2970569999999952
20
-7.3398379999999994
11
37.5351519999999965
21
-7.3398379999999994
0
LINE
8
BLACK
6
CONTINUOUS
10
39.9161050000000017
20
-7.3398379999999994
11
39.9161050000000017
21
-5.3398379999999994
0
LINE
8
BLACK
6
CONTINUOUS
10
40.7732479999999953
20
-7.3398379999999994
11
40.7732479999999953
21
-6.2922189999999993
0
LINE
8
BLACK
6
CONTINUOUS
10
40.7732479999999953
20
-6.2922189999999993
11
40.6780100000000004
21
-6.1017419999999998
0
LINE
8
BLACK
6
CONTINUOUS
10
40.6780100000000004
20
-6.1017419999999998
11
40.4875339999999966
21
-6.0065039999999996
0
LINE
8
BLACK
6
CONTINUOUS
10
40.4875339999999966
20
-6.0065039999999996
11
40.2018190000000004
21
-6.0065039999999996
0
LINE
8
BLACK
6
CONTINUOUS
10
40.2018190000000004
20
-6.0065039999999996
11
40.0113429999999966
21
-6.1017419999999998
0
LINE
8
BLACK
6
CONTINUOUS
10
40.0113429999999966
20
-6.1017419999999998
11
39.9161050000000017
21
-6.1969799999999999
0
LINE
8
BLACK
6
CONTINUOUS
10
42.0113429999999966
20
-7.3398379999999994
11
41.8208669999999998
21
-7.2445999999999993
0
LINE
8
BLACK
6
CONTINUOUS
10
41.8208669999999998
20
-7.2445999999999993
11
41.7256289999999979
21
-7.1493609999999999
0
LINE
8
BLACK
6
CONTINUOUS
10
41.7256289999999979
20
-7.1493609999999999
11
41.6303909999999959
21
-6.9588849999999995
0
LINE
8
BLACK
6
CONTINUOUS
10
41.6303909999999959
20
-6.9588849999999995
11
41.6303909999999959
21
-6.3874569999999995
0
LINE
8
BLACK
6
CONTINUOUS
10
41.6303909999999959
20
-6.3874569999999995
11
41.7256289999999979
21
-6.1969799999999999
0
LINE
8
BLACK
6
CONTINUOUS
10
41.7256289999999979
20
-6.1969799999999999
11
41.8208669999999998
21
-6.1017419999999998
0
LINE
8
BLACK
6
CONTINUOUS
10
41.8208669999999998
20
-6.1017419999999998
11
42.0113429999999966
21
-6.0065039999999996
0
LINE
8
BLACK
6
CONTINUOUS
10
42.0113429999999966
20
-6.0065039999999996
11
42.2970579999999998
21
-6.0065039999999996
0
LINE
8
BLACK
6
CONTINUOUS
10
42.2970579999999998
20
-6.0065039999999996
11
42.4875339999999966
21
-6.1017419999999998
0
LINE
8
BLACK
6
CONTINUOUS
10
42.4875339999999966
20
-6.1017419999999998
11
42.5827719999999985
21
-6.1969799999999999
0
LINE
8
BLACK
6
CONTINUOUS
10
42.5827719999999985
20
-6.1969799999999999
11
42.6780100000000004
21
-6.3874569999999995
0
LINE
8
BLACK
6
CONTINUOUS
10
42.6780100000000004
20
-6.3874569999999995
11
42.6780100000000004
21
-6.9588849999999995
0
LINE
8
BLACK
6
CONTINUOUS
10
42.6780100000000004
20
-6.9588849999999995
11
42.5827719999999985
21
-7.1493609999999999
0
LINE
8
BLACK
6
CONTINUOUS
10
42.5827719999999985
20
-7.1493609999999999
11
42.4875339999999966
21
-7.2445999999999993
0
LINE
8
BLACK
6
CONTINUOUS
10
42.4875339999999966
20
-7.2445999999999993
11
42.2970579999999998
21
-7.3398379999999994
0
LINE
8
BLACK
6
CONTINUOUS
10
42.2970579999999998
20
-7.3398379999999994
11
42.0113429999999966
21
-7.3398379999999994
0
LINE
8
BLACK
6
CONTINUOUS
10
43.8208669999999998
20
-7.3398379999999994
11
43.6303909999999959
21
-7.2445999999999993
0
LINE
8
BLACK
6
CONTINUOUS
10
43.6303909999999959
20
-7.2445999999999993
11
43.5351530000000011
21
-7.0541229999999997
0
LINE
8
BLACK
6
CONTINUOUS
10
43.5351530000000011
20
-7.0541229999999997
11
43.5351530000000011
21
-5.3398379999999994
0
LINE
8
BLACK
6
CONTINUOUS
10
45.3446769999999972
20
-7.2445999999999993
11
45.1542010000000005
21
-7.3398379999999994
0
LINE
8
BLACK
6
CONTINUOUS
10
45.1542010000000005
20
-7.3398379999999994
11
44.7732479999999953
21
-7.3398379999999994
0
LINE
8
BLACK
6
CONTINUOUS
10
44.7732479999999953
20
-7.3398379999999994
11
44.5827719999999985
21
-7.2445999999999993
0
LINE
8
BLACK
6
CONTINUOUS
10
44.5827719999999985
20
-7.2445999999999993
11
44.4875339999999966
21
-7.0541229999999997
0
LINE
8
BLACK
6
CONTINUOUS
10
44.4875339999999966
20
-7.0541229999999997
11
44.4875339999999966
21
-6.2922189999999993
0
LINE
8
BLACK
6
CONTINUOUS
10
44.4875339999999966
20
-6.2922189999999993
11
44.5827719999999985
21
-6.1017419999999998
0
LINE
8
BLACK
6
CONTINUOUS
10
44.5827719999999985
20
-6.1017419999999998
11
44.7732479999999953
21
-6.0065039999999996
0
LINE
8
BLACK
6
CONTINUOUS
10
44.7732479999999953
20
-6.0065039999999996
11
45.1542010000000005
21
-6.0065039999999996
0
LINE
8
BLACK
6
CONTINUOUS
10
45.1542010000000005
20
-6.0065039999999996
11
45.3446769999999972
21
-6.1017419999999998
0
LINE
8
BLACK
6
CONTINUOUS
10
45.3446769999999972
20
-6.1017419999999998
11
45.4399149999999992
21
-6.2922189999999993
0
LINE
8
BLACK
6
CONTINUOUS
10
45.4399149999999992
20
-6.2922189999999993
11
45.4399149999999992
21
-6.4826949999999997
0
LINE
8
BLACK
6
CONTINUOUS
10
45.4399149999999992
20
-6.4826949999999997
11
44.4875339999999966
21
-6.673171
0
LINE
8
BLACK
6
CONTINUOUS
10
46.2018199999999979
20
-7.2445999999999993
11
46.3922959999999946
21
-7.3398379999999994
0
LINE
8
BLACK
6
CONTINUOUS
10
46.3922959999999946
20
-7.3398379999999994
11
46.7732479999999953
21
-7.3398379999999994
0
LINE
8
BLACK
6
CONTINUOUS
10
46.7732479999999953
20
-7.3398379999999994
11
46.9637249999999966
21
-7.2445999999999993
0
LINE
8
BLACK
6
CONTINUOUS
10
46.9637249999999966
20
-7.2445999999999993
11
47.0589629999999985
21
-7.0541229999999997
0
LINE
8
BLACK
6
CONTINUOUS
10
47.0589629999999985
20
-7.0541229999999997
11
47.0589629999999985
21
-6.9588849999999995
0
LINE
8
BLACK
6
CONTINUOUS
10
47.0589629999999985
20
-6.9588849999999995
11
46.9637249999999966
21
-6.7684090000000001
0
LINE
8
BLACK
6
CONTINUOUS
10
46.9637249999999966
20
-6.7684090000000001
11
46.7732479999999953
21
-6.673171
0
LINE
8
BLACK
6
CONTINUOUS
10
46.7732479999999953
20
-6.673171
11
46.4875339999999966
21
-6.673171
0
LINE
8
BLACK
6
CONTINUOUS
10
46.4875339999999966
20
-6.673171
11
46.2970579999999998
21
-6.5779329999999998
0
LINE
8
BLACK
6
CONTINUOUS
10
46.2970579999999998
20
-6.5779329999999998
11
46.2018199999999979
21
-6.3874569999999995
0
LINE
8
BLACK
6
CONTINUOUS
10
46.2018199999999979
20
-6.3874569999999995
11
46.2018199999999979
21
-6.2922189999999993
0
LINE
8
BLACK
6
CONTINUOUS
10
46.2018199999999979
20
-6.2922189999999993
11
46.2970579999999998
21
-6.1017419999999998
0
LINE
8
BLACK
6
CONTINUOUS
10
46.2970579999999998
20
-6.1017419999999998
11
46.4875339999999966
21
-6.0065039999999996
0
LINE
8
BLACK
6
CONTINUOUS
10
46.4875339999999966
20
-6.0065039999999996
11
46.7732479999999953
21
-6.0065039999999996
0
LINE
8
BLACK
6
CONTINUOUS
10
46.7732479999999953
20
-6.0065039999999996
11
46.9637249999999966
21
-6.1017419999999998
0
LINE
8
BLACK
6
CONTINUOUS
10
47.7256299999999953
20
-8.1017419999999998
11
47.8208679999999973
21
-8.0065039999999996
0
LINE
8
BLACK
6
CONTINUOUS
10
47.8208679999999973
20
-8.0065039999999996
11
48.0113440000000011
21
-7.72079
0
LINE
8
BLACK
6
CONTINUOUS
10
48.0113440000000011
20
-7.72079
11
48.106581999999996
21
-7.5303139999999997
0
LINE
8
BLACK
6
CONTINUOUS
10
48.106581999999996
20
-7.5303139999999997
11
48.2018199999999979
21
-7.2445999999999993
0
LINE
8
BLACK
6
CONTINUOUS
10
48.2018199999999979
20
-7.2445999999999993
11
48.2970579999999998
21
-6.7684090000000001
0
LINE
8
BLACK
6
CONTINUOUS
10
48.2970579999999998
20
-6.7684090000000001
11
48.2970579999999998
21
-6.3874569999999995
0
LINE
8
BLACK
6
CONTINUOUS
10
48.2970579999999998
20
-6.3874569999999995
11
48.2018199999999979
21
-5.9112659999999995
0
LINE
8
BLACK
6
CONTINUOUS
10
48.2018199999999979
20
-5.9112659999999995
11
48.106581999999996
21
-5.6255519999999999
0
LINE
8
BLACK
6
CONTINUOUS
10
48.106581999999996
20
-5.6255519999999999
11
48.0113440000000011
21
-5.4350759999999996
0
LINE
8
BLACK
6
CONTINUOUS
10
48.0113440000000011
20
-5.4350759999999996
11
47.8208679999999973
21
-5.1493609999999999
0
LINE
8
BLACK
6
CONTINUOUS
10
47.8208679999999973
20
-5.1493609999999999
11
47.7256299999999953
21
-5.0541229999999997
0
LINE
8
BLACK
6
CONTINUOUS
10
51.3446779999999947
20
-8.1017419999999998
11
51.2494389999999953
21
-8.0065039999999996
0
LINE
8
BLACK
6
CONTINUOUS
10
51.2494389999999953
20
-8.0065039999999996
11
51.0589629999999985
21
-7.72079
0
LINE
8
BLACK
6
CONTINUOUS
10
51.0589629999999985
20
-7.72079
11
50.9637249999999966
21
-7.5303139999999997
0
LINE
8
BLACK
6
CONTINUOUS
10
50.9637249999999966
20
-7.5303139999999997
11
50.8684869999999947
21
-7.2445999999999993
0
LINE
8
BLACK
6
CONTINUOUS
10
50.8684869999999947
20
-7.2445999999999993
11
50.7732489999999999
21
-6.7684090000000001
0
LINE
8
BLACK
6
CONTINUOUS
10
50.7732489999999999
20
-6.7684090000000001
11
50.7732489999999999
21
-6.3874569999999995
0
LINE
8
BLACK
6
CONTINUOUS
10
50.7732489999999999
20
-6.3874569999999995
11
50.8684869999999947
21
-5.9112659999999995
0
LINE
8
BLACK
6
CONTINUOUS
10
50.8684869999999947
20
-5.9112659999999995
11
50.9637249999999966
21
-5.6255519999999999
0
LINE
8
BLACK
6
CONTINUOUS
10
50.9637249999999966
20
-5.6255519999999999
11
51.0589629999999985
21
-5.4350759999999996
0
LINE
8
BLACK
6
CONTINUOUS
10
51.0589629999999985
20
-5.4350759999999996
11
51.2494389999999953
21
-5.1493609999999999
0
LINE
8
BLACK
6
CONTINUOUS
10
51.2494389999999953
20
-5.1493609999999999
11
51.3446779999999947
21
-5.0541229999999997
0
LINE
8
BLACK
6
CONTINUOUS
10
52.106581999999996
20
-6.0065039999999996
11
52.106581999999996
21
-7.3398379999999994
0
LINE
8
BLACK
6
CONTINUOUS
10
52.106581999999996
20
-6.1969799999999999
11
52.2018199999999979
21
-6.1017419999999998
0
LINE
8
BLACK
6
CONTINUOUS
10
52.2018199999999979
20
-6.1017419999999998
11
52.3922959999999946
21
-6.0065039999999996
0
LINE
8
BLACK
6
CONTINUOUS
10
52.3922959999999946
20
-6.0065039999999996
11
52.6780109999999979
21
-6.0065039999999996
0
LINE
8
BLACK
6
CONTINUOUS
10
52.6780109999999979
20
-6.0065039999999996
11
52.8684869999999947
21
-6.1017419999999998
0
LINE
8
BLACK
6
CONTINUOUS
10
52.8684869999999947
20
-6.1017419999999998
11
52.9637249999999966
21
-6.2922189999999993
0
LINE
8
BLACK
6
CONTINUOUS
10
52.9637249999999966
20
-6.2922189999999993
11
52.9637249999999966
21
-7.3398379999999994
0
LINE
8
BLACK
6
CONTINUOUS
10
54.2018199999999979
20
-7.3398379999999994
11
54.011343999999994
21
-7.2445999999999993
0
LINE
8
BLACK
6
CONTINUOUS
10
54.011343999999994
20
-7.2445999999999993
11
53.9161059999999992
21
-7.1493609999999999
0
LINE
8
BLACK
6
CONTINUOUS
10
53.9161059999999992
20
-7.1493609999999999
11
53.8208679999999973
21
-6.9588849999999995
0
LINE
8
BLACK
6
CONTINUOUS
10
53.8208679999999973
20
-6.9588849999999995
11
53.8208679999999973
21
-6.3874569999999995
0
LINE
8
BLACK
6
CONTINUOUS
10
53.8208679999999973
20
-6.3874569999999995
11
53.9161059999999992
21
-6.1969799999999999
0
LINE
8
BLACK
6
CONTINUOUS
10
53.9161059999999992
20
-6.1969799999999999
11
54.011343999999994
21
-6.1017419999999998
0
LINE
8
BLACK
6
CONTINUOUS
10
54.011343999999994
20
-6.1017419999999998
11
54.2018199999999979
21
-6.0065039999999996
0
LINE
8
BLACK
6
CONTINUOUS
10
54.2018199999999979
20
-6.0065039999999996
11
54.4875349999999941
21
-6.0065039999999996
0
LINE
8
BLACK
6
CONTINUOUS
10
54.4875349999999941
20
-6.0065039999999996
11
54.6780109999999979
21
-6.1017419999999998
0
LINE
8
BLACK
6
CONTINUOUS
10
54.6780109999999979
20
-6.1017419999999998
11
54.7732489999999999
21
-6.1969799999999999
0
LINE
8
BLACK
6
CONTINUOUS
10
54.7732489999999999
20
-6.1969799999999999
11
54.8684869999999947
21
-6.3874569999999995
0
LINE
8
BLACK
6
CONTINUOUS
10
54.8684869999999947
20
-6.3874569999999995
11
54.8684869999999947
21
-6.9588849999999995
0
LINE
8
BLACK
6
CONTINUOUS
10
54.8684869999999947
20
-6.9588849999999995
11
54.7732489999999999
21
-7.1493609999999999
0
LINE
8
BLACK
6
CONTINUOUS
10
54.7732489999999999
20
-7.1493609999999999
11
54.6780109999999979
21
-7.2445999999999993
0
LINE
8
BLACK
6
CONTINUOUS
10
54.6780109999999979
20
-7.2445999999999993
11
54.4875349999999941
21
-7.3398379999999994
0
LINE
8
BLACK
6
CONTINUOUS
10
54.4875349999999941
20
-7.3398379999999994
11
54.2018199999999979
21
-7.3398379999999994
0
LINE
8
BLACK
6
CONTINUOUS
10
55.4399159999999966
20
-6.0065039999999996
11
56.2018199999999979
21
-6.0065039999999996
0
LINE
8
BLACK
6
CONTINUOUS
10
55.7256299999999953
20
-5.3398379999999994
11
55.7256299999999953
21
-7.0541229999999997
0
LINE
8
BLACK
6
CONTINUOUS
10
55.7256299999999953
20
-7.0541229999999997
11
55.8208679999999973
21
-7.2445999999999993
0
LINE
8
BLACK
6
CONTINUOUS
10
55.8208679999999973
20
-7.2445999999999993
11
56.011343999999994
21
-7.3398379999999994
0
LINE
8
BLACK
6
CONTINUOUS
10
56.011343999999994
20
-7.3398379999999994
11
56.2018199999999979
21
-7.3398379999999994
0
LINE
8
BLACK
6
CONTINUOUS
10
58.3922969999999992
20
-6.0065039999999996
11
58.3922969999999992
21
-8.0065039999999996
0
LINE
8
BLACK
6
CONTINUOUS
10
58.3922969999999992
20
-6.1017419999999998
11
58.582772999999996
21
-6.0065039999999996
0
LINE
8
BLACK
6
CONTINUOUS
10
58.582772999999996
20
-6.0065039999999996
11
58.9637259999999941
21
-6.0065039999999996
0
LINE
8
BLACK
6
CONTINUOUS
10
58.9637259999999941
20
-6.0065039999999996
11
59.154201999999998
21
-6.1017419999999998
0
LINE
8
BLACK
6
CONTINUOUS
10
59.154201999999998
20
-6.1017419999999998
11
59.2494399999999999
21
-6.1969799999999999
0
LINE
8
BLACK
6
CONTINUOUS
10
59.2494399999999999
20
-6.1969799999999999
11
59.3446779999999947
21
-6.3874569999999995
0
LINE
8
BLACK
6
CONTINUOUS
10
59.3446779999999947
20
-6.3874569999999995
11
59.3446779999999947
21
-6.9588849999999995
0
LINE
8
BLACK
6
CONTINUOUS
10
59.3446779999999947
20
-6.9588849999999995
11
59.2494399999999999
21
-7.1493609999999999
0
LINE
8
BLACK
6
CONTINUOUS
10
59.2494399999999999
20
-7.1493609999999999
11
59.154201999999998
21
-7.2445999999999993
0
LINE
8
BLACK
6
CONTINUOUS
10
59.154201999999998
20
-7.2445999999999993
11
58.9637259999999941
21
-7.3398379999999994
0
LINE
8
BLACK
6
CONTINUOUS
10
58.9637259999999941
20
-7.3398379999999994
11
58.582772999999996
21
-7.3398379999999994
0
LINE
8
BLACK
6
CONTINUOUS
10
58.582772999999996
20
-7.3398379999999994
11
58.3922969999999992
21
-7.2445999999999993
0
LINE
8
BLACK
6
CONTINUOUS
10
60.4875349999999941
20
-7.3398379999999994
11
60.2970589999999973
21
-7.2445999999999993
0
LINE
8
BLACK
6
CONTINUOUS
10
60.2970589999999973
20
-7.2445999999999993
11
60.2018209999999954
21
-7.0541229999999997
0
LINE
8
BLACK
6
CONTINUOUS
10
60.2018209999999954
20
-7.0541229999999997
11
60.2018209999999954
21
-5.3398379999999994
0
LINE
8
BLACK
6
CONTINUOUS
10
62.1065830000000005
20
-7.3398379999999994
11
62.1065830000000005
21
-6.2922189999999993
0
LINE
8
BLACK
6
CONTINUOUS
10
62.1065830000000005
20
-6.2922189999999993
11
62.0113449999999986
21
-6.1017419999999998
0
LINE
8
BLACK
6
CONTINUOUS
10
62.0113449999999986
20
-6.1017419999999998
11
61.8208689999999947
21
-6.0065039999999996
0
LINE
8
BLACK
6
CONTINUOUS
10
61.8208689999999947
20
-6.0065039999999996
11
61.4399159999999966
21
-6.0065039999999996
0
LINE
8
BLACK
6
CONTINUOUS
10
61.4399159999999966
20
-6.0065039999999996
11
61.2494399999999999
21
-6.1017419999999998
0
LINE
8
BLACK
6
CONTINUOUS
10
62.1065830000000005
20
-7.2445999999999993
11
61.9161069999999967
21
-7.3398379999999994
0
LINE
8
BLACK
6
CONTINUOUS
10
61.9161069999999967
20
-7.3398379999999994
11
61.4399159999999966
21
-7.3398379999999994
0
LINE
8
BLACK
6
CONTINUOUS
10
61.4399159999999966
20
-7.3398379999999994
11
61.2494399999999999
21
-7.2445999999999993
0
LINE
8
BLACK
6
CONTINUOUS
10
61.2494399999999999
20
-7.2445999999999993
11
61.154201999999998
21
-7.0541229999999997
0
LINE
8
BLACK
6
CONTINUOUS
10
61.154201999999998
20
-7.0541229999999997
11
61.154201999999998
21
-6.8636469999999994
0
LINE
8
BLACK
6
CONTINUOUS
10
61.154201999999998
20
-6.8636469999999994
11
61.2494399999999999
21
-6.673171
0
LINE
8
BLACK
6
CONTINUOUS
10
61.2494399999999999
20
-6.673171
11
61.4399159999999966
21
-6.5779329999999998
0
LINE
8
BLACK
6
CONTINUOUS
10
61.4399159999999966
20
-6.5779329999999998
11
61.9161069999999967
21
-6.5779329999999998
0
LINE
8
BLACK
6
CONTINUOUS
10
61.9161069999999967
20
-6.5779329999999998
11
62.1065830000000005
21
-6.4826949999999997
0
LINE
8
BLACK
6
CONTINUOUS
10
62.7732499999999973
20
-6.0065039999999996
11
63.5351539999999986
21
-6.0065039999999996
0
LINE
8
BLACK
6
CONTINUOUS
10
63.058963999999996
20
-5.3398379999999994
11
63.058963999999996
21
-7.0541229999999997
0
LINE
8
BLACK
6
CONTINUOUS
10
63.058963999999996
20
-7.0541229999999997
11
63.154201999999998
21
-7.2445999999999993
0
LINE
8
BLACK
6
CONTINUOUS
10
63.154201999999998
20
-7.2445999999999993
11
63.3446779999999947
21
-7.3398379999999994
0
LINE
8
BLACK
6
CONTINUOUS
10
63.3446779999999947
20
-7.3398379999999994
11
63.5351539999999986
21
-7.3398379999999994
0
LINE
8
BLACK
6
CONTINUOUS
10
64.9637259999999941
20
-7.2445999999999993
11
64.7732499999999902
21
-7.3398379999999994
0
LINE
8
BLACK
6
CONTINUOUS
10
64.7732499999999902
20
-7.3398379999999994
11
64.3922969999999992
21
-7.3398379999999994
0
LINE
8
BLACK
6
CONTINUOUS
10
64.3922969999999992
20
-7.3398379999999994
11
64.2018209999999954
21
-7.2445999999999993
0
LINE
8
BLACK
6
CONTINUOUS
10
64.2018209999999954
20
-7.2445999999999993
11
64.1065830000000005
21
-7.0541229999999997
0
LINE
8
BLACK
6
CONTINUOUS
10
64.1065830000000005
20
-7.0541229999999997
11
64.1065830000000005
21
-6.2922189999999993
0
LINE
8
BLACK
6
CONTINUOUS
10
64.1065830000000005
20
-6.2922189999999993
11
64.2018209999999954
21
-6.1017419999999998
0
LINE
8
BLACK
6
CONTINUOUS
10
64.2018209999999954
20
-6.1017419999999998
11
64.3922969999999992
21
-6.0065039999999996
0
LINE
8
BLACK
6
CONTINUOUS
10
64.3922969999999992
20
-6.0065039999999996
11
64.7732499999999902
21
-6.0065039999999996
0
LINE
8
BLACK
6
CONTINUOUS
10
64.7732499999999902
20
-6.0065039999999996
11
64.9637259999999941
21
-6.1017419999999998
0
LINE
8
BLACK
6
CONTINUOUS
10
64.9637259999999941
20
-6.1017419999999998
11
65.0589640000000031
21
-6.2922189999999993
0
LINE
8
BLACK
6
CONTINUOUS
10
65.0589640000000031
20
-6.2922189999999993
11
65.0589640000000031
21
-6.4826949999999997
0
LINE
8
BLACK
6
CONTINUOUS
10
65.0589640000000031
20
-6.4826949999999997
11
64.1065830000000005
21
-6.673171
0
LINE
8
BLACK
6
CONTINUOUS
10
66.7732499999999902
20
-7.3398379999999994
11
66.7732499999999902
21
-5.3398379999999994
0
LINE
8
BLACK
6
CONTINUOUS
10
66.7732499999999902
20
-7.2445999999999993
11
66.5827740000000006
21
-7.3398379999999994
0
LINE
8
BLACK
6
CONTINUOUS
10
66.5827740000000006
20
-7.3398379999999994
11
66.2018209999999954
21
-7.3398379999999994
0
LINE
8
BLACK
6
CONTINUOUS
10
66.2018209999999954
20
-7.3398379999999994
11
66.0113449999999915
21
-7.2445999999999993
0
LINE
8
BLACK
6
CONTINUOUS
10
66.0113449999999915
20
-7.2445999999999993
11
65.9161069999999967
21
-7.1493609999999999
0
LINE
8
BLACK
6
CONTINUOUS
10
65.9161069999999967
20
-7.1493609999999999
11
65.8208690000000018
21
-6.9588849999999995
0
LINE
8
BLACK
6
CONTINUOUS
10
65.8208690000000018
20
-6.9588849999999995
11
65.8208690000000018
21
-6.3874569999999995
0
LINE
8
BLACK
6
CONTINUOUS
10
65.8208690000000018
20
-6.3874569999999995
11
65.9161069999999967
21
-6.1969799999999999
0
LINE
8
BLACK
6
CONTINUOUS
10
65.9161069999999967
20
-6.1969799999999999
11
66.0113449999999915
21
-6.1017419999999998
0
LINE
8
BLACK
6
CONTINUOUS
10
66.0113449999999915
20
-6.1017419999999998
11
66.2018209999999954
21
-6.0065039999999996
0
LINE
8
BLACK
6
CONTINUOUS
10
66.2018209999999954
20
-6.0065039999999996
11
66.5827740000000006
21
-6.0065039999999996
0
LINE
8
BLACK
6
CONTINUOUS
10
66.5827740000000006
20
-6.0065039999999996
11
66.7732499999999902
21
-6.1017419999999998
0
LINE
8
BLACK
6
CONTINUOUS
10
67.5351550000000032
20
-8.1017419999999998
11
67.630392999999998
21
-8.0065039999999996
0
LINE
8
BLACK
6
CONTINUOUS
10
67.630392999999998
20
-8.0065039999999996
11
67.8208690000000018
21
-7.72079
0
LINE
8
BLACK
6
CONTINUOUS
10
67.8208690000000018
20
-7.72079
11
67.9161069999999967
21
-7.5303139999999997
0
LINE
8
BLACK
6
CONTINUOUS
10
67.9161069999999967
20
-7.5303139999999997
11
68.0113449999999915
21
-7.2445999999999993
0
LINE
8
BLACK
6
CONTINUOUS
10
68.0113449999999915
20
-7.2445999999999993
11
68.1065830000000005
21
-6.7684090000000001
0
LINE
8
BLACK
6
CONTINUOUS
10
68.1065830000000005
20
-6.7684090000000001
11
68.1065830000000005
21
-6.3874569999999995
0
LINE
8
BLACK
6
CONTINUOUS
10
68.1065830000000005
20
-6.3874569999999995
11
68.0113449999999915
21
-5.9112659999999995
0
LINE
8
BLACK
6
CONTINUOUS
10
68.0113449999999915
20
-5.9112659999999995
11
67.9161069999999967
21
-5.6255519999999999
0
LINE
8
BLACK
6
CONTINUOUS
10
67.9161069999999967
20
-5.6255519999999999
11
67.8208690000000018
21
-5.4350759999999996
0
LINE
8
BLACK
6
CONTINUOUS
10
67.8208690000000018
20
-5.4350759999999996
11
67.630392999999998
21
-5.1493609999999999
0
LINE
8
BLACK
6
CONTINUOUS
10
67.630392999999998
20
-5.1493609999999999
11
67.5351550000000032
21
-5.0541229999999997
0
CIRCLE
8
BLACK
10
-1.0249999999999999
20
-9.625
40
1.
0
LINE
8
BLACK
6
CONTINUOUS
10
2.3922919999999999
20
-8.5398379999999996
11
3.6303869999999998
21
-8.5398379999999996
0
LINE
8
BLACK
6
CONTINUOUS
10
3.6303869999999998
20
-8.5398379999999996
11
2.9637199999999999
21
-9.3017419999999991
0
LINE
8
BLACK
6
CONTINUOUS
10
2.9637199999999999
20
-9.3017419999999991
11
3.2494350000000001
21
-9.3017419999999991
0
LINE
8
BLACK
6
CONTINUOUS
10
3.2494350000000001
20
-9.3017419999999991
11
3.4399109999999999
21
-9.3969799999999992
0
LINE
8
BLACK
6
CONTINUOUS
10
3.4399109999999999
20
-9.3969799999999992
11
3.5351489999999997
21
-9.4922190000000004
0
LINE
8
BLACK
6
CONTINUOUS
10
3.5351489999999997
20
-9.4922190000000004
11
3.6303869999999998
21
-9.6826949999999989
0
LINE
8
BLACK
6
CONTINUOUS
10
3.6303869999999998
20
-9.6826949999999989
11
3.6303869999999998
21
-10.1588849999999997
0
LINE
8
BLACK
6
CONTINUOUS
10
3.6303869999999998
20
-10.1588849999999997
11
3.5351489999999997
21
-10.349361
0
LINE
8
BLACK
6
CONTINUOUS
10
3.5351489999999997
20
-10.349361
11
3.4399109999999999
21
-10.4445999999999994
0
LINE
8
BLACK
6
CONTINUOUS
10
3.4399109999999999
20
-10.4445999999999994
11
3.2494350000000001
21
-10.5398379999999996
0
LINE
8
BLACK
6
CONTINUOUS
10
3.2494350000000001
20
-10.5398379999999996
11
2.6780059999999999
21
-10.5398379999999996
0
LINE
8
BLACK
6
CONTINUOUS
10
2.6780059999999999
20
-10.5398379999999996
11
2.48753
21
-10.4445999999999994
0
LINE
8
BLACK
6
CONTINUOUS
10
2.48753
20
-10.4445999999999994
11
2.3922919999999999
21
-10.349361
0
LINE
8
BLACK
6
CONTINUOUS
10
4.4875299999999996
20
-10.349361
11
4.5827679999999997
21
-10.4445999999999994
0
LINE
8
BLACK
6
CONTINUOUS
10
4.5827679999999997
20
-10.4445999999999994
11
4.4875299999999996
21
-10.5398379999999996
0
LINE
8
BLACK
6
CONTINUOUS
10
4.4875299999999996
20
-10.5398379999999996
11
4.3922919999999994
21
-10.4445999999999994
0
LINE
8
BLACK
6
CONTINUOUS
10
4.3922919999999994
20
-10.4445999999999994
11
4.4875299999999996
21
-10.349361
0
LINE
8
BLACK
6
CONTINUOUS
10
4.4875299999999996
20
-10.349361
11
4.4875299999999996
21
-10.5398379999999996
0
LINE
8
BLACK
6
CONTINUOUS
10
5.3446729999999993
20
-8.7303139999999999
11
5.4399109999999995
21
-8.6350759999999998
0
LINE
8
BLACK
6
CONTINUOUS
10
5.4399109999999995
20
-8.6350759999999998
11
5.6303869999999998
21
-8.5398379999999996
0
LINE
8
BLACK
6
CONTINUOUS
10
5.6303869999999998
20
-8.5398379999999996
11
6.1065779999999998
21
-8.5398379999999996
0
LINE
8
BLACK
6
CONTINUOUS
10
6.1065779999999998
20
-8.5398379999999996
11
6.2970540000000002
21
-8.6350759999999998
0
LINE
8
BLACK
6
CONTINUOUS
10
6.2970540000000002
20
-8.6350759999999998
11
6.3922919999999994
21
-8.7303139999999999
0
LINE
8
BLACK
6
CONTINUOUS
10
6.3922919999999994
20
-8.7303139999999999
11
6.4875299999999996
21
-8.9207900000000002
0
LINE
8
BLACK
6
CONTINUOUS
10
6.4875299999999996
20
-8.9207900000000002
11
6.4875299999999996
21
-9.1112659999999988
0
LINE
8
BLACK
6
CONTINUOUS
10
6.4875299999999996
20
-9.1112659999999988
11
6.3922919999999994
21
-9.3969799999999992
0
LINE
8
BLACK
6
CONTINUOUS
10
6.3922919999999994
20
-9.3969799999999992
11
5.2494350000000001
21
-10.5398379999999996
0
LINE
8
BLACK
6
CONTINUOUS
10
5.2494350000000001
20
-10.5398379999999996
11
6.4875299999999996
21
-10.5398379999999996
0
LINE
8
BLACK
6
CONTINUOUS
10
8.2970539999999993
20
-8.5398379999999996
11
7.3446729999999993
21
-8.5398379999999996
0
LINE
8
BLACK
6
CONTINUOUS
10
7.3446729999999993
20
-8.5398379999999996
11
7.2494350000000001
21
-9.4922190000000004
0
LINE
8
BLACK
6
CONTINUOUS
10
7.2494350000000001
20
-9.4922190000000004
11
7.3446729999999993
21
-9.3969799999999992
0
LINE
8
BLACK
6
CONTINUOUS
10
7.3446729999999993
20
-9.3969799999999992
11
7.5351489999999997
21
-9.3017419999999991
0
LINE
8
BLACK
6
CONTINUOUS
10
7.5351489999999997
20
-9.3017419999999991
11
8.0113399999999988
21
-9.3017419999999991
0
LINE
8
BLACK
6
CONTINUOUS
10
8.0113399999999988
20
-9.3017419999999991
11
8.2018159999999991
21
-9.3969799999999992
0
LINE
8
BLACK
6
CONTINUOUS
10
8.2018159999999991
20
-9.3969799999999992
11
8.2970539999999993
21
-9.4922190000000004
0
LINE
8
BLACK
6
CONTINUOUS
10
8.2970539999999993
20
-9.4922190000000004
11
8.3922919999999994
21
-9.6826949999999989
0
LINE
8
BLACK
6
CONTINUOUS
10
8.3922919999999994
20
-9.6826949999999989
11
8.3922919999999994
21
-10.1588849999999997
0
LINE
8
BLACK
6
CONTINUOUS
10
8.3922919999999994
20
-10.1588849999999997
11
8.2970539999999993
21
-10.349361
0
LINE
8
BLACK
6
CONTINUOUS
10
8.2970539999999993
20
-10.349361
11
8.2018159999999991
21
-10.4445999999999994
0
LINE
8
BLACK
6
CONTINUOUS
10
8.2018159999999991
20
-10.4445999999999994
11
8.0113399999999988
21
-10.5398379999999996
0
LINE
8
BLACK
6
CONTINUOUS
10
8.0113399999999988
20
-10.5398379999999996
11
7.5351489999999997
21
-10.5398379999999996
0
LINE
8
BLACK
6
CONTINUOUS
10
7.5351489999999997
20
-10.5398379999999996
11
7.3446729999999993
21
-10.4445999999999994
0
LINE
8
BLACK
6
CONTINUOUS
10
7.3446729999999993
20
-10.4445999999999994
11
7.2494350000000001
21
-10.349361
0
LINE
8
BLACK
6
CONTINUOUS
10
9.6303869999999989
20
-8.5398379999999996
11
9.8208640000000003
21
-8.5398379999999996
0
LINE
8
BLACK
6
CONTINUOUS
10
9.8208640000000003
20
-8.5398379999999996
11
10.0113399999999988
21
-8.6350759999999998
0
LINE
8
BLACK
6
CONTINUOUS
10
10.0113399999999988
20
-8.6350759999999998
11
10.106577999999999
21
-8.7303139999999999
0
LINE
8
BLACK
6
CONTINUOUS
10
10.106577999999999
20
-8.7303139999999999
11
10.2018159999999991
21
-8.9207900000000002
0
LINE
8
BLACK
6
CONTINUOUS
10
10.2018159999999991
20
-8.9207900000000002
11
10.2970539999999993
21
-9.3017419999999991
0
LINE
8
BLACK
6
CONTINUOUS
10
10.2970539999999993
20
-9.3017419999999991
11
10.2970539999999993
21
-9.7779329999999991
0
LINE
8
BLACK
6
CONTINUOUS
10
10.2970539999999993
20
-9.7779329999999991
11
10.2018159999999991
21
-10.1588849999999997
0
LINE
8
BLACK
6
CONTINUOUS
10
10.2018159999999991
20
-10.1588849999999997
11
10.106577999999999
21
-10.349361
0
LINE
8
BLACK
6
CONTINUOUS
10
10.106577999999999
20
-10.349361
11
10.0113399999999988
21
-10.4445999999999994
0
LINE
8
BLACK
6
CONTINUOUS
10
10.0113399999999988
20
-10.4445999999999994
11
9.8208640000000003
21
-10.5398379999999996
0
LINE
8
BLACK
6
CONTINUOUS
10
9.8208640000000003
20
-10.5398379999999996
11
9.6303869999999989
21
-10.5398379999999996
0
LINE
8
BLACK
6
CONTINUOUS
10
9.6303869999999989
20
-10.5398379999999996
11
9.4399110000000004
21
-10.4445999999999994
0
LINE
8
BLACK
6
CONTINUOUS
10
9.4399110000000004
20
-10.4445999999999994
11
9.3446730000000002
21
-10.349361
0
LINE
8
BLACK
6
CONTINUOUS
10
9.3446730000000002
20
-10.349361
11
9.2494350000000001
21
-10.1588849999999997
0
LINE
8
BLACK
6
CONTINUOUS
10
9.2494350000000001
20
-10.1588849999999997
11
9.1541969999999999
21
-9.7779329999999991
0
LINE
8
BLACK
6
CONTINUOUS
10
9.1541969999999999
20
-9.7779329999999991
11
9.1541969999999999
21
-9.3017419999999991
0
LINE
8
BLACK
6
CONTINUOUS
10
9.1541969999999999
20
-9.3017419999999991
11
9.2494350000000001
21
-8.9207900000000002
0
LINE
8
BLACK
6
CONTINUOUS
10
9.2494350000000001
20
-8.9207900000000002
11
9.3446730000000002
21
-8.7303139999999999
0
LINE
8
BLACK
6
CONTINUOUS
10
9.3446730000000002
20
-8.7303139999999999
11
9.4399110000000004
21
-8.6350759999999998
0
LINE
8
BLACK
6
CONTINUOUS
10
9.4399110000000004
20
-8.6350759999999998
11
9.6303869999999989
21
-8.5398379999999996
0
LINE
8
BLACK
6
CONTINUOUS
10
11.1541969999999999
20
-10.5398379999999996
11
11.1541969999999999
21
-9.2065039999999989
0
LINE
8
BLACK
6
CONTINUOUS
10
11.1541969999999999
20
-9.3969799999999992
11
11.2494350000000001
21
-9.3017419999999991
0
LINE
8
BLACK
6
CONTINUOUS
10
11.2494350000000001
20
-9.3017419999999991
11
11.4399109999999986
21
-9.2065039999999989
0
LINE
8
BLACK
6
CONTINUOUS
10
11.4399109999999986
20
-9.2065039999999989
11
11.7256260000000001
21
-9.2065039999999989
0
LINE
8
BLACK
6
CONTINUOUS
10
11.7256260000000001
20
-9.2065039999999989
11
11.9161019999999986
21
-9.3017419999999991
0
LINE
8
BLACK
6
CONTINUOUS
10
11.9161019999999986
20
-9.3017419999999991
11
12.0113399999999988
21
-9.4922190000000004
0
LINE
8
BLACK
6
CONTINUOUS
10
12.0113399999999988
20
-9.4922190000000004
11
12.0113399999999988
21
-10.5398379999999996
0
LINE
8
BLACK
6
CONTINUOUS
10
12.0113399999999988
20
-9.4922190000000004
11
12.106577999999999
21
-9.3017419999999991
0
LINE
8
BLACK
6
CONTINUOUS
10
12.106577999999999
20
-9.3017419999999991
11
12.2970539999999993
21
-9.2065039999999989
0
LINE
8
BLACK
6
CONTINUOUS
10
12.2970539999999993
20
-9.2065039999999989
11
12.5827679999999997
21
-9.2065039999999989
0
LINE
8
BLACK
6
CONTINUOUS
10
12.5827679999999997
20
-9.2065039999999989
11
12.7732449999999993
21
-9.3017419999999991
0
LINE
8
BLACK
6
CONTINUOUS
10
12.7732449999999993
20
-9.3017419999999991
11
12.8684829999999994
21
-9.4922190000000004
0
LINE
8
BLACK
6
CONTINUOUS
10
12.8684829999999994
20
-9.4922190000000004
11
12.8684829999999994
21
-10.5398379999999996
0
LINE
8
BLACK
6
CONTINUOUS
10
13.8208640000000003
20
-10.5398379999999996
11
13.8208640000000003
21
-9.2065039999999989
0
LINE
8
BLACK
6
CONTINUOUS
10
13.8208640000000003
20
-9.3969799999999992
11
13.9161019999999986
21
-9.3017419999999991
0
LINE
8
BLACK
6
CONTINUOUS
10
13.9161019999999986
20
-9.3017419999999991
11
14.106577999999999
21
-9.2065039999999989
0
LINE
8
BLACK
6
CONTINUOUS
10
14.106577999999999
20
-9.2065039999999989
11
14.3922929999999987
21
-9.2065039999999989
0
LINE
8
BLACK
6
CONTINUOUS
10
14.3922929999999987
20
-9.2065039999999989
11
14.582768999999999
21
-9.3017419999999991
0
LINE
8
BLACK
6
CONTINUOUS
10
14.582768999999999
20
-9.3017419999999991
11
14.6780069999999991
21
-9.4922190000000004
0
LINE
8
BLACK
6
CONTINUOUS
10
14.6780069999999991
20
-9.4922190000000004
11
14.6780069999999991
21
-10.5398379999999996
0
LINE
8
BLACK
6
CONTINUOUS
10
14.6780069999999991
20
-9.4922190000000004
11
14.7732449999999993
21
-9.3017419999999991
0
LINE
8
BLACK
6
CONTINUOUS
10
14.7732449999999993
20
-9.3017419999999991
11
14.9637209999999996
21
-9.2065039999999989
0
LINE
8
BLACK
6
CONTINUOUS
10
14.9637209999999996
20
-9.2065039999999989
11
15.2494350000000001
21
-9.2065039999999989
0
LINE
8
BLACK
6
CONTINUOUS
10
15.2494350000000001
20
-9.2065039999999989
11
15.4399119999999996
21
-9.3017419999999991
0
LINE
8
BLACK
6
CONTINUOUS
10
15.4399119999999996
20
-9.3017419999999991
11
15.5351499999999998
21
-9.4922190000000004
0
LINE
8
BLACK
6
CONTINUOUS
10
15.5351499999999998
20
-9.4922190000000004
11
15.5351499999999998
21
-10.5398379999999996
0
LINE
8
BLACK
6
CONTINUOUS
10
19.4399119999999996
20
-8.4445999999999994
11
17.7256269999999994
21
-11.0160280000000004
0
LINE
8
BLACK
6
CONTINUOUS
10
22.011340999999998
20
-8.5398379999999996
11
22.2018179999999994
21
-8.5398379999999996
0
LINE
8
BLACK
6
CONTINUOUS
10
22.2018179999999994
20
-8.5398379999999996
11
22.3922939999999997
21
-8.6350759999999998
0
LINE
8
BLACK
6
CONTINUOUS
10
22.3922939999999997
20
-8.6350759999999998
11
22.4875319999999981
21
-8.7303139999999999
0
LINE
8
BLACK
6
CONTINUOUS
10
22.4875319999999981
20
-8.7303139999999999
11
22.58277
21
-8.9207900000000002
0
LINE
8
BLACK
6
CONTINUOUS
10
22.58277
20
-8.9207900000000002
11
22.6780079999999984
21
-9.3017419999999991
0
LINE
8
BLACK
6
CONTINUOUS
10
22.6780079999999984
20
-9.3017419999999991
11
22.6780079999999984
21
-9.7779329999999991
0
LINE
8
BLACK
6
CONTINUOUS
10
22.6780079999999984
20
-9.7779329999999991
11
22.58277
21
-10.1588849999999997
0
LINE
8
BLACK
6
CONTINUOUS
10
22.58277
20
-10.1588849999999997
11
22.4875319999999981
21
-10.349361
0
LINE
8
BLACK
6
CONTINUOUS
10
22.4875319999999981
20
-10.349361
11
22.3922939999999997
21
-10.4445999999999994
0
LINE
8
BLACK
6
CONTINUOUS
10
22.3922939999999997
20
-10.4445999999999994
11
22.2018179999999994
21
-10.5398379999999996
0
LINE
8
BLACK
6
CONTINUOUS
10
22.2018179999999994
20
-10.5398379999999996
11
22.011340999999998
21
-10.5398379999999996
0
LINE
8
BLACK
6
CONTINUOUS
10
22.011340999999998
20
-10.5398379999999996
11
21.8208649999999977
21
-10.4445999999999994
0
LINE
8
BLACK
6
CONTINUOUS
10
21.8208649999999977
20
-10.4445999999999994
11
21.7256269999999994
21
-10.349361
0
LINE
8
BLACK
6
CONTINUOUS
10
21.7256269999999994
20
-10.349361
11
21.6303889999999974
21
-10.1588849999999997
0
LINE
8
BLACK
6
CONTINUOUS
10
21.6303889999999974
20
-10.1588849999999997
11
21.535150999999999
21
-9.7779329999999991
0
LINE
8
BLACK
6
CONTINUOUS
10
21.535150999999999
20
-9.7779329999999991
11
21.535150999999999
21
-9.3017419999999991
0
LINE
8
BLACK
6
CONTINUOUS
10
21.535150999999999
20
-9.3017419999999991
11
21.6303889999999974
21
-8.9207900000000002
0
LINE
8
BLACK
6
CONTINUOUS
10
21.6303889999999974
20
-8.9207900000000002
11
21.7256269999999994
21
-8.7303139999999999
0
LINE
8
BLACK
6
CONTINUOUS
10
21.7256269999999994
20
-8.7303139999999999
11
21.8208649999999977
21
-8.6350759999999998
0
LINE
8
BLACK
6
CONTINUOUS
10
21.8208649999999977
20
-8.6350759999999998
11
22.011340999999998
21
-8.5398379999999996
0
LINE
8
BLACK
6
CONTINUOUS
10
23.535150999999999
20
-10.349361
11
23.6303889999999974
21
-10.4445999999999994
0
LINE
8
BLACK
6
CONTINUOUS
10
23.6303889999999974
20
-10.4445999999999994
11
23.535150999999999
21
-10.5398379999999996
0
LINE
8
BLACK
6
CONTINUOUS
10
23.535150999999999
20
-10.5398379999999996
11
23.4399130000000007
21
-10.4445999999999994
0
LINE
8
BLACK
6
CONTINUOUS
10
23.4399130000000007
20
-10.4445999999999994
11
23.535150999999999
21
-10.349361
0
LINE
8
BLACK
6
CONTINUOUS
10
23.535150999999999
20
-10.349361
11
23.535150999999999
21
-10.5398379999999996
0
LINE
8
BLACK
6
CONTINUOUS
10
25.535150999999999
20
-10.5398379999999996
11
24.3922939999999997
21
-10.5398379999999996
0
LINE
8
BLACK
6
CONTINUOUS
10
24.9637220000000006
20
-10.5398379999999996
11
24.9637220000000006
21
-8.5398379999999996
0
LINE
8
BLACK
6
CONTINUOUS
10
24.9637220000000006
20
-8.5398379999999996
11
24.7732460000000003
21
-8.8255520000000001
0
LINE
8
BLACK
6
CONTINUOUS
10
24.7732460000000003
20
-8.8255520000000001
11
24.58277
21
-9.0160280000000004
0
LINE
8
BLACK
6
CONTINUOUS
10
24.58277
20
-9.0160280000000004
11
24.3922939999999997
21
-9.1112659999999988
0
LINE
8
BLACK
6
CONTINUOUS
10
26.2970559999999978
20
-8.7303139999999999
11
26.3922939999999997
21
-8.6350759999999998
0
LINE
8
BLACK
6
CONTINUOUS
10
26.3922939999999997
20
-8.6350759999999998
11
26.58277
21
-8.5398379999999996
0
LINE
8
BLACK
6
CONTINUOUS
10
26.58277
20
-8.5398379999999996
11
27.058961
21
-8.5398379999999996
0
LINE
8
BLACK
6
CONTINUOUS
10
27.058961
20
-8.5398379999999996
11
27.2494370000000004
21
-8.6350759999999998
0
LINE
8
BLACK
6
CONTINUOUS
10
27.2494370000000004
20
-8.6350759999999998
11
27.3446749999999987
21
-8.7303139999999999
0
LINE
8
BLACK
6
CONTINUOUS
10
27.3446749999999987
20
-8.7303139999999999
11
27.4399129999999971
21
-8.9207900000000002
0
LINE
8
BLACK
6
CONTINUOUS
10
27.4399129999999971
20
-8.9207900000000002
11
27.4399129999999971
21
-9.1112659999999988
0
LINE
8
BLACK
6
CONTINUOUS
10
27.4399129999999971
20
-9.1112659999999988
11
27.3446749999999987
21
-9.3969799999999992
0
LINE
8
BLACK
6
CONTINUOUS
10
27.3446749999999987
20
-9.3969799999999992
11
26.2018179999999994
21
-10.5398379999999996
0
LINE
8
BLACK
6
CONTINUOUS
10
26.2018179999999994
20
-10.5398379999999996
11
27.4399129999999971
21
-10.5398379999999996
0
LINE
8
BLACK
6
CONTINUOUS
10
28.58277
20
-9.3969799999999992
11
28.3922939999999997
21
-9.3017419999999991
0
LINE
8
BLACK
6
CONTINUOUS
10
28.3922939999999997
20
-9.3017419999999991
11
28.2970559999999978
21
-9.2065039999999989
0
LINE
8
BLACK
6
CONTINUOUS
10
28.2970559999999978
20
-9.2065039999999989
11
28.2018179999999994
21
-9.0160280000000004
0
LINE
8
BLACK
6
CONTINUOUS
10
28.2018179999999994
20
-9.0160280000000004
11
28.2018179999999994
21
-8.9207900000000002
0
LINE
8
BLACK
6
CONTINUOUS
10
28.2018179999999994
20
-8.9207900000000002
11
28.2970559999999978
21
-8.7303139999999999
0
LINE
8
BLACK
6
CONTINUOUS
10
28.2970559999999978
20
-8.7303139999999999
11
28.3922939999999997
21
-8.6350759999999998
0
LINE
8
BLACK
6
CONTINUOUS
10
28.3922939999999997
20
-8.6350759999999998
11
28.58277
21
-8.5398379999999996
0
LINE
8
BLACK
6
CONTINUOUS
10
28.58277
20
-8.5398379999999996
11
28.9637229999999981
21
-8.5398379999999996
0
LINE
8
BLACK
6
CONTINUOUS
10
28.9637229999999981
20
-8.5398379999999996
11
29.1541989999999984
21
-8.6350759999999998
0
LINE
8
BLACK
6
CONTINUOUS
10
29.1541989999999984
20
-8.6350759999999998
11
29.2494370000000004
21
-8.7303139999999999
0
LINE
8
BLACK
6
CONTINUOUS
10
29.2494370000000004
20
-8.7303139999999999
11
29.3446749999999987
21
-8.9207900000000002
0
LINE
8
BLACK
6
CONTINUOUS
10
29.3446749999999987
20
-8.9207900000000002
11
29.3446749999999987
21
-9.0160280000000004
0
LINE
8
BLACK
6
CONTINUOUS
10
29.3446749999999987
20
-9.0160280000000004
11
29.2494370000000004
21
-9.2065039999999989
0
LINE
8
BLACK
6
CONTINUOUS
10
29.2494370000000004
20
-9.2065039999999989
11
29.1541989999999984
21
-9.3017419999999991
0
LINE
8
BLACK
6
CONTINUOUS
10
29.1541989999999984
20
-9.3017419999999991
11
28.9637229999999981
21
-9.3969799999999992
0
LINE
8
BLACK
6
CONTINUOUS
10
28.9637229999999981
20
-9.3969799999999992
11
28.58277
21
-9.3969799999999992
0
LINE
8
BLACK
6
CONTINUOUS
10
28.58277
20
-9.3969799999999992
11
28.3922939999999997
21
-9.4922190000000004
0
LINE
8
BLACK
6
CONTINUOUS
10
28.3922939999999997
20
-9.4922190000000004
11
28.2970559999999978
21
-9.5874569999999988
0
LINE
8
BLACK
6
CONTINUOUS
10
28.2970559999999978
20
-9.5874569999999988
11
28.2018179999999994
21
-9.7779329999999991
0
LINE
8
BLACK
6
CONTINUOUS
10
28.2018179999999994
20
-9.7779329999999991
11
28.2018179999999994
21
-10.1588849999999997
0
LINE
8
BLACK
6
CONTINUOUS
10
28.2018179999999994
20
-10.1588849999999997
11
28.2970559999999978
21
-10.349361
0
LINE
8
BLACK
6
CONTINUOUS
10
28.2970559999999978
20
-10.349361
11
28.3922939999999997
21
-10.4445999999999994
0
LINE
8
BLACK
6
CONTINUOUS
10
28.3922939999999997
20
-10.4445999999999994
11
28.58277
21
-10.5398379999999996
0
LINE
8
BLACK
6
CONTINUOUS
10
28.58277
20
-10.5398379999999996
11
28.9637229999999981
21
-10.5398379999999996
0
LINE
8
BLACK
6
CONTINUOUS
10
28.9637229999999981
20
-10.5398379999999996
11
29.1541989999999984
21
-10.4445999999999994
0
LINE
8
BLACK
6
CONTINUOUS
10
29.1541989999999984
20
-10.4445999999999994
11
29.2494370000000004
21
-10.349361
0
LINE
8
BLACK
6
CONTINUOUS
10
29.2494370000000004
20
-10.349361
11
29.3446749999999987
21
-10.1588849999999997
0
LINE
8
BLACK
6
CONTINUOUS
10
29.3446749999999987
20
-10.1588849999999997
11
29.3446749999999987
21
-9.7779329999999991
0
LINE
8
BLACK
6
CONTINUOUS
10
29.3446749999999987
20
-9.7779329999999991
11
29.2494370000000004
21
-9.5874569999999988
0
LINE
8
BLACK
6
CONTINUOUS
10
29.2494370000000004
20
-9.5874569999999988
11
29.1541989999999984
21
-9.4922190000000004
0
LINE
8
BLACK
6
CONTINUOUS
10
29.1541989999999984
20
-9.4922190000000004
11
28.9637229999999981
21
-9.3969799999999992
0
LINE
8
BLACK
6
CONTINUOUS
10
30.58277
20
-8.5398379999999996
11
30.7732469999999978
21
-8.5398379999999996
0
LINE
8
BLACK
6
CONTINUOUS
10
30.7732469999999978
20
-8.5398379999999996
11
30.9637229999999981
21
-8.6350759999999998
0
LINE
8
BLACK
6
CONTINUOUS
10
30.9637229999999981
20
-8.6350759999999998
11
31.058961
21
-8.7303139999999999
0
LINE
8
BLACK
6
CONTINUOUS
10
31.058961
20
-8.7303139999999999
11
31.1541989999999984
21
-8.9207900000000002
0
LINE
8
BLACK
6
CONTINUOUS
10
31.1541989999999984
20
-8.9207900000000002
11
31.2494370000000004
21
-9.3017419999999991
0
LINE
8
BLACK
6
CONTINUOUS
10
31.2494370000000004
20
-9.3017419999999991
11
31.2494370000000004
21
-9.7779329999999991
0
LINE
8
BLACK
6
CONTINUOUS
10
31.2494370000000004
20
-9.7779329999999991
11
31.1541989999999984
21
-10.1588849999999997
0
LINE
8
BLACK
6
CONTINUOUS
10
31.1541989999999984
20
-10.1588849999999997
11
31.058961
21
-10.349361
0
LINE
8
BLACK
6
CONTINUOUS
10
31.058961
20
-10.349361
11
30.9637229999999981
21
-10.4445999999999994
0
LINE
8
BLACK
6
CONTINUOUS
10
30.9637229999999981
20
-10.4445999999999994
11
30.7732469999999978
21
-10.5398379999999996
0
LINE
8
BLACK
6
CONTINUOUS
10
30.7732469999999978
20
-10.5398379999999996
11
30.58277
21
-10.5398379999999996
0
LINE
8
BLACK
6
CONTINUOUS
10
30.58277
20
-10.5398379999999996
11
30.3922939999999997
21
-10.4445999999999994
0
LINE
8
BLACK
6
CONTINUOUS
10
30.3922939999999997
20
-10.4445999999999994
11
30.2970559999999978
21
-10.349361
0
LINE
8
BLACK
6
CONTINUOUS
10
30.2970559999999978
20
-10.349361
11
30.2018179999999994
21
-10.1588849999999997
0
LINE
8
BLACK
6
CONTINUOUS
10
30.2018179999999994
20
-10.1588849999999997
11
30.1065799999999975
21
-9.7779329999999991
0
LINE
8
BLACK
6
CONTINUOUS
10
30.1065799999999975
20
-9.7779329999999991
11
30.1065799999999975
21
-9.3017419999999991
0
LINE
8
BLACK
6
CONTINUOUS
10
30.1065799999999975
20
-9.3017419999999991
11
30.2018179999999994
21
-8.9207900000000002
0
LINE
8
BLACK
6
CONTINUOUS
10
30.2018179999999994
20
-8.9207900000000002
11
30.2970559999999978
21
-8.7303139999999999
0
LINE
8
BLACK
6
CONTINUOUS
10
30.2970559999999978
20
-8.7303139999999999
11
30.3922939999999997
21
-8.6350759999999998
0
LINE
8
BLACK
6
CONTINUOUS
10
30.3922939999999997
20
-8.6350759999999998
11
30.58277
21
-8.5398379999999996
0
LINE
8
BLACK
6
CONTINUOUS
10
32.0113419999999991
20
-8.5398379999999996
11
32.0113419999999991
21
-8.9207900000000002
0
LINE
8
BLACK
6
CONTINUOUS
10
32.7732469999999978
20
-8.5398379999999996
11
32.7732469999999978
21
-8.9207900000000002
0
LINE
8
BLACK
6
CONTINUOUS
10
35.7256289999999979
20
-11.3017419999999991
11
35.6303899999999985
21
-11.2065039999999989
0
LINE
8
BLACK
6
CONTINUOUS
10
35.6303899999999985
20
-11.2065039999999989
11
35.4399140000000017
21
-10.9207900000000002
0
LINE
8
BLACK
6
CONTINUOUS
10
35.4399140000000017
20
-10.9207900000000002
11
35.3446759999999998
21
-10.7303139999999999
0
LINE
8
BLACK
6
CONTINUOUS
10
35.3446759999999998
20
-10.7303139999999999
11
35.2494379999999978
21
-10.4445999999999994
0
LINE
8
BLACK
6
CONTINUOUS
10
35.2494379999999978
20
-10.4445999999999994
11
35.1541999999999959
21
-9.9684089999999994
0
LINE
8
BLACK
6
CONTINUOUS
10
35.1541999999999959
20
-9.9684089999999994
11
35.1541999999999959
21
-9.5874569999999988
0
LINE
8
BLACK
6
CONTINUOUS
10
35.1541999999999959
20
-9.5874569999999988
11
35.2494379999999978
21
-9.1112659999999988
0
LINE
8
BLACK
6
CONTINUOUS
10
35.2494379999999978
20
-9.1112659999999988
11
35.3446759999999998
21
-8.8255520000000001
0
LINE
8
BLACK
6
CONTINUOUS
10
35.3446759999999998
20
-8.8255520000000001
11
35.4399140000000017
21
-8.6350759999999998
0
LINE
8
BLACK
6
CONTINUOUS
10
35.4399140000000017
20
-8.6350759999999998
11
35.6303899999999985
21
-8.349361
0
LINE
8
BLACK
6
CONTINUOUS
10
35.6303899999999985
20
-8.349361
11
35.7256289999999979
21
-8.2541229999999999
0
LINE
8
BLACK
6
CONTINUOUS
10
37.3446759999999998
20
-9.2065039999999989
11
37.3446759999999998
21
-10.5398379999999996
0
LINE
8
BLACK
6
CONTINUOUS
10
36.8684849999999997
20
-8.4445999999999994
11
36.3922949999999972
21
-9.8731709999999993
0
LINE
8
BLACK
6
CONTINUOUS
10
36.3922949999999972
20
-9.8731709999999993
11
37.6303899999999985
21
-9.8731709999999993
0
LINE
8
BLACK
6
CONTINUOUS
10
39.9161050000000017
20
-10.5398379999999996
11
39.9161050000000017
21
-8.5398379999999996
0
LINE
8
BLACK
6
CONTINUOUS
10
40.7732479999999953
20
-10.5398379999999996
11
40.7732479999999953
21
-9.4922190000000004
0
LINE
8
BLACK
6
CONTINUOUS
10
40.7732479999999953
20
-9.4922190000000004
11
40.6780100000000004
21
-9.3017419999999991
0
LINE
8
BLACK
6
CONTINUOUS
10
40.6780100000000004
20
-9.3017419999999991
11
40.4875339999999966
21
-9.2065039999999989
0
LINE
8
BLACK
6
CONTINUOUS
10
40.4875339999999966
20
-9.2065039999999989
11
40.2018190000000004
21
-9.2065039999999989
0
LINE
8
BLACK
6
CONTINUOUS
10
40.2018190000000004
20
-9.2065039999999989
11
40.0113429999999966
21
-9.3017419999999991
0
LINE
8
BLACK
6
CONTINUOUS
10
40.0113429999999966
20
-9.3017419999999991
11
39.9161050000000017
21
-9.3969799999999992
0
LINE
8
BLACK
6
CONTINUOUS
10
42.0113429999999966
20
-10.5398379999999996
11
41.8208669999999998
21
-10.4445999999999994
0
LINE
8
BLACK
6
CONTINUOUS
10
41.8208669999999998
20
-10.4445999999999994
11
41.7256289999999979
21
-10.349361
0
LINE
8
BLACK
6
CONTINUOUS
10
41.7256289999999979
20
-10.349361
11
41.6303909999999959
21
-10.1588849999999997
0
LINE
8
BLACK
6
CONTINUOUS
10
41.6303909999999959
20
-10.1588849999999997
11
41.6303909999999959
21
-9.5874569999999988
0
LINE
8
BLACK
6
CONTINUOUS
10
41.6303909999999959
20
-9.5874569999999988
11
41.7256289999999979
21
-9.3969799999999992
0
LINE
8
BLACK
6
CONTINUOUS
10
41.7256289999999979
20
-9.3969799999999992
11
41.8208669999999998
21
-9.3017419999999991
0
LINE
8
BLACK
6
CONTINUOUS
10
41.8208669999999998
20
-9.3017419999999991
11
42.0113429999999966
21
-9.2065039999999989
0
LINE
8
BLACK
6
CONTINUOUS
10
42.0113429999999966
20
-9.2065039999999989
11
42.2970579999999998
21
-9.2065039999999989
0
LINE
8
BLACK
6
CONTINUOUS
10
42.2970579999999998
20
-9.2065039999999989
11
42.4875339999999966
21
-9.3017419999999991
0
LINE
8
BLACK
6
CONTINUOUS
10
42.4875339999999966
20
-9.3017419999999991
11
42.5827719999999985
21
-9.3969799999999992
0
LINE
8
BLACK
6
CONTINUOUS
10
42.5827719999999985
20
-9.3969799999999992
11
42.6780100000000004
21
-9.5874569999999988
0
LINE
8
BLACK
6
CONTINUOUS
10
42.6780100000000004
20
-9.5874569999999988
11
42.6780100000000004
21
-10.1588849999999997
0
LINE
8
BLACK
6
CONTINUOUS
10
42.6780100000000004
20
-10.1588849999999997
11
42.5827719999999985
21
-10.349361
0
LINE
8
BLACK
6
CONTINUOUS
10
42.5827719999999985
20
-10.349361
11
42.4875339999999966
21
-10.4445999999999994
0
LINE
8
BLACK
6
CONTINUOUS
10
42.4875339999999966
20
-10.4445999999999994
11
42.2970579999999998
21
-10.5398379999999996
0
LINE
8
BLACK
6
CONTINUOUS
10
42.2970579999999998
20
-10.5398379999999996
11
42.0113429999999966
21
-10.5398379999999996
0
LINE
8
BLACK
6
CONTINUOUS
10
43.8208669999999998
20
-10.5398379999999996
11
43.6303909999999959
21
-10.4445999999999994
0
LINE
8
BLACK
6
CONTINUOUS
10
43.6303909999999959
20
-10.4445999999999994
11
43.5351530000000011
21
-10.2541229999999999
0
LINE
8
BLACK
6
CONTINUOUS
10
43.5351530000000011
20
-10.2541229999999999
11
43.5351530000000011
21
-8.5398379999999996
0
LINE
8
BLACK
6
CONTINUOUS
10
45.3446769999999972
20
-10.4445999999999994
11
45.1542010000000005
21
-10.5398379999999996
0
LINE
8
BLACK
6
CONTINUOUS
10
45.1542010000000005
20
-10.5398379999999996
11
44.7732479999999953
21
-10.5398379999999996
0
LINE
8
BLACK
6
CONTINUOUS
10
44.7732479999999953
20
-10.5398379999999996
11
44.5827719999999985
21
-10.4445999999999994
0
LINE
8
BLACK
6
CONTINUOUS
10
44.5827719999999985
20
-10.4445999999999994
11
44.4875339999999966
21
-10.2541229999999999
0
LINE
8
BLACK
6
CONTINUOUS
10
44.4875339999999966
20
-10.2541229999999999
11
44.4875339999999966
21
-9.4922190000000004
0
LINE
8
BLACK
6
CONTINUOUS
10
44.4875339999999966
20
-9.4922190000000004
11
44.5827719999999985
21
-9.3017419999999991
0
LINE
8
BLACK
6
CONTINUOUS
10
44.5827719999999985
20
-9.3017419999999991
11
44.7732479999999953
21
-9.2065039999999989
0
LINE
8
BLACK
6
CONTINUOUS
10
44.7732479999999953
20
-9.2065039999999989
11
45.1542010000000005
21
-9.2065039999999989
0
LINE
8
BLACK
6
CONTINUOUS
10
45.1542010000000005
20
-9.2065039999999989
11
45.3446769999999972
21
-9.3017419999999991
0
LINE
8
BLACK
6
CONTINUOUS
10
45.3446769999999972
20
-9.3017419999999991
11
45.4399149999999992
21
-9.4922190000000004
0
LINE
8
BLACK
6
CONTINUOUS
10
45.4399149999999992
20
-9.4922190000000004
11
45.4399149999999992
21
-9.6826949999999989
0
LINE
8
BLACK
6
CONTINUOUS
10
45.4399149999999992
20
-9.6826949999999989
11
44.4875339999999966
21
-9.8731709999999993
0
LINE
8
BLACK
6
CONTINUOUS
10
46.2018199999999979
20
-10.4445999999999994
11
46.3922959999999946
21
-10.5398379999999996
0
LINE
8
BLACK
6
CONTINUOUS
10
46.3922959999999946
20
-10.5398379999999996
11
46.7732479999999953
21
-10.5398379999999996
0
LINE
8
BLACK
6
CONTINUOUS
10
46.7732479999999953
20
-10.5398379999999996
11
46.9637249999999966
21
-10.4445999999999994
0
LINE
8
BLACK
6
CONTINUOUS
10
46.9637249999999966
20
-10.4445999999999994
11
47.0589629999999985
21
-10.2541229999999999
0
LINE
8
BLACK
6
CONTINUOUS
10
47.0589629999999985
20
-10.2541229999999999
11
47.0589629999999985
21
-10.1588849999999997
0
LINE
8
BLACK
6
CONTINUOUS
10
47.0589629999999985
20
-10.1588849999999997
11
46.9637249999999966
21
-9.9684089999999994
0
LINE
8
BLACK
6
CONTINUOUS
10
46.9637249999999966
20
-9.9684089999999994
11
46.7732479999999953
21
-9.8731709999999993
0
LINE
8
BLACK
6
CONTINUOUS
10
46.7732479999999953
20
-9.8731709999999993
11
46.4875339999999966
21
-9.8731709999999993
0
LINE
8
BLACK
6
CONTINUOUS
10
46.4875339999999966
20
-9.8731709999999993
11
46.2970579999999998
21
-9.7779329999999991
0
LINE
8
BLACK
6
CONTINUOUS
10
46.2970579999999998
20
-9.7779329999999991
11
46.2018199999999979
21
-9.5874569999999988
0
LINE
8
BLACK
6
CONTINUOUS
10
46.2018199999999979
20
-9.5874569999999988
11
46.2018199999999979
21
-9.4922190000000004
0
LINE
8
BLACK
6
CONTINUOUS
10
46.2018199999999979
20
-9.4922190000000004
11
46.2970579999999998
21
-9.3017419999999991
0
LINE
8
BLACK
6
CONTINUOUS
10
46.2970579999999998
20
-9.3017419999999991
11
46.4875339999999966
21
-9.2065039999999989
0
LINE
8
BLACK
6
CONTINUOUS
10
46.4875339999999966
20
-9.2065039999999989
11
46.7732479999999953
21
-9.2065039999999989
0
LINE
8
BLACK
6
CONTINUOUS
10
46.7732479999999953
20
-9.2065039999999989
11
46.9637249999999966
21
-9.3017419999999991
0
LINE
8
BLACK
6
CONTINUOUS
10
47.7256299999999953
20
-11.3017419999999991
11
47.8208679999999973
21
-11.2065039999999989
0
LINE
8
BLACK
6
CONTINUOUS
10
47.8208679999999973
20
-11.2065039999999989
11
48.0113440000000011
21
-10.9207900000000002
0
LINE
8
BLACK
6
CONTINUOUS
10
48.0113440000000011
20
-10.9207900000000002
11
48.106581999999996
21
-10.7303139999999999
0
LINE
8
BLACK
6
CONTINUOUS
10
48.106581999999996
20
-10.7303139999999999
11
48.2018199999999979
21
-10.4445999999999994
0
LINE
8
BLACK
6
CONTINUOUS
10
48.2018199999999979
20
-10.4445999999999994
11
48.2970579999999998
21
-9.9684089999999994
0
LINE
8
BLACK
6
CONTINUOUS
10
48.2970579999999998
20
-9.9684089999999994
11
48.2970579999999998
21
-9.5874569999999988
0
LINE
8
BLACK
6
CONTINUOUS
10
48.2970579999999998
20
-9.5874569999999988
11
48.2018199999999979
21
-9.1112659999999988
0
LINE
8
BLACK
6
CONTINUOUS
10
48.2018199999999979
20
-9.1112659999999988
11
48.106581999999996
21
-8.8255520000000001
0
LINE
8
BLACK
6
CONTINUOUS
10
48.106581999999996
20
-8.8255520000000001
11
48.0113440000000011
21
-8.6350759999999998
0
LINE
8
BLACK
6
CONTINUOUS
10
48.0113440000000011
20
-8.6350759999999998
11
47.8208679999999973
21
-8.349361
0
LINE
8
BLACK
6
CONTINUOUS
10
47.8208679999999973
20
-8.349361
11
47.7256299999999953
21
-8.2541229999999999
0
LINE
8
BLACK
6
CONTINUOUS
10
51.3446779999999947
20
-11.3017419999999991
11
51.2494389999999953
21
-11.2065039999999989
0
LINE
8
BLACK
6
CONTINUOUS
10
51.2494389999999953
20
-11.2065039999999989
11
51.0589629999999985
21
-10.9207900000000002
0
LINE
8
BLACK
6
CONTINUOUS
10
51.0589629999999985
20
-10.9207900000000002
11
50.9637249999999966
21
-10.7303139999999999
0
LINE
8
BLACK
6
CONTINUOUS
10
50.9637249999999966
20
-10.7303139999999999
11
50.8684869999999947
21
-10.4445999999999994
0
LINE
8
BLACK
6
CONTINUOUS
10
50.8684869999999947
20
-10.4445999999999994
11
50.7732489999999999
21
-9.9684089999999994
0
LINE
8
BLACK
6
CONTINUOUS
10
50.7732489999999999
20
-9.9684089999999994
11
50.7732489999999999
21
-9.5874569999999988
0
LINE
8
BLACK
6
CONTINUOUS
10
50.7732489999999999
20
-9.5874569999999988
11
50.8684869999999947
21
-9.1112659999999988
0
LINE
8
BLACK
6
CONTINUOUS
10
50.8684869999999947
20
-9.1112659999999988
11
50.9637249999999966
21
-8.8255520000000001
0
LINE
8
BLACK
6
CONTINUOUS
10
50.9637249999999966
20
-8.8255520000000001
11
51.0589629999999985
21
-8.6350759999999998
0
LINE
8
BLACK
6
CONTINUOUS
10
51.0589629999999985
20
-8.6350759999999998
11
51.2494389999999953
21
-8.349361
0
LINE
8
BLACK
6
CONTINUOUS
10
51.2494389999999953
20
-8.349361
11
51.3446779999999947
21
-8.2541229999999999
0
LINE
8
BLACK
6
CONTINUOUS
10
52.106581999999996
20
-9.2065039999999989
11
52.106581999999996
21
-10.5398379999999996
0
LINE
8
BLACK
6
CONTINUOUS
10
52.106581999999996
20
-9.3969799999999992
11
52.2018199999999979
21
-9.3017419999999991
0
LINE
8
BLACK
6
CONTINUOUS
10
52.2018199999999979
20
-9.3017419999999991
11
52.3922959999999946
21
-9.2065039999999989
0
LINE
8
BLACK
6
CONTINUOUS
10
52.3922959999999946
20
-9.2065039999999989
11
52.6780109999999979
21
-9.2065039999999989
0
LINE
8
BLACK
6
CONTINUOUS
10
52.6780109999999979
20
-9.2065039999999989
11
52.8684869999999947
21
-9.3017419999999991
0
LINE
8
BLACK
6
CONTINUOUS
10
52.8684869999999947
20
-9.3017419999999991
11
52.9637249999999966
21
-9.4922190000000004
0
LINE
8
BLACK
6
CONTINUOUS
10
52.9637249999999966
20
-9.4922190000000004
11
52.9637249999999966
21
-10.5398379999999996
0
LINE
8
BLACK
6
CONTINUOUS
10
54.2018199999999979
20
-10.5398379999999996
11
54.011343999999994
21
-10.4445999999999994
0
LINE
8
BLACK
6
CONTINUOUS
10
54.011343999999994
20
-10.4445999999999994
11
53.9161059999999992
21
-10.349361
0
LINE
8
BLACK
6
CONTINUOUS
10
53.9161059999999992
20
-10.349361
11
53.8208679999999973
21
-10.1588849999999997
0
LINE
8
BLACK
6
CONTINUOUS
10
53.8208679999999973
20
-10.1588849999999997
11
53.8208679999999973
21
-9.5874569999999988
0
LINE
8
BLACK
6
CONTINUOUS
10
53.8208679999999973
20
-9.5874569999999988
11
53.9161059999999992
21
-9.3969799999999992
0
LINE
8
BLACK
6
CONTINUOUS
10
53.9161059999999992
20
-9.3969799999999992
11
54.011343999999994
21
-9.3017419999999991
0
LINE
8
BLACK
6
CONTINUOUS
10
54.011343999999994
20
-9.3017419999999991
11
54.2018199999999979
21
-9.2065039999999989
0
LINE
8
BLACK
6
CONTINUOUS
10
54.2018199999999979
20
-9.2065039999999989
11
54.4875349999999941
21
-9.2065039999999989
0
LINE
8
BLACK
6
CONTINUOUS
10
54.4875349999999941
20
-9.2065039999999989
11
54.6780109999999979
21
-9.3017419999999991
0
LINE
8
BLACK
6
CONTINUOUS
10
54.6780109999999979
20
-9.3017419999999991
11
54.7732489999999999
21
-9.3969799999999992
0
LINE
8
BLACK
6
CONTINUOUS
10
54.7732489999999999
20
-9.3969799999999992
11
54.8684869999999947
21
-9.5874569999999988
0
LINE
8
BLACK
6
CONTINUOUS
10
54.8684869999999947
20
-9.5874569999999988
11
54.8684869999999947
21
-10.1588849999999997
0
LINE
8
BLACK
6
CONTINUOUS
10
54.8684869999999947
20
-10.1588849999999997
11
54.7732489999999999
21
-10.349361
0
LINE
8
BLACK
6
CONTINUOUS
10
54.7732489999999999
20
-10.349361
11
54.6780109999999979
21
-10.4445999999999994
0
LINE
8
BLACK
6
CONTINUOUS
10
54.6780109999999979
20
-10.4445999999999994
11
54.4875349999999941
21
-10.5398379999999996
0
LINE
8
BLACK
6
CONTINUOUS
10
54.4875349999999941
20
-10.5398379999999996
11
54.2018199999999979
21
-10.5398379999999996
0
LINE
8
BLACK
6
CONTINUOUS
10
55.4399159999999966
20
-9.2065039999999989
11
56.2018199999999979
21
-9.2065039999999989
0
LINE
8
BLACK
6
CONTINUOUS
10
55.7256299999999953
20
-8.5398379999999996
11
55.7256299999999953
21
-10.2541229999999999
0
LINE
8
BLACK
6
CONTINUOUS
10
55.7256299999999953
20
-10.2541229999999999
11
55.8208679999999973
21
-10.4445999999999994
0
LINE
8
BLACK
6
CONTINUOUS
10
55.8208679999999973
20
-10.4445999999999994
11
56.011343999999994
21
-10.5398379999999996
0
LINE
8
BLACK
6
CONTINUOUS
10
56.011343999999994
20
-10.5398379999999996
11
56.2018199999999979
21
-10.5398379999999996
0
LINE
8
BLACK
6
CONTINUOUS
10
58.3922969999999992
20
-9.2065039999999989
11
58.3922969999999992
21
-11.2065039999999989
0
LINE
8
BLACK
6
CONTINUOUS
10
58.3922969999999992
20
-9.3017419999999991
11
58.582772999999996
21
-9.2065039999999989
0
LINE
8
BLACK
6
CONTINUOUS
10
58.582772999999996
20
-9.2065039999999989
11
58.9637259999999941
21
-9.2065039999999989
0
LINE
8
BLACK
6
CONTINUOUS
10
58.9637259999999941
20
-9.2065039999999989
11
59.154201999999998
21
-9.3017419999999991
0
LINE
8
BLACK
6
CONTINUOUS
10
59.154201999999998
20
-9.3017419999999991
11
59.2494399999999999
21
-9.3969799999999992
0
LINE
8
BLACK
6
CONTINUOUS
10
59.2494399999999999
20
-9.3969799999999992
11
59.3446779999999947
21
-9.5874569999999988
0
LINE
8
BLACK
6
CONTINUOUS
10
59.3446779999999947
20
-9.5874569999999988
11
59.3446779999999947
21
-10.1588849999999997
0
LINE
8
BLACK
6
CONTINUOUS
10
59.3446779999999947
20
-10.1588849999999997
11
59.2494399999999999
21
-10.349361
0
LINE
8
BLACK
6
CONTINUOUS
10
59.2494399999999999
20
-10.349361
11
59.154201999999998
21
-10.4445999999999994
0
LINE
8
BLACK
6
CONTINUOUS
10
59.154201999999998
20
-10.4445999999999994
11
58.9637259999999941
21
-10.5398379999999996
0
LINE
8
BLACK
6
CONTINUOUS
10
58.9637259999999941
20
-10.5398379999999996
11
58.582772999999996
21
-10.5398379999999996
0
LINE
8
BLACK
6
CONTINUOUS
10
58.582772999999996
20
-10.5398379999999996
11
58.3922969999999992
21
-10.4445999999999994
0
LINE
8
BLACK
6
CONTINUOUS
10
60.4875349999999941
20
-10.5398379999999996
11
60.2970589999999973
21
-10.4445999999999994
0
LINE
8
BLACK
6
CONTINUOUS
10
60.2970589999999973
20
-10.4445999999999994
11
60.2018209999999954
21
-10.2541229999999999
0
LINE
8
BLACK
6
CONTINUOUS
10
60.2018209999999954
20
-10.2541229999999999
11
60.2018209999999954
21
-8.5398379999999996
0
LINE
8
BLACK
6
CONTINUOUS
10
62.1065830000000005
20
-10.5398379999999996
11
62.1065830000000005
21
-9.4922190000000004
0
LINE
8
BLACK
6
CONTINUOUS
10
62.1065830000000005
20
-9.4922190000000004
11
62.0113449999999986
21
-9.3017419999999991
0
LINE
8
BLACK
6
CONTINUOUS
10
62.0113449999999986
20
-9.3017419999999991
11
61.8208689999999947
21
-9.2065039999999989
0
LINE
8
BLACK
6
CONTINUOUS
10
61.8208689999999947
20
-9.2065039999999989
11
61.4399159999999966
21
-9.2065039999999989
0
LINE
8
BLACK
6
CONTINUOUS
10
61.4399159999999966
20
-9.2065039999999989
11
61.2494399999999999
21
-9.3017419999999991
0
LINE
8
BLACK
6
CONTINUOUS
10
62.1065830000000005
20
-10.4445999999999994
11
61.9161069999999967
21
-10.5398379999999996
0
LINE
8
BLACK
6
CONTINUOUS
10
61.9161069999999967
20
-10.5398379999999996
11
61.4399159999999966
21
-10.5398379999999996
0
LINE
8
BLACK
6
CONTINUOUS
10
61.4399159999999966
20
-10.5398379999999996
11
61.2494399999999999
21
-10.4445999999999994
0
LINE
8
BLACK
6
CONTINUOUS
10
61.2494399999999999
20
-10.4445999999999994
11
61.154201999999998
21
-10.2541229999999999
0
LINE
8
BLACK
6
CONTINUOUS
10
61.154201999999998
20
-10.2541229999999999
11
61.154201999999998
21
-10.0636469999999996
0
LINE
8
BLACK
6
CONTINUOUS
10
61.154201999999998
20
-10.0636469999999996
11
61.2494399999999999
21
-9.8731709999999993
0
LINE
8
BLACK
6
CONTINUOUS
10
61.2494399999999999
20
-9.8731709999999993
11
61.4399159999999966
21
-9.7779329999999991
0
LINE
8
BLACK
6
CONTINUOUS
10
61.4399159999999966
20
-9.7779329999999991
11
61.9161069999999967
21
-9.7779329999999991
0
LINE
8
BLACK
6
CONTINUOUS
10
61.9161069999999967
20
-9.7779329999999991
11
62.1065830000000005
21
-9.6826949999999989
0
LINE
8
BLACK
6
CONTINUOUS
10
62.7732499999999973
20
-9.2065039999999989
11
63.5351539999999986
21
-9.2065039999999989
0
LINE
8
BLACK
6
CONTINUOUS
10
63.058963999999996
20
-8.5398379999999996
11
63.058963999999996
21
-10.2541229999999999
0
LINE
8
BLACK
6
CONTINUOUS
10
63.058963999999996
20
-10.2541229999999999
11
63.154201999999998
21
-10.4445999999999994
0
LINE
8
BLACK
6
CONTINUOUS
10
63.154201999999998
20
-10.4445999999999994
11
63.3446779999999947
21
-10.5398379999999996
0
LINE
8
BLACK
6
CONTINUOUS
10
63.3446779999999947
20
-10.5398379999999996
11
63.5351539999999986
21
-10.5398379999999996
0
LINE
8
BLACK
6
CONTINUOUS
10
64.9637259999999941
20
-10.4445999999999994
11
64.7732499999999902
21
-10.5398379999999996
0
LINE
8
BLACK
6
CONTINUOUS
10
64.7732499999999902
20
-10.5398379999999996
11
64.3922969999999992
21
-10.5398379999999996
0
LINE
8
BLACK
6
CONTINUOUS
10
64.3922969999999992
20
-10.5398379999999996
11
64.2018209999999954
21
-10.4445999999999994
0
LINE
8
BLACK
6
CONTINUOUS
10
64.2018209999999954
20
-10.4445999999999994
11
64.1065830000000005
21
-10.2541229999999999
0
LINE
8
BLACK
6
CONTINUOUS
10
64.1065830000000005
20
-10.2541229999999999
11
64.1065830000000005
21
-9.4922190000000004
0
LINE
8
BLACK
6
CONTINUOUS
10
64.1065830000000005
20
-9.4922190000000004
11
64.2018209999999954
21
-9.3017419999999991
0
LINE
8
BLACK
6
CONTINUOUS
10
64.2018209999999954
20
-9.3017419999999991
11
64.3922969999999992
21
-9.2065039999999989
0
LINE
8
BLACK
6
CONTINUOUS
10
64.3922969999999992
20
-9.2065039999999989
11
64.7732499999999902
21
-9.2065039999999989
0
LINE
8
BLACK
6
CONTINUOUS
10
64.7732499999999902
20
-9.2065039999999989
11
64.9637259999999941
21
-9.3017419999999991
0
LINE
8
BLACK
6
CONTINUOUS
10
64.9637259999999941
20
-9.3017419999999991
11
65.0589640000000031
21
-9.4922190000000004
0
LINE
8
BLACK
6
CONTINUOUS
10
65.0589640000000031
20
-9.4922190000000004
11
65.0589640000000031
21
-9.6826949999999989
0
LINE
8
BLACK
6
CONTINUOUS
10
65.0589640000000031
20
-9.6826949999999989
11
64.1065830000000005
21
-9.8731709999999993
0
LINE
8
BLACK
6
CONTINUOUS
10
66.7732499999999902
20
-10.5398379999999996
11
66.7732499999999902
21
-8.5398379999999996
0
LINE
8
BLACK
6
CONTINUOUS
10
66.7732499999999902
20
-10.4445999999999994
11
66.5827740000000006
21
-10.5398379999999996
0
LINE
8
BLACK
6
CONTINUOUS
10
66.5827740000000006
20
-10.5398379999999996
11
66.2018209999999954
21
-10.5398379999999996
0
LINE
8
BLACK
6
CONTINUOUS
10
66.2018209999999954
20
-10.5398379999999996
11
66.0113449999999915
21
-10.4445999999999994
0
LINE
8
BLACK
6
CONTINUOUS
10
66.0113449999999915
20
-10.4445999999999994
11
65.9161069999999967
21
-10.349361
0
LINE
8
BLACK
6
CONTINUOUS
10
65.9161069999999967
20
-10.349361
11
65.8208690000000018
21
-10.1588849999999997
0
LINE
8
BLACK
6
CONTINUOUS
10
65.8208690000000018
20
-10.1588849999999997
11
65.8208690000000018
21
-9.5874569999999988
0
LINE
8
BLACK
6
CONTINUOUS
10
65.8208690000000018
20
-9.5874569999999988
11
65.9161069999999967
21
-9.3969799999999992
0
LINE
8
BLACK
6
CONTINUOUS
10
65.9161069999999967
20
-9.3969799999999992
11
66.0113449999999915
21
-9.3017419999999991
0
LINE
8
BLACK
6
CONTINUOUS
10
66.0113449999999915
20
-9.3017419999999991
11
66.2018209999999954
21
-9.2065039999999989
0
LINE
8
BLACK
6
CONTINUOUS
10
66.2018209999999954
20
-9.2065039999999989
11
66.5827740000000006
21
-9.2065039999999989
0
LINE
8
BLACK
6
CONTINUOUS
10
66.5827740000000006
20
-9.2065039999999989
11
66.7732499999999902
21
-9.3017419999999991
0
LINE
8
BLACK
6
CONTINUOUS
10
67.5351550000000032
20
-11.3017419999999991
11
67.630392999999998
21
-11.2065039999999989
0
LINE
8
BLACK
6
CONTINUOUS
10
67.630392999999998
20
-11.2065039999999989
11
67.8208690000000018
21
-10.9207900000000002
0
LINE
8
BLACK
6
CONTINUOUS
10
67.8208690000000018
20
-10.9207900000000002
11
67.9161069999999967
21
-10.7303139999999999
0
LINE
8
BLACK
6
CONTINUOUS
10
67.9161069999999967
20
-10.7303139999999999
11
68.0113449999999915
21
-10.4445999999999994
0
LINE
8
BLACK
6
CONTINUOUS
10
68.0113449999999915
20
-10.4445999999999994
11
68.1065830000000005
21
-9.9684089999999994
0
LINE
8
BLACK
6
CONTINUOUS
10
68.1065830000000005
20
-9.9684089999999994
11
68.1065830000000005
21
-9.5874569999999988
0
LINE
8
BLACK
6
CONTINUOUS
10
68.1065830000000005
20
-9.5874569999999988
11
68.0113449999999915
21
-9.1112659999999988
0
LINE
8
BLACK
6
CONTINUOUS
10
68.0113449999999915
20
-9.1112659999999988
11
67.9161069999999967
21
-8.8255520000000001
0
LINE
8
BLACK
6
CONTINUOUS
10
67.9161069999999967
20
-8.8255520000000001
11
67.8208690000000018
21
-8.6350759999999998
0
LINE
8
BLACK
6
CONTINUOUS
10
67.8208690000000018
20
-8.6350759999999998
11
67.630392999999998
21
-8.349361
0
LINE
8
BLACK
6
CONTINUOUS
10
67.630392999999998
20
-8.349361
11
67.5351550000000032
21
-8.2541229999999999
  0
ENDSEC
  0
EOF
