M48
; DRILL file KiCad 10.0.3 date 2026-06-21T20:05:47
; FORMAT={-:-/ absolute / metric / decimal}
; #@! TF.CreationDate,2026-06-21T20:05:47-04:00
; #@! TF.GenerationSoftware,Kicad,Pcbnew,10.0.3
; #@! TF.FileFunction,Plated,1,2,PTH
FMAT,2
METRIC
; #@! TA.AperFunction,Plated,PTH,ComponentDrill
T1C0.800
; #@! TA.AperFunction,Plated,PTH,ViaDrill
T2C1.000
; #@! TA.AperFunction,Plated,PTH,ComponentDrill
T3C1.000
%
G90
G05
T1
X-0.766Y4.241
X1.534Y13.241
X1.534Y10.741
X1.534Y8.241
X4.234Y4.241
X5.034Y17.041
X6.734Y3.691
X7.034Y17.041
X8.734Y3.691
X12.934Y3.691
X14.934Y3.691
X18.934Y8.151
X18.934Y0.531
X19.434Y15.631
X19.434Y13.091
X19.434Y10.551
X21.434Y8.151
X21.434Y0.531
T2
X21.434Y3.141
T3
X7.934Y10.541
X12.634Y18.241
X14.934Y10.541
X20.634Y18.241
X21.564Y-1.319
M30
