  0
SECTION
  2
HEADER
  9
$ANGBASE
  50
0.0
  9
$ANGDIR
  70
1
  9
$MEASUREMENT
  70
1
  9
$INSUNITS
  70
4
  0
ENDSEC
  0
SECTION
  2
TABLES
  0
TABLE
  2
LTYPE
  70
4
  0
LTYPE
  5
40F
  2
CONTINUOUS
  70
0
  3
Solid line
  72
65
  73
0
  40
0.0
  0
LTYPE
  5
410
  2
DASHDOT
 70
0
  3
Dash Dot ____ _ ____ _
 72
65
 73
4
 40
2.0
 49
1.25
 49
-0.25
 49
0.25
 49
-0.25
  0
LTYPE
  5
411
  2
DASHED
 70
0
  3
Dashed __ __ __ __ __
 72
65
 73
2
 40
0.75
 49
0.5
 49
-0.25
  0
LTYPE
  5
43B
  2
DOTTED
 70
0
  3
Dotted .  .  .  .
 72
65
 73
2
 40
0.2
 49
0.0
 49
-0.2
  0
ENDTAB
  0
TABLE
  2
STYLE
  70
4
  0
STYLE
  2
KICAD
  70
0
  40
0
  41
1
  42
1
  50
0
  71
0
  3
isocp.shx
  0
STYLE
  2
KICADB
  70
0
  40
0
  41
1
  42
1
  50
0
  71
0
  3
isocp.shx
  0
STYLE
  2
KICADI
  70
0
  40
0
  41
1
  42
1
  50
15
  71
0
  3
isocp.shx
  0
STYLE
  2
KICADBI
  70
0
  40
0
  41
1
  42
1
  50
15
  71
0
  3
isocp.shx
  0
ENDTAB
  0
TABLE
  2
LAYER
  70
1
  0
LAYER
  2
BLACK
  70
0
  62
250
  6
CONTINUOUS
  0
ENDTAB
  0
ENDSEC
  0
SECTION
  2
ENTITIES
0
LINE
8
BLACK
6
CONTINUOUS
10
0.
20
75.2683969999999931
11
136.2567559999999958
21
75.2683969999999931
0
LINE
8
BLACK
6
CONTINUOUS
10
136.2567559999999958
20
75.2683969999999931
11
136.2567559999999958
21
0.
0
LINE
8
BLACK
6
CONTINUOUS
10
136.2567559999999958
20
0.
11
0.
21
0.
0
LINE
8
BLACK
6
CONTINUOUS
10
0.
20
0.
11
0.
21
75.2683969999999931
0
LINE
8
BLACK
6
CONTINUOUS
10
3.6587559999999999
20
19.8999999999999986
11
4.4587560000000002
21
19.0999999999999979
0
LINE
8
BLACK
6
CONTINUOUS
10
4.4587560000000002
20
19.8999999999999986
11
3.6587559999999999
21
19.0999999999999979
0
LINE
8
BLACK
6
CONTINUOUS
10
3.6587559999999999
20
10.9000000000000004
11
4.4587560000000002
21
10.0999999999999996
0
LINE
8
BLACK
6
CONTINUOUS
10
4.4587560000000002
20
10.9000000000000004
11
3.6587559999999999
21
10.0999999999999996
0
LINE
8
BLACK
6
CONTINUOUS
10
4.4567559999999995
20
41.6499999999999986
11
5.2567559999999993
21
40.8500000000000014
0
LINE
8
BLACK
6
CONTINUOUS
10
5.2567559999999993
20
41.6499999999999986
11
4.4567559999999995
21
40.8500000000000014
0
LINE
8
BLACK
6
CONTINUOUS
10
4.4567559999999995
20
39.6499999999999986
11
5.2567559999999993
21
38.8500000000000014
0
LINE
8
BLACK
6
CONTINUOUS
10
5.2567559999999993
20
39.6499999999999986
11
4.4567559999999995
21
38.8500000000000014
0
LINE
8
BLACK
6
CONTINUOUS
10
4.6067559999999999
20
25.8999999999999986
11
5.4067559999999997
21
25.0999999999999979
0
LINE
8
BLACK
6
CONTINUOUS
10
5.4067559999999997
20
25.8999999999999986
11
4.6067559999999999
21
25.0999999999999979
0
LINE
8
BLACK
6
CONTINUOUS
10
6.1987559999999995
20
19.8999999999999986
11
6.9987559999999993
21
19.0999999999999979
0
LINE
8
BLACK
6
CONTINUOUS
10
6.9987559999999993
20
19.8999999999999986
11
6.1987559999999995
21
19.0999999999999979
0
LINE
8
BLACK
6
CONTINUOUS
10
7.1067559999999999
20
25.8999999999999986
11
7.9067559999999997
21
25.0999999999999979
0
LINE
8
BLACK
6
CONTINUOUS
10
7.9067559999999997
20
25.8999999999999986
11
7.1067559999999999
21
25.0999999999999979
0
LINE
8
BLACK
6
CONTINUOUS
10
9.606755999999999
20
25.8999999999999986
11
10.4067559999999997
21
25.0999999999999979
0
LINE
8
BLACK
6
CONTINUOUS
10
10.4067559999999997
20
25.8999999999999986
11
9.606755999999999
21
25.0999999999999979
0
LINE
8
BLACK
6
CONTINUOUS
10
11.5667559999999998
20
19.8999999999999986
11
12.3667559999999987
21
19.0999999999999979
0
LINE
8
BLACK
6
CONTINUOUS
10
12.3667559999999987
20
19.8999999999999986
11
11.5667559999999998
21
19.0999999999999979
0
LINE
8
BLACK
6
CONTINUOUS
10
12.106755999999999
20
35.6499999999999986
11
12.9067559999999997
21
34.8500000000000014
0
LINE
8
BLACK
6
CONTINUOUS
10
12.9067559999999997
20
35.6499999999999986
11
12.106755999999999
21
34.8500000000000014
0
LINE
8
BLACK
6
CONTINUOUS
10
12.106755999999999
20
30.6499999999999986
11
12.9067559999999997
21
29.8499999999999979
0
LINE
8
BLACK
6
CONTINUOUS
10
12.9067559999999997
20
30.6499999999999986
11
12.106755999999999
21
29.8499999999999979
0
LINE
8
BLACK
6
CONTINUOUS
10
14.106755999999999
20
19.8999999999999986
11
14.9067559999999997
21
19.0999999999999979
0
LINE
8
BLACK
6
CONTINUOUS
10
14.9067559999999997
20
19.8999999999999986
11
14.106755999999999
21
19.0999999999999979
0
LINE
8
BLACK
6
CONTINUOUS
10
14.106755999999999
20
10.9000000000000004
11
14.9067559999999997
21
10.0999999999999996
0
LINE
8
BLACK
6
CONTINUOUS
10
14.9067559999999997
20
10.9000000000000004
11
14.106755999999999
21
10.0999999999999996
0
LINE
8
BLACK
6
CONTINUOUS
10
14.606755999999999
20
42.1499999999999986
11
15.4067559999999997
21
41.3500000000000014
0
LINE
8
BLACK
6
CONTINUOUS
10
15.4067559999999997
20
42.1499999999999986
11
14.606755999999999
21
41.3500000000000014
0
LINE
8
BLACK
6
CONTINUOUS
10
14.606755999999999
20
40.1499999999999986
11
15.4067559999999997
21
39.3500000000000014
0
LINE
8
BLACK
6
CONTINUOUS
10
15.4067559999999997
20
40.1499999999999986
11
14.606755999999999
21
39.3500000000000014
0
LINE
8
BLACK
6
CONTINUOUS
10
27.3567559999999972
20
38.8999999999999986
11
28.1567559999999979
21
38.1000000000000014
0
LINE
8
BLACK
6
CONTINUOUS
10
28.1567559999999979
20
38.8999999999999986
11
27.3567559999999972
21
38.1000000000000014
0
LINE
8
BLACK
6
CONTINUOUS
10
42.2767559999999989
20
53.8999999999999986
11
43.076755999999996
21
53.0999999999999943
0
LINE
8
BLACK
6
CONTINUOUS
10
43.076755999999996
20
53.8999999999999986
11
42.2767559999999989
21
53.0999999999999943
0
LINE
8
BLACK
6
CONTINUOUS
10
50.4467560000000006
20
59.8999999999999986
11
51.2467559999999978
21
59.0999999999999943
0
LINE
8
BLACK
6
CONTINUOUS
10
51.2467559999999978
20
59.8999999999999986
11
50.4467560000000006
21
59.0999999999999943
0
LINE
8
BLACK
6
CONTINUOUS
10
52.4367559999999955
20
53.8999999999999986
11
53.2367559999999997
21
53.0999999999999943
0
LINE
8
BLACK
6
CONTINUOUS
10
53.2367559999999997
20
53.8999999999999986
11
52.4367559999999955
21
53.0999999999999943
0
LINE
8
BLACK
6
CONTINUOUS
10
55.7767559999999989
20
70.8999999999999915
11
56.576755999999996
21
70.0999999999999943
0
LINE
8
BLACK
6
CONTINUOUS
10
56.576755999999996
20
70.8999999999999915
11
55.7767559999999989
21
70.0999999999999943
0
LINE
8
BLACK
6
CONTINUOUS
10
60.6067559999999972
20
59.8999999999999986
11
61.4067559999999943
21
59.0999999999999943
0
LINE
8
BLACK
6
CONTINUOUS
10
61.4067559999999943
20
59.8999999999999986
11
60.6067559999999972
21
59.0999999999999943
0
LINE
8
BLACK
6
CONTINUOUS
10
65.9367560000000026
20
70.8999999999999915
11
66.7367559999999997
21
70.0999999999999943
0
LINE
8
BLACK
6
CONTINUOUS
10
66.7367559999999997
20
70.8999999999999915
11
65.9367560000000026
21
70.0999999999999943
0
LINE
8
BLACK
6
CONTINUOUS
10
70.8567559999999901
20
41.1499999999999986
11
71.6567560000000014
21
40.3500000000000014
0
LINE
8
BLACK
6
CONTINUOUS
10
71.6567560000000014
20
41.1499999999999986
11
70.8567559999999901
21
40.3500000000000014
0
LINE
8
BLACK
6
CONTINUOUS
10
83.1067559999999901
20
68.7749999999999915
11
83.9067560000000014
21
67.9749999999999943
0
LINE
8
BLACK
6
CONTINUOUS
10
83.9067560000000014
20
68.7749999999999915
11
83.1067559999999901
21
67.9749999999999943
0
LINE
8
BLACK
6
CONTINUOUS
10
87.0442559999999901
20
68.7749999999999915
11
87.8442560000000014
21
67.9749999999999943
0
LINE
8
BLACK
6
CONTINUOUS
10
87.8442560000000014
20
68.7749999999999915
11
87.0442559999999901
21
67.9749999999999943
0
LINE
8
BLACK
6
CONTINUOUS
10
91.1067559999999901
20
68.8999999999999915
11
91.9067560000000014
21
68.0999999999999943
0
LINE
8
BLACK
6
CONTINUOUS
10
91.9067560000000014
20
68.8999999999999915
11
91.1067559999999901
21
68.0999999999999943
0
LINE
8
BLACK
6
CONTINUOUS
10
94.6867560000000026
20
64.8999999999999915
11
95.4867559999999997
21
64.0999999999999943
0
LINE
8
BLACK
6
CONTINUOUS
10
95.4867559999999997
20
64.8999999999999915
11
94.6867560000000026
21
64.0999999999999943
0
LINE
8
BLACK
6
CONTINUOUS
10
94.6867560000000026
20
61.1499999999999986
11
95.4867559999999997
21
60.3499999999999943
0
LINE
8
BLACK
6
CONTINUOUS
10
95.4867559999999997
20
61.1499999999999986
11
94.6867560000000026
21
60.3499999999999943
0
LINE
8
BLACK
6
CONTINUOUS
10
94.6967559999999935
20
57.3999999999999986
11
95.4967559999999906
21
56.5999999999999943
0
LINE
8
BLACK
6
CONTINUOUS
10
95.4967559999999906
20
57.3999999999999986
11
94.6967559999999935
21
56.5999999999999943
0
LINE
8
BLACK
6
CONTINUOUS
10
104.8467559999999992
20
64.8999999999999915
11
105.6467559999999963
21
64.0999999999999943
0
LINE
8
BLACK
6
CONTINUOUS
10
105.6467559999999963
20
64.8999999999999915
11
104.8467559999999992
21
64.0999999999999943
0
LINE
8
BLACK
6
CONTINUOUS
10
104.8467559999999992
20
61.1499999999999986
11
105.6467559999999963
21
60.3499999999999943
0
LINE
8
BLACK
6
CONTINUOUS
10
105.6467559999999963
20
61.1499999999999986
11
104.8467559999999992
21
60.3499999999999943
0
LINE
8
BLACK
6
CONTINUOUS
10
104.8567559999999901
20
57.3999999999999986
11
105.6567560000000014
21
56.5999999999999943
0
LINE
8
BLACK
6
CONTINUOUS
10
105.6567560000000014
20
57.3999999999999986
11
104.8567559999999901
21
56.5999999999999943
0
LINE
8
BLACK
6
CONTINUOUS
10
108.816755999999998
20
24.1499999999999986
11
109.6167559999999952
21
23.3499999999999979
0
LINE
8
BLACK
6
CONTINUOUS
10
109.6167559999999952
20
24.1499999999999986
11
108.816755999999998
21
23.3499999999999979
0
LINE
8
BLACK
6
CONTINUOUS
10
111.3567559999999901
20
24.1499999999999986
11
112.1567560000000014
21
23.3499999999999979
0
LINE
8
BLACK
6
CONTINUOUS
10
112.1567560000000014
20
24.1499999999999986
11
111.3567559999999901
21
23.3499999999999979
0
LINE
8
BLACK
6
CONTINUOUS
10
113.8967559999999963
20
24.1499999999999986
11
114.6967559999999935
21
23.3499999999999979
0
LINE
8
BLACK
6
CONTINUOUS
10
114.6967559999999935
20
24.1499999999999986
11
113.8967559999999963
21
23.3499999999999979
0
LINE
8
BLACK
6
CONTINUOUS
10
116.691755999999998
20
24.1499999999999986
11
117.4917559999999952
21
23.3499999999999979
0
LINE
8
BLACK
6
CONTINUOUS
10
117.4917559999999952
20
24.1499999999999986
11
116.691755999999998
21
23.3499999999999979
0
LINE
8
BLACK
6
CONTINUOUS
10
119.2317559999999901
20
24.1499999999999986
11
120.0317560000000014
21
23.3499999999999979
0
LINE
8
BLACK
6
CONTINUOUS
10
120.0317560000000014
20
24.1499999999999986
11
119.2317559999999901
21
23.3499999999999979
0
LINE
8
BLACK
6
CONTINUOUS
10
121.7717559999999963
20
24.1499999999999986
11
122.5717559999999935
21
23.3499999999999979
0
LINE
8
BLACK
6
CONTINUOUS
10
122.5717559999999935
20
24.1499999999999986
11
121.7717559999999963
21
23.3499999999999979
0
LINE
8
BLACK
6
CONTINUOUS
10
124.566755999999998
20
24.1499999999999986
11
125.3667559999999952
21
23.3499999999999979
0
LINE
8
BLACK
6
CONTINUOUS
10
125.3667559999999952
20
24.1499999999999986
11
124.566755999999998
21
23.3499999999999979
0
LINE
8
BLACK
6
CONTINUOUS
10
127.1067559999999901
20
24.1499999999999986
11
127.9067559999999872
21
23.3499999999999979
0
LINE
8
BLACK
6
CONTINUOUS
10
127.9067559999999872
20
24.1499999999999986
11
127.1067559999999901
21
23.3499999999999979
0
LINE
8
BLACK
6
CONTINUOUS
10
129.6467559999999821
20
24.1499999999999986
11
130.4467559999999935
21
23.3499999999999979
0
LINE
8
BLACK
6
CONTINUOUS
10
130.4467559999999935
20
24.1499999999999986
11
129.6467559999999821
21
23.3499999999999979
0
CIRCLE
8
BLACK
10
44.2567559999999958
20
68.
40
0.5
0
CIRCLE
8
BLACK
10
110.5067559999999958
20
54.5
40
0.5
0
LINE
8
BLACK
6
CONTINUOUS
10
27.6367559999999983
20
35.5
11
27.6367559999999983
21
34.5
0
LINE
8
BLACK
6
CONTINUOUS
10
27.1367559999999983
20
35.
11
28.1367559999999983
21
35.
0
LINE
8
BLACK
6
CONTINUOUS
10
30.1767559999999975
20
35.5
11
30.1767559999999975
21
34.5
0
LINE
8
BLACK
6
CONTINUOUS
10
29.6767559999999975
20
35.
11
30.6767559999999975
21
35.
0
LINE
8
BLACK
6
CONTINUOUS
10
32.7167559999999966
20
35.5
11
32.7167559999999966
21
34.5
0
LINE
8
BLACK
6
CONTINUOUS
10
32.2167559999999966
20
35.
11
33.2167559999999966
21
35.
0
LINE
8
BLACK
6
CONTINUOUS
10
33.1317559999999958
20
44.8399999999999963
11
33.1317559999999958
21
43.8399999999999963
0
LINE
8
BLACK
6
CONTINUOUS
10
32.6317559999999958
20
44.3399999999999963
11
33.6317559999999958
21
44.3399999999999963
0
LINE
8
BLACK
6
CONTINUOUS
10
35.2567559999999958
20
35.5
11
35.2567559999999958
21
34.5
0
LINE
8
BLACK
6
CONTINUOUS
10
34.7567559999999958
20
35.
11
35.7567559999999958
21
35.
0
LINE
8
BLACK
6
CONTINUOUS
10
35.6717559999999949
20
44.8399999999999963
11
35.6717559999999949
21
43.8399999999999963
0
LINE
8
BLACK
6
CONTINUOUS
10
35.1717559999999949
20
44.3399999999999963
11
36.1717559999999949
21
44.3399999999999963
0
LINE
8
BLACK
6
CONTINUOUS
10
37.7967559999999949
20
35.5
11
37.7967559999999949
21
34.5
0
LINE
8
BLACK
6
CONTINUOUS
10
37.2967559999999949
20
35.
11
38.2967559999999949
21
35.
0
LINE
8
BLACK
6
CONTINUOUS
10
40.3367560000000012
20
35.5
11
40.3367560000000012
21
34.5
0
LINE
8
BLACK
6
CONTINUOUS
10
39.8367560000000012
20
35.
11
40.8367560000000012
21
35.
0
LINE
8
BLACK
6
CONTINUOUS
10
40.7517560000000003
20
44.8399999999999963
11
40.7517560000000003
21
43.8399999999999963
0
LINE
8
BLACK
6
CONTINUOUS
10
40.2517560000000003
20
44.3399999999999963
11
41.2517560000000003
21
44.3399999999999963
0
LINE
8
BLACK
6
CONTINUOUS
10
42.8767560000000003
20
35.5
11
42.8767560000000003
21
34.5
0
LINE
8
BLACK
6
CONTINUOUS
10
42.3767560000000003
20
35.
11
43.3767560000000003
21
35.
0
LINE
8
BLACK
6
CONTINUOUS
10
43.2917559999999995
20
65.1599999999999966
11
43.2917559999999995
21
64.1599999999999966
0
LINE
8
BLACK
6
CONTINUOUS
10
42.7917559999999995
20
64.6599999999999966
11
43.7917559999999995
21
64.6599999999999966
0
LINE
8
BLACK
6
CONTINUOUS
10
43.2917559999999995
20
44.8399999999999963
11
43.2917559999999995
21
43.8399999999999963
0
LINE
8
BLACK
6
CONTINUOUS
10
42.7917559999999995
20
44.3399999999999963
11
43.7917559999999995
21
44.3399999999999963
0
LINE
8
BLACK
6
CONTINUOUS
10
45.4167559999999995
20
35.5
11
45.4167559999999995
21
34.5
0
LINE
8
BLACK
6
CONTINUOUS
10
44.9167559999999995
20
35.
11
45.9167559999999995
21
35.
0
LINE
8
BLACK
6
CONTINUOUS
10
45.8317559999999986
20
65.1599999999999966
11
45.8317559999999986
21
64.1599999999999966
0
LINE
8
BLACK
6
CONTINUOUS
10
45.3317559999999986
20
64.6599999999999966
11
46.3317559999999986
21
64.6599999999999966
0
LINE
8
BLACK
6
CONTINUOUS
10
45.8317559999999986
20
44.8399999999999963
11
45.8317559999999986
21
43.8399999999999963
0
LINE
8
BLACK
6
CONTINUOUS
10
45.3317559999999986
20
44.3399999999999963
11
46.3317559999999986
21
44.3399999999999963
0
LINE
8
BLACK
6
CONTINUOUS
10
47.9567559999999986
20
35.5
11
47.9567559999999986
21
34.5
0
LINE
8
BLACK
6
CONTINUOUS
10
47.4567559999999986
20
35.
11
48.4567559999999986
21
35.
0
LINE
8
BLACK
6
CONTINUOUS
10
48.3717559999999978
20
65.1599999999999966
11
48.3717559999999978
21
64.1599999999999966
0
LINE
8
BLACK
6
CONTINUOUS
10
47.8717559999999978
20
64.6599999999999966
11
48.8717559999999978
21
64.6599999999999966
0
LINE
8
BLACK
6
CONTINUOUS
10
48.3717559999999978
20
44.8399999999999963
11
48.3717559999999978
21
43.8399999999999963
0
LINE
8
BLACK
6
CONTINUOUS
10
47.8717559999999978
20
44.3399999999999963
11
48.8717559999999978
21
44.3399999999999963
0
LINE
8
BLACK
6
CONTINUOUS
10
50.9117559999999969
20
65.1599999999999966
11
50.9117559999999969
21
64.1599999999999966
0
LINE
8
BLACK
6
CONTINUOUS
10
50.4117559999999969
20
64.6599999999999966
11
51.4117559999999969
21
64.6599999999999966
0
LINE
8
BLACK
6
CONTINUOUS
10
50.9117559999999969
20
44.8399999999999963
11
50.9117559999999969
21
43.8399999999999963
0
LINE
8
BLACK
6
CONTINUOUS
10
50.4117559999999969
20
44.3399999999999963
11
51.4117559999999969
21
44.3399999999999963
0
LINE
8
BLACK
6
CONTINUOUS
10
53.451755999999996
20
65.1599999999999966
11
53.451755999999996
21
64.1599999999999966
0
LINE
8
BLACK
6
CONTINUOUS
10
52.951755999999996
20
64.6599999999999966
11
53.951755999999996
21
64.6599999999999966
0
LINE
8
BLACK
6
CONTINUOUS
10
53.451755999999996
20
44.8399999999999963
11
53.451755999999996
21
43.8399999999999963
0
LINE
8
BLACK
6
CONTINUOUS
10
52.951755999999996
20
44.3399999999999963
11
53.951755999999996
21
44.3399999999999963
0
LINE
8
BLACK
6
CONTINUOUS
10
55.9917559999999952
20
65.1599999999999966
11
55.9917559999999952
21
64.1599999999999966
0
LINE
8
BLACK
6
CONTINUOUS
10
55.4917559999999952
20
64.6599999999999966
11
56.4917559999999952
21
64.6599999999999966
0
LINE
8
BLACK
6
CONTINUOUS
10
55.9917559999999952
20
44.8399999999999963
11
55.9917559999999952
21
43.8399999999999963
0
LINE
8
BLACK
6
CONTINUOUS
10
55.4917559999999952
20
44.3399999999999963
11
56.4917559999999952
21
44.3399999999999963
0
LINE
8
BLACK
6
CONTINUOUS
10
58.5317559999999943
20
65.1599999999999966
11
58.5317559999999943
21
64.1599999999999966
0
LINE
8
BLACK
6
CONTINUOUS
10
58.0317559999999943
20
64.6599999999999966
11
59.0317559999999943
21
64.6599999999999966
0
LINE
8
BLACK
6
CONTINUOUS
10
58.5317559999999943
20
44.8399999999999963
11
58.5317559999999943
21
43.8399999999999963
0
LINE
8
BLACK
6
CONTINUOUS
10
58.0317559999999943
20
44.3399999999999963
11
59.0317559999999943
21
44.3399999999999963
0
LINE
8
BLACK
6
CONTINUOUS
10
61.0717560000000006
20
65.1599999999999966
11
61.0717560000000006
21
64.1599999999999966
0
LINE
8
BLACK
6
CONTINUOUS
10
60.5717560000000006
20
64.6599999999999966
11
61.5717560000000006
21
64.6599999999999966
0
LINE
8
BLACK
6
CONTINUOUS
10
63.6117559999999997
20
65.1599999999999966
11
63.6117559999999997
21
64.1599999999999966
0
LINE
8
BLACK
6
CONTINUOUS
10
63.1117559999999997
20
64.6599999999999966
11
64.1117559999999997
21
64.6599999999999966
0
LINE
8
BLACK
6
CONTINUOUS
10
66.1517559999999918
20
65.1599999999999966
11
66.1517559999999918
21
64.1599999999999966
0
LINE
8
BLACK
6
CONTINUOUS
10
65.6517559999999918
20
64.6599999999999966
11
66.6517559999999918
21
64.6599999999999966
0
LINE
8
BLACK
6
CONTINUOUS
10
66.1517559999999918
20
44.8399999999999963
11
66.1517559999999918
21
43.8399999999999963
0
LINE
8
BLACK
6
CONTINUOUS
10
65.6517559999999918
20
44.3399999999999963
11
66.6517559999999918
21
44.3399999999999963
0
LINE
8
BLACK
6
CONTINUOUS
10
68.691755999999998
20
65.1599999999999966
11
68.691755999999998
21
64.1599999999999966
0
LINE
8
BLACK
6
CONTINUOUS
10
68.191755999999998
20
64.6599999999999966
11
69.191755999999998
21
64.6599999999999966
0
LINE
8
BLACK
6
CONTINUOUS
10
68.691755999999998
20
44.8399999999999963
11
68.691755999999998
21
43.8399999999999963
0
LINE
8
BLACK
6
CONTINUOUS
10
68.191755999999998
20
44.3399999999999963
11
69.191755999999998
21
44.3399999999999963
0
LINE
8
BLACK
6
CONTINUOUS
10
71.2317559999999901
20
65.1599999999999966
11
71.2317559999999901
21
64.1599999999999966
0
LINE
8
BLACK
6
CONTINUOUS
10
70.7317559999999901
20
64.6599999999999966
11
71.7317559999999901
21
64.6599999999999966
0
LINE
8
BLACK
6
CONTINUOUS
10
71.2317559999999901
20
44.8399999999999963
11
71.2317559999999901
21
43.8399999999999963
0
LINE
8
BLACK
6
CONTINUOUS
10
70.7317559999999901
20
44.3399999999999963
11
71.7317559999999901
21
44.3399999999999963
0
LINE
8
BLACK
6
CONTINUOUS
10
83.8067559999999929
20
51.0599999999999952
11
83.8067559999999929
21
50.0599999999999952
0
LINE
8
BLACK
6
CONTINUOUS
10
83.3067559999999929
20
50.5599999999999952
11
84.3067559999999929
21
50.5599999999999952
0
LINE
8
BLACK
6
CONTINUOUS
10
83.8067559999999929
20
48.519999999999996
11
83.8067559999999929
21
47.519999999999996
0
LINE
8
BLACK
6
CONTINUOUS
10
83.3067559999999929
20
48.019999999999996
11
84.3067559999999929
21
48.019999999999996
0
LINE
8
BLACK
6
CONTINUOUS
10
83.8067559999999929
20
45.9799999999999969
11
83.8067559999999929
21
44.9799999999999969
0
LINE
8
BLACK
6
CONTINUOUS
10
83.3067559999999929
20
45.4799999999999969
11
84.3067559999999929
21
45.4799999999999969
0
LINE
8
BLACK
6
CONTINUOUS
10
83.8067559999999929
20
43.4399999999999977
11
83.8067559999999929
21
42.4399999999999977
0
LINE
8
BLACK
6
CONTINUOUS
10
83.3067559999999929
20
42.9399999999999977
11
84.3067559999999929
21
42.9399999999999977
0
LINE
8
BLACK
6
CONTINUOUS
10
85.0067559999999958
20
64.75
11
85.0067559999999958
21
63.75
0
LINE
8
BLACK
6
CONTINUOUS
10
84.5067559999999958
20
64.25
11
85.5067559999999958
21
64.25
0
LINE
8
BLACK
6
CONTINUOUS
10
85.6167559999999952
20
23.3999999999999986
11
85.6167559999999952
21
22.3999999999999986
0
LINE
8
BLACK
6
CONTINUOUS
10
85.1167559999999952
20
22.8999999999999986
11
86.1167559999999952
21
22.8999999999999986
0
LINE
8
BLACK
6
CONTINUOUS
10
87.546756000000002
20
64.75
11
87.546756000000002
21
63.75
0
LINE
8
BLACK
6
CONTINUOUS
10
87.046756000000002
20
64.25
11
88.046756000000002
21
64.25
0
LINE
8
BLACK
6
CONTINUOUS
10
88.1567560000000014
20
23.3999999999999986
11
88.1567560000000014
21
22.3999999999999986
0
LINE
8
BLACK
6
CONTINUOUS
10
87.6567560000000014
20
22.8999999999999986
11
88.6567560000000014
21
22.8999999999999986
0
LINE
8
BLACK
6
CONTINUOUS
10
89.4267559999999975
20
4.7400000000000002
11
89.4267559999999975
21
3.7399999999999998
0
LINE
8
BLACK
6
CONTINUOUS
10
88.9267559999999975
20
4.2400000000000002
11
89.9267559999999975
21
4.2400000000000002
0
LINE
8
BLACK
6
CONTINUOUS
10
90.0867559999999941
20
64.75
11
90.0867559999999941
21
63.75
0
LINE
8
BLACK
6
CONTINUOUS
10
89.5867559999999941
20
64.25
11
90.5867559999999941
21
64.25
0
LINE
8
BLACK
6
CONTINUOUS
10
90.6967559999999935
20
23.3999999999999986
11
90.6967559999999935
21
22.3999999999999986
0
LINE
8
BLACK
6
CONTINUOUS
10
90.1967559999999935
20
22.8999999999999986
11
91.1967559999999935
21
22.8999999999999986
0
LINE
8
BLACK
6
CONTINUOUS
10
91.9667559999999895
20
4.7400000000000002
11
91.9667559999999895
21
3.7399999999999998
0
LINE
8
BLACK
6
CONTINUOUS
10
91.4667559999999895
20
4.2400000000000002
11
92.4667559999999895
21
4.2400000000000002
0
LINE
8
BLACK
6
CONTINUOUS
10
93.2367559999999997
20
23.3999999999999986
11
93.2367559999999997
21
22.3999999999999986
0
LINE
8
BLACK
6
CONTINUOUS
10
92.7367559999999997
20
22.8999999999999986
11
93.7367559999999997
21
22.8999999999999986
0
LINE
8
BLACK
6
CONTINUOUS
10
94.5067559999999958
20
4.7400000000000002
11
94.5067559999999958
21
3.7399999999999998
0
LINE
8
BLACK
6
CONTINUOUS
10
94.0067559999999958
20
4.2400000000000002
11
95.0067559999999958
21
4.2400000000000002
0
LINE
8
BLACK
6
CONTINUOUS
10
95.7767559999999918
20
23.3999999999999986
11
95.7767559999999918
21
22.3999999999999986
0
LINE
8
BLACK
6
CONTINUOUS
10
95.2767559999999918
20
22.8999999999999986
11
96.2767559999999918
21
22.8999999999999986
0
LINE
8
BLACK
6
CONTINUOUS
10
97.046756000000002
20
4.7400000000000002
11
97.046756000000002
21
3.7399999999999998
0
LINE
8
BLACK
6
CONTINUOUS
10
96.546756000000002
20
4.2400000000000002
11
97.546756000000002
21
4.2400000000000002
0
LINE
8
BLACK
6
CONTINUOUS
10
98.316755999999998
20
23.3999999999999986
11
98.316755999999998
21
22.3999999999999986
0
LINE
8
BLACK
6
CONTINUOUS
10
97.816755999999998
20
22.8999999999999986
11
98.816755999999998
21
22.8999999999999986
0
LINE
8
BLACK
6
CONTINUOUS
10
99.5867559999999941
20
4.7400000000000002
11
99.5867559999999941
21
3.7399999999999998
0
LINE
8
BLACK
6
CONTINUOUS
10
99.0867559999999941
20
4.2400000000000002
11
100.0867559999999941
21
4.2400000000000002
0
LINE
8
BLACK
6
CONTINUOUS
10
100.8567559999999901
20
23.3999999999999986
11
100.8567559999999901
21
22.3999999999999986
0
LINE
8
BLACK
6
CONTINUOUS
10
100.3567559999999901
20
22.8999999999999986
11
101.3567559999999901
21
22.8999999999999986
0
LINE
8
BLACK
6
CONTINUOUS
10
103.3967559999999963
20
23.3999999999999986
11
103.3967559999999963
21
22.3999999999999986
0
LINE
8
BLACK
6
CONTINUOUS
10
102.8967559999999963
20
22.8999999999999986
11
103.8967559999999963
21
22.8999999999999986
0
LINE
8
BLACK
6
CONTINUOUS
10
104.2567559999999958
20
51.5
11
104.2567559999999958
21
50.5
0
LINE
8
BLACK
6
CONTINUOUS
10
103.7567559999999958
20
51.
11
104.7567559999999958
21
51.
0
LINE
8
BLACK
6
CONTINUOUS
10
104.2567559999999958
20
44.5
11
104.2567559999999958
21
43.5
0
LINE
8
BLACK
6
CONTINUOUS
10
103.7567559999999958
20
44.
11
104.7567559999999958
21
44.
0
LINE
8
BLACK
6
CONTINUOUS
10
111.5067559999999958
20
39.75
11
111.5067559999999958
21
38.75
0
LINE
8
BLACK
6
CONTINUOUS
10
111.0067559999999958
20
39.25
11
112.0067559999999958
21
39.25
0
LINE
8
BLACK
6
CONTINUOUS
10
111.5067559999999958
20
31.75
11
111.5067559999999958
21
30.75
0
LINE
8
BLACK
6
CONTINUOUS
10
111.0067559999999958
20
31.25
11
112.0067559999999958
21
31.25
0
LINE
8
BLACK
6
CONTINUOUS
10
116.6317559999999958
20
51.5
11
116.6317559999999958
21
50.5
0
LINE
8
BLACK
6
CONTINUOUS
10
116.1317559999999958
20
51.
11
117.1317559999999958
21
51.
0
LINE
8
BLACK
6
CONTINUOUS
10
116.6317559999999958
20
44.5
11
116.6317559999999958
21
43.5
0
LINE
8
BLACK
6
CONTINUOUS
10
116.1317559999999958
20
44.
11
117.1317559999999958
21
44.
0
LINE
8
BLACK
6
CONTINUOUS
10
119.2567559999999958
20
39.75
11
119.2567559999999958
21
38.75
0
LINE
8
BLACK
6
CONTINUOUS
10
118.7567559999999958
20
39.25
11
119.7567559999999958
21
39.25
0
LINE
8
BLACK
6
CONTINUOUS
10
119.2567559999999958
20
31.75
11
119.2567559999999958
21
30.75
0
LINE
8
BLACK
6
CONTINUOUS
10
118.7567559999999958
20
31.25
11
119.7567559999999958
21
31.25
0
LINE
8
BLACK
6
CONTINUOUS
10
126.2567559999999958
20
39.75
11
126.2567559999999958
21
38.75
0
LINE
8
BLACK
6
CONTINUOUS
10
125.7567559999999958
20
39.25
11
126.7567559999999958
21
39.25
0
LINE
8
BLACK
6
CONTINUOUS
10
126.2567559999999958
20
31.75
11
126.2567559999999958
21
30.75
0
LINE
8
BLACK
6
CONTINUOUS
10
125.7567559999999958
20
31.25
11
126.7567559999999958
21
31.25
0
LINE
8
BLACK
6
CONTINUOUS
10
129.0067559999999958
20
51.5
11
129.0067559999999958
21
50.5
0
LINE
8
BLACK
6
CONTINUOUS
10
128.5067559999999958
20
51.
11
129.5067559999999958
21
51.
0
LINE
8
BLACK
6
CONTINUOUS
10
129.0067559999999958
20
44.5
11
129.0067559999999958
21
43.5
0
LINE
8
BLACK
6
CONTINUOUS
10
128.5067559999999958
20
44.
11
129.5067559999999958
21
44.
0
LINE
8
BLACK
6
CONTINUOUS
10
2.5827679999999997
20
-3.1398379999999997
11
2.5827679999999997
21
-1.1398379999999999
0
LINE
8
BLACK
6
CONTINUOUS
10
2.5827679999999997
20
-1.1398379999999999
11
3.0589580000000001
21
-1.1398379999999999
0
LINE
8
BLACK
6
CONTINUOUS
10
3.0589580000000001
20
-1.1398379999999999
11
3.3446729999999998
21
-1.2350759999999998
0
LINE
8
BLACK
6
CONTINUOUS
10
3.3446729999999998
20
-1.2350759999999998
11
3.5351489999999997
21
-1.4255519999999999
0
LINE
8
BLACK
6
CONTINUOUS
10
3.5351489999999997
20
-1.4255519999999999
11
3.6303869999999998
21
-1.616028
0
LINE
8
BLACK
6
CONTINUOUS
10
3.6303869999999998
20
-1.616028
11
3.725625
21
-1.99698
0
LINE
8
BLACK
6
CONTINUOUS
10
3.725625
20
-1.99698
11
3.725625
21
-2.2826949999999999
0
LINE
8
BLACK
6
CONTINUOUS
10
3.725625
20
-2.2826949999999999
11
3.6303869999999998
21
-2.6636470000000001
0
LINE
8
BLACK
6
CONTINUOUS
10
3.6303869999999998
20
-2.6636470000000001
11
3.5351489999999997
21
-2.854123
0
LINE
8
BLACK
6
CONTINUOUS
10
3.5351489999999997
20
-2.854123
11
3.3446729999999998
21
-3.0446
0
LINE
8
BLACK
6
CONTINUOUS
10
3.3446729999999998
20
-3.0446
11
3.0589580000000001
21
-3.1398379999999997
0
LINE
8
BLACK
6
CONTINUOUS
10
3.0589580000000001
20
-3.1398379999999997
11
2.5827679999999997
21
-3.1398379999999997
0
LINE
8
BLACK
6
CONTINUOUS
10
4.5827679999999997
20
-3.1398379999999997
11
4.5827679999999997
21
-1.8065039999999999
0
LINE
8
BLACK
6
CONTINUOUS
10
4.5827679999999997
20
-2.1874569999999998
11
4.6780059999999999
21
-1.99698
0
LINE
8
BLACK
6
CONTINUOUS
10
4.6780059999999999
20
-1.99698
11
4.773244
21
-1.9017419999999998
0
LINE
8
BLACK
6
CONTINUOUS
10
4.773244
20
-1.9017419999999998
11
4.9637199999999995
21
-1.8065039999999999
0
LINE
8
BLACK
6
CONTINUOUS
10
4.9637199999999995
20
-1.8065039999999999
11
5.1541969999999999
21
-1.8065039999999999
0
LINE
8
BLACK
6
CONTINUOUS
10
5.8208630000000001
20
-3.1398379999999997
11
5.8208630000000001
21
-1.8065039999999999
0
LINE
8
BLACK
6
CONTINUOUS
10
5.8208630000000001
20
-1.1398379999999999
11
5.725625
21
-1.2350759999999998
0
LINE
8
BLACK
6
CONTINUOUS
10
5.725625
20
-1.2350759999999998
11
5.8208630000000001
21
-1.330314
0
LINE
8
BLACK
6
CONTINUOUS
10
5.8208630000000001
20
-1.330314
11
5.9161009999999994
21
-1.2350759999999998
0
LINE
8
BLACK
6
CONTINUOUS
10
5.9161009999999994
20
-1.2350759999999998
11
5.8208630000000001
21
-1.1398379999999999
0
LINE
8
BLACK
6
CONTINUOUS
10
5.8208630000000001
20
-1.1398379999999999
11
5.8208630000000001
21
-1.330314
0
LINE
8
BLACK
6
CONTINUOUS
10
7.0589579999999996
20
-3.1398379999999997
11
6.8684819999999993
21
-3.0446
0
LINE
8
BLACK
6
CONTINUOUS
10
6.8684819999999993
20
-3.0446
11
6.773244
21
-2.854123
0
LINE
8
BLACK
6
CONTINUOUS
10
6.773244
20
-2.854123
11
6.773244
21
-1.1398379999999999
0
LINE
8
BLACK
6
CONTINUOUS
10
8.1065769999999997
20
-3.1398379999999997
11
7.9161009999999994
21
-3.0446
0
LINE
8
BLACK
6
CONTINUOUS
10
7.9161009999999994
20
-3.0446
11
7.8208629999999992
21
-2.854123
0
LINE
8
BLACK
6
CONTINUOUS
10
7.8208629999999992
20
-2.854123
11
7.8208629999999992
21
-1.1398379999999999
0
LINE
8
BLACK
6
CONTINUOUS
10
10.3922919999999994
20
-3.1398379999999997
11
10.3922919999999994
21
-1.1398379999999999
0
LINE
8
BLACK
6
CONTINUOUS
10
10.3922919999999994
20
-1.1398379999999999
11
11.0589589999999998
21
-2.5684089999999999
0
LINE
8
BLACK
6
CONTINUOUS
10
11.0589589999999998
20
-2.5684089999999999
11
11.7256249999999991
21
-1.1398379999999999
0
LINE
8
BLACK
6
CONTINUOUS
10
11.7256249999999991
20
-1.1398379999999999
11
11.7256249999999991
21
-3.1398379999999997
0
LINE
8
BLACK
6
CONTINUOUS
10
13.5351489999999988
20
-3.1398379999999997
11
13.5351489999999988
21
-2.0922190000000001
0
LINE
8
BLACK
6
CONTINUOUS
10
13.5351489999999988
20
-2.0922190000000001
11
13.4399109999999986
21
-1.9017419999999998
0
LINE
8
BLACK
6
CONTINUOUS
10
13.4399109999999986
20
-1.9017419999999998
11
13.2494350000000001
21
-1.8065039999999999
0
LINE
8
BLACK
6
CONTINUOUS
10
13.2494350000000001
20
-1.8065039999999999
11
12.8684820000000002
21
-1.8065039999999999
0
LINE
8
BLACK
6
CONTINUOUS
10
12.8684820000000002
20
-1.8065039999999999
11
12.6780059999999999
21
-1.9017419999999998
0
LINE
8
BLACK
6
CONTINUOUS
10
13.5351489999999988
20
-3.0446
11
13.3446730000000002
21
-3.1398379999999997
0
LINE
8
BLACK
6
CONTINUOUS
10
13.3446730000000002
20
-3.1398379999999997
11
12.8684820000000002
21
-3.1398379999999997
0
LINE
8
BLACK
6
CONTINUOUS
10
12.8684820000000002
20
-3.1398379999999997
11
12.6780059999999999
21
-3.0446
0
LINE
8
BLACK
6
CONTINUOUS
10
12.6780059999999999
20
-3.0446
11
12.5827679999999997
21
-2.854123
0
LINE
8
BLACK
6
CONTINUOUS
10
12.5827679999999997
20
-2.854123
11
12.5827679999999997
21
-2.6636470000000001
0
LINE
8
BLACK
6
CONTINUOUS
10
12.5827679999999997
20
-2.6636470000000001
11
12.6780059999999999
21
-2.4731709999999998
0
LINE
8
BLACK
6
CONTINUOUS
10
12.6780059999999999
20
-2.4731709999999998
11
12.8684820000000002
21
-2.3779330000000001
0
LINE
8
BLACK
6
CONTINUOUS
10
12.8684820000000002
20
-2.3779330000000001
11
13.3446730000000002
21
-2.3779330000000001
0
LINE
8
BLACK
6
CONTINUOUS
10
13.3446730000000002
20
-2.3779330000000001
11
13.5351489999999988
21
-2.2826949999999999
0
LINE
8
BLACK
6
CONTINUOUS
10
14.4875299999999996
20
-1.8065039999999999
11
14.4875299999999996
21
-3.8065039999999999
0
LINE
8
BLACK
6
CONTINUOUS
10
14.4875299999999996
20
-1.9017419999999998
11
14.6780059999999999
21
-1.8065039999999999
0
LINE
8
BLACK
6
CONTINUOUS
10
14.6780059999999999
20
-1.8065039999999999
11
15.0589589999999998
21
-1.8065039999999999
0
LINE
8
BLACK
6
CONTINUOUS
10
15.0589589999999998
20
-1.8065039999999999
11
15.2494350000000001
21
-1.9017419999999998
0
LINE
8
BLACK
6
CONTINUOUS
10
15.2494350000000001
20
-1.9017419999999998
11
15.3446729999999985
21
-1.99698
0
LINE
8
BLACK
6
CONTINUOUS
10
15.3446729999999985
20
-1.99698
11
15.4399109999999986
21
-2.1874569999999998
0
LINE
8
BLACK
6
CONTINUOUS
10
15.4399109999999986
20
-2.1874569999999998
11
15.4399109999999986
21
-2.7588849999999998
0
LINE
8
BLACK
6
CONTINUOUS
10
15.4399109999999986
20
-2.7588849999999998
11
15.3446729999999985
21
-2.9493609999999997
0
LINE
8
BLACK
6
CONTINUOUS
10
15.3446729999999985
20
-2.9493609999999997
11
15.2494350000000001
21
-3.0446
0
LINE
8
BLACK
6
CONTINUOUS
10
15.2494350000000001
20
-3.0446
11
15.0589589999999998
21
-3.1398379999999997
0
LINE
8
BLACK
6
CONTINUOUS
10
15.0589589999999998
20
-3.1398379999999997
11
14.6780059999999999
21
-3.1398379999999997
0
LINE
8
BLACK
6
CONTINUOUS
10
14.6780059999999999
20
-3.1398379999999997
11
14.4875299999999996
21
-3.0446
0
LINE
8
BLACK
6
CONTINUOUS
10
16.2970539999999993
20
-2.9493609999999997
11
16.3922919999999976
21
-3.0446
0
LINE
8
BLACK
6
CONTINUOUS
10
16.3922919999999976
20
-3.0446
11
16.2970539999999993
21
-3.1398379999999997
0
LINE
8
BLACK
6
CONTINUOUS
10
16.2970539999999993
20
-3.1398379999999997
11
16.2018160000000009
21
-3.0446
0
LINE
8
BLACK
6
CONTINUOUS
10
16.2018160000000009
20
-3.0446
11
16.2970539999999993
21
-2.9493609999999997
0
LINE
8
BLACK
6
CONTINUOUS
10
16.2970539999999993
20
-2.9493609999999997
11
16.2970539999999993
21
-3.1398379999999997
0
LINE
8
BLACK
6
CONTINUOUS
10
16.2970539999999993
20
-1.9017419999999998
11
16.3922919999999976
21
-1.99698
0
LINE
8
BLACK
6
CONTINUOUS
10
16.3922919999999976
20
-1.99698
11
16.2970539999999993
21
-2.0922190000000001
0
LINE
8
BLACK
6
CONTINUOUS
10
16.2970539999999993
20
-2.0922190000000001
11
16.2018160000000009
21
-1.99698
0
LINE
8
BLACK
6
CONTINUOUS
10
16.2018160000000009
20
-1.99698
11
16.2970539999999993
21
-1.9017419999999998
0
LINE
8
BLACK
6
CONTINUOUS
10
16.2970539999999993
20
-1.9017419999999998
11
16.2970539999999993
21
-2.0922190000000001
0
LINE
8
BLACK
6
CONTINUOUS
10
-0.825
20
-6.0249999999999995
11
-0.025
21
-6.8249999999999993
0
LINE
8
BLACK
6
CONTINUOUS
10
-0.025
20
-6.0249999999999995
11
-0.825
21
-6.8249999999999993
0
LINE
8
BLACK
6
CONTINUOUS
10
2.9637199999999999
20
-5.3398379999999994
11
3.1541969999999999
21
-5.3398379999999994
0
LINE
8
BLACK
6
CONTINUOUS
10
3.1541969999999999
20
-5.3398379999999994
11
3.3446729999999998
21
-5.4350759999999996
0
LINE
8
BLACK
6
CONTINUOUS
10
3.3446729999999998
20
-5.4350759999999996
11
3.4399109999999999
21
-5.5303139999999997
0
LINE
8
BLACK
6
CONTINUOUS
10
3.4399109999999999
20
-5.5303139999999997
11
3.5351489999999997
21
-5.72079
0
LINE
8
BLACK
6
CONTINUOUS
10
3.5351489999999997
20
-5.72079
11
3.6303869999999998
21
-6.1017419999999998
0
LINE
8
BLACK
6
CONTINUOUS
10
3.6303869999999998
20
-6.1017419999999998
11
3.6303869999999998
21
-6.5779329999999998
0
LINE
8
BLACK
6
CONTINUOUS
10
3.6303869999999998
20
-6.5779329999999998
11
3.5351489999999997
21
-6.9588849999999995
0
LINE
8
BLACK
6
CONTINUOUS
10
3.5351489999999997
20
-6.9588849999999995
11
3.4399109999999999
21
-7.1493609999999999
0
LINE
8
BLACK
6
CONTINUOUS
10
3.4399109999999999
20
-7.1493609999999999
11
3.3446729999999998
21
-7.2445999999999993
0
LINE
8
BLACK
6
CONTINUOUS
10
3.3446729999999998
20
-7.2445999999999993
11
3.1541969999999999
21
-7.3398379999999994
0
LINE
8
BLACK
6
CONTINUOUS
10
3.1541969999999999
20
-7.3398379999999994
11
2.9637199999999999
21
-7.3398379999999994
0
LINE
8
BLACK
6
CONTINUOUS
10
2.9637199999999999
20
-7.3398379999999994
11
2.773244
21
-7.2445999999999993
0
LINE
8
BLACK
6
CONTINUOUS
10
2.773244
20
-7.2445999999999993
11
2.6780059999999999
21
-7.1493609999999999
0
LINE
8
BLACK
6
CONTINUOUS
10
2.6780059999999999
20
-7.1493609999999999
11
2.5827679999999997
21
-6.9588849999999995
0
LINE
8
BLACK
6
CONTINUOUS
10
2.5827679999999997
20
-6.9588849999999995
11
2.48753
21
-6.5779329999999998
0
LINE
8
BLACK
6
CONTINUOUS
10
2.48753
20
-6.5779329999999998
11
2.48753
21
-6.1017419999999998
0
LINE
8
BLACK
6
CONTINUOUS
10
2.48753
20
-6.1017419999999998
11
2.5827679999999997
21
-5.72079
0
LINE
8
BLACK
6
CONTINUOUS
10
2.5827679999999997
20
-5.72079
11
2.6780059999999999
21
-5.5303139999999997
0
LINE
8
BLACK
6
CONTINUOUS
10
2.6780059999999999
20
-5.5303139999999997
11
2.773244
21
-5.4350759999999996
0
LINE
8
BLACK
6
CONTINUOUS
10
2.773244
20
-5.4350759999999996
11
2.9637199999999999
21
-5.3398379999999994
0
LINE
8
BLACK
6
CONTINUOUS
10
4.4875299999999996
20
-7.1493609999999999
11
4.5827679999999997
21
-7.2445999999999993
0
LINE
8
BLACK
6
CONTINUOUS
10
4.5827679999999997
20
-7.2445999999999993
11
4.4875299999999996
21
-7.3398379999999994
0
LINE
8
BLACK
6
CONTINUOUS
10
4.4875299999999996
20
-7.3398379999999994
11
4.3922919999999994
21
-7.2445999999999993
0
LINE
8
BLACK
6
CONTINUOUS
10
4.3922919999999994
20
-7.2445999999999993
11
4.4875299999999996
21
-7.1493609999999999
0
LINE
8
BLACK
6
CONTINUOUS
10
4.4875299999999996
20
-7.1493609999999999
11
4.4875299999999996
21
-7.3398379999999994
0
LINE
8
BLACK
6
CONTINUOUS
10
5.725625
20
-6.1969799999999999
11
5.5351489999999997
21
-6.1017419999999998
0
LINE
8
BLACK
6
CONTINUOUS
10
5.5351489999999997
20
-6.1017419999999998
11
5.4399109999999995
21
-6.0065039999999996
0
LINE
8
BLACK
6
CONTINUOUS
10
5.4399109999999995
20
-6.0065039999999996
11
5.3446729999999993
21
-5.8160279999999993
0
LINE
8
BLACK
6
CONTINUOUS
10
5.3446729999999993
20
-5.8160279999999993
11
5.3446729999999993
21
-5.72079
0
LINE
8
BLACK
6
CONTINUOUS
10
5.3446729999999993
20
-5.72079
11
5.4399109999999995
21
-5.5303139999999997
0
LINE
8
BLACK
6
CONTINUOUS
10
5.4399109999999995
20
-5.5303139999999997
11
5.5351489999999997
21
-5.4350759999999996
0
LINE
8
BLACK
6
CONTINUOUS
10
5.5351489999999997
20
-5.4350759999999996
11
5.725625
21
-5.3398379999999994
0
LINE
8
BLACK
6
CONTINUOUS
10
5.725625
20
-5.3398379999999994
11
6.1065779999999998
21
-5.3398379999999994
0
LINE
8
BLACK
6
CONTINUOUS
10
6.1065779999999998
20
-5.3398379999999994
11
6.2970540000000002
21
-5.4350759999999996
0
LINE
8
BLACK
6
CONTINUOUS
10
6.2970540000000002
20
-5.4350759999999996
11
6.3922919999999994
21
-5.5303139999999997
0
LINE
8
BLACK
6
CONTINUOUS
10
6.3922919999999994
20
-5.5303139999999997
11
6.4875299999999996
21
-5.72079
0
LINE
8
BLACK
6
CONTINUOUS
10
6.4875299999999996
20
-5.72079
11
6.4875299999999996
21
-5.8160279999999993
0
LINE
8
BLACK
6
CONTINUOUS
10
6.4875299999999996
20
-5.8160279999999993
11
6.3922919999999994
21
-6.0065039999999996
0
LINE
8
BLACK
6
CONTINUOUS
10
6.3922919999999994
20
-6.0065039999999996
11
6.2970540000000002
21
-6.1017419999999998
0
LINE
8
BLACK
6
CONTINUOUS
10
6.2970540000000002
20
-6.1017419999999998
11
6.1065779999999998
21
-6.1969799999999999
0
LINE
8
BLACK
6
CONTINUOUS
10
6.1065779999999998
20
-6.1969799999999999
11
5.725625
21
-6.1969799999999999
0
LINE
8
BLACK
6
CONTINUOUS
10
5.725625
20
-6.1969799999999999
11
5.5351489999999997
21
-6.2922189999999993
0
LINE
8
BLACK
6
CONTINUOUS
10
5.5351489999999997
20
-6.2922189999999993
11
5.4399109999999995
21
-6.3874569999999995
0
LINE
8
BLACK
6
CONTINUOUS
10
5.4399109999999995
20
-6.3874569999999995
11
5.3446729999999993
21
-6.5779329999999998
0
LINE
8
BLACK
6
CONTINUOUS
10
5.3446729999999993
20
-6.5779329999999998
11
5.3446729999999993
21
-6.9588849999999995
0
LINE
8
BLACK
6
CONTINUOUS
10
5.3446729999999993
20
-6.9588849999999995
11
5.4399109999999995
21
-7.1493609999999999
0
LINE
8
BLACK
6
CONTINUOUS
10
5.4399109999999995
20
-7.1493609999999999
11
5.5351489999999997
21
-7.2445999999999993
0
LINE
8
BLACK
6
CONTINUOUS
10
5.5351489999999997
20
-7.2445999999999993
11
5.725625
21
-7.3398379999999994
0
LINE
8
BLACK
6
CONTINUOUS
10
5.725625
20
-7.3398379999999994
11
6.1065779999999998
21
-7.3398379999999994
0
LINE
8
BLACK
6
CONTINUOUS
10
6.1065779999999998
20
-7.3398379999999994
11
6.2970540000000002
21
-7.2445999999999993
0
LINE
8
BLACK
6
CONTINUOUS
10
6.2970540000000002
20
-7.2445999999999993
11
6.3922919999999994
21
-7.1493609999999999
0
LINE
8
BLACK
6
CONTINUOUS
10
6.3922919999999994
20
-7.1493609999999999
11
6.4875299999999996
21
-6.9588849999999995
0
LINE
8
BLACK
6
CONTINUOUS
10
6.4875299999999996
20
-6.9588849999999995
11
6.4875299999999996
21
-6.5779329999999998
0
LINE
8
BLACK
6
CONTINUOUS
10
6.4875299999999996
20
-6.5779329999999998
11
6.3922919999999994
21
-6.3874569999999995
0
LINE
8
BLACK
6
CONTINUOUS
10
6.3922919999999994
20
-6.3874569999999995
11
6.2970540000000002
21
-6.2922189999999993
0
LINE
8
BLACK
6
CONTINUOUS
10
6.2970540000000002
20
-6.2922189999999993
11
6.1065779999999998
21
-6.1969799999999999
0
LINE
8
BLACK
6
CONTINUOUS
10
7.725625
20
-5.3398379999999994
11
7.9161019999999995
21
-5.3398379999999994
0
LINE
8
BLACK
6
CONTINUOUS
10
7.9161019999999995
20
-5.3398379999999994
11
8.106577999999999
21
-5.4350759999999996
0
LINE
8
BLACK
6
CONTINUOUS
10
8.106577999999999
20
-5.4350759999999996
11
8.2018159999999991
21
-5.5303139999999997
0
LINE
8
BLACK
6
CONTINUOUS
10
8.2018159999999991
20
-5.5303139999999997
11
8.2970539999999993
21
-5.72079
0
LINE
8
BLACK
6
CONTINUOUS
10
8.2970539999999993
20
-5.72079
11
8.3922919999999994
21
-6.1017419999999998
0
LINE
8
BLACK
6
CONTINUOUS
10
8.3922919999999994
20
-6.1017419999999998
11
8.3922919999999994
21
-6.5779329999999998
0
LINE
8
BLACK
6
CONTINUOUS
10
8.3922919999999994
20
-6.5779329999999998
11
8.2970539999999993
21
-6.9588849999999995
0
LINE
8
BLACK
6
CONTINUOUS
10
8.2970539999999993
20
-6.9588849999999995
11
8.2018159999999991
21
-7.1493609999999999
0
LINE
8
BLACK
6
CONTINUOUS
10
8.2018159999999991
20
-7.1493609999999999
11
8.106577999999999
21
-7.2445999999999993
0
LINE
8
BLACK
6
CONTINUOUS
10
8.106577999999999
20
-7.2445999999999993
11
7.9161019999999995
21
-7.3398379999999994
0
LINE
8
BLACK
6
CONTINUOUS
10
7.9161019999999995
20
-7.3398379999999994
11
7.725625
21
-7.3398379999999994
0
LINE
8
BLACK
6
CONTINUOUS
10
7.725625
20
-7.3398379999999994
11
7.5351489999999997
21
-7.2445999999999993
0
LINE
8
BLACK
6
CONTINUOUS
10
7.5351489999999997
20
-7.2445999999999993
11
7.4399109999999995
21
-7.1493609999999999
0
LINE
8
BLACK
6
CONTINUOUS
10
7.4399109999999995
20
-7.1493609999999999
11
7.3446729999999993
21
-6.9588849999999995
0
LINE
8
BLACK
6
CONTINUOUS
10
7.3446729999999993
20
-6.9588849999999995
11
7.2494350000000001
21
-6.5779329999999998
0
LINE
8
BLACK
6
CONTINUOUS
10
7.2494350000000001
20
-6.5779329999999998
11
7.2494350000000001
21
-6.1017419999999998
0
LINE
8
BLACK
6
CONTINUOUS
10
7.2494350000000001
20
-6.1017419999999998
11
7.3446729999999993
21
-5.72079
0
LINE
8
BLACK
6
CONTINUOUS
10
7.3446729999999993
20
-5.72079
11
7.4399109999999995
21
-5.5303139999999997
0
LINE
8
BLACK
6
CONTINUOUS
10
7.4399109999999995
20
-5.5303139999999997
11
7.5351489999999997
21
-5.4350759999999996
0
LINE
8
BLACK
6
CONTINUOUS
10
7.5351489999999997
20
-5.4350759999999996
11
7.725625
21
-5.3398379999999994
0
LINE
8
BLACK
6
CONTINUOUS
10
9.6303869999999989
20
-5.3398379999999994
11
9.8208640000000003
21
-5.3398379999999994
0
LINE
8
BLACK
6
CONTINUOUS
10
9.8208640000000003
20
-5.3398379999999994
11
10.0113399999999988
21
-5.4350759999999996
0
LINE
8
BLACK
6
CONTINUOUS
10
10.0113399999999988
20
-5.4350759999999996
11
10.106577999999999
21
-5.5303139999999997
0
LINE
8
BLACK
6
CONTINUOUS
10
10.106577999999999
20
-5.5303139999999997
11
10.2018159999999991
21
-5.72079
0
LINE
8
BLACK
6
CONTINUOUS
10
10.2018159999999991
20
-5.72079
11
10.2970539999999993
21
-6.1017419999999998
0
LINE
8
BLACK
6
CONTINUOUS
10
10.2970539999999993
20
-6.1017419999999998
11
10.2970539999999993
21
-6.5779329999999998
0
LINE
8
BLACK
6
CONTINUOUS
10
10.2970539999999993
20
-6.5779329999999998
11
10.2018159999999991
21
-6.9588849999999995
0
LINE
8
BLACK
6
CONTINUOUS
10
10.2018159999999991
20
-6.9588849999999995
11
10.106577999999999
21
-7.1493609999999999
0
LINE
8
BLACK
6
CONTINUOUS
10
10.106577999999999
20
-7.1493609999999999
11
10.0113399999999988
21
-7.2445999999999993
0
LINE
8
BLACK
6
CONTINUOUS
10
10.0113399999999988
20
-7.2445999999999993
11
9.8208640000000003
21
-7.3398379999999994
0
LINE
8
BLACK
6
CONTINUOUS
10
9.8208640000000003
20
-7.3398379999999994
11
9.6303869999999989
21
-7.3398379999999994
0
LINE
8
BLACK
6
CONTINUOUS
10
9.6303869999999989
20
-7.3398379999999994
11
9.4399110000000004
21
-7.2445999999999993
0
LINE
8
BLACK
6
CONTINUOUS
10
9.4399110000000004
20
-7.2445999999999993
11
9.3446730000000002
21
-7.1493609999999999
0
LINE
8
BLACK
6
CONTINUOUS
10
9.3446730000000002
20
-7.1493609999999999
11
9.2494350000000001
21
-6.9588849999999995
0
LINE
8
BLACK
6
CONTINUOUS
10
9.2494350000000001
20
-6.9588849999999995
11
9.1541969999999999
21
-6.5779329999999998
0
LINE
8
BLACK
6
CONTINUOUS
10
9.1541969999999999
20
-6.5779329999999998
11
9.1541969999999999
21
-6.1017419999999998
0
LINE
8
BLACK
6
CONTINUOUS
10
9.1541969999999999
20
-6.1017419999999998
11
9.2494350000000001
21
-5.72079
0
LINE
8
BLACK
6
CONTINUOUS
10
9.2494350000000001
20
-5.72079
11
9.3446730000000002
21
-5.5303139999999997
0
LINE
8
BLACK
6
CONTINUOUS
10
9.3446730000000002
20
-5.5303139999999997
11
9.4399110000000004
21
-5.4350759999999996
0
LINE
8
BLACK
6
CONTINUOUS
10
9.4399110000000004
20
-5.4350759999999996
11
9.6303869999999989
21
-5.3398379999999994
0
LINE
8
BLACK
6
CONTINUOUS
10
11.1541969999999999
20
-7.3398379999999994
11
11.1541969999999999
21
-6.0065039999999996
0
LINE
8
BLACK
6
CONTINUOUS
10
11.1541969999999999
20
-6.1969799999999999
11
11.2494350000000001
21
-6.1017419999999998
0
LINE
8
BLACK
6
CONTINUOUS
10
11.2494350000000001
20
-6.1017419999999998
11
11.4399109999999986
21
-6.0065039999999996
0
LINE
8
BLACK
6
CONTINUOUS
10
11.4399109999999986
20
-6.0065039999999996
11
11.7256260000000001
21
-6.0065039999999996
0
LINE
8
BLACK
6
CONTINUOUS
10
11.7256260000000001
20
-6.0065039999999996
11
11.9161019999999986
21
-6.1017419999999998
0
LINE
8
BLACK
6
CONTINUOUS
10
11.9161019999999986
20
-6.1017419999999998
11
12.0113399999999988
21
-6.2922189999999993
0
LINE
8
BLACK
6
CONTINUOUS
10
12.0113399999999988
20
-6.2922189999999993
11
12.0113399999999988
21
-7.3398379999999994
0
LINE
8
BLACK
6
CONTINUOUS
10
12.0113399999999988
20
-6.2922189999999993
11
12.106577999999999
21
-6.1017419999999998
0
LINE
8
BLACK
6
CONTINUOUS
10
12.106577999999999
20
-6.1017419999999998
11
12.2970539999999993
21
-6.0065039999999996
0
LINE
8
BLACK
6
CONTINUOUS
10
12.2970539999999993
20
-6.0065039999999996
11
12.5827679999999997
21
-6.0065039999999996
0
LINE
8
BLACK
6
CONTINUOUS
10
12.5827679999999997
20
-6.0065039999999996
11
12.7732449999999993
21
-6.1017419999999998
0
LINE
8
BLACK
6
CONTINUOUS
10
12.7732449999999993
20
-6.1017419999999998
11
12.8684829999999994
21
-6.2922189999999993
0
LINE
8
BLACK
6
CONTINUOUS
10
12.8684829999999994
20
-6.2922189999999993
11
12.8684829999999994
21
-7.3398379999999994
0
LINE
8
BLACK
6
CONTINUOUS
10
13.8208640000000003
20
-7.3398379999999994
11
13.8208640000000003
21
-6.0065039999999996
0
LINE
8
BLACK
6
CONTINUOUS
10
13.8208640000000003
20
-6.1969799999999999
11
13.9161019999999986
21
-6.1017419999999998
0
LINE
8
BLACK
6
CONTINUOUS
10
13.9161019999999986
20
-6.1017419999999998
11
14.106577999999999
21
-6.0065039999999996
0
LINE
8
BLACK
6
CONTINUOUS
10
14.106577999999999
20
-6.0065039999999996
11
14.3922929999999987
21
-6.0065039999999996
0
LINE
8
BLACK
6
CONTINUOUS
10
14.3922929999999987
20
-6.0065039999999996
11
14.582768999999999
21
-6.1017419999999998
0
LINE
8
BLACK
6
CONTINUOUS
10
14.582768999999999
20
-6.1017419999999998
11
14.6780069999999991
21
-6.2922189999999993
0
LINE
8
BLACK
6
CONTINUOUS
10
14.6780069999999991
20
-6.2922189999999993
11
14.6780069999999991
21
-7.3398379999999994
0
LINE
8
BLACK
6
CONTINUOUS
10
14.6780069999999991
20
-6.2922189999999993
11
14.7732449999999993
21
-6.1017419999999998
0
LINE
8
BLACK
6
CONTINUOUS
10
14.7732449999999993
20
-6.1017419999999998
11
14.9637209999999996
21
-6.0065039999999996
0
LINE
8
BLACK
6
CONTINUOUS
10
14.9637209999999996
20
-6.0065039999999996
11
15.2494350000000001
21
-6.0065039999999996
0
LINE
8
BLACK
6
CONTINUOUS
10
15.2494350000000001
20
-6.0065039999999996
11
15.4399119999999996
21
-6.1017419999999998
0
LINE
8
BLACK
6
CONTINUOUS
10
15.4399119999999996
20
-6.1017419999999998
11
15.5351499999999998
21
-6.2922189999999993
0
LINE
8
BLACK
6
CONTINUOUS
10
15.5351499999999998
20
-6.2922189999999993
11
15.5351499999999998
21
-7.3398379999999994
0
LINE
8
BLACK
6
CONTINUOUS
10
19.4399119999999996
20
-5.2446000000000002
11
17.7256269999999994
21
-7.8160279999999993
0
LINE
8
BLACK
6
CONTINUOUS
10
22.011340999999998
20
-5.3398379999999994
11
22.2018179999999994
21
-5.3398379999999994
0
LINE
8
BLACK
6
CONTINUOUS
10
22.2018179999999994
20
-5.3398379999999994
11
22.3922939999999997
21
-5.4350759999999996
0
LINE
8
BLACK
6
CONTINUOUS
10
22.3922939999999997
20
-5.4350759999999996
11
22.4875319999999981
21
-5.5303139999999997
0
LINE
8
BLACK
6
CONTINUOUS
10
22.4875319999999981
20
-5.5303139999999997
11
22.58277
21
-5.72079
0
LINE
8
BLACK
6
CONTINUOUS
10
22.58277
20
-5.72079
11
22.6780079999999984
21
-6.1017419999999998
0
LINE
8
BLACK
6
CONTINUOUS
10
22.6780079999999984
20
-6.1017419999999998
11
22.6780079999999984
21
-6.5779329999999998
0
LINE
8
BLACK
6
CONTINUOUS
10
22.6780079999999984
20
-6.5779329999999998
11
22.58277
21
-6.9588849999999995
0
LINE
8
BLACK
6
CONTINUOUS
10
22.58277
20
-6.9588849999999995
11
22.4875319999999981
21
-7.1493609999999999
0
LINE
8
BLACK
6
CONTINUOUS
10
22.4875319999999981
20
-7.1493609999999999
11
22.3922939999999997
21
-7.2445999999999993
0
LINE
8
BLACK
6
CONTINUOUS
10
22.3922939999999997
20
-7.2445999999999993
11
22.2018179999999994
21
-7.3398379999999994
0
LINE
8
BLACK
6
CONTINUOUS
10
22.2018179999999994
20
-7.3398379999999994
11
22.011340999999998
21
-7.3398379999999994
0
LINE
8
BLACK
6
CONTINUOUS
10
22.011340999999998
20
-7.3398379999999994
11
21.8208649999999977
21
-7.2445999999999993
0
LINE
8
BLACK
6
CONTINUOUS
10
21.8208649999999977
20
-7.2445999999999993
11
21.7256269999999994
21
-7.1493609999999999
0
LINE
8
BLACK
6
CONTINUOUS
10
21.7256269999999994
20
-7.1493609999999999
11
21.6303889999999974
21
-6.9588849999999995
0
LINE
8
BLACK
6
CONTINUOUS
10
21.6303889999999974
20
-6.9588849999999995
11
21.535150999999999
21
-6.5779329999999998
0
LINE
8
BLACK
6
CONTINUOUS
10
21.535150999999999
20
-6.5779329999999998
11
21.535150999999999
21
-6.1017419999999998
0
LINE
8
BLACK
6
CONTINUOUS
10
21.535150999999999
20
-6.1017419999999998
11
21.6303889999999974
21
-5.72079
0
LINE
8
BLACK
6
CONTINUOUS
10
21.6303889999999974
20
-5.72079
11
21.7256269999999994
21
-5.5303139999999997
0
LINE
8
BLACK
6
CONTINUOUS
10
21.7256269999999994
20
-5.5303139999999997
11
21.8208649999999977
21
-5.4350759999999996
0
LINE
8
BLACK
6
CONTINUOUS
10
21.8208649999999977
20
-5.4350759999999996
11
22.011340999999998
21
-5.3398379999999994
0
LINE
8
BLACK
6
CONTINUOUS
10
23.535150999999999
20
-7.1493609999999999
11
23.6303889999999974
21
-7.2445999999999993
0
LINE
8
BLACK
6
CONTINUOUS
10
23.6303889999999974
20
-7.2445999999999993
11
23.535150999999999
21
-7.3398379999999994
0
LINE
8
BLACK
6
CONTINUOUS
10
23.535150999999999
20
-7.3398379999999994
11
23.4399130000000007
21
-7.2445999999999993
0
LINE
8
BLACK
6
CONTINUOUS
10
23.4399130000000007
20
-7.2445999999999993
11
23.535150999999999
21
-7.1493609999999999
0
LINE
8
BLACK
6
CONTINUOUS
10
23.535150999999999
20
-7.1493609999999999
11
23.535150999999999
21
-7.3398379999999994
0
LINE
8
BLACK
6
CONTINUOUS
10
24.8684839999999987
20
-5.3398379999999994
11
25.058961
21
-5.3398379999999994
0
LINE
8
BLACK
6
CONTINUOUS
10
25.058961
20
-5.3398379999999994
11
25.2494370000000004
21
-5.4350759999999996
0
LINE
8
BLACK
6
CONTINUOUS
10
25.2494370000000004
20
-5.4350759999999996
11
25.3446749999999987
21
-5.5303139999999997
0
LINE
8
BLACK
6
CONTINUOUS
10
25.3446749999999987
20
-5.5303139999999997
11
25.4399129999999971
21
-5.72079
0
LINE
8
BLACK
6
CONTINUOUS
10
25.4399129999999971
20
-5.72079
11
25.535150999999999
21
-6.1017419999999998
0
LINE
8
BLACK
6
CONTINUOUS
10
25.535150999999999
20
-6.1017419999999998
11
25.535150999999999
21
-6.5779329999999998
0
LINE
8
BLACK
6
CONTINUOUS
10
25.535150999999999
20
-6.5779329999999998
11
25.4399129999999971
21
-6.9588849999999995
0
LINE
8
BLACK
6
CONTINUOUS
10
25.4399129999999971
20
-6.9588849999999995
11
25.3446749999999987
21
-7.1493609999999999
0
LINE
8
BLACK
6
CONTINUOUS
10
25.3446749999999987
20
-7.1493609999999999
11
25.2494370000000004
21
-7.2445999999999993
0
LINE
8
BLACK
6
CONTINUOUS
10
25.2494370000000004
20
-7.2445999999999993
11
25.058961
21
-7.3398379999999994
0
LINE
8
BLACK
6
CONTINUOUS
10
25.058961
20
-7.3398379999999994
11
24.8684839999999987
21
-7.3398379999999994
0
LINE
8
BLACK
6
CONTINUOUS
10
24.8684839999999987
20
-7.3398379999999994
11
24.6780079999999984
21
-7.2445999999999993
0
LINE
8
BLACK
6
CONTINUOUS
10
24.6780079999999984
20
-7.2445999999999993
11
24.58277
21
-7.1493609999999999
0
LINE
8
BLACK
6
CONTINUOUS
10
24.58277
20
-7.1493609999999999
11
24.4875319999999981
21
-6.9588849999999995
0
LINE
8
BLACK
6
CONTINUOUS
10
24.4875319999999981
20
-6.9588849999999995
11
24.3922939999999997
21
-6.5779329999999998
0
LINE
8
BLACK
6
CONTINUOUS
10
24.3922939999999997
20
-6.5779329999999998
11
24.3922939999999997
21
-6.1017419999999998
0
LINE
8
BLACK
6
CONTINUOUS
10
24.3922939999999997
20
-6.1017419999999998
11
24.4875319999999981
21
-5.72079
0
LINE
8
BLACK
6
CONTINUOUS
10
24.4875319999999981
20
-5.72079
11
24.58277
21
-5.5303139999999997
0
LINE
8
BLACK
6
CONTINUOUS
10
24.58277
20
-5.5303139999999997
11
24.6780079999999984
21
-5.4350759999999996
0
LINE
8
BLACK
6
CONTINUOUS
10
24.6780079999999984
20
-5.4350759999999996
11
24.8684839999999987
21
-5.3398379999999994
0
LINE
8
BLACK
6
CONTINUOUS
10
26.2018179999999994
20
-5.3398379999999994
11
27.4399129999999971
21
-5.3398379999999994
0
LINE
8
BLACK
6
CONTINUOUS
10
27.4399129999999971
20
-5.3398379999999994
11
26.7732460000000003
21
-6.1017419999999998
0
LINE
8
BLACK
6
CONTINUOUS
10
26.7732460000000003
20
-6.1017419999999998
11
27.058961
21
-6.1017419999999998
0
LINE
8
BLACK
6
CONTINUOUS
10
27.058961
20
-6.1017419999999998
11
27.2494370000000004
21
-6.1969799999999999
0
LINE
8
BLACK
6
CONTINUOUS
10
27.2494370000000004
20
-6.1969799999999999
11
27.3446749999999987
21
-6.2922189999999993
0
LINE
8
BLACK
6
CONTINUOUS
10
27.3446749999999987
20
-6.2922189999999993
11
27.4399129999999971
21
-6.4826949999999997
0
LINE
8
BLACK
6
CONTINUOUS
10
27.4399129999999971
20
-6.4826949999999997
11
27.4399129999999971
21
-6.9588849999999995
0
LINE
8
BLACK
6
CONTINUOUS
10
27.4399129999999971
20
-6.9588849999999995
11
27.3446749999999987
21
-7.1493609999999999
0
LINE
8
BLACK
6
CONTINUOUS
10
27.3446749999999987
20
-7.1493609999999999
11
27.2494370000000004
21
-7.2445999999999993
0
LINE
8
BLACK
6
CONTINUOUS
10
27.2494370000000004
20
-7.2445999999999993
11
27.058961
21
-7.3398379999999994
0
LINE
8
BLACK
6
CONTINUOUS
10
27.058961
20
-7.3398379999999994
11
26.4875319999999981
21
-7.3398379999999994
0
LINE
8
BLACK
6
CONTINUOUS
10
26.4875319999999981
20
-7.3398379999999994
11
26.2970559999999978
21
-7.2445999999999993
0
LINE
8
BLACK
6
CONTINUOUS
10
26.2970559999999978
20
-7.2445999999999993
11
26.2018179999999994
21
-7.1493609999999999
0
LINE
8
BLACK
6
CONTINUOUS
10
29.3446749999999987
20
-7.3398379999999994
11
28.2018179999999994
21
-7.3398379999999994
0
LINE
8
BLACK
6
CONTINUOUS
10
28.7732460000000003
20
-7.3398379999999994
11
28.7732460000000003
21
-5.3398379999999994
0
LINE
8
BLACK
6
CONTINUOUS
10
28.7732460000000003
20
-5.3398379999999994
11
28.58277
21
-5.6255519999999999
0
LINE
8
BLACK
6
CONTINUOUS
10
28.58277
20
-5.6255519999999999
11
28.3922939999999997
21
-5.8160279999999993
0
LINE
8
BLACK
6
CONTINUOUS
10
28.3922939999999997
20
-5.8160279999999993
11
28.2018179999999994
21
-5.9112659999999995
0
LINE
8
BLACK
6
CONTINUOUS
10
31.1541989999999984
20
-5.3398379999999994
11
30.2018179999999994
21
-5.3398379999999994
0
LINE
8
BLACK
6
CONTINUOUS
10
30.2018179999999994
20
-5.3398379999999994
11
30.1065799999999975
21
-6.2922189999999993
0
LINE
8
BLACK
6
CONTINUOUS
10
30.1065799999999975
20
-6.2922189999999993
11
30.2018179999999994
21
-6.1969799999999999
0
LINE
8
BLACK
6
CONTINUOUS
10
30.2018179999999994
20
-6.1969799999999999
11
30.3922939999999997
21
-6.1017419999999998
0
LINE
8
BLACK
6
CONTINUOUS
10
30.3922939999999997
20
-6.1017419999999998
11
30.8684849999999997
21
-6.1017419999999998
0
LINE
8
BLACK
6
CONTINUOUS
10
30.8684849999999997
20
-6.1017419999999998
11
31.058961
21
-6.1969799999999999
0
LINE
8
BLACK
6
CONTINUOUS
10
31.058961
20
-6.1969799999999999
11
31.1541989999999984
21
-6.2922189999999993
0
LINE
8
BLACK
6
CONTINUOUS
10
31.1541989999999984
20
-6.2922189999999993
11
31.2494370000000004
21
-6.4826949999999997
0
LINE
8
BLACK
6
CONTINUOUS
10
31.2494370000000004
20
-6.4826949999999997
11
31.2494370000000004
21
-6.9588849999999995
0
LINE
8
BLACK
6
CONTINUOUS
10
31.2494370000000004
20
-6.9588849999999995
11
31.1541989999999984
21
-7.1493609999999999
0
LINE
8
BLACK
6
CONTINUOUS
10
31.1541989999999984
20
-7.1493609999999999
11
31.058961
21
-7.2445999999999993
0
LINE
8
BLACK
6
CONTINUOUS
10
31.058961
20
-7.2445999999999993
11
30.8684849999999997
21
-7.3398379999999994
0
LINE
8
BLACK
6
CONTINUOUS
10
30.8684849999999997
20
-7.3398379999999994
11
30.3922939999999997
21
-7.3398379999999994
0
LINE
8
BLACK
6
CONTINUOUS
10
30.3922939999999997
20
-7.3398379999999994
11
30.2018179999999994
21
-7.2445999999999993
0
LINE
8
BLACK
6
CONTINUOUS
10
30.2018179999999994
20
-7.2445999999999993
11
30.1065799999999975
21
-7.1493609999999999
0
LINE
8
BLACK
6
CONTINUOUS
10
32.0113419999999991
20
-5.3398379999999994
11
32.0113419999999991
21
-5.72079
0
LINE
8
BLACK
6
CONTINUOUS
10
32.7732469999999978
20
-5.3398379999999994
11
32.7732469999999978
21
-5.72079
0
LINE
8
BLACK
6
CONTINUOUS
10
35.7256289999999979
20
-8.1017419999999998
11
35.6303899999999985
21
-8.0065039999999996
0
LINE
8
BLACK
6
CONTINUOUS
10
35.6303899999999985
20
-8.0065039999999996
11
35.4399140000000017
21
-7.72079
0
LINE
8
BLACK
6
CONTINUOUS
10
35.4399140000000017
20
-7.72079
11
35.3446759999999998
21
-7.5303139999999997
0
LINE
8
BLACK
6
CONTINUOUS
10
35.3446759999999998
20
-7.5303139999999997
11
35.2494379999999978
21
-7.2445999999999993
0
LINE
8
BLACK
6
CONTINUOUS
10
35.2494379999999978
20
-7.2445999999999993
11
35.1541999999999959
21
-6.7684090000000001
0
LINE
8
BLACK
6
CONTINUOUS
10
35.1541999999999959
20
-6.7684090000000001
11
35.1541999999999959
21
-6.3874569999999995
0
LINE
8
BLACK
6
CONTINUOUS
10
35.1541999999999959
20
-6.3874569999999995
11
35.2494379999999978
21
-5.9112659999999995
0
LINE
8
BLACK
6
CONTINUOUS
10
35.2494379999999978
20
-5.9112659999999995
11
35.3446759999999998
21
-5.6255519999999999
0
LINE
8
BLACK
6
CONTINUOUS
10
35.3446759999999998
20
-5.6255519999999999
11
35.4399140000000017
21
-5.4350759999999996
0
LINE
8
BLACK
6
CONTINUOUS
10
35.4399140000000017
20
-5.4350759999999996
11
35.6303899999999985
21
-5.1493609999999999
0
LINE
8
BLACK
6
CONTINUOUS
10
35.6303899999999985
20
-5.1493609999999999
11
35.7256289999999979
21
-5.0541229999999997
0
LINE
8
BLACK
6
CONTINUOUS
10
37.3446759999999998
20
-6.0065039999999996
11
37.3446759999999998
21
-7.3398379999999994
0
LINE
8
BLACK
6
CONTINUOUS
10
36.8684849999999997
20
-5.2446000000000002
11
36.3922949999999972
21
-6.673171
0
LINE
8
BLACK
6
CONTINUOUS
10
36.3922949999999972
20
-6.673171
11
37.6303899999999985
21
-6.673171
0
LINE
8
BLACK
6
CONTINUOUS
10
39.4399140000000017
20
-7.3398379999999994
11
38.2970569999999952
21
-7.3398379999999994
0
LINE
8
BLACK
6
CONTINUOUS
10
38.8684849999999997
20
-7.3398379999999994
11
38.8684849999999997
21
-5.3398379999999994
0
LINE
8
BLACK
6
CONTINUOUS
10
38.8684849999999997
20
-5.3398379999999994
11
38.6780089999999959
21
-5.6255519999999999
0
LINE
8
BLACK
6
CONTINUOUS
10
38.6780089999999959
20
-5.6255519999999999
11
38.4875329999999991
21
-5.8160279999999993
0
LINE
8
BLACK
6
CONTINUOUS
10
38.4875329999999991
20
-5.8160279999999993
11
38.2970569999999952
21
-5.9112659999999995
0
LINE
8
BLACK
6
CONTINUOUS
10
41.8208669999999998
20
-7.3398379999999994
11
41.8208669999999998
21
-5.3398379999999994
0
LINE
8
BLACK
6
CONTINUOUS
10
42.6780100000000004
20
-7.3398379999999994
11
42.6780100000000004
21
-6.2922189999999993
0
LINE
8
BLACK
6
CONTINUOUS
10
42.6780100000000004
20
-6.2922189999999993
11
42.5827719999999985
21
-6.1017419999999998
0
LINE
8
BLACK
6
CONTINUOUS
10
42.5827719999999985
20
-6.1017419999999998
11
42.3922959999999946
21
-6.0065039999999996
0
LINE
8
BLACK
6
CONTINUOUS
10
42.3922959999999946
20
-6.0065039999999996
11
42.1065809999999985
21
-6.0065039999999996
0
LINE
8
BLACK
6
CONTINUOUS
10
42.1065809999999985
20
-6.0065039999999996
11
41.9161049999999946
21
-6.1017419999999998
0
LINE
8
BLACK
6
CONTINUOUS
10
41.9161049999999946
20
-6.1017419999999998
11
41.8208669999999998
21
-6.1969799999999999
0
LINE
8
BLACK
6
CONTINUOUS
10
43.9161049999999946
20
-7.3398379999999994
11
43.7256289999999979
21
-7.2445999999999993
0
LINE
8
BLACK
6
CONTINUOUS
10
43.7256289999999979
20
-7.2445999999999993
11
43.6303909999999959
21
-7.1493609999999999
0
LINE
8
BLACK
6
CONTINUOUS
10
43.6303909999999959
20
-7.1493609999999999
11
43.5351530000000011
21
-6.9588849999999995
0
LINE
8
BLACK
6
CONTINUOUS
10
43.5351530000000011
20
-6.9588849999999995
11
43.5351530000000011
21
-6.3874569999999995
0
LINE
8
BLACK
6
CONTINUOUS
10
43.5351530000000011
20
-6.3874569999999995
11
43.6303909999999959
21
-6.1969799999999999
0
LINE
8
BLACK
6
CONTINUOUS
10
43.6303909999999959
20
-6.1969799999999999
11
43.7256289999999979
21
-6.1017419999999998
0
LINE
8
BLACK
6
CONTINUOUS
10
43.7256289999999979
20
-6.1017419999999998
11
43.9161049999999946
21
-6.0065039999999996
0
LINE
8
BLACK
6
CONTINUOUS
10
43.9161049999999946
20
-6.0065039999999996
11
44.2018199999999979
21
-6.0065039999999996
0
LINE
8
BLACK
6
CONTINUOUS
10
44.2018199999999979
20
-6.0065039999999996
11
44.3922959999999946
21
-6.1017419999999998
0
LINE
8
BLACK
6
CONTINUOUS
10
44.3922959999999946
20
-6.1017419999999998
11
44.4875339999999966
21
-6.1969799999999999
0
LINE
8
BLACK
6
CONTINUOUS
10
44.4875339999999966
20
-6.1969799999999999
11
44.5827719999999985
21
-6.3874569999999995
0
LINE
8
BLACK
6
CONTINUOUS
10
44.5827719999999985
20
-6.3874569999999995
11
44.5827719999999985
21
-6.9588849999999995
0
LINE
8
BLACK
6
CONTINUOUS
10
44.5827719999999985
20
-6.9588849999999995
11
44.4875339999999966
21
-7.1493609999999999
0
LINE
8
BLACK
6
CONTINUOUS
10
44.4875339999999966
20
-7.1493609999999999
11
44.3922959999999946
21
-7.2445999999999993
0
LINE
8
BLACK
6
CONTINUOUS
10
44.3922959999999946
20
-7.2445999999999993
11
44.2018199999999979
21
-7.3398379999999994
0
LINE
8
BLACK
6
CONTINUOUS
10
44.2018199999999979
20
-7.3398379999999994
11
43.9161049999999946
21
-7.3398379999999994
0
LINE
8
BLACK
6
CONTINUOUS
10
45.7256289999999979
20
-7.3398379999999994
11
45.5351530000000011
21
-7.2445999999999993
0
LINE
8
BLACK
6
CONTINUOUS
10
45.5351530000000011
20
-7.2445999999999993
11
45.4399149999999992
21
-7.0541229999999997
0
LINE
8
BLACK
6
CONTINUOUS
10
45.4399149999999992
20
-7.0541229999999997
11
45.4399149999999992
21
-5.3398379999999994
0
LINE
8
BLACK
6
CONTINUOUS
10
47.2494389999999953
20
-7.2445999999999993
11
47.0589629999999985
21
-7.3398379999999994
0
LINE
8
BLACK
6
CONTINUOUS
10
47.0589629999999985
20
-7.3398379999999994
11
46.6780100000000004
21
-7.3398379999999994
0
LINE
8
BLACK
6
CONTINUOUS
10
46.6780100000000004
20
-7.3398379999999994
11
46.4875339999999966
21
-7.2445999999999993
0
LINE
8
BLACK
6
CONTINUOUS
10
46.4875339999999966
20
-7.2445999999999993
11
46.3922959999999946
21
-7.0541229999999997
0
LINE
8
BLACK
6
CONTINUOUS
10
46.3922959999999946
20
-7.0541229999999997
11
46.3922959999999946
21
-6.2922189999999993
0
LINE
8
BLACK
6
CONTINUOUS
10
46.3922959999999946
20
-6.2922189999999993
11
46.4875339999999966
21
-6.1017419999999998
0
LINE
8
BLACK
6
CONTINUOUS
10
46.4875339999999966
20
-6.1017419999999998
11
46.6780100000000004
21
-6.0065039999999996
0
LINE
8
BLACK
6
CONTINUOUS
10
46.6780100000000004
20
-6.0065039999999996
11
47.0589629999999985
21
-6.0065039999999996
0
LINE
8
BLACK
6
CONTINUOUS
10
47.0589629999999985
20
-6.0065039999999996
11
47.2494389999999953
21
-6.1017419999999998
0
LINE
8
BLACK
6
CONTINUOUS
10
47.2494389999999953
20
-6.1017419999999998
11
47.3446769999999972
21
-6.2922189999999993
0
LINE
8
BLACK
6
CONTINUOUS
10
47.3446769999999972
20
-6.2922189999999993
11
47.3446769999999972
21
-6.4826949999999997
0
LINE
8
BLACK
6
CONTINUOUS
10
47.3446769999999972
20
-6.4826949999999997
11
46.3922959999999946
21
-6.673171
0
LINE
8
BLACK
6
CONTINUOUS
10
48.106581999999996
20
-7.2445999999999993
11
48.2970579999999998
21
-7.3398379999999994
0
LINE
8
BLACK
6
CONTINUOUS
10
48.2970579999999998
20
-7.3398379999999994
11
48.6780100000000004
21
-7.3398379999999994
0
LINE
8
BLACK
6
CONTINUOUS
10
48.6780100000000004
20
-7.3398379999999994
11
48.8684869999999947
21
-7.2445999999999993
0
LINE
8
BLACK
6
CONTINUOUS
10
48.8684869999999947
20
-7.2445999999999993
11
48.9637249999999966
21
-7.0541229999999997
0
LINE
8
BLACK
6
CONTINUOUS
10
48.9637249999999966
20
-7.0541229999999997
11
48.9637249999999966
21
-6.9588849999999995
0
LINE
8
BLACK
6
CONTINUOUS
10
48.9637249999999966
20
-6.9588849999999995
11
48.8684869999999947
21
-6.7684090000000001
0
LINE
8
BLACK
6
CONTINUOUS
10
48.8684869999999947
20
-6.7684090000000001
11
48.6780100000000004
21
-6.673171
0
LINE
8
BLACK
6
CONTINUOUS
10
48.6780100000000004
20
-6.673171
11
48.3922959999999946
21
-6.673171
0
LINE
8
BLACK
6
CONTINUOUS
10
48.3922959999999946
20
-6.673171
11
48.2018199999999979
21
-6.5779329999999998
0
LINE
8
BLACK
6
CONTINUOUS
10
48.2018199999999979
20
-6.5779329999999998
11
48.106581999999996
21
-6.3874569999999995
0
LINE
8
BLACK
6
CONTINUOUS
10
48.106581999999996
20
-6.3874569999999995
11
48.106581999999996
21
-6.2922189999999993
0
LINE
8
BLACK
6
CONTINUOUS
10
48.106581999999996
20
-6.2922189999999993
11
48.2018199999999979
21
-6.1017419999999998
0
LINE
8
BLACK
6
CONTINUOUS
10
48.2018199999999979
20
-6.1017419999999998
11
48.3922959999999946
21
-6.0065039999999996
0
LINE
8
BLACK
6
CONTINUOUS
10
48.3922959999999946
20
-6.0065039999999996
11
48.6780100000000004
21
-6.0065039999999996
0
LINE
8
BLACK
6
CONTINUOUS
10
48.6780100000000004
20
-6.0065039999999996
11
48.8684869999999947
21
-6.1017419999999998
0
LINE
8
BLACK
6
CONTINUOUS
10
49.6303920000000005
20
-8.1017419999999998
11
49.7256299999999953
21
-8.0065039999999996
0
LINE
8
BLACK
6
CONTINUOUS
10
49.7256299999999953
20
-8.0065039999999996
11
49.9161059999999992
21
-7.72079
0
LINE
8
BLACK
6
CONTINUOUS
10
49.9161059999999992
20
-7.72079
11
50.0113440000000011
21
-7.5303139999999997
0
LINE
8
BLACK
6
CONTINUOUS
10
50.0113440000000011
20
-7.5303139999999997
11
50.106581999999996
21
-7.2445999999999993
0
LINE
8
BLACK
6
CONTINUOUS
10
50.106581999999996
20
-7.2445999999999993
11
50.2018199999999979
21
-6.7684090000000001
0
LINE
8
BLACK
6
CONTINUOUS
10
50.2018199999999979
20
-6.7684090000000001
11
50.2018199999999979
21
-6.3874569999999995
0
LINE
8
BLACK
6
CONTINUOUS
10
50.2018199999999979
20
-6.3874569999999995
11
50.106581999999996
21
-5.9112659999999995
0
LINE
8
BLACK
6
CONTINUOUS
10
50.106581999999996
20
-5.9112659999999995
11
50.0113440000000011
21
-5.6255519999999999
0
LINE
8
BLACK
6
CONTINUOUS
10
50.0113440000000011
20
-5.6255519999999999
11
49.9161059999999992
21
-5.4350759999999996
0
LINE
8
BLACK
6
CONTINUOUS
10
49.9161059999999992
20
-5.4350759999999996
11
49.7256299999999953
21
-5.1493609999999999
0
LINE
8
BLACK
6
CONTINUOUS
10
49.7256299999999953
20
-5.1493609999999999
11
49.6303920000000005
21
-5.0541229999999997
0
CIRCLE
8
BLACK
10
-0.525
20
-9.0649999999999995
40
0.5
0
LINE
8
BLACK
6
CONTINUOUS
10
3.6303869999999998
20
-9.9798379999999991
11
2.48753
21
-9.9798379999999991
0
LINE
8
BLACK
6
CONTINUOUS
10
3.0589580000000001
20
-9.9798379999999991
11
3.0589580000000001
21
-7.979838
0
LINE
8
BLACK
6
CONTINUOUS
10
3.0589580000000001
20
-7.979838
11
2.8684819999999998
21
-8.2655519999999996
0
LINE
8
BLACK
6
CONTINUOUS
10
2.8684819999999998
20
-8.2655519999999996
11
2.6780059999999999
21
-8.4560279999999999
0
LINE
8
BLACK
6
CONTINUOUS
10
2.6780059999999999
20
-8.4560279999999999
11
2.48753
21
-8.551266
0
LINE
8
BLACK
6
CONTINUOUS
10
4.4875299999999996
20
-9.7893609999999995
11
4.5827679999999997
21
-9.8845999999999989
0
LINE
8
BLACK
6
CONTINUOUS
10
4.5827679999999997
20
-9.8845999999999989
11
4.4875299999999996
21
-9.9798379999999991
0
LINE
8
BLACK
6
CONTINUOUS
10
4.4875299999999996
20
-9.9798379999999991
11
4.3922919999999994
21
-9.8845999999999989
0
LINE
8
BLACK
6
CONTINUOUS
10
4.3922919999999994
20
-9.8845999999999989
11
4.4875299999999996
21
-9.7893609999999995
0
LINE
8
BLACK
6
CONTINUOUS
10
4.4875299999999996
20
-9.7893609999999995
11
4.4875299999999996
21
-9.9798379999999991
0
LINE
8
BLACK
6
CONTINUOUS
10
5.8208630000000001
20
-7.979838
11
6.0113399999999997
21
-7.979838
0
LINE
8
BLACK
6
CONTINUOUS
10
6.0113399999999997
20
-7.979838
11
6.201816
21
-8.0750759999999993
0
LINE
8
BLACK
6
CONTINUOUS
10
6.201816
20
-8.0750759999999993
11
6.2970540000000002
21
-8.1703139999999994
0
LINE
8
BLACK
6
CONTINUOUS
10
6.2970540000000002
20
-8.1703139999999994
11
6.3922919999999994
21
-8.3607899999999997
0
LINE
8
BLACK
6
CONTINUOUS
10
6.3922919999999994
20
-8.3607899999999997
11
6.4875299999999996
21
-8.7417420000000003
0
LINE
8
BLACK
6
CONTINUOUS
10
6.4875299999999996
20
-8.7417420000000003
11
6.4875299999999996
21
-9.2179330000000004
0
LINE
8
BLACK
6
CONTINUOUS
10
6.4875299999999996
20
-9.2179330000000004
11
6.3922919999999994
21
-9.5988849999999992
0
LINE
8
BLACK
6
CONTINUOUS
10
6.3922919999999994
20
-9.5988849999999992
11
6.2970540000000002
21
-9.7893609999999995
0
LINE
8
BLACK
6
CONTINUOUS
10
6.2970540000000002
20
-9.7893609999999995
11
6.201816
21
-9.8845999999999989
0
LINE
8
BLACK
6
CONTINUOUS
10
6.201816
20
-9.8845999999999989
11
6.0113399999999997
21
-9.9798379999999991
0
LINE
8
BLACK
6
CONTINUOUS
10
6.0113399999999997
20
-9.9798379999999991
11
5.8208630000000001
21
-9.9798379999999991
0
LINE
8
BLACK
6
CONTINUOUS
10
5.8208630000000001
20
-9.9798379999999991
11
5.6303869999999998
21
-9.8845999999999989
0
LINE
8
BLACK
6
CONTINUOUS
10
5.6303869999999998
20
-9.8845999999999989
11
5.5351489999999997
21
-9.7893609999999995
0
LINE
8
BLACK
6
CONTINUOUS
10
5.5351489999999997
20
-9.7893609999999995
11
5.4399109999999995
21
-9.5988849999999992
0
LINE
8
BLACK
6
CONTINUOUS
10
5.4399109999999995
20
-9.5988849999999992
11
5.3446729999999993
21
-9.2179330000000004
0
LINE
8
BLACK
6
CONTINUOUS
10
5.3446729999999993
20
-9.2179330000000004
11
5.3446729999999993
21
-8.7417420000000003
0
LINE
8
BLACK
6
CONTINUOUS
10
5.3446729999999993
20
-8.7417420000000003
11
5.4399109999999995
21
-8.3607899999999997
0
LINE
8
BLACK
6
CONTINUOUS
10
5.4399109999999995
20
-8.3607899999999997
11
5.5351489999999997
21
-8.1703139999999994
0
LINE
8
BLACK
6
CONTINUOUS
10
5.5351489999999997
20
-8.1703139999999994
11
5.6303869999999998
21
-8.0750759999999993
0
LINE
8
BLACK
6
CONTINUOUS
10
5.6303869999999998
20
-8.0750759999999993
11
5.8208630000000001
21
-7.979838
0
LINE
8
BLACK
6
CONTINUOUS
10
7.725625
20
-7.979838
11
7.9161019999999995
21
-7.979838
0
LINE
8
BLACK
6
CONTINUOUS
10
7.9161019999999995
20
-7.979838
11
8.106577999999999
21
-8.0750759999999993
0
LINE
8
BLACK
6
CONTINUOUS
10
8.106577999999999
20
-8.0750759999999993
11
8.2018159999999991
21
-8.1703139999999994
0
LINE
8
BLACK
6
CONTINUOUS
10
8.2018159999999991
20
-8.1703139999999994
11
8.2970539999999993
21
-8.3607899999999997
0
LINE
8
BLACK
6
CONTINUOUS
10
8.2970539999999993
20
-8.3607899999999997
11
8.3922919999999994
21
-8.7417420000000003
0
LINE
8
BLACK
6
CONTINUOUS
10
8.3922919999999994
20
-8.7417420000000003
11
8.3922919999999994
21
-9.2179330000000004
0
LINE
8
BLACK
6
CONTINUOUS
10
8.3922919999999994
20
-9.2179330000000004
11
8.2970539999999993
21
-9.5988849999999992
0
LINE
8
BLACK
6
CONTINUOUS
10
8.2970539999999993
20
-9.5988849999999992
11
8.2018159999999991
21
-9.7893609999999995
0
LINE
8
BLACK
6
CONTINUOUS
10
8.2018159999999991
20
-9.7893609999999995
11
8.106577999999999
21
-9.8845999999999989
0
LINE
8
BLACK
6
CONTINUOUS
10
8.106577999999999
20
-9.8845999999999989
11
7.9161019999999995
21
-9.9798379999999991
0
LINE
8
BLACK
6
CONTINUOUS
10
7.9161019999999995
20
-9.9798379999999991
11
7.725625
21
-9.9798379999999991
0
LINE
8
BLACK
6
CONTINUOUS
10
7.725625
20
-9.9798379999999991
11
7.5351489999999997
21
-9.8845999999999989
0
LINE
8
BLACK
6
CONTINUOUS
10
7.5351489999999997
20
-9.8845999999999989
11
7.4399109999999995
21
-9.7893609999999995
0
LINE
8
BLACK
6
CONTINUOUS
10
7.4399109999999995
20
-9.7893609999999995
11
7.3446729999999993
21
-9.5988849999999992
0
LINE
8
BLACK
6
CONTINUOUS
10
7.3446729999999993
20
-9.5988849999999992
11
7.2494350000000001
21
-9.2179330000000004
0
LINE
8
BLACK
6
CONTINUOUS
10
7.2494350000000001
20
-9.2179330000000004
11
7.2494350000000001
21
-8.7417420000000003
0
LINE
8
BLACK
6
CONTINUOUS
10
7.2494350000000001
20
-8.7417420000000003
11
7.3446729999999993
21
-8.3607899999999997
0
LINE
8
BLACK
6
CONTINUOUS
10
7.3446729999999993
20
-8.3607899999999997
11
7.4399109999999995
21
-8.1703139999999994
0
LINE
8
BLACK
6
CONTINUOUS
10
7.4399109999999995
20
-8.1703139999999994
11
7.5351489999999997
21
-8.0750759999999993
0
LINE
8
BLACK
6
CONTINUOUS
10
7.5351489999999997
20
-8.0750759999999993
11
7.725625
21
-7.979838
0
LINE
8
BLACK
6
CONTINUOUS
10
9.6303869999999989
20
-7.979838
11
9.8208640000000003
21
-7.979838
0
LINE
8
BLACK
6
CONTINUOUS
10
9.8208640000000003
20
-7.979838
11
10.0113399999999988
21
-8.0750759999999993
0
LINE
8
BLACK
6
CONTINUOUS
10
10.0113399999999988
20
-8.0750759999999993
11
10.106577999999999
21
-8.1703139999999994
0
LINE
8
BLACK
6
CONTINUOUS
10
10.106577999999999
20
-8.1703139999999994
11
10.2018159999999991
21
-8.3607899999999997
0
LINE
8
BLACK
6
CONTINUOUS
10
10.2018159999999991
20
-8.3607899999999997
11
10.2970539999999993
21
-8.7417420000000003
0
LINE
8
BLACK
6
CONTINUOUS
10
10.2970539999999993
20
-8.7417420000000003
11
10.2970539999999993
21
-9.2179330000000004
0
LINE
8
BLACK
6
CONTINUOUS
10
10.2970539999999993
20
-9.2179330000000004
11
10.2018159999999991
21
-9.5988849999999992
0
LINE
8
BLACK
6
CONTINUOUS
10
10.2018159999999991
20
-9.5988849999999992
11
10.106577999999999
21
-9.7893609999999995
0
LINE
8
BLACK
6
CONTINUOUS
10
10.106577999999999
20
-9.7893609999999995
11
10.0113399999999988
21
-9.8845999999999989
0
LINE
8
BLACK
6
CONTINUOUS
10
10.0113399999999988
20
-9.8845999999999989
11
9.8208640000000003
21
-9.9798379999999991
0
LINE
8
BLACK
6
CONTINUOUS
10
9.8208640000000003
20
-9.9798379999999991
11
9.6303869999999989
21
-9.9798379999999991
0
LINE
8
BLACK
6
CONTINUOUS
10
9.6303869999999989
20
-9.9798379999999991
11
9.4399110000000004
21
-9.8845999999999989
0
LINE
8
BLACK
6
CONTINUOUS
10
9.4399110000000004
20
-9.8845999999999989
11
9.3446730000000002
21
-9.7893609999999995
0
LINE
8
BLACK
6
CONTINUOUS
10
9.3446730000000002
20
-9.7893609999999995
11
9.2494350000000001
21
-9.5988849999999992
0
LINE
8
BLACK
6
CONTINUOUS
10
9.2494350000000001
20
-9.5988849999999992
11
9.1541969999999999
21
-9.2179330000000004
0
LINE
8
BLACK
6
CONTINUOUS
10
9.1541969999999999
20
-9.2179330000000004
11
9.1541969999999999
21
-8.7417420000000003
0
LINE
8
BLACK
6
CONTINUOUS
10
9.1541969999999999
20
-8.7417420000000003
11
9.2494350000000001
21
-8.3607899999999997
0
LINE
8
BLACK
6
CONTINUOUS
10
9.2494350000000001
20
-8.3607899999999997
11
9.3446730000000002
21
-8.1703139999999994
0
LINE
8
BLACK
6
CONTINUOUS
10
9.3446730000000002
20
-8.1703139999999994
11
9.4399110000000004
21
-8.0750759999999993
0
LINE
8
BLACK
6
CONTINUOUS
10
9.4399110000000004
20
-8.0750759999999993
11
9.6303869999999989
21
-7.979838
0
LINE
8
BLACK
6
CONTINUOUS
10
11.1541969999999999
20
-9.9798379999999991
11
11.1541969999999999
21
-8.6465040000000002
0
LINE
8
BLACK
6
CONTINUOUS
10
11.1541969999999999
20
-8.8369799999999987
11
11.2494350000000001
21
-8.7417420000000003
0
LINE
8
BLACK
6
CONTINUOUS
10
11.2494350000000001
20
-8.7417420000000003
11
11.4399109999999986
21
-8.6465040000000002
0
LINE
8
BLACK
6
CONTINUOUS
10
11.4399109999999986
20
-8.6465040000000002
11
11.7256260000000001
21
-8.6465040000000002
0
LINE
8
BLACK
6
CONTINUOUS
10
11.7256260000000001
20
-8.6465040000000002
11
11.9161019999999986
21
-8.7417420000000003
0
LINE
8
BLACK
6
CONTINUOUS
10
11.9161019999999986
20
-8.7417420000000003
11
12.0113399999999988
21
-8.9322189999999999
0
LINE
8
BLACK
6
CONTINUOUS
10
12.0113399999999988
20
-8.9322189999999999
11
12.0113399999999988
21
-9.9798379999999991
0
LINE
8
BLACK
6
CONTINUOUS
10
12.0113399999999988
20
-8.9322189999999999
11
12.106577999999999
21
-8.7417420000000003
0
LINE
8
BLACK
6
CONTINUOUS
10
12.106577999999999
20
-8.7417420000000003
11
12.2970539999999993
21
-8.6465040000000002
0
LINE
8
BLACK
6
CONTINUOUS
10
12.2970539999999993
20
-8.6465040000000002
11
12.5827679999999997
21
-8.6465040000000002
0
LINE
8
BLACK
6
CONTINUOUS
10
12.5827679999999997
20
-8.6465040000000002
11
12.7732449999999993
21
-8.7417420000000003
0
LINE
8
BLACK
6
CONTINUOUS
10
12.7732449999999993
20
-8.7417420000000003
11
12.8684829999999994
21
-8.9322189999999999
0
LINE
8
BLACK
6
CONTINUOUS
10
12.8684829999999994
20
-8.9322189999999999
11
12.8684829999999994
21
-9.9798379999999991
0
LINE
8
BLACK
6
CONTINUOUS
10
13.8208640000000003
20
-9.9798379999999991
11
13.8208640000000003
21
-8.6465040000000002
0
LINE
8
BLACK
6
CONTINUOUS
10
13.8208640000000003
20
-8.8369799999999987
11
13.9161019999999986
21
-8.7417420000000003
0
LINE
8
BLACK
6
CONTINUOUS
10
13.9161019999999986
20
-8.7417420000000003
11
14.106577999999999
21
-8.6465040000000002
0
LINE
8
BLACK
6
CONTINUOUS
10
14.106577999999999
20
-8.6465040000000002
11
14.3922929999999987
21
-8.6465040000000002
0
LINE
8
BLACK
6
CONTINUOUS
10
14.3922929999999987
20
-8.6465040000000002
11
14.582768999999999
21
-8.7417420000000003
0
LINE
8
BLACK
6
CONTINUOUS
10
14.582768999999999
20
-8.7417420000000003
11
14.6780069999999991
21
-8.9322189999999999
0
LINE
8
BLACK
6
CONTINUOUS
10
14.6780069999999991
20
-8.9322189999999999
11
14.6780069999999991
21
-9.9798379999999991
0
LINE
8
BLACK
6
CONTINUOUS
10
14.6780069999999991
20
-8.9322189999999999
11
14.7732449999999993
21
-8.7417420000000003
0
LINE
8
BLACK
6
CONTINUOUS
10
14.7732449999999993
20
-8.7417420000000003
11
14.9637209999999996
21
-8.6465040000000002
0
LINE
8
BLACK
6
CONTINUOUS
10
14.9637209999999996
20
-8.6465040000000002
11
15.2494350000000001
21
-8.6465040000000002
0
LINE
8
BLACK
6
CONTINUOUS
10
15.2494350000000001
20
-8.6465040000000002
11
15.4399119999999996
21
-8.7417420000000003
0
LINE
8
BLACK
6
CONTINUOUS
10
15.4399119999999996
20
-8.7417420000000003
11
15.5351499999999998
21
-8.9322189999999999
0
LINE
8
BLACK
6
CONTINUOUS
10
15.5351499999999998
20
-8.9322189999999999
11
15.5351499999999998
21
-9.9798379999999991
0
LINE
8
BLACK
6
CONTINUOUS
10
19.4399119999999996
20
-7.8845999999999998
11
17.7256269999999994
21
-10.4560279999999999
0
LINE
8
BLACK
6
CONTINUOUS
10
22.011340999999998
20
-7.979838
11
22.2018179999999994
21
-7.979838
0
LINE
8
BLACK
6
CONTINUOUS
10
22.2018179999999994
20
-7.979838
11
22.3922939999999997
21
-8.0750759999999993
0
LINE
8
BLACK
6
CONTINUOUS
10
22.3922939999999997
20
-8.0750759999999993
11
22.4875319999999981
21
-8.1703139999999994
0
LINE
8
BLACK
6
CONTINUOUS
10
22.4875319999999981
20
-8.1703139999999994
11
22.58277
21
-8.3607899999999997
0
LINE
8
BLACK
6
CONTINUOUS
10
22.58277
20
-8.3607899999999997
11
22.6780079999999984
21
-8.7417420000000003
0
LINE
8
BLACK
6
CONTINUOUS
10
22.6780079999999984
20
-8.7417420000000003
11
22.6780079999999984
21
-9.2179330000000004
0
LINE
8
BLACK
6
CONTINUOUS
10
22.6780079999999984
20
-9.2179330000000004
11
22.58277
21
-9.5988849999999992
0
LINE
8
BLACK
6
CONTINUOUS
10
22.58277
20
-9.5988849999999992
11
22.4875319999999981
21
-9.7893609999999995
0
LINE
8
BLACK
6
CONTINUOUS
10
22.4875319999999981
20
-9.7893609999999995
11
22.3922939999999997
21
-9.8845999999999989
0
LINE
8
BLACK
6
CONTINUOUS
10
22.3922939999999997
20
-9.8845999999999989
11
22.2018179999999994
21
-9.9798379999999991
0
LINE
8
BLACK
6
CONTINUOUS
10
22.2018179999999994
20
-9.9798379999999991
11
22.011340999999998
21
-9.9798379999999991
0
LINE
8
BLACK
6
CONTINUOUS
10
22.011340999999998
20
-9.9798379999999991
11
21.8208649999999977
21
-9.8845999999999989
0
LINE
8
BLACK
6
CONTINUOUS
10
21.8208649999999977
20
-9.8845999999999989
11
21.7256269999999994
21
-9.7893609999999995
0
LINE
8
BLACK
6
CONTINUOUS
10
21.7256269999999994
20
-9.7893609999999995
11
21.6303889999999974
21
-9.5988849999999992
0
LINE
8
BLACK
6
CONTINUOUS
10
21.6303889999999974
20
-9.5988849999999992
11
21.535150999999999
21
-9.2179330000000004
0
LINE
8
BLACK
6
CONTINUOUS
10
21.535150999999999
20
-9.2179330000000004
11
21.535150999999999
21
-8.7417420000000003
0
LINE
8
BLACK
6
CONTINUOUS
10
21.535150999999999
20
-8.7417420000000003
11
21.6303889999999974
21
-8.3607899999999997
0
LINE
8
BLACK
6
CONTINUOUS
10
21.6303889999999974
20
-8.3607899999999997
11
21.7256269999999994
21
-8.1703139999999994
0
LINE
8
BLACK
6
CONTINUOUS
10
21.7256269999999994
20
-8.1703139999999994
11
21.8208649999999977
21
-8.0750759999999993
0
LINE
8
BLACK
6
CONTINUOUS
10
21.8208649999999977
20
-8.0750759999999993
11
22.011340999999998
21
-7.979838
0
LINE
8
BLACK
6
CONTINUOUS
10
23.535150999999999
20
-9.7893609999999995
11
23.6303889999999974
21
-9.8845999999999989
0
LINE
8
BLACK
6
CONTINUOUS
10
23.6303889999999974
20
-9.8845999999999989
11
23.535150999999999
21
-9.9798379999999991
0
LINE
8
BLACK
6
CONTINUOUS
10
23.535150999999999
20
-9.9798379999999991
11
23.4399130000000007
21
-9.8845999999999989
0
LINE
8
BLACK
6
CONTINUOUS
10
23.4399130000000007
20
-9.8845999999999989
11
23.535150999999999
21
-9.7893609999999995
0
LINE
8
BLACK
6
CONTINUOUS
10
23.535150999999999
20
-9.7893609999999995
11
23.535150999999999
21
-9.9798379999999991
0
LINE
8
BLACK
6
CONTINUOUS
10
24.8684839999999987
20
-7.979838
11
25.058961
21
-7.979838
0
LINE
8
BLACK
6
CONTINUOUS
10
25.058961
20
-7.979838
11
25.2494370000000004
21
-8.0750759999999993
0
LINE
8
BLACK
6
CONTINUOUS
10
25.2494370000000004
20
-8.0750759999999993
11
25.3446749999999987
21
-8.1703139999999994
0
LINE
8
BLACK
6
CONTINUOUS
10
25.3446749999999987
20
-8.1703139999999994
11
25.4399129999999971
21
-8.3607899999999997
0
LINE
8
BLACK
6
CONTINUOUS
10
25.4399129999999971
20
-8.3607899999999997
11
25.535150999999999
21
-8.7417420000000003
0
LINE
8
BLACK
6
CONTINUOUS
10
25.535150999999999
20
-8.7417420000000003
11
25.535150999999999
21
-9.2179330000000004
0
LINE
8
BLACK
6
CONTINUOUS
10
25.535150999999999
20
-9.2179330000000004
11
25.4399129999999971
21
-9.5988849999999992
0
LINE
8
BLACK
6
CONTINUOUS
10
25.4399129999999971
20
-9.5988849999999992
11
25.3446749999999987
21
-9.7893609999999995
0
LINE
8
BLACK
6
CONTINUOUS
10
25.3446749999999987
20
-9.7893609999999995
11
25.2494370000000004
21
-9.8845999999999989
0
LINE
8
BLACK
6
CONTINUOUS
10
25.2494370000000004
20
-9.8845999999999989
11
25.058961
21
-9.9798379999999991
0
LINE
8
BLACK
6
CONTINUOUS
10
25.058961
20
-9.9798379999999991
11
24.8684839999999987
21
-9.9798379999999991
0
LINE
8
BLACK
6
CONTINUOUS
10
24.8684839999999987
20
-9.9798379999999991
11
24.6780079999999984
21
-9.8845999999999989
0
LINE
8
BLACK
6
CONTINUOUS
10
24.6780079999999984
20
-9.8845999999999989
11
24.58277
21
-9.7893609999999995
0
LINE
8
BLACK
6
CONTINUOUS
10
24.58277
20
-9.7893609999999995
11
24.4875319999999981
21
-9.5988849999999992
0
LINE
8
BLACK
6
CONTINUOUS
10
24.4875319999999981
20
-9.5988849999999992
11
24.3922939999999997
21
-9.2179330000000004
0
LINE
8
BLACK
6
CONTINUOUS
10
24.3922939999999997
20
-9.2179330000000004
11
24.3922939999999997
21
-8.7417420000000003
0
LINE
8
BLACK
6
CONTINUOUS
10
24.3922939999999997
20
-8.7417420000000003
11
24.4875319999999981
21
-8.3607899999999997
0
LINE
8
BLACK
6
CONTINUOUS
10
24.4875319999999981
20
-8.3607899999999997
11
24.58277
21
-8.1703139999999994
0
LINE
8
BLACK
6
CONTINUOUS
10
24.58277
20
-8.1703139999999994
11
24.6780079999999984
21
-8.0750759999999993
0
LINE
8
BLACK
6
CONTINUOUS
10
24.6780079999999984
20
-8.0750759999999993
11
24.8684839999999987
21
-7.979838
0
LINE
8
BLACK
6
CONTINUOUS
10
26.2018179999999994
20
-7.979838
11
27.4399129999999971
21
-7.979838
0
LINE
8
BLACK
6
CONTINUOUS
10
27.4399129999999971
20
-7.979838
11
26.7732460000000003
21
-8.7417420000000003
0
LINE
8
BLACK
6
CONTINUOUS
10
26.7732460000000003
20
-8.7417420000000003
11
27.058961
21
-8.7417420000000003
0
LINE
8
BLACK
6
CONTINUOUS
10
27.058961
20
-8.7417420000000003
11
27.2494370000000004
21
-8.8369799999999987
0
LINE
8
BLACK
6
CONTINUOUS
10
27.2494370000000004
20
-8.8369799999999987
11
27.3446749999999987
21
-8.9322189999999999
0
LINE
8
BLACK
6
CONTINUOUS
10
27.3446749999999987
20
-8.9322189999999999
11
27.4399129999999971
21
-9.1226950000000002
0
LINE
8
BLACK
6
CONTINUOUS
10
27.4399129999999971
20
-9.1226950000000002
11
27.4399129999999971
21
-9.5988849999999992
0
LINE
8
BLACK
6
CONTINUOUS
10
27.4399129999999971
20
-9.5988849999999992
11
27.3446749999999987
21
-9.7893609999999995
0
LINE
8
BLACK
6
CONTINUOUS
10
27.3446749999999987
20
-9.7893609999999995
11
27.2494370000000004
21
-9.8845999999999989
0
LINE
8
BLACK
6
CONTINUOUS
10
27.2494370000000004
20
-9.8845999999999989
11
27.058961
21
-9.9798379999999991
0
LINE
8
BLACK
6
CONTINUOUS
10
27.058961
20
-9.9798379999999991
11
26.4875319999999981
21
-9.9798379999999991
0
LINE
8
BLACK
6
CONTINUOUS
10
26.4875319999999981
20
-9.9798379999999991
11
26.2970559999999978
21
-9.8845999999999989
0
LINE
8
BLACK
6
CONTINUOUS
10
26.2970559999999978
20
-9.8845999999999989
11
26.2018179999999994
21
-9.7893609999999995
0
LINE
8
BLACK
6
CONTINUOUS
10
28.3922939999999997
20
-9.9798379999999991
11
28.7732460000000003
21
-9.9798379999999991
0
LINE
8
BLACK
6
CONTINUOUS
10
28.7732460000000003
20
-9.9798379999999991
11
28.9637229999999981
21
-9.8845999999999989
0
LINE
8
BLACK
6
CONTINUOUS
10
28.9637229999999981
20
-9.8845999999999989
11
29.058961
21
-9.7893609999999995
0
LINE
8
BLACK
6
CONTINUOUS
10
29.058961
20
-9.7893609999999995
11
29.2494370000000004
21
-9.5036469999999991
0
LINE
8
BLACK
6
CONTINUOUS
10
29.2494370000000004
20
-9.5036469999999991
11
29.3446749999999987
21
-9.1226950000000002
0
LINE
8
BLACK
6
CONTINUOUS
10
29.3446749999999987
20
-9.1226950000000002
11
29.3446749999999987
21
-8.3607899999999997
0
LINE
8
BLACK
6
CONTINUOUS
10
29.3446749999999987
20
-8.3607899999999997
11
29.2494370000000004
21
-8.1703139999999994
0
LINE
8
BLACK
6
CONTINUOUS
10
29.2494370000000004
20
-8.1703139999999994
11
29.1541989999999984
21
-8.0750759999999993
0
LINE
8
BLACK
6
CONTINUOUS
10
29.1541989999999984
20
-8.0750759999999993
11
28.9637229999999981
21
-7.979838
0
LINE
8
BLACK
6
CONTINUOUS
10
28.9637229999999981
20
-7.979838
11
28.58277
21
-7.979838
0
LINE
8
BLACK
6
CONTINUOUS
10
28.58277
20
-7.979838
11
28.3922939999999997
21
-8.0750759999999993
0
LINE
8
BLACK
6
CONTINUOUS
10
28.3922939999999997
20
-8.0750759999999993
11
28.2970559999999978
21
-8.1703139999999994
0
LINE
8
BLACK
6
CONTINUOUS
10
28.2970559999999978
20
-8.1703139999999994
11
28.2018179999999994
21
-8.3607899999999997
0
LINE
8
BLACK
6
CONTINUOUS
10
28.2018179999999994
20
-8.3607899999999997
11
28.2018179999999994
21
-8.8369799999999987
0
LINE
8
BLACK
6
CONTINUOUS
10
28.2018179999999994
20
-8.8369799999999987
11
28.2970559999999978
21
-9.0274570000000001
0
LINE
8
BLACK
6
CONTINUOUS
10
28.2970559999999978
20
-9.0274570000000001
11
28.3922939999999997
21
-9.1226950000000002
0
LINE
8
BLACK
6
CONTINUOUS
10
28.3922939999999997
20
-9.1226950000000002
11
28.58277
21
-9.2179330000000004
0
LINE
8
BLACK
6
CONTINUOUS
10
28.58277
20
-9.2179330000000004
11
28.9637229999999981
21
-9.2179330000000004
0
LINE
8
BLACK
6
CONTINUOUS
10
28.9637229999999981
20
-9.2179330000000004
11
29.1541989999999984
21
-9.1226950000000002
0
LINE
8
BLACK
6
CONTINUOUS
10
29.1541989999999984
20
-9.1226950000000002
11
29.2494370000000004
21
-9.0274570000000001
0
LINE
8
BLACK
6
CONTINUOUS
10
29.2494370000000004
20
-9.0274570000000001
11
29.3446749999999987
21
-8.8369799999999987
0
LINE
8
BLACK
6
CONTINUOUS
10
31.058961
20
-8.6465040000000002
11
31.058961
21
-9.9798379999999991
0
LINE
8
BLACK
6
CONTINUOUS
10
30.58277
20
-7.8845999999999998
11
30.1065799999999975
21
-9.3131709999999988
0
LINE
8
BLACK
6
CONTINUOUS
10
30.1065799999999975
20
-9.3131709999999988
11
31.3446749999999987
21
-9.3131709999999988
0
LINE
8
BLACK
6
CONTINUOUS
10
32.0113419999999991
20
-7.979838
11
32.0113419999999991
21
-8.3607899999999997
0
LINE
8
BLACK
6
CONTINUOUS
10
32.7732469999999978
20
-7.979838
11
32.7732469999999978
21
-8.3607899999999997
0
LINE
8
BLACK
6
CONTINUOUS
10
35.7256289999999979
20
-10.7417420000000003
11
35.6303899999999985
21
-10.6465040000000002
0
LINE
8
BLACK
6
CONTINUOUS
10
35.6303899999999985
20
-10.6465040000000002
11
35.4399140000000017
21
-10.3607899999999997
0
LINE
8
BLACK
6
CONTINUOUS
10
35.4399140000000017
20
-10.3607899999999997
11
35.3446759999999998
21
-10.1703139999999994
0
LINE
8
BLACK
6
CONTINUOUS
10
35.3446759999999998
20
-10.1703139999999994
11
35.2494379999999978
21
-9.8845999999999989
0
LINE
8
BLACK
6
CONTINUOUS
10
35.2494379999999978
20
-9.8845999999999989
11
35.1541999999999959
21
-9.4084089999999989
0
LINE
8
BLACK
6
CONTINUOUS
10
35.1541999999999959
20
-9.4084089999999989
11
35.1541999999999959
21
-9.0274570000000001
0
LINE
8
BLACK
6
CONTINUOUS
10
35.1541999999999959
20
-9.0274570000000001
11
35.2494379999999978
21
-8.551266
0
LINE
8
BLACK
6
CONTINUOUS
10
35.2494379999999978
20
-8.551266
11
35.3446759999999998
21
-8.2655519999999996
0
LINE
8
BLACK
6
CONTINUOUS
10
35.3446759999999998
20
-8.2655519999999996
11
35.4399140000000017
21
-8.0750759999999993
0
LINE
8
BLACK
6
CONTINUOUS
10
35.4399140000000017
20
-8.0750759999999993
11
35.6303899999999985
21
-7.7893609999999995
0
LINE
8
BLACK
6
CONTINUOUS
10
35.6303899999999985
20
-7.7893609999999995
11
35.7256289999999979
21
-7.6941229999999994
0
LINE
8
BLACK
6
CONTINUOUS
10
36.3922949999999972
20
-8.1703139999999994
11
36.4875329999999991
21
-8.0750759999999993
0
LINE
8
BLACK
6
CONTINUOUS
10
36.4875329999999991
20
-8.0750759999999993
11
36.6780089999999959
21
-7.979838
0
LINE
8
BLACK
6
CONTINUOUS
10
36.6780089999999959
20
-7.979838
11
37.1541999999999959
21
-7.979838
0
LINE
8
BLACK
6
CONTINUOUS
10
37.1541999999999959
20
-7.979838
11
37.3446759999999998
21
-8.0750759999999993
0
LINE
8
BLACK
6
CONTINUOUS
10
37.3446759999999998
20
-8.0750759999999993
11
37.4399140000000017
21
-8.1703139999999994
0
LINE
8
BLACK
6
CONTINUOUS
10
37.4399140000000017
20
-8.1703139999999994
11
37.5351519999999965
21
-8.3607899999999997
0
LINE
8
BLACK
6
CONTINUOUS
10
37.5351519999999965
20
-8.3607899999999997
11
37.5351519999999965
21
-8.551266
0
LINE
8
BLACK
6
CONTINUOUS
10
37.5351519999999965
20
-8.551266
11
37.4399140000000017
21
-8.8369799999999987
0
LINE
8
BLACK
6
CONTINUOUS
10
37.4399140000000017
20
-8.8369799999999987
11
36.2970569999999952
21
-9.9798379999999991
0
LINE
8
BLACK
6
CONTINUOUS
10
36.2970569999999952
20
-9.9798379999999991
11
37.5351519999999965
21
-9.9798379999999991
0
LINE
8
BLACK
6
CONTINUOUS
10
39.9161050000000017
20
-9.9798379999999991
11
39.9161050000000017
21
-7.979838
0
LINE
8
BLACK
6
CONTINUOUS
10
40.7732479999999953
20
-9.9798379999999991
11
40.7732479999999953
21
-8.9322189999999999
0
LINE
8
BLACK
6
CONTINUOUS
10
40.7732479999999953
20
-8.9322189999999999
11
40.6780100000000004
21
-8.7417420000000003
0
LINE
8
BLACK
6
CONTINUOUS
10
40.6780100000000004
20
-8.7417420000000003
11
40.4875339999999966
21
-8.6465040000000002
0
LINE
8
BLACK
6
CONTINUOUS
10
40.4875339999999966
20
-8.6465040000000002
11
40.2018190000000004
21
-8.6465040000000002
0
LINE
8
BLACK
6
CONTINUOUS
10
40.2018190000000004
20
-8.6465040000000002
11
40.0113429999999966
21
-8.7417420000000003
0
LINE
8
BLACK
6
CONTINUOUS
10
40.0113429999999966
20
-8.7417420000000003
11
39.9161050000000017
21
-8.8369799999999987
0
LINE
8
BLACK
6
CONTINUOUS
10
42.0113429999999966
20
-9.9798379999999991
11
41.8208669999999998
21
-9.8845999999999989
0
LINE
8
BLACK
6
CONTINUOUS
10
41.8208669999999998
20
-9.8845999999999989
11
41.7256289999999979
21
-9.7893609999999995
0
LINE
8
BLACK
6
CONTINUOUS
10
41.7256289999999979
20
-9.7893609999999995
11
41.6303909999999959
21
-9.5988849999999992
0
LINE
8
BLACK
6
CONTINUOUS
10
41.6303909999999959
20
-9.5988849999999992
11
41.6303909999999959
21
-9.0274570000000001
0
LINE
8
BLACK
6
CONTINUOUS
10
41.6303909999999959
20
-9.0274570000000001
11
41.7256289999999979
21
-8.8369799999999987
0
LINE
8
BLACK
6
CONTINUOUS
10
41.7256289999999979
20
-8.8369799999999987
11
41.8208669999999998
21
-8.7417420000000003
0
LINE
8
BLACK
6
CONTINUOUS
10
41.8208669999999998
20
-8.7417420000000003
11
42.0113429999999966
21
-8.6465040000000002
0
LINE
8
BLACK
6
CONTINUOUS
10
42.0113429999999966
20
-8.6465040000000002
11
42.2970579999999998
21
-8.6465040000000002
0
LINE
8
BLACK
6
CONTINUOUS
10
42.2970579999999998
20
-8.6465040000000002
11
42.4875339999999966
21
-8.7417420000000003
0
LINE
8
BLACK
6
CONTINUOUS
10
42.4875339999999966
20
-8.7417420000000003
11
42.5827719999999985
21
-8.8369799999999987
0
LINE
8
BLACK
6
CONTINUOUS
10
42.5827719999999985
20
-8.8369799999999987
11
42.6780100000000004
21
-9.0274570000000001
0
LINE
8
BLACK
6
CONTINUOUS
10
42.6780100000000004
20
-9.0274570000000001
11
42.6780100000000004
21
-9.5988849999999992
0
LINE
8
BLACK
6
CONTINUOUS
10
42.6780100000000004
20
-9.5988849999999992
11
42.5827719999999985
21
-9.7893609999999995
0
LINE
8
BLACK
6
CONTINUOUS
10
42.5827719999999985
20
-9.7893609999999995
11
42.4875339999999966
21
-9.8845999999999989
0
LINE
8
BLACK
6
CONTINUOUS
10
42.4875339999999966
20
-9.8845999999999989
11
42.2970579999999998
21
-9.9798379999999991
0
LINE
8
BLACK
6
CONTINUOUS
10
42.2970579999999998
20
-9.9798379999999991
11
42.0113429999999966
21
-9.9798379999999991
0
LINE
8
BLACK
6
CONTINUOUS
10
43.8208669999999998
20
-9.9798379999999991
11
43.6303909999999959
21
-9.8845999999999989
0
LINE
8
BLACK
6
CONTINUOUS
10
43.6303909999999959
20
-9.8845999999999989
11
43.5351530000000011
21
-9.6941229999999994
0
LINE
8
BLACK
6
CONTINUOUS
10
43.5351530000000011
20
-9.6941229999999994
11
43.5351530000000011
21
-7.979838
0
LINE
8
BLACK
6
CONTINUOUS
10
45.3446769999999972
20
-9.8845999999999989
11
45.1542010000000005
21
-9.9798379999999991
0
LINE
8
BLACK
6
CONTINUOUS
10
45.1542010000000005
20
-9.9798379999999991
11
44.7732479999999953
21
-9.9798379999999991
0
LINE
8
BLACK
6
CONTINUOUS
10
44.7732479999999953
20
-9.9798379999999991
11
44.5827719999999985
21
-9.8845999999999989
0
LINE
8
BLACK
6
CONTINUOUS
10
44.5827719999999985
20
-9.8845999999999989
11
44.4875339999999966
21
-9.6941229999999994
0
LINE
8
BLACK
6
CONTINUOUS
10
44.4875339999999966
20
-9.6941229999999994
11
44.4875339999999966
21
-8.9322189999999999
0
LINE
8
BLACK
6
CONTINUOUS
10
44.4875339999999966
20
-8.9322189999999999
11
44.5827719999999985
21
-8.7417420000000003
0
LINE
8
BLACK
6
CONTINUOUS
10
44.5827719999999985
20
-8.7417420000000003
11
44.7732479999999953
21
-8.6465040000000002
0
LINE
8
BLACK
6
CONTINUOUS
10
44.7732479999999953
20
-8.6465040000000002
11
45.1542010000000005
21
-8.6465040000000002
0
LINE
8
BLACK
6
CONTINUOUS
10
45.1542010000000005
20
-8.6465040000000002
11
45.3446769999999972
21
-8.7417420000000003
0
LINE
8
BLACK
6
CONTINUOUS
10
45.3446769999999972
20
-8.7417420000000003
11
45.4399149999999992
21
-8.9322189999999999
0
LINE
8
BLACK
6
CONTINUOUS
10
45.4399149999999992
20
-8.9322189999999999
11
45.4399149999999992
21
-9.1226950000000002
0
LINE
8
BLACK
6
CONTINUOUS
10
45.4399149999999992
20
-9.1226950000000002
11
44.4875339999999966
21
-9.3131709999999988
0
LINE
8
BLACK
6
CONTINUOUS
10
46.2018199999999979
20
-9.8845999999999989
11
46.3922959999999946
21
-9.9798379999999991
0
LINE
8
BLACK
6
CONTINUOUS
10
46.3922959999999946
20
-9.9798379999999991
11
46.7732479999999953
21
-9.9798379999999991
0
LINE
8
BLACK
6
CONTINUOUS
10
46.7732479999999953
20
-9.9798379999999991
11
46.9637249999999966
21
-9.8845999999999989
0
LINE
8
BLACK
6
CONTINUOUS
10
46.9637249999999966
20
-9.8845999999999989
11
47.0589629999999985
21
-9.6941229999999994
0
LINE
8
BLACK
6
CONTINUOUS
10
47.0589629999999985
20
-9.6941229999999994
11
47.0589629999999985
21
-9.5988849999999992
0
LINE
8
BLACK
6
CONTINUOUS
10
47.0589629999999985
20
-9.5988849999999992
11
46.9637249999999966
21
-9.4084089999999989
0
LINE
8
BLACK
6
CONTINUOUS
10
46.9637249999999966
20
-9.4084089999999989
11
46.7732479999999953
21
-9.3131709999999988
0
LINE
8
BLACK
6
CONTINUOUS
10
46.7732479999999953
20
-9.3131709999999988
11
46.4875339999999966
21
-9.3131709999999988
0
LINE
8
BLACK
6
CONTINUOUS
10
46.4875339999999966
20
-9.3131709999999988
11
46.2970579999999998
21
-9.2179330000000004
0
LINE
8
BLACK
6
CONTINUOUS
10
46.2970579999999998
20
-9.2179330000000004
11
46.2018199999999979
21
-9.0274570000000001
0
LINE
8
BLACK
6
CONTINUOUS
10
46.2018199999999979
20
-9.0274570000000001
11
46.2018199999999979
21
-8.9322189999999999
0
LINE
8
BLACK
6
CONTINUOUS
10
46.2018199999999979
20
-8.9322189999999999
11
46.2970579999999998
21
-8.7417420000000003
0
LINE
8
BLACK
6
CONTINUOUS
10
46.2970579999999998
20
-8.7417420000000003
11
46.4875339999999966
21
-8.6465040000000002
0
LINE
8
BLACK
6
CONTINUOUS
10
46.4875339999999966
20
-8.6465040000000002
11
46.7732479999999953
21
-8.6465040000000002
0
LINE
8
BLACK
6
CONTINUOUS
10
46.7732479999999953
20
-8.6465040000000002
11
46.9637249999999966
21
-8.7417420000000003
0
LINE
8
BLACK
6
CONTINUOUS
10
47.7256299999999953
20
-10.7417420000000003
11
47.8208679999999973
21
-10.6465040000000002
0
LINE
8
BLACK
6
CONTINUOUS
10
47.8208679999999973
20
-10.6465040000000002
11
48.0113440000000011
21
-10.3607899999999997
0
LINE
8
BLACK
6
CONTINUOUS
10
48.0113440000000011
20
-10.3607899999999997
11
48.106581999999996
21
-10.1703139999999994
0
LINE
8
BLACK
6
CONTINUOUS
10
48.106581999999996
20
-10.1703139999999994
11
48.2018199999999979
21
-9.8845999999999989
0
LINE
8
BLACK
6
CONTINUOUS
10
48.2018199999999979
20
-9.8845999999999989
11
48.2970579999999998
21
-9.4084089999999989
0
LINE
8
BLACK
6
CONTINUOUS
10
48.2970579999999998
20
-9.4084089999999989
11
48.2970579999999998
21
-9.0274570000000001
0
LINE
8
BLACK
6
CONTINUOUS
10
48.2970579999999998
20
-9.0274570000000001
11
48.2018199999999979
21
-8.551266
0
LINE
8
BLACK
6
CONTINUOUS
10
48.2018199999999979
20
-8.551266
11
48.106581999999996
21
-8.2655519999999996
0
LINE
8
BLACK
6
CONTINUOUS
10
48.106581999999996
20
-8.2655519999999996
11
48.0113440000000011
21
-8.0750759999999993
0
LINE
8
BLACK
6
CONTINUOUS
10
48.0113440000000011
20
-8.0750759999999993
11
47.8208679999999973
21
-7.7893609999999995
0
LINE
8
BLACK
6
CONTINUOUS
10
47.8208679999999973
20
-7.7893609999999995
11
47.7256299999999953
21
-7.6941229999999994
0
LINE
8
BLACK
6
CONTINUOUS
10
-0.525
20
-11.2050000000000001
11
-0.525
21
-12.2050000000000001
0
LINE
8
BLACK
6
CONTINUOUS
10
-1.0249999999999999
20
-11.7050000000000001
11
-0.025
21
-11.7050000000000001
0
LINE
8
BLACK
6
CONTINUOUS
10
3.6303869999999998
20
-12.6198379999999997
11
2.48753
21
-12.6198379999999997
0
LINE
8
BLACK
6
CONTINUOUS
10
3.0589580000000001
20
-12.6198379999999997
11
3.0589580000000001
21
-10.6198379999999997
0
LINE
8
BLACK
6
CONTINUOUS
10
3.0589580000000001
20
-10.6198379999999997
11
2.8684819999999998
21
-10.9055520000000001
0
LINE
8
BLACK
6
CONTINUOUS
10
2.8684819999999998
20
-10.9055520000000001
11
2.6780059999999999
21
-11.0960279999999987
0
LINE
8
BLACK
6
CONTINUOUS
10
2.6780059999999999
20
-11.0960279999999987
11
2.48753
21
-11.1912659999999988
0
LINE
8
BLACK
6
CONTINUOUS
10
4.4875299999999996
20
-12.4293610000000001
11
4.5827679999999997
21
-12.5245999999999995
0
LINE
8
BLACK
6
CONTINUOUS
10
4.5827679999999997
20
-12.5245999999999995
11
4.4875299999999996
21
-12.6198379999999997
0
LINE
8
BLACK
6
CONTINUOUS
10
4.4875299999999996
20
-12.6198379999999997
11
4.3922919999999994
21
-12.5245999999999995
0
LINE
8
BLACK
6
CONTINUOUS
10
4.3922919999999994
20
-12.5245999999999995
11
4.4875299999999996
21
-12.4293610000000001
0
LINE
8
BLACK
6
CONTINUOUS
10
4.4875299999999996
20
-12.4293610000000001
11
4.4875299999999996
21
-12.6198379999999997
0
LINE
8
BLACK
6
CONTINUOUS
10
5.8208630000000001
20
-10.6198379999999997
11
6.0113399999999997
21
-10.6198379999999997
0
LINE
8
BLACK
6
CONTINUOUS
10
6.0113399999999997
20
-10.6198379999999997
11
6.201816
21
-10.7150759999999998
0
LINE
8
BLACK
6
CONTINUOUS
10
6.201816
20
-10.7150759999999998
11
6.2970540000000002
21
-10.810314
0
LINE
8
BLACK
6
CONTINUOUS
10
6.2970540000000002
20
-10.810314
11
6.3922919999999994
21
-11.0007900000000003
0
LINE
8
BLACK
6
CONTINUOUS
10
6.3922919999999994
20
-11.0007900000000003
11
6.4875299999999996
21
-11.3817419999999991
0
LINE
8
BLACK
6
CONTINUOUS
10
6.4875299999999996
20
-11.3817419999999991
11
6.4875299999999996
21
-11.8579329999999992
0
LINE
8
BLACK
6
CONTINUOUS
10
6.4875299999999996
20
-11.8579329999999992
11
6.3922919999999994
21
-12.2388849999999998
0
LINE
8
BLACK
6
CONTINUOUS
10
6.3922919999999994
20
-12.2388849999999998
11
6.2970540000000002
21
-12.4293610000000001
0
LINE
8
BLACK
6
CONTINUOUS
10
6.2970540000000002
20
-12.4293610000000001
11
6.201816
21
-12.5245999999999995
0
LINE
8
BLACK
6
CONTINUOUS
10
6.201816
20
-12.5245999999999995
11
6.0113399999999997
21
-12.6198379999999997
0
LINE
8
BLACK
6
CONTINUOUS
10
6.0113399999999997
20
-12.6198379999999997
11
5.8208630000000001
21
-12.6198379999999997
0
LINE
8
BLACK
6
CONTINUOUS
10
5.8208630000000001
20
-12.6198379999999997
11
5.6303869999999998
21
-12.5245999999999995
0
LINE
8
BLACK
6
CONTINUOUS
10
5.6303869999999998
20
-12.5245999999999995
11
5.5351489999999997
21
-12.4293610000000001
0
LINE
8
BLACK
6
CONTINUOUS
10
5.5351489999999997
20
-12.4293610000000001
11
5.4399109999999995
21
-12.2388849999999998
0
LINE
8
BLACK
6
CONTINUOUS
10
5.4399109999999995
20
-12.2388849999999998
11
5.3446729999999993
21
-11.8579329999999992
0
LINE
8
BLACK
6
CONTINUOUS
10
5.3446729999999993
20
-11.8579329999999992
11
5.3446729999999993
21
-11.3817419999999991
0
LINE
8
BLACK
6
CONTINUOUS
10
5.3446729999999993
20
-11.3817419999999991
11
5.4399109999999995
21
-11.0007900000000003
0
LINE
8
BLACK
6
CONTINUOUS
10
5.4399109999999995
20
-11.0007900000000003
11
5.5351489999999997
21
-10.810314
0
LINE
8
BLACK
6
CONTINUOUS
10
5.5351489999999997
20
-10.810314
11
5.6303869999999998
21
-10.7150759999999998
0
LINE
8
BLACK
6
CONTINUOUS
10
5.6303869999999998
20
-10.7150759999999998
11
5.8208630000000001
21
-10.6198379999999997
0
LINE
8
BLACK
6
CONTINUOUS
10
7.725625
20
-10.6198379999999997
11
7.9161019999999995
21
-10.6198379999999997
0
LINE
8
BLACK
6
CONTINUOUS
10
7.9161019999999995
20
-10.6198379999999997
11
8.106577999999999
21
-10.7150759999999998
0
LINE
8
BLACK
6
CONTINUOUS
10
8.106577999999999
20
-10.7150759999999998
11
8.2018159999999991
21
-10.810314
0
LINE
8
BLACK
6
CONTINUOUS
10
8.2018159999999991
20
-10.810314
11
8.2970539999999993
21
-11.0007900000000003
0
LINE
8
BLACK
6
CONTINUOUS
10
8.2970539999999993
20
-11.0007900000000003
11
8.3922919999999994
21
-11.3817419999999991
0
LINE
8
BLACK
6
CONTINUOUS
10
8.3922919999999994
20
-11.3817419999999991
11
8.3922919999999994
21
-11.8579329999999992
0
LINE
8
BLACK
6
CONTINUOUS
10
8.3922919999999994
20
-11.8579329999999992
11
8.2970539999999993
21
-12.2388849999999998
0
LINE
8
BLACK
6
CONTINUOUS
10
8.2970539999999993
20
-12.2388849999999998
11
8.2018159999999991
21
-12.4293610000000001
0
LINE
8
BLACK
6
CONTINUOUS
10
8.2018159999999991
20
-12.4293610000000001
11
8.106577999999999
21
-12.5245999999999995
0
LINE
8
BLACK
6
CONTINUOUS
10
8.106577999999999
20
-12.5245999999999995
11
7.9161019999999995
21
-12.6198379999999997
0
LINE
8
BLACK
6
CONTINUOUS
10
7.9161019999999995
20
-12.6198379999999997
11
7.725625
21
-12.6198379999999997
0
LINE
8
BLACK
6
CONTINUOUS
10
7.725625
20
-12.6198379999999997
11
7.5351489999999997
21
-12.5245999999999995
0
LINE
8
BLACK
6
CONTINUOUS
10
7.5351489999999997
20
-12.5245999999999995
11
7.4399109999999995
21
-12.4293610000000001
0
LINE
8
BLACK
6
CONTINUOUS
10
7.4399109999999995
20
-12.4293610000000001
11
7.3446729999999993
21
-12.2388849999999998
0
LINE
8
BLACK
6
CONTINUOUS
10
7.3446729999999993
20
-12.2388849999999998
11
7.2494350000000001
21
-11.8579329999999992
0
LINE
8
BLACK
6
CONTINUOUS
10
7.2494350000000001
20
-11.8579329999999992
11
7.2494350000000001
21
-11.3817419999999991
0
LINE
8
BLACK
6
CONTINUOUS
10
7.2494350000000001
20
-11.3817419999999991
11
7.3446729999999993
21
-11.0007900000000003
0
LINE
8
BLACK
6
CONTINUOUS
10
7.3446729999999993
20
-11.0007900000000003
11
7.4399109999999995
21
-10.810314
0
LINE
8
BLACK
6
CONTINUOUS
10
7.4399109999999995
20
-10.810314
11
7.5351489999999997
21
-10.7150759999999998
0
LINE
8
BLACK
6
CONTINUOUS
10
7.5351489999999997
20
-10.7150759999999998
11
7.725625
21
-10.6198379999999997
0
LINE
8
BLACK
6
CONTINUOUS
10
9.6303869999999989
20
-10.6198379999999997
11
9.8208640000000003
21
-10.6198379999999997
0
LINE
8
BLACK
6
CONTINUOUS
10
9.8208640000000003
20
-10.6198379999999997
11
10.0113399999999988
21
-10.7150759999999998
0
LINE
8
BLACK
6
CONTINUOUS
10
10.0113399999999988
20
-10.7150759999999998
11
10.106577999999999
21
-10.810314
0
LINE
8
BLACK
6
CONTINUOUS
10
10.106577999999999
20
-10.810314
11
10.2018159999999991
21
-11.0007900000000003
0
LINE
8
BLACK
6
CONTINUOUS
10
10.2018159999999991
20
-11.0007900000000003
11
10.2970539999999993
21
-11.3817419999999991
0
LINE
8
BLACK
6
CONTINUOUS
10
10.2970539999999993
20
-11.3817419999999991
11
10.2970539999999993
21
-11.8579329999999992
0
LINE
8
BLACK
6
CONTINUOUS
10
10.2970539999999993
20
-11.8579329999999992
11
10.2018159999999991
21
-12.2388849999999998
0
LINE
8
BLACK
6
CONTINUOUS
10
10.2018159999999991
20
-12.2388849999999998
11
10.106577999999999
21
-12.4293610000000001
0
LINE
8
BLACK
6
CONTINUOUS
10
10.106577999999999
20
-12.4293610000000001
11
10.0113399999999988
21
-12.5245999999999995
0
LINE
8
BLACK
6
CONTINUOUS
10
10.0113399999999988
20
-12.5245999999999995
11
9.8208640000000003
21
-12.6198379999999997
0
LINE
8
BLACK
6
CONTINUOUS
10
9.8208640000000003
20
-12.6198379999999997
11
9.6303869999999989
21
-12.6198379999999997
0
LINE
8
BLACK
6
CONTINUOUS
10
9.6303869999999989
20
-12.6198379999999997
11
9.4399110000000004
21
-12.5245999999999995
0
LINE
8
BLACK
6
CONTINUOUS
10
9.4399110000000004
20
-12.5245999999999995
11
9.3446730000000002
21
-12.4293610000000001
0
LINE
8
BLACK
6
CONTINUOUS
10
9.3446730000000002
20
-12.4293610000000001
11
9.2494350000000001
21
-12.2388849999999998
0
LINE
8
BLACK
6
CONTINUOUS
10
9.2494350000000001
20
-12.2388849999999998
11
9.1541969999999999
21
-11.8579329999999992
0
LINE
8
BLACK
6
CONTINUOUS
10
9.1541969999999999
20
-11.8579329999999992
11
9.1541969999999999
21
-11.3817419999999991
0
LINE
8
BLACK
6
CONTINUOUS
10
9.1541969999999999
20
-11.3817419999999991
11
9.2494350000000001
21
-11.0007900000000003
0
LINE
8
BLACK
6
CONTINUOUS
10
9.2494350000000001
20
-11.0007900000000003
11
9.3446730000000002
21
-10.810314
0
LINE
8
BLACK
6
CONTINUOUS
10
9.3446730000000002
20
-10.810314
11
9.4399110000000004
21
-10.7150759999999998
0
LINE
8
BLACK
6
CONTINUOUS
10
9.4399110000000004
20
-10.7150759999999998
11
9.6303869999999989
21
-10.6198379999999997
0
LINE
8
BLACK
6
CONTINUOUS
10
11.1541969999999999
20
-12.6198379999999997
11
11.1541969999999999
21
-11.286503999999999
0
LINE
8
BLACK
6
CONTINUOUS
10
11.1541969999999999
20
-11.4769799999999993
11
11.2494350000000001
21
-11.3817419999999991
0
LINE
8
BLACK
6
CONTINUOUS
10
11.2494350000000001
20
-11.3817419999999991
11
11.4399109999999986
21
-11.286503999999999
0
LINE
8
BLACK
6
CONTINUOUS
10
11.4399109999999986
20
-11.286503999999999
11
11.7256260000000001
21
-11.286503999999999
0
LINE
8
BLACK
6
CONTINUOUS
10
11.7256260000000001
20
-11.286503999999999
11
11.9161019999999986
21
-11.3817419999999991
0
LINE
8
BLACK
6
CONTINUOUS
10
11.9161019999999986
20
-11.3817419999999991
11
12.0113399999999988
21
-11.5722189999999987
0
LINE
8
BLACK
6
CONTINUOUS
10
12.0113399999999988
20
-11.5722189999999987
11
12.0113399999999988
21
-12.6198379999999997
0
LINE
8
BLACK
6
CONTINUOUS
10
12.0113399999999988
20
-11.5722189999999987
11
12.106577999999999
21
-11.3817419999999991
0
LINE
8
BLACK
6
CONTINUOUS
10
12.106577999999999
20
-11.3817419999999991
11
12.2970539999999993
21
-11.286503999999999
0
LINE
8
BLACK
6
CONTINUOUS
10
12.2970539999999993
20
-11.286503999999999
11
12.5827679999999997
21
-11.286503999999999
0
LINE
8
BLACK
6
CONTINUOUS
10
12.5827679999999997
20
-11.286503999999999
11
12.7732449999999993
21
-11.3817419999999991
0
LINE
8
BLACK
6
CONTINUOUS
10
12.7732449999999993
20
-11.3817419999999991
11
12.8684829999999994
21
-11.5722189999999987
0
LINE
8
BLACK
6
CONTINUOUS
10
12.8684829999999994
20
-11.5722189999999987
11
12.8684829999999994
21
-12.6198379999999997
0
LINE
8
BLACK
6
CONTINUOUS
10
13.8208640000000003
20
-12.6198379999999997
11
13.8208640000000003
21
-11.286503999999999
0
LINE
8
BLACK
6
CONTINUOUS
10
13.8208640000000003
20
-11.4769799999999993
11
13.9161019999999986
21
-11.3817419999999991
0
LINE
8
BLACK
6
CONTINUOUS
10
13.9161019999999986
20
-11.3817419999999991
11
14.106577999999999
21
-11.286503999999999
0
LINE
8
BLACK
6
CONTINUOUS
10
14.106577999999999
20
-11.286503999999999
11
14.3922929999999987
21
-11.286503999999999
0
LINE
8
BLACK
6
CONTINUOUS
10
14.3922929999999987
20
-11.286503999999999
11
14.582768999999999
21
-11.3817419999999991
0
LINE
8
BLACK
6
CONTINUOUS
10
14.582768999999999
20
-11.3817419999999991
11
14.6780069999999991
21
-11.5722189999999987
0
LINE
8
BLACK
6
CONTINUOUS
10
14.6780069999999991
20
-11.5722189999999987
11
14.6780069999999991
21
-12.6198379999999997
0
LINE
8
BLACK
6
CONTINUOUS
10
14.6780069999999991
20
-11.5722189999999987
11
14.7732449999999993
21
-11.3817419999999991
0
LINE
8
BLACK
6
CONTINUOUS
10
14.7732449999999993
20
-11.3817419999999991
11
14.9637209999999996
21
-11.286503999999999
0
LINE
8
BLACK
6
CONTINUOUS
10
14.9637209999999996
20
-11.286503999999999
11
15.2494350000000001
21
-11.286503999999999
0
LINE
8
BLACK
6
CONTINUOUS
10
15.2494350000000001
20
-11.286503999999999
11
15.4399119999999996
21
-11.3817419999999991
0
LINE
8
BLACK
6
CONTINUOUS
10
15.4399119999999996
20
-11.3817419999999991
11
15.5351499999999998
21
-11.5722189999999987
0
LINE
8
BLACK
6
CONTINUOUS
10
15.5351499999999998
20
-11.5722189999999987
11
15.5351499999999998
21
-12.6198379999999997
0
LINE
8
BLACK
6
CONTINUOUS
10
19.4399119999999996
20
-10.5245999999999995
11
17.7256269999999994
21
-13.0960279999999987
0
LINE
8
BLACK
6
CONTINUOUS
10
22.011340999999998
20
-10.6198379999999997
11
22.2018179999999994
21
-10.6198379999999997
0
LINE
8
BLACK
6
CONTINUOUS
10
22.2018179999999994
20
-10.6198379999999997
11
22.3922939999999997
21
-10.7150759999999998
0
LINE
8
BLACK
6
CONTINUOUS
10
22.3922939999999997
20
-10.7150759999999998
11
22.4875319999999981
21
-10.810314
0
LINE
8
BLACK
6
CONTINUOUS
10
22.4875319999999981
20
-10.810314
11
22.58277
21
-11.0007900000000003
0
LINE
8
BLACK
6
CONTINUOUS
10
22.58277
20
-11.0007900000000003
11
22.6780079999999984
21
-11.3817419999999991
0
LINE
8
BLACK
6
CONTINUOUS
10
22.6780079999999984
20
-11.3817419999999991
11
22.6780079999999984
21
-11.8579329999999992
0
LINE
8
BLACK
6
CONTINUOUS
10
22.6780079999999984
20
-11.8579329999999992
11
22.58277
21
-12.2388849999999998
0
LINE
8
BLACK
6
CONTINUOUS
10
22.58277
20
-12.2388849999999998
11
22.4875319999999981
21
-12.4293610000000001
0
LINE
8
BLACK
6
CONTINUOUS
10
22.4875319999999981
20
-12.4293610000000001
11
22.3922939999999997
21
-12.5245999999999995
0
LINE
8
BLACK
6
CONTINUOUS
10
22.3922939999999997
20
-12.5245999999999995
11
22.2018179999999994
21
-12.6198379999999997
0
LINE
8
BLACK
6
CONTINUOUS
10
22.2018179999999994
20
-12.6198379999999997
11
22.011340999999998
21
-12.6198379999999997
0
LINE
8
BLACK
6
CONTINUOUS
10
22.011340999999998
20
-12.6198379999999997
11
21.8208649999999977
21
-12.5245999999999995
0
LINE
8
BLACK
6
CONTINUOUS
10
21.8208649999999977
20
-12.5245999999999995
11
21.7256269999999994
21
-12.4293610000000001
0
LINE
8
BLACK
6
CONTINUOUS
10
21.7256269999999994
20
-12.4293610000000001
11
21.6303889999999974
21
-12.2388849999999998
0
LINE
8
BLACK
6
CONTINUOUS
10
21.6303889999999974
20
-12.2388849999999998
11
21.535150999999999
21
-11.8579329999999992
0
LINE
8
BLACK
6
CONTINUOUS
10
21.535150999999999
20
-11.8579329999999992
11
21.535150999999999
21
-11.3817419999999991
0
LINE
8
BLACK
6
CONTINUOUS
10
21.535150999999999
20
-11.3817419999999991
11
21.6303889999999974
21
-11.0007900000000003
0
LINE
8
BLACK
6
CONTINUOUS
10
21.6303889999999974
20
-11.0007900000000003
11
21.7256269999999994
21
-10.810314
0
LINE
8
BLACK
6
CONTINUOUS
10
21.7256269999999994
20
-10.810314
11
21.8208649999999977
21
-10.7150759999999998
0
LINE
8
BLACK
6
CONTINUOUS
10
21.8208649999999977
20
-10.7150759999999998
11
22.011340999999998
21
-10.6198379999999997
0
LINE
8
BLACK
6
CONTINUOUS
10
23.535150999999999
20
-12.4293610000000001
11
23.6303889999999974
21
-12.5245999999999995
0
LINE
8
BLACK
6
CONTINUOUS
10
23.6303889999999974
20
-12.5245999999999995
11
23.535150999999999
21
-12.6198379999999997
0
LINE
8
BLACK
6
CONTINUOUS
10
23.535150999999999
20
-12.6198379999999997
11
23.4399130000000007
21
-12.5245999999999995
0
LINE
8
BLACK
6
CONTINUOUS
10
23.4399130000000007
20
-12.5245999999999995
11
23.535150999999999
21
-12.4293610000000001
0
LINE
8
BLACK
6
CONTINUOUS
10
23.535150999999999
20
-12.4293610000000001
11
23.535150999999999
21
-12.6198379999999997
0
LINE
8
BLACK
6
CONTINUOUS
10
24.8684839999999987
20
-10.6198379999999997
11
25.058961
21
-10.6198379999999997
0
LINE
8
BLACK
6
CONTINUOUS
10
25.058961
20
-10.6198379999999997
11
25.2494370000000004
21
-10.7150759999999998
0
LINE
8
BLACK
6
CONTINUOUS
10
25.2494370000000004
20
-10.7150759999999998
11
25.3446749999999987
21
-10.810314
0
LINE
8
BLACK
6
CONTINUOUS
10
25.3446749999999987
20
-10.810314
11
25.4399129999999971
21
-11.0007900000000003
0
LINE
8
BLACK
6
CONTINUOUS
10
25.4399129999999971
20
-11.0007900000000003
11
25.535150999999999
21
-11.3817419999999991
0
LINE
8
BLACK
6
CONTINUOUS
10
25.535150999999999
20
-11.3817419999999991
11
25.535150999999999
21
-11.8579329999999992
0
LINE
8
BLACK
6
CONTINUOUS
10
25.535150999999999
20
-11.8579329999999992
11
25.4399129999999971
21
-12.2388849999999998
0
LINE
8
BLACK
6
CONTINUOUS
10
25.4399129999999971
20
-12.2388849999999998
11
25.3446749999999987
21
-12.4293610000000001
0
LINE
8
BLACK
6
CONTINUOUS
10
25.3446749999999987
20
-12.4293610000000001
11
25.2494370000000004
21
-12.5245999999999995
0
LINE
8
BLACK
6
CONTINUOUS
10
25.2494370000000004
20
-12.5245999999999995
11
25.058961
21
-12.6198379999999997
0
LINE
8
BLACK
6
CONTINUOUS
10
25.058961
20
-12.6198379999999997
11
24.8684839999999987
21
-12.6198379999999997
0
LINE
8
BLACK
6
CONTINUOUS
10
24.8684839999999987
20
-12.6198379999999997
11
24.6780079999999984
21
-12.5245999999999995
0
LINE
8
BLACK
6
CONTINUOUS
10
24.6780079999999984
20
-12.5245999999999995
11
24.58277
21
-12.4293610000000001
0
LINE
8
BLACK
6
CONTINUOUS
10
24.58277
20
-12.4293610000000001
11
24.4875319999999981
21
-12.2388849999999998
0
LINE
8
BLACK
6
CONTINUOUS
10
24.4875319999999981
20
-12.2388849999999998
11
24.3922939999999997
21
-11.8579329999999992
0
LINE
8
BLACK
6
CONTINUOUS
10
24.3922939999999997
20
-11.8579329999999992
11
24.3922939999999997
21
-11.3817419999999991
0
LINE
8
BLACK
6
CONTINUOUS
10
24.3922939999999997
20
-11.3817419999999991
11
24.4875319999999981
21
-11.0007900000000003
0
LINE
8
BLACK
6
CONTINUOUS
10
24.4875319999999981
20
-11.0007900000000003
11
24.58277
21
-10.810314
0
LINE
8
BLACK
6
CONTINUOUS
10
24.58277
20
-10.810314
11
24.6780079999999984
21
-10.7150759999999998
0
LINE
8
BLACK
6
CONTINUOUS
10
24.6780079999999984
20
-10.7150759999999998
11
24.8684839999999987
21
-10.6198379999999997
0
LINE
8
BLACK
6
CONTINUOUS
10
26.2018179999999994
20
-10.6198379999999997
11
27.4399129999999971
21
-10.6198379999999997
0
LINE
8
BLACK
6
CONTINUOUS
10
27.4399129999999971
20
-10.6198379999999997
11
26.7732460000000003
21
-11.3817419999999991
0
LINE
8
BLACK
6
CONTINUOUS
10
26.7732460000000003
20
-11.3817419999999991
11
27.058961
21
-11.3817419999999991
0
LINE
8
BLACK
6
CONTINUOUS
10
27.058961
20
-11.3817419999999991
11
27.2494370000000004
21
-11.4769799999999993
0
LINE
8
BLACK
6
CONTINUOUS
10
27.2494370000000004
20
-11.4769799999999993
11
27.3446749999999987
21
-11.5722189999999987
0
LINE
8
BLACK
6
CONTINUOUS
10
27.3446749999999987
20
-11.5722189999999987
11
27.4399129999999971
21
-11.762694999999999
0
LINE
8
BLACK
6
CONTINUOUS
10
27.4399129999999971
20
-11.762694999999999
11
27.4399129999999971
21
-12.2388849999999998
0
LINE
8
BLACK
6
CONTINUOUS
10
27.4399129999999971
20
-12.2388849999999998
11
27.3446749999999987
21
-12.4293610000000001
0
LINE
8
BLACK
6
CONTINUOUS
10
27.3446749999999987
20
-12.4293610000000001
11
27.2494370000000004
21
-12.5245999999999995
0
LINE
8
BLACK
6
CONTINUOUS
10
27.2494370000000004
20
-12.5245999999999995
11
27.058961
21
-12.6198379999999997
0
LINE
8
BLACK
6
CONTINUOUS
10
27.058961
20
-12.6198379999999997
11
26.4875319999999981
21
-12.6198379999999997
0
LINE
8
BLACK
6
CONTINUOUS
10
26.4875319999999981
20
-12.6198379999999997
11
26.2970559999999978
21
-12.5245999999999995
0
LINE
8
BLACK
6
CONTINUOUS
10
26.2970559999999978
20
-12.5245999999999995
11
26.2018179999999994
21
-12.4293610000000001
0
LINE
8
BLACK
6
CONTINUOUS
10
28.3922939999999997
20
-12.6198379999999997
11
28.7732460000000003
21
-12.6198379999999997
0
LINE
8
BLACK
6
CONTINUOUS
10
28.7732460000000003
20
-12.6198379999999997
11
28.9637229999999981
21
-12.5245999999999995
0
LINE
8
BLACK
6
CONTINUOUS
10
28.9637229999999981
20
-12.5245999999999995
11
29.058961
21
-12.4293610000000001
0
LINE
8
BLACK
6
CONTINUOUS
10
29.058961
20
-12.4293610000000001
11
29.2494370000000004
21
-12.1436469999999996
0
LINE
8
BLACK
6
CONTINUOUS
10
29.2494370000000004
20
-12.1436469999999996
11
29.3446749999999987
21
-11.762694999999999
0
LINE
8
BLACK
6
CONTINUOUS
10
29.3446749999999987
20
-11.762694999999999
11
29.3446749999999987
21
-11.0007900000000003
0
LINE
8
BLACK
6
CONTINUOUS
10
29.3446749999999987
20
-11.0007900000000003
11
29.2494370000000004
21
-10.810314
0
LINE
8
BLACK
6
CONTINUOUS
10
29.2494370000000004
20
-10.810314
11
29.1541989999999984
21
-10.7150759999999998
0
LINE
8
BLACK
6
CONTINUOUS
10
29.1541989999999984
20
-10.7150759999999998
11
28.9637229999999981
21
-10.6198379999999997
0
LINE
8
BLACK
6
CONTINUOUS
10
28.9637229999999981
20
-10.6198379999999997
11
28.58277
21
-10.6198379999999997
0
LINE
8
BLACK
6
CONTINUOUS
10
28.58277
20
-10.6198379999999997
11
28.3922939999999997
21
-10.7150759999999998
0
LINE
8
BLACK
6
CONTINUOUS
10
28.3922939999999997
20
-10.7150759999999998
11
28.2970559999999978
21
-10.810314
0
LINE
8
BLACK
6
CONTINUOUS
10
28.2970559999999978
20
-10.810314
11
28.2018179999999994
21
-11.0007900000000003
0
LINE
8
BLACK
6
CONTINUOUS
10
28.2018179999999994
20
-11.0007900000000003
11
28.2018179999999994
21
-11.4769799999999993
0
LINE
8
BLACK
6
CONTINUOUS
10
28.2018179999999994
20
-11.4769799999999993
11
28.2970559999999978
21
-11.6674569999999989
0
LINE
8
BLACK
6
CONTINUOUS
10
28.2970559999999978
20
-11.6674569999999989
11
28.3922939999999997
21
-11.762694999999999
0
LINE
8
BLACK
6
CONTINUOUS
10
28.3922939999999997
20
-11.762694999999999
11
28.58277
21
-11.8579329999999992
0
LINE
8
BLACK
6
CONTINUOUS
10
28.58277
20
-11.8579329999999992
11
28.9637229999999981
21
-11.8579329999999992
0
LINE
8
BLACK
6
CONTINUOUS
10
28.9637229999999981
20
-11.8579329999999992
11
29.1541989999999984
21
-11.762694999999999
0
LINE
8
BLACK
6
CONTINUOUS
10
29.1541989999999984
20
-11.762694999999999
11
29.2494370000000004
21
-11.6674569999999989
0
LINE
8
BLACK
6
CONTINUOUS
10
29.2494370000000004
20
-11.6674569999999989
11
29.3446749999999987
21
-11.4769799999999993
0
LINE
8
BLACK
6
CONTINUOUS
10
31.058961
20
-11.286503999999999
11
31.058961
21
-12.6198379999999997
0
LINE
8
BLACK
6
CONTINUOUS
10
30.58277
20
-10.5245999999999995
11
30.1065799999999975
21
-11.9531709999999993
0
LINE
8
BLACK
6
CONTINUOUS
10
30.1065799999999975
20
-11.9531709999999993
11
31.3446749999999987
21
-11.9531709999999993
0
LINE
8
BLACK
6
CONTINUOUS
10
32.0113419999999991
20
-10.6198379999999997
11
32.0113419999999991
21
-11.0007900000000003
0
LINE
8
BLACK
6
CONTINUOUS
10
32.7732469999999978
20
-10.6198379999999997
11
32.7732469999999978
21
-11.0007900000000003
0
LINE
8
BLACK
6
CONTINUOUS
10
35.7256289999999979
20
-13.3817419999999991
11
35.6303899999999985
21
-13.286503999999999
0
LINE
8
BLACK
6
CONTINUOUS
10
35.6303899999999985
20
-13.286503999999999
11
35.4399140000000017
21
-13.0007900000000003
0
LINE
8
BLACK
6
CONTINUOUS
10
35.4399140000000017
20
-13.0007900000000003
11
35.3446759999999998
21
-12.810314
0
LINE
8
BLACK
6
CONTINUOUS
10
35.3446759999999998
20
-12.810314
11
35.2494379999999978
21
-12.5245999999999995
0
LINE
8
BLACK
6
CONTINUOUS
10
35.2494379999999978
20
-12.5245999999999995
11
35.1541999999999959
21
-12.0484089999999995
0
LINE
8
BLACK
6
CONTINUOUS
10
35.1541999999999959
20
-12.0484089999999995
11
35.1541999999999959
21
-11.6674569999999989
0
LINE
8
BLACK
6
CONTINUOUS
10
35.1541999999999959
20
-11.6674569999999989
11
35.2494379999999978
21
-11.1912659999999988
0
LINE
8
BLACK
6
CONTINUOUS
10
35.2494379999999978
20
-11.1912659999999988
11
35.3446759999999998
21
-10.9055520000000001
0
LINE
8
BLACK
6
CONTINUOUS
10
35.3446759999999998
20
-10.9055520000000001
11
35.4399140000000017
21
-10.7150759999999998
0
LINE
8
BLACK
6
CONTINUOUS
10
35.4399140000000017
20
-10.7150759999999998
11
35.6303899999999985
21
-10.4293610000000001
0
LINE
8
BLACK
6
CONTINUOUS
10
35.6303899999999985
20
-10.4293610000000001
11
35.7256289999999979
21
-10.3341229999999999
0
LINE
8
BLACK
6
CONTINUOUS
10
37.3446759999999998
20
-10.6198379999999997
11
36.9637230000000017
21
-10.6198379999999997
0
LINE
8
BLACK
6
CONTINUOUS
10
36.9637230000000017
20
-10.6198379999999997
11
36.7732469999999978
21
-10.7150759999999998
0
LINE
8
BLACK
6
CONTINUOUS
10
36.7732469999999978
20
-10.7150759999999998
11
36.6780089999999959
21
-10.810314
0
LINE
8
BLACK
6
CONTINUOUS
10
36.6780089999999959
20
-10.810314
11
36.4875329999999991
21
-11.0960279999999987
0
LINE
8
BLACK
6
CONTINUOUS
10
36.4875329999999991
20
-11.0960279999999987
11
36.3922949999999972
21
-11.4769799999999993
0
LINE
8
BLACK
6
CONTINUOUS
10
36.3922949999999972
20
-11.4769799999999993
11
36.3922949999999972
21
-12.2388849999999998
0
LINE
8
BLACK
6
CONTINUOUS
10
36.3922949999999972
20
-12.2388849999999998
11
36.4875329999999991
21
-12.4293610000000001
0
LINE
8
BLACK
6
CONTINUOUS
10
36.4875329999999991
20
-12.4293610000000001
11
36.582771000000001
21
-12.5245999999999995
0
LINE
8
BLACK
6
CONTINUOUS
10
36.582771000000001
20
-12.5245999999999995
11
36.7732469999999978
21
-12.6198379999999997
0
LINE
8
BLACK
6
CONTINUOUS
10
36.7732469999999978
20
-12.6198379999999997
11
37.1541999999999959
21
-12.6198379999999997
0
LINE
8
BLACK
6
CONTINUOUS
10
37.1541999999999959
20
-12.6198379999999997
11
37.3446759999999998
21
-12.5245999999999995
0
LINE
8
BLACK
6
CONTINUOUS
10
37.3446759999999998
20
-12.5245999999999995
11
37.4399140000000017
21
-12.4293610000000001
0
LINE
8
BLACK
6
CONTINUOUS
10
37.4399140000000017
20
-12.4293610000000001
11
37.5351519999999965
21
-12.2388849999999998
0
LINE
8
BLACK
6
CONTINUOUS
10
37.5351519999999965
20
-12.2388849999999998
11
37.5351519999999965
21
-11.762694999999999
0
LINE
8
BLACK
6
CONTINUOUS
10
37.5351519999999965
20
-11.762694999999999
11
37.4399140000000017
21
-11.5722189999999987
0
LINE
8
BLACK
6
CONTINUOUS
10
37.4399140000000017
20
-11.5722189999999987
11
37.3446759999999998
21
-11.4769799999999993
0
LINE
8
BLACK
6
CONTINUOUS
10
37.3446759999999998
20
-11.4769799999999993
11
37.1541999999999959
21
-11.3817419999999991
0
LINE
8
BLACK
6
CONTINUOUS
10
37.1541999999999959
20
-11.3817419999999991
11
36.7732469999999978
21
-11.3817419999999991
0
LINE
8
BLACK
6
CONTINUOUS
10
36.7732469999999978
20
-11.3817419999999991
11
36.582771000000001
21
-11.4769799999999993
0
LINE
8
BLACK
6
CONTINUOUS
10
36.582771000000001
20
-11.4769799999999993
11
36.4875329999999991
21
-11.5722189999999987
0
LINE
8
BLACK
6
CONTINUOUS
10
36.4875329999999991
20
-11.5722189999999987
11
36.3922949999999972
21
-11.762694999999999
0
LINE
8
BLACK
6
CONTINUOUS
10
39.2494379999999978
20
-10.6198379999999997
11
38.8684849999999997
21
-10.6198379999999997
0
LINE
8
BLACK
6
CONTINUOUS
10
38.8684849999999997
20
-10.6198379999999997
11
38.6780089999999959
21
-10.7150759999999998
0
LINE
8
BLACK
6
CONTINUOUS
10
38.6780089999999959
20
-10.7150759999999998
11
38.582771000000001
21
-10.810314
0
LINE
8
BLACK
6
CONTINUOUS
10
38.582771000000001
20
-10.810314
11
38.3922949999999972
21
-11.0960279999999987
0
LINE
8
BLACK
6
CONTINUOUS
10
38.3922949999999972
20
-11.0960279999999987
11
38.2970569999999952
21
-11.4769799999999993
0
LINE
8
BLACK
6
CONTINUOUS
10
38.2970569999999952
20
-11.4769799999999993
11
38.2970569999999952
21
-12.2388849999999998
0
LINE
8
BLACK
6
CONTINUOUS
10
38.2970569999999952
20
-12.2388849999999998
11
38.3922949999999972
21
-12.4293610000000001
0
LINE
8
BLACK
6
CONTINUOUS
10
38.3922949999999972
20
-12.4293610000000001
11
38.4875329999999991
21
-12.5245999999999995
0
LINE
8
BLACK
6
CONTINUOUS
10
38.4875329999999991
20
-12.5245999999999995
11
38.6780089999999959
21
-12.6198379999999997
0
LINE
8
BLACK
6
CONTINUOUS
10
38.6780089999999959
20
-12.6198379999999997
11
39.0589620000000011
21
-12.6198379999999997
0
LINE
8
BLACK
6
CONTINUOUS
10
39.0589620000000011
20
-12.6198379999999997
11
39.2494379999999978
21
-12.5245999999999995
0
LINE
8
BLACK
6
CONTINUOUS
10
39.2494379999999978
20
-12.5245999999999995
11
39.3446759999999998
21
-12.4293610000000001
0
LINE
8
BLACK
6
CONTINUOUS
10
39.3446759999999998
20
-12.4293610000000001
11
39.4399140000000017
21
-12.2388849999999998
0
LINE
8
BLACK
6
CONTINUOUS
10
39.4399140000000017
20
-12.2388849999999998
11
39.4399140000000017
21
-11.762694999999999
0
LINE
8
BLACK
6
CONTINUOUS
10
39.4399140000000017
20
-11.762694999999999
11
39.3446759999999998
21
-11.5722189999999987
0
LINE
8
BLACK
6
CONTINUOUS
10
39.3446759999999998
20
-11.5722189999999987
11
39.2494379999999978
21
-11.4769799999999993
0
LINE
8
BLACK
6
CONTINUOUS
10
39.2494379999999978
20
-11.4769799999999993
11
39.0589620000000011
21
-11.3817419999999991
0
LINE
8
BLACK
6
CONTINUOUS
10
39.0589620000000011
20
-11.3817419999999991
11
38.6780089999999959
21
-11.3817419999999991
0
LINE
8
BLACK
6
CONTINUOUS
10
38.6780089999999959
20
-11.3817419999999991
11
38.4875329999999991
21
-11.4769799999999993
0
LINE
8
BLACK
6
CONTINUOUS
10
38.4875329999999991
20
-11.4769799999999993
11
38.3922949999999972
21
-11.5722189999999987
0
LINE
8
BLACK
6
CONTINUOUS
10
38.3922949999999972
20
-11.5722189999999987
11
38.2970569999999952
21
-11.762694999999999
0
LINE
8
BLACK
6
CONTINUOUS
10
41.8208669999999998
20
-12.6198379999999997
11
41.8208669999999998
21
-10.6198379999999997
0
LINE
8
BLACK
6
CONTINUOUS
10
42.6780100000000004
20
-12.6198379999999997
11
42.6780100000000004
21
-11.5722189999999987
0
LINE
8
BLACK
6
CONTINUOUS
10
42.6780100000000004
20
-11.5722189999999987
11
42.5827719999999985
21
-11.3817419999999991
0
LINE
8
BLACK
6
CONTINUOUS
10
42.5827719999999985
20
-11.3817419999999991
11
42.3922959999999946
21
-11.286503999999999
0
LINE
8
BLACK
6
CONTINUOUS
10
42.3922959999999946
20
-11.286503999999999
11
42.1065809999999985
21
-11.286503999999999
0
LINE
8
BLACK
6
CONTINUOUS
10
42.1065809999999985
20
-11.286503999999999
11
41.9161049999999946
21
-11.3817419999999991
0
LINE
8
BLACK
6
CONTINUOUS
10
41.9161049999999946
20
-11.3817419999999991
11
41.8208669999999998
21
-11.4769799999999993
0
LINE
8
BLACK
6
CONTINUOUS
10
43.9161049999999946
20
-12.6198379999999997
11
43.7256289999999979
21
-12.5245999999999995
0
LINE
8
BLACK
6
CONTINUOUS
10
43.7256289999999979
20
-12.5245999999999995
11
43.6303909999999959
21
-12.4293610000000001
0
LINE
8
BLACK
6
CONTINUOUS
10
43.6303909999999959
20
-12.4293610000000001
11
43.5351530000000011
21
-12.2388849999999998
0
LINE
8
BLACK
6
CONTINUOUS
10
43.5351530000000011
20
-12.2388849999999998
11
43.5351530000000011
21
-11.6674569999999989
0
LINE
8
BLACK
6
CONTINUOUS
10
43.5351530000000011
20
-11.6674569999999989
11
43.6303909999999959
21
-11.4769799999999993
0
LINE
8
BLACK
6
CONTINUOUS
10
43.6303909999999959
20
-11.4769799999999993
11
43.7256289999999979
21
-11.3817419999999991
0
LINE
8
BLACK
6
CONTINUOUS
10
43.7256289999999979
20
-11.3817419999999991
11
43.9161049999999946
21
-11.286503999999999
0
LINE
8
BLACK
6
CONTINUOUS
10
43.9161049999999946
20
-11.286503999999999
11
44.2018199999999979
21
-11.286503999999999
0
LINE
8
BLACK
6
CONTINUOUS
10
44.2018199999999979
20
-11.286503999999999
11
44.3922959999999946
21
-11.3817419999999991
0
LINE
8
BLACK
6
CONTINUOUS
10
44.3922959999999946
20
-11.3817419999999991
11
44.4875339999999966
21
-11.4769799999999993
0
LINE
8
BLACK
6
CONTINUOUS
10
44.4875339999999966
20
-11.4769799999999993
11
44.5827719999999985
21
-11.6674569999999989
0
LINE
8
BLACK
6
CONTINUOUS
10
44.5827719999999985
20
-11.6674569999999989
11
44.5827719999999985
21
-12.2388849999999998
0
LINE
8
BLACK
6
CONTINUOUS
10
44.5827719999999985
20
-12.2388849999999998
11
44.4875339999999966
21
-12.4293610000000001
0
LINE
8
BLACK
6
CONTINUOUS
10
44.4875339999999966
20
-12.4293610000000001
11
44.3922959999999946
21
-12.5245999999999995
0
LINE
8
BLACK
6
CONTINUOUS
10
44.3922959999999946
20
-12.5245999999999995
11
44.2018199999999979
21
-12.6198379999999997
0
LINE
8
BLACK
6
CONTINUOUS
10
44.2018199999999979
20
-12.6198379999999997
11
43.9161049999999946
21
-12.6198379999999997
0
LINE
8
BLACK
6
CONTINUOUS
10
45.7256289999999979
20
-12.6198379999999997
11
45.5351530000000011
21
-12.5245999999999995
0
LINE
8
BLACK
6
CONTINUOUS
10
45.5351530000000011
20
-12.5245999999999995
11
45.4399149999999992
21
-12.3341229999999999
0
LINE
8
BLACK
6
CONTINUOUS
10
45.4399149999999992
20
-12.3341229999999999
11
45.4399149999999992
21
-10.6198379999999997
0
LINE
8
BLACK
6
CONTINUOUS
10
47.2494389999999953
20
-12.5245999999999995
11
47.0589629999999985
21
-12.6198379999999997
0
LINE
8
BLACK
6
CONTINUOUS
10
47.0589629999999985
20
-12.6198379999999997
11
46.6780100000000004
21
-12.6198379999999997
0
LINE
8
BLACK
6
CONTINUOUS
10
46.6780100000000004
20
-12.6198379999999997
11
46.4875339999999966
21
-12.5245999999999995
0
LINE
8
BLACK
6
CONTINUOUS
10
46.4875339999999966
20
-12.5245999999999995
11
46.3922959999999946
21
-12.3341229999999999
0
LINE
8
BLACK
6
CONTINUOUS
10
46.3922959999999946
20
-12.3341229999999999
11
46.3922959999999946
21
-11.5722189999999987
0
LINE
8
BLACK
6
CONTINUOUS
10
46.3922959999999946
20
-11.5722189999999987
11
46.4875339999999966
21
-11.3817419999999991
0
LINE
8
BLACK
6
CONTINUOUS
10
46.4875339999999966
20
-11.3817419999999991
11
46.6780100000000004
21
-11.286503999999999
0
LINE
8
BLACK
6
CONTINUOUS
10
46.6780100000000004
20
-11.286503999999999
11
47.0589629999999985
21
-11.286503999999999
0
LINE
8
BLACK
6
CONTINUOUS
10
47.0589629999999985
20
-11.286503999999999
11
47.2494389999999953
21
-11.3817419999999991
0
LINE
8
BLACK
6
CONTINUOUS
10
47.2494389999999953
20
-11.3817419999999991
11
47.3446769999999972
21
-11.5722189999999987
0
LINE
8
BLACK
6
CONTINUOUS
10
47.3446769999999972
20
-11.5722189999999987
11
47.3446769999999972
21
-11.762694999999999
0
LINE
8
BLACK
6
CONTINUOUS
10
47.3446769999999972
20
-11.762694999999999
11
46.3922959999999946
21
-11.9531709999999993
0
LINE
8
BLACK
6
CONTINUOUS
10
48.106581999999996
20
-12.5245999999999995
11
48.2970579999999998
21
-12.6198379999999997
0
LINE
8
BLACK
6
CONTINUOUS
10
48.2970579999999998
20
-12.6198379999999997
11
48.6780100000000004
21
-12.6198379999999997
0
LINE
8
BLACK
6
CONTINUOUS
10
48.6780100000000004
20
-12.6198379999999997
11
48.8684869999999947
21
-12.5245999999999995
0
LINE
8
BLACK
6
CONTINUOUS
10
48.8684869999999947
20
-12.5245999999999995
11
48.9637249999999966
21
-12.3341229999999999
0
LINE
8
BLACK
6
CONTINUOUS
10
48.9637249999999966
20
-12.3341229999999999
11
48.9637249999999966
21
-12.2388849999999998
0
LINE
8
BLACK
6
CONTINUOUS
10
48.9637249999999966
20
-12.2388849999999998
11
48.8684869999999947
21
-12.0484089999999995
0
LINE
8
BLACK
6
CONTINUOUS
10
48.8684869999999947
20
-12.0484089999999995
11
48.6780100000000004
21
-11.9531709999999993
0
LINE
8
BLACK
6
CONTINUOUS
10
48.6780100000000004
20
-11.9531709999999993
11
48.3922959999999946
21
-11.9531709999999993
0
LINE
8
BLACK
6
CONTINUOUS
10
48.3922959999999946
20
-11.9531709999999993
11
48.2018199999999979
21
-11.8579329999999992
0
LINE
8
BLACK
6
CONTINUOUS
10
48.2018199999999979
20
-11.8579329999999992
11
48.106581999999996
21
-11.6674569999999989
0
LINE
8
BLACK
6
CONTINUOUS
10
48.106581999999996
20
-11.6674569999999989
11
48.106581999999996
21
-11.5722189999999987
0
LINE
8
BLACK
6
CONTINUOUS
10
48.106581999999996
20
-11.5722189999999987
11
48.2018199999999979
21
-11.3817419999999991
0
LINE
8
BLACK
6
CONTINUOUS
10
48.2018199999999979
20
-11.3817419999999991
11
48.3922959999999946
21
-11.286503999999999
0
LINE
8
BLACK
6
CONTINUOUS
10
48.3922959999999946
20
-11.286503999999999
11
48.6780100000000004
21
-11.286503999999999
0
LINE
8
BLACK
6
CONTINUOUS
10
48.6780100000000004
20
-11.286503999999999
11
48.8684869999999947
21
-11.3817419999999991
0
LINE
8
BLACK
6
CONTINUOUS
10
49.6303920000000005
20
-13.3817419999999991
11
49.7256299999999953
21
-13.286503999999999
0
LINE
8
BLACK
6
CONTINUOUS
10
49.7256299999999953
20
-13.286503999999999
11
49.9161059999999992
21
-13.0007900000000003
0
LINE
8
BLACK
6
CONTINUOUS
10
49.9161059999999992
20
-13.0007900000000003
11
50.0113440000000011
21
-12.810314
0
LINE
8
BLACK
6
CONTINUOUS
10
50.0113440000000011
20
-12.810314
11
50.106581999999996
21
-12.5245999999999995
0
LINE
8
BLACK
6
CONTINUOUS
10
50.106581999999996
20
-12.5245999999999995
11
50.2018199999999979
21
-12.0484089999999995
0
LINE
8
BLACK
6
CONTINUOUS
10
50.2018199999999979
20
-12.0484089999999995
11
50.2018199999999979
21
-11.6674569999999989
0
LINE
8
BLACK
6
CONTINUOUS
10
50.2018199999999979
20
-11.6674569999999989
11
50.106581999999996
21
-11.1912659999999988
0
LINE
8
BLACK
6
CONTINUOUS
10
50.106581999999996
20
-11.1912659999999988
11
50.0113440000000011
21
-10.9055520000000001
0
LINE
8
BLACK
6
CONTINUOUS
10
50.0113440000000011
20
-10.9055520000000001
11
49.9161059999999992
21
-10.7150759999999998
0
LINE
8
BLACK
6
CONTINUOUS
10
49.9161059999999992
20
-10.7150759999999998
11
49.7256299999999953
21
-10.4293610000000001
0
LINE
8
BLACK
6
CONTINUOUS
10
49.7256299999999953
20
-10.4293610000000001
11
49.6303920000000005
21
-10.3341229999999999
  0
ENDSEC
  0
EOF
