M48
; DRILL file KiCad 10.0.3 date 2026-06-25T14:53:13
; FORMAT={-:-/ absolute / metric / decimal}
; #@! TF.CreationDate,2026-06-25T14:53:13-04:00
; #@! TF.GenerationSoftware,Kicad,Pcbnew,10.0.3
; #@! TF.FileFunction,Plated,1,2,PTH
FMAT,2
METRIC
; #@! TA.AperFunction,Plated,PTH,ComponentDrill
T1C0.800
; #@! TA.AperFunction,Plated,PTH,ViaDrill
T2C1.000
; #@! TA.AperFunction,Plated,PTH,ComponentDrill
T3C1.000
%
G90
G05
T1
X4.059Y19.5
X4.059Y10.5
X4.857Y41.25
X4.857Y39.25
X5.007Y25.5
X6.599Y19.5
X7.507Y25.5
X10.007Y25.5
X11.967Y19.5
X12.507Y35.25
X12.507Y30.25
X14.507Y19.5
X14.507Y10.5
X15.007Y41.75
X15.007Y39.75
X27.757Y38.5
X42.677Y53.5
X50.847Y59.5
X52.837Y53.5
X56.177Y70.5
X61.007Y59.5
X66.337Y70.5
X71.257Y40.75
X83.507Y68.375
X87.444Y68.375
X91.507Y68.5
X95.087Y64.5
X95.087Y60.75
X95.097Y57.0
X105.247Y64.5
X105.247Y60.75
X105.257Y57.0
X109.217Y23.75
X111.757Y23.75
X114.297Y23.75
X117.092Y23.75
X119.632Y23.75
X122.172Y23.75
X124.967Y23.75
X127.507Y23.75
X130.047Y23.75
T2
X44.257Y68.0
X110.507Y54.5
T3
X27.637Y35.0
X30.177Y35.0
X32.717Y35.0
X33.132Y44.34
X35.257Y35.0
X35.672Y44.34
X37.797Y35.0
X40.337Y35.0
X40.752Y44.34
X42.877Y35.0
X43.292Y64.66
X43.292Y44.34
X45.417Y35.0
X45.832Y64.66
X45.832Y44.34
X47.957Y35.0
X48.372Y64.66
X48.372Y44.34
X50.912Y64.66
X50.912Y44.34
X53.452Y64.66
X53.452Y44.34
X55.992Y64.66
X55.992Y44.34
X58.532Y64.66
X58.532Y44.34
X61.072Y64.66
X63.612Y64.66
X66.152Y64.66
X66.152Y44.34
X68.692Y64.66
X68.692Y44.34
X71.232Y64.66
X71.232Y44.34
X83.807Y50.56
X83.807Y48.02
X83.807Y45.48
X83.807Y42.94
X85.007Y64.25
X85.617Y22.9
X87.547Y64.25
X88.157Y22.9
X89.427Y4.24
X90.087Y64.25
X90.697Y22.9
X91.967Y4.24
X93.237Y22.9
X94.507Y4.24
X95.777Y22.9
X97.047Y4.24
X98.317Y22.9
X99.587Y4.24
X100.857Y22.9
X103.397Y22.9
X104.257Y51.0
X104.257Y44.0
X111.507Y39.25
X111.507Y31.25
X116.632Y51.0
X116.632Y44.0
X119.257Y39.25
X119.257Y31.25
X126.257Y39.25
X126.257Y31.25
X129.007Y51.0
X129.007Y44.0
M30
