  0
SECTION
  2
HEADER
  9
$ANGBASE
  50
0.0
  9
$ANGDIR
  70
1
  9
$MEASUREMENT
  70
1
  9
$INSUNITS
  70
4
  0
ENDSEC
  0
SECTION
  2
TABLES
  0
TABLE
  2
LTYPE
  70
4
  0
LTYPE
  5
40F
  2
CONTINUOUS
  70
0
  3
Solid line
  72
65
  73
0
  40
0.0
  0
LTYPE
  5
410
  2
DASHDOT
 70
0
  3
Dash Dot ____ _ ____ _
 72
65
 73
4
 40
2.0
 49
1.25
 49
-0.25
 49
0.25
 49
-0.25
  0
LTYPE
  5
411
  2
DASHED
 70
0
  3
Dashed __ __ __ __ __
 72
65
 73
2
 40
0.75
 49
0.5
 49
-0.25
  0
LTYPE
  5
43B
  2
DOTTED
 70
0
  3
Dotted .  .  .  .
 72
65
 73
2
 40
0.2
 49
0.0
 49
-0.2
  0
ENDTAB
  0
TABLE
  2
STYLE
  70
4
  0
STYLE
  2
KICAD
  70
0
  40
0
  41
1
  42
1
  50
0
  71
0
  3
isocp.shx
  0
STYLE
  2
KICADB
  70
0
  40
0
  41
1
  42
1
  50
0
  71
0
  3
isocp.shx
  0
STYLE
  2
KICADI
  70
0
  40
0
  41
1
  42
1
  50
15
  71
0
  3
isocp.shx
  0
STYLE
  2
KICADBI
  70
0
  40
0
  41
1
  42
1
  50
15
  71
0
  3
isocp.shx
  0
ENDTAB
  0
TABLE
  2
LAYER
  70
1
  0
LAYER
  2
BLACK
  70
0
  62
250
  6
CONTINUOUS
  0
ENDTAB
  0
ENDSEC
  0
SECTION
  2
ENTITIES
0
LINE
8
BLACK
6
CONTINUOUS
10
-4.6191389999999997
20
66.3841859999999997
11
-4.6039209999999997
21
66.7327879999999993
0
LINE
8
BLACK
6
CONTINUOUS
10
-4.6039209999999997
20
66.7327879999999993
11
-4.558376
21
67.0787610000000001
0
LINE
8
BLACK
6
CONTINUOUS
10
-4.558376
20
67.0787610000000001
11
-4.4828510000000001
21
67.4194490000000002
0
LINE
8
BLACK
6
CONTINUOUS
10
-4.4828510000000001
20
67.4194490000000002
11
-4.3779199999999996
21
67.7522570000000002
0
LINE
8
BLACK
6
CONTINUOUS
10
-4.3779199999999996
20
67.7522570000000002
11
-4.244383
21
68.0746539999999953
0
LINE
8
BLACK
6
CONTINUOUS
10
-4.244383
20
68.0746539999999953
11
-4.0832549999999994
21
68.3841859999999997
0
LINE
8
BLACK
6
CONTINUOUS
10
-4.0832549999999994
20
68.3841859999999997
11
-3.8957619999999999
21
68.6784959999999955
0
LINE
8
BLACK
6
CONTINUOUS
10
-3.8957619999999999
20
68.6784959999999955
11
-3.6833329999999997
21
68.9553459999999916
0
LINE
8
BLACK
6
CONTINUOUS
10
-3.6833329999999997
20
68.9553459999999916
11
-3.4475819999999997
21
69.2126269999999977
0
LINE
8
BLACK
6
CONTINUOUS
10
-3.4475819999999997
20
69.2126269999999977
11
-3.1903049999999999
21
69.4483829999999926
0
LINE
8
BLACK
6
CONTINUOUS
10
-3.1903049999999999
20
69.4483829999999926
11
-2.9134599999999997
21
69.6608179999999919
0
LINE
8
BLACK
6
CONTINUOUS
10
-2.9134599999999997
20
69.6608179999999919
11
-2.6191529999999998
21
69.848315999999997
0
LINE
8
BLACK
6
CONTINUOUS
10
-2.6191529999999998
20
69.848315999999997
11
-2.309625
21
70.0094500000000011
0
LINE
8
BLACK
6
CONTINUOUS
10
-2.309625
20
70.0094500000000011
11
-1.987231
21
70.1429940000000016
0
LINE
8
BLACK
6
CONTINUOUS
10
-1.987231
20
70.1429940000000016
11
-1.6544239999999999
21
70.2479309999999941
0
LINE
8
BLACK
6
CONTINUOUS
10
-1.6544239999999999
20
70.2479309999999941
11
-1.3137379999999999
21
70.3234630000000038
0
LINE
8
BLACK
6
CONTINUOUS
10
-1.3137379999999999
20
70.3234630000000038
11
-0.967765
21
70.3690139999999928
0
LINE
8
BLACK
6
CONTINUOUS
10
-0.967765
20
70.3690139999999928
11
-0.619139
21
70.3842389999999938
0
LINE
8
BLACK
6
CONTINUOUS
10
-0.619139
20
70.3842389999999938
11
-0.619139
21
70.3841859999999997
0
LINE
8
BLACK
6
CONTINUOUS
10
-0.619139
20
70.3841859999999997
11
132.0999999999999943
21
70.3841859999999997
0
LINE
8
BLACK
6
CONTINUOUS
10
132.0999999999999943
20
70.3841859999999997
11
132.1000139999999874
21
70.3841859999999997
0
LINE
8
BLACK
6
CONTINUOUS
10
132.1000139999999874
20
70.3841859999999997
11
132.4486359999999934
21
70.3689639999999912
0
LINE
8
BLACK
6
CONTINUOUS
10
132.4486359999999934
20
70.3689639999999912
11
132.7946039999999925
21
70.3234149999999971
0
LINE
8
BLACK
6
CONTINUOUS
10
132.7946039999999925
20
70.3234149999999971
11
133.1352860000000078
21
70.2478859999999941
0
LINE
8
BLACK
6
CONTINUOUS
10
133.1352860000000078
20
70.2478859999999941
11
133.468088999999992
21
70.1429529999999914
0
LINE
8
BLACK
6
CONTINUOUS
10
133.468088999999992
20
70.1429529999999914
11
133.7904800000000023
21
70.009412999999995
0
LINE
8
BLACK
6
CONTINUOUS
10
133.7904800000000023
20
70.009412999999995
11
134.1000049999999817
21
69.8482819999999975
0
LINE
8
BLACK
6
CONTINUOUS
10
134.1000049999999817
20
69.8482819999999975
11
134.3943089999999927
21
69.6607889999999941
0
LINE
8
BLACK
6
CONTINUOUS
10
134.3943089999999927
20
69.6607889999999941
11
134.6711520000000064
21
69.4483579999999989
0
LINE
8
BLACK
6
CONTINUOUS
10
134.6711520000000064
20
69.4483579999999989
11
134.9284269999999992
21
69.2126069999999913
0
LINE
8
BLACK
6
CONTINUOUS
10
134.9284269999999992
20
69.2126069999999913
11
135.1641759999999977
21
68.955331000000001
0
LINE
8
BLACK
6
CONTINUOUS
10
135.1641759999999977
20
68.955331000000001
11
135.3766049999999836
21
68.6784859999999924
0
LINE
8
BLACK
6
CONTINUOUS
10
135.3766049999999836
20
68.6784859999999924
11
135.5640960000000064
21
68.3841809999999981
0
LINE
8
BLACK
6
CONTINUOUS
10
135.5640960000000064
20
68.3841809999999981
11
135.7252239999999972
21
68.0746539999999953
0
LINE
8
BLACK
6
CONTINUOUS
10
135.7252239999999972
20
68.0746539999999953
11
135.8587619999999845
21
67.7522629999999992
0
LINE
8
BLACK
6
CONTINUOUS
10
135.8587619999999845
20
67.7522629999999992
11
135.9636930000000064
21
67.4194590000000034
0
LINE
8
BLACK
6
CONTINUOUS
10
135.9636930000000064
20
67.4194590000000034
11
136.0392200000000003
21
67.0787759999999906
0
LINE
8
BLACK
6
CONTINUOUS
10
136.0392200000000003
20
67.0787759999999906
11
136.0847660000000019
21
66.7328079999999915
0
LINE
8
BLACK
6
CONTINUOUS
10
136.0847660000000019
20
66.7328079999999915
11
136.0999860000000012
21
66.3841859999999997
0
LINE
8
BLACK
6
CONTINUOUS
10
136.0999860000000012
20
66.3841859999999997
11
136.0999999999999943
21
66.3841859999999997
0
LINE
8
BLACK
6
CONTINUOUS
10
136.0999999999999943
20
66.3841859999999997
11
136.0999999999999943
21
-0.5
0
LINE
8
BLACK
6
CONTINUOUS
10
136.0999999999999943
20
-0.5
11
136.0847789999999975
21
-0.848623
0
LINE
8
BLACK
6
CONTINUOUS
10
136.0847789999999975
20
-0.848623
11
136.0392310000000009
21
-1.194593
0
LINE
8
BLACK
6
CONTINUOUS
10
136.0392310000000009
20
-1.194593
11
135.9637029999999811
21
-1.5352759999999999
0
LINE
8
BLACK
6
CONTINUOUS
10
135.9637029999999811
20
-1.5352759999999999
11
135.8587699999999927
21
-1.8680809999999999
0
LINE
8
BLACK
6
CONTINUOUS
10
135.8587699999999927
20
-1.8680809999999999
11
135.725231000000008
21
-2.1904729999999999
0
LINE
8
BLACK
6
CONTINUOUS
10
135.725231000000008
20
-2.1904729999999999
11
135.5641019999999912
21
-2.5
0
LINE
8
BLACK
6
CONTINUOUS
10
135.5641019999999912
20
-2.5
11
135.3766080000000045
21
-2.7943059999999997
0
LINE
8
BLACK
6
CONTINUOUS
10
135.3766080000000045
20
-2.7943059999999997
11
135.1641779999999926
21
-3.0711499999999998
0
LINE
8
BLACK
6
CONTINUOUS
10
135.1641779999999926
20
-3.0711499999999998
11
134.9284269999999992
21
-3.328427
0
LINE
8
BLACK
6
CONTINUOUS
10
134.9284269999999992
20
-3.328427
11
134.671149999999983
21
-3.5641779999999996
0
LINE
8
BLACK
6
CONTINUOUS
10
134.671149999999983
20
-3.5641779999999996
11
134.3943060000000003
21
-3.776608
0
LINE
8
BLACK
6
CONTINUOUS
10
134.3943060000000003
20
-3.776608
11
134.0999999999999943
21
-3.964102
0
LINE
8
BLACK
6
CONTINUOUS
10
134.0999999999999943
20
-3.964102
11
133.7904729999999915
21
-4.1252309999999994
0
LINE
8
BLACK
6
CONTINUOUS
10
133.7904729999999915
20
-4.1252309999999994
11
133.4680809999999838
21
-4.2587700000000002
0
LINE
8
BLACK
6
CONTINUOUS
10
133.4680809999999838
20
-4.2587700000000002
11
133.1352760000000046
21
-4.3637030000000001
0
LINE
8
BLACK
6
CONTINUOUS
10
133.1352760000000046
20
-4.3637030000000001
11
132.7945929999999919
21
-4.4392309999999995
0
LINE
8
BLACK
6
CONTINUOUS
10
132.7945929999999919
20
-4.4392309999999995
11
132.4486229999999978
21
-4.4847789999999996
0
LINE
8
BLACK
6
CONTINUOUS
10
132.4486229999999978
20
-4.4847789999999996
11
132.0999999999999943
21
-4.5
0
LINE
8
BLACK
6
CONTINUOUS
10
132.0999999999999943
20
-4.5
11
-0.619139
21
-4.5
0
LINE
8
BLACK
6
CONTINUOUS
10
-0.619139
20
-4.5
11
-0.967723
21
-4.4847789999999996
0
LINE
8
BLACK
6
CONTINUOUS
10
-0.967723
20
-4.4847789999999996
11
-1.313693
21
-4.4392309999999995
0
LINE
8
BLACK
6
CONTINUOUS
10
-1.313693
20
-4.4392309999999995
11
-1.6543759999999998
21
-4.3637030000000001
0
LINE
8
BLACK
6
CONTINUOUS
10
-1.6543759999999998
20
-4.3637030000000001
11
-1.9871809999999999
21
-4.2587700000000002
0
LINE
8
BLACK
6
CONTINUOUS
10
-1.9871809999999999
20
-4.2587700000000002
11
-2.3095729999999999
21
-4.1252309999999994
0
LINE
8
BLACK
6
CONTINUOUS
10
-2.3095729999999999
20
-4.1252309999999994
11
-2.6191
21
-3.964102
0
LINE
8
BLACK
6
CONTINUOUS
10
-2.6191
20
-3.964102
11
-2.9134059999999997
21
-3.776608
0
LINE
8
BLACK
6
CONTINUOUS
10
-2.9134059999999997
20
-3.776608
11
-3.1902499999999998
21
-3.5641779999999996
0
LINE
8
BLACK
6
CONTINUOUS
10
-3.1902499999999998
20
-3.5641779999999996
11
-3.447527
21
-3.328427
0
LINE
8
BLACK
6
CONTINUOUS
10
-3.447527
20
-3.328427
11
-3.6832780000000001
21
-3.0711499999999998
0
LINE
8
BLACK
6
CONTINUOUS
10
-3.6832780000000001
20
-3.0711499999999998
11
-3.8957079999999999
21
-2.7943059999999997
0
LINE
8
BLACK
6
CONTINUOUS
10
-3.8957079999999999
20
-2.7943059999999997
11
-4.083202
21
-2.5
0
LINE
8
BLACK
6
CONTINUOUS
10
-4.083202
20
-2.5
11
-4.2443309999999999
21
-2.1904729999999999
0
LINE
8
BLACK
6
CONTINUOUS
10
-4.2443309999999999
20
-2.1904729999999999
11
-4.3778699999999997
21
-1.8680809999999999
0
LINE
8
BLACK
6
CONTINUOUS
10
-4.3778699999999997
20
-1.8680809999999999
11
-4.4828029999999996
21
-1.5352759999999999
0
LINE
8
BLACK
6
CONTINUOUS
10
-4.4828029999999996
20
-1.5352759999999999
11
-4.5583309999999999
21
-1.194593
0
LINE
8
BLACK
6
CONTINUOUS
10
-4.5583309999999999
20
-1.194593
11
-4.6038790000000001
21
-0.848623
0
LINE
8
BLACK
6
CONTINUOUS
10
-4.6038790000000001
20
-0.848623
11
-4.6190999999999995
21
-0.5
0
LINE
8
BLACK
6
CONTINUOUS
10
-4.6190999999999995
20
-0.5
11
-4.6191389999999997
21
-0.5
0
LINE
8
BLACK
6
CONTINUOUS
10
-4.6191389999999997
20
-0.5
11
-4.6191389999999997
21
66.3841859999999997
0
LINE
8
BLACK
6
CONTINUOUS
10
1.3999999999999999
20
21.6499999999999986
11
2.6000000000000001
21
20.4499999999999993
0
LINE
8
BLACK
6
CONTINUOUS
10
2.6000000000000001
20
21.6499999999999986
11
1.3999999999999999
21
20.4499999999999993
0
LINE
8
BLACK
6
CONTINUOUS
10
13.3999999999999986
20
21.6499999999999986
11
14.5999999999999996
21
20.4499999999999993
0
LINE
8
BLACK
6
CONTINUOUS
10
14.5999999999999996
20
21.6499999999999986
11
13.3999999999999986
21
20.4499999999999993
0
CIRCLE
8
BLACK
10
51.5
20
8.5499999999999989
40
1.3
0
CIRCLE
8
BLACK
10
71.8199999999999932
20
8.5499999999999989
40
1.3
0
CIRCLE
8
BLACK
10
85.1499999999999915
20
29.7999999999999972
40
1.3
0
CIRCLE
8
BLACK
10
85.1499999999999915
20
9.4800000000000004
40
1.3
0
CIRCLE
8
BLACK
10
97.8499999999999943
20
29.7999999999999972
40
1.3
0
CIRCLE
8
BLACK
10
97.8499999999999943
20
9.4800000000000004
40
1.3
0
LINE
8
BLACK
6
CONTINUOUS
10
19.5799999999999983
20
31.2474999999999987
11
19.5799999999999983
21
28.072499999999998
0
LINE
8
BLACK
6
CONTINUOUS
10
17.9924999999999997
20
29.6600000000000001
11
21.1675000000000004
21
29.6600000000000001
0
LINE
8
BLACK
6
CONTINUOUS
10
19.5799999999999983
20
1.7374999999999998
11
19.5799999999999983
21
-1.4375
0
LINE
8
BLACK
6
CONTINUOUS
10
17.9924999999999997
20
0.15
11
21.1675000000000004
21
0.15
0
LINE
8
BLACK
6
CONTINUOUS
10
22.1950000000000003
20
60.5274999999999963
11
22.1950000000000003
21
57.3524999999999991
0
LINE
8
BLACK
6
CONTINUOUS
10
20.6074999999999982
20
58.9399999999999977
11
23.7824999999999989
21
58.9399999999999977
0
LINE
8
BLACK
6
CONTINUOUS
10
22.1950000000000003
20
42.7474999999999952
11
22.1950000000000003
21
39.572499999999998
0
LINE
8
BLACK
6
CONTINUOUS
10
20.6074999999999982
20
41.1599999999999966
11
23.7824999999999989
21
41.1599999999999966
0
LINE
8
BLACK
6
CONTINUOUS
10
78.5799999999999983
20
31.2474999999999987
11
78.5799999999999983
21
28.072499999999998
0
LINE
8
BLACK
6
CONTINUOUS
10
76.9924999999999926
20
29.6600000000000001
11
80.1674999999999898
21
29.6600000000000001
0
LINE
8
BLACK
6
CONTINUOUS
10
78.5799999999999983
20
1.7374999999999998
11
78.5799999999999983
21
-1.4375
0
LINE
8
BLACK
6
CONTINUOUS
10
76.9924999999999926
20
0.15
11
80.1674999999999898
21
0.15
0
LINE
8
BLACK
6
CONTINUOUS
10
131.4658330000000035
20
47.0725610000000003
11
131.4658330000000035
21
43.8975609999999961
0
LINE
8
BLACK
6
CONTINUOUS
10
129.8783329999999978
20
45.4850609999999946
11
133.0533329999999808
21
45.4850609999999946
0
LINE
8
BLACK
6
CONTINUOUS
10
1.14906
20
64.6509399999999914
11
1.14906
21
66.9490600000000029
0
LINE
8
BLACK
6
CONTINUOUS
10
1.14906
20
66.9490600000000029
11
-1.14906
21
66.9490600000000029
0
LINE
8
BLACK
6
CONTINUOUS
10
-1.14906
20
66.9490600000000029
11
-1.14906
21
64.6509399999999914
0
LINE
8
BLACK
6
CONTINUOUS
10
-1.14906
20
64.6509399999999914
11
1.14906
21
64.6509399999999914
0
LINE
8
BLACK
6
CONTINUOUS
10
1.14906
20
-1.14906
11
1.14906
21
1.14906
0
LINE
8
BLACK
6
CONTINUOUS
10
1.14906
20
1.14906
11
-1.14906
21
1.14906
0
LINE
8
BLACK
6
CONTINUOUS
10
-1.14906
20
1.14906
11
-1.14906
21
-1.14906
0
LINE
8
BLACK
6
CONTINUOUS
10
-1.14906
20
-1.14906
11
1.14906
21
-1.14906
0
LINE
8
BLACK
6
CONTINUOUS
10
132.629920999999996
20
64.6509399999999914
11
132.629920999999996
21
66.9490600000000029
0
LINE
8
BLACK
6
CONTINUOUS
10
132.629920999999996
20
66.9490600000000029
11
130.3318009999999845
21
66.9490600000000029
0
LINE
8
BLACK
6
CONTINUOUS
10
130.3318009999999845
20
66.9490600000000029
11
130.3318009999999845
21
64.6509399999999914
0
LINE
8
BLACK
6
CONTINUOUS
10
130.3318009999999845
20
64.6509399999999914
11
132.629920999999996
21
64.6509399999999914
0
LINE
8
BLACK
6
CONTINUOUS
10
132.629920999999996
20
-1.14906
11
132.629920999999996
21
1.14906
0
LINE
8
BLACK
6
CONTINUOUS
10
132.629920999999996
20
1.14906
11
130.3318009999999845
21
1.14906
0
LINE
8
BLACK
6
CONTINUOUS
10
130.3318009999999845
20
1.14906
11
130.3318009999999845
21
-1.14906
0
LINE
8
BLACK
6
CONTINUOUS
10
130.3318009999999845
20
-1.14906
11
132.629920999999996
21
-1.14906
0
LINE
8
BLACK
6
CONTINUOUS
10
-2.0363709999999999
20
-7.6398379999999992
11
-2.0363709999999999
21
-5.6398380000000001
0
LINE
8
BLACK
6
CONTINUOUS
10
-2.0363709999999999
20
-5.6398380000000001
11
-1.560181
21
-5.6398380000000001
0
LINE
8
BLACK
6
CONTINUOUS
10
-1.560181
20
-5.6398380000000001
11
-1.2744659999999999
21
-5.7350759999999994
0
LINE
8
BLACK
6
CONTINUOUS
10
-1.2744659999999999
20
-5.7350759999999994
11
-1.08399
21
-5.9255519999999997
0
LINE
8
BLACK
6
CONTINUOUS
10
-1.08399
20
-5.9255519999999997
11
-0.988752
21
-6.116028
0
LINE
8
BLACK
6
CONTINUOUS
10
-0.988752
20
-6.116028
11
-0.8935139999999999
21
-6.4969799999999998
0
LINE
8
BLACK
6
CONTINUOUS
10
-0.8935139999999999
20
-6.4969799999999998
11
-0.8935139999999999
21
-6.7826949999999995
0
LINE
8
BLACK
6
CONTINUOUS
10
-0.8935139999999999
20
-6.7826949999999995
11
-0.988752
21
-7.1636470000000001
0
LINE
8
BLACK
6
CONTINUOUS
10
-0.988752
20
-7.1636470000000001
11
-1.08399
21
-7.3541229999999995
0
LINE
8
BLACK
6
CONTINUOUS
10
-1.08399
20
-7.3541229999999995
11
-1.2744659999999999
21
-7.5446
0
LINE
8
BLACK
6
CONTINUOUS
10
-1.2744659999999999
20
-7.5446
11
-1.560181
21
-7.6398379999999992
0
LINE
8
BLACK
6
CONTINUOUS
10
-1.560181
20
-7.6398379999999992
11
-2.0363709999999999
21
-7.6398379999999992
0
LINE
8
BLACK
6
CONTINUOUS
10
-0.036371
20
-7.6398379999999992
11
-0.036371
21
-6.3065039999999994
0
LINE
8
BLACK
6
CONTINUOUS
10
-0.036371
20
-6.6874569999999993
11
0.058867
21
-6.4969799999999998
0
LINE
8
BLACK
6
CONTINUOUS
10
0.058867
20
-6.4969799999999998
11
0.154105
21
-6.4017419999999996
0
LINE
8
BLACK
6
CONTINUOUS
10
0.154105
20
-6.4017419999999996
11
0.344581
21
-6.3065039999999994
0
LINE
8
BLACK
6
CONTINUOUS
10
0.344581
20
-6.3065039999999994
11
0.5350579999999999
21
-6.3065039999999994
0
LINE
8
BLACK
6
CONTINUOUS
10
1.201724
20
-7.6398379999999992
11
1.201724
21
-6.3065039999999994
0
LINE
8
BLACK
6
CONTINUOUS
10
1.201724
20
-5.6398380000000001
11
1.1064859999999999
21
-5.7350759999999994
0
LINE
8
BLACK
6
CONTINUOUS
10
1.1064859999999999
20
-5.7350759999999994
11
1.201724
21
-5.8303139999999996
0
LINE
8
BLACK
6
CONTINUOUS
10
1.201724
20
-5.8303139999999996
11
1.2969619999999999
21
-5.7350759999999994
0
LINE
8
BLACK
6
CONTINUOUS
10
1.2969619999999999
20
-5.7350759999999994
11
1.201724
21
-5.6398380000000001
0
LINE
8
BLACK
6
CONTINUOUS
10
1.201724
20
-5.6398380000000001
11
1.201724
21
-5.8303139999999996
0
LINE
8
BLACK
6
CONTINUOUS
10
2.439819
20
-7.6398379999999992
11
2.2493430000000001
21
-7.5446
0
LINE
8
BLACK
6
CONTINUOUS
10
2.2493430000000001
20
-7.5446
11
2.1541049999999999
21
-7.3541229999999995
0
LINE
8
BLACK
6
CONTINUOUS
10
2.1541049999999999
20
-7.3541229999999995
11
2.1541049999999999
21
-5.6398380000000001
0
LINE
8
BLACK
6
CONTINUOUS
10
3.487438
20
-7.6398379999999992
11
3.2969619999999997
21
-7.5446
0
LINE
8
BLACK
6
CONTINUOUS
10
3.2969619999999997
20
-7.5446
11
3.201724
21
-7.3541229999999995
0
LINE
8
BLACK
6
CONTINUOUS
10
3.201724
20
-7.3541229999999995
11
3.201724
21
-5.6398380000000001
0
LINE
8
BLACK
6
CONTINUOUS
10
5.7731529999999998
20
-7.6398379999999992
11
5.7731529999999998
21
-5.6398380000000001
0
LINE
8
BLACK
6
CONTINUOUS
10
5.7731529999999998
20
-5.6398380000000001
11
6.4398200000000001
21
-7.0684089999999999
0
LINE
8
BLACK
6
CONTINUOUS
10
6.4398200000000001
20
-7.0684089999999999
11
7.1064859999999994
21
-5.6398380000000001
0
LINE
8
BLACK
6
CONTINUOUS
10
7.1064859999999994
20
-5.6398380000000001
11
7.1064859999999994
21
-7.6398379999999992
0
LINE
8
BLACK
6
CONTINUOUS
10
8.91601
20
-7.6398379999999992
11
8.91601
21
-6.5922190000000001
0
LINE
8
BLACK
6
CONTINUOUS
10
8.91601
20
-6.5922190000000001
11
8.8207719999999998
21
-6.4017419999999996
0
LINE
8
BLACK
6
CONTINUOUS
10
8.8207719999999998
20
-6.4017419999999996
11
8.6302959999999995
21
-6.3065039999999994
0
LINE
8
BLACK
6
CONTINUOUS
10
8.6302959999999995
20
-6.3065039999999994
11
8.2493429999999996
21
-6.3065039999999994
0
LINE
8
BLACK
6
CONTINUOUS
10
8.2493429999999996
20
-6.3065039999999994
11
8.0588669999999993
21
-6.4017419999999996
0
LINE
8
BLACK
6
CONTINUOUS
10
8.91601
20
-7.5446
11
8.7255339999999997
21
-7.6398379999999992
0
LINE
8
BLACK
6
CONTINUOUS
10
8.7255339999999997
20
-7.6398379999999992
11
8.2493429999999996
21
-7.6398379999999992
0
LINE
8
BLACK
6
CONTINUOUS
10
8.2493429999999996
20
-7.6398379999999992
11
8.0588669999999993
21
-7.5446
0
LINE
8
BLACK
6
CONTINUOUS
10
8.0588669999999993
20
-7.5446
11
7.9636290000000001
21
-7.3541229999999995
0
LINE
8
BLACK
6
CONTINUOUS
10
7.9636290000000001
20
-7.3541229999999995
11
7.9636290000000001
21
-7.1636470000000001
0
LINE
8
BLACK
6
CONTINUOUS
10
7.9636290000000001
20
-7.1636470000000001
11
8.0588669999999993
21
-6.9731709999999998
0
LINE
8
BLACK
6
CONTINUOUS
10
8.0588669999999993
20
-6.9731709999999998
11
8.2493429999999996
21
-6.8779329999999996
0
LINE
8
BLACK
6
CONTINUOUS
10
8.2493429999999996
20
-6.8779329999999996
11
8.7255339999999997
21
-6.8779329999999996
0
LINE
8
BLACK
6
CONTINUOUS
10
8.7255339999999997
20
-6.8779329999999996
11
8.91601
21
-6.7826949999999995
0
LINE
8
BLACK
6
CONTINUOUS
10
9.868390999999999
20
-6.3065039999999994
11
9.868390999999999
21
-8.3065040000000003
0
LINE
8
BLACK
6
CONTINUOUS
10
9.868390999999999
20
-6.4017419999999996
11
10.0588669999999993
21
-6.3065039999999994
0
LINE
8
BLACK
6
CONTINUOUS
10
10.0588669999999993
20
-6.3065039999999994
11
10.4398199999999992
21
-6.3065039999999994
0
LINE
8
BLACK
6
CONTINUOUS
10
10.4398199999999992
20
-6.3065039999999994
11
10.6302959999999995
21
-6.4017419999999996
0
LINE
8
BLACK
6
CONTINUOUS
10
10.6302959999999995
20
-6.4017419999999996
11
10.7255339999999997
21
-6.4969799999999998
0
LINE
8
BLACK
6
CONTINUOUS
10
10.7255339999999997
20
-6.4969799999999998
11
10.8207719999999998
21
-6.6874569999999993
0
LINE
8
BLACK
6
CONTINUOUS
10
10.8207719999999998
20
-6.6874569999999993
11
10.8207719999999998
21
-7.2588849999999994
0
LINE
8
BLACK
6
CONTINUOUS
10
10.8207719999999998
20
-7.2588849999999994
11
10.7255339999999997
21
-7.4493609999999997
0
LINE
8
BLACK
6
CONTINUOUS
10
10.7255339999999997
20
-7.4493609999999997
11
10.6302959999999995
21
-7.5446
0
LINE
8
BLACK
6
CONTINUOUS
10
10.6302959999999995
20
-7.5446
11
10.4398199999999992
21
-7.6398379999999992
0
LINE
8
BLACK
6
CONTINUOUS
10
10.4398199999999992
20
-7.6398379999999992
11
10.0588669999999993
21
-7.6398379999999992
0
LINE
8
BLACK
6
CONTINUOUS
10
10.0588669999999993
20
-7.6398379999999992
11
9.868390999999999
21
-7.5446
0
LINE
8
BLACK
6
CONTINUOUS
10
11.6779149999999987
20
-7.4493609999999997
11
11.7731529999999989
21
-7.5446
0
LINE
8
BLACK
6
CONTINUOUS
10
11.7731529999999989
20
-7.5446
11
11.6779149999999987
21
-7.6398379999999992
0
LINE
8
BLACK
6
CONTINUOUS
10
11.6779149999999987
20
-7.6398379999999992
11
11.5826770000000003
21
-7.5446
0
LINE
8
BLACK
6
CONTINUOUS
10
11.5826770000000003
20
-7.5446
11
11.6779149999999987
21
-7.4493609999999997
0
LINE
8
BLACK
6
CONTINUOUS
10
11.6779149999999987
20
-7.4493609999999997
11
11.6779149999999987
21
-7.6398379999999992
0
LINE
8
BLACK
6
CONTINUOUS
10
11.6779149999999987
20
-6.4017419999999996
11
11.7731529999999989
21
-6.4969799999999998
0
LINE
8
BLACK
6
CONTINUOUS
10
11.7731529999999989
20
-6.4969799999999998
11
11.6779149999999987
21
-6.5922190000000001
0
LINE
8
BLACK
6
CONTINUOUS
10
11.6779149999999987
20
-6.5922190000000001
11
11.5826770000000003
21
-6.4969799999999998
0
LINE
8
BLACK
6
CONTINUOUS
10
11.5826770000000003
20
-6.4969799999999998
11
11.6779149999999987
21
-6.4017419999999996
0
LINE
8
BLACK
6
CONTINUOUS
10
11.6779149999999987
20
-6.4017419999999996
11
11.6779149999999987
21
-6.5922190000000001
0
LINE
8
BLACK
6
CONTINUOUS
10
-5.8441389999999993
20
-10.3249999999999993
11
-4.644139
21
-11.5250000000000004
0
LINE
8
BLACK
6
CONTINUOUS
10
-4.644139
20
-10.3249999999999993
11
-5.8441389999999993
21
-11.5250000000000004
0
LINE
8
BLACK
6
CONTINUOUS
10
-0.988752
20
-11.8398380000000003
11
-2.1316090000000001
21
-11.8398380000000003
0
LINE
8
BLACK
6
CONTINUOUS
10
-1.560181
20
-11.8398380000000003
11
-1.560181
21
-9.8398380000000003
0
LINE
8
BLACK
6
CONTINUOUS
10
-1.560181
20
-9.8398380000000003
11
-1.7506569999999999
21
-10.125551999999999
0
LINE
8
BLACK
6
CONTINUOUS
10
-1.7506569999999999
20
-10.125551999999999
11
-1.941133
21
-10.3160279999999993
0
LINE
8
BLACK
6
CONTINUOUS
10
-1.941133
20
-10.3160279999999993
11
-2.1316090000000001
21
-10.4112659999999995
0
LINE
8
BLACK
6
CONTINUOUS
10
-0.131609
20
-11.649360999999999
11
-0.036371
21
-11.7446000000000002
0
LINE
8
BLACK
6
CONTINUOUS
10
-0.036371
20
-11.7446000000000002
11
-0.131609
21
-11.8398380000000003
0
LINE
8
BLACK
6
CONTINUOUS
10
-0.131609
20
-11.8398380000000003
11
-0.226847
21
-11.7446000000000002
0
LINE
8
BLACK
6
CONTINUOUS
10
-0.226847
20
-11.7446000000000002
11
-0.131609
21
-11.649360999999999
0
LINE
8
BLACK
6
CONTINUOUS
10
-0.131609
20
-11.649360999999999
11
-0.131609
21
-11.8398380000000003
0
LINE
8
BLACK
6
CONTINUOUS
10
0.725534
20
-10.0303139999999988
11
0.8207719999999999
21
-9.9350759999999987
0
LINE
8
BLACK
6
CONTINUOUS
10
0.8207719999999999
20
-9.9350759999999987
11
1.0112479999999999
21
-9.8398380000000003
0
LINE
8
BLACK
6
CONTINUOUS
10
1.0112479999999999
20
-9.8398380000000003
11
1.487439
21
-9.8398380000000003
0
LINE
8
BLACK
6
CONTINUOUS
10
1.487439
20
-9.8398380000000003
11
1.6779149999999998
21
-9.9350759999999987
0
LINE
8
BLACK
6
CONTINUOUS
10
1.6779149999999998
20
-9.9350759999999987
11
1.773153
21
-10.0303139999999988
0
LINE
8
BLACK
6
CONTINUOUS
10
1.773153
20
-10.0303139999999988
11
1.8683909999999999
21
-10.2207899999999992
0
LINE
8
BLACK
6
CONTINUOUS
10
1.8683909999999999
20
-10.2207899999999992
11
1.8683909999999999
21
-10.4112659999999995
0
LINE
8
BLACK
6
CONTINUOUS
10
1.8683909999999999
20
-10.4112659999999995
11
1.773153
21
-10.6969799999999999
0
LINE
8
BLACK
6
CONTINUOUS
10
1.773153
20
-10.6969799999999999
11
0.630296
21
-11.8398380000000003
0
LINE
8
BLACK
6
CONTINUOUS
10
0.630296
20
-11.8398380000000003
11
1.8683909999999999
21
-11.8398380000000003
0
LINE
8
BLACK
6
CONTINUOUS
10
3.1064859999999999
20
-9.8398380000000003
11
3.2969629999999999
21
-9.8398380000000003
0
LINE
8
BLACK
6
CONTINUOUS
10
3.2969629999999999
20
-9.8398380000000003
11
3.4874389999999997
21
-9.9350759999999987
0
LINE
8
BLACK
6
CONTINUOUS
10
3.4874389999999997
20
-9.9350759999999987
11
3.5826769999999999
21
-10.0303139999999988
0
LINE
8
BLACK
6
CONTINUOUS
10
3.5826769999999999
20
-10.0303139999999988
11
3.677915
21
-10.2207899999999992
0
LINE
8
BLACK
6
CONTINUOUS
10
3.677915
20
-10.2207899999999992
11
3.7731529999999998
21
-10.6017419999999998
0
LINE
8
BLACK
6
CONTINUOUS
10
3.7731529999999998
20
-10.6017419999999998
11
3.7731529999999998
21
-11.0779329999999998
0
LINE
8
BLACK
6
CONTINUOUS
10
3.7731529999999998
20
-11.0779329999999998
11
3.677915
21
-11.4588849999999987
0
LINE
8
BLACK
6
CONTINUOUS
10
3.677915
20
-11.4588849999999987
11
3.5826769999999999
21
-11.649360999999999
0
LINE
8
BLACK
6
CONTINUOUS
10
3.5826769999999999
20
-11.649360999999999
11
3.4874389999999997
21
-11.7446000000000002
0
LINE
8
BLACK
6
CONTINUOUS
10
3.4874389999999997
20
-11.7446000000000002
11
3.2969629999999999
21
-11.8398380000000003
0
LINE
8
BLACK
6
CONTINUOUS
10
3.2969629999999999
20
-11.8398380000000003
11
3.1064859999999999
21
-11.8398380000000003
0
LINE
8
BLACK
6
CONTINUOUS
10
3.1064859999999999
20
-11.8398380000000003
11
2.91601
21
-11.7446000000000002
0
LINE
8
BLACK
6
CONTINUOUS
10
2.91601
20
-11.7446000000000002
11
2.8207719999999998
21
-11.649360999999999
0
LINE
8
BLACK
6
CONTINUOUS
10
2.8207719999999998
20
-11.649360999999999
11
2.7255339999999997
21
-11.4588849999999987
0
LINE
8
BLACK
6
CONTINUOUS
10
2.7255339999999997
20
-11.4588849999999987
11
2.630296
21
-11.0779329999999998
0
LINE
8
BLACK
6
CONTINUOUS
10
2.630296
20
-11.0779329999999998
11
2.630296
21
-10.6017419999999998
0
LINE
8
BLACK
6
CONTINUOUS
10
2.630296
20
-10.6017419999999998
11
2.7255339999999997
21
-10.2207899999999992
0
LINE
8
BLACK
6
CONTINUOUS
10
2.7255339999999997
20
-10.2207899999999992
11
2.8207719999999998
21
-10.0303139999999988
0
LINE
8
BLACK
6
CONTINUOUS
10
2.8207719999999998
20
-10.0303139999999988
11
2.91601
21
-9.9350759999999987
0
LINE
8
BLACK
6
CONTINUOUS
10
2.91601
20
-9.9350759999999987
11
3.1064859999999999
21
-9.8398380000000003
0
LINE
8
BLACK
6
CONTINUOUS
10
5.0112480000000001
20
-9.8398380000000003
11
5.2017249999999997
21
-9.8398380000000003
0
LINE
8
BLACK
6
CONTINUOUS
10
5.2017249999999997
20
-9.8398380000000003
11
5.392201
21
-9.9350759999999987
0
LINE
8
BLACK
6
CONTINUOUS
10
5.392201
20
-9.9350759999999987
11
5.4874390000000002
21
-10.0303139999999988
0
LINE
8
BLACK
6
CONTINUOUS
10
5.4874390000000002
20
-10.0303139999999988
11
5.5826769999999994
21
-10.2207899999999992
0
LINE
8
BLACK
6
CONTINUOUS
10
5.5826769999999994
20
-10.2207899999999992
11
5.6779149999999996
21
-10.6017419999999998
0
LINE
8
BLACK
6
CONTINUOUS
10
5.6779149999999996
20
-10.6017419999999998
11
5.6779149999999996
21
-11.0779329999999998
0
LINE
8
BLACK
6
CONTINUOUS
10
5.6779149999999996
20
-11.0779329999999998
11
5.5826769999999994
21
-11.4588849999999987
0
LINE
8
BLACK
6
CONTINUOUS
10
5.5826769999999994
20
-11.4588849999999987
11
5.4874390000000002
21
-11.649360999999999
0
LINE
8
BLACK
6
CONTINUOUS
10
5.4874390000000002
20
-11.649360999999999
11
5.392201
21
-11.7446000000000002
0
LINE
8
BLACK
6
CONTINUOUS
10
5.392201
20
-11.7446000000000002
11
5.2017249999999997
21
-11.8398380000000003
0
LINE
8
BLACK
6
CONTINUOUS
10
5.2017249999999997
20
-11.8398380000000003
11
5.0112480000000001
21
-11.8398380000000003
0
LINE
8
BLACK
6
CONTINUOUS
10
5.0112480000000001
20
-11.8398380000000003
11
4.8207719999999998
21
-11.7446000000000002
0
LINE
8
BLACK
6
CONTINUOUS
10
4.8207719999999998
20
-11.7446000000000002
11
4.7255339999999997
21
-11.649360999999999
0
LINE
8
BLACK
6
CONTINUOUS
10
4.7255339999999997
20
-11.649360999999999
11
4.6302959999999995
21
-11.4588849999999987
0
LINE
8
BLACK
6
CONTINUOUS
10
4.6302959999999995
20
-11.4588849999999987
11
4.5350579999999994
21
-11.0779329999999998
0
LINE
8
BLACK
6
CONTINUOUS
10
4.5350579999999994
20
-11.0779329999999998
11
4.5350579999999994
21
-10.6017419999999998
0
LINE
8
BLACK
6
CONTINUOUS
10
4.5350579999999994
20
-10.6017419999999998
11
4.6302959999999995
21
-10.2207899999999992
0
LINE
8
BLACK
6
CONTINUOUS
10
4.6302959999999995
20
-10.2207899999999992
11
4.7255339999999997
21
-10.0303139999999988
0
LINE
8
BLACK
6
CONTINUOUS
10
4.7255339999999997
20
-10.0303139999999988
11
4.8207719999999998
21
-9.9350759999999987
0
LINE
8
BLACK
6
CONTINUOUS
10
4.8207719999999998
20
-9.9350759999999987
11
5.0112480000000001
21
-9.8398380000000003
0
LINE
8
BLACK
6
CONTINUOUS
10
6.5350579999999994
20
-11.8398380000000003
11
6.5350579999999994
21
-10.5065039999999996
0
LINE
8
BLACK
6
CONTINUOUS
10
6.5350579999999994
20
-10.6969799999999999
11
6.6302959999999995
21
-10.6017419999999998
0
LINE
8
BLACK
6
CONTINUOUS
10
6.6302959999999995
20
-10.6017419999999998
11
6.8207719999999998
21
-10.5065039999999996
0
LINE
8
BLACK
6
CONTINUOUS
10
6.8207719999999998
20
-10.5065039999999996
11
7.1064869999999996
21
-10.5065039999999996
0
LINE
8
BLACK
6
CONTINUOUS
10
7.1064869999999996
20
-10.5065039999999996
11
7.2969629999999999
21
-10.6017419999999998
0
LINE
8
BLACK
6
CONTINUOUS
10
7.2969629999999999
20
-10.6017419999999998
11
7.392201
21
-10.7922189999999993
0
LINE
8
BLACK
6
CONTINUOUS
10
7.392201
20
-10.7922189999999993
11
7.392201
21
-11.8398380000000003
0
LINE
8
BLACK
6
CONTINUOUS
10
7.392201
20
-10.7922189999999993
11
7.4874389999999993
21
-10.6017419999999998
0
LINE
8
BLACK
6
CONTINUOUS
10
7.4874389999999993
20
-10.6017419999999998
11
7.6779149999999996
21
-10.5065039999999996
0
LINE
8
BLACK
6
CONTINUOUS
10
7.6779149999999996
20
-10.5065039999999996
11
7.9636290000000001
21
-10.5065039999999996
0
LINE
8
BLACK
6
CONTINUOUS
10
7.9636290000000001
20
-10.5065039999999996
11
8.1541059999999987
21
-10.6017419999999998
0
LINE
8
BLACK
6
CONTINUOUS
10
8.1541059999999987
20
-10.6017419999999998
11
8.2493439999999989
21
-10.7922189999999993
0
LINE
8
BLACK
6
CONTINUOUS
10
8.2493439999999989
20
-10.7922189999999993
11
8.2493439999999989
21
-11.8398380000000003
0
LINE
8
BLACK
6
CONTINUOUS
10
9.2017249999999997
20
-11.8398380000000003
11
9.2017249999999997
21
-10.5065039999999996
0
LINE
8
BLACK
6
CONTINUOUS
10
9.2017249999999997
20
-10.6969799999999999
11
9.2969629999999999
21
-10.6017419999999998
0
LINE
8
BLACK
6
CONTINUOUS
10
9.2969629999999999
20
-10.6017419999999998
11
9.4874390000000002
21
-10.5065039999999996
0
LINE
8
BLACK
6
CONTINUOUS
10
9.4874390000000002
20
-10.5065039999999996
11
9.7731539999999999
21
-10.5065039999999996
0
LINE
8
BLACK
6
CONTINUOUS
10
9.7731539999999999
20
-10.5065039999999996
11
9.9636300000000002
21
-10.6017419999999998
0
LINE
8
BLACK
6
CONTINUOUS
10
9.9636300000000002
20
-10.6017419999999998
11
10.0588680000000004
21
-10.7922189999999993
0
LINE
8
BLACK
6
CONTINUOUS
10
10.0588680000000004
20
-10.7922189999999993
11
10.0588680000000004
21
-11.8398380000000003
0
LINE
8
BLACK
6
CONTINUOUS
10
10.0588680000000004
20
-10.7922189999999993
11
10.1541059999999987
21
-10.6017419999999998
0
LINE
8
BLACK
6
CONTINUOUS
10
10.1541059999999987
20
-10.6017419999999998
11
10.3445819999999991
21
-10.5065039999999996
0
LINE
8
BLACK
6
CONTINUOUS
10
10.3445819999999991
20
-10.5065039999999996
11
10.6302959999999995
21
-10.5065039999999996
0
LINE
8
BLACK
6
CONTINUOUS
10
10.6302959999999995
20
-10.5065039999999996
11
10.8207729999999991
21
-10.6017419999999998
0
LINE
8
BLACK
6
CONTINUOUS
10
10.8207729999999991
20
-10.6017419999999998
11
10.9160109999999992
21
-10.7922189999999993
0
LINE
8
BLACK
6
CONTINUOUS
10
10.9160109999999992
20
-10.7922189999999993
11
10.9160109999999992
21
-11.8398380000000003
0
LINE
8
BLACK
6
CONTINUOUS
10
14.8207729999999991
20
-9.7446000000000002
11
13.1064879999999988
21
-12.3160279999999993
0
LINE
8
BLACK
6
CONTINUOUS
10
17.3922019999999975
20
-9.8398380000000003
11
17.5826789999999988
21
-9.8398380000000003
0
LINE
8
BLACK
6
CONTINUOUS
10
17.5826789999999988
20
-9.8398380000000003
11
17.7731549999999991
21
-9.9350759999999987
0
LINE
8
BLACK
6
CONTINUOUS
10
17.7731549999999991
20
-9.9350759999999987
11
17.8683929999999975
21
-10.0303139999999988
0
LINE
8
BLACK
6
CONTINUOUS
10
17.8683929999999975
20
-10.0303139999999988
11
17.9636309999999995
21
-10.2207899999999992
0
LINE
8
BLACK
6
CONTINUOUS
10
17.9636309999999995
20
-10.2207899999999992
11
18.0588689999999978
21
-10.6017419999999998
0
LINE
8
BLACK
6
CONTINUOUS
10
18.0588689999999978
20
-10.6017419999999998
11
18.0588689999999978
21
-11.0779329999999998
0
LINE
8
BLACK
6
CONTINUOUS
10
18.0588689999999978
20
-11.0779329999999998
11
17.9636309999999995
21
-11.4588849999999987
0
LINE
8
BLACK
6
CONTINUOUS
10
17.9636309999999995
20
-11.4588849999999987
11
17.8683929999999975
21
-11.649360999999999
0
LINE
8
BLACK
6
CONTINUOUS
10
17.8683929999999975
20
-11.649360999999999
11
17.7731549999999991
21
-11.7446000000000002
0
LINE
8
BLACK
6
CONTINUOUS
10
17.7731549999999991
20
-11.7446000000000002
11
17.5826789999999988
21
-11.8398380000000003
0
LINE
8
BLACK
6
CONTINUOUS
10
17.5826789999999988
20
-11.8398380000000003
11
17.3922019999999975
21
-11.8398380000000003
0
LINE
8
BLACK
6
CONTINUOUS
10
17.3922019999999975
20
-11.8398380000000003
11
17.2017260000000007
21
-11.7446000000000002
0
LINE
8
BLACK
6
CONTINUOUS
10
17.2017260000000007
20
-11.7446000000000002
11
17.1064879999999988
21
-11.649360999999999
0
LINE
8
BLACK
6
CONTINUOUS
10
17.1064879999999988
20
-11.649360999999999
11
17.0112500000000004
21
-11.4588849999999987
0
LINE
8
BLACK
6
CONTINUOUS
10
17.0112500000000004
20
-11.4588849999999987
11
16.9160119999999985
21
-11.0779329999999998
0
LINE
8
BLACK
6
CONTINUOUS
10
16.9160119999999985
20
-11.0779329999999998
11
16.9160119999999985
21
-10.6017419999999998
0
LINE
8
BLACK
6
CONTINUOUS
10
16.9160119999999985
20
-10.6017419999999998
11
17.0112500000000004
21
-10.2207899999999992
0
LINE
8
BLACK
6
CONTINUOUS
10
17.0112500000000004
20
-10.2207899999999992
11
17.1064879999999988
21
-10.0303139999999988
0
LINE
8
BLACK
6
CONTINUOUS
10
17.1064879999999988
20
-10.0303139999999988
11
17.2017260000000007
21
-9.9350759999999987
0
LINE
8
BLACK
6
CONTINUOUS
10
17.2017260000000007
20
-9.9350759999999987
11
17.3922019999999975
21
-9.8398380000000003
0
LINE
8
BLACK
6
CONTINUOUS
10
18.9160119999999985
20
-11.649360999999999
11
19.0112500000000004
21
-11.7446000000000002
0
LINE
8
BLACK
6
CONTINUOUS
10
19.0112500000000004
20
-11.7446000000000002
11
18.9160119999999985
21
-11.8398380000000003
0
LINE
8
BLACK
6
CONTINUOUS
10
18.9160119999999985
20
-11.8398380000000003
11
18.8207740000000001
21
-11.7446000000000002
0
LINE
8
BLACK
6
CONTINUOUS
10
18.8207740000000001
20
-11.7446000000000002
11
18.9160119999999985
21
-11.649360999999999
0
LINE
8
BLACK
6
CONTINUOUS
10
18.9160119999999985
20
-11.649360999999999
11
18.9160119999999985
21
-11.8398380000000003
0
LINE
8
BLACK
6
CONTINUOUS
10
20.2493449999999982
20
-9.8398380000000003
11
20.4398219999999995
21
-9.8398380000000003
0
LINE
8
BLACK
6
CONTINUOUS
10
20.4398219999999995
20
-9.8398380000000003
11
20.6302979999999998
21
-9.9350759999999987
0
LINE
8
BLACK
6
CONTINUOUS
10
20.6302979999999998
20
-9.9350759999999987
11
20.7255359999999982
21
-10.0303139999999988
0
LINE
8
BLACK
6
CONTINUOUS
10
20.7255359999999982
20
-10.0303139999999988
11
20.8207740000000001
21
-10.2207899999999992
0
LINE
8
BLACK
6
CONTINUOUS
10
20.8207740000000001
20
-10.2207899999999992
11
20.9160119999999985
21
-10.6017419999999998
0
LINE
8
BLACK
6
CONTINUOUS
10
20.9160119999999985
20
-10.6017419999999998
11
20.9160119999999985
21
-11.0779329999999998
0
LINE
8
BLACK
6
CONTINUOUS
10
20.9160119999999985
20
-11.0779329999999998
11
20.8207740000000001
21
-11.4588849999999987
0
LINE
8
BLACK
6
CONTINUOUS
10
20.8207740000000001
20
-11.4588849999999987
11
20.7255359999999982
21
-11.649360999999999
0
LINE
8
BLACK
6
CONTINUOUS
10
20.7255359999999982
20
-11.649360999999999
11
20.6302979999999998
21
-11.7446000000000002
0
LINE
8
BLACK
6
CONTINUOUS
10
20.6302979999999998
20
-11.7446000000000002
11
20.4398219999999995
21
-11.8398380000000003
0
LINE
8
BLACK
6
CONTINUOUS
10
20.4398219999999995
20
-11.8398380000000003
11
20.2493449999999982
21
-11.8398380000000003
0
LINE
8
BLACK
6
CONTINUOUS
10
20.2493449999999982
20
-11.8398380000000003
11
20.0588689999999978
21
-11.7446000000000002
0
LINE
8
BLACK
6
CONTINUOUS
10
20.0588689999999978
20
-11.7446000000000002
11
19.9636309999999995
21
-11.649360999999999
0
LINE
8
BLACK
6
CONTINUOUS
10
19.9636309999999995
20
-11.649360999999999
11
19.8683929999999975
21
-11.4588849999999987
0
LINE
8
BLACK
6
CONTINUOUS
10
19.8683929999999975
20
-11.4588849999999987
11
19.7731549999999991
21
-11.0779329999999998
0
LINE
8
BLACK
6
CONTINUOUS
10
19.7731549999999991
20
-11.0779329999999998
11
19.7731549999999991
21
-10.6017419999999998
0
LINE
8
BLACK
6
CONTINUOUS
10
19.7731549999999991
20
-10.6017419999999998
11
19.8683929999999975
21
-10.2207899999999992
0
LINE
8
BLACK
6
CONTINUOUS
10
19.8683929999999975
20
-10.2207899999999992
11
19.9636309999999995
21
-10.0303139999999988
0
LINE
8
BLACK
6
CONTINUOUS
10
19.9636309999999995
20
-10.0303139999999988
11
20.0588689999999978
21
-9.9350759999999987
0
LINE
8
BLACK
6
CONTINUOUS
10
20.0588689999999978
20
-9.9350759999999987
11
20.2493449999999982
21
-9.8398380000000003
0
LINE
8
BLACK
6
CONTINUOUS
10
22.6302979999999998
20
-10.5065039999999996
11
22.6302979999999998
21
-11.8398380000000003
0
LINE
8
BLACK
6
CONTINUOUS
10
22.1541069999999998
20
-9.7446000000000002
11
21.6779170000000008
21
-11.173171
0
LINE
8
BLACK
6
CONTINUOUS
10
21.6779170000000008
20
-11.173171
11
22.9160119999999985
21
-11.173171
0
LINE
8
BLACK
6
CONTINUOUS
10
23.4874410000000005
20
-9.8398380000000003
11
24.8207740000000001
21
-9.8398380000000003
0
LINE
8
BLACK
6
CONTINUOUS
10
24.8207740000000001
20
-9.8398380000000003
11
23.9636309999999995
21
-11.8398380000000003
0
LINE
8
BLACK
6
CONTINUOUS
10
25.4874410000000005
20
-10.0303139999999988
11
25.5826789999999988
21
-9.9350759999999987
0
LINE
8
BLACK
6
CONTINUOUS
10
25.5826789999999988
20
-9.9350759999999987
11
25.7731549999999991
21
-9.8398380000000003
0
LINE
8
BLACK
6
CONTINUOUS
10
25.7731549999999991
20
-9.8398380000000003
11
26.2493459999999992
21
-9.8398380000000003
0
LINE
8
BLACK
6
CONTINUOUS
10
26.2493459999999992
20
-9.8398380000000003
11
26.4398219999999995
21
-9.9350759999999987
0
LINE
8
BLACK
6
CONTINUOUS
10
26.4398219999999995
20
-9.9350759999999987
11
26.5350599999999979
21
-10.0303139999999988
0
LINE
8
BLACK
6
CONTINUOUS
10
26.5350599999999979
20
-10.0303139999999988
11
26.6302979999999998
21
-10.2207899999999992
0
LINE
8
BLACK
6
CONTINUOUS
10
26.6302979999999998
20
-10.2207899999999992
11
26.6302979999999998
21
-10.4112659999999995
0
LINE
8
BLACK
6
CONTINUOUS
10
26.6302979999999998
20
-10.4112659999999995
11
26.5350599999999979
21
-10.6969799999999999
0
LINE
8
BLACK
6
CONTINUOUS
10
26.5350599999999979
20
-10.6969799999999999
11
25.3922029999999985
21
-11.8398380000000003
0
LINE
8
BLACK
6
CONTINUOUS
10
25.3922029999999985
20
-11.8398380000000003
11
26.6302979999999998
21
-11.8398380000000003
0
LINE
8
BLACK
6
CONTINUOUS
10
27.3922029999999985
20
-9.8398380000000003
11
27.3922029999999985
21
-10.2207899999999992
0
LINE
8
BLACK
6
CONTINUOUS
10
28.1541079999999972
20
-9.8398380000000003
11
28.1541079999999972
21
-10.2207899999999992
0
LINE
8
BLACK
6
CONTINUOUS
10
31.1064899999999973
20
-12.6017419999999998
11
31.0112509999999979
21
-12.5065039999999996
0
LINE
8
BLACK
6
CONTINUOUS
10
31.0112509999999979
20
-12.5065039999999996
11
30.8207749999999976
21
-12.2207899999999992
0
LINE
8
BLACK
6
CONTINUOUS
10
30.8207749999999976
20
-12.2207899999999992
11
30.7255369999999992
21
-12.0303139999999988
0
LINE
8
BLACK
6
CONTINUOUS
10
30.7255369999999992
20
-12.0303139999999988
11
30.6302989999999973
21
-11.7446000000000002
0
LINE
8
BLACK
6
CONTINUOUS
10
30.6302989999999973
20
-11.7446000000000002
11
30.5350609999999989
21
-11.2684090000000001
0
LINE
8
BLACK
6
CONTINUOUS
10
30.5350609999999989
20
-11.2684090000000001
11
30.5350609999999989
21
-10.8874569999999995
0
LINE
8
BLACK
6
CONTINUOUS
10
30.5350609999999989
20
-10.8874569999999995
11
30.6302989999999973
21
-10.4112659999999995
0
LINE
8
BLACK
6
CONTINUOUS
10
30.6302989999999973
20
-10.4112659999999995
11
30.7255369999999992
21
-10.125551999999999
0
LINE
8
BLACK
6
CONTINUOUS
10
30.7255369999999992
20
-10.125551999999999
11
30.8207749999999976
21
-9.9350759999999987
0
LINE
8
BLACK
6
CONTINUOUS
10
30.8207749999999976
20
-9.9350759999999987
11
31.0112509999999979
21
-9.649360999999999
0
LINE
8
BLACK
6
CONTINUOUS
10
31.0112509999999979
20
-9.649360999999999
11
31.1064899999999973
21
-9.5541229999999988
0
LINE
8
BLACK
6
CONTINUOUS
10
31.7731560000000002
20
-10.0303139999999988
11
31.8683939999999986
21
-9.9350759999999987
0
LINE
8
BLACK
6
CONTINUOUS
10
31.8683939999999986
20
-9.9350759999999987
11
32.0588699999999989
21
-9.8398380000000003
0
LINE
8
BLACK
6
CONTINUOUS
10
32.0588699999999989
20
-9.8398380000000003
11
32.5350609999999989
21
-9.8398380000000003
0
LINE
8
BLACK
6
CONTINUOUS
10
32.5350609999999989
20
-9.8398380000000003
11
32.7255369999999957
21
-9.9350759999999987
0
LINE
8
BLACK
6
CONTINUOUS
10
32.7255369999999957
20
-9.9350759999999987
11
32.8207749999999976
21
-10.0303139999999988
0
LINE
8
BLACK
6
CONTINUOUS
10
32.8207749999999976
20
-10.0303139999999988
11
32.9160129999999995
21
-10.2207899999999992
0
LINE
8
BLACK
6
CONTINUOUS
10
32.9160129999999995
20
-10.2207899999999992
11
32.9160129999999995
21
-10.4112659999999995
0
LINE
8
BLACK
6
CONTINUOUS
10
32.9160129999999995
20
-10.4112659999999995
11
32.8207749999999976
21
-10.6969799999999999
0
LINE
8
BLACK
6
CONTINUOUS
10
32.8207749999999976
20
-10.6969799999999999
11
31.6779179999999982
21
-11.8398380000000003
0
LINE
8
BLACK
6
CONTINUOUS
10
31.6779179999999982
20
-11.8398380000000003
11
32.9160129999999995
21
-11.8398380000000003
0
LINE
8
BLACK
6
CONTINUOUS
10
35.2969659999999976
20
-11.8398380000000003
11
35.2969659999999976
21
-9.8398380000000003
0
LINE
8
BLACK
6
CONTINUOUS
10
36.1541089999999983
20
-11.8398380000000003
11
36.1541089999999983
21
-10.7922189999999993
0
LINE
8
BLACK
6
CONTINUOUS
10
36.1541089999999983
20
-10.7922189999999993
11
36.0588709999999963
21
-10.6017419999999998
0
LINE
8
BLACK
6
CONTINUOUS
10
36.0588709999999963
20
-10.6017419999999998
11
35.8683949999999996
21
-10.5065039999999996
0
LINE
8
BLACK
6
CONTINUOUS
10
35.8683949999999996
20
-10.5065039999999996
11
35.5826799999999963
21
-10.5065039999999996
0
LINE
8
BLACK
6
CONTINUOUS
10
35.5826799999999963
20
-10.5065039999999996
11
35.3922039999999996
21
-10.6017419999999998
0
LINE
8
BLACK
6
CONTINUOUS
10
35.3922039999999996
20
-10.6017419999999998
11
35.2969659999999976
21
-10.6969799999999999
0
LINE
8
BLACK
6
CONTINUOUS
10
37.3922039999999996
20
-11.8398380000000003
11
37.2017279999999957
21
-11.7446000000000002
0
LINE
8
BLACK
6
CONTINUOUS
10
37.2017279999999957
20
-11.7446000000000002
11
37.1064900000000009
21
-11.649360999999999
0
LINE
8
BLACK
6
CONTINUOUS
10
37.1064900000000009
20
-11.649360999999999
11
37.0112519999999989
21
-11.4588849999999987
0
LINE
8
BLACK
6
CONTINUOUS
10
37.0112519999999989
20
-11.4588849999999987
11
37.0112519999999989
21
-10.8874569999999995
0
LINE
8
BLACK
6
CONTINUOUS
10
37.0112519999999989
20
-10.8874569999999995
11
37.1064900000000009
21
-10.6969799999999999
0
LINE
8
BLACK
6
CONTINUOUS
10
37.1064900000000009
20
-10.6969799999999999
11
37.2017279999999957
21
-10.6017419999999998
0
LINE
8
BLACK
6
CONTINUOUS
10
37.2017279999999957
20
-10.6017419999999998
11
37.3922039999999996
21
-10.5065039999999996
0
LINE
8
BLACK
6
CONTINUOUS
10
37.3922039999999996
20
-10.5065039999999996
11
37.6779189999999957
21
-10.5065039999999996
0
LINE
8
BLACK
6
CONTINUOUS
10
37.6779189999999957
20
-10.5065039999999996
11
37.8683949999999996
21
-10.6017419999999998
0
LINE
8
BLACK
6
CONTINUOUS
10
37.8683949999999996
20
-10.6017419999999998
11
37.9636330000000015
21
-10.6969799999999999
0
LINE
8
BLACK
6
CONTINUOUS
10
37.9636330000000015
20
-10.6969799999999999
11
38.0588709999999963
21
-10.8874569999999995
0
LINE
8
BLACK
6
CONTINUOUS
10
38.0588709999999963
20
-10.8874569999999995
11
38.0588709999999963
21
-11.4588849999999987
0
LINE
8
BLACK
6
CONTINUOUS
10
38.0588709999999963
20
-11.4588849999999987
11
37.9636330000000015
21
-11.649360999999999
0
LINE
8
BLACK
6
CONTINUOUS
10
37.9636330000000015
20
-11.649360999999999
11
37.8683949999999996
21
-11.7446000000000002
0
LINE
8
BLACK
6
CONTINUOUS
10
37.8683949999999996
20
-11.7446000000000002
11
37.6779189999999957
21
-11.8398380000000003
0
LINE
8
BLACK
6
CONTINUOUS
10
37.6779189999999957
20
-11.8398380000000003
11
37.3922039999999996
21
-11.8398380000000003
0
LINE
8
BLACK
6
CONTINUOUS
10
39.2017279999999957
20
-11.8398380000000003
11
39.0112519999999989
21
-11.7446000000000002
0
LINE
8
BLACK
6
CONTINUOUS
10
39.0112519999999989
20
-11.7446000000000002
11
38.916013999999997
21
-11.5541229999999988
0
LINE
8
BLACK
6
CONTINUOUS
10
38.916013999999997
20
-11.5541229999999988
11
38.916013999999997
21
-9.8398380000000003
0
LINE
8
BLACK
6
CONTINUOUS
10
40.7255380000000002
20
-11.7446000000000002
11
40.5350619999999964
21
-11.8398380000000003
0
LINE
8
BLACK
6
CONTINUOUS
10
40.5350619999999964
20
-11.8398380000000003
11
40.1541089999999983
21
-11.8398380000000003
0
LINE
8
BLACK
6
CONTINUOUS
10
40.1541089999999983
20
-11.8398380000000003
11
39.9636330000000015
21
-11.7446000000000002
0
LINE
8
BLACK
6
CONTINUOUS
10
39.9636330000000015
20
-11.7446000000000002
11
39.8683949999999996
21
-11.5541229999999988
0
LINE
8
BLACK
6
CONTINUOUS
10
39.8683949999999996
20
-11.5541229999999988
11
39.8683949999999996
21
-10.7922189999999993
0
LINE
8
BLACK
6
CONTINUOUS
10
39.8683949999999996
20
-10.7922189999999993
11
39.9636330000000015
21
-10.6017419999999998
0
LINE
8
BLACK
6
CONTINUOUS
10
39.9636330000000015
20
-10.6017419999999998
11
40.1541089999999983
21
-10.5065039999999996
0
LINE
8
BLACK
6
CONTINUOUS
10
40.1541089999999983
20
-10.5065039999999996
11
40.5350619999999964
21
-10.5065039999999996
0
LINE
8
BLACK
6
CONTINUOUS
10
40.5350619999999964
20
-10.5065039999999996
11
40.7255380000000002
21
-10.6017419999999998
0
LINE
8
BLACK
6
CONTINUOUS
10
40.7255380000000002
20
-10.6017419999999998
11
40.8207759999999951
21
-10.7922189999999993
0
LINE
8
BLACK
6
CONTINUOUS
10
40.8207759999999951
20
-10.7922189999999993
11
40.8207759999999951
21
-10.9826949999999997
0
LINE
8
BLACK
6
CONTINUOUS
10
40.8207759999999951
20
-10.9826949999999997
11
39.8683949999999996
21
-11.173171
0
LINE
8
BLACK
6
CONTINUOUS
10
41.5826810000000009
20
-11.7446000000000002
11
41.7731569999999977
21
-11.8398380000000003
0
LINE
8
BLACK
6
CONTINUOUS
10
41.7731569999999977
20
-11.8398380000000003
11
42.1541089999999983
21
-11.8398380000000003
0
LINE
8
BLACK
6
CONTINUOUS
10
42.1541089999999983
20
-11.8398380000000003
11
42.3445859999999996
21
-11.7446000000000002
0
LINE
8
BLACK
6
CONTINUOUS
10
42.3445859999999996
20
-11.7446000000000002
11
42.4398240000000015
21
-11.5541229999999988
0
LINE
8
BLACK
6
CONTINUOUS
10
42.4398240000000015
20
-11.5541229999999988
11
42.4398240000000015
21
-11.4588849999999987
0
LINE
8
BLACK
6
CONTINUOUS
10
42.4398240000000015
20
-11.4588849999999987
11
42.3445859999999996
21
-11.2684090000000001
0
LINE
8
BLACK
6
CONTINUOUS
10
42.3445859999999996
20
-11.2684090000000001
11
42.1541089999999983
21
-11.173171
0
LINE
8
BLACK
6
CONTINUOUS
10
42.1541089999999983
20
-11.173171
11
41.8683949999999996
21
-11.173171
0
LINE
8
BLACK
6
CONTINUOUS
10
41.8683949999999996
20
-11.173171
11
41.6779189999999957
21
-11.0779329999999998
0
LINE
8
BLACK
6
CONTINUOUS
10
41.6779189999999957
20
-11.0779329999999998
11
41.5826810000000009
21
-10.8874569999999995
0
LINE
8
BLACK
6
CONTINUOUS
10
41.5826810000000009
20
-10.8874569999999995
11
41.5826810000000009
21
-10.7922189999999993
0
LINE
8
BLACK
6
CONTINUOUS
10
41.5826810000000009
20
-10.7922189999999993
11
41.6779189999999957
21
-10.6017419999999998
0
LINE
8
BLACK
6
CONTINUOUS
10
41.6779189999999957
20
-10.6017419999999998
11
41.8683949999999996
21
-10.5065039999999996
0
LINE
8
BLACK
6
CONTINUOUS
10
41.8683949999999996
20
-10.5065039999999996
11
42.1541089999999983
21
-10.5065039999999996
0
LINE
8
BLACK
6
CONTINUOUS
10
42.1541089999999983
20
-10.5065039999999996
11
42.3445859999999996
21
-10.6017419999999998
0
LINE
8
BLACK
6
CONTINUOUS
10
43.1064909999999983
20
-12.6017419999999998
11
43.2017290000000003
21
-12.5065039999999996
0
LINE
8
BLACK
6
CONTINUOUS
10
43.2017290000000003
20
-12.5065039999999996
11
43.392204999999997
21
-12.2207899999999992
0
LINE
8
BLACK
6
CONTINUOUS
10
43.392204999999997
20
-12.2207899999999992
11
43.487442999999999
21
-12.0303139999999988
0
LINE
8
BLACK
6
CONTINUOUS
10
43.487442999999999
20
-12.0303139999999988
11
43.5826810000000009
21
-11.7446000000000002
0
LINE
8
BLACK
6
CONTINUOUS
10
43.5826810000000009
20
-11.7446000000000002
11
43.6779189999999957
21
-11.2684090000000001
0
LINE
8
BLACK
6
CONTINUOUS
10
43.6779189999999957
20
-11.2684090000000001
11
43.6779189999999957
21
-10.8874569999999995
0
LINE
8
BLACK
6
CONTINUOUS
10
43.6779189999999957
20
-10.8874569999999995
11
43.5826810000000009
21
-10.4112659999999995
0
LINE
8
BLACK
6
CONTINUOUS
10
43.5826810000000009
20
-10.4112659999999995
11
43.487442999999999
21
-10.125551999999999
0
LINE
8
BLACK
6
CONTINUOUS
10
43.487442999999999
20
-10.125551999999999
11
43.392204999999997
21
-9.9350759999999987
0
LINE
8
BLACK
6
CONTINUOUS
10
43.392204999999997
20
-9.9350759999999987
11
43.2017290000000003
21
-9.649360999999999
0
LINE
8
BLACK
6
CONTINUOUS
10
43.2017290000000003
20
-9.649360999999999
11
43.1064909999999983
21
-9.5541229999999988
0
LINE
8
BLACK
6
CONTINUOUS
10
46.7255389999999977
20
-12.6017419999999998
11
46.6302999999999983
21
-12.5065039999999996
0
LINE
8
BLACK
6
CONTINUOUS
10
46.6302999999999983
20
-12.5065039999999996
11
46.4398239999999944
21
-12.2207899999999992
0
LINE
8
BLACK
6
CONTINUOUS
10
46.4398239999999944
20
-12.2207899999999992
11
46.3445859999999996
21
-12.0303139999999988
0
LINE
8
BLACK
6
CONTINUOUS
10
46.3445859999999996
20
-12.0303139999999988
11
46.2493479999999977
21
-11.7446000000000002
0
LINE
8
BLACK
6
CONTINUOUS
10
46.2493479999999977
20
-11.7446000000000002
11
46.1541099999999958
21
-11.2684090000000001
0
LINE
8
BLACK
6
CONTINUOUS
10
46.1541099999999958
20
-11.2684090000000001
11
46.1541099999999958
21
-10.8874569999999995
0
LINE
8
BLACK
6
CONTINUOUS
10
46.1541099999999958
20
-10.8874569999999995
11
46.2493479999999977
21
-10.4112659999999995
0
LINE
8
BLACK
6
CONTINUOUS
10
46.2493479999999977
20
-10.4112659999999995
11
46.3445859999999996
21
-10.125551999999999
0
LINE
8
BLACK
6
CONTINUOUS
10
46.3445859999999996
20
-10.125551999999999
11
46.4398239999999944
21
-9.9350759999999987
0
LINE
8
BLACK
6
CONTINUOUS
10
46.4398239999999944
20
-9.9350759999999987
11
46.6302999999999983
21
-9.649360999999999
0
LINE
8
BLACK
6
CONTINUOUS
10
46.6302999999999983
20
-9.649360999999999
11
46.7255389999999977
21
-9.5541229999999988
0
LINE
8
BLACK
6
CONTINUOUS
10
47.487442999999999
20
-10.5065039999999996
11
47.487442999999999
21
-11.8398380000000003
0
LINE
8
BLACK
6
CONTINUOUS
10
47.487442999999999
20
-10.6969799999999999
11
47.5826810000000009
21
-10.6017419999999998
0
LINE
8
BLACK
6
CONTINUOUS
10
47.5826810000000009
20
-10.6017419999999998
11
47.7731569999999977
21
-10.5065039999999996
0
LINE
8
BLACK
6
CONTINUOUS
10
47.7731569999999977
20
-10.5065039999999996
11
48.0588720000000009
21
-10.5065039999999996
0
LINE
8
BLACK
6
CONTINUOUS
10
48.0588720000000009
20
-10.5065039999999996
11
48.2493479999999977
21
-10.6017419999999998
0
LINE
8
BLACK
6
CONTINUOUS
10
48.2493479999999977
20
-10.6017419999999998
11
48.3445859999999996
21
-10.7922189999999993
0
LINE
8
BLACK
6
CONTINUOUS
10
48.3445859999999996
20
-10.7922189999999993
11
48.3445859999999996
21
-11.8398380000000003
0
LINE
8
BLACK
6
CONTINUOUS
10
49.5826810000000009
20
-11.8398380000000003
11
49.392204999999997
21
-11.7446000000000002
0
LINE
8
BLACK
6
CONTINUOUS
10
49.392204999999997
20
-11.7446000000000002
11
49.2969669999999951
21
-11.649360999999999
0
LINE
8
BLACK
6
CONTINUOUS
10
49.2969669999999951
20
-11.649360999999999
11
49.2017290000000003
21
-11.4588849999999987
0
LINE
8
BLACK
6
CONTINUOUS
10
49.2017290000000003
20
-11.4588849999999987
11
49.2017290000000003
21
-10.8874569999999995
0
LINE
8
BLACK
6
CONTINUOUS
10
49.2017290000000003
20
-10.8874569999999995
11
49.2969669999999951
21
-10.6969799999999999
0
LINE
8
BLACK
6
CONTINUOUS
10
49.2969669999999951
20
-10.6969799999999999
11
49.392204999999997
21
-10.6017419999999998
0
LINE
8
BLACK
6
CONTINUOUS
10
49.392204999999997
20
-10.6017419999999998
11
49.5826810000000009
21
-10.5065039999999996
0
LINE
8
BLACK
6
CONTINUOUS
10
49.5826810000000009
20
-10.5065039999999996
11
49.8683959999999971
21
-10.5065039999999996
0
LINE
8
BLACK
6
CONTINUOUS
10
49.8683959999999971
20
-10.5065039999999996
11
50.0588720000000009
21
-10.6017419999999998
0
LINE
8
BLACK
6
CONTINUOUS
10
50.0588720000000009
20
-10.6017419999999998
11
50.1541099999999958
21
-10.6969799999999999
0
LINE
8
BLACK
6
CONTINUOUS
10
50.1541099999999958
20
-10.6969799999999999
11
50.2493479999999977
21
-10.8874569999999995
0
LINE
8
BLACK
6
CONTINUOUS
10
50.2493479999999977
20
-10.8874569999999995
11
50.2493479999999977
21
-11.4588849999999987
0
LINE
8
BLACK
6
CONTINUOUS
10
50.2493479999999977
20
-11.4588849999999987
11
50.1541099999999958
21
-11.649360999999999
0
LINE
8
BLACK
6
CONTINUOUS
10
50.1541099999999958
20
-11.649360999999999
11
50.0588720000000009
21
-11.7446000000000002
0
LINE
8
BLACK
6
CONTINUOUS
10
50.0588720000000009
20
-11.7446000000000002
11
49.8683959999999971
21
-11.8398380000000003
0
LINE
8
BLACK
6
CONTINUOUS
10
49.8683959999999971
20
-11.8398380000000003
11
49.5826810000000009
21
-11.8398380000000003
0
LINE
8
BLACK
6
CONTINUOUS
10
50.8207769999999996
20
-10.5065039999999996
11
51.5826810000000009
21
-10.5065039999999996
0
LINE
8
BLACK
6
CONTINUOUS
10
51.1064909999999983
20
-9.8398380000000003
11
51.1064909999999983
21
-11.5541229999999988
0
LINE
8
BLACK
6
CONTINUOUS
10
51.1064909999999983
20
-11.5541229999999988
11
51.2017290000000003
21
-11.7446000000000002
0
LINE
8
BLACK
6
CONTINUOUS
10
51.2017290000000003
20
-11.7446000000000002
11
51.392204999999997
21
-11.8398380000000003
0
LINE
8
BLACK
6
CONTINUOUS
10
51.392204999999997
20
-11.8398380000000003
11
51.5826810000000009
21
-11.8398380000000003
0
LINE
8
BLACK
6
CONTINUOUS
10
53.7731579999999951
20
-10.5065039999999996
11
53.7731579999999951
21
-12.5065039999999996
0
LINE
8
BLACK
6
CONTINUOUS
10
53.7731579999999951
20
-10.6017419999999998
11
53.963633999999999
21
-10.5065039999999996
0
LINE
8
BLACK
6
CONTINUOUS
10
53.963633999999999
20
-10.5065039999999996
11
54.3445869999999971
21
-10.5065039999999996
0
LINE
8
BLACK
6
CONTINUOUS
10
54.3445869999999971
20
-10.5065039999999996
11
54.535063000000001
21
-10.6017419999999998
0
LINE
8
BLACK
6
CONTINUOUS
10
54.535063000000001
20
-10.6017419999999998
11
54.6303009999999958
21
-10.6969799999999999
0
LINE
8
BLACK
6
CONTINUOUS
10
54.6303009999999958
20
-10.6969799999999999
11
54.7255389999999977
21
-10.8874569999999995
0
LINE
8
BLACK
6
CONTINUOUS
10
54.7255389999999977
20
-10.8874569999999995
11
54.7255389999999977
21
-11.4588849999999987
0
LINE
8
BLACK
6
CONTINUOUS
10
54.7255389999999977
20
-11.4588849999999987
11
54.6303009999999958
21
-11.649360999999999
0
LINE
8
BLACK
6
CONTINUOUS
10
54.6303009999999958
20
-11.649360999999999
11
54.535063000000001
21
-11.7446000000000002
0
LINE
8
BLACK
6
CONTINUOUS
10
54.535063000000001
20
-11.7446000000000002
11
54.3445869999999971
21
-11.8398380000000003
0
LINE
8
BLACK
6
CONTINUOUS
10
54.3445869999999971
20
-11.8398380000000003
11
53.963633999999999
21
-11.8398380000000003
0
LINE
8
BLACK
6
CONTINUOUS
10
53.963633999999999
20
-11.8398380000000003
11
53.7731579999999951
21
-11.7446000000000002
0
LINE
8
BLACK
6
CONTINUOUS
10
55.8683959999999971
20
-11.8398380000000003
11
55.6779200000000003
21
-11.7446000000000002
0
LINE
8
BLACK
6
CONTINUOUS
10
55.6779200000000003
20
-11.7446000000000002
11
55.5826819999999984
21
-11.5541229999999988
0
LINE
8
BLACK
6
CONTINUOUS
10
55.5826819999999984
20
-11.5541229999999988
11
55.5826819999999984
21
-9.8398380000000003
0
LINE
8
BLACK
6
CONTINUOUS
10
57.4874439999999964
20
-11.8398380000000003
11
57.4874439999999964
21
-10.7922189999999993
0
LINE
8
BLACK
6
CONTINUOUS
10
57.4874439999999964
20
-10.7922189999999993
11
57.3922059999999945
21
-10.6017419999999998
0
LINE
8
BLACK
6
CONTINUOUS
10
57.3922059999999945
20
-10.6017419999999998
11
57.2017299999999977
21
-10.5065039999999996
0
LINE
8
BLACK
6
CONTINUOUS
10
57.2017299999999977
20
-10.5065039999999996
11
56.8207769999999996
21
-10.5065039999999996
0
LINE
8
BLACK
6
CONTINUOUS
10
56.8207769999999996
20
-10.5065039999999996
11
56.6303009999999958
21
-10.6017419999999998
0
LINE
8
BLACK
6
CONTINUOUS
10
57.4874439999999964
20
-11.7446000000000002
11
57.2969679999999997
21
-11.8398380000000003
0
LINE
8
BLACK
6
CONTINUOUS
10
57.2969679999999997
20
-11.8398380000000003
11
56.8207769999999996
21
-11.8398380000000003
0
LINE
8
BLACK
6
CONTINUOUS
10
56.8207769999999996
20
-11.8398380000000003
11
56.6303009999999958
21
-11.7446000000000002
0
LINE
8
BLACK
6
CONTINUOUS
10
56.6303009999999958
20
-11.7446000000000002
11
56.535063000000001
21
-11.5541229999999988
0
LINE
8
BLACK
6
CONTINUOUS
10
56.535063000000001
20
-11.5541229999999988
11
56.535063000000001
21
-11.3636470000000003
0
LINE
8
BLACK
6
CONTINUOUS
10
56.535063000000001
20
-11.3636470000000003
11
56.6303009999999958
21
-11.173171
0
LINE
8
BLACK
6
CONTINUOUS
10
56.6303009999999958
20
-11.173171
11
56.8207769999999996
21
-11.0779329999999998
0
LINE
8
BLACK
6
CONTINUOUS
10
56.8207769999999996
20
-11.0779329999999998
11
57.2969679999999997
21
-11.0779329999999998
0
LINE
8
BLACK
6
CONTINUOUS
10
57.2969679999999997
20
-11.0779329999999998
11
57.4874439999999964
21
-10.9826949999999997
0
LINE
8
BLACK
6
CONTINUOUS
10
58.1541110000000003
20
-10.5065039999999996
11
58.9160149999999945
21
-10.5065039999999996
0
LINE
8
BLACK
6
CONTINUOUS
10
58.439824999999999
20
-9.8398380000000003
11
58.439824999999999
21
-11.5541229999999988
0
LINE
8
BLACK
6
CONTINUOUS
10
58.439824999999999
20
-11.5541229999999988
11
58.5350629999999938
21
-11.7446000000000002
0
LINE
8
BLACK
6
CONTINUOUS
10
58.5350629999999938
20
-11.7446000000000002
11
58.7255389999999977
21
-11.8398380000000003
0
LINE
8
BLACK
6
CONTINUOUS
10
58.7255389999999977
20
-11.8398380000000003
11
58.9160149999999945
21
-11.8398380000000003
0
LINE
8
BLACK
6
CONTINUOUS
10
60.3445869999999971
20
-11.7446000000000002
11
60.1541110000000003
21
-11.8398380000000003
0
LINE
8
BLACK
6
CONTINUOUS
10
60.1541110000000003
20
-11.8398380000000003
11
59.7731579999999951
21
-11.8398380000000003
0
LINE
8
BLACK
6
CONTINUOUS
10
59.7731579999999951
20
-11.8398380000000003
11
59.5826819999999984
21
-11.7446000000000002
0
LINE
8
BLACK
6
CONTINUOUS
10
59.5826819999999984
20
-11.7446000000000002
11
59.4874439999999964
21
-11.5541229999999988
0
LINE
8
BLACK
6
CONTINUOUS
10
59.4874439999999964
20
-11.5541229999999988
11
59.4874439999999964
21
-10.7922189999999993
0
LINE
8
BLACK
6
CONTINUOUS
10
59.4874439999999964
20
-10.7922189999999993
11
59.5826819999999984
21
-10.6017419999999998
0
LINE
8
BLACK
6
CONTINUOUS
10
59.5826819999999984
20
-10.6017419999999998
11
59.7731579999999951
21
-10.5065039999999996
0
LINE
8
BLACK
6
CONTINUOUS
10
59.7731579999999951
20
-10.5065039999999996
11
60.1541110000000003
21
-10.5065039999999996
0
LINE
8
BLACK
6
CONTINUOUS
10
60.1541110000000003
20
-10.5065039999999996
11
60.3445869999999971
21
-10.6017419999999998
0
LINE
8
BLACK
6
CONTINUOUS
10
60.3445869999999971
20
-10.6017419999999998
11
60.439824999999999
21
-10.7922189999999993
0
LINE
8
BLACK
6
CONTINUOUS
10
60.439824999999999
20
-10.7922189999999993
11
60.439824999999999
21
-10.9826949999999997
0
LINE
8
BLACK
6
CONTINUOUS
10
60.439824999999999
20
-10.9826949999999997
11
59.4874439999999964
21
-11.173171
0
LINE
8
BLACK
6
CONTINUOUS
10
62.1541110000000003
20
-11.8398380000000003
11
62.1541110000000003
21
-9.8398380000000003
0
LINE
8
BLACK
6
CONTINUOUS
10
62.1541110000000003
20
-11.7446000000000002
11
61.9636349999999965
21
-11.8398380000000003
0
LINE
8
BLACK
6
CONTINUOUS
10
61.9636349999999965
20
-11.8398380000000003
11
61.5826819999999984
21
-11.8398380000000003
0
LINE
8
BLACK
6
CONTINUOUS
10
61.5826819999999984
20
-11.8398380000000003
11
61.3922059999999945
21
-11.7446000000000002
0
LINE
8
BLACK
6
CONTINUOUS
10
61.3922059999999945
20
-11.7446000000000002
11
61.2969679999999997
21
-11.649360999999999
0
LINE
8
BLACK
6
CONTINUOUS
10
61.2969679999999997
20
-11.649360999999999
11
61.2017299999999977
21
-11.4588849999999987
0
LINE
8
BLACK
6
CONTINUOUS
10
61.2017299999999977
20
-11.4588849999999987
11
61.2017299999999977
21
-10.8874569999999995
0
LINE
8
BLACK
6
CONTINUOUS
10
61.2017299999999977
20
-10.8874569999999995
11
61.2969679999999997
21
-10.6969799999999999
0
LINE
8
BLACK
6
CONTINUOUS
10
61.2969679999999997
20
-10.6969799999999999
11
61.3922059999999945
21
-10.6017419999999998
0
LINE
8
BLACK
6
CONTINUOUS
10
61.3922059999999945
20
-10.6017419999999998
11
61.5826819999999984
21
-10.5065039999999996
0
LINE
8
BLACK
6
CONTINUOUS
10
61.5826819999999984
20
-10.5065039999999996
11
61.9636349999999965
21
-10.5065039999999996
0
LINE
8
BLACK
6
CONTINUOUS
10
61.9636349999999965
20
-10.5065039999999996
11
62.1541110000000003
21
-10.6017419999999998
0
LINE
8
BLACK
6
CONTINUOUS
10
62.9160159999999991
20
-12.6017419999999998
11
63.0112539999999939
21
-12.5065039999999996
0
LINE
8
BLACK
6
CONTINUOUS
10
63.0112539999999939
20
-12.5065039999999996
11
63.2017299999999977
21
-12.2207899999999992
0
LINE
8
BLACK
6
CONTINUOUS
10
63.2017299999999977
20
-12.2207899999999992
11
63.2969679999999997
21
-12.0303139999999988
0
LINE
8
BLACK
6
CONTINUOUS
10
63.2969679999999997
20
-12.0303139999999988
11
63.3922059999999945
21
-11.7446000000000002
0
LINE
8
BLACK
6
CONTINUOUS
10
63.3922059999999945
20
-11.7446000000000002
11
63.4874439999999964
21
-11.2684090000000001
0
LINE
8
BLACK
6
CONTINUOUS
10
63.4874439999999964
20
-11.2684090000000001
11
63.4874439999999964
21
-10.8874569999999995
0
LINE
8
BLACK
6
CONTINUOUS
10
63.4874439999999964
20
-10.8874569999999995
11
63.3922059999999945
21
-10.4112659999999995
0
LINE
8
BLACK
6
CONTINUOUS
10
63.3922059999999945
20
-10.4112659999999995
11
63.2969679999999997
21
-10.125551999999999
0
LINE
8
BLACK
6
CONTINUOUS
10
63.2969679999999997
20
-10.125551999999999
11
63.2017299999999977
21
-9.9350759999999987
0
LINE
8
BLACK
6
CONTINUOUS
10
63.2017299999999977
20
-9.9350759999999987
11
63.0112539999999939
21
-9.649360999999999
0
LINE
8
BLACK
6
CONTINUOUS
10
63.0112539999999939
20
-9.649360999999999
11
62.9160159999999991
21
-9.5541229999999988
0
CIRCLE
8
BLACK
10
-5.644139
20
-13.5649999999999995
40
1.
0
LINE
8
BLACK
6
CONTINUOUS
10
-2.1316090000000001
20
-12.6703139999999994
11
-2.0363709999999999
21
-12.5750759999999993
0
LINE
8
BLACK
6
CONTINUOUS
10
-2.0363709999999999
20
-12.5750759999999993
11
-1.8458949999999998
21
-12.4798379999999991
0
LINE
8
BLACK
6
CONTINUOUS
10
-1.8458949999999998
20
-12.4798379999999991
11
-1.369704
21
-12.4798379999999991
0
LINE
8
BLACK
6
CONTINUOUS
10
-1.369704
20
-12.4798379999999991
11
-1.1792279999999999
21
-12.5750759999999993
0
LINE
8
BLACK
6
CONTINUOUS
10
-1.1792279999999999
20
-12.5750759999999993
11
-1.08399
21
-12.6703139999999994
0
LINE
8
BLACK
6
CONTINUOUS
10
-1.08399
20
-12.6703139999999994
11
-0.988752
21
-12.8607899999999997
0
LINE
8
BLACK
6
CONTINUOUS
10
-0.988752
20
-12.8607899999999997
11
-0.988752
21
-13.051266
0
LINE
8
BLACK
6
CONTINUOUS
10
-0.988752
20
-13.051266
11
-1.08399
21
-13.3369799999999987
0
LINE
8
BLACK
6
CONTINUOUS
10
-1.08399
20
-13.3369799999999987
11
-2.2268469999999998
21
-14.4798379999999991
0
LINE
8
BLACK
6
CONTINUOUS
10
-2.2268469999999998
20
-14.4798379999999991
11
-0.988752
21
-14.4798379999999991
0
LINE
8
BLACK
6
CONTINUOUS
10
-0.131609
20
-14.2893609999999995
11
-0.036371
21
-14.3845999999999989
0
LINE
8
BLACK
6
CONTINUOUS
10
-0.036371
20
-14.3845999999999989
11
-0.131609
21
-14.4798379999999991
0
LINE
8
BLACK
6
CONTINUOUS
10
-0.131609
20
-14.4798379999999991
11
-0.226847
21
-14.3845999999999989
0
LINE
8
BLACK
6
CONTINUOUS
10
-0.226847
20
-14.3845999999999989
11
-0.131609
21
-14.2893609999999995
0
LINE
8
BLACK
6
CONTINUOUS
10
-0.131609
20
-14.2893609999999995
11
-0.131609
21
-14.4798379999999991
0
LINE
8
BLACK
6
CONTINUOUS
10
1.6779149999999998
20
-12.4798379999999991
11
1.2969619999999999
21
-12.4798379999999991
0
LINE
8
BLACK
6
CONTINUOUS
10
1.2969619999999999
20
-12.4798379999999991
11
1.1064859999999999
21
-12.5750759999999993
0
LINE
8
BLACK
6
CONTINUOUS
10
1.1064859999999999
20
-12.5750759999999993
11
1.0112479999999999
21
-12.6703139999999994
0
LINE
8
BLACK
6
CONTINUOUS
10
1.0112479999999999
20
-12.6703139999999994
11
0.8207719999999999
21
-12.9560279999999999
0
LINE
8
BLACK
6
CONTINUOUS
10
0.8207719999999999
20
-12.9560279999999999
11
0.725534
21
-13.3369799999999987
0
LINE
8
BLACK
6
CONTINUOUS
10
0.725534
20
-13.3369799999999987
11
0.725534
21
-14.0988849999999992
0
LINE
8
BLACK
6
CONTINUOUS
10
0.725534
20
-14.0988849999999992
11
0.8207719999999999
21
-14.2893609999999995
0
LINE
8
BLACK
6
CONTINUOUS
10
0.8207719999999999
20
-14.2893609999999995
11
0.91601
21
-14.3845999999999989
0
LINE
8
BLACK
6
CONTINUOUS
10
0.91601
20
-14.3845999999999989
11
1.1064859999999999
21
-14.4798379999999991
0
LINE
8
BLACK
6
CONTINUOUS
10
1.1064859999999999
20
-14.4798379999999991
11
1.487439
21
-14.4798379999999991
0
LINE
8
BLACK
6
CONTINUOUS
10
1.487439
20
-14.4798379999999991
11
1.6779149999999998
21
-14.3845999999999989
0
LINE
8
BLACK
6
CONTINUOUS
10
1.6779149999999998
20
-14.3845999999999989
11
1.773153
21
-14.2893609999999995
0
LINE
8
BLACK
6
CONTINUOUS
10
1.773153
20
-14.2893609999999995
11
1.8683909999999999
21
-14.0988849999999992
0
LINE
8
BLACK
6
CONTINUOUS
10
1.8683909999999999
20
-14.0988849999999992
11
1.8683909999999999
21
-13.6226950000000002
0
LINE
8
BLACK
6
CONTINUOUS
10
1.8683909999999999
20
-13.6226950000000002
11
1.773153
21
-13.4322189999999999
0
LINE
8
BLACK
6
CONTINUOUS
10
1.773153
20
-13.4322189999999999
11
1.6779149999999998
21
-13.3369799999999987
0
LINE
8
BLACK
6
CONTINUOUS
10
1.6779149999999998
20
-13.3369799999999987
11
1.487439
21
-13.2417419999999986
0
LINE
8
BLACK
6
CONTINUOUS
10
1.487439
20
-13.2417419999999986
11
1.1064859999999999
21
-13.2417419999999986
0
LINE
8
BLACK
6
CONTINUOUS
10
1.1064859999999999
20
-13.2417419999999986
11
0.91601
21
-13.3369799999999987
0
LINE
8
BLACK
6
CONTINUOUS
10
0.91601
20
-13.3369799999999987
11
0.8207719999999999
21
-13.4322189999999999
0
LINE
8
BLACK
6
CONTINUOUS
10
0.8207719999999999
20
-13.4322189999999999
11
0.725534
21
-13.6226950000000002
0
LINE
8
BLACK
6
CONTINUOUS
10
3.1064859999999999
20
-12.4798379999999991
11
3.2969629999999999
21
-12.4798379999999991
0
LINE
8
BLACK
6
CONTINUOUS
10
3.2969629999999999
20
-12.4798379999999991
11
3.4874389999999997
21
-12.5750759999999993
0
LINE
8
BLACK
6
CONTINUOUS
10
3.4874389999999997
20
-12.5750759999999993
11
3.5826769999999999
21
-12.6703139999999994
0
LINE
8
BLACK
6
CONTINUOUS
10
3.5826769999999999
20
-12.6703139999999994
11
3.677915
21
-12.8607899999999997
0
LINE
8
BLACK
6
CONTINUOUS
10
3.677915
20
-12.8607899999999997
11
3.7731529999999998
21
-13.2417419999999986
0
LINE
8
BLACK
6
CONTINUOUS
10
3.7731529999999998
20
-13.2417419999999986
11
3.7731529999999998
21
-13.7179329999999986
0
LINE
8
BLACK
6
CONTINUOUS
10
3.7731529999999998
20
-13.7179329999999986
11
3.677915
21
-14.0988849999999992
0
LINE
8
BLACK
6
CONTINUOUS
10
3.677915
20
-14.0988849999999992
11
3.5826769999999999
21
-14.2893609999999995
0
LINE
8
BLACK
6
CONTINUOUS
10
3.5826769999999999
20
-14.2893609999999995
11
3.4874389999999997
21
-14.3845999999999989
0
LINE
8
BLACK
6
CONTINUOUS
10
3.4874389999999997
20
-14.3845999999999989
11
3.2969629999999999
21
-14.4798379999999991
0
LINE
8
BLACK
6
CONTINUOUS
10
3.2969629999999999
20
-14.4798379999999991
11
3.1064859999999999
21
-14.4798379999999991
0
LINE
8
BLACK
6
CONTINUOUS
10
3.1064859999999999
20
-14.4798379999999991
11
2.91601
21
-14.3845999999999989
0
LINE
8
BLACK
6
CONTINUOUS
10
2.91601
20
-14.3845999999999989
11
2.8207719999999998
21
-14.2893609999999995
0
LINE
8
BLACK
6
CONTINUOUS
10
2.8207719999999998
20
-14.2893609999999995
11
2.7255339999999997
21
-14.0988849999999992
0
LINE
8
BLACK
6
CONTINUOUS
10
2.7255339999999997
20
-14.0988849999999992
11
2.630296
21
-13.7179329999999986
0
LINE
8
BLACK
6
CONTINUOUS
10
2.630296
20
-13.7179329999999986
11
2.630296
21
-13.2417419999999986
0
LINE
8
BLACK
6
CONTINUOUS
10
2.630296
20
-13.2417419999999986
11
2.7255339999999997
21
-12.8607899999999997
0
LINE
8
BLACK
6
CONTINUOUS
10
2.7255339999999997
20
-12.8607899999999997
11
2.8207719999999998
21
-12.6703139999999994
0
LINE
8
BLACK
6
CONTINUOUS
10
2.8207719999999998
20
-12.6703139999999994
11
2.91601
21
-12.5750759999999993
0
LINE
8
BLACK
6
CONTINUOUS
10
2.91601
20
-12.5750759999999993
11
3.1064859999999999
21
-12.4798379999999991
0
LINE
8
BLACK
6
CONTINUOUS
10
5.0112480000000001
20
-12.4798379999999991
11
5.2017249999999997
21
-12.4798379999999991
0
LINE
8
BLACK
6
CONTINUOUS
10
5.2017249999999997
20
-12.4798379999999991
11
5.392201
21
-12.5750759999999993
0
LINE
8
BLACK
6
CONTINUOUS
10
5.392201
20
-12.5750759999999993
11
5.4874390000000002
21
-12.6703139999999994
0
LINE
8
BLACK
6
CONTINUOUS
10
5.4874390000000002
20
-12.6703139999999994
11
5.5826769999999994
21
-12.8607899999999997
0
LINE
8
BLACK
6
CONTINUOUS
10
5.5826769999999994
20
-12.8607899999999997
11
5.6779149999999996
21
-13.2417419999999986
0
LINE
8
BLACK
6
CONTINUOUS
10
5.6779149999999996
20
-13.2417419999999986
11
5.6779149999999996
21
-13.7179329999999986
0
LINE
8
BLACK
6
CONTINUOUS
10
5.6779149999999996
20
-13.7179329999999986
11
5.5826769999999994
21
-14.0988849999999992
0
LINE
8
BLACK
6
CONTINUOUS
10
5.5826769999999994
20
-14.0988849999999992
11
5.4874390000000002
21
-14.2893609999999995
0
LINE
8
BLACK
6
CONTINUOUS
10
5.4874390000000002
20
-14.2893609999999995
11
5.392201
21
-14.3845999999999989
0
LINE
8
BLACK
6
CONTINUOUS
10
5.392201
20
-14.3845999999999989
11
5.2017249999999997
21
-14.4798379999999991
0
LINE
8
BLACK
6
CONTINUOUS
10
5.2017249999999997
20
-14.4798379999999991
11
5.0112480000000001
21
-14.4798379999999991
0
LINE
8
BLACK
6
CONTINUOUS
10
5.0112480000000001
20
-14.4798379999999991
11
4.8207719999999998
21
-14.3845999999999989
0
LINE
8
BLACK
6
CONTINUOUS
10
4.8207719999999998
20
-14.3845999999999989
11
4.7255339999999997
21
-14.2893609999999995
0
LINE
8
BLACK
6
CONTINUOUS
10
4.7255339999999997
20
-14.2893609999999995
11
4.6302959999999995
21
-14.0988849999999992
0
LINE
8
BLACK
6
CONTINUOUS
10
4.6302959999999995
20
-14.0988849999999992
11
4.5350579999999994
21
-13.7179329999999986
0
LINE
8
BLACK
6
CONTINUOUS
10
4.5350579999999994
20
-13.7179329999999986
11
4.5350579999999994
21
-13.2417419999999986
0
LINE
8
BLACK
6
CONTINUOUS
10
4.5350579999999994
20
-13.2417419999999986
11
4.6302959999999995
21
-12.8607899999999997
0
LINE
8
BLACK
6
CONTINUOUS
10
4.6302959999999995
20
-12.8607899999999997
11
4.7255339999999997
21
-12.6703139999999994
0
LINE
8
BLACK
6
CONTINUOUS
10
4.7255339999999997
20
-12.6703139999999994
11
4.8207719999999998
21
-12.5750759999999993
0
LINE
8
BLACK
6
CONTINUOUS
10
4.8207719999999998
20
-12.5750759999999993
11
5.0112480000000001
21
-12.4798379999999991
0
LINE
8
BLACK
6
CONTINUOUS
10
6.5350579999999994
20
-14.4798379999999991
11
6.5350579999999994
21
-13.1465040000000002
0
LINE
8
BLACK
6
CONTINUOUS
10
6.5350579999999994
20
-13.3369799999999987
11
6.6302959999999995
21
-13.2417419999999986
0
LINE
8
BLACK
6
CONTINUOUS
10
6.6302959999999995
20
-13.2417419999999986
11
6.8207719999999998
21
-13.1465040000000002
0
LINE
8
BLACK
6
CONTINUOUS
10
6.8207719999999998
20
-13.1465040000000002
11
7.1064869999999996
21
-13.1465040000000002
0
LINE
8
BLACK
6
CONTINUOUS
10
7.1064869999999996
20
-13.1465040000000002
11
7.2969629999999999
21
-13.2417419999999986
0
LINE
8
BLACK
6
CONTINUOUS
10
7.2969629999999999
20
-13.2417419999999986
11
7.392201
21
-13.4322189999999999
0
LINE
8
BLACK
6
CONTINUOUS
10
7.392201
20
-13.4322189999999999
11
7.392201
21
-14.4798379999999991
0
LINE
8
BLACK
6
CONTINUOUS
10
7.392201
20
-13.4322189999999999
11
7.4874389999999993
21
-13.2417419999999986
0
LINE
8
BLACK
6
CONTINUOUS
10
7.4874389999999993
20
-13.2417419999999986
11
7.6779149999999996
21
-13.1465040000000002
0
LINE
8
BLACK
6
CONTINUOUS
10
7.6779149999999996
20
-13.1465040000000002
11
7.9636290000000001
21
-13.1465040000000002
0
LINE
8
BLACK
6
CONTINUOUS
10
7.9636290000000001
20
-13.1465040000000002
11
8.1541059999999987
21
-13.2417419999999986
0
LINE
8
BLACK
6
CONTINUOUS
10
8.1541059999999987
20
-13.2417419999999986
11
8.2493439999999989
21
-13.4322189999999999
0
LINE
8
BLACK
6
CONTINUOUS
10
8.2493439999999989
20
-13.4322189999999999
11
8.2493439999999989
21
-14.4798379999999991
0
LINE
8
BLACK
6
CONTINUOUS
10
9.2017249999999997
20
-14.4798379999999991
11
9.2017249999999997
21
-13.1465040000000002
0
LINE
8
BLACK
6
CONTINUOUS
10
9.2017249999999997
20
-13.3369799999999987
11
9.2969629999999999
21
-13.2417419999999986
0
LINE
8
BLACK
6
CONTINUOUS
10
9.2969629999999999
20
-13.2417419999999986
11
9.4874390000000002
21
-13.1465040000000002
0
LINE
8
BLACK
6
CONTINUOUS
10
9.4874390000000002
20
-13.1465040000000002
11
9.7731539999999999
21
-13.1465040000000002
0
LINE
8
BLACK
6
CONTINUOUS
10
9.7731539999999999
20
-13.1465040000000002
11
9.9636300000000002
21
-13.2417419999999986
0
LINE
8
BLACK
6
CONTINUOUS
10
9.9636300000000002
20
-13.2417419999999986
11
10.0588680000000004
21
-13.4322189999999999
0
LINE
8
BLACK
6
CONTINUOUS
10
10.0588680000000004
20
-13.4322189999999999
11
10.0588680000000004
21
-14.4798379999999991
0
LINE
8
BLACK
6
CONTINUOUS
10
10.0588680000000004
20
-13.4322189999999999
11
10.1541059999999987
21
-13.2417419999999986
0
LINE
8
BLACK
6
CONTINUOUS
10
10.1541059999999987
20
-13.2417419999999986
11
10.3445819999999991
21
-13.1465040000000002
0
LINE
8
BLACK
6
CONTINUOUS
10
10.3445819999999991
20
-13.1465040000000002
11
10.6302959999999995
21
-13.1465040000000002
0
LINE
8
BLACK
6
CONTINUOUS
10
10.6302959999999995
20
-13.1465040000000002
11
10.8207729999999991
21
-13.2417419999999986
0
LINE
8
BLACK
6
CONTINUOUS
10
10.8207729999999991
20
-13.2417419999999986
11
10.9160109999999992
21
-13.4322189999999999
0
LINE
8
BLACK
6
CONTINUOUS
10
10.9160109999999992
20
-13.4322189999999999
11
10.9160109999999992
21
-14.4798379999999991
0
LINE
8
BLACK
6
CONTINUOUS
10
14.8207729999999991
20
-12.3845999999999989
11
13.1064879999999988
21
-14.9560279999999999
0
LINE
8
BLACK
6
CONTINUOUS
10
17.3922019999999975
20
-12.4798379999999991
11
17.5826789999999988
21
-12.4798379999999991
0
LINE
8
BLACK
6
CONTINUOUS
10
17.5826789999999988
20
-12.4798379999999991
11
17.7731549999999991
21
-12.5750759999999993
0
LINE
8
BLACK
6
CONTINUOUS
10
17.7731549999999991
20
-12.5750759999999993
11
17.8683929999999975
21
-12.6703139999999994
0
LINE
8
BLACK
6
CONTINUOUS
10
17.8683929999999975
20
-12.6703139999999994
11
17.9636309999999995
21
-12.8607899999999997
0
LINE
8
BLACK
6
CONTINUOUS
10
17.9636309999999995
20
-12.8607899999999997
11
18.0588689999999978
21
-13.2417419999999986
0
LINE
8
BLACK
6
CONTINUOUS
10
18.0588689999999978
20
-13.2417419999999986
11
18.0588689999999978
21
-13.7179329999999986
0
LINE
8
BLACK
6
CONTINUOUS
10
18.0588689999999978
20
-13.7179329999999986
11
17.9636309999999995
21
-14.0988849999999992
0
LINE
8
BLACK
6
CONTINUOUS
10
17.9636309999999995
20
-14.0988849999999992
11
17.8683929999999975
21
-14.2893609999999995
0
LINE
8
BLACK
6
CONTINUOUS
10
17.8683929999999975
20
-14.2893609999999995
11
17.7731549999999991
21
-14.3845999999999989
0
LINE
8
BLACK
6
CONTINUOUS
10
17.7731549999999991
20
-14.3845999999999989
11
17.5826789999999988
21
-14.4798379999999991
0
LINE
8
BLACK
6
CONTINUOUS
10
17.5826789999999988
20
-14.4798379999999991
11
17.3922019999999975
21
-14.4798379999999991
0
LINE
8
BLACK
6
CONTINUOUS
10
17.3922019999999975
20
-14.4798379999999991
11
17.2017260000000007
21
-14.3845999999999989
0
LINE
8
BLACK
6
CONTINUOUS
10
17.2017260000000007
20
-14.3845999999999989
11
17.1064879999999988
21
-14.2893609999999995
0
LINE
8
BLACK
6
CONTINUOUS
10
17.1064879999999988
20
-14.2893609999999995
11
17.0112500000000004
21
-14.0988849999999992
0
LINE
8
BLACK
6
CONTINUOUS
10
17.0112500000000004
20
-14.0988849999999992
11
16.9160119999999985
21
-13.7179329999999986
0
LINE
8
BLACK
6
CONTINUOUS
10
16.9160119999999985
20
-13.7179329999999986
11
16.9160119999999985
21
-13.2417419999999986
0
LINE
8
BLACK
6
CONTINUOUS
10
16.9160119999999985
20
-13.2417419999999986
11
17.0112500000000004
21
-12.8607899999999997
0
LINE
8
BLACK
6
CONTINUOUS
10
17.0112500000000004
20
-12.8607899999999997
11
17.1064879999999988
21
-12.6703139999999994
0
LINE
8
BLACK
6
CONTINUOUS
10
17.1064879999999988
20
-12.6703139999999994
11
17.2017260000000007
21
-12.5750759999999993
0
LINE
8
BLACK
6
CONTINUOUS
10
17.2017260000000007
20
-12.5750759999999993
11
17.3922019999999975
21
-12.4798379999999991
0
LINE
8
BLACK
6
CONTINUOUS
10
18.9160119999999985
20
-14.2893609999999995
11
19.0112500000000004
21
-14.3845999999999989
0
LINE
8
BLACK
6
CONTINUOUS
10
19.0112500000000004
20
-14.3845999999999989
11
18.9160119999999985
21
-14.4798379999999991
0
LINE
8
BLACK
6
CONTINUOUS
10
18.9160119999999985
20
-14.4798379999999991
11
18.8207740000000001
21
-14.3845999999999989
0
LINE
8
BLACK
6
CONTINUOUS
10
18.8207740000000001
20
-14.3845999999999989
11
18.9160119999999985
21
-14.2893609999999995
0
LINE
8
BLACK
6
CONTINUOUS
10
18.9160119999999985
20
-14.2893609999999995
11
18.9160119999999985
21
-14.4798379999999991
0
LINE
8
BLACK
6
CONTINUOUS
10
20.9160119999999985
20
-14.4798379999999991
11
19.7731549999999991
21
-14.4798379999999991
0
LINE
8
BLACK
6
CONTINUOUS
10
20.3445830000000001
20
-14.4798379999999991
11
20.3445830000000001
21
-12.4798379999999991
0
LINE
8
BLACK
6
CONTINUOUS
10
20.3445830000000001
20
-12.4798379999999991
11
20.1541069999999998
21
-12.7655519999999996
0
LINE
8
BLACK
6
CONTINUOUS
10
20.1541069999999998
20
-12.7655519999999996
11
19.9636309999999995
21
-12.9560279999999999
0
LINE
8
BLACK
6
CONTINUOUS
10
19.9636309999999995
20
-12.9560279999999999
11
19.7731549999999991
21
-13.051266
0
LINE
8
BLACK
6
CONTINUOUS
10
22.1541069999999998
20
-12.4798379999999991
11
22.3445839999999976
21
-12.4798379999999991
0
LINE
8
BLACK
6
CONTINUOUS
10
22.3445839999999976
20
-12.4798379999999991
11
22.5350599999999979
21
-12.5750759999999993
0
LINE
8
BLACK
6
CONTINUOUS
10
22.5350599999999979
20
-12.5750759999999993
11
22.6302979999999998
21
-12.6703139999999994
0
LINE
8
BLACK
6
CONTINUOUS
10
22.6302979999999998
20
-12.6703139999999994
11
22.7255359999999982
21
-12.8607899999999997
0
LINE
8
BLACK
6
CONTINUOUS
10
22.7255359999999982
20
-12.8607899999999997
11
22.8207740000000001
21
-13.2417419999999986
0
LINE
8
BLACK
6
CONTINUOUS
10
22.8207740000000001
20
-13.2417419999999986
11
22.8207740000000001
21
-13.7179329999999986
0
LINE
8
BLACK
6
CONTINUOUS
10
22.8207740000000001
20
-13.7179329999999986
11
22.7255359999999982
21
-14.0988849999999992
0
LINE
8
BLACK
6
CONTINUOUS
10
22.7255359999999982
20
-14.0988849999999992
11
22.6302979999999998
21
-14.2893609999999995
0
LINE
8
BLACK
6
CONTINUOUS
10
22.6302979999999998
20
-14.2893609999999995
11
22.5350599999999979
21
-14.3845999999999989
0
LINE
8
BLACK
6
CONTINUOUS
10
22.5350599999999979
20
-14.3845999999999989
11
22.3445839999999976
21
-14.4798379999999991
0
LINE
8
BLACK
6
CONTINUOUS
10
22.3445839999999976
20
-14.4798379999999991
11
22.1541069999999998
21
-14.4798379999999991
0
LINE
8
BLACK
6
CONTINUOUS
10
22.1541069999999998
20
-14.4798379999999991
11
21.9636309999999995
21
-14.3845999999999989
0
LINE
8
BLACK
6
CONTINUOUS
10
21.9636309999999995
20
-14.3845999999999989
11
21.8683929999999975
21
-14.2893609999999995
0
LINE
8
BLACK
6
CONTINUOUS
10
21.8683929999999975
20
-14.2893609999999995
11
21.7731549999999991
21
-14.0988849999999992
0
LINE
8
BLACK
6
CONTINUOUS
10
21.7731549999999991
20
-14.0988849999999992
11
21.6779170000000008
21
-13.7179329999999986
0
LINE
8
BLACK
6
CONTINUOUS
10
21.6779170000000008
20
-13.7179329999999986
11
21.6779170000000008
21
-13.2417419999999986
0
LINE
8
BLACK
6
CONTINUOUS
10
21.6779170000000008
20
-13.2417419999999986
11
21.7731549999999991
21
-12.8607899999999997
0
LINE
8
BLACK
6
CONTINUOUS
10
21.7731549999999991
20
-12.8607899999999997
11
21.8683929999999975
21
-12.6703139999999994
0
LINE
8
BLACK
6
CONTINUOUS
10
21.8683929999999975
20
-12.6703139999999994
11
21.9636309999999995
21
-12.5750759999999993
0
LINE
8
BLACK
6
CONTINUOUS
10
21.9636309999999995
20
-12.5750759999999993
11
22.1541069999999998
21
-12.4798379999999991
0
LINE
8
BLACK
6
CONTINUOUS
10
23.5826789999999988
20
-12.6703139999999994
11
23.6779169999999972
21
-12.5750759999999993
0
LINE
8
BLACK
6
CONTINUOUS
10
23.6779169999999972
20
-12.5750759999999993
11
23.8683929999999975
21
-12.4798379999999991
0
LINE
8
BLACK
6
CONTINUOUS
10
23.8683929999999975
20
-12.4798379999999991
11
24.3445839999999976
21
-12.4798379999999991
0
LINE
8
BLACK
6
CONTINUOUS
10
24.3445839999999976
20
-12.4798379999999991
11
24.5350599999999979
21
-12.5750759999999993
0
LINE
8
BLACK
6
CONTINUOUS
10
24.5350599999999979
20
-12.5750759999999993
11
24.6302979999999998
21
-12.6703139999999994
0
LINE
8
BLACK
6
CONTINUOUS
10
24.6302979999999998
20
-12.6703139999999994
11
24.7255359999999982
21
-12.8607899999999997
0
LINE
8
BLACK
6
CONTINUOUS
10
24.7255359999999982
20
-12.8607899999999997
11
24.7255359999999982
21
-13.051266
0
LINE
8
BLACK
6
CONTINUOUS
10
24.7255359999999982
20
-13.051266
11
24.6302979999999998
21
-13.3369799999999987
0
LINE
8
BLACK
6
CONTINUOUS
10
24.6302979999999998
20
-13.3369799999999987
11
23.4874410000000005
21
-14.4798379999999991
0
LINE
8
BLACK
6
CONTINUOUS
10
23.4874410000000005
20
-14.4798379999999991
11
24.7255359999999982
21
-14.4798379999999991
0
LINE
8
BLACK
6
CONTINUOUS
10
26.4398219999999995
20
-13.1465040000000002
11
26.4398219999999995
21
-14.4798379999999991
0
LINE
8
BLACK
6
CONTINUOUS
10
25.9636309999999995
20
-12.3845999999999989
11
25.4874410000000005
21
-13.8131709999999988
0
LINE
8
BLACK
6
CONTINUOUS
10
25.4874410000000005
20
-13.8131709999999988
11
26.7255359999999982
21
-13.8131709999999988
0
LINE
8
BLACK
6
CONTINUOUS
10
27.3922029999999985
20
-12.4798379999999991
11
27.3922029999999985
21
-12.8607899999999997
0
LINE
8
BLACK
6
CONTINUOUS
10
28.1541079999999972
20
-12.4798379999999991
11
28.1541079999999972
21
-12.8607899999999997
0
LINE
8
BLACK
6
CONTINUOUS
10
31.1064899999999973
20
-15.2417419999999986
11
31.0112509999999979
21
-15.1465040000000002
0
LINE
8
BLACK
6
CONTINUOUS
10
31.0112509999999979
20
-15.1465040000000002
11
30.8207749999999976
21
-14.8607899999999997
0
LINE
8
BLACK
6
CONTINUOUS
10
30.8207749999999976
20
-14.8607899999999997
11
30.7255369999999992
21
-14.6703139999999994
0
LINE
8
BLACK
6
CONTINUOUS
10
30.7255369999999992
20
-14.6703139999999994
11
30.6302989999999973
21
-14.3845999999999989
0
LINE
8
BLACK
6
CONTINUOUS
10
30.6302989999999973
20
-14.3845999999999989
11
30.5350609999999989
21
-13.9084089999999989
0
LINE
8
BLACK
6
CONTINUOUS
10
30.5350609999999989
20
-13.9084089999999989
11
30.5350609999999989
21
-13.5274570000000001
0
LINE
8
BLACK
6
CONTINUOUS
10
30.5350609999999989
20
-13.5274570000000001
11
30.6302989999999973
21
-13.051266
0
LINE
8
BLACK
6
CONTINUOUS
10
30.6302989999999973
20
-13.051266
11
30.7255369999999992
21
-12.7655519999999996
0
LINE
8
BLACK
6
CONTINUOUS
10
30.7255369999999992
20
-12.7655519999999996
11
30.8207749999999976
21
-12.5750759999999993
0
LINE
8
BLACK
6
CONTINUOUS
10
30.8207749999999976
20
-12.5750759999999993
11
31.0112509999999979
21
-12.2893609999999995
0
LINE
8
BLACK
6
CONTINUOUS
10
31.0112509999999979
20
-12.2893609999999995
11
31.1064899999999973
21
-12.1941229999999994
0
LINE
8
BLACK
6
CONTINUOUS
10
32.7255369999999957
20
-12.4798379999999991
11
32.3445839999999976
21
-12.4798379999999991
0
LINE
8
BLACK
6
CONTINUOUS
10
32.3445839999999976
20
-12.4798379999999991
11
32.1541080000000008
21
-12.5750759999999993
0
LINE
8
BLACK
6
CONTINUOUS
10
32.1541080000000008
20
-12.5750759999999993
11
32.0588699999999989
21
-12.6703139999999994
0
LINE
8
BLACK
6
CONTINUOUS
10
32.0588699999999989
20
-12.6703139999999994
11
31.8683939999999986
21
-12.9560279999999999
0
LINE
8
BLACK
6
CONTINUOUS
10
31.8683939999999986
20
-12.9560279999999999
11
31.7731560000000002
21
-13.3369799999999987
0
LINE
8
BLACK
6
CONTINUOUS
10
31.7731560000000002
20
-13.3369799999999987
11
31.7731560000000002
21
-14.0988849999999992
0
LINE
8
BLACK
6
CONTINUOUS
10
31.7731560000000002
20
-14.0988849999999992
11
31.8683939999999986
21
-14.2893609999999995
0
LINE
8
BLACK
6
CONTINUOUS
10
31.8683939999999986
20
-14.2893609999999995
11
31.9636319999999969
21
-14.3845999999999989
0
LINE
8
BLACK
6
CONTINUOUS
10
31.9636319999999969
20
-14.3845999999999989
11
32.1541080000000008
21
-14.4798379999999991
0
LINE
8
BLACK
6
CONTINUOUS
10
32.1541080000000008
20
-14.4798379999999991
11
32.5350609999999989
21
-14.4798379999999991
0
LINE
8
BLACK
6
CONTINUOUS
10
32.5350609999999989
20
-14.4798379999999991
11
32.7255369999999957
21
-14.3845999999999989
0
LINE
8
BLACK
6
CONTINUOUS
10
32.7255369999999957
20
-14.3845999999999989
11
32.8207749999999976
21
-14.2893609999999995
0
LINE
8
BLACK
6
CONTINUOUS
10
32.8207749999999976
20
-14.2893609999999995
11
32.9160129999999995
21
-14.0988849999999992
0
LINE
8
BLACK
6
CONTINUOUS
10
32.9160129999999995
20
-14.0988849999999992
11
32.9160129999999995
21
-13.6226950000000002
0
LINE
8
BLACK
6
CONTINUOUS
10
32.9160129999999995
20
-13.6226950000000002
11
32.8207749999999976
21
-13.4322189999999999
0
LINE
8
BLACK
6
CONTINUOUS
10
32.8207749999999976
20
-13.4322189999999999
11
32.7255369999999957
21
-13.3369799999999987
0
LINE
8
BLACK
6
CONTINUOUS
10
32.7255369999999957
20
-13.3369799999999987
11
32.5350609999999989
21
-13.2417419999999986
0
LINE
8
BLACK
6
CONTINUOUS
10
32.5350609999999989
20
-13.2417419999999986
11
32.1541080000000008
21
-13.2417419999999986
0
LINE
8
BLACK
6
CONTINUOUS
10
32.1541080000000008
20
-13.2417419999999986
11
31.9636319999999969
21
-13.3369799999999987
0
LINE
8
BLACK
6
CONTINUOUS
10
31.9636319999999969
20
-13.3369799999999987
11
31.8683939999999986
21
-13.4322189999999999
0
LINE
8
BLACK
6
CONTINUOUS
10
31.8683939999999986
20
-13.4322189999999999
11
31.7731560000000002
21
-13.6226950000000002
0
LINE
8
BLACK
6
CONTINUOUS
10
35.2969659999999976
20
-14.4798379999999991
11
35.2969659999999976
21
-12.4798379999999991
0
LINE
8
BLACK
6
CONTINUOUS
10
36.1541089999999983
20
-14.4798379999999991
11
36.1541089999999983
21
-13.4322189999999999
0
LINE
8
BLACK
6
CONTINUOUS
10
36.1541089999999983
20
-13.4322189999999999
11
36.0588709999999963
21
-13.2417419999999986
0
LINE
8
BLACK
6
CONTINUOUS
10
36.0588709999999963
20
-13.2417419999999986
11
35.8683949999999996
21
-13.1465040000000002
0
LINE
8
BLACK
6
CONTINUOUS
10
35.8683949999999996
20
-13.1465040000000002
11
35.5826799999999963
21
-13.1465040000000002
0
LINE
8
BLACK
6
CONTINUOUS
10
35.5826799999999963
20
-13.1465040000000002
11
35.3922039999999996
21
-13.2417419999999986
0
LINE
8
BLACK
6
CONTINUOUS
10
35.3922039999999996
20
-13.2417419999999986
11
35.2969659999999976
21
-13.3369799999999987
0
LINE
8
BLACK
6
CONTINUOUS
10
37.3922039999999996
20
-14.4798379999999991
11
37.2017279999999957
21
-14.3845999999999989
0
LINE
8
BLACK
6
CONTINUOUS
10
37.2017279999999957
20
-14.3845999999999989
11
37.1064900000000009
21
-14.2893609999999995
0
LINE
8
BLACK
6
CONTINUOUS
10
37.1064900000000009
20
-14.2893609999999995
11
37.0112519999999989
21
-14.0988849999999992
0
LINE
8
BLACK
6
CONTINUOUS
10
37.0112519999999989
20
-14.0988849999999992
11
37.0112519999999989
21
-13.5274570000000001
0
LINE
8
BLACK
6
CONTINUOUS
10
37.0112519999999989
20
-13.5274570000000001
11
37.1064900000000009
21
-13.3369799999999987
0
LINE
8
BLACK
6
CONTINUOUS
10
37.1064900000000009
20
-13.3369799999999987
11
37.2017279999999957
21
-13.2417419999999986
0
LINE
8
BLACK
6
CONTINUOUS
10
37.2017279999999957
20
-13.2417419999999986
11
37.3922039999999996
21
-13.1465040000000002
0
LINE
8
BLACK
6
CONTINUOUS
10
37.3922039999999996
20
-13.1465040000000002
11
37.6779189999999957
21
-13.1465040000000002
0
LINE
8
BLACK
6
CONTINUOUS
10
37.6779189999999957
20
-13.1465040000000002
11
37.8683949999999996
21
-13.2417419999999986
0
LINE
8
BLACK
6
CONTINUOUS
10
37.8683949999999996
20
-13.2417419999999986
11
37.9636330000000015
21
-13.3369799999999987
0
LINE
8
BLACK
6
CONTINUOUS
10
37.9636330000000015
20
-13.3369799999999987
11
38.0588709999999963
21
-13.5274570000000001
0
LINE
8
BLACK
6
CONTINUOUS
10
38.0588709999999963
20
-13.5274570000000001
11
38.0588709999999963
21
-14.0988849999999992
0
LINE
8
BLACK
6
CONTINUOUS
10
38.0588709999999963
20
-14.0988849999999992
11
37.9636330000000015
21
-14.2893609999999995
0
LINE
8
BLACK
6
CONTINUOUS
10
37.9636330000000015
20
-14.2893609999999995
11
37.8683949999999996
21
-14.3845999999999989
0
LINE
8
BLACK
6
CONTINUOUS
10
37.8683949999999996
20
-14.3845999999999989
11
37.6779189999999957
21
-14.4798379999999991
0
LINE
8
BLACK
6
CONTINUOUS
10
37.6779189999999957
20
-14.4798379999999991
11
37.3922039999999996
21
-14.4798379999999991
0
LINE
8
BLACK
6
CONTINUOUS
10
39.2017279999999957
20
-14.4798379999999991
11
39.0112519999999989
21
-14.3845999999999989
0
LINE
8
BLACK
6
CONTINUOUS
10
39.0112519999999989
20
-14.3845999999999989
11
38.916013999999997
21
-14.1941229999999994
0
LINE
8
BLACK
6
CONTINUOUS
10
38.916013999999997
20
-14.1941229999999994
11
38.916013999999997
21
-12.4798379999999991
0
LINE
8
BLACK
6
CONTINUOUS
10
40.7255380000000002
20
-14.3845999999999989
11
40.5350619999999964
21
-14.4798379999999991
0
LINE
8
BLACK
6
CONTINUOUS
10
40.5350619999999964
20
-14.4798379999999991
11
40.1541089999999983
21
-14.4798379999999991
0
LINE
8
BLACK
6
CONTINUOUS
10
40.1541089999999983
20
-14.4798379999999991
11
39.9636330000000015
21
-14.3845999999999989
0
LINE
8
BLACK
6
CONTINUOUS
10
39.9636330000000015
20
-14.3845999999999989
11
39.8683949999999996
21
-14.1941229999999994
0
LINE
8
BLACK
6
CONTINUOUS
10
39.8683949999999996
20
-14.1941229999999994
11
39.8683949999999996
21
-13.4322189999999999
0
LINE
8
BLACK
6
CONTINUOUS
10
39.8683949999999996
20
-13.4322189999999999
11
39.9636330000000015
21
-13.2417419999999986
0
LINE
8
BLACK
6
CONTINUOUS
10
39.9636330000000015
20
-13.2417419999999986
11
40.1541089999999983
21
-13.1465040000000002
0
LINE
8
BLACK
6
CONTINUOUS
10
40.1541089999999983
20
-13.1465040000000002
11
40.5350619999999964
21
-13.1465040000000002
0
LINE
8
BLACK
6
CONTINUOUS
10
40.5350619999999964
20
-13.1465040000000002
11
40.7255380000000002
21
-13.2417419999999986
0
LINE
8
BLACK
6
CONTINUOUS
10
40.7255380000000002
20
-13.2417419999999986
11
40.8207759999999951
21
-13.4322189999999999
0
LINE
8
BLACK
6
CONTINUOUS
10
40.8207759999999951
20
-13.4322189999999999
11
40.8207759999999951
21
-13.6226950000000002
0
LINE
8
BLACK
6
CONTINUOUS
10
40.8207759999999951
20
-13.6226950000000002
11
39.8683949999999996
21
-13.8131709999999988
0
LINE
8
BLACK
6
CONTINUOUS
10
41.5826810000000009
20
-14.3845999999999989
11
41.7731569999999977
21
-14.4798379999999991
0
LINE
8
BLACK
6
CONTINUOUS
10
41.7731569999999977
20
-14.4798379999999991
11
42.1541089999999983
21
-14.4798379999999991
0
LINE
8
BLACK
6
CONTINUOUS
10
42.1541089999999983
20
-14.4798379999999991
11
42.3445859999999996
21
-14.3845999999999989
0
LINE
8
BLACK
6
CONTINUOUS
10
42.3445859999999996
20
-14.3845999999999989
11
42.4398240000000015
21
-14.1941229999999994
0
LINE
8
BLACK
6
CONTINUOUS
10
42.4398240000000015
20
-14.1941229999999994
11
42.4398240000000015
21
-14.0988849999999992
0
LINE
8
BLACK
6
CONTINUOUS
10
42.4398240000000015
20
-14.0988849999999992
11
42.3445859999999996
21
-13.9084089999999989
0
LINE
8
BLACK
6
CONTINUOUS
10
42.3445859999999996
20
-13.9084089999999989
11
42.1541089999999983
21
-13.8131709999999988
0
LINE
8
BLACK
6
CONTINUOUS
10
42.1541089999999983
20
-13.8131709999999988
11
41.8683949999999996
21
-13.8131709999999988
0
LINE
8
BLACK
6
CONTINUOUS
10
41.8683949999999996
20
-13.8131709999999988
11
41.6779189999999957
21
-13.7179329999999986
0
LINE
8
BLACK
6
CONTINUOUS
10
41.6779189999999957
20
-13.7179329999999986
11
41.5826810000000009
21
-13.5274570000000001
0
LINE
8
BLACK
6
CONTINUOUS
10
41.5826810000000009
20
-13.5274570000000001
11
41.5826810000000009
21
-13.4322189999999999
0
LINE
8
BLACK
6
CONTINUOUS
10
41.5826810000000009
20
-13.4322189999999999
11
41.6779189999999957
21
-13.2417419999999986
0
LINE
8
BLACK
6
CONTINUOUS
10
41.6779189999999957
20
-13.2417419999999986
11
41.8683949999999996
21
-13.1465040000000002
0
LINE
8
BLACK
6
CONTINUOUS
10
41.8683949999999996
20
-13.1465040000000002
11
42.1541089999999983
21
-13.1465040000000002
0
LINE
8
BLACK
6
CONTINUOUS
10
42.1541089999999983
20
-13.1465040000000002
11
42.3445859999999996
21
-13.2417419999999986
0
LINE
8
BLACK
6
CONTINUOUS
10
43.1064909999999983
20
-15.2417419999999986
11
43.2017290000000003
21
-15.1465040000000002
0
LINE
8
BLACK
6
CONTINUOUS
10
43.2017290000000003
20
-15.1465040000000002
11
43.392204999999997
21
-14.8607899999999997
0
LINE
8
BLACK
6
CONTINUOUS
10
43.392204999999997
20
-14.8607899999999997
11
43.487442999999999
21
-14.6703139999999994
0
LINE
8
BLACK
6
CONTINUOUS
10
43.487442999999999
20
-14.6703139999999994
11
43.5826810000000009
21
-14.3845999999999989
0
LINE
8
BLACK
6
CONTINUOUS
10
43.5826810000000009
20
-14.3845999999999989
11
43.6779189999999957
21
-13.9084089999999989
0
LINE
8
BLACK
6
CONTINUOUS
10
43.6779189999999957
20
-13.9084089999999989
11
43.6779189999999957
21
-13.5274570000000001
0
LINE
8
BLACK
6
CONTINUOUS
10
43.6779189999999957
20
-13.5274570000000001
11
43.5826810000000009
21
-13.051266
0
LINE
8
BLACK
6
CONTINUOUS
10
43.5826810000000009
20
-13.051266
11
43.487442999999999
21
-12.7655519999999996
0
LINE
8
BLACK
6
CONTINUOUS
10
43.487442999999999
20
-12.7655519999999996
11
43.392204999999997
21
-12.5750759999999993
0
LINE
8
BLACK
6
CONTINUOUS
10
43.392204999999997
20
-12.5750759999999993
11
43.2017290000000003
21
-12.2893609999999995
0
LINE
8
BLACK
6
CONTINUOUS
10
43.2017290000000003
20
-12.2893609999999995
11
43.1064909999999983
21
-12.1941229999999994
0
LINE
8
BLACK
6
CONTINUOUS
10
46.7255389999999977
20
-15.2417419999999986
11
46.6302999999999983
21
-15.1465040000000002
0
LINE
8
BLACK
6
CONTINUOUS
10
46.6302999999999983
20
-15.1465040000000002
11
46.4398239999999944
21
-14.8607899999999997
0
LINE
8
BLACK
6
CONTINUOUS
10
46.4398239999999944
20
-14.8607899999999997
11
46.3445859999999996
21
-14.6703139999999994
0
LINE
8
BLACK
6
CONTINUOUS
10
46.3445859999999996
20
-14.6703139999999994
11
46.2493479999999977
21
-14.3845999999999989
0
LINE
8
BLACK
6
CONTINUOUS
10
46.2493479999999977
20
-14.3845999999999989
11
46.1541099999999958
21
-13.9084089999999989
0
LINE
8
BLACK
6
CONTINUOUS
10
46.1541099999999958
20
-13.9084089999999989
11
46.1541099999999958
21
-13.5274570000000001
0
LINE
8
BLACK
6
CONTINUOUS
10
46.1541099999999958
20
-13.5274570000000001
11
46.2493479999999977
21
-13.051266
0
LINE
8
BLACK
6
CONTINUOUS
10
46.2493479999999977
20
-13.051266
11
46.3445859999999996
21
-12.7655519999999996
0
LINE
8
BLACK
6
CONTINUOUS
10
46.3445859999999996
20
-12.7655519999999996
11
46.4398239999999944
21
-12.5750759999999993
0
LINE
8
BLACK
6
CONTINUOUS
10
46.4398239999999944
20
-12.5750759999999993
11
46.6302999999999983
21
-12.2893609999999995
0
LINE
8
BLACK
6
CONTINUOUS
10
46.6302999999999983
20
-12.2893609999999995
11
46.7255389999999977
21
-12.1941229999999994
0
LINE
8
BLACK
6
CONTINUOUS
10
47.487442999999999
20
-13.1465040000000002
11
47.487442999999999
21
-14.4798379999999991
0
LINE
8
BLACK
6
CONTINUOUS
10
47.487442999999999
20
-13.3369799999999987
11
47.5826810000000009
21
-13.2417419999999986
0
LINE
8
BLACK
6
CONTINUOUS
10
47.5826810000000009
20
-13.2417419999999986
11
47.7731569999999977
21
-13.1465040000000002
0
LINE
8
BLACK
6
CONTINUOUS
10
47.7731569999999977
20
-13.1465040000000002
11
48.0588720000000009
21
-13.1465040000000002
0
LINE
8
BLACK
6
CONTINUOUS
10
48.0588720000000009
20
-13.1465040000000002
11
48.2493479999999977
21
-13.2417419999999986
0
LINE
8
BLACK
6
CONTINUOUS
10
48.2493479999999977
20
-13.2417419999999986
11
48.3445859999999996
21
-13.4322189999999999
0
LINE
8
BLACK
6
CONTINUOUS
10
48.3445859999999996
20
-13.4322189999999999
11
48.3445859999999996
21
-14.4798379999999991
0
LINE
8
BLACK
6
CONTINUOUS
10
49.5826810000000009
20
-14.4798379999999991
11
49.392204999999997
21
-14.3845999999999989
0
LINE
8
BLACK
6
CONTINUOUS
10
49.392204999999997
20
-14.3845999999999989
11
49.2969669999999951
21
-14.2893609999999995
0
LINE
8
BLACK
6
CONTINUOUS
10
49.2969669999999951
20
-14.2893609999999995
11
49.2017290000000003
21
-14.0988849999999992
0
LINE
8
BLACK
6
CONTINUOUS
10
49.2017290000000003
20
-14.0988849999999992
11
49.2017290000000003
21
-13.5274570000000001
0
LINE
8
BLACK
6
CONTINUOUS
10
49.2017290000000003
20
-13.5274570000000001
11
49.2969669999999951
21
-13.3369799999999987
0
LINE
8
BLACK
6
CONTINUOUS
10
49.2969669999999951
20
-13.3369799999999987
11
49.392204999999997
21
-13.2417419999999986
0
LINE
8
BLACK
6
CONTINUOUS
10
49.392204999999997
20
-13.2417419999999986
11
49.5826810000000009
21
-13.1465040000000002
0
LINE
8
BLACK
6
CONTINUOUS
10
49.5826810000000009
20
-13.1465040000000002
11
49.8683959999999971
21
-13.1465040000000002
0
LINE
8
BLACK
6
CONTINUOUS
10
49.8683959999999971
20
-13.1465040000000002
11
50.0588720000000009
21
-13.2417419999999986
0
LINE
8
BLACK
6
CONTINUOUS
10
50.0588720000000009
20
-13.2417419999999986
11
50.1541099999999958
21
-13.3369799999999987
0
LINE
8
BLACK
6
CONTINUOUS
10
50.1541099999999958
20
-13.3369799999999987
11
50.2493479999999977
21
-13.5274570000000001
0
LINE
8
BLACK
6
CONTINUOUS
10
50.2493479999999977
20
-13.5274570000000001
11
50.2493479999999977
21
-14.0988849999999992
0
LINE
8
BLACK
6
CONTINUOUS
10
50.2493479999999977
20
-14.0988849999999992
11
50.1541099999999958
21
-14.2893609999999995
0
LINE
8
BLACK
6
CONTINUOUS
10
50.1541099999999958
20
-14.2893609999999995
11
50.0588720000000009
21
-14.3845999999999989
0
LINE
8
BLACK
6
CONTINUOUS
10
50.0588720000000009
20
-14.3845999999999989
11
49.8683959999999971
21
-14.4798379999999991
0
LINE
8
BLACK
6
CONTINUOUS
10
49.8683959999999971
20
-14.4798379999999991
11
49.5826810000000009
21
-14.4798379999999991
0
LINE
8
BLACK
6
CONTINUOUS
10
50.8207769999999996
20
-13.1465040000000002
11
51.5826810000000009
21
-13.1465040000000002
0
LINE
8
BLACK
6
CONTINUOUS
10
51.1064909999999983
20
-12.4798379999999991
11
51.1064909999999983
21
-14.1941229999999994
0
LINE
8
BLACK
6
CONTINUOUS
10
51.1064909999999983
20
-14.1941229999999994
11
51.2017290000000003
21
-14.3845999999999989
0
LINE
8
BLACK
6
CONTINUOUS
10
51.2017290000000003
20
-14.3845999999999989
11
51.392204999999997
21
-14.4798379999999991
0
LINE
8
BLACK
6
CONTINUOUS
10
51.392204999999997
20
-14.4798379999999991
11
51.5826810000000009
21
-14.4798379999999991
0
LINE
8
BLACK
6
CONTINUOUS
10
53.7731579999999951
20
-13.1465040000000002
11
53.7731579999999951
21
-15.1465040000000002
0
LINE
8
BLACK
6
CONTINUOUS
10
53.7731579999999951
20
-13.2417419999999986
11
53.963633999999999
21
-13.1465040000000002
0
LINE
8
BLACK
6
CONTINUOUS
10
53.963633999999999
20
-13.1465040000000002
11
54.3445869999999971
21
-13.1465040000000002
0
LINE
8
BLACK
6
CONTINUOUS
10
54.3445869999999971
20
-13.1465040000000002
11
54.535063000000001
21
-13.2417419999999986
0
LINE
8
BLACK
6
CONTINUOUS
10
54.535063000000001
20
-13.2417419999999986
11
54.6303009999999958
21
-13.3369799999999987
0
LINE
8
BLACK
6
CONTINUOUS
10
54.6303009999999958
20
-13.3369799999999987
11
54.7255389999999977
21
-13.5274570000000001
0
LINE
8
BLACK
6
CONTINUOUS
10
54.7255389999999977
20
-13.5274570000000001
11
54.7255389999999977
21
-14.0988849999999992
0
LINE
8
BLACK
6
CONTINUOUS
10
54.7255389999999977
20
-14.0988849999999992
11
54.6303009999999958
21
-14.2893609999999995
0
LINE
8
BLACK
6
CONTINUOUS
10
54.6303009999999958
20
-14.2893609999999995
11
54.535063000000001
21
-14.3845999999999989
0
LINE
8
BLACK
6
CONTINUOUS
10
54.535063000000001
20
-14.3845999999999989
11
54.3445869999999971
21
-14.4798379999999991
0
LINE
8
BLACK
6
CONTINUOUS
10
54.3445869999999971
20
-14.4798379999999991
11
53.963633999999999
21
-14.4798379999999991
0
LINE
8
BLACK
6
CONTINUOUS
10
53.963633999999999
20
-14.4798379999999991
11
53.7731579999999951
21
-14.3845999999999989
0
LINE
8
BLACK
6
CONTINUOUS
10
55.8683959999999971
20
-14.4798379999999991
11
55.6779200000000003
21
-14.3845999999999989
0
LINE
8
BLACK
6
CONTINUOUS
10
55.6779200000000003
20
-14.3845999999999989
11
55.5826819999999984
21
-14.1941229999999994
0
LINE
8
BLACK
6
CONTINUOUS
10
55.5826819999999984
20
-14.1941229999999994
11
55.5826819999999984
21
-12.4798379999999991
0
LINE
8
BLACK
6
CONTINUOUS
10
57.4874439999999964
20
-14.4798379999999991
11
57.4874439999999964
21
-13.4322189999999999
0
LINE
8
BLACK
6
CONTINUOUS
10
57.4874439999999964
20
-13.4322189999999999
11
57.3922059999999945
21
-13.2417419999999986
0
LINE
8
BLACK
6
CONTINUOUS
10
57.3922059999999945
20
-13.2417419999999986
11
57.2017299999999977
21
-13.1465040000000002
0
LINE
8
BLACK
6
CONTINUOUS
10
57.2017299999999977
20
-13.1465040000000002
11
56.8207769999999996
21
-13.1465040000000002
0
LINE
8
BLACK
6
CONTINUOUS
10
56.8207769999999996
20
-13.1465040000000002
11
56.6303009999999958
21
-13.2417419999999986
0
LINE
8
BLACK
6
CONTINUOUS
10
57.4874439999999964
20
-14.3845999999999989
11
57.2969679999999997
21
-14.4798379999999991
0
LINE
8
BLACK
6
CONTINUOUS
10
57.2969679999999997
20
-14.4798379999999991
11
56.8207769999999996
21
-14.4798379999999991
0
LINE
8
BLACK
6
CONTINUOUS
10
56.8207769999999996
20
-14.4798379999999991
11
56.6303009999999958
21
-14.3845999999999989
0
LINE
8
BLACK
6
CONTINUOUS
10
56.6303009999999958
20
-14.3845999999999989
11
56.535063000000001
21
-14.1941229999999994
0
LINE
8
BLACK
6
CONTINUOUS
10
56.535063000000001
20
-14.1941229999999994
11
56.535063000000001
21
-14.0036469999999991
0
LINE
8
BLACK
6
CONTINUOUS
10
56.535063000000001
20
-14.0036469999999991
11
56.6303009999999958
21
-13.8131709999999988
0
LINE
8
BLACK
6
CONTINUOUS
10
56.6303009999999958
20
-13.8131709999999988
11
56.8207769999999996
21
-13.7179329999999986
0
LINE
8
BLACK
6
CONTINUOUS
10
56.8207769999999996
20
-13.7179329999999986
11
57.2969679999999997
21
-13.7179329999999986
0
LINE
8
BLACK
6
CONTINUOUS
10
57.2969679999999997
20
-13.7179329999999986
11
57.4874439999999964
21
-13.6226950000000002
0
LINE
8
BLACK
6
CONTINUOUS
10
58.1541110000000003
20
-13.1465040000000002
11
58.9160149999999945
21
-13.1465040000000002
0
LINE
8
BLACK
6
CONTINUOUS
10
58.439824999999999
20
-12.4798379999999991
11
58.439824999999999
21
-14.1941229999999994
0
LINE
8
BLACK
6
CONTINUOUS
10
58.439824999999999
20
-14.1941229999999994
11
58.5350629999999938
21
-14.3845999999999989
0
LINE
8
BLACK
6
CONTINUOUS
10
58.5350629999999938
20
-14.3845999999999989
11
58.7255389999999977
21
-14.4798379999999991
0
LINE
8
BLACK
6
CONTINUOUS
10
58.7255389999999977
20
-14.4798379999999991
11
58.9160149999999945
21
-14.4798379999999991
0
LINE
8
BLACK
6
CONTINUOUS
10
60.3445869999999971
20
-14.3845999999999989
11
60.1541110000000003
21
-14.4798379999999991
0
LINE
8
BLACK
6
CONTINUOUS
10
60.1541110000000003
20
-14.4798379999999991
11
59.7731579999999951
21
-14.4798379999999991
0
LINE
8
BLACK
6
CONTINUOUS
10
59.7731579999999951
20
-14.4798379999999991
11
59.5826819999999984
21
-14.3845999999999989
0
LINE
8
BLACK
6
CONTINUOUS
10
59.5826819999999984
20
-14.3845999999999989
11
59.4874439999999964
21
-14.1941229999999994
0
LINE
8
BLACK
6
CONTINUOUS
10
59.4874439999999964
20
-14.1941229999999994
11
59.4874439999999964
21
-13.4322189999999999
0
LINE
8
BLACK
6
CONTINUOUS
10
59.4874439999999964
20
-13.4322189999999999
11
59.5826819999999984
21
-13.2417419999999986
0
LINE
8
BLACK
6
CONTINUOUS
10
59.5826819999999984
20
-13.2417419999999986
11
59.7731579999999951
21
-13.1465040000000002
0
LINE
8
BLACK
6
CONTINUOUS
10
59.7731579999999951
20
-13.1465040000000002
11
60.1541110000000003
21
-13.1465040000000002
0
LINE
8
BLACK
6
CONTINUOUS
10
60.1541110000000003
20
-13.1465040000000002
11
60.3445869999999971
21
-13.2417419999999986
0
LINE
8
BLACK
6
CONTINUOUS
10
60.3445869999999971
20
-13.2417419999999986
11
60.439824999999999
21
-13.4322189999999999
0
LINE
8
BLACK
6
CONTINUOUS
10
60.439824999999999
20
-13.4322189999999999
11
60.439824999999999
21
-13.6226950000000002
0
LINE
8
BLACK
6
CONTINUOUS
10
60.439824999999999
20
-13.6226950000000002
11
59.4874439999999964
21
-13.8131709999999988
0
LINE
8
BLACK
6
CONTINUOUS
10
62.1541110000000003
20
-14.4798379999999991
11
62.1541110000000003
21
-12.4798379999999991
0
LINE
8
BLACK
6
CONTINUOUS
10
62.1541110000000003
20
-14.3845999999999989
11
61.9636349999999965
21
-14.4798379999999991
0
LINE
8
BLACK
6
CONTINUOUS
10
61.9636349999999965
20
-14.4798379999999991
11
61.5826819999999984
21
-14.4798379999999991
0
LINE
8
BLACK
6
CONTINUOUS
10
61.5826819999999984
20
-14.4798379999999991
11
61.3922059999999945
21
-14.3845999999999989
0
LINE
8
BLACK
6
CONTINUOUS
10
61.3922059999999945
20
-14.3845999999999989
11
61.2969679999999997
21
-14.2893609999999995
0
LINE
8
BLACK
6
CONTINUOUS
10
61.2969679999999997
20
-14.2893609999999995
11
61.2017299999999977
21
-14.0988849999999992
0
LINE
8
BLACK
6
CONTINUOUS
10
61.2017299999999977
20
-14.0988849999999992
11
61.2017299999999977
21
-13.5274570000000001
0
LINE
8
BLACK
6
CONTINUOUS
10
61.2017299999999977
20
-13.5274570000000001
11
61.2969679999999997
21
-13.3369799999999987
0
LINE
8
BLACK
6
CONTINUOUS
10
61.2969679999999997
20
-13.3369799999999987
11
61.3922059999999945
21
-13.2417419999999986
0
LINE
8
BLACK
6
CONTINUOUS
10
61.3922059999999945
20
-13.2417419999999986
11
61.5826819999999984
21
-13.1465040000000002
0
LINE
8
BLACK
6
CONTINUOUS
10
61.5826819999999984
20
-13.1465040000000002
11
61.9636349999999965
21
-13.1465040000000002
0
LINE
8
BLACK
6
CONTINUOUS
10
61.9636349999999965
20
-13.1465040000000002
11
62.1541110000000003
21
-13.2417419999999986
0
LINE
8
BLACK
6
CONTINUOUS
10
62.9160159999999991
20
-15.2417419999999986
11
63.0112539999999939
21
-15.1465040000000002
0
LINE
8
BLACK
6
CONTINUOUS
10
63.0112539999999939
20
-15.1465040000000002
11
63.2017299999999977
21
-14.8607899999999997
0
LINE
8
BLACK
6
CONTINUOUS
10
63.2017299999999977
20
-14.8607899999999997
11
63.2969679999999997
21
-14.6703139999999994
0
LINE
8
BLACK
6
CONTINUOUS
10
63.2969679999999997
20
-14.6703139999999994
11
63.3922059999999945
21
-14.3845999999999989
0
LINE
8
BLACK
6
CONTINUOUS
10
63.3922059999999945
20
-14.3845999999999989
11
63.4874439999999964
21
-13.9084089999999989
0
LINE
8
BLACK
6
CONTINUOUS
10
63.4874439999999964
20
-13.9084089999999989
11
63.4874439999999964
21
-13.5274570000000001
0
LINE
8
BLACK
6
CONTINUOUS
10
63.4874439999999964
20
-13.5274570000000001
11
63.3922059999999945
21
-13.051266
0
LINE
8
BLACK
6
CONTINUOUS
10
63.3922059999999945
20
-13.051266
11
63.2969679999999997
21
-12.7655519999999996
0
LINE
8
BLACK
6
CONTINUOUS
10
63.2969679999999997
20
-12.7655519999999996
11
63.2017299999999977
21
-12.5750759999999993
0
LINE
8
BLACK
6
CONTINUOUS
10
63.2017299999999977
20
-12.5750759999999993
11
63.0112539999999939
21
-12.2893609999999995
0
LINE
8
BLACK
6
CONTINUOUS
10
63.0112539999999939
20
-12.2893609999999995
11
62.9160159999999991
21
-12.1941229999999994
0
LINE
8
BLACK
6
CONTINUOUS
10
-5.644139
20
-15.7649999999999988
11
-5.644139
21
-17.7650000000000006
0
LINE
8
BLACK
6
CONTINUOUS
10
-6.644139
20
-16.7650000000000006
11
-4.644139
21
-16.7650000000000006
0
LINE
8
BLACK
6
CONTINUOUS
10
-2.2268469999999998
20
-15.6798380000000002
11
-0.988752
21
-15.6798380000000002
0
LINE
8
BLACK
6
CONTINUOUS
10
-0.988752
20
-15.6798380000000002
11
-1.655419
21
-16.4417419999999979
0
LINE
8
BLACK
6
CONTINUOUS
10
-1.655419
20
-16.4417419999999979
11
-1.369704
21
-16.4417419999999979
0
LINE
8
BLACK
6
CONTINUOUS
10
-1.369704
20
-16.4417419999999979
11
-1.1792279999999999
21
-16.5369799999999998
0
LINE
8
BLACK
6
CONTINUOUS
10
-1.1792279999999999
20
-16.5369799999999998
11
-1.08399
21
-16.6322189999999992
0
LINE
8
BLACK
6
CONTINUOUS
10
-1.08399
20
-16.6322189999999992
11
-0.988752
21
-16.8226949999999995
0
LINE
8
BLACK
6
CONTINUOUS
10
-0.988752
20
-16.8226949999999995
11
-0.988752
21
-17.2988849999999985
0
LINE
8
BLACK
6
CONTINUOUS
10
-0.988752
20
-17.2988849999999985
11
-1.08399
21
-17.4893609999999988
0
LINE
8
BLACK
6
CONTINUOUS
10
-1.08399
20
-17.4893609999999988
11
-1.1792279999999999
21
-17.5845999999999982
0
LINE
8
BLACK
6
CONTINUOUS
10
-1.1792279999999999
20
-17.5845999999999982
11
-1.369704
21
-17.6798380000000002
0
LINE
8
BLACK
6
CONTINUOUS
10
-1.369704
20
-17.6798380000000002
11
-1.941133
21
-17.6798380000000002
0
LINE
8
BLACK
6
CONTINUOUS
10
-1.941133
20
-17.6798380000000002
11
-2.1316090000000001
21
-17.5845999999999982
0
LINE
8
BLACK
6
CONTINUOUS
10
-2.1316090000000001
20
-17.5845999999999982
11
-2.2268469999999998
21
-17.4893609999999988
0
LINE
8
BLACK
6
CONTINUOUS
10
-0.131609
20
-17.4893609999999988
11
-0.036371
21
-17.5845999999999982
0
LINE
8
BLACK
6
CONTINUOUS
10
-0.036371
20
-17.5845999999999982
11
-0.131609
21
-17.6798380000000002
0
LINE
8
BLACK
6
CONTINUOUS
10
-0.131609
20
-17.6798380000000002
11
-0.226847
21
-17.5845999999999982
0
LINE
8
BLACK
6
CONTINUOUS
10
-0.226847
20
-17.5845999999999982
11
-0.131609
21
-17.4893609999999988
0
LINE
8
BLACK
6
CONTINUOUS
10
-0.131609
20
-17.4893609999999988
11
-0.131609
21
-17.6798380000000002
0
LINE
8
BLACK
6
CONTINUOUS
10
1.8683909999999999
20
-17.6798380000000002
11
0.725534
21
-17.6798380000000002
0
LINE
8
BLACK
6
CONTINUOUS
10
1.2969619999999999
20
-17.6798380000000002
11
1.2969619999999999
21
-15.6798380000000002
0
LINE
8
BLACK
6
CONTINUOUS
10
1.2969619999999999
20
-15.6798380000000002
11
1.1064859999999999
21
-15.9655519999999989
0
LINE
8
BLACK
6
CONTINUOUS
10
1.1064859999999999
20
-15.9655519999999989
11
0.91601
21
-16.1560279999999992
0
LINE
8
BLACK
6
CONTINUOUS
10
0.91601
20
-16.1560279999999992
11
0.725534
21
-16.2512659999999975
0
LINE
8
BLACK
6
CONTINUOUS
10
2.5350579999999998
20
-15.6798380000000002
11
3.8683909999999999
21
-15.6798380000000002
0
LINE
8
BLACK
6
CONTINUOUS
10
3.8683909999999999
20
-15.6798380000000002
11
3.0112479999999997
21
-17.6798380000000002
0
LINE
8
BLACK
6
CONTINUOUS
10
5.5826769999999994
20
-15.6798380000000002
11
4.6302959999999995
21
-15.6798380000000002
0
LINE
8
BLACK
6
CONTINUOUS
10
4.6302959999999995
20
-15.6798380000000002
11
4.5350579999999994
21
-16.6322189999999992
0
LINE
8
BLACK
6
CONTINUOUS
10
4.5350579999999994
20
-16.6322189999999992
11
4.6302959999999995
21
-16.5369799999999998
0
LINE
8
BLACK
6
CONTINUOUS
10
4.6302959999999995
20
-16.5369799999999998
11
4.8207719999999998
21
-16.4417419999999979
0
LINE
8
BLACK
6
CONTINUOUS
10
4.8207719999999998
20
-16.4417419999999979
11
5.2969629999999999
21
-16.4417419999999979
0
LINE
8
BLACK
6
CONTINUOUS
10
5.2969629999999999
20
-16.4417419999999979
11
5.4874390000000002
21
-16.5369799999999998
0
LINE
8
BLACK
6
CONTINUOUS
10
5.4874390000000002
20
-16.5369799999999998
11
5.5826769999999994
21
-16.6322189999999992
0
LINE
8
BLACK
6
CONTINUOUS
10
5.5826769999999994
20
-16.6322189999999992
11
5.6779149999999996
21
-16.8226949999999995
0
LINE
8
BLACK
6
CONTINUOUS
10
5.6779149999999996
20
-16.8226949999999995
11
5.6779149999999996
21
-17.2988849999999985
0
LINE
8
BLACK
6
CONTINUOUS
10
5.6779149999999996
20
-17.2988849999999985
11
5.5826769999999994
21
-17.4893609999999988
0
LINE
8
BLACK
6
CONTINUOUS
10
5.5826769999999994
20
-17.4893609999999988
11
5.4874390000000002
21
-17.5845999999999982
0
LINE
8
BLACK
6
CONTINUOUS
10
5.4874390000000002
20
-17.5845999999999982
11
5.2969629999999999
21
-17.6798380000000002
0
LINE
8
BLACK
6
CONTINUOUS
10
5.2969629999999999
20
-17.6798380000000002
11
4.8207719999999998
21
-17.6798380000000002
0
LINE
8
BLACK
6
CONTINUOUS
10
4.8207719999999998
20
-17.6798380000000002
11
4.6302959999999995
21
-17.5845999999999982
0
LINE
8
BLACK
6
CONTINUOUS
10
4.6302959999999995
20
-17.5845999999999982
11
4.5350579999999994
21
-17.4893609999999988
0
LINE
8
BLACK
6
CONTINUOUS
10
6.5350579999999994
20
-17.6798380000000002
11
6.5350579999999994
21
-16.3465039999999995
0
LINE
8
BLACK
6
CONTINUOUS
10
6.5350579999999994
20
-16.5369799999999998
11
6.6302959999999995
21
-16.4417419999999979
0
LINE
8
BLACK
6
CONTINUOUS
10
6.6302959999999995
20
-16.4417419999999979
11
6.8207719999999998
21
-16.3465039999999995
0
LINE
8
BLACK
6
CONTINUOUS
10
6.8207719999999998
20
-16.3465039999999995
11
7.1064869999999996
21
-16.3465039999999995
0
LINE
8
BLACK
6
CONTINUOUS
10
7.1064869999999996
20
-16.3465039999999995
11
7.2969629999999999
21
-16.4417419999999979
0
LINE
8
BLACK
6
CONTINUOUS
10
7.2969629999999999
20
-16.4417419999999979
11
7.392201
21
-16.6322189999999992
0
LINE
8
BLACK
6
CONTINUOUS
10
7.392201
20
-16.6322189999999992
11
7.392201
21
-17.6798380000000002
0
LINE
8
BLACK
6
CONTINUOUS
10
7.392201
20
-16.6322189999999992
11
7.4874389999999993
21
-16.4417419999999979
0
LINE
8
BLACK
6
CONTINUOUS
10
7.4874389999999993
20
-16.4417419999999979
11
7.6779149999999996
21
-16.3465039999999995
0
LINE
8
BLACK
6
CONTINUOUS
10
7.6779149999999996
20
-16.3465039999999995
11
7.9636290000000001
21
-16.3465039999999995
0
LINE
8
BLACK
6
CONTINUOUS
10
7.9636290000000001
20
-16.3465039999999995
11
8.1541059999999987
21
-16.4417419999999979
0
LINE
8
BLACK
6
CONTINUOUS
10
8.1541059999999987
20
-16.4417419999999979
11
8.2493439999999989
21
-16.6322189999999992
0
LINE
8
BLACK
6
CONTINUOUS
10
8.2493439999999989
20
-16.6322189999999992
11
8.2493439999999989
21
-17.6798380000000002
0
LINE
8
BLACK
6
CONTINUOUS
10
9.2017249999999997
20
-17.6798380000000002
11
9.2017249999999997
21
-16.3465039999999995
0
LINE
8
BLACK
6
CONTINUOUS
10
9.2017249999999997
20
-16.5369799999999998
11
9.2969629999999999
21
-16.4417419999999979
0
LINE
8
BLACK
6
CONTINUOUS
10
9.2969629999999999
20
-16.4417419999999979
11
9.4874390000000002
21
-16.3465039999999995
0
LINE
8
BLACK
6
CONTINUOUS
10
9.4874390000000002
20
-16.3465039999999995
11
9.7731539999999999
21
-16.3465039999999995
0
LINE
8
BLACK
6
CONTINUOUS
10
9.7731539999999999
20
-16.3465039999999995
11
9.9636300000000002
21
-16.4417419999999979
0
LINE
8
BLACK
6
CONTINUOUS
10
9.9636300000000002
20
-16.4417419999999979
11
10.0588680000000004
21
-16.6322189999999992
0
LINE
8
BLACK
6
CONTINUOUS
10
10.0588680000000004
20
-16.6322189999999992
11
10.0588680000000004
21
-17.6798380000000002
0
LINE
8
BLACK
6
CONTINUOUS
10
10.0588680000000004
20
-16.6322189999999992
11
10.1541059999999987
21
-16.4417419999999979
0
LINE
8
BLACK
6
CONTINUOUS
10
10.1541059999999987
20
-16.4417419999999979
11
10.3445819999999991
21
-16.3465039999999995
0
LINE
8
BLACK
6
CONTINUOUS
10
10.3445819999999991
20
-16.3465039999999995
11
10.6302959999999995
21
-16.3465039999999995
0
LINE
8
BLACK
6
CONTINUOUS
10
10.6302959999999995
20
-16.3465039999999995
11
10.8207729999999991
21
-16.4417419999999979
0
LINE
8
BLACK
6
CONTINUOUS
10
10.8207729999999991
20
-16.4417419999999979
11
10.9160109999999992
21
-16.6322189999999992
0
LINE
8
BLACK
6
CONTINUOUS
10
10.9160109999999992
20
-16.6322189999999992
11
10.9160109999999992
21
-17.6798380000000002
0
LINE
8
BLACK
6
CONTINUOUS
10
14.8207729999999991
20
-15.5846
11
13.1064879999999988
21
-18.1560279999999992
0
LINE
8
BLACK
6
CONTINUOUS
10
17.3922019999999975
20
-15.6798380000000002
11
17.5826789999999988
21
-15.6798380000000002
0
LINE
8
BLACK
6
CONTINUOUS
10
17.5826789999999988
20
-15.6798380000000002
11
17.7731549999999991
21
-15.7750759999999985
0
LINE
8
BLACK
6
CONTINUOUS
10
17.7731549999999991
20
-15.7750759999999985
11
17.8683929999999975
21
-15.8703139999999987
0
LINE
8
BLACK
6
CONTINUOUS
10
17.8683929999999975
20
-15.8703139999999987
11
17.9636309999999995
21
-16.0607900000000008
0
LINE
8
BLACK
6
CONTINUOUS
10
17.9636309999999995
20
-16.0607900000000008
11
18.0588689999999978
21
-16.4417419999999979
0
LINE
8
BLACK
6
CONTINUOUS
10
18.0588689999999978
20
-16.4417419999999979
11
18.0588689999999978
21
-16.9179329999999979
0
LINE
8
BLACK
6
CONTINUOUS
10
18.0588689999999978
20
-16.9179329999999979
11
17.9636309999999995
21
-17.2988849999999985
0
LINE
8
BLACK
6
CONTINUOUS
10
17.9636309999999995
20
-17.2988849999999985
11
17.8683929999999975
21
-17.4893609999999988
0
LINE
8
BLACK
6
CONTINUOUS
10
17.8683929999999975
20
-17.4893609999999988
11
17.7731549999999991
21
-17.5845999999999982
0
LINE
8
BLACK
6
CONTINUOUS
10
17.7731549999999991
20
-17.5845999999999982
11
17.5826789999999988
21
-17.6798380000000002
0
LINE
8
BLACK
6
CONTINUOUS
10
17.5826789999999988
20
-17.6798380000000002
11
17.3922019999999975
21
-17.6798380000000002
0
LINE
8
BLACK
6
CONTINUOUS
10
17.3922019999999975
20
-17.6798380000000002
11
17.2017260000000007
21
-17.5845999999999982
0
LINE
8
BLACK
6
CONTINUOUS
10
17.2017260000000007
20
-17.5845999999999982
11
17.1064879999999988
21
-17.4893609999999988
0
LINE
8
BLACK
6
CONTINUOUS
10
17.1064879999999988
20
-17.4893609999999988
11
17.0112500000000004
21
-17.2988849999999985
0
LINE
8
BLACK
6
CONTINUOUS
10
17.0112500000000004
20
-17.2988849999999985
11
16.9160119999999985
21
-16.9179329999999979
0
LINE
8
BLACK
6
CONTINUOUS
10
16.9160119999999985
20
-16.9179329999999979
11
16.9160119999999985
21
-16.4417419999999979
0
LINE
8
BLACK
6
CONTINUOUS
10
16.9160119999999985
20
-16.4417419999999979
11
17.0112500000000004
21
-16.0607900000000008
0
LINE
8
BLACK
6
CONTINUOUS
10
17.0112500000000004
20
-16.0607900000000008
11
17.1064879999999988
21
-15.8703139999999987
0
LINE
8
BLACK
6
CONTINUOUS
10
17.1064879999999988
20
-15.8703139999999987
11
17.2017260000000007
21
-15.7750759999999985
0
LINE
8
BLACK
6
CONTINUOUS
10
17.2017260000000007
20
-15.7750759999999985
11
17.3922019999999975
21
-15.6798380000000002
0
LINE
8
BLACK
6
CONTINUOUS
10
18.9160119999999985
20
-17.4893609999999988
11
19.0112500000000004
21
-17.5845999999999982
0
LINE
8
BLACK
6
CONTINUOUS
10
19.0112500000000004
20
-17.5845999999999982
11
18.9160119999999985
21
-17.6798380000000002
0
LINE
8
BLACK
6
CONTINUOUS
10
18.9160119999999985
20
-17.6798380000000002
11
18.8207740000000001
21
-17.5845999999999982
0
LINE
8
BLACK
6
CONTINUOUS
10
18.8207740000000001
20
-17.5845999999999982
11
18.9160119999999985
21
-17.4893609999999988
0
LINE
8
BLACK
6
CONTINUOUS
10
18.9160119999999985
20
-17.4893609999999988
11
18.9160119999999985
21
-17.6798380000000002
0
LINE
8
BLACK
6
CONTINUOUS
10
20.9160119999999985
20
-17.6798380000000002
11
19.7731549999999991
21
-17.6798380000000002
0
LINE
8
BLACK
6
CONTINUOUS
10
20.3445830000000001
20
-17.6798380000000002
11
20.3445830000000001
21
-15.6798380000000002
0
LINE
8
BLACK
6
CONTINUOUS
10
20.3445830000000001
20
-15.6798380000000002
11
20.1541069999999998
21
-15.9655519999999989
0
LINE
8
BLACK
6
CONTINUOUS
10
20.1541069999999998
20
-15.9655519999999989
11
19.9636309999999995
21
-16.1560279999999992
0
LINE
8
BLACK
6
CONTINUOUS
10
19.9636309999999995
20
-16.1560279999999992
11
19.7731549999999991
21
-16.2512659999999975
0
LINE
8
BLACK
6
CONTINUOUS
10
21.6779170000000008
20
-15.8703139999999987
11
21.7731549999999991
21
-15.7750759999999985
0
LINE
8
BLACK
6
CONTINUOUS
10
21.7731549999999991
20
-15.7750759999999985
11
21.9636309999999995
21
-15.6798380000000002
0
LINE
8
BLACK
6
CONTINUOUS
10
21.9636309999999995
20
-15.6798380000000002
11
22.4398219999999995
21
-15.6798380000000002
0
LINE
8
BLACK
6
CONTINUOUS
10
22.4398219999999995
20
-15.6798380000000002
11
22.6302979999999998
21
-15.7750759999999985
0
LINE
8
BLACK
6
CONTINUOUS
10
22.6302979999999998
20
-15.7750759999999985
11
22.7255359999999982
21
-15.8703139999999987
0
LINE
8
BLACK
6
CONTINUOUS
10
22.7255359999999982
20
-15.8703139999999987
11
22.8207740000000001
21
-16.0607900000000008
0
LINE
8
BLACK
6
CONTINUOUS
10
22.8207740000000001
20
-16.0607900000000008
11
22.8207740000000001
21
-16.2512659999999975
0
LINE
8
BLACK
6
CONTINUOUS
10
22.8207740000000001
20
-16.2512659999999975
11
22.7255359999999982
21
-16.5369799999999998
0
LINE
8
BLACK
6
CONTINUOUS
10
22.7255359999999982
20
-16.5369799999999998
11
21.5826789999999988
21
-17.6798380000000002
0
LINE
8
BLACK
6
CONTINUOUS
10
21.5826789999999988
20
-17.6798380000000002
11
22.8207740000000001
21
-17.6798380000000002
0
LINE
8
BLACK
6
CONTINUOUS
10
24.6302979999999998
20
-15.6798380000000002
11
23.6779169999999972
21
-15.6798380000000002
0
LINE
8
BLACK
6
CONTINUOUS
10
23.6779169999999972
20
-15.6798380000000002
11
23.5826789999999988
21
-16.6322189999999992
0
LINE
8
BLACK
6
CONTINUOUS
10
23.5826789999999988
20
-16.6322189999999992
11
23.6779169999999972
21
-16.5369799999999998
0
LINE
8
BLACK
6
CONTINUOUS
10
23.6779169999999972
20
-16.5369799999999998
11
23.8683929999999975
21
-16.4417419999999979
0
LINE
8
BLACK
6
CONTINUOUS
10
23.8683929999999975
20
-16.4417419999999979
11
24.3445839999999976
21
-16.4417419999999979
0
LINE
8
BLACK
6
CONTINUOUS
10
24.3445839999999976
20
-16.4417419999999979
11
24.5350599999999979
21
-16.5369799999999998
0
LINE
8
BLACK
6
CONTINUOUS
10
24.5350599999999979
20
-16.5369799999999998
11
24.6302979999999998
21
-16.6322189999999992
0
LINE
8
BLACK
6
CONTINUOUS
10
24.6302979999999998
20
-16.6322189999999992
11
24.7255359999999982
21
-16.8226949999999995
0
LINE
8
BLACK
6
CONTINUOUS
10
24.7255359999999982
20
-16.8226949999999995
11
24.7255359999999982
21
-17.2988849999999985
0
LINE
8
BLACK
6
CONTINUOUS
10
24.7255359999999982
20
-17.2988849999999985
11
24.6302979999999998
21
-17.4893609999999988
0
LINE
8
BLACK
6
CONTINUOUS
10
24.6302979999999998
20
-17.4893609999999988
11
24.5350599999999979
21
-17.5845999999999982
0
LINE
8
BLACK
6
CONTINUOUS
10
24.5350599999999979
20
-17.5845999999999982
11
24.3445839999999976
21
-17.6798380000000002
0
LINE
8
BLACK
6
CONTINUOUS
10
24.3445839999999976
20
-17.6798380000000002
11
23.8683929999999975
21
-17.6798380000000002
0
LINE
8
BLACK
6
CONTINUOUS
10
23.8683929999999975
20
-17.6798380000000002
11
23.6779169999999972
21
-17.5845999999999982
0
LINE
8
BLACK
6
CONTINUOUS
10
23.6779169999999972
20
-17.5845999999999982
11
23.5826789999999988
21
-17.4893609999999988
0
LINE
8
BLACK
6
CONTINUOUS
10
25.9636309999999995
20
-15.6798380000000002
11
26.1541079999999972
21
-15.6798380000000002
0
LINE
8
BLACK
6
CONTINUOUS
10
26.1541079999999972
20
-15.6798380000000002
11
26.3445839999999976
21
-15.7750759999999985
0
LINE
8
BLACK
6
CONTINUOUS
10
26.3445839999999976
20
-15.7750759999999985
11
26.4398219999999995
21
-15.8703139999999987
0
LINE
8
BLACK
6
CONTINUOUS
10
26.4398219999999995
20
-15.8703139999999987
11
26.5350599999999979
21
-16.0607900000000008
0
LINE
8
BLACK
6
CONTINUOUS
10
26.5350599999999979
20
-16.0607900000000008
11
26.6302979999999998
21
-16.4417419999999979
0
LINE
8
BLACK
6
CONTINUOUS
10
26.6302979999999998
20
-16.4417419999999979
11
26.6302979999999998
21
-16.9179329999999979
0
LINE
8
BLACK
6
CONTINUOUS
10
26.6302979999999998
20
-16.9179329999999979
11
26.5350599999999979
21
-17.2988849999999985
0
LINE
8
BLACK
6
CONTINUOUS
10
26.5350599999999979
20
-17.2988849999999985
11
26.4398219999999995
21
-17.4893609999999988
0
LINE
8
BLACK
6
CONTINUOUS
10
26.4398219999999995
20
-17.4893609999999988
11
26.3445839999999976
21
-17.5845999999999982
0
LINE
8
BLACK
6
CONTINUOUS
10
26.3445839999999976
20
-17.5845999999999982
11
26.1541079999999972
21
-17.6798380000000002
0
LINE
8
BLACK
6
CONTINUOUS
10
26.1541079999999972
20
-17.6798380000000002
11
25.9636309999999995
21
-17.6798380000000002
0
LINE
8
BLACK
6
CONTINUOUS
10
25.9636309999999995
20
-17.6798380000000002
11
25.7731549999999991
21
-17.5845999999999982
0
LINE
8
BLACK
6
CONTINUOUS
10
25.7731549999999991
20
-17.5845999999999982
11
25.6779169999999972
21
-17.4893609999999988
0
LINE
8
BLACK
6
CONTINUOUS
10
25.6779169999999972
20
-17.4893609999999988
11
25.5826789999999988
21
-17.2988849999999985
0
LINE
8
BLACK
6
CONTINUOUS
10
25.5826789999999988
20
-17.2988849999999985
11
25.4874410000000005
21
-16.9179329999999979
0
LINE
8
BLACK
6
CONTINUOUS
10
25.4874410000000005
20
-16.9179329999999979
11
25.4874410000000005
21
-16.4417419999999979
0
LINE
8
BLACK
6
CONTINUOUS
10
25.4874410000000005
20
-16.4417419999999979
11
25.5826789999999988
21
-16.0607900000000008
0
LINE
8
BLACK
6
CONTINUOUS
10
25.5826789999999988
20
-16.0607900000000008
11
25.6779169999999972
21
-15.8703139999999987
0
LINE
8
BLACK
6
CONTINUOUS
10
25.6779169999999972
20
-15.8703139999999987
11
25.7731549999999991
21
-15.7750759999999985
0
LINE
8
BLACK
6
CONTINUOUS
10
25.7731549999999991
20
-15.7750759999999985
11
25.9636309999999995
21
-15.6798380000000002
0
LINE
8
BLACK
6
CONTINUOUS
10
27.3922029999999985
20
-15.6798380000000002
11
27.3922029999999985
21
-16.0607900000000008
0
LINE
8
BLACK
6
CONTINUOUS
10
28.1541079999999972
20
-15.6798380000000002
11
28.1541079999999972
21
-16.0607900000000008
0
LINE
8
BLACK
6
CONTINUOUS
10
31.1064899999999973
20
-18.4417419999999979
11
31.0112509999999979
21
-18.3465039999999995
0
LINE
8
BLACK
6
CONTINUOUS
10
31.0112509999999979
20
-18.3465039999999995
11
30.8207749999999976
21
-18.0607900000000008
0
LINE
8
BLACK
6
CONTINUOUS
10
30.8207749999999976
20
-18.0607900000000008
11
30.7255369999999992
21
-17.8703140000000005
0
LINE
8
BLACK
6
CONTINUOUS
10
30.7255369999999992
20
-17.8703140000000005
11
30.6302989999999973
21
-17.5845999999999982
0
LINE
8
BLACK
6
CONTINUOUS
10
30.6302989999999973
20
-17.5845999999999982
11
30.5350609999999989
21
-17.1084089999999982
0
LINE
8
BLACK
6
CONTINUOUS
10
30.5350609999999989
20
-17.1084089999999982
11
30.5350609999999989
21
-16.7274569999999976
0
LINE
8
BLACK
6
CONTINUOUS
10
30.5350609999999989
20
-16.7274569999999976
11
30.6302989999999973
21
-16.2512659999999975
0
LINE
8
BLACK
6
CONTINUOUS
10
30.6302989999999973
20
-16.2512659999999975
11
30.7255369999999992
21
-15.9655519999999989
0
LINE
8
BLACK
6
CONTINUOUS
10
30.7255369999999992
20
-15.9655519999999989
11
30.8207749999999976
21
-15.7750759999999985
0
LINE
8
BLACK
6
CONTINUOUS
10
30.8207749999999976
20
-15.7750759999999985
11
31.0112509999999979
21
-15.4893609999999988
0
LINE
8
BLACK
6
CONTINUOUS
10
31.0112509999999979
20
-15.4893609999999988
11
31.1064899999999973
21
-15.3941229999999987
0
LINE
8
BLACK
6
CONTINUOUS
10
31.6779179999999982
20
-15.6798380000000002
11
33.0112510000000015
21
-15.6798380000000002
0
LINE
8
BLACK
6
CONTINUOUS
10
33.0112510000000015
20
-15.6798380000000002
11
32.1541080000000008
21
-17.6798380000000002
0
LINE
8
BLACK
6
CONTINUOUS
10
35.2969659999999976
20
-17.6798380000000002
11
35.2969659999999976
21
-15.6798380000000002
0
LINE
8
BLACK
6
CONTINUOUS
10
36.1541089999999983
20
-17.6798380000000002
11
36.1541089999999983
21
-16.6322189999999992
0
LINE
8
BLACK
6
CONTINUOUS
10
36.1541089999999983
20
-16.6322189999999992
11
36.0588709999999963
21
-16.4417419999999979
0
LINE
8
BLACK
6
CONTINUOUS
10
36.0588709999999963
20
-16.4417419999999979
11
35.8683949999999996
21
-16.3465039999999995
0
LINE
8
BLACK
6
CONTINUOUS
10
35.8683949999999996
20
-16.3465039999999995
11
35.5826799999999963
21
-16.3465039999999995
0
LINE
8
BLACK
6
CONTINUOUS
10
35.5826799999999963
20
-16.3465039999999995
11
35.3922039999999996
21
-16.4417419999999979
0
LINE
8
BLACK
6
CONTINUOUS
10
35.3922039999999996
20
-16.4417419999999979
11
35.2969659999999976
21
-16.5369799999999998
0
LINE
8
BLACK
6
CONTINUOUS
10
37.3922039999999996
20
-17.6798380000000002
11
37.2017279999999957
21
-17.5845999999999982
0
LINE
8
BLACK
6
CONTINUOUS
10
37.2017279999999957
20
-17.5845999999999982
11
37.1064900000000009
21
-17.4893609999999988
0
LINE
8
BLACK
6
CONTINUOUS
10
37.1064900000000009
20
-17.4893609999999988
11
37.0112519999999989
21
-17.2988849999999985
0
LINE
8
BLACK
6
CONTINUOUS
10
37.0112519999999989
20
-17.2988849999999985
11
37.0112519999999989
21
-16.7274569999999976
0
LINE
8
BLACK
6
CONTINUOUS
10
37.0112519999999989
20
-16.7274569999999976
11
37.1064900000000009
21
-16.5369799999999998
0
LINE
8
BLACK
6
CONTINUOUS
10
37.1064900000000009
20
-16.5369799999999998
11
37.2017279999999957
21
-16.4417419999999979
0
LINE
8
BLACK
6
CONTINUOUS
10
37.2017279999999957
20
-16.4417419999999979
11
37.3922039999999996
21
-16.3465039999999995
0
LINE
8
BLACK
6
CONTINUOUS
10
37.3922039999999996
20
-16.3465039999999995
11
37.6779189999999957
21
-16.3465039999999995
0
LINE
8
BLACK
6
CONTINUOUS
10
37.6779189999999957
20
-16.3465039999999995
11
37.8683949999999996
21
-16.4417419999999979
0
LINE
8
BLACK
6
CONTINUOUS
10
37.8683949999999996
20
-16.4417419999999979
11
37.9636330000000015
21
-16.5369799999999998
0
LINE
8
BLACK
6
CONTINUOUS
10
37.9636330000000015
20
-16.5369799999999998
11
38.0588709999999963
21
-16.7274569999999976
0
LINE
8
BLACK
6
CONTINUOUS
10
38.0588709999999963
20
-16.7274569999999976
11
38.0588709999999963
21
-17.2988849999999985
0
LINE
8
BLACK
6
CONTINUOUS
10
38.0588709999999963
20
-17.2988849999999985
11
37.9636330000000015
21
-17.4893609999999988
0
LINE
8
BLACK
6
CONTINUOUS
10
37.9636330000000015
20
-17.4893609999999988
11
37.8683949999999996
21
-17.5845999999999982
0
LINE
8
BLACK
6
CONTINUOUS
10
37.8683949999999996
20
-17.5845999999999982
11
37.6779189999999957
21
-17.6798380000000002
0
LINE
8
BLACK
6
CONTINUOUS
10
37.6779189999999957
20
-17.6798380000000002
11
37.3922039999999996
21
-17.6798380000000002
0
LINE
8
BLACK
6
CONTINUOUS
10
39.2017279999999957
20
-17.6798380000000002
11
39.0112519999999989
21
-17.5845999999999982
0
LINE
8
BLACK
6
CONTINUOUS
10
39.0112519999999989
20
-17.5845999999999982
11
38.916013999999997
21
-17.3941230000000004
0
LINE
8
BLACK
6
CONTINUOUS
10
38.916013999999997
20
-17.3941230000000004
11
38.916013999999997
21
-15.6798380000000002
0
LINE
8
BLACK
6
CONTINUOUS
10
40.7255380000000002
20
-17.5845999999999982
11
40.5350619999999964
21
-17.6798380000000002
0
LINE
8
BLACK
6
CONTINUOUS
10
40.5350619999999964
20
-17.6798380000000002
11
40.1541089999999983
21
-17.6798380000000002
0
LINE
8
BLACK
6
CONTINUOUS
10
40.1541089999999983
20
-17.6798380000000002
11
39.9636330000000015
21
-17.5845999999999982
0
LINE
8
BLACK
6
CONTINUOUS
10
39.9636330000000015
20
-17.5845999999999982
11
39.8683949999999996
21
-17.3941230000000004
0
LINE
8
BLACK
6
CONTINUOUS
10
39.8683949999999996
20
-17.3941230000000004
11
39.8683949999999996
21
-16.6322189999999992
0
LINE
8
BLACK
6
CONTINUOUS
10
39.8683949999999996
20
-16.6322189999999992
11
39.9636330000000015
21
-16.4417419999999979
0
LINE
8
BLACK
6
CONTINUOUS
10
39.9636330000000015
20
-16.4417419999999979
11
40.1541089999999983
21
-16.3465039999999995
0
LINE
8
BLACK
6
CONTINUOUS
10
40.1541089999999983
20
-16.3465039999999995
11
40.5350619999999964
21
-16.3465039999999995
0
LINE
8
BLACK
6
CONTINUOUS
10
40.5350619999999964
20
-16.3465039999999995
11
40.7255380000000002
21
-16.4417419999999979
0
LINE
8
BLACK
6
CONTINUOUS
10
40.7255380000000002
20
-16.4417419999999979
11
40.8207759999999951
21
-16.6322189999999992
0
LINE
8
BLACK
6
CONTINUOUS
10
40.8207759999999951
20
-16.6322189999999992
11
40.8207759999999951
21
-16.8226949999999995
0
LINE
8
BLACK
6
CONTINUOUS
10
40.8207759999999951
20
-16.8226949999999995
11
39.8683949999999996
21
-17.0131709999999998
0
LINE
8
BLACK
6
CONTINUOUS
10
41.5826810000000009
20
-17.5845999999999982
11
41.7731569999999977
21
-17.6798380000000002
0
LINE
8
BLACK
6
CONTINUOUS
10
41.7731569999999977
20
-17.6798380000000002
11
42.1541089999999983
21
-17.6798380000000002
0
LINE
8
BLACK
6
CONTINUOUS
10
42.1541089999999983
20
-17.6798380000000002
11
42.3445859999999996
21
-17.5845999999999982
0
LINE
8
BLACK
6
CONTINUOUS
10
42.3445859999999996
20
-17.5845999999999982
11
42.4398240000000015
21
-17.3941230000000004
0
LINE
8
BLACK
6
CONTINUOUS
10
42.4398240000000015
20
-17.3941230000000004
11
42.4398240000000015
21
-17.2988849999999985
0
LINE
8
BLACK
6
CONTINUOUS
10
42.4398240000000015
20
-17.2988849999999985
11
42.3445859999999996
21
-17.1084089999999982
0
LINE
8
BLACK
6
CONTINUOUS
10
42.3445859999999996
20
-17.1084089999999982
11
42.1541089999999983
21
-17.0131709999999998
0
LINE
8
BLACK
6
CONTINUOUS
10
42.1541089999999983
20
-17.0131709999999998
11
41.8683949999999996
21
-17.0131709999999998
0
LINE
8
BLACK
6
CONTINUOUS
10
41.8683949999999996
20
-17.0131709999999998
11
41.6779189999999957
21
-16.9179329999999979
0
LINE
8
BLACK
6
CONTINUOUS
10
41.6779189999999957
20
-16.9179329999999979
11
41.5826810000000009
21
-16.7274569999999976
0
LINE
8
BLACK
6
CONTINUOUS
10
41.5826810000000009
20
-16.7274569999999976
11
41.5826810000000009
21
-16.6322189999999992
0
LINE
8
BLACK
6
CONTINUOUS
10
41.5826810000000009
20
-16.6322189999999992
11
41.6779189999999957
21
-16.4417419999999979
0
LINE
8
BLACK
6
CONTINUOUS
10
41.6779189999999957
20
-16.4417419999999979
11
41.8683949999999996
21
-16.3465039999999995
0
LINE
8
BLACK
6
CONTINUOUS
10
41.8683949999999996
20
-16.3465039999999995
11
42.1541089999999983
21
-16.3465039999999995
0
LINE
8
BLACK
6
CONTINUOUS
10
42.1541089999999983
20
-16.3465039999999995
11
42.3445859999999996
21
-16.4417419999999979
0
LINE
8
BLACK
6
CONTINUOUS
10
43.1064909999999983
20
-18.4417419999999979
11
43.2017290000000003
21
-18.3465039999999995
0
LINE
8
BLACK
6
CONTINUOUS
10
43.2017290000000003
20
-18.3465039999999995
11
43.392204999999997
21
-18.0607900000000008
0
LINE
8
BLACK
6
CONTINUOUS
10
43.392204999999997
20
-18.0607900000000008
11
43.487442999999999
21
-17.8703140000000005
0
LINE
8
BLACK
6
CONTINUOUS
10
43.487442999999999
20
-17.8703140000000005
11
43.5826810000000009
21
-17.5845999999999982
0
LINE
8
BLACK
6
CONTINUOUS
10
43.5826810000000009
20
-17.5845999999999982
11
43.6779189999999957
21
-17.1084089999999982
0
LINE
8
BLACK
6
CONTINUOUS
10
43.6779189999999957
20
-17.1084089999999982
11
43.6779189999999957
21
-16.7274569999999976
0
LINE
8
BLACK
6
CONTINUOUS
10
43.6779189999999957
20
-16.7274569999999976
11
43.5826810000000009
21
-16.2512659999999975
0
LINE
8
BLACK
6
CONTINUOUS
10
43.5826810000000009
20
-16.2512659999999975
11
43.487442999999999
21
-15.9655519999999989
0
LINE
8
BLACK
6
CONTINUOUS
10
43.487442999999999
20
-15.9655519999999989
11
43.392204999999997
21
-15.7750759999999985
0
LINE
8
BLACK
6
CONTINUOUS
10
43.392204999999997
20
-15.7750759999999985
11
43.2017290000000003
21
-15.4893609999999988
0
LINE
8
BLACK
6
CONTINUOUS
10
43.2017290000000003
20
-15.4893609999999988
11
43.1064909999999983
21
-15.3941229999999987
0
LINE
8
BLACK
6
CONTINUOUS
10
46.7255389999999977
20
-18.4417419999999979
11
46.6302999999999983
21
-18.3465039999999995
0
LINE
8
BLACK
6
CONTINUOUS
10
46.6302999999999983
20
-18.3465039999999995
11
46.4398239999999944
21
-18.0607900000000008
0
LINE
8
BLACK
6
CONTINUOUS
10
46.4398239999999944
20
-18.0607900000000008
11
46.3445859999999996
21
-17.8703140000000005
0
LINE
8
BLACK
6
CONTINUOUS
10
46.3445859999999996
20
-17.8703140000000005
11
46.2493479999999977
21
-17.5845999999999982
0
LINE
8
BLACK
6
CONTINUOUS
10
46.2493479999999977
20
-17.5845999999999982
11
46.1541099999999958
21
-17.1084089999999982
0
LINE
8
BLACK
6
CONTINUOUS
10
46.1541099999999958
20
-17.1084089999999982
11
46.1541099999999958
21
-16.7274569999999976
0
LINE
8
BLACK
6
CONTINUOUS
10
46.1541099999999958
20
-16.7274569999999976
11
46.2493479999999977
21
-16.2512659999999975
0
LINE
8
BLACK
6
CONTINUOUS
10
46.2493479999999977
20
-16.2512659999999975
11
46.3445859999999996
21
-15.9655519999999989
0
LINE
8
BLACK
6
CONTINUOUS
10
46.3445859999999996
20
-15.9655519999999989
11
46.4398239999999944
21
-15.7750759999999985
0
LINE
8
BLACK
6
CONTINUOUS
10
46.4398239999999944
20
-15.7750759999999985
11
46.6302999999999983
21
-15.4893609999999988
0
LINE
8
BLACK
6
CONTINUOUS
10
46.6302999999999983
20
-15.4893609999999988
11
46.7255389999999977
21
-15.3941229999999987
0
LINE
8
BLACK
6
CONTINUOUS
10
47.487442999999999
20
-16.3465039999999995
11
47.487442999999999
21
-17.6798380000000002
0
LINE
8
BLACK
6
CONTINUOUS
10
47.487442999999999
20
-16.5369799999999998
11
47.5826810000000009
21
-16.4417419999999979
0
LINE
8
BLACK
6
CONTINUOUS
10
47.5826810000000009
20
-16.4417419999999979
11
47.7731569999999977
21
-16.3465039999999995
0
LINE
8
BLACK
6
CONTINUOUS
10
47.7731569999999977
20
-16.3465039999999995
11
48.0588720000000009
21
-16.3465039999999995
0
LINE
8
BLACK
6
CONTINUOUS
10
48.0588720000000009
20
-16.3465039999999995
11
48.2493479999999977
21
-16.4417419999999979
0
LINE
8
BLACK
6
CONTINUOUS
10
48.2493479999999977
20
-16.4417419999999979
11
48.3445859999999996
21
-16.6322189999999992
0
LINE
8
BLACK
6
CONTINUOUS
10
48.3445859999999996
20
-16.6322189999999992
11
48.3445859999999996
21
-17.6798380000000002
0
LINE
8
BLACK
6
CONTINUOUS
10
49.5826810000000009
20
-17.6798380000000002
11
49.392204999999997
21
-17.5845999999999982
0
LINE
8
BLACK
6
CONTINUOUS
10
49.392204999999997
20
-17.5845999999999982
11
49.2969669999999951
21
-17.4893609999999988
0
LINE
8
BLACK
6
CONTINUOUS
10
49.2969669999999951
20
-17.4893609999999988
11
49.2017290000000003
21
-17.2988849999999985
0
LINE
8
BLACK
6
CONTINUOUS
10
49.2017290000000003
20
-17.2988849999999985
11
49.2017290000000003
21
-16.7274569999999976
0
LINE
8
BLACK
6
CONTINUOUS
10
49.2017290000000003
20
-16.7274569999999976
11
49.2969669999999951
21
-16.5369799999999998
0
LINE
8
BLACK
6
CONTINUOUS
10
49.2969669999999951
20
-16.5369799999999998
11
49.392204999999997
21
-16.4417419999999979
0
LINE
8
BLACK
6
CONTINUOUS
10
49.392204999999997
20
-16.4417419999999979
11
49.5826810000000009
21
-16.3465039999999995
0
LINE
8
BLACK
6
CONTINUOUS
10
49.5826810000000009
20
-16.3465039999999995
11
49.8683959999999971
21
-16.3465039999999995
0
LINE
8
BLACK
6
CONTINUOUS
10
49.8683959999999971
20
-16.3465039999999995
11
50.0588720000000009
21
-16.4417419999999979
0
LINE
8
BLACK
6
CONTINUOUS
10
50.0588720000000009
20
-16.4417419999999979
11
50.1541099999999958
21
-16.5369799999999998
0
LINE
8
BLACK
6
CONTINUOUS
10
50.1541099999999958
20
-16.5369799999999998
11
50.2493479999999977
21
-16.7274569999999976
0
LINE
8
BLACK
6
CONTINUOUS
10
50.2493479999999977
20
-16.7274569999999976
11
50.2493479999999977
21
-17.2988849999999985
0
LINE
8
BLACK
6
CONTINUOUS
10
50.2493479999999977
20
-17.2988849999999985
11
50.1541099999999958
21
-17.4893609999999988
0
LINE
8
BLACK
6
CONTINUOUS
10
50.1541099999999958
20
-17.4893609999999988
11
50.0588720000000009
21
-17.5845999999999982
0
LINE
8
BLACK
6
CONTINUOUS
10
50.0588720000000009
20
-17.5845999999999982
11
49.8683959999999971
21
-17.6798380000000002
0
LINE
8
BLACK
6
CONTINUOUS
10
49.8683959999999971
20
-17.6798380000000002
11
49.5826810000000009
21
-17.6798380000000002
0
LINE
8
BLACK
6
CONTINUOUS
10
50.8207769999999996
20
-16.3465039999999995
11
51.5826810000000009
21
-16.3465039999999995
0
LINE
8
BLACK
6
CONTINUOUS
10
51.1064909999999983
20
-15.6798380000000002
11
51.1064909999999983
21
-17.3941230000000004
0
LINE
8
BLACK
6
CONTINUOUS
10
51.1064909999999983
20
-17.3941230000000004
11
51.2017290000000003
21
-17.5845999999999982
0
LINE
8
BLACK
6
CONTINUOUS
10
51.2017290000000003
20
-17.5845999999999982
11
51.392204999999997
21
-17.6798380000000002
0
LINE
8
BLACK
6
CONTINUOUS
10
51.392204999999997
20
-17.6798380000000002
11
51.5826810000000009
21
-17.6798380000000002
0
LINE
8
BLACK
6
CONTINUOUS
10
53.7731579999999951
20
-16.3465039999999995
11
53.7731579999999951
21
-18.3465039999999995
0
LINE
8
BLACK
6
CONTINUOUS
10
53.7731579999999951
20
-16.4417419999999979
11
53.963633999999999
21
-16.3465039999999995
0
LINE
8
BLACK
6
CONTINUOUS
10
53.963633999999999
20
-16.3465039999999995
11
54.3445869999999971
21
-16.3465039999999995
0
LINE
8
BLACK
6
CONTINUOUS
10
54.3445869999999971
20
-16.3465039999999995
11
54.535063000000001
21
-16.4417419999999979
0
LINE
8
BLACK
6
CONTINUOUS
10
54.535063000000001
20
-16.4417419999999979
11
54.6303009999999958
21
-16.5369799999999998
0
LINE
8
BLACK
6
CONTINUOUS
10
54.6303009999999958
20
-16.5369799999999998
11
54.7255389999999977
21
-16.7274569999999976
0
LINE
8
BLACK
6
CONTINUOUS
10
54.7255389999999977
20
-16.7274569999999976
11
54.7255389999999977
21
-17.2988849999999985
0
LINE
8
BLACK
6
CONTINUOUS
10
54.7255389999999977
20
-17.2988849999999985
11
54.6303009999999958
21
-17.4893609999999988
0
LINE
8
BLACK
6
CONTINUOUS
10
54.6303009999999958
20
-17.4893609999999988
11
54.535063000000001
21
-17.5845999999999982
0
LINE
8
BLACK
6
CONTINUOUS
10
54.535063000000001
20
-17.5845999999999982
11
54.3445869999999971
21
-17.6798380000000002
0
LINE
8
BLACK
6
CONTINUOUS
10
54.3445869999999971
20
-17.6798380000000002
11
53.963633999999999
21
-17.6798380000000002
0
LINE
8
BLACK
6
CONTINUOUS
10
53.963633999999999
20
-17.6798380000000002
11
53.7731579999999951
21
-17.5845999999999982
0
LINE
8
BLACK
6
CONTINUOUS
10
55.8683959999999971
20
-17.6798380000000002
11
55.6779200000000003
21
-17.5845999999999982
0
LINE
8
BLACK
6
CONTINUOUS
10
55.6779200000000003
20
-17.5845999999999982
11
55.5826819999999984
21
-17.3941230000000004
0
LINE
8
BLACK
6
CONTINUOUS
10
55.5826819999999984
20
-17.3941230000000004
11
55.5826819999999984
21
-15.6798380000000002
0
LINE
8
BLACK
6
CONTINUOUS
10
57.4874439999999964
20
-17.6798380000000002
11
57.4874439999999964
21
-16.6322189999999992
0
LINE
8
BLACK
6
CONTINUOUS
10
57.4874439999999964
20
-16.6322189999999992
11
57.3922059999999945
21
-16.4417419999999979
0
LINE
8
BLACK
6
CONTINUOUS
10
57.3922059999999945
20
-16.4417419999999979
11
57.2017299999999977
21
-16.3465039999999995
0
LINE
8
BLACK
6
CONTINUOUS
10
57.2017299999999977
20
-16.3465039999999995
11
56.8207769999999996
21
-16.3465039999999995
0
LINE
8
BLACK
6
CONTINUOUS
10
56.8207769999999996
20
-16.3465039999999995
11
56.6303009999999958
21
-16.4417419999999979
0
LINE
8
BLACK
6
CONTINUOUS
10
57.4874439999999964
20
-17.5845999999999982
11
57.2969679999999997
21
-17.6798380000000002
0
LINE
8
BLACK
6
CONTINUOUS
10
57.2969679999999997
20
-17.6798380000000002
11
56.8207769999999996
21
-17.6798380000000002
0
LINE
8
BLACK
6
CONTINUOUS
10
56.8207769999999996
20
-17.6798380000000002
11
56.6303009999999958
21
-17.5845999999999982
0
LINE
8
BLACK
6
CONTINUOUS
10
56.6303009999999958
20
-17.5845999999999982
11
56.535063000000001
21
-17.3941230000000004
0
LINE
8
BLACK
6
CONTINUOUS
10
56.535063000000001
20
-17.3941230000000004
11
56.535063000000001
21
-17.2036470000000001
0
LINE
8
BLACK
6
CONTINUOUS
10
56.535063000000001
20
-17.2036470000000001
11
56.6303009999999958
21
-17.0131709999999998
0
LINE
8
BLACK
6
CONTINUOUS
10
56.6303009999999958
20
-17.0131709999999998
11
56.8207769999999996
21
-16.9179329999999979
0
LINE
8
BLACK
6
CONTINUOUS
10
56.8207769999999996
20
-16.9179329999999979
11
57.2969679999999997
21
-16.9179329999999979
0
LINE
8
BLACK
6
CONTINUOUS
10
57.2969679999999997
20
-16.9179329999999979
11
57.4874439999999964
21
-16.8226949999999995
0
LINE
8
BLACK
6
CONTINUOUS
10
58.1541110000000003
20
-16.3465039999999995
11
58.9160149999999945
21
-16.3465039999999995
0
LINE
8
BLACK
6
CONTINUOUS
10
58.439824999999999
20
-15.6798380000000002
11
58.439824999999999
21
-17.3941230000000004
0
LINE
8
BLACK
6
CONTINUOUS
10
58.439824999999999
20
-17.3941230000000004
11
58.5350629999999938
21
-17.5845999999999982
0
LINE
8
BLACK
6
CONTINUOUS
10
58.5350629999999938
20
-17.5845999999999982
11
58.7255389999999977
21
-17.6798380000000002
0
LINE
8
BLACK
6
CONTINUOUS
10
58.7255389999999977
20
-17.6798380000000002
11
58.9160149999999945
21
-17.6798380000000002
0
LINE
8
BLACK
6
CONTINUOUS
10
60.3445869999999971
20
-17.5845999999999982
11
60.1541110000000003
21
-17.6798380000000002
0
LINE
8
BLACK
6
CONTINUOUS
10
60.1541110000000003
20
-17.6798380000000002
11
59.7731579999999951
21
-17.6798380000000002
0
LINE
8
BLACK
6
CONTINUOUS
10
59.7731579999999951
20
-17.6798380000000002
11
59.5826819999999984
21
-17.5845999999999982
0
LINE
8
BLACK
6
CONTINUOUS
10
59.5826819999999984
20
-17.5845999999999982
11
59.4874439999999964
21
-17.3941230000000004
0
LINE
8
BLACK
6
CONTINUOUS
10
59.4874439999999964
20
-17.3941230000000004
11
59.4874439999999964
21
-16.6322189999999992
0
LINE
8
BLACK
6
CONTINUOUS
10
59.4874439999999964
20
-16.6322189999999992
11
59.5826819999999984
21
-16.4417419999999979
0
LINE
8
BLACK
6
CONTINUOUS
10
59.5826819999999984
20
-16.4417419999999979
11
59.7731579999999951
21
-16.3465039999999995
0
LINE
8
BLACK
6
CONTINUOUS
10
59.7731579999999951
20
-16.3465039999999995
11
60.1541110000000003
21
-16.3465039999999995
0
LINE
8
BLACK
6
CONTINUOUS
10
60.1541110000000003
20
-16.3465039999999995
11
60.3445869999999971
21
-16.4417419999999979
0
LINE
8
BLACK
6
CONTINUOUS
10
60.3445869999999971
20
-16.4417419999999979
11
60.439824999999999
21
-16.6322189999999992
0
LINE
8
BLACK
6
CONTINUOUS
10
60.439824999999999
20
-16.6322189999999992
11
60.439824999999999
21
-16.8226949999999995
0
LINE
8
BLACK
6
CONTINUOUS
10
60.439824999999999
20
-16.8226949999999995
11
59.4874439999999964
21
-17.0131709999999998
0
LINE
8
BLACK
6
CONTINUOUS
10
62.1541110000000003
20
-17.6798380000000002
11
62.1541110000000003
21
-15.6798380000000002
0
LINE
8
BLACK
6
CONTINUOUS
10
62.1541110000000003
20
-17.5845999999999982
11
61.9636349999999965
21
-17.6798380000000002
0
LINE
8
BLACK
6
CONTINUOUS
10
61.9636349999999965
20
-17.6798380000000002
11
61.5826819999999984
21
-17.6798380000000002
0
LINE
8
BLACK
6
CONTINUOUS
10
61.5826819999999984
20
-17.6798380000000002
11
61.3922059999999945
21
-17.5845999999999982
0
LINE
8
BLACK
6
CONTINUOUS
10
61.3922059999999945
20
-17.5845999999999982
11
61.2969679999999997
21
-17.4893609999999988
0
LINE
8
BLACK
6
CONTINUOUS
10
61.2969679999999997
20
-17.4893609999999988
11
61.2017299999999977
21
-17.2988849999999985
0
LINE
8
BLACK
6
CONTINUOUS
10
61.2017299999999977
20
-17.2988849999999985
11
61.2017299999999977
21
-16.7274569999999976
0
LINE
8
BLACK
6
CONTINUOUS
10
61.2017299999999977
20
-16.7274569999999976
11
61.2969679999999997
21
-16.5369799999999998
0
LINE
8
BLACK
6
CONTINUOUS
10
61.2969679999999997
20
-16.5369799999999998
11
61.3922059999999945
21
-16.4417419999999979
0
LINE
8
BLACK
6
CONTINUOUS
10
61.3922059999999945
20
-16.4417419999999979
11
61.5826819999999984
21
-16.3465039999999995
0
LINE
8
BLACK
6
CONTINUOUS
10
61.5826819999999984
20
-16.3465039999999995
11
61.9636349999999965
21
-16.3465039999999995
0
LINE
8
BLACK
6
CONTINUOUS
10
61.9636349999999965
20
-16.3465039999999995
11
62.1541110000000003
21
-16.4417419999999979
0
LINE
8
BLACK
6
CONTINUOUS
10
62.9160159999999991
20
-18.4417419999999979
11
63.0112539999999939
21
-18.3465039999999995
0
LINE
8
BLACK
6
CONTINUOUS
10
63.0112539999999939
20
-18.3465039999999995
11
63.2017299999999977
21
-18.0607900000000008
0
LINE
8
BLACK
6
CONTINUOUS
10
63.2017299999999977
20
-18.0607900000000008
11
63.2969679999999997
21
-17.8703140000000005
0
LINE
8
BLACK
6
CONTINUOUS
10
63.2969679999999997
20
-17.8703140000000005
11
63.3922059999999945
21
-17.5845999999999982
0
LINE
8
BLACK
6
CONTINUOUS
10
63.3922059999999945
20
-17.5845999999999982
11
63.4874439999999964
21
-17.1084089999999982
0
LINE
8
BLACK
6
CONTINUOUS
10
63.4874439999999964
20
-17.1084089999999982
11
63.4874439999999964
21
-16.7274569999999976
0
LINE
8
BLACK
6
CONTINUOUS
10
63.4874439999999964
20
-16.7274569999999976
11
63.3922059999999945
21
-16.2512659999999975
0
LINE
8
BLACK
6
CONTINUOUS
10
63.3922059999999945
20
-16.2512659999999975
11
63.2969679999999997
21
-15.9655519999999989
0
LINE
8
BLACK
6
CONTINUOUS
10
63.2969679999999997
20
-15.9655519999999989
11
63.2017299999999977
21
-15.7750759999999985
0
LINE
8
BLACK
6
CONTINUOUS
10
63.2017299999999977
20
-15.7750759999999985
11
63.0112539999999939
21
-15.4893609999999988
0
LINE
8
BLACK
6
CONTINUOUS
10
63.0112539999999939
20
-15.4893609999999988
11
62.9160159999999991
21
-15.3941229999999987
0
LINE
8
BLACK
6
CONTINUOUS
10
-4.9370250000000002
20
-20.6721140000000005
11
-4.9370250000000002
21
-19.2578859999999992
0
LINE
8
BLACK
6
CONTINUOUS
10
-4.9370250000000002
20
-19.2578859999999992
11
-6.3512529999999998
21
-19.2578859999999992
0
LINE
8
BLACK
6
CONTINUOUS
10
-6.3512529999999998
20
-19.2578859999999992
11
-6.3512529999999998
21
-20.6721140000000005
0
LINE
8
BLACK
6
CONTINUOUS
10
-6.3512529999999998
20
-20.6721140000000005
11
-4.9370250000000002
21
-20.6721140000000005
0
LINE
8
BLACK
6
CONTINUOUS
10
-2.2268469999999998
20
-18.8798379999999995
11
-0.988752
21
-18.8798379999999995
0
LINE
8
BLACK
6
CONTINUOUS
10
-0.988752
20
-18.8798379999999995
11
-1.655419
21
-19.6417420000000007
0
LINE
8
BLACK
6
CONTINUOUS
10
-1.655419
20
-19.6417420000000007
11
-1.369704
21
-19.6417420000000007
0
LINE
8
BLACK
6
CONTINUOUS
10
-1.369704
20
-19.6417420000000007
11
-1.1792279999999999
21
-19.7369799999999991
0
LINE
8
BLACK
6
CONTINUOUS
10
-1.1792279999999999
20
-19.7369799999999991
11
-1.08399
21
-19.8322189999999985
0
LINE
8
BLACK
6
CONTINUOUS
10
-1.08399
20
-19.8322189999999985
11
-0.988752
21
-20.0226949999999988
0
LINE
8
BLACK
6
CONTINUOUS
10
-0.988752
20
-20.0226949999999988
11
-0.988752
21
-20.4988849999999978
0
LINE
8
BLACK
6
CONTINUOUS
10
-0.988752
20
-20.4988849999999978
11
-1.08399
21
-20.6893609999999981
0
LINE
8
BLACK
6
CONTINUOUS
10
-1.08399
20
-20.6893609999999981
11
-1.1792279999999999
21
-20.7845999999999975
0
LINE
8
BLACK
6
CONTINUOUS
10
-1.1792279999999999
20
-20.7845999999999975
11
-1.369704
21
-20.8798379999999995
0
LINE
8
BLACK
6
CONTINUOUS
10
-1.369704
20
-20.8798379999999995
11
-1.941133
21
-20.8798379999999995
0
LINE
8
BLACK
6
CONTINUOUS
10
-1.941133
20
-20.8798379999999995
11
-2.1316090000000001
21
-20.7845999999999975
0
LINE
8
BLACK
6
CONTINUOUS
10
-2.1316090000000001
20
-20.7845999999999975
11
-2.2268469999999998
21
-20.6893609999999981
0
LINE
8
BLACK
6
CONTINUOUS
10
-0.131609
20
-20.6893609999999981
11
-0.036371
21
-20.7845999999999975
0
LINE
8
BLACK
6
CONTINUOUS
10
-0.036371
20
-20.7845999999999975
11
-0.131609
21
-20.8798379999999995
0
LINE
8
BLACK
6
CONTINUOUS
10
-0.131609
20
-20.8798379999999995
11
-0.226847
21
-20.7845999999999975
0
LINE
8
BLACK
6
CONTINUOUS
10
-0.226847
20
-20.7845999999999975
11
-0.131609
21
-20.6893609999999981
0
LINE
8
BLACK
6
CONTINUOUS
10
-0.131609
20
-20.6893609999999981
11
-0.131609
21
-20.8798379999999995
0
LINE
8
BLACK
6
CONTINUOUS
10
0.725534
20
-19.0703139999999998
11
0.8207719999999999
21
-18.9750759999999978
0
LINE
8
BLACK
6
CONTINUOUS
10
0.8207719999999999
20
-18.9750759999999978
11
1.0112479999999999
21
-18.8798379999999995
0
LINE
8
BLACK
6
CONTINUOUS
10
1.0112479999999999
20
-18.8798379999999995
11
1.487439
21
-18.8798379999999995
0
LINE
8
BLACK
6
CONTINUOUS
10
1.487439
20
-18.8798379999999995
11
1.6779149999999998
21
-18.9750759999999978
0
LINE
8
BLACK
6
CONTINUOUS
10
1.6779149999999998
20
-18.9750759999999978
11
1.773153
21
-19.0703139999999998
0
LINE
8
BLACK
6
CONTINUOUS
10
1.773153
20
-19.0703139999999998
11
1.8683909999999999
21
-19.2607900000000001
0
LINE
8
BLACK
6
CONTINUOUS
10
1.8683909999999999
20
-19.2607900000000001
11
1.8683909999999999
21
-19.4512660000000004
0
LINE
8
BLACK
6
CONTINUOUS
10
1.8683909999999999
20
-19.4512660000000004
11
1.773153
21
-19.7369799999999991
0
LINE
8
BLACK
6
CONTINUOUS
10
1.773153
20
-19.7369799999999991
11
0.630296
21
-20.8798379999999995
0
LINE
8
BLACK
6
CONTINUOUS
10
0.630296
20
-20.8798379999999995
11
1.8683909999999999
21
-20.8798379999999995
0
LINE
8
BLACK
6
CONTINUOUS
10
3.677915
20
-18.8798379999999995
11
2.7255339999999997
21
-18.8798379999999995
0
LINE
8
BLACK
6
CONTINUOUS
10
2.7255339999999997
20
-18.8798379999999995
11
2.630296
21
-19.8322189999999985
0
LINE
8
BLACK
6
CONTINUOUS
10
2.630296
20
-19.8322189999999985
11
2.7255339999999997
21
-19.7369799999999991
0
LINE
8
BLACK
6
CONTINUOUS
10
2.7255339999999997
20
-19.7369799999999991
11
2.91601
21
-19.6417420000000007
0
LINE
8
BLACK
6
CONTINUOUS
10
2.91601
20
-19.6417420000000007
11
3.392201
21
-19.6417420000000007
0
LINE
8
BLACK
6
CONTINUOUS
10
3.392201
20
-19.6417420000000007
11
3.5826769999999999
21
-19.7369799999999991
0
LINE
8
BLACK
6
CONTINUOUS
10
3.5826769999999999
20
-19.7369799999999991
11
3.677915
21
-19.8322189999999985
0
LINE
8
BLACK
6
CONTINUOUS
10
3.677915
20
-19.8322189999999985
11
3.7731529999999998
21
-20.0226949999999988
0
LINE
8
BLACK
6
CONTINUOUS
10
3.7731529999999998
20
-20.0226949999999988
11
3.7731529999999998
21
-20.4988849999999978
0
LINE
8
BLACK
6
CONTINUOUS
10
3.7731529999999998
20
-20.4988849999999978
11
3.677915
21
-20.6893609999999981
0
LINE
8
BLACK
6
CONTINUOUS
10
3.677915
20
-20.6893609999999981
11
3.5826769999999999
21
-20.7845999999999975
0
LINE
8
BLACK
6
CONTINUOUS
10
3.5826769999999999
20
-20.7845999999999975
11
3.392201
21
-20.8798379999999995
0
LINE
8
BLACK
6
CONTINUOUS
10
3.392201
20
-20.8798379999999995
11
2.91601
21
-20.8798379999999995
0
LINE
8
BLACK
6
CONTINUOUS
10
2.91601
20
-20.8798379999999995
11
2.7255339999999997
21
-20.7845999999999975
0
LINE
8
BLACK
6
CONTINUOUS
10
2.7255339999999997
20
-20.7845999999999975
11
2.630296
21
-20.6893609999999981
0
LINE
8
BLACK
6
CONTINUOUS
10
5.0112480000000001
20
-18.8798379999999995
11
5.2017249999999997
21
-18.8798379999999995
0
LINE
8
BLACK
6
CONTINUOUS
10
5.2017249999999997
20
-18.8798379999999995
11
5.392201
21
-18.9750759999999978
0
LINE
8
BLACK
6
CONTINUOUS
10
5.392201
20
-18.9750759999999978
11
5.4874390000000002
21
-19.0703139999999998
0
LINE
8
BLACK
6
CONTINUOUS
10
5.4874390000000002
20
-19.0703139999999998
11
5.5826769999999994
21
-19.2607900000000001
0
LINE
8
BLACK
6
CONTINUOUS
10
5.5826769999999994
20
-19.2607900000000001
11
5.6779149999999996
21
-19.6417420000000007
0
LINE
8
BLACK
6
CONTINUOUS
10
5.6779149999999996
20
-19.6417420000000007
11
5.6779149999999996
21
-20.1179330000000007
0
LINE
8
BLACK
6
CONTINUOUS
10
5.6779149999999996
20
-20.1179330000000007
11
5.5826769999999994
21
-20.4988849999999978
0
LINE
8
BLACK
6
CONTINUOUS
10
5.5826769999999994
20
-20.4988849999999978
11
5.4874390000000002
21
-20.6893609999999981
0
LINE
8
BLACK
6
CONTINUOUS
10
5.4874390000000002
20
-20.6893609999999981
11
5.392201
21
-20.7845999999999975
0
LINE
8
BLACK
6
CONTINUOUS
10
5.392201
20
-20.7845999999999975
11
5.2017249999999997
21
-20.8798379999999995
0
LINE
8
BLACK
6
CONTINUOUS
10
5.2017249999999997
20
-20.8798379999999995
11
5.0112480000000001
21
-20.8798379999999995
0
LINE
8
BLACK
6
CONTINUOUS
10
5.0112480000000001
20
-20.8798379999999995
11
4.8207719999999998
21
-20.7845999999999975
0
LINE
8
BLACK
6
CONTINUOUS
10
4.8207719999999998
20
-20.7845999999999975
11
4.7255339999999997
21
-20.6893609999999981
0
LINE
8
BLACK
6
CONTINUOUS
10
4.7255339999999997
20
-20.6893609999999981
11
4.6302959999999995
21
-20.4988849999999978
0
LINE
8
BLACK
6
CONTINUOUS
10
4.6302959999999995
20
-20.4988849999999978
11
4.5350579999999994
21
-20.1179330000000007
0
LINE
8
BLACK
6
CONTINUOUS
10
4.5350579999999994
20
-20.1179330000000007
11
4.5350579999999994
21
-19.6417420000000007
0
LINE
8
BLACK
6
CONTINUOUS
10
4.5350579999999994
20
-19.6417420000000007
11
4.6302959999999995
21
-19.2607900000000001
0
LINE
8
BLACK
6
CONTINUOUS
10
4.6302959999999995
20
-19.2607900000000001
11
4.7255339999999997
21
-19.0703139999999998
0
LINE
8
BLACK
6
CONTINUOUS
10
4.7255339999999997
20
-19.0703139999999998
11
4.8207719999999998
21
-18.9750759999999978
0
LINE
8
BLACK
6
CONTINUOUS
10
4.8207719999999998
20
-18.9750759999999978
11
5.0112480000000001
21
-18.8798379999999995
0
LINE
8
BLACK
6
CONTINUOUS
10
6.5350579999999994
20
-20.8798379999999995
11
6.5350579999999994
21
-19.5465039999999988
0
LINE
8
BLACK
6
CONTINUOUS
10
6.5350579999999994
20
-19.7369799999999991
11
6.6302959999999995
21
-19.6417420000000007
0
LINE
8
BLACK
6
CONTINUOUS
10
6.6302959999999995
20
-19.6417420000000007
11
6.8207719999999998
21
-19.5465039999999988
0
LINE
8
BLACK
6
CONTINUOUS
10
6.8207719999999998
20
-19.5465039999999988
11
7.1064869999999996
21
-19.5465039999999988
0
LINE
8
BLACK
6
CONTINUOUS
10
7.1064869999999996
20
-19.5465039999999988
11
7.2969629999999999
21
-19.6417420000000007
0
LINE
8
BLACK
6
CONTINUOUS
10
7.2969629999999999
20
-19.6417420000000007
11
7.392201
21
-19.8322189999999985
0
LINE
8
BLACK
6
CONTINUOUS
10
7.392201
20
-19.8322189999999985
11
7.392201
21
-20.8798379999999995
0
LINE
8
BLACK
6
CONTINUOUS
10
7.392201
20
-19.8322189999999985
11
7.4874389999999993
21
-19.6417420000000007
0
LINE
8
BLACK
6
CONTINUOUS
10
7.4874389999999993
20
-19.6417420000000007
11
7.6779149999999996
21
-19.5465039999999988
0
LINE
8
BLACK
6
CONTINUOUS
10
7.6779149999999996
20
-19.5465039999999988
11
7.9636290000000001
21
-19.5465039999999988
0
LINE
8
BLACK
6
CONTINUOUS
10
7.9636290000000001
20
-19.5465039999999988
11
8.1541059999999987
21
-19.6417420000000007
0
LINE
8
BLACK
6
CONTINUOUS
10
8.1541059999999987
20
-19.6417420000000007
11
8.2493439999999989
21
-19.8322189999999985
0
LINE
8
BLACK
6
CONTINUOUS
10
8.2493439999999989
20
-19.8322189999999985
11
8.2493439999999989
21
-20.8798379999999995
0
LINE
8
BLACK
6
CONTINUOUS
10
9.2017249999999997
20
-20.8798379999999995
11
9.2017249999999997
21
-19.5465039999999988
0
LINE
8
BLACK
6
CONTINUOUS
10
9.2017249999999997
20
-19.7369799999999991
11
9.2969629999999999
21
-19.6417420000000007
0
LINE
8
BLACK
6
CONTINUOUS
10
9.2969629999999999
20
-19.6417420000000007
11
9.4874390000000002
21
-19.5465039999999988
0
LINE
8
BLACK
6
CONTINUOUS
10
9.4874390000000002
20
-19.5465039999999988
11
9.7731539999999999
21
-19.5465039999999988
0
LINE
8
BLACK
6
CONTINUOUS
10
9.7731539999999999
20
-19.5465039999999988
11
9.9636300000000002
21
-19.6417420000000007
0
LINE
8
BLACK
6
CONTINUOUS
10
9.9636300000000002
20
-19.6417420000000007
11
10.0588680000000004
21
-19.8322189999999985
0
LINE
8
BLACK
6
CONTINUOUS
10
10.0588680000000004
20
-19.8322189999999985
11
10.0588680000000004
21
-20.8798379999999995
0
LINE
8
BLACK
6
CONTINUOUS
10
10.0588680000000004
20
-19.8322189999999985
11
10.1541059999999987
21
-19.6417420000000007
0
LINE
8
BLACK
6
CONTINUOUS
10
10.1541059999999987
20
-19.6417420000000007
11
10.3445819999999991
21
-19.5465039999999988
0
LINE
8
BLACK
6
CONTINUOUS
10
10.3445819999999991
20
-19.5465039999999988
11
10.6302959999999995
21
-19.5465039999999988
0
LINE
8
BLACK
6
CONTINUOUS
10
10.6302959999999995
20
-19.5465039999999988
11
10.8207729999999991
21
-19.6417420000000007
0
LINE
8
BLACK
6
CONTINUOUS
10
10.8207729999999991
20
-19.6417420000000007
11
10.9160109999999992
21
-19.8322189999999985
0
LINE
8
BLACK
6
CONTINUOUS
10
10.9160109999999992
20
-19.8322189999999985
11
10.9160109999999992
21
-20.8798379999999995
0
LINE
8
BLACK
6
CONTINUOUS
10
14.8207729999999991
20
-18.7845999999999975
11
13.1064879999999988
21
-21.3560279999999985
0
LINE
8
BLACK
6
CONTINUOUS
10
17.3922019999999975
20
-18.8798379999999995
11
17.5826789999999988
21
-18.8798379999999995
0
LINE
8
BLACK
6
CONTINUOUS
10
17.5826789999999988
20
-18.8798379999999995
11
17.7731549999999991
21
-18.9750759999999978
0
LINE
8
BLACK
6
CONTINUOUS
10
17.7731549999999991
20
-18.9750759999999978
11
17.8683929999999975
21
-19.0703139999999998
0
LINE
8
BLACK
6
CONTINUOUS
10
17.8683929999999975
20
-19.0703139999999998
11
17.9636309999999995
21
-19.2607900000000001
0
LINE
8
BLACK
6
CONTINUOUS
10
17.9636309999999995
20
-19.2607900000000001
11
18.0588689999999978
21
-19.6417420000000007
0
LINE
8
BLACK
6
CONTINUOUS
10
18.0588689999999978
20
-19.6417420000000007
11
18.0588689999999978
21
-20.1179330000000007
0
LINE
8
BLACK
6
CONTINUOUS
10
18.0588689999999978
20
-20.1179330000000007
11
17.9636309999999995
21
-20.4988849999999978
0
LINE
8
BLACK
6
CONTINUOUS
10
17.9636309999999995
20
-20.4988849999999978
11
17.8683929999999975
21
-20.6893609999999981
0
LINE
8
BLACK
6
CONTINUOUS
10
17.8683929999999975
20
-20.6893609999999981
11
17.7731549999999991
21
-20.7845999999999975
0
LINE
8
BLACK
6
CONTINUOUS
10
17.7731549999999991
20
-20.7845999999999975
11
17.5826789999999988
21
-20.8798379999999995
0
LINE
8
BLACK
6
CONTINUOUS
10
17.5826789999999988
20
-20.8798379999999995
11
17.3922019999999975
21
-20.8798379999999995
0
LINE
8
BLACK
6
CONTINUOUS
10
17.3922019999999975
20
-20.8798379999999995
11
17.2017260000000007
21
-20.7845999999999975
0
LINE
8
BLACK
6
CONTINUOUS
10
17.2017260000000007
20
-20.7845999999999975
11
17.1064879999999988
21
-20.6893609999999981
0
LINE
8
BLACK
6
CONTINUOUS
10
17.1064879999999988
20
-20.6893609999999981
11
17.0112500000000004
21
-20.4988849999999978
0
LINE
8
BLACK
6
CONTINUOUS
10
17.0112500000000004
20
-20.4988849999999978
11
16.9160119999999985
21
-20.1179330000000007
0
LINE
8
BLACK
6
CONTINUOUS
10
16.9160119999999985
20
-20.1179330000000007
11
16.9160119999999985
21
-19.6417420000000007
0
LINE
8
BLACK
6
CONTINUOUS
10
16.9160119999999985
20
-19.6417420000000007
11
17.0112500000000004
21
-19.2607900000000001
0
LINE
8
BLACK
6
CONTINUOUS
10
17.0112500000000004
20
-19.2607900000000001
11
17.1064879999999988
21
-19.0703139999999998
0
LINE
8
BLACK
6
CONTINUOUS
10
17.1064879999999988
20
-19.0703139999999998
11
17.2017260000000007
21
-18.9750759999999978
0
LINE
8
BLACK
6
CONTINUOUS
10
17.2017260000000007
20
-18.9750759999999978
11
17.3922019999999975
21
-18.8798379999999995
0
LINE
8
BLACK
6
CONTINUOUS
10
18.9160119999999985
20
-20.6893609999999981
11
19.0112500000000004
21
-20.7845999999999975
0
LINE
8
BLACK
6
CONTINUOUS
10
19.0112500000000004
20
-20.7845999999999975
11
18.9160119999999985
21
-20.8798379999999995
0
LINE
8
BLACK
6
CONTINUOUS
10
18.9160119999999985
20
-20.8798379999999995
11
18.8207740000000001
21
-20.7845999999999975
0
LINE
8
BLACK
6
CONTINUOUS
10
18.8207740000000001
20
-20.7845999999999975
11
18.9160119999999985
21
-20.6893609999999981
0
LINE
8
BLACK
6
CONTINUOUS
10
18.9160119999999985
20
-20.6893609999999981
11
18.9160119999999985
21
-20.8798379999999995
0
LINE
8
BLACK
6
CONTINUOUS
10
20.9160119999999985
20
-20.8798379999999995
11
19.7731549999999991
21
-20.8798379999999995
0
LINE
8
BLACK
6
CONTINUOUS
10
20.3445830000000001
20
-20.8798379999999995
11
20.3445830000000001
21
-18.8798379999999995
0
LINE
8
BLACK
6
CONTINUOUS
10
20.3445830000000001
20
-18.8798379999999995
11
20.1541069999999998
21
-19.1655519999999981
0
LINE
8
BLACK
6
CONTINUOUS
10
20.1541069999999998
20
-19.1655519999999981
11
19.9636309999999995
21
-19.3560279999999985
0
LINE
8
BLACK
6
CONTINUOUS
10
19.9636309999999995
20
-19.3560279999999985
11
19.7731549999999991
21
-19.4512660000000004
0
LINE
8
BLACK
6
CONTINUOUS
10
21.6779170000000008
20
-19.0703139999999998
11
21.7731549999999991
21
-18.9750759999999978
0
LINE
8
BLACK
6
CONTINUOUS
10
21.7731549999999991
20
-18.9750759999999978
11
21.9636309999999995
21
-18.8798379999999995
0
LINE
8
BLACK
6
CONTINUOUS
10
21.9636309999999995
20
-18.8798379999999995
11
22.4398219999999995
21
-18.8798379999999995
0
LINE
8
BLACK
6
CONTINUOUS
10
22.4398219999999995
20
-18.8798379999999995
11
22.6302979999999998
21
-18.9750759999999978
0
LINE
8
BLACK
6
CONTINUOUS
10
22.6302979999999998
20
-18.9750759999999978
11
22.7255359999999982
21
-19.0703139999999998
0
LINE
8
BLACK
6
CONTINUOUS
10
22.7255359999999982
20
-19.0703139999999998
11
22.8207740000000001
21
-19.2607900000000001
0
LINE
8
BLACK
6
CONTINUOUS
10
22.8207740000000001
20
-19.2607900000000001
11
22.8207740000000001
21
-19.4512660000000004
0
LINE
8
BLACK
6
CONTINUOUS
10
22.8207740000000001
20
-19.4512660000000004
11
22.7255359999999982
21
-19.7369799999999991
0
LINE
8
BLACK
6
CONTINUOUS
10
22.7255359999999982
20
-19.7369799999999991
11
21.5826789999999988
21
-20.8798379999999995
0
LINE
8
BLACK
6
CONTINUOUS
10
21.5826789999999988
20
-20.8798379999999995
11
22.8207740000000001
21
-20.8798379999999995
0
LINE
8
BLACK
6
CONTINUOUS
10
23.9636309999999995
20
-19.7369799999999991
11
23.7731549999999991
21
-19.6417420000000007
0
LINE
8
BLACK
6
CONTINUOUS
10
23.7731549999999991
20
-19.6417420000000007
11
23.6779169999999972
21
-19.5465039999999988
0
LINE
8
BLACK
6
CONTINUOUS
10
23.6779169999999972
20
-19.5465039999999988
11
23.5826789999999988
21
-19.3560279999999985
0
LINE
8
BLACK
6
CONTINUOUS
10
23.5826789999999988
20
-19.3560279999999985
11
23.5826789999999988
21
-19.2607900000000001
0
LINE
8
BLACK
6
CONTINUOUS
10
23.5826789999999988
20
-19.2607900000000001
11
23.6779169999999972
21
-19.0703139999999998
0
LINE
8
BLACK
6
CONTINUOUS
10
23.6779169999999972
20
-19.0703139999999998
11
23.7731549999999991
21
-18.9750759999999978
0
LINE
8
BLACK
6
CONTINUOUS
10
23.7731549999999991
20
-18.9750759999999978
11
23.9636309999999995
21
-18.8798379999999995
0
LINE
8
BLACK
6
CONTINUOUS
10
23.9636309999999995
20
-18.8798379999999995
11
24.3445839999999976
21
-18.8798379999999995
0
LINE
8
BLACK
6
CONTINUOUS
10
24.3445839999999976
20
-18.8798379999999995
11
24.5350599999999979
21
-18.9750759999999978
0
LINE
8
BLACK
6
CONTINUOUS
10
24.5350599999999979
20
-18.9750759999999978
11
24.6302979999999998
21
-19.0703139999999998
0
LINE
8
BLACK
6
CONTINUOUS
10
24.6302979999999998
20
-19.0703139999999998
11
24.7255359999999982
21
-19.2607900000000001
0
LINE
8
BLACK
6
CONTINUOUS
10
24.7255359999999982
20
-19.2607900000000001
11
24.7255359999999982
21
-19.3560279999999985
0
LINE
8
BLACK
6
CONTINUOUS
10
24.7255359999999982
20
-19.3560279999999985
11
24.6302979999999998
21
-19.5465039999999988
0
LINE
8
BLACK
6
CONTINUOUS
10
24.6302979999999998
20
-19.5465039999999988
11
24.5350599999999979
21
-19.6417420000000007
0
LINE
8
BLACK
6
CONTINUOUS
10
24.5350599999999979
20
-19.6417420000000007
11
24.3445839999999976
21
-19.7369799999999991
0
LINE
8
BLACK
6
CONTINUOUS
10
24.3445839999999976
20
-19.7369799999999991
11
23.9636309999999995
21
-19.7369799999999991
0
LINE
8
BLACK
6
CONTINUOUS
10
23.9636309999999995
20
-19.7369799999999991
11
23.7731549999999991
21
-19.8322189999999985
0
LINE
8
BLACK
6
CONTINUOUS
10
23.7731549999999991
20
-19.8322189999999985
11
23.6779169999999972
21
-19.9274570000000004
0
LINE
8
BLACK
6
CONTINUOUS
10
23.6779169999999972
20
-19.9274570000000004
11
23.5826789999999988
21
-20.1179330000000007
0
LINE
8
BLACK
6
CONTINUOUS
10
23.5826789999999988
20
-20.1179330000000007
11
23.5826789999999988
21
-20.4988849999999978
0
LINE
8
BLACK
6
CONTINUOUS
10
23.5826789999999988
20
-20.4988849999999978
11
23.6779169999999972
21
-20.6893609999999981
0
LINE
8
BLACK
6
CONTINUOUS
10
23.6779169999999972
20
-20.6893609999999981
11
23.7731549999999991
21
-20.7845999999999975
0
LINE
8
BLACK
6
CONTINUOUS
10
23.7731549999999991
20
-20.7845999999999975
11
23.9636309999999995
21
-20.8798379999999995
0
LINE
8
BLACK
6
CONTINUOUS
10
23.9636309999999995
20
-20.8798379999999995
11
24.3445839999999976
21
-20.8798379999999995
0
LINE
8
BLACK
6
CONTINUOUS
10
24.3445839999999976
20
-20.8798379999999995
11
24.5350599999999979
21
-20.7845999999999975
0
LINE
8
BLACK
6
CONTINUOUS
10
24.5350599999999979
20
-20.7845999999999975
11
24.6302979999999998
21
-20.6893609999999981
0
LINE
8
BLACK
6
CONTINUOUS
10
24.6302979999999998
20
-20.6893609999999981
11
24.7255359999999982
21
-20.4988849999999978
0
LINE
8
BLACK
6
CONTINUOUS
10
24.7255359999999982
20
-20.4988849999999978
11
24.7255359999999982
21
-20.1179330000000007
0
LINE
8
BLACK
6
CONTINUOUS
10
24.7255359999999982
20
-20.1179330000000007
11
24.6302979999999998
21
-19.9274570000000004
0
LINE
8
BLACK
6
CONTINUOUS
10
24.6302979999999998
20
-19.9274570000000004
11
24.5350599999999979
21
-19.8322189999999985
0
LINE
8
BLACK
6
CONTINUOUS
10
24.5350599999999979
20
-19.8322189999999985
11
24.3445839999999976
21
-19.7369799999999991
0
LINE
8
BLACK
6
CONTINUOUS
10
25.9636309999999995
20
-18.8798379999999995
11
26.1541079999999972
21
-18.8798379999999995
0
LINE
8
BLACK
6
CONTINUOUS
10
26.1541079999999972
20
-18.8798379999999995
11
26.3445839999999976
21
-18.9750759999999978
0
LINE
8
BLACK
6
CONTINUOUS
10
26.3445839999999976
20
-18.9750759999999978
11
26.4398219999999995
21
-19.0703139999999998
0
LINE
8
BLACK
6
CONTINUOUS
10
26.4398219999999995
20
-19.0703139999999998
11
26.5350599999999979
21
-19.2607900000000001
0
LINE
8
BLACK
6
CONTINUOUS
10
26.5350599999999979
20
-19.2607900000000001
11
26.6302979999999998
21
-19.6417420000000007
0
LINE
8
BLACK
6
CONTINUOUS
10
26.6302979999999998
20
-19.6417420000000007
11
26.6302979999999998
21
-20.1179330000000007
0
LINE
8
BLACK
6
CONTINUOUS
10
26.6302979999999998
20
-20.1179330000000007
11
26.5350599999999979
21
-20.4988849999999978
0
LINE
8
BLACK
6
CONTINUOUS
10
26.5350599999999979
20
-20.4988849999999978
11
26.4398219999999995
21
-20.6893609999999981
0
LINE
8
BLACK
6
CONTINUOUS
10
26.4398219999999995
20
-20.6893609999999981
11
26.3445839999999976
21
-20.7845999999999975
0
LINE
8
BLACK
6
CONTINUOUS
10
26.3445839999999976
20
-20.7845999999999975
11
26.1541079999999972
21
-20.8798379999999995
0
LINE
8
BLACK
6
CONTINUOUS
10
26.1541079999999972
20
-20.8798379999999995
11
25.9636309999999995
21
-20.8798379999999995
0
LINE
8
BLACK
6
CONTINUOUS
10
25.9636309999999995
20
-20.8798379999999995
11
25.7731549999999991
21
-20.7845999999999975
0
LINE
8
BLACK
6
CONTINUOUS
10
25.7731549999999991
20
-20.7845999999999975
11
25.6779169999999972
21
-20.6893609999999981
0
LINE
8
BLACK
6
CONTINUOUS
10
25.6779169999999972
20
-20.6893609999999981
11
25.5826789999999988
21
-20.4988849999999978
0
LINE
8
BLACK
6
CONTINUOUS
10
25.5826789999999988
20
-20.4988849999999978
11
25.4874410000000005
21
-20.1179330000000007
0
LINE
8
BLACK
6
CONTINUOUS
10
25.4874410000000005
20
-20.1179330000000007
11
25.4874410000000005
21
-19.6417420000000007
0
LINE
8
BLACK
6
CONTINUOUS
10
25.4874410000000005
20
-19.6417420000000007
11
25.5826789999999988
21
-19.2607900000000001
0
LINE
8
BLACK
6
CONTINUOUS
10
25.5826789999999988
20
-19.2607900000000001
11
25.6779169999999972
21
-19.0703139999999998
0
LINE
8
BLACK
6
CONTINUOUS
10
25.6779169999999972
20
-19.0703139999999998
11
25.7731549999999991
21
-18.9750759999999978
0
LINE
8
BLACK
6
CONTINUOUS
10
25.7731549999999991
20
-18.9750759999999978
11
25.9636309999999995
21
-18.8798379999999995
0
LINE
8
BLACK
6
CONTINUOUS
10
27.3922029999999985
20
-18.8798379999999995
11
27.3922029999999985
21
-19.2607900000000001
0
LINE
8
BLACK
6
CONTINUOUS
10
28.1541079999999972
20
-18.8798379999999995
11
28.1541079999999972
21
-19.2607900000000001
0
LINE
8
BLACK
6
CONTINUOUS
10
31.1064899999999973
20
-21.6417420000000007
11
31.0112509999999979
21
-21.5465039999999988
0
LINE
8
BLACK
6
CONTINUOUS
10
31.0112509999999979
20
-21.5465039999999988
11
30.8207749999999976
21
-21.2607900000000001
0
LINE
8
BLACK
6
CONTINUOUS
10
30.8207749999999976
20
-21.2607900000000001
11
30.7255369999999992
21
-21.0703139999999998
0
LINE
8
BLACK
6
CONTINUOUS
10
30.7255369999999992
20
-21.0703139999999998
11
30.6302989999999973
21
-20.7845999999999975
0
LINE
8
BLACK
6
CONTINUOUS
10
30.6302989999999973
20
-20.7845999999999975
11
30.5350609999999989
21
-20.3084089999999975
0
LINE
8
BLACK
6
CONTINUOUS
10
30.5350609999999989
20
-20.3084089999999975
11
30.5350609999999989
21
-19.9274570000000004
0
LINE
8
BLACK
6
CONTINUOUS
10
30.5350609999999989
20
-19.9274570000000004
11
30.6302989999999973
21
-19.4512660000000004
0
LINE
8
BLACK
6
CONTINUOUS
10
30.6302989999999973
20
-19.4512660000000004
11
30.7255369999999992
21
-19.1655519999999981
0
LINE
8
BLACK
6
CONTINUOUS
10
30.7255369999999992
20
-19.1655519999999981
11
30.8207749999999976
21
-18.9750759999999978
0
LINE
8
BLACK
6
CONTINUOUS
10
30.8207749999999976
20
-18.9750759999999978
11
31.0112509999999979
21
-18.6893609999999981
0
LINE
8
BLACK
6
CONTINUOUS
10
31.0112509999999979
20
-18.6893609999999981
11
31.1064899999999973
21
-18.5941229999999997
0
LINE
8
BLACK
6
CONTINUOUS
10
32.7255369999999957
20
-19.5465039999999988
11
32.7255369999999957
21
-20.8798379999999995
0
LINE
8
BLACK
6
CONTINUOUS
10
32.2493459999999956
20
-18.7845999999999975
11
31.7731560000000002
21
-20.2131709999999991
0
LINE
8
BLACK
6
CONTINUOUS
10
31.7731560000000002
20
-20.2131709999999991
11
33.0112510000000015
21
-20.2131709999999991
0
LINE
8
BLACK
6
CONTINUOUS
10
35.2969659999999976
20
-20.8798379999999995
11
35.2969659999999976
21
-18.8798379999999995
0
LINE
8
BLACK
6
CONTINUOUS
10
36.1541089999999983
20
-20.8798379999999995
11
36.1541089999999983
21
-19.8322189999999985
0
LINE
8
BLACK
6
CONTINUOUS
10
36.1541089999999983
20
-19.8322189999999985
11
36.0588709999999963
21
-19.6417420000000007
0
LINE
8
BLACK
6
CONTINUOUS
10
36.0588709999999963
20
-19.6417420000000007
11
35.8683949999999996
21
-19.5465039999999988
0
LINE
8
BLACK
6
CONTINUOUS
10
35.8683949999999996
20
-19.5465039999999988
11
35.5826799999999963
21
-19.5465039999999988
0
LINE
8
BLACK
6
CONTINUOUS
10
35.5826799999999963
20
-19.5465039999999988
11
35.3922039999999996
21
-19.6417420000000007
0
LINE
8
BLACK
6
CONTINUOUS
10
35.3922039999999996
20
-19.6417420000000007
11
35.2969659999999976
21
-19.7369799999999991
0
LINE
8
BLACK
6
CONTINUOUS
10
37.3922039999999996
20
-20.8798379999999995
11
37.2017279999999957
21
-20.7845999999999975
0
LINE
8
BLACK
6
CONTINUOUS
10
37.2017279999999957
20
-20.7845999999999975
11
37.1064900000000009
21
-20.6893609999999981
0
LINE
8
BLACK
6
CONTINUOUS
10
37.1064900000000009
20
-20.6893609999999981
11
37.0112519999999989
21
-20.4988849999999978
0
LINE
8
BLACK
6
CONTINUOUS
10
37.0112519999999989
20
-20.4988849999999978
11
37.0112519999999989
21
-19.9274570000000004
0
LINE
8
BLACK
6
CONTINUOUS
10
37.0112519999999989
20
-19.9274570000000004
11
37.1064900000000009
21
-19.7369799999999991
0
LINE
8
BLACK
6
CONTINUOUS
10
37.1064900000000009
20
-19.7369799999999991
11
37.2017279999999957
21
-19.6417420000000007
0
LINE
8
BLACK
6
CONTINUOUS
10
37.2017279999999957
20
-19.6417420000000007
11
37.3922039999999996
21
-19.5465039999999988
0
LINE
8
BLACK
6
CONTINUOUS
10
37.3922039999999996
20
-19.5465039999999988
11
37.6779189999999957
21
-19.5465039999999988
0
LINE
8
BLACK
6
CONTINUOUS
10
37.6779189999999957
20
-19.5465039999999988
11
37.8683949999999996
21
-19.6417420000000007
0
LINE
8
BLACK
6
CONTINUOUS
10
37.8683949999999996
20
-19.6417420000000007
11
37.9636330000000015
21
-19.7369799999999991
0
LINE
8
BLACK
6
CONTINUOUS
10
37.9636330000000015
20
-19.7369799999999991
11
38.0588709999999963
21
-19.9274570000000004
0
LINE
8
BLACK
6
CONTINUOUS
10
38.0588709999999963
20
-19.9274570000000004
11
38.0588709999999963
21
-20.4988849999999978
0
LINE
8
BLACK
6
CONTINUOUS
10
38.0588709999999963
20
-20.4988849999999978
11
37.9636330000000015
21
-20.6893609999999981
0
LINE
8
BLACK
6
CONTINUOUS
10
37.9636330000000015
20
-20.6893609999999981
11
37.8683949999999996
21
-20.7845999999999975
0
LINE
8
BLACK
6
CONTINUOUS
10
37.8683949999999996
20
-20.7845999999999975
11
37.6779189999999957
21
-20.8798379999999995
0
LINE
8
BLACK
6
CONTINUOUS
10
37.6779189999999957
20
-20.8798379999999995
11
37.3922039999999996
21
-20.8798379999999995
0
LINE
8
BLACK
6
CONTINUOUS
10
39.2017279999999957
20
-20.8798379999999995
11
39.0112519999999989
21
-20.7845999999999975
0
LINE
8
BLACK
6
CONTINUOUS
10
39.0112519999999989
20
-20.7845999999999975
11
38.916013999999997
21
-20.5941229999999997
0
LINE
8
BLACK
6
CONTINUOUS
10
38.916013999999997
20
-20.5941229999999997
11
38.916013999999997
21
-18.8798379999999995
0
LINE
8
BLACK
6
CONTINUOUS
10
40.7255380000000002
20
-20.7845999999999975
11
40.5350619999999964
21
-20.8798379999999995
0
LINE
8
BLACK
6
CONTINUOUS
10
40.5350619999999964
20
-20.8798379999999995
11
40.1541089999999983
21
-20.8798379999999995
0
LINE
8
BLACK
6
CONTINUOUS
10
40.1541089999999983
20
-20.8798379999999995
11
39.9636330000000015
21
-20.7845999999999975
0
LINE
8
BLACK
6
CONTINUOUS
10
39.9636330000000015
20
-20.7845999999999975
11
39.8683949999999996
21
-20.5941229999999997
0
LINE
8
BLACK
6
CONTINUOUS
10
39.8683949999999996
20
-20.5941229999999997
11
39.8683949999999996
21
-19.8322189999999985
0
LINE
8
BLACK
6
CONTINUOUS
10
39.8683949999999996
20
-19.8322189999999985
11
39.9636330000000015
21
-19.6417420000000007
0
LINE
8
BLACK
6
CONTINUOUS
10
39.9636330000000015
20
-19.6417420000000007
11
40.1541089999999983
21
-19.5465039999999988
0
LINE
8
BLACK
6
CONTINUOUS
10
40.1541089999999983
20
-19.5465039999999988
11
40.5350619999999964
21
-19.5465039999999988
0
LINE
8
BLACK
6
CONTINUOUS
10
40.5350619999999964
20
-19.5465039999999988
11
40.7255380000000002
21
-19.6417420000000007
0
LINE
8
BLACK
6
CONTINUOUS
10
40.7255380000000002
20
-19.6417420000000007
11
40.8207759999999951
21
-19.8322189999999985
0
LINE
8
BLACK
6
CONTINUOUS
10
40.8207759999999951
20
-19.8322189999999985
11
40.8207759999999951
21
-20.0226949999999988
0
LINE
8
BLACK
6
CONTINUOUS
10
40.8207759999999951
20
-20.0226949999999988
11
39.8683949999999996
21
-20.2131709999999991
0
LINE
8
BLACK
6
CONTINUOUS
10
41.5826810000000009
20
-20.7845999999999975
11
41.7731569999999977
21
-20.8798379999999995
0
LINE
8
BLACK
6
CONTINUOUS
10
41.7731569999999977
20
-20.8798379999999995
11
42.1541089999999983
21
-20.8798379999999995
0
LINE
8
BLACK
6
CONTINUOUS
10
42.1541089999999983
20
-20.8798379999999995
11
42.3445859999999996
21
-20.7845999999999975
0
LINE
8
BLACK
6
CONTINUOUS
10
42.3445859999999996
20
-20.7845999999999975
11
42.4398240000000015
21
-20.5941229999999997
0
LINE
8
BLACK
6
CONTINUOUS
10
42.4398240000000015
20
-20.5941229999999997
11
42.4398240000000015
21
-20.4988849999999978
0
LINE
8
BLACK
6
CONTINUOUS
10
42.4398240000000015
20
-20.4988849999999978
11
42.3445859999999996
21
-20.3084089999999975
0
LINE
8
BLACK
6
CONTINUOUS
10
42.3445859999999996
20
-20.3084089999999975
11
42.1541089999999983
21
-20.2131709999999991
0
LINE
8
BLACK
6
CONTINUOUS
10
42.1541089999999983
20
-20.2131709999999991
11
41.8683949999999996
21
-20.2131709999999991
0
LINE
8
BLACK
6
CONTINUOUS
10
41.8683949999999996
20
-20.2131709999999991
11
41.6779189999999957
21
-20.1179330000000007
0
LINE
8
BLACK
6
CONTINUOUS
10
41.6779189999999957
20
-20.1179330000000007
11
41.5826810000000009
21
-19.9274570000000004
0
LINE
8
BLACK
6
CONTINUOUS
10
41.5826810000000009
20
-19.9274570000000004
11
41.5826810000000009
21
-19.8322189999999985
0
LINE
8
BLACK
6
CONTINUOUS
10
41.5826810000000009
20
-19.8322189999999985
11
41.6779189999999957
21
-19.6417420000000007
0
LINE
8
BLACK
6
CONTINUOUS
10
41.6779189999999957
20
-19.6417420000000007
11
41.8683949999999996
21
-19.5465039999999988
0
LINE
8
BLACK
6
CONTINUOUS
10
41.8683949999999996
20
-19.5465039999999988
11
42.1541089999999983
21
-19.5465039999999988
0
LINE
8
BLACK
6
CONTINUOUS
10
42.1541089999999983
20
-19.5465039999999988
11
42.3445859999999996
21
-19.6417420000000007
0
LINE
8
BLACK
6
CONTINUOUS
10
43.1064909999999983
20
-21.6417420000000007
11
43.2017290000000003
21
-21.5465039999999988
0
LINE
8
BLACK
6
CONTINUOUS
10
43.2017290000000003
20
-21.5465039999999988
11
43.392204999999997
21
-21.2607900000000001
0
LINE
8
BLACK
6
CONTINUOUS
10
43.392204999999997
20
-21.2607900000000001
11
43.487442999999999
21
-21.0703139999999998
0
LINE
8
BLACK
6
CONTINUOUS
10
43.487442999999999
20
-21.0703139999999998
11
43.5826810000000009
21
-20.7845999999999975
0
LINE
8
BLACK
6
CONTINUOUS
10
43.5826810000000009
20
-20.7845999999999975
11
43.6779189999999957
21
-20.3084089999999975
0
LINE
8
BLACK
6
CONTINUOUS
10
43.6779189999999957
20
-20.3084089999999975
11
43.6779189999999957
21
-19.9274570000000004
0
LINE
8
BLACK
6
CONTINUOUS
10
43.6779189999999957
20
-19.9274570000000004
11
43.5826810000000009
21
-19.4512660000000004
0
LINE
8
BLACK
6
CONTINUOUS
10
43.5826810000000009
20
-19.4512660000000004
11
43.487442999999999
21
-19.1655519999999981
0
LINE
8
BLACK
6
CONTINUOUS
10
43.487442999999999
20
-19.1655519999999981
11
43.392204999999997
21
-18.9750759999999978
0
LINE
8
BLACK
6
CONTINUOUS
10
43.392204999999997
20
-18.9750759999999978
11
43.2017290000000003
21
-18.6893609999999981
0
LINE
8
BLACK
6
CONTINUOUS
10
43.2017290000000003
20
-18.6893609999999981
11
43.1064909999999983
21
-18.5941229999999997
0
LINE
8
BLACK
6
CONTINUOUS
10
46.7255389999999977
20
-21.6417420000000007
11
46.6302999999999983
21
-21.5465039999999988
0
LINE
8
BLACK
6
CONTINUOUS
10
46.6302999999999983
20
-21.5465039999999988
11
46.4398239999999944
21
-21.2607900000000001
0
LINE
8
BLACK
6
CONTINUOUS
10
46.4398239999999944
20
-21.2607900000000001
11
46.3445859999999996
21
-21.0703139999999998
0
LINE
8
BLACK
6
CONTINUOUS
10
46.3445859999999996
20
-21.0703139999999998
11
46.2493479999999977
21
-20.7845999999999975
0
LINE
8
BLACK
6
CONTINUOUS
10
46.2493479999999977
20
-20.7845999999999975
11
46.1541099999999958
21
-20.3084089999999975
0
LINE
8
BLACK
6
CONTINUOUS
10
46.1541099999999958
20
-20.3084089999999975
11
46.1541099999999958
21
-19.9274570000000004
0
LINE
8
BLACK
6
CONTINUOUS
10
46.1541099999999958
20
-19.9274570000000004
11
46.2493479999999977
21
-19.4512660000000004
0
LINE
8
BLACK
6
CONTINUOUS
10
46.2493479999999977
20
-19.4512660000000004
11
46.3445859999999996
21
-19.1655519999999981
0
LINE
8
BLACK
6
CONTINUOUS
10
46.3445859999999996
20
-19.1655519999999981
11
46.4398239999999944
21
-18.9750759999999978
0
LINE
8
BLACK
6
CONTINUOUS
10
46.4398239999999944
20
-18.9750759999999978
11
46.6302999999999983
21
-18.6893609999999981
0
LINE
8
BLACK
6
CONTINUOUS
10
46.6302999999999983
20
-18.6893609999999981
11
46.7255389999999977
21
-18.5941229999999997
0
LINE
8
BLACK
6
CONTINUOUS
10
47.487442999999999
20
-19.5465039999999988
11
47.487442999999999
21
-20.8798379999999995
0
LINE
8
BLACK
6
CONTINUOUS
10
47.487442999999999
20
-19.7369799999999991
11
47.5826810000000009
21
-19.6417420000000007
0
LINE
8
BLACK
6
CONTINUOUS
10
47.5826810000000009
20
-19.6417420000000007
11
47.7731569999999977
21
-19.5465039999999988
0
LINE
8
BLACK
6
CONTINUOUS
10
47.7731569999999977
20
-19.5465039999999988
11
48.0588720000000009
21
-19.5465039999999988
0
LINE
8
BLACK
6
CONTINUOUS
10
48.0588720000000009
20
-19.5465039999999988
11
48.2493479999999977
21
-19.6417420000000007
0
LINE
8
BLACK
6
CONTINUOUS
10
48.2493479999999977
20
-19.6417420000000007
11
48.3445859999999996
21
-19.8322189999999985
0
LINE
8
BLACK
6
CONTINUOUS
10
48.3445859999999996
20
-19.8322189999999985
11
48.3445859999999996
21
-20.8798379999999995
0
LINE
8
BLACK
6
CONTINUOUS
10
49.5826810000000009
20
-20.8798379999999995
11
49.392204999999997
21
-20.7845999999999975
0
LINE
8
BLACK
6
CONTINUOUS
10
49.392204999999997
20
-20.7845999999999975
11
49.2969669999999951
21
-20.6893609999999981
0
LINE
8
BLACK
6
CONTINUOUS
10
49.2969669999999951
20
-20.6893609999999981
11
49.2017290000000003
21
-20.4988849999999978
0
LINE
8
BLACK
6
CONTINUOUS
10
49.2017290000000003
20
-20.4988849999999978
11
49.2017290000000003
21
-19.9274570000000004
0
LINE
8
BLACK
6
CONTINUOUS
10
49.2017290000000003
20
-19.9274570000000004
11
49.2969669999999951
21
-19.7369799999999991
0
LINE
8
BLACK
6
CONTINUOUS
10
49.2969669999999951
20
-19.7369799999999991
11
49.392204999999997
21
-19.6417420000000007
0
LINE
8
BLACK
6
CONTINUOUS
10
49.392204999999997
20
-19.6417420000000007
11
49.5826810000000009
21
-19.5465039999999988
0
LINE
8
BLACK
6
CONTINUOUS
10
49.5826810000000009
20
-19.5465039999999988
11
49.8683959999999971
21
-19.5465039999999988
0
LINE
8
BLACK
6
CONTINUOUS
10
49.8683959999999971
20
-19.5465039999999988
11
50.0588720000000009
21
-19.6417420000000007
0
LINE
8
BLACK
6
CONTINUOUS
10
50.0588720000000009
20
-19.6417420000000007
11
50.1541099999999958
21
-19.7369799999999991
0
LINE
8
BLACK
6
CONTINUOUS
10
50.1541099999999958
20
-19.7369799999999991
11
50.2493479999999977
21
-19.9274570000000004
0
LINE
8
BLACK
6
CONTINUOUS
10
50.2493479999999977
20
-19.9274570000000004
11
50.2493479999999977
21
-20.4988849999999978
0
LINE
8
BLACK
6
CONTINUOUS
10
50.2493479999999977
20
-20.4988849999999978
11
50.1541099999999958
21
-20.6893609999999981
0
LINE
8
BLACK
6
CONTINUOUS
10
50.1541099999999958
20
-20.6893609999999981
11
50.0588720000000009
21
-20.7845999999999975
0
LINE
8
BLACK
6
CONTINUOUS
10
50.0588720000000009
20
-20.7845999999999975
11
49.8683959999999971
21
-20.8798379999999995
0
LINE
8
BLACK
6
CONTINUOUS
10
49.8683959999999971
20
-20.8798379999999995
11
49.5826810000000009
21
-20.8798379999999995
0
LINE
8
BLACK
6
CONTINUOUS
10
50.8207769999999996
20
-19.5465039999999988
11
51.5826810000000009
21
-19.5465039999999988
0
LINE
8
BLACK
6
CONTINUOUS
10
51.1064909999999983
20
-18.8798379999999995
11
51.1064909999999983
21
-20.5941229999999997
0
LINE
8
BLACK
6
CONTINUOUS
10
51.1064909999999983
20
-20.5941229999999997
11
51.2017290000000003
21
-20.7845999999999975
0
LINE
8
BLACK
6
CONTINUOUS
10
51.2017290000000003
20
-20.7845999999999975
11
51.392204999999997
21
-20.8798379999999995
0
LINE
8
BLACK
6
CONTINUOUS
10
51.392204999999997
20
-20.8798379999999995
11
51.5826810000000009
21
-20.8798379999999995
0
LINE
8
BLACK
6
CONTINUOUS
10
53.7731579999999951
20
-19.5465039999999988
11
53.7731579999999951
21
-21.5465039999999988
0
LINE
8
BLACK
6
CONTINUOUS
10
53.7731579999999951
20
-19.6417420000000007
11
53.963633999999999
21
-19.5465039999999988
0
LINE
8
BLACK
6
CONTINUOUS
10
53.963633999999999
20
-19.5465039999999988
11
54.3445869999999971
21
-19.5465039999999988
0
LINE
8
BLACK
6
CONTINUOUS
10
54.3445869999999971
20
-19.5465039999999988
11
54.535063000000001
21
-19.6417420000000007
0
LINE
8
BLACK
6
CONTINUOUS
10
54.535063000000001
20
-19.6417420000000007
11
54.6303009999999958
21
-19.7369799999999991
0
LINE
8
BLACK
6
CONTINUOUS
10
54.6303009999999958
20
-19.7369799999999991
11
54.7255389999999977
21
-19.9274570000000004
0
LINE
8
BLACK
6
CONTINUOUS
10
54.7255389999999977
20
-19.9274570000000004
11
54.7255389999999977
21
-20.4988849999999978
0
LINE
8
BLACK
6
CONTINUOUS
10
54.7255389999999977
20
-20.4988849999999978
11
54.6303009999999958
21
-20.6893609999999981
0
LINE
8
BLACK
6
CONTINUOUS
10
54.6303009999999958
20
-20.6893609999999981
11
54.535063000000001
21
-20.7845999999999975
0
LINE
8
BLACK
6
CONTINUOUS
10
54.535063000000001
20
-20.7845999999999975
11
54.3445869999999971
21
-20.8798379999999995
0
LINE
8
BLACK
6
CONTINUOUS
10
54.3445869999999971
20
-20.8798379999999995
11
53.963633999999999
21
-20.8798379999999995
0
LINE
8
BLACK
6
CONTINUOUS
10
53.963633999999999
20
-20.8798379999999995
11
53.7731579999999951
21
-20.7845999999999975
0
LINE
8
BLACK
6
CONTINUOUS
10
55.8683959999999971
20
-20.8798379999999995
11
55.6779200000000003
21
-20.7845999999999975
0
LINE
8
BLACK
6
CONTINUOUS
10
55.6779200000000003
20
-20.7845999999999975
11
55.5826819999999984
21
-20.5941229999999997
0
LINE
8
BLACK
6
CONTINUOUS
10
55.5826819999999984
20
-20.5941229999999997
11
55.5826819999999984
21
-18.8798379999999995
0
LINE
8
BLACK
6
CONTINUOUS
10
57.4874439999999964
20
-20.8798379999999995
11
57.4874439999999964
21
-19.8322189999999985
0
LINE
8
BLACK
6
CONTINUOUS
10
57.4874439999999964
20
-19.8322189999999985
11
57.3922059999999945
21
-19.6417420000000007
0
LINE
8
BLACK
6
CONTINUOUS
10
57.3922059999999945
20
-19.6417420000000007
11
57.2017299999999977
21
-19.5465039999999988
0
LINE
8
BLACK
6
CONTINUOUS
10
57.2017299999999977
20
-19.5465039999999988
11
56.8207769999999996
21
-19.5465039999999988
0
LINE
8
BLACK
6
CONTINUOUS
10
56.8207769999999996
20
-19.5465039999999988
11
56.6303009999999958
21
-19.6417420000000007
0
LINE
8
BLACK
6
CONTINUOUS
10
57.4874439999999964
20
-20.7845999999999975
11
57.2969679999999997
21
-20.8798379999999995
0
LINE
8
BLACK
6
CONTINUOUS
10
57.2969679999999997
20
-20.8798379999999995
11
56.8207769999999996
21
-20.8798379999999995
0
LINE
8
BLACK
6
CONTINUOUS
10
56.8207769999999996
20
-20.8798379999999995
11
56.6303009999999958
21
-20.7845999999999975
0
LINE
8
BLACK
6
CONTINUOUS
10
56.6303009999999958
20
-20.7845999999999975
11
56.535063000000001
21
-20.5941229999999997
0
LINE
8
BLACK
6
CONTINUOUS
10
56.535063000000001
20
-20.5941229999999997
11
56.535063000000001
21
-20.4036469999999994
0
LINE
8
BLACK
6
CONTINUOUS
10
56.535063000000001
20
-20.4036469999999994
11
56.6303009999999958
21
-20.2131709999999991
0
LINE
8
BLACK
6
CONTINUOUS
10
56.6303009999999958
20
-20.2131709999999991
11
56.8207769999999996
21
-20.1179330000000007
0
LINE
8
BLACK
6
CONTINUOUS
10
56.8207769999999996
20
-20.1179330000000007
11
57.2969679999999997
21
-20.1179330000000007
0
LINE
8
BLACK
6
CONTINUOUS
10
57.2969679999999997
20
-20.1179330000000007
11
57.4874439999999964
21
-20.0226949999999988
0
LINE
8
BLACK
6
CONTINUOUS
10
58.1541110000000003
20
-19.5465039999999988
11
58.9160149999999945
21
-19.5465039999999988
0
LINE
8
BLACK
6
CONTINUOUS
10
58.439824999999999
20
-18.8798379999999995
11
58.439824999999999
21
-20.5941229999999997
0
LINE
8
BLACK
6
CONTINUOUS
10
58.439824999999999
20
-20.5941229999999997
11
58.5350629999999938
21
-20.7845999999999975
0
LINE
8
BLACK
6
CONTINUOUS
10
58.5350629999999938
20
-20.7845999999999975
11
58.7255389999999977
21
-20.8798379999999995
0
LINE
8
BLACK
6
CONTINUOUS
10
58.7255389999999977
20
-20.8798379999999995
11
58.9160149999999945
21
-20.8798379999999995
0
LINE
8
BLACK
6
CONTINUOUS
10
60.3445869999999971
20
-20.7845999999999975
11
60.1541110000000003
21
-20.8798379999999995
0
LINE
8
BLACK
6
CONTINUOUS
10
60.1541110000000003
20
-20.8798379999999995
11
59.7731579999999951
21
-20.8798379999999995
0
LINE
8
BLACK
6
CONTINUOUS
10
59.7731579999999951
20
-20.8798379999999995
11
59.5826819999999984
21
-20.7845999999999975
0
LINE
8
BLACK
6
CONTINUOUS
10
59.5826819999999984
20
-20.7845999999999975
11
59.4874439999999964
21
-20.5941229999999997
0
LINE
8
BLACK
6
CONTINUOUS
10
59.4874439999999964
20
-20.5941229999999997
11
59.4874439999999964
21
-19.8322189999999985
0
LINE
8
BLACK
6
CONTINUOUS
10
59.4874439999999964
20
-19.8322189999999985
11
59.5826819999999984
21
-19.6417420000000007
0
LINE
8
BLACK
6
CONTINUOUS
10
59.5826819999999984
20
-19.6417420000000007
11
59.7731579999999951
21
-19.5465039999999988
0
LINE
8
BLACK
6
CONTINUOUS
10
59.7731579999999951
20
-19.5465039999999988
11
60.1541110000000003
21
-19.5465039999999988
0
LINE
8
BLACK
6
CONTINUOUS
10
60.1541110000000003
20
-19.5465039999999988
11
60.3445869999999971
21
-19.6417420000000007
0
LINE
8
BLACK
6
CONTINUOUS
10
60.3445869999999971
20
-19.6417420000000007
11
60.439824999999999
21
-19.8322189999999985
0
LINE
8
BLACK
6
CONTINUOUS
10
60.439824999999999
20
-19.8322189999999985
11
60.439824999999999
21
-20.0226949999999988
0
LINE
8
BLACK
6
CONTINUOUS
10
60.439824999999999
20
-20.0226949999999988
11
59.4874439999999964
21
-20.2131709999999991
0
LINE
8
BLACK
6
CONTINUOUS
10
62.1541110000000003
20
-20.8798379999999995
11
62.1541110000000003
21
-18.8798379999999995
0
LINE
8
BLACK
6
CONTINUOUS
10
62.1541110000000003
20
-20.7845999999999975
11
61.9636349999999965
21
-20.8798379999999995
0
LINE
8
BLACK
6
CONTINUOUS
10
61.9636349999999965
20
-20.8798379999999995
11
61.5826819999999984
21
-20.8798379999999995
0
LINE
8
BLACK
6
CONTINUOUS
10
61.5826819999999984
20
-20.8798379999999995
11
61.3922059999999945
21
-20.7845999999999975
0
LINE
8
BLACK
6
CONTINUOUS
10
61.3922059999999945
20
-20.7845999999999975
11
61.2969679999999997
21
-20.6893609999999981
0
LINE
8
BLACK
6
CONTINUOUS
10
61.2969679999999997
20
-20.6893609999999981
11
61.2017299999999977
21
-20.4988849999999978
0
LINE
8
BLACK
6
CONTINUOUS
10
61.2017299999999977
20
-20.4988849999999978
11
61.2017299999999977
21
-19.9274570000000004
0
LINE
8
BLACK
6
CONTINUOUS
10
61.2017299999999977
20
-19.9274570000000004
11
61.2969679999999997
21
-19.7369799999999991
0
LINE
8
BLACK
6
CONTINUOUS
10
61.2969679999999997
20
-19.7369799999999991
11
61.3922059999999945
21
-19.6417420000000007
0
LINE
8
BLACK
6
CONTINUOUS
10
61.3922059999999945
20
-19.6417420000000007
11
61.5826819999999984
21
-19.5465039999999988
0
LINE
8
BLACK
6
CONTINUOUS
10
61.5826819999999984
20
-19.5465039999999988
11
61.9636349999999965
21
-19.5465039999999988
0
LINE
8
BLACK
6
CONTINUOUS
10
61.9636349999999965
20
-19.5465039999999988
11
62.1541110000000003
21
-19.6417420000000007
0
LINE
8
BLACK
6
CONTINUOUS
10
62.9160159999999991
20
-21.6417420000000007
11
63.0112539999999939
21
-21.5465039999999988
0
LINE
8
BLACK
6
CONTINUOUS
10
63.0112539999999939
20
-21.5465039999999988
11
63.2017299999999977
21
-21.2607900000000001
0
LINE
8
BLACK
6
CONTINUOUS
10
63.2017299999999977
20
-21.2607900000000001
11
63.2969679999999997
21
-21.0703139999999998
0
LINE
8
BLACK
6
CONTINUOUS
10
63.2969679999999997
20
-21.0703139999999998
11
63.3922059999999945
21
-20.7845999999999975
0
LINE
8
BLACK
6
CONTINUOUS
10
63.3922059999999945
20
-20.7845999999999975
11
63.4874439999999964
21
-20.3084089999999975
0
LINE
8
BLACK
6
CONTINUOUS
10
63.4874439999999964
20
-20.3084089999999975
11
63.4874439999999964
21
-19.9274570000000004
0
LINE
8
BLACK
6
CONTINUOUS
10
63.4874439999999964
20
-19.9274570000000004
11
63.3922059999999945
21
-19.4512660000000004
0
LINE
8
BLACK
6
CONTINUOUS
10
63.3922059999999945
20
-19.4512660000000004
11
63.2969679999999997
21
-19.1655519999999981
0
LINE
8
BLACK
6
CONTINUOUS
10
63.2969679999999997
20
-19.1655519999999981
11
63.2017299999999977
21
-18.9750759999999978
0
LINE
8
BLACK
6
CONTINUOUS
10
63.2017299999999977
20
-18.9750759999999978
11
63.0112539999999939
21
-18.6893609999999981
0
LINE
8
BLACK
6
CONTINUOUS
10
63.0112539999999939
20
-18.6893609999999981
11
62.9160159999999991
21
-18.5941229999999997
  0
ENDSEC
  0
EOF
