M48
; DRILL file KiCad 10.0.3 date 2026-06-27T20:00:39
; FORMAT={-:-/ absolute / metric / decimal}
; #@! TF.CreationDate,2026-06-27T20:00:39-04:00
; #@! TF.GenerationSoftware,Kicad,Pcbnew,10.0.3
; #@! TF.FileFunction,Plated,1,2,PTH
FMAT,2
METRIC
; #@! TA.AperFunction,Plated,PTH,ComponentDrill
T1C0.800
; #@! TA.AperFunction,Plated,PTH,ComponentDrill
T2C1.000
%
G90
G05
T1
X0.15Y36.6
X0.15Y34.6
X4.776Y11.6
X4.776Y2.6
X5.0Y21.05
X7.316Y11.6
X8.0Y21.05
X11.0Y21.05
X12.684Y11.6
X13.0Y30.8
X13.0Y25.8
X14.6Y43.0
X14.6Y41.0
X15.224Y11.6
X15.224Y2.6
X28.25Y34.05
X32.0Y50.8
X32.3Y36.5
X32.34Y56.55
X42.16Y50.8
X42.5Y56.55
X43.17Y48.3
X45.75Y27.3
X48.5Y27.05
X51.42Y52.8
X53.33Y48.3
X56.54Y64.05
X61.58Y52.8
X66.7Y64.05
X71.75Y36.3
X84.0Y63.7
X87.938Y63.7
X92.0Y63.7
X95.58Y60.05
X95.58Y56.3
X95.59Y52.55
X105.74Y60.05
X105.74Y56.3
X105.75Y52.55
X107.75Y27.675
X107.75Y13.237
X107.75Y-1.012
X110.29Y27.675
X110.29Y13.237
X110.29Y-1.012
X112.83Y27.675
X112.83Y13.237
X112.83Y-1.012
T2
X3.0Y29.05
X7.5Y15.3
X14.5Y15.55
X28.13Y30.55
X30.67Y30.55
X33.21Y30.55
X33.625Y39.89
X33.75Y60.05
X35.75Y30.55
X36.165Y39.89
X38.25Y46.3
X38.29Y30.55
X40.83Y30.55
X41.245Y39.89
X43.37Y30.55
X43.785Y60.21
X43.785Y39.89
X45.91Y30.55
X46.0Y53.05
X46.325Y60.21
X46.325Y39.89
X48.45Y30.55
X48.865Y60.21
X48.865Y39.89
X51.405Y60.21
X51.405Y39.89
X52.77Y21.25
X53.945Y60.21
X53.945Y39.89
X55.31Y21.25
X56.485Y60.21
X56.485Y39.89
X57.85Y21.25
X59.025Y60.21
X59.025Y39.89
X60.39Y21.25
X61.565Y60.21
X62.93Y21.25
X64.105Y60.21
X65.47Y21.25
X65.5Y27.8
X66.645Y60.21
X66.645Y39.89
X68.01Y21.25
X69.185Y60.21
X69.185Y39.89
X70.5Y27.8
X70.55Y21.25
X71.725Y60.21
X71.725Y39.89
X71.75Y64.3
X84.3Y46.11
X84.3Y43.57
X84.3Y41.03
X84.3Y38.49
X85.5Y59.8
X88.04Y59.8
X90.58Y59.8
X104.25Y27.8
X104.25Y13.3
X104.25Y-0.95
X116.33Y38.175
X116.33Y31.175
X116.33Y23.987
X116.33Y16.988
X116.33Y9.612
X116.33Y2.612
X123.83Y38.925
X123.83Y30.925
X123.83Y24.737
X123.83Y16.738
X123.83Y10.362
X123.83Y2.362
M30
