M48
; DRILL file KiCad 10.0.3 date 2026-06-22T00:20:26
; FORMAT={-:-/ absolute / metric / decimal}
; #@! TF.CreationDate,2026-06-22T00:20:26-04:00
; #@! TF.GenerationSoftware,Kicad,Pcbnew,10.0.3
; #@! TF.FileFunction,Plated,1,2,PTH
FMAT,2
METRIC
; #@! TA.AperFunction,Plated,PTH,ComponentDrill
T1C0.800
; #@! TA.AperFunction,Plated,PTH,ComponentDrill
T2C1.000
%
G90
G05
T1
X6.556Y11.886
X8.856Y20.886
X8.856Y18.386
X8.856Y15.886
X11.556Y11.886
X12.356Y24.686
X14.056Y11.336
X14.356Y24.686
X16.056Y11.336
X20.256Y11.336
X22.256Y11.336
X26.256Y15.796
X26.256Y8.176
X26.756Y23.276
X26.756Y20.736
X26.756Y18.196
X28.756Y15.796
X28.756Y8.176
T2
X15.256Y18.186
X19.956Y25.886
X22.256Y18.186
X27.956Y25.886
X28.886Y6.326
M30
