<?xml version="1.0" standalone="no"?>
 <!DOCTYPE svg PUBLIC "-//W3C//DTD SVG 1.1//EN" 
 "http://www.w3.org/Graphics/SVG/1.1/DTD/svg11.dtd"> 
<svg
  xmlns:svg="http://www.w3.org/2000/svg"
  xmlns="http://www.w3.org/2000/svg"
  xmlns:xlink="http://www.w3.org/1999/xlink"
  xmlns:inkscape="http://www.inkscape.org/namespaces/inkscape"
  version="1.1"
  width="89.9922mm" height="49.9872mm" viewBox="0.0000 0.0000 89.9922 49.9872">
<title>SVG Image created as copper_after_npth_mount_holes.svg date 2026-06-24T00:20:34 </title>
  <desc>Image generated by PCBNEW </desc>
<g style="fill:#000000; fill-opacity:1.0000;stroke:#000000; stroke-opacity:1.0000;
stroke-linecap:round; stroke-linejoin:round;"
 transform="translate(0 0) scale(1 1)">
</g>
<g style="fill:#C83434; fill-opacity:1.0000; stroke:none;">
<circle cx="82.2250" cy="2.8400" r="0.9400" /> 
<circle cx="79.6850" cy="2.8400" r="0.9400" /> 
<circle cx="77.1450" cy="2.8400" r="0.9400" /> 
<circle cx="74.6050" cy="2.8400" r="0.9400" /> 
<circle cx="72.0650" cy="2.8400" r="0.9400" /> 
<circle cx="69.5250" cy="2.8400" r="0.9400" /> 
<circle cx="66.9850" cy="2.8400" r="0.9400" /> 
<circle cx="64.4450" cy="2.8400" r="0.9400" /> 
<circle cx="61.9050" cy="2.8400" r="0.9400" /> 
<circle cx="59.3650" cy="2.8400" r="0.9400" /> 
<circle cx="56.8250" cy="2.8400" r="0.9400" /> 
<circle cx="54.2850" cy="2.8400" r="0.9400" /> 
<circle cx="82.2250" cy="23.1600" r="0.9400" /> 
<circle cx="79.6850" cy="23.1600" r="0.9400" /> 
<circle cx="77.1450" cy="23.1600" r="0.9400" /> 
<circle cx="74.6050" cy="23.1600" r="0.9400" /> 
<circle cx="72.0650" cy="23.1600" r="0.9400" /> 
<circle cx="69.5250" cy="23.1600" r="0.9400" /> 
<circle cx="66.9850" cy="23.1600" r="0.9400" /> 
<circle cx="64.4450" cy="23.1600" r="0.9400" /> 
<circle cx="61.9050" cy="23.1600" r="0.9400" /> 
<circle cx="59.3650" cy="23.1600" r="0.9400" /> 
<circle cx="56.8250" cy="23.1600" r="0.9400" /> 
<circle cx="54.2850" cy="23.1600" r="0.9400" /> 
<circle cx="51.7450" cy="23.1600" r="0.9400" /> 
<circle cx="49.2050" cy="23.1600" r="0.9400" /> 
<circle cx="46.6650" cy="23.1600" r="0.9400" /> 
<circle cx="44.1250" cy="23.1600" r="0.9400" /> 
</g>
<g style="fill:none; 
stroke:#C83434; stroke-width:2.0000; stroke-opacity:1; 
stroke-linecap:round; stroke-linejoin:round;">
<path d="M92.0000 60.3100
L92.0000 59.3100
" />
<path style="fill:#C83434; fill-opacity:1.0000; stroke:none;fill-rule:evenodd;"
d="M 96.5600,12.4000
96.5600,10.6000
98.3600,10.6000
98.3600,12.4000
Z" /> 
</g>
<g style="fill:#C83434; fill-opacity:1.0000; stroke:none;">
<circle cx="100.0000" cy="11.5000" r="0.9000" /> 
<circle cx="102.5400" cy="11.5000" r="0.9000" /> 
<path style="fill:#C83434; fill-opacity:1.0000; stroke:none;fill-rule:evenodd;"
d="M 7.0160,12.1000
7.0160,10.5000
8.6160,10.5000
8.6160,12.1000
Z" /> 
<circle cx="13.1840" cy="11.3000" r="0.8000" /> 
<circle cx="15.7240" cy="2.3000" r="0.8000" /> 
<circle cx="5.2760" cy="2.3000" r="0.8000" /> 
<circle cx="15.7240" cy="11.3000" r="0.8000" /> 
<circle cx="5.2760" cy="11.3000" r="0.8000" /> 
</g>
<g style="fill:none; 
stroke:#C83434; stroke-width:2.0000; stroke-opacity:1; 
stroke-linecap:round; stroke-linejoin:round;">
<path d="M70.5000 19.3100
L70.5000 18.3100
" />
<path d="M92.0000 40.3100
L92.0000 39.3100
" />
</g>
<g style="fill:#C83434; fill-opacity:1.0000; stroke:none;">
<circle cx="68.0000" cy="15.0000" r="1.5000" /> 
<circle cx="74.6500" cy="42.0800" r="0.9000" /> 
<circle cx="74.6500" cy="39.5400" r="0.9000" /> 
<circle cx="74.6500" cy="37.0000" r="0.9000" /> 
<circle cx="74.6500" cy="34.4600" r="0.9000" /> 
<circle cx="74.6500" cy="31.9200" r="0.9000" /> 
</g>
<g style="fill:none; 
stroke:#C83434; stroke-width:1.4500; stroke-opacity:1; 
stroke-linecap:round; stroke-linejoin:round;">
<path d="M85.0000 6.9750
L85.0000 9.5250
" />
<path d="M87.0000 6.9750
L87.0000 9.5250
" />
<path style="fill:#C83434; fill-opacity:1.0000; stroke:none;fill-rule:evenodd;"
d="M 50.0500,17.6100
50.0500,15.8100
51.8500,15.8100
51.8500,17.6100
Z" /> 
</g>
<g style="fill:#C83434; fill-opacity:1.0000; stroke:none;">
<circle cx="48.4100" cy="16.7100" r="0.9000" /> 
<circle cx="45.8700" cy="16.7100" r="0.9000" /> 
<circle cx="43.3300" cy="16.7100" r="0.9000" /> 
<circle cx="40.7900" cy="16.7100" r="0.9000" /> 
<circle cx="38.2500" cy="16.7100" r="0.9000" /> 
<circle cx="35.7100" cy="16.7100" r="0.9000" /> 
<circle cx="33.1700" cy="16.7100" r="0.9000" /> 
<circle cx="30.6300" cy="16.7100" r="0.9000" /> 
<circle cx="52.1100" cy="28.6500" r="0.9000" /> 
<circle cx="54.6500" cy="28.6500" r="0.9000" /> 
<circle cx="57.1900" cy="28.6500" r="0.9000" /> 
<circle cx="59.7300" cy="28.6500" r="0.9000" /> 
<circle cx="62.2700" cy="28.6500" r="0.9000" /> 
<circle cx="64.8100" cy="28.6500" r="0.9000" /> 
<circle cx="67.3500" cy="28.6500" r="0.9000" /> 
<circle cx="69.8900" cy="28.6500" r="0.9000" /> 
<circle cx="45.6500" cy="38.2000" r="0.9000" /> 
<circle cx="48.1900" cy="38.2000" r="0.9000" /> 
<circle cx="50.7300" cy="38.2000" r="0.9000" /> 
<circle cx="53.2700" cy="38.2000" r="0.9000" /> 
<circle cx="55.8100" cy="38.2000" r="0.9000" /> 
<circle cx="58.3500" cy="38.2000" r="0.9000" /> 
</g>
<g style="fill:none; 
stroke:#C83434; stroke-width:1.4500; stroke-opacity:1; 
stroke-linecap:round; stroke-linejoin:round;">
<path d="M79.0000 45.4750
L79.0000 48.0250
" />
<path d="M77.0000 45.4750
L77.0000 48.0250
" />
</g>
<g style="fill:#C83434; fill-opacity:1.0000; stroke:none;">
<circle cx="68.1900" cy="47.2000" r="0.9000" /> 
<circle cx="70.7300" cy="47.2000" r="0.9000" /> 
<circle cx="73.2700" cy="47.2000" r="0.9000" /> 
<circle cx="75.8100" cy="47.2000" r="0.9000" /> 
</g>
<g style="fill:#4D7FC4; fill-opacity:1.0000; stroke:none;">
<circle cx="82.2250" cy="2.8400" r="0.9400" /> 
<circle cx="79.6850" cy="2.8400" r="0.9400" /> 
<circle cx="77.1450" cy="2.8400" r="0.9400" /> 
<circle cx="74.6050" cy="2.8400" r="0.9400" /> 
<circle cx="72.0650" cy="2.8400" r="0.9400" /> 
<circle cx="69.5250" cy="2.8400" r="0.9400" /> 
<circle cx="66.9850" cy="2.8400" r="0.9400" /> 
<circle cx="64.4450" cy="2.8400" r="0.9400" /> 
<circle cx="61.9050" cy="2.8400" r="0.9400" /> 
<circle cx="59.3650" cy="2.8400" r="0.9400" /> 
<circle cx="56.8250" cy="2.8400" r="0.9400" /> 
<circle cx="54.2850" cy="2.8400" r="0.9400" /> 
<circle cx="82.2250" cy="23.1600" r="0.9400" /> 
<circle cx="79.6850" cy="23.1600" r="0.9400" /> 
<circle cx="77.1450" cy="23.1600" r="0.9400" /> 
<circle cx="74.6050" cy="23.1600" r="0.9400" /> 
<circle cx="72.0650" cy="23.1600" r="0.9400" /> 
<circle cx="69.5250" cy="23.1600" r="0.9400" /> 
<circle cx="66.9850" cy="23.1600" r="0.9400" /> 
<circle cx="64.4450" cy="23.1600" r="0.9400" /> 
<circle cx="61.9050" cy="23.1600" r="0.9400" /> 
<circle cx="59.3650" cy="23.1600" r="0.9400" /> 
<circle cx="56.8250" cy="23.1600" r="0.9400" /> 
<circle cx="54.2850" cy="23.1600" r="0.9400" /> 
<circle cx="51.7450" cy="23.1600" r="0.9400" /> 
<circle cx="49.2050" cy="23.1600" r="0.9400" /> 
<circle cx="46.6650" cy="23.1600" r="0.9400" /> 
<circle cx="44.1250" cy="23.1600" r="0.9400" /> 
</g>
<g style="fill:none; 
stroke:#4D7FC4; stroke-width:2.0000; stroke-opacity:1; 
stroke-linecap:round; stroke-linejoin:round;">
<path d="M92.0000 60.3100
L92.0000 59.3100
" />
<path style="fill:#4D7FC4; fill-opacity:1.0000; stroke:none;fill-rule:evenodd;"
d="M 96.5600,12.4000
96.5600,10.6000
98.3600,10.6000
98.3600,12.4000
Z" /> 
</g>
<g style="fill:#4D7FC4; fill-opacity:1.0000; stroke:none;">
<circle cx="100.0000" cy="11.5000" r="0.9000" /> 
<circle cx="102.5400" cy="11.5000" r="0.9000" /> 
<path style="fill:#4D7FC4; fill-opacity:1.0000; stroke:none;fill-rule:evenodd;"
d="M 7.0160,12.1000
7.0160,10.5000
8.6160,10.5000
8.6160,12.1000
Z" /> 
<circle cx="13.1840" cy="11.3000" r="0.8000" /> 
<circle cx="15.7240" cy="2.3000" r="0.8000" /> 
<circle cx="5.2760" cy="2.3000" r="0.8000" /> 
<circle cx="15.7240" cy="11.3000" r="0.8000" /> 
<circle cx="5.2760" cy="11.3000" r="0.8000" /> 
</g>
<g style="fill:none; 
stroke:#4D7FC4; stroke-width:2.0000; stroke-opacity:1; 
stroke-linecap:round; stroke-linejoin:round;">
<path d="M70.5000 19.3100
L70.5000 18.3100
" />
<path d="M92.0000 40.3100
L92.0000 39.3100
" />
</g>
<g style="fill:#4D7FC4; fill-opacity:1.0000; stroke:none;">
<circle cx="68.0000" cy="15.0000" r="1.5000" /> 
<circle cx="74.6500" cy="42.0800" r="0.9000" /> 
<circle cx="74.6500" cy="39.5400" r="0.9000" /> 
<circle cx="74.6500" cy="37.0000" r="0.9000" /> 
<circle cx="74.6500" cy="34.4600" r="0.9000" /> 
<circle cx="74.6500" cy="31.9200" r="0.9000" /> 
</g>
<g style="fill:none; 
stroke:#4D7FC4; stroke-width:1.4500; stroke-opacity:1; 
stroke-linecap:round; stroke-linejoin:round;">
<path d="M85.0000 6.9750
L85.0000 9.5250
" />
<path d="M87.0000 6.9750
L87.0000 9.5250
" />
<path style="fill:#4D7FC4; fill-opacity:1.0000; stroke:none;fill-rule:evenodd;"
d="M 50.0500,17.6100
50.0500,15.8100
51.8500,15.8100
51.8500,17.6100
Z" /> 
</g>
<g style="fill:#4D7FC4; fill-opacity:1.0000; stroke:none;">
<circle cx="48.4100" cy="16.7100" r="0.9000" /> 
<circle cx="45.8700" cy="16.7100" r="0.9000" /> 
<circle cx="43.3300" cy="16.7100" r="0.9000" /> 
<circle cx="40.7900" cy="16.7100" r="0.9000" /> 
<circle cx="38.2500" cy="16.7100" r="0.9000" /> 
<circle cx="35.7100" cy="16.7100" r="0.9000" /> 
<circle cx="33.1700" cy="16.7100" r="0.9000" /> 
<circle cx="30.6300" cy="16.7100" r="0.9000" /> 
<circle cx="52.1100" cy="28.6500" r="0.9000" /> 
<circle cx="54.6500" cy="28.6500" r="0.9000" /> 
<circle cx="57.1900" cy="28.6500" r="0.9000" /> 
<circle cx="59.7300" cy="28.6500" r="0.9000" /> 
<circle cx="62.2700" cy="28.6500" r="0.9000" /> 
<circle cx="64.8100" cy="28.6500" r="0.9000" /> 
<circle cx="67.3500" cy="28.6500" r="0.9000" /> 
<circle cx="69.8900" cy="28.6500" r="0.9000" /> 
<circle cx="45.6500" cy="38.2000" r="0.9000" /> 
<circle cx="48.1900" cy="38.2000" r="0.9000" /> 
<circle cx="50.7300" cy="38.2000" r="0.9000" /> 
<circle cx="53.2700" cy="38.2000" r="0.9000" /> 
<circle cx="55.8100" cy="38.2000" r="0.9000" /> 
<circle cx="58.3500" cy="38.2000" r="0.9000" /> 
</g>
<g style="fill:none; 
stroke:#4D7FC4; stroke-width:1.4500; stroke-opacity:1; 
stroke-linecap:round; stroke-linejoin:round;">
<path d="M79.0000 45.4750
L79.0000 48.0250
" />
<path d="M77.0000 45.4750
L77.0000 48.0250
" />
</g>
<g style="fill:#4D7FC4; fill-opacity:1.0000; stroke:none;">
<circle cx="68.1900" cy="47.2000" r="0.9000" /> 
<circle cx="70.7300" cy="47.2000" r="0.9000" /> 
<circle cx="73.2700" cy="47.2000" r="0.9000" /> 
<circle cx="75.8100" cy="47.2000" r="0.9000" /> 
</g>
<g style="fill:none; 
stroke:#D0D2CD; stroke-width:0.1000; stroke-opacity:1; 
stroke-linecap:round; stroke-linejoin:round;">
<path d="M0.0000 0.0000
L90.0000 0.0000
" />
<path d="M0.0000 50.0000
L0.0000 0.0000
" />
<path d="M90.0000 0.0000
L90.0000 50.0000
" />
<path d="M90.0000 50.0000
L0.0000 50.0000
" />
</g>
<g style="fill:#FFFFFF; fill-opacity:1.0000; stroke:none;">
<circle cx="78.0000" cy="17.5400" r="0.4000" /> 
</g>
<g style="fill:#FFFFFF; fill-opacity:1.0000; stroke:none;">
<circle cx="78.0000" cy="15.0000" r="0.4000" /> 
</g>
<g style="fill:#FFFFFF; fill-opacity:1.0000; stroke:none;">
<circle cx="78.0000" cy="12.4600" r="0.4000" /> 
</g>
<g style="fill:#FFFFFF; fill-opacity:1.0000; stroke:none;">
<circle cx="82.2250" cy="2.8400" r="0.5000" /> 
</g>
<g style="fill:#FFFFFF; fill-opacity:1.0000; stroke:none;">
<circle cx="79.6850" cy="2.8400" r="0.5000" /> 
</g>
<g style="fill:#FFFFFF; fill-opacity:1.0000; stroke:none;">
<circle cx="77.1450" cy="2.8400" r="0.5000" /> 
</g>
<g style="fill:#FFFFFF; fill-opacity:1.0000; stroke:none;">
<circle cx="74.6050" cy="2.8400" r="0.5000" /> 
</g>
<g style="fill:#FFFFFF; fill-opacity:1.0000; stroke:none;">
<circle cx="72.0650" cy="2.8400" r="0.5000" /> 
</g>
<g style="fill:#FFFFFF; fill-opacity:1.0000; stroke:none;">
<circle cx="69.5250" cy="2.8400" r="0.5000" /> 
</g>
<g style="fill:#FFFFFF; fill-opacity:1.0000; stroke:none;">
<circle cx="66.9850" cy="2.8400" r="0.5000" /> 
</g>
<g style="fill:#FFFFFF; fill-opacity:1.0000; stroke:none;">
<circle cx="64.4450" cy="2.8400" r="0.5000" /> 
</g>
<g style="fill:#FFFFFF; fill-opacity:1.0000; stroke:none;">
<circle cx="61.9050" cy="2.8400" r="0.5000" /> 
</g>
<g style="fill:#FFFFFF; fill-opacity:1.0000; stroke:none;">
<circle cx="59.3650" cy="2.8400" r="0.5000" /> 
</g>
<g style="fill:#FFFFFF; fill-opacity:1.0000; stroke:none;">
<circle cx="56.8250" cy="2.8400" r="0.5000" /> 
</g>
<g style="fill:#FFFFFF; fill-opacity:1.0000; stroke:none;">
<circle cx="54.2850" cy="2.8400" r="0.5000" /> 
</g>
<g style="fill:#FFFFFF; fill-opacity:1.0000; stroke:none;">
<circle cx="82.2250" cy="23.1600" r="0.5000" /> 
</g>
<g style="fill:#FFFFFF; fill-opacity:1.0000; stroke:none;">
<circle cx="79.6850" cy="23.1600" r="0.5000" /> 
</g>
<g style="fill:#FFFFFF; fill-opacity:1.0000; stroke:none;">
<circle cx="77.1450" cy="23.1600" r="0.5000" /> 
</g>
<g style="fill:#FFFFFF; fill-opacity:1.0000; stroke:none;">
<circle cx="74.6050" cy="23.1600" r="0.5000" /> 
</g>
<g style="fill:#FFFFFF; fill-opacity:1.0000; stroke:none;">
<circle cx="72.0650" cy="23.1600" r="0.5000" /> 
</g>
<g style="fill:#FFFFFF; fill-opacity:1.0000; stroke:none;">
<circle cx="69.5250" cy="23.1600" r="0.5000" /> 
</g>
<g style="fill:#FFFFFF; fill-opacity:1.0000; stroke:none;">
<circle cx="66.9850" cy="23.1600" r="0.5000" /> 
</g>
<g style="fill:#FFFFFF; fill-opacity:1.0000; stroke:none;">
<circle cx="64.4450" cy="23.1600" r="0.5000" /> 
</g>
<g style="fill:#FFFFFF; fill-opacity:1.0000; stroke:none;">
<circle cx="61.9050" cy="23.1600" r="0.5000" /> 
</g>
<g style="fill:#FFFFFF; fill-opacity:1.0000; stroke:none;">
<circle cx="59.3650" cy="23.1600" r="0.5000" /> 
</g>
<g style="fill:#FFFFFF; fill-opacity:1.0000; stroke:none;">
<circle cx="56.8250" cy="23.1600" r="0.5000" /> 
</g>
<g style="fill:#FFFFFF; fill-opacity:1.0000; stroke:none;">
<circle cx="54.2850" cy="23.1600" r="0.5000" /> 
</g>
<g style="fill:#FFFFFF; fill-opacity:1.0000; stroke:none;">
<circle cx="51.7450" cy="23.1600" r="0.5000" /> 
</g>
<g style="fill:#FFFFFF; fill-opacity:1.0000; stroke:none;">
<circle cx="49.2050" cy="23.1600" r="0.5000" /> 
</g>
<g style="fill:#FFFFFF; fill-opacity:1.0000; stroke:none;">
<circle cx="46.6650" cy="23.1600" r="0.5000" /> 
</g>
<g style="fill:#FFFFFF; fill-opacity:1.0000; stroke:none;">
<circle cx="44.1250" cy="23.1600" r="0.5000" /> 
</g>
<g style="fill:#000000; fill-opacity:1.0000; stroke:none;">
<circle cx="32.6950" cy="4.1100" r="1.5875" /> 
<circle cx="32.6950" cy="21.8900" r="1.5875" /> 
<circle cx="86.0350" cy="4.1100" r="1.5875" /> 
<circle cx="86.0350" cy="21.8900" r="1.5875" /> 
</g>
<g style="fill:#FFFFFF; fill-opacity:1.0000; stroke:none;">
<circle cx="92.0000" cy="59.8100" r="0.4000" /> 
</g>
<g style="fill:#FFFFFF; fill-opacity:1.0000; stroke:none;">
<circle cx="92.0000" cy="52.1900" r="0.4000" /> 
</g>
<g style="fill:#FFFFFF; fill-opacity:1.0000; stroke:none;">
<circle cx="15.7000" cy="9.5000" r="0.4000" /> 
</g>
<g style="fill:#FFFFFF; fill-opacity:1.0000; stroke:none;">
<circle cx="20.7000" cy="9.5000" r="0.4000" /> 
</g>
<g style="fill:#FFFFFF; fill-opacity:1.0000; stroke:none;">
<circle cx="88.0000" cy="22.0000" r="0.5000" /> 
</g>
<g style="fill:#FFFFFF; fill-opacity:1.0000; stroke:none;">
<circle cx="96.0000" cy="22.0000" r="0.5000" /> 
</g>
<g style="fill:#FFFFFF; fill-opacity:1.0000; stroke:none;">
<circle cx="25.0000" cy="14.5000" r="0.4000" /> 
</g>
<g style="fill:#FFFFFF; fill-opacity:1.0000; stroke:none;">
<circle cx="25.0000" cy="12.0000" r="0.4000" /> 
</g>
<g style="fill:#FFFFFF; fill-opacity:1.0000; stroke:none;">
<circle cx="25.0000" cy="9.5000" r="0.4000" /> 
</g>
<g style="fill:#FFFFFF; fill-opacity:1.0000; stroke:none;">
<circle cx="97.4600" cy="11.5000" r="0.5000" /> 
</g>
<g style="fill:#FFFFFF; fill-opacity:1.0000; stroke:none;">
<circle cx="100.0000" cy="11.5000" r="0.5000" /> 
</g>
<g style="fill:#FFFFFF; fill-opacity:1.0000; stroke:none;">
<circle cx="102.5400" cy="11.5000" r="0.5000" /> 
</g>
<g style="fill:#FFFFFF; fill-opacity:1.0000; stroke:none;">
<circle cx="7.8160" cy="11.3000" r="0.4500" /> 
</g>
<g style="fill:#FFFFFF; fill-opacity:1.0000; stroke:none;">
<circle cx="13.1840" cy="11.3000" r="0.4500" /> 
</g>
<g style="fill:#FFFFFF; fill-opacity:1.0000; stroke:none;">
<circle cx="15.7240" cy="2.3000" r="0.4500" /> 
</g>
<g style="fill:#FFFFFF; fill-opacity:1.0000; stroke:none;">
<circle cx="5.2760" cy="2.3000" r="0.4500" /> 
</g>
<g style="fill:#FFFFFF; fill-opacity:1.0000; stroke:none;">
<circle cx="15.7240" cy="11.3000" r="0.4500" /> 
</g>
<g style="fill:#FFFFFF; fill-opacity:1.0000; stroke:none;">
<circle cx="5.2760" cy="11.3000" r="0.4500" /> 
</g>
<g style="fill:#FFFFFF; fill-opacity:1.0000; stroke:none;">
<circle cx="92.0000" cy="51.5400" r="0.4000" /> 
</g>
<g style="fill:#FFFFFF; fill-opacity:1.0000; stroke:none;">
<circle cx="92.0000" cy="49.0000" r="0.4000" /> 
</g>
<g style="fill:#FFFFFF; fill-opacity:1.0000; stroke:none;">
<circle cx="92.0000" cy="46.4600" r="0.4000" /> 
</g>
<g style="fill:#FFFFFF; fill-opacity:1.0000; stroke:none;">
<circle cx="74.0000" cy="11.1900" r="0.4000" /> 
</g>
<g style="fill:#FFFFFF; fill-opacity:1.0000; stroke:none;">
<circle cx="74.0000" cy="18.8100" r="0.4000" /> 
</g>
<g style="fill:#FFFFFF; fill-opacity:1.0000; stroke:none;">
<circle cx="70.5000" cy="18.8100" r="0.4000" /> 
</g>
<g style="fill:#FFFFFF; fill-opacity:1.0000; stroke:none;">
<circle cx="70.5000" cy="11.1900" r="0.4000" /> 
</g>
<g style="fill:#FFFFFF; fill-opacity:1.0000; stroke:none;">
<circle cx="92.0000" cy="39.8100" r="0.4000" /> 
</g>
<g style="fill:#FFFFFF; fill-opacity:1.0000; stroke:none;">
<circle cx="92.0000" cy="32.1900" r="0.4000" /> 
</g>
<g style="fill:#FFFFFF; fill-opacity:1.0000; stroke:none;">
<circle cx="81.5000" cy="13.0000" r="0.5000" /> 
</g>
<g style="fill:#FFFFFF; fill-opacity:1.0000; stroke:none;">
<circle cx="88.5000" cy="13.0000" r="0.5000" /> 
</g>
<g style="fill:#FFFFFF; fill-opacity:1.0000; stroke:none;">
<circle cx="68.0000" cy="15.0000" r="0.5000" /> 
</g>
<g style="fill:#FFFFFF; fill-opacity:1.0000; stroke:none;">
<circle cx="74.6500" cy="42.0800" r="0.5000" /> 
</g>
<g style="fill:#FFFFFF; fill-opacity:1.0000; stroke:none;">
<circle cx="74.6500" cy="39.5400" r="0.5000" /> 
</g>
<g style="fill:#FFFFFF; fill-opacity:1.0000; stroke:none;">
<circle cx="74.6500" cy="37.0000" r="0.5000" /> 
</g>
<g style="fill:#FFFFFF; fill-opacity:1.0000; stroke:none;">
<circle cx="74.6500" cy="34.4600" r="0.5000" /> 
</g>
<g style="fill:#FFFFFF; fill-opacity:1.0000; stroke:none;">
<circle cx="74.6500" cy="31.9200" r="0.5000" /> 
</g>
<g style="fill:#FFFFFF; fill-opacity:1.0000; stroke:none;">
<circle cx="85.0000" cy="8.2500" r="0.4000" /> 
</g>
<g style="fill:#FFFFFF; fill-opacity:1.0000; stroke:none;">
<circle cx="87.0000" cy="8.2500" r="0.4000" /> 
</g>
<g style="fill:#FFFFFF; fill-opacity:1.0000; stroke:none;">
<circle cx="50.9500" cy="16.7100" r="0.5000" /> 
</g>
<g style="fill:#FFFFFF; fill-opacity:1.0000; stroke:none;">
<circle cx="48.4100" cy="16.7100" r="0.5000" /> 
</g>
<g style="fill:#FFFFFF; fill-opacity:1.0000; stroke:none;">
<circle cx="45.8700" cy="16.7100" r="0.5000" /> 
</g>
<g style="fill:#FFFFFF; fill-opacity:1.0000; stroke:none;">
<circle cx="43.3300" cy="16.7100" r="0.5000" /> 
</g>
<g style="fill:#FFFFFF; fill-opacity:1.0000; stroke:none;">
<circle cx="40.7900" cy="16.7100" r="0.5000" /> 
</g>
<g style="fill:#FFFFFF; fill-opacity:1.0000; stroke:none;">
<circle cx="38.2500" cy="16.7100" r="0.5000" /> 
</g>
<g style="fill:#FFFFFF; fill-opacity:1.0000; stroke:none;">
<circle cx="35.7100" cy="16.7100" r="0.5000" /> 
</g>
<g style="fill:#FFFFFF; fill-opacity:1.0000; stroke:none;">
<circle cx="33.1700" cy="16.7100" r="0.5000" /> 
</g>
<g style="fill:#FFFFFF; fill-opacity:1.0000; stroke:none;">
<circle cx="30.6300" cy="16.7100" r="0.5000" /> 
</g>
<g style="fill:#000000; fill-opacity:1.0000; stroke:none;">
<circle cx="0.5000" cy="17.6000" r="1.6250" /> 
<circle cx="59.5000" cy="17.6000" r="1.6250" /> 
<circle cx="0.3500" cy="47.1000" r="1.6250" /> 
<circle cx="59.6500" cy="47.1000" r="1.6250" /> 
</g>
<g style="fill:#FFFFFF; fill-opacity:1.0000; stroke:none;">
<circle cx="100.5000" cy="42.0000" r="0.5000" /> 
</g>
<g style="fill:#FFFFFF; fill-opacity:1.0000; stroke:none;">
<circle cx="107.5000" cy="42.0000" r="0.5000" /> 
</g>
<g style="fill:#FFFFFF; fill-opacity:1.0000; stroke:none;">
<circle cx="21.5000" cy="4.2000" r="0.4000" /> 
</g>
<g style="fill:#FFFFFF; fill-opacity:1.0000; stroke:none;">
<circle cx="23.5000" cy="4.2000" r="0.4000" /> 
</g>
<g style="fill:#FFFFFF; fill-opacity:1.0000; stroke:none;">
<circle cx="92.0000" cy="31.5400" r="0.4000" /> 
</g>
<g style="fill:#FFFFFF; fill-opacity:1.0000; stroke:none;">
<circle cx="92.0000" cy="29.0000" r="0.4000" /> 
</g>
<g style="fill:#FFFFFF; fill-opacity:1.0000; stroke:none;">
<circle cx="92.0000" cy="26.4600" r="0.4000" /> 
</g>
<g style="fill:#FFFFFF; fill-opacity:1.0000; stroke:none;">
<circle cx="52.1100" cy="28.6500" r="0.5000" /> 
</g>
<g style="fill:#FFFFFF; fill-opacity:1.0000; stroke:none;">
<circle cx="54.6500" cy="28.6500" r="0.5000" /> 
</g>
<g style="fill:#FFFFFF; fill-opacity:1.0000; stroke:none;">
<circle cx="57.1900" cy="28.6500" r="0.5000" /> 
</g>
<g style="fill:#FFFFFF; fill-opacity:1.0000; stroke:none;">
<circle cx="59.7300" cy="28.6500" r="0.5000" /> 
</g>
<g style="fill:#FFFFFF; fill-opacity:1.0000; stroke:none;">
<circle cx="62.2700" cy="28.6500" r="0.5000" /> 
</g>
<g style="fill:#FFFFFF; fill-opacity:1.0000; stroke:none;">
<circle cx="64.8100" cy="28.6500" r="0.5000" /> 
</g>
<g style="fill:#FFFFFF; fill-opacity:1.0000; stroke:none;">
<circle cx="67.3500" cy="28.6500" r="0.5000" /> 
</g>
<g style="fill:#FFFFFF; fill-opacity:1.0000; stroke:none;">
<circle cx="69.8900" cy="28.6500" r="0.5000" /> 
</g>
<g style="fill:#FFFFFF; fill-opacity:1.0000; stroke:none;">
<circle cx="100.5000" cy="22.0000" r="0.5000" /> 
</g>
<g style="fill:#FFFFFF; fill-opacity:1.0000; stroke:none;">
<circle cx="107.5000" cy="22.0000" r="0.5000" /> 
</g>
<g style="fill:#FFFFFF; fill-opacity:1.0000; stroke:none;">
<circle cx="72.0000" cy="8.0000" r="0.5000" /> 
</g>
<g style="fill:#FFFFFF; fill-opacity:1.0000; stroke:none;">
<circle cx="80.0000" cy="8.0000" r="0.5000" /> 
</g>
<g style="fill:#FFFFFF; fill-opacity:1.0000; stroke:none;">
<circle cx="88.0000" cy="42.0000" r="0.5000" /> 
</g>
<g style="fill:#FFFFFF; fill-opacity:1.0000; stroke:none;">
<circle cx="96.0000" cy="42.0000" r="0.5000" /> 
</g>
<g style="fill:#FFFFFF; fill-opacity:1.0000; stroke:none;">
<circle cx="45.6500" cy="38.2000" r="0.5000" /> 
</g>
<g style="fill:#FFFFFF; fill-opacity:1.0000; stroke:none;">
<circle cx="48.1900" cy="38.2000" r="0.5000" /> 
</g>
<g style="fill:#FFFFFF; fill-opacity:1.0000; stroke:none;">
<circle cx="50.7300" cy="38.2000" r="0.5000" /> 
</g>
<g style="fill:#FFFFFF; fill-opacity:1.0000; stroke:none;">
<circle cx="53.2700" cy="38.2000" r="0.5000" /> 
</g>
<g style="fill:#FFFFFF; fill-opacity:1.0000; stroke:none;">
<circle cx="55.8100" cy="38.2000" r="0.5000" /> 
</g>
<g style="fill:#FFFFFF; fill-opacity:1.0000; stroke:none;">
<circle cx="58.3500" cy="38.2000" r="0.5000" /> 
</g>
<g style="fill:#FFFFFF; fill-opacity:1.0000; stroke:none;">
<circle cx="79.0000" cy="46.7500" r="0.4000" /> 
</g>
<g style="fill:#FFFFFF; fill-opacity:1.0000; stroke:none;">
<circle cx="77.0000" cy="46.7500" r="0.4000" /> 
</g>
<g style="fill:#FFFFFF; fill-opacity:1.0000; stroke:none;">
<circle cx="68.1900" cy="47.2000" r="0.5000" /> 
</g>
<g style="fill:#FFFFFF; fill-opacity:1.0000; stroke:none;">
<circle cx="70.7300" cy="47.2000" r="0.5000" /> 
</g>
<g style="fill:#FFFFFF; fill-opacity:1.0000; stroke:none;">
<circle cx="73.2700" cy="47.2000" r="0.5000" /> 
</g>
<g style="fill:#FFFFFF; fill-opacity:1.0000; stroke:none;">
<circle cx="75.8100" cy="47.2000" r="0.5000" /> 
</g> 
</svg>
