  0
SECTION
  2
HEADER
  9
$ANGBASE
  50
0.0
  9
$ANGDIR
  70
1
  9
$MEASUREMENT
  70
0
  9
$INSUNITS
  70
1
  0
ENDSEC
  0
SECTION
  2
TABLES
  0
TABLE
  2
LTYPE
  70
4
  0
LTYPE
  5
40F
  2
CONTINUOUS
  70
0
  3
Solid line
  72
65
  73
0
  40
0.0
  0
LTYPE
  5
410
  2
DASHDOT
 70
0
  3
Dash Dot ____ _ ____ _
 72
65
 73
4
 40
2.0
 49
1.25
 49
-0.25
 49
0.25
 49
-0.25
  0
LTYPE
  5
411
  2
DASHED
 70
0
  3
Dashed __ __ __ __ __
 72
65
 73
2
 40
0.75
 49
0.5
 49
-0.25
  0
LTYPE
  5
43B
  2
DOTTED
 70
0
  3
Dotted .  .  .  .
 72
65
 73
2
 40
0.2
 49
0.0
 49
-0.2
  0
ENDTAB
  0
TABLE
  2
STYLE
  70
4
  0
STYLE
  2
KICAD
  70
0
  40
0
  41
1
  42
1
  50
0
  71
0
  3
isocp.shx
  0
STYLE
  2
KICADB
  70
0
  40
0
  41
1
  42
1
  50
0
  71
0
  3
isocp.shx
  0
STYLE
  2
KICADI
  70
0
  40
0
  41
1
  42
1
  50
15
  71
0
  3
isocp.shx
  0
STYLE
  2
KICADBI
  70
0
  40
0
  41
1
  42
1
  50
15
  71
0
  3
isocp.shx
  0
ENDTAB
  0
TABLE
  2
LAYER
  70
1
  0
LAYER
  2
NPTH_2.5mm_Vector
  70
0
  62
31
  420
14207058
  6
CONTINUOUS
  0
ENDTAB
  0
ENDSEC
  0
SECTION
  2
ENTITIES
0
CIRCLE
8
NPTH_2.5mm_Vector
10
5.7614173228346459
20
-3.4311023622047245
40
0.0492125984251968
0
CIRCLE
8
NPTH_2.5mm_Vector
10
6.5614173228346457
20
-3.4311023622047245
40
0.0492125984251968
0
CIRCLE
8
NPTH_2.5mm_Vector
10
5.7614173228346459
20
-4.1657480314960633
40
0.0492125984251968
0
CIRCLE
8
NPTH_2.5mm_Vector
10
6.5614173228346457
20
-4.1657480314960633
40
0.0492125984251968
0
CIRCLE
8
NPTH_2.5mm_Vector
10
5.7614173228346459
20
-4.6657480314960633
40
0.0492125984251968
0
CIRCLE
8
NPTH_2.5mm_Vector
10
6.5614173228346457
20
-4.6657480314960633
40
0.0492125984251968
0
CIRCLE
8
NPTH_2.5mm_Vector
10
6.7405511811023624
20
-3.8976377952755903
40
0.015748031496063
0
CIRCLE
8
NPTH_2.5mm_Vector
10
6.840551181102362
20
-3.8976377952755903
40
0.015748031496063
0
CIRCLE
8
NPTH_2.5mm_Vector
10
6.9405511811023617
20
-3.8976377952755903
40
0.015748031496063
0
CIRCLE
8
NPTH_2.5mm_Vector
10
7.5976716929133854
20
-2.0669291338582676
40
0.0624999606299213
0
CIRCLE
8
NPTH_2.5mm_Vector
10
3.2950787401574804
20
-2.3370078740157481
40
0.0624999606299213
0
CIRCLE
8
NPTH_2.5mm_Vector
10
3.2950787401574804
20
-3.0370078740157478
40
0.0624999606299213
0
CIRCLE
8
NPTH_2.5mm_Vector
10
5.2450787401574805
20
-2.2870078740157478
40
0.0196850393700787
0
CIRCLE
8
NPTH_2.5mm_Vector
10
5.14507874015748
20
-2.2870078740157478
40
0.0196850393700787
0
CIRCLE
8
NPTH_2.5mm_Vector
10
5.0450787401574804
20
-2.2870078740157478
40
0.0196850393700787
0
CIRCLE
8
NPTH_2.5mm_Vector
10
4.9450787401574798
20
-2.2870078740157478
40
0.0196850393700787
0
CIRCLE
8
NPTH_2.5mm_Vector
10
4.8450787401574802
20
-2.2870078740157478
40
0.0196850393700787
0
CIRCLE
8
NPTH_2.5mm_Vector
10
4.7450787401574805
20
-2.2870078740157478
40
0.0196850393700787
0
CIRCLE
8
NPTH_2.5mm_Vector
10
4.64507874015748
20
-2.2870078740157478
40
0.0196850393700787
0
CIRCLE
8
NPTH_2.5mm_Vector
10
4.5450787401574804
20
-2.2870078740157478
40
0.0196850393700787
0
CIRCLE
8
NPTH_2.5mm_Vector
10
4.4450787401574798
20
-2.2870078740157478
40
0.0196850393700787
0
CIRCLE
8
NPTH_2.5mm_Vector
10
4.3450787401574802
20
-2.2870078740157478
40
0.0196850393700787
0
CIRCLE
8
NPTH_2.5mm_Vector
10
4.2450787401574805
20
-2.2870078740157478
40
0.0196850393700787
0
CIRCLE
8
NPTH_2.5mm_Vector
10
4.14507874015748
20
-2.2870078740157478
40
0.0196850393700787
0
CIRCLE
8
NPTH_2.5mm_Vector
10
5.2450787401574805
20
-3.0870078740157481
40
0.0196850393700787
0
CIRCLE
8
NPTH_2.5mm_Vector
10
5.14507874015748
20
-3.0870078740157481
40
0.0196850393700787
0
CIRCLE
8
NPTH_2.5mm_Vector
10
5.0450787401574804
20
-3.0870078740157481
40
0.0196850393700787
0
CIRCLE
8
NPTH_2.5mm_Vector
10
4.7450787401574805
20
-3.0870078740157481
40
0.0196850393700787
0
CIRCLE
8
NPTH_2.5mm_Vector
10
4.64507874015748
20
-3.0870078740157481
40
0.0196850393700787
0
CIRCLE
8
NPTH_2.5mm_Vector
10
4.5450787401574804
20
-3.0870078740157481
40
0.0196850393700787
0
CIRCLE
8
NPTH_2.5mm_Vector
10
4.4450787401574798
20
-3.0870078740157481
40
0.0196850393700787
0
CIRCLE
8
NPTH_2.5mm_Vector
10
4.3450787401574802
20
-3.0870078740157481
40
0.0196850393700787
0
CIRCLE
8
NPTH_2.5mm_Vector
10
4.2450787401574805
20
-3.0870078740157481
40
0.0196850393700787
0
CIRCLE
8
NPTH_2.5mm_Vector
10
4.14507874015748
20
-3.0870078740157481
40
0.0196850393700787
0
CIRCLE
8
NPTH_2.5mm_Vector
10
4.0450787401574804
20
-3.0870078740157481
40
0.0196850393700787
0
CIRCLE
8
NPTH_2.5mm_Vector
10
3.8450787401574802
20
-3.0870078740157481
40
0.0196850393700787
0
CIRCLE
8
NPTH_2.5mm_Vector
10
3.7450787401574801
20
-3.0870078740157481
40
0.0196850393700787
0
CIRCLE
8
NPTH_2.5mm_Vector
10
5.2460629921259843
20
-3.2283464566929134
40
0.015748031496063
0
CIRCLE
8
NPTH_2.5mm_Vector
10
2.9330708661417324
20
-3.6417322834645667
40
0.015748031496063
0
CIRCLE
8
NPTH_2.5mm_Vector
10
2.9330708661417324
20
-3.4448818897637796
40
0.015748031496063
0
CIRCLE
8
NPTH_2.5mm_Vector
10
7.1358267716535435
20
-3.2874015748031495
40
0.0196850393700787
0
CIRCLE
8
NPTH_2.5mm_Vector
10
7.1358267716535435
20
-3.6023622047244093
40
0.0196850393700787
0
CIRCLE
8
NPTH_2.5mm_Vector
10
2.6377952755905509
20
-3.8287401574803148
40
0.015748031496063
0
CIRCLE
8
NPTH_2.5mm_Vector
10
2.7362204724409449
20
-3.8287401574803148
40
0.015748031496063
0
CIRCLE
8
NPTH_2.5mm_Vector
10
2.8346456692913384
20
-3.8287401574803148
40
0.015748031496063
0
CIRCLE
8
NPTH_2.5mm_Vector
10
5.8833661417322833
20
-2.1496062992125982
40
0.015748031496063
0
CIRCLE
8
NPTH_2.5mm_Vector
10
3.5334645669291338
20
-3.3169291338582676
40
0.015748031496063
0
CIRCLE
8
NPTH_2.5mm_Vector
10
5.9874015748031493
20
-2.3031496062992125
40
0.0196850393700787
0
CIRCLE
8
NPTH_2.5mm_Vector
10
5.8874015748031496
20
-2.3031496062992125
40
0.0196850393700787
0
CIRCLE
8
NPTH_2.5mm_Vector
10
5.7874015748031491
20
-2.3031496062992125
40
0.0196850393700787
0
CIRCLE
8
NPTH_2.5mm_Vector
10
2.9206299212598426
20
-4.2007874015748028
40
0.015748031496063
0
CIRCLE
8
NPTH_2.5mm_Vector
10
2.7092913385826769
20
-4.2007874015748028
40
0.015748031496063
0
CIRCLE
8
NPTH_2.5mm_Vector
10
2.6092913385826773
20
-4.5551181102362204
40
0.015748031496063
0
CIRCLE
8
NPTH_2.5mm_Vector
10
3.0206299212598426
20
-4.5551181102362204
40
0.015748031496063
0
CIRCLE
8
NPTH_2.5mm_Vector
10
2.6092913385826773
20
-4.2007874015748028
40
0.015748031496063
0
CIRCLE
8
NPTH_2.5mm_Vector
10
3.0206299212598426
20
-4.2007874015748028
40
0.015748031496063
0
CIRCLE
8
NPTH_2.5mm_Vector
10
7.3606299212598421
20
-3.8976377952755903
40
0.015748031496063
0
CIRCLE
8
NPTH_2.5mm_Vector
10
7.4606299212598426
20
-3.8976377952755903
40
0.015748031496063
0
CIRCLE
8
NPTH_2.5mm_Vector
10
7.5606299212598422
20
-3.8976377952755903
40
0.015748031496063
0
CIRCLE
8
NPTH_2.5mm_Vector
10
2.4212598425196852
20
-2.0669291338582676
40
0.0624999606299213
0
CIRCLE
8
NPTH_2.5mm_Vector
10
5.7401574803149602
20
-3.1421259842519684
40
0.0196850393700787
0
CIRCLE
8
NPTH_2.5mm_Vector
10
5.7401574803149602
20
-3.0421259842519683
40
0.0196850393700787
0
CIRCLE
8
NPTH_2.5mm_Vector
10
5.7401574803149602
20
-2.9421259842519683
40
0.0196850393700787
0
CIRCLE
8
NPTH_2.5mm_Vector
10
5.7401574803149602
20
-2.8421259842519686
40
0.0196850393700787
0
CIRCLE
8
NPTH_2.5mm_Vector
10
7.0505905511811022
20
-3.8976377952755903
40
0.015748031496063
0
CIRCLE
8
NPTH_2.5mm_Vector
10
7.1505905511811019
20
-3.8976377952755903
40
0.015748031496063
0
CIRCLE
8
NPTH_2.5mm_Vector
10
7.2505905511811024
20
-3.8976377952755903
40
0.015748031496063
0
CIRCLE
8
NPTH_2.5mm_Vector
10
6.5614173228346457
20
-4.6657480314960633
40
0.0492125590551181
0
CIRCLE
8
NPTH_2.5mm_Vector
10
6.5614173228346457
20
-4.1657480314960633
40
0.0492125590551181
0
CIRCLE
8
NPTH_2.5mm_Vector
10
5.7614173228346459
20
-4.6657480314960633
40
0.0492125590551181
0
CIRCLE
8
NPTH_2.5mm_Vector
10
5.7614173228346459
20
-4.1657480314960633
40
0.0492125590551181
0
CIRCLE
8
NPTH_2.5mm_Vector
10
6.3614173228346456
20
-4.6657480314960633
40
0.0196850393700787
0
CIRCLE
8
NPTH_2.5mm_Vector
10
6.2614173228346459
20
-4.6657480314960633
40
0.0196850393700787
0
CIRCLE
8
NPTH_2.5mm_Vector
10
6.1614173228346454
20
-4.6657480314960633
40
0.0196850393700787
0
CIRCLE
8
NPTH_2.5mm_Vector
10
6.0614173228346457
20
-4.6657480314960633
40
0.0196850393700787
0
CIRCLE
8
NPTH_2.5mm_Vector
10
5.9614173228346452
20
-4.6657480314960633
40
0.0196850393700787
0
CIRCLE
8
NPTH_2.5mm_Vector
10
7.5976716929133854
20
-4.6574803149606296
40
0.0624999606299213
0
CIRCLE
8
NPTH_2.5mm_Vector
10
5.728346456692913
20
-2.1496062992125982
40
0.015748031496063
0
CIRCLE
8
NPTH_2.5mm_Vector
10
6.5452755905511806
20
-2.8248031496062991
40
0.0196850393700787
0
CIRCLE
8
NPTH_2.5mm_Vector
10
6.5452755905511806
20
-3.1003937007874014
40
0.0196850393700787
0
CIRCLE
8
NPTH_2.5mm_Vector
10
2.4212598425196852
20
-4.6574803149606296
40
0.0624999606299213
0
CIRCLE
8
NPTH_2.5mm_Vector
10
3.1921259842519683
20
-3.4897637795275589
40
0.0639763385826772
0
CIRCLE
8
NPTH_2.5mm_Vector
10
3.1921259842519683
20
-4.6515748031496065
40
0.0639763385826772
0
CIRCLE
8
NPTH_2.5mm_Vector
10
5.5149606299212595
20
-3.4897637795275589
40
0.0639763385826772
0
CIRCLE
8
NPTH_2.5mm_Vector
10
5.5149606299212595
20
-4.6515748031496065
40
0.0639763385826772
0
CIRCLE
8
NPTH_2.5mm_Vector
10
4.3287401574803148
20
-3.454724409448819
40
0.0196850393700787
0
CIRCLE
8
NPTH_2.5mm_Vector
10
4.2287401574803152
20
-3.454724409448819
40
0.0196850393700787
0
CIRCLE
8
NPTH_2.5mm_Vector
10
4.1287401574803146
20
-3.454724409448819
40
0.0196850393700787
0
CIRCLE
8
NPTH_2.5mm_Vector
10
4.028740157480315
20
-3.454724409448819
40
0.0196850393700787
0
CIRCLE
8
NPTH_2.5mm_Vector
10
3.9287401574803149
20
-3.454724409448819
40
0.0196850393700787
0
CIRCLE
8
NPTH_2.5mm_Vector
10
3.8287401574803148
20
-3.454724409448819
40
0.0196850393700787
0
CIRCLE
8
NPTH_2.5mm_Vector
10
3.7287401574803147
20
-3.454724409448819
40
0.0196850393700787
0
CIRCLE
8
NPTH_2.5mm_Vector
10
3.6287401574803151
20
-3.454724409448819
40
0.0196850393700787
0
CIRCLE
8
NPTH_2.5mm_Vector
10
3.528740157480315
20
-3.454724409448819
40
0.0196850393700787
0
CIRCLE
8
NPTH_2.5mm_Vector
10
7.5196850393700787
20
-2.8248031496062991
40
0.0196850393700787
0
CIRCLE
8
NPTH_2.5mm_Vector
10
7.5196850393700787
20
-3.1003937007874014
40
0.0196850393700787
0
CIRCLE
8
NPTH_2.5mm_Vector
10
3.0314960629921259
20
-3.188976377952756
40
0.015748031496063
0
CIRCLE
8
NPTH_2.5mm_Vector
10
3.0314960629921259
20
-3.2677165354330708
40
0.015748031496063
0
CIRCLE
8
NPTH_2.5mm_Vector
10
6.5614173228346457
20
-3.4311023622047245
40
0.0492125590551181
0
CIRCLE
8
NPTH_2.5mm_Vector
10
5.7614173228346459
20
-3.4311023622047245
40
0.0492125590551181
0
CIRCLE
8
NPTH_2.5mm_Vector
10
6.5114173228346459
20
-3.9311023622047245
40
0.0196850393700787
0
CIRCLE
8
NPTH_2.5mm_Vector
10
6.4114173228346454
20
-3.9311023622047245
40
0.0196850393700787
0
CIRCLE
8
NPTH_2.5mm_Vector
10
6.3114173228346457
20
-3.9311023622047245
40
0.0196850393700787
0
CIRCLE
8
NPTH_2.5mm_Vector
10
6.2114173228346452
20
-3.9311023622047245
40
0.0196850393700787
0
CIRCLE
8
NPTH_2.5mm_Vector
10
6.1114173228346456
20
-3.9311023622047245
40
0.0196850393700787
0
CIRCLE
8
NPTH_2.5mm_Vector
10
6.0114173228346459
20
-3.9311023622047245
40
0.0196850393700787
0
CIRCLE
8
NPTH_2.5mm_Vector
10
5.9114173228346454
20
-3.9311023622047245
40
0.0196850393700787
0
CIRCLE
8
NPTH_2.5mm_Vector
10
5.8114173228346457
20
-3.9311023622047245
40
0.0196850393700787
0
CIRCLE
8
NPTH_2.5mm_Vector
10
6.0433070866141732
20
-2.1496062992125982
40
0.015748031496063
0
CIRCLE
8
NPTH_2.5mm_Vector
10
7.0324803149606296
20
-2.8248031496062991
40
0.0196850393700787
0
CIRCLE
8
NPTH_2.5mm_Vector
10
7.0324803149606296
20
-3.1003937007874014
40
0.0196850393700787
0
CIRCLE
8
NPTH_2.5mm_Vector
10
6.8307086614173222
20
-3.2874015748031495
40
0.0196850393700787
0
CIRCLE
8
NPTH_2.5mm_Vector
10
6.8307086614173222
20
-3.6023622047244093
40
0.0196850393700787
0
CIRCLE
8
NPTH_2.5mm_Vector
10
7.4114173228346454
20
-3.2874015748031495
40
0.0196850393700787
0
CIRCLE
8
NPTH_2.5mm_Vector
10
7.4114173228346454
20
-3.6023622047244093
40
0.0196850393700787
0
CIRCLE
8
NPTH_2.5mm_Vector
10
6.5846456692913389
20
-2.5885826771653542
40
0.015748031496063
0
CIRCLE
8
NPTH_2.5mm_Vector
10
6.1846456692913385
20
-2.5885826771653542
40
0.015748031496063
0
CIRCLE
8
NPTH_2.5mm_Vector
10
2.6318897637795273
20
-3.2874015748031495
40
0.015748031496063
0
CIRCLE
8
NPTH_2.5mm_Vector
10
2.6318897637795273
20
-3.2086614173228347
40
0.015748031496063
0
CIRCLE
8
NPTH_2.5mm_Vector
10
4.5208661417322835
20
-2.7263779527559056
40
0.015748031496063
0
CIRCLE
8
NPTH_2.5mm_Vector
10
4.1208661417322832
20
-2.7263779527559056
40
0.015748031496063
0
CIRCLE
8
NPTH_2.5mm_Vector
10
4.8425196850393704
20
-2.4901574803149606
40
0.015748031496063
0
CIRCLE
8
NPTH_2.5mm_Vector
10
4.44251968503937
20
-2.4901574803149606
40
0.015748031496063
0
CIRCLE
8
NPTH_2.5mm_Vector
10
6.5842519685039367
20
-2.4409448818897639
40
0.015748031496063
0
CIRCLE
8
NPTH_2.5mm_Vector
10
6.1842519685039372
20
-2.4409448818897639
40
0.015748031496063
0
CIRCLE
8
NPTH_2.5mm_Vector
10
5.0472440944881889
20
-2.0826771653543306
40
0.015748031496063
0
CIRCLE
8
NPTH_2.5mm_Vector
10
4.6472440944881885
20
-2.0826771653543306
40
0.015748031496063
0
CIRCLE
8
NPTH_2.5mm_Vector
10
6.5842519685039367
20
-2.2933070866141732
40
0.015748031496063
0
CIRCLE
8
NPTH_2.5mm_Vector
10
6.1842519685039372
20
-2.2933070866141732
40
0.015748031496063
  0
ENDSEC
  0
EOF
