0
SECTION
2
HEADER
9
$INSUNITS
70
4
0
ENDSEC
0
SECTION
2
TABLES
0
TABLE
2
LAYER
70
2
0
LAYER
2
HOLES_PTH_0p8MM
70
0
62
7
6
CONTINUOUS
0
LAYER
2
HOLES_PTH_1MM
70
0
62
7
6
CONTINUOUS
0
ENDTAB
0
ENDSEC
0
SECTION
2
ENTITIES
0
CIRCLE
8
HOLES_PTH_0p8MM
10
4.059
20
19.5
30
0
40
0.4
0
CIRCLE
8
HOLES_PTH_0p8MM
10
4.059
20
10.5
30
0
40
0.4
0
CIRCLE
8
HOLES_PTH_0p8MM
10
4.857
20
41.25
30
0
40
0.4
0
CIRCLE
8
HOLES_PTH_0p8MM
10
4.857
20
39.25
30
0
40
0.4
0
CIRCLE
8
HOLES_PTH_0p8MM
10
5.007
20
25.5
30
0
40
0.4
0
CIRCLE
8
HOLES_PTH_0p8MM
10
6.599
20
19.5
30
0
40
0.4
0
CIRCLE
8
HOLES_PTH_0p8MM
10
7.507
20
25.5
30
0
40
0.4
0
CIRCLE
8
HOLES_PTH_0p8MM
10
10.007
20
25.5
30
0
40
0.4
0
CIRCLE
8
HOLES_PTH_0p8MM
10
11.967
20
19.5
30
0
40
0.4
0
CIRCLE
8
HOLES_PTH_0p8MM
10
12.507
20
35.25
30
0
40
0.4
0
CIRCLE
8
HOLES_PTH_0p8MM
10
12.507
20
30.25
30
0
40
0.4
0
CIRCLE
8
HOLES_PTH_0p8MM
10
14.507
20
19.5
30
0
40
0.4
0
CIRCLE
8
HOLES_PTH_0p8MM
10
14.507
20
10.5
30
0
40
0.4
0
CIRCLE
8
HOLES_PTH_0p8MM
10
15.007
20
41.75
30
0
40
0.4
0
CIRCLE
8
HOLES_PTH_0p8MM
10
15.007
20
39.75
30
0
40
0.4
0
CIRCLE
8
HOLES_PTH_0p8MM
10
27.757
20
38.5
30
0
40
0.4
0
CIRCLE
8
HOLES_PTH_0p8MM
10
42.677
20
53.5
30
0
40
0.4
0
CIRCLE
8
HOLES_PTH_0p8MM
10
50.847
20
59.5
30
0
40
0.4
0
CIRCLE
8
HOLES_PTH_0p8MM
10
52.837
20
53.5
30
0
40
0.4
0
CIRCLE
8
HOLES_PTH_0p8MM
10
56.177
20
70.5
30
0
40
0.4
0
CIRCLE
8
HOLES_PTH_0p8MM
10
61.007
20
59.5
30
0
40
0.4
0
CIRCLE
8
HOLES_PTH_0p8MM
10
66.337
20
70.5
30
0
40
0.4
0
CIRCLE
8
HOLES_PTH_0p8MM
10
71.257
20
40.75
30
0
40
0.4
0
CIRCLE
8
HOLES_PTH_0p8MM
10
83.507
20
68.375
30
0
40
0.4
0
CIRCLE
8
HOLES_PTH_0p8MM
10
87.444
20
68.375
30
0
40
0.4
0
CIRCLE
8
HOLES_PTH_0p8MM
10
91.507
20
68.5
30
0
40
0.4
0
CIRCLE
8
HOLES_PTH_0p8MM
10
95.087
20
64.5
30
0
40
0.4
0
CIRCLE
8
HOLES_PTH_0p8MM
10
95.087
20
60.75
30
0
40
0.4
0
CIRCLE
8
HOLES_PTH_0p8MM
10
95.097
20
57
30
0
40
0.4
0
CIRCLE
8
HOLES_PTH_0p8MM
10
105.247
20
64.5
30
0
40
0.4
0
CIRCLE
8
HOLES_PTH_0p8MM
10
105.247
20
60.75
30
0
40
0.4
0
CIRCLE
8
HOLES_PTH_0p8MM
10
105.257
20
57
30
0
40
0.4
0
CIRCLE
8
HOLES_PTH_0p8MM
10
109.217
20
23.75
30
0
40
0.4
0
CIRCLE
8
HOLES_PTH_0p8MM
10
111.757
20
23.75
30
0
40
0.4
0
CIRCLE
8
HOLES_PTH_0p8MM
10
114.297
20
23.75
30
0
40
0.4
0
CIRCLE
8
HOLES_PTH_0p8MM
10
117.092
20
23.75
30
0
40
0.4
0
CIRCLE
8
HOLES_PTH_0p8MM
10
119.632
20
23.75
30
0
40
0.4
0
CIRCLE
8
HOLES_PTH_0p8MM
10
122.172
20
23.75
30
0
40
0.4
0
CIRCLE
8
HOLES_PTH_0p8MM
10
124.967
20
23.75
30
0
40
0.4
0
CIRCLE
8
HOLES_PTH_0p8MM
10
127.507
20
23.75
30
0
40
0.4
0
CIRCLE
8
HOLES_PTH_0p8MM
10
130.047
20
23.75
30
0
40
0.4
0
CIRCLE
8
HOLES_PTH_1MM
10
44.257
20
68
30
0
40
0.5
0
CIRCLE
8
HOLES_PTH_1MM
10
110.507
20
54.5
30
0
40
0.5
0
CIRCLE
8
HOLES_PTH_1MM
10
27.637
20
35
30
0
40
0.5
0
CIRCLE
8
HOLES_PTH_1MM
10
30.177
20
35
30
0
40
0.5
0
CIRCLE
8
HOLES_PTH_1MM
10
32.717
20
35
30
0
40
0.5
0
CIRCLE
8
HOLES_PTH_1MM
10
33.132
20
44.34
30
0
40
0.5
0
CIRCLE
8
HOLES_PTH_1MM
10
35.257
20
35
30
0
40
0.5
0
CIRCLE
8
HOLES_PTH_1MM
10
35.672
20
44.34
30
0
40
0.5
0
CIRCLE
8
HOLES_PTH_1MM
10
37.797
20
35
30
0
40
0.5
0
CIRCLE
8
HOLES_PTH_1MM
10
40.337
20
35
30
0
40
0.5
0
CIRCLE
8
HOLES_PTH_1MM
10
40.752
20
44.34
30
0
40
0.5
0
CIRCLE
8
HOLES_PTH_1MM
10
42.877
20
35
30
0
40
0.5
0
CIRCLE
8
HOLES_PTH_1MM
10
43.292
20
64.66
30
0
40
0.5
0
CIRCLE
8
HOLES_PTH_1MM
10
43.292
20
44.34
30
0
40
0.5
0
CIRCLE
8
HOLES_PTH_1MM
10
45.417
20
35
30
0
40
0.5
0
CIRCLE
8
HOLES_PTH_1MM
10
45.832
20
64.66
30
0
40
0.5
0
CIRCLE
8
HOLES_PTH_1MM
10
45.832
20
44.34
30
0
40
0.5
0
CIRCLE
8
HOLES_PTH_1MM
10
47.957
20
35
30
0
40
0.5
0
CIRCLE
8
HOLES_PTH_1MM
10
48.372
20
64.66
30
0
40
0.5
0
CIRCLE
8
HOLES_PTH_1MM
10
48.372
20
44.34
30
0
40
0.5
0
CIRCLE
8
HOLES_PTH_1MM
10
50.912
20
64.66
30
0
40
0.5
0
CIRCLE
8
HOLES_PTH_1MM
10
50.912
20
44.34
30
0
40
0.5
0
CIRCLE
8
HOLES_PTH_1MM
10
53.452
20
64.66
30
0
40
0.5
0
CIRCLE
8
HOLES_PTH_1MM
10
53.452
20
44.34
30
0
40
0.5
0
CIRCLE
8
HOLES_PTH_1MM
10
55.992
20
64.66
30
0
40
0.5
0
CIRCLE
8
HOLES_PTH_1MM
10
55.992
20
44.34
30
0
40
0.5
0
CIRCLE
8
HOLES_PTH_1MM
10
58.532
20
64.66
30
0
40
0.5
0
CIRCLE
8
HOLES_PTH_1MM
10
58.532
20
44.34
30
0
40
0.5
0
CIRCLE
8
HOLES_PTH_1MM
10
61.072
20
64.66
30
0
40
0.5
0
CIRCLE
8
HOLES_PTH_1MM
10
63.612
20
64.66
30
0
40
0.5
0
CIRCLE
8
HOLES_PTH_1MM
10
66.152
20
64.66
30
0
40
0.5
0
CIRCLE
8
HOLES_PTH_1MM
10
66.152
20
44.34
30
0
40
0.5
0
CIRCLE
8
HOLES_PTH_1MM
10
68.692
20
64.66
30
0
40
0.5
0
CIRCLE
8
HOLES_PTH_1MM
10
68.692
20
44.34
30
0
40
0.5
0
CIRCLE
8
HOLES_PTH_1MM
10
71.232
20
64.66
30
0
40
0.5
0
CIRCLE
8
HOLES_PTH_1MM
10
71.232
20
44.34
30
0
40
0.5
0
CIRCLE
8
HOLES_PTH_1MM
10
83.807
20
50.56
30
0
40
0.5
0
CIRCLE
8
HOLES_PTH_1MM
10
83.807
20
48.02
30
0
40
0.5
0
CIRCLE
8
HOLES_PTH_1MM
10
83.807
20
45.48
30
0
40
0.5
0
CIRCLE
8
HOLES_PTH_1MM
10
83.807
20
42.94
30
0
40
0.5
0
CIRCLE
8
HOLES_PTH_1MM
10
85.007
20
64.25
30
0
40
0.5
0
CIRCLE
8
HOLES_PTH_1MM
10
85.617
20
22.9
30
0
40
0.5
0
CIRCLE
8
HOLES_PTH_1MM
10
87.547
20
64.25
30
0
40
0.5
0
CIRCLE
8
HOLES_PTH_1MM
10
88.157
20
22.9
30
0
40
0.5
0
CIRCLE
8
HOLES_PTH_1MM
10
89.427
20
4.24
30
0
40
0.5
0
CIRCLE
8
HOLES_PTH_1MM
10
90.087
20
64.25
30
0
40
0.5
0
CIRCLE
8
HOLES_PTH_1MM
10
90.697
20
22.9
30
0
40
0.5
0
CIRCLE
8
HOLES_PTH_1MM
10
91.967
20
4.24
30
0
40
0.5
0
CIRCLE
8
HOLES_PTH_1MM
10
93.237
20
22.9
30
0
40
0.5
0
CIRCLE
8
HOLES_PTH_1MM
10
94.507
20
4.24
30
0
40
0.5
0
CIRCLE
8
HOLES_PTH_1MM
10
95.777
20
22.9
30
0
40
0.5
0
CIRCLE
8
HOLES_PTH_1MM
10
97.047
20
4.24
30
0
40
0.5
0
CIRCLE
8
HOLES_PTH_1MM
10
98.317
20
22.9
30
0
40
0.5
0
CIRCLE
8
HOLES_PTH_1MM
10
99.587
20
4.24
30
0
40
0.5
0
CIRCLE
8
HOLES_PTH_1MM
10
100.857
20
22.9
30
0
40
0.5
0
CIRCLE
8
HOLES_PTH_1MM
10
103.397
20
22.9
30
0
40
0.5
0
CIRCLE
8
HOLES_PTH_1MM
10
104.257
20
51
30
0
40
0.5
0
CIRCLE
8
HOLES_PTH_1MM
10
104.257
20
44
30
0
40
0.5
0
CIRCLE
8
HOLES_PTH_1MM
10
111.507
20
39.25
30
0
40
0.5
0
CIRCLE
8
HOLES_PTH_1MM
10
111.507
20
31.25
30
0
40
0.5
0
CIRCLE
8
HOLES_PTH_1MM
10
116.632
20
51
30
0
40
0.5
0
CIRCLE
8
HOLES_PTH_1MM
10
116.632
20
44
30
0
40
0.5
0
CIRCLE
8
HOLES_PTH_1MM
10
119.257
20
39.25
30
0
40
0.5
0
CIRCLE
8
HOLES_PTH_1MM
10
119.257
20
31.25
30
0
40
0.5
0
CIRCLE
8
HOLES_PTH_1MM
10
126.257
20
39.25
30
0
40
0.5
0
CIRCLE
8
HOLES_PTH_1MM
10
126.257
20
31.25
30
0
40
0.5
0
CIRCLE
8
HOLES_PTH_1MM
10
129.007
20
51
30
0
40
0.5
0
CIRCLE
8
HOLES_PTH_1MM
10
129.007
20
44
30
0
40
0.5
0
ENDSEC
0
EOF
