M48
; DRILL file KiCad 10.0.3 date 2026-06-25T18:23:37
; FORMAT={-:-/ absolute / metric / decimal}
; #@! TF.CreationDate,2026-06-25T18:23:37-04:00
; #@! TF.GenerationSoftware,Kicad,Pcbnew,10.0.3
; #@! TF.FileFunction,MixedPlating,1,2
FMAT,2
METRIC
; #@! TA.AperFunction,Plated,PTH,ComponentDrill
T1C0.800
; #@! TA.AperFunction,Plated,PTH,ViaDrill
T2C1.000
; #@! TA.AperFunction,Plated,PTH,ComponentDrill
T3C1.000
; #@! TA.AperFunction,NonPlated,NPTH,ComponentDrill
T4C2.500
; #@! TA.AperFunction,NonPlated,NPTH,ComponentDrill
T5C3.175
; #@! TA.AperFunction,NonPlated,NPTH,ComponentDrill
T6C3.200
; #@! TA.AperFunction,NonPlated,NPTH,ComponentDrill
T7C3.250
%
G90
G05
T1
X66.276Y-106.7
X66.276Y-115.7
X66.85Y-81.5
X66.85Y-83.5
X67.0Y-97.25
X68.816Y-106.7
X69.5Y-97.25
X72.0Y-97.25
X74.184Y-106.7
X74.5Y-87.5
X74.5Y-92.5
X76.724Y-106.7
X76.724Y-115.7
X77.0Y-81.0
X77.0Y-83.0
X89.75Y-84.25
X104.67Y-69.25
X112.84Y-63.25
X114.83Y-69.25
X118.04Y-52.9
X123.0Y-63.25
X128.2Y-52.9
X133.25Y-82.0
X145.5Y-54.6
X149.438Y-54.6
X153.5Y-54.6
X157.08Y-58.25
X157.08Y-62.0
X157.09Y-65.75
X167.24Y-58.25
X167.24Y-62.0
X167.25Y-65.75
X171.21Y-99.0
X173.75Y-99.0
X176.29Y-99.0
X179.085Y-99.0
X181.625Y-99.0
X184.165Y-99.0
X186.96Y-99.0
X189.5Y-99.0
X192.04Y-99.0
T2
X106.25Y-54.75
X172.5Y-68.25
T3
X89.63Y-87.75
X92.17Y-87.75
X94.71Y-87.75
X95.125Y-78.41
X97.25Y-87.75
X97.665Y-78.41
X99.79Y-87.75
X102.33Y-87.75
X102.745Y-78.41
X104.87Y-87.75
X105.285Y-58.09
X105.285Y-78.41
X107.41Y-87.75
X107.825Y-58.09
X107.825Y-78.41
X109.95Y-87.75
X110.365Y-58.09
X110.365Y-78.41
X112.905Y-58.09
X112.905Y-78.41
X115.445Y-58.09
X115.445Y-78.41
X117.985Y-58.09
X117.985Y-78.41
X120.525Y-58.09
X120.525Y-78.41
X123.065Y-58.09
X125.605Y-58.09
X128.145Y-58.09
X128.145Y-78.41
X130.685Y-58.09
X130.685Y-78.41
X133.225Y-58.09
X133.225Y-78.41
X145.8Y-72.19
X145.8Y-74.73
X145.8Y-77.27
X145.8Y-79.81
X147.0Y-58.5
X147.61Y-99.85
X149.54Y-58.5
X150.15Y-99.85
X151.42Y-118.51
X152.08Y-58.5
X152.69Y-99.85
X153.96Y-118.51
X155.23Y-99.85
X156.5Y-118.51
X157.77Y-99.85
X159.04Y-118.51
X160.31Y-99.85
X161.58Y-118.51
X162.85Y-99.85
X165.39Y-99.85
X166.25Y-71.75
X166.25Y-78.75
X173.5Y-83.5
X173.5Y-91.5
X178.625Y-71.75
X178.625Y-78.75
X181.25Y-83.5
X181.25Y-91.5
X188.25Y-83.5
X188.25Y-91.5
X191.0Y-71.75
X191.0Y-78.75
T4
X146.34Y-87.15
X146.34Y-105.81
X146.34Y-118.51
X166.66Y-87.15
X166.66Y-105.81
X166.66Y-118.51
T5
X83.695Y-59.36
X83.695Y-77.14
T6
X61.5Y-52.5
X61.5Y-118.3
X184.094Y-61.406
X184.094Y-109.394
T7
X81.08Y-88.64
X81.08Y-118.15
X140.08Y-88.64
X140.08Y-118.15
M30
