%TF.GenerationSoftware,KiCad,Pcbnew,10.0.3*%
%TF.CreationDate,2026-06-26T09:53:52-04:00*%
%TF.ProjectId,Buzzer PCB,42757a7a-6572-4205-9043-422e6b696361,rev?*%
%TF.SameCoordinates,PX3aa6a60PY70d1d60*%
%TF.FileFunction,Copper,L1,Top*%
%TF.FilePolarity,Positive*%
%FSLAX46Y46*%
G04 Gerber Fmt 4.6, Leading zero omitted, Abs format (unit mm)*
G04 Created by KiCad (PCBNEW 10.0.3) date 2026-06-26 09:53:52*
%MOMM*%
%LPD*%
G01*
G04 APERTURE LIST*
G04 Aperture macros list*
%AMRoundRect*
0 Rectangle with rounded corners*
0 $1 Rounding radius*
0 $2 $3 $4 $5 $6 $7 $8 $9 X,Y pos of 4 corners*
0 Add a 4 corners polygon primitive as box body*
4,1,4,$2,$3,$4,$5,$6,$7,$8,$9,$2,$3,0*
0 Add four circle primitives for the rounded corners*
1,1,$1+$1,$2,$3*
1,1,$1+$1,$4,$5*
1,1,$1+$1,$6,$7*
1,1,$1+$1,$8,$9*
0 Add four rect primitives between the rounded corners*
20,1,$1+$1,$2,$3,$4,$5,0*
20,1,$1+$1,$4,$5,$6,$7,0*
20,1,$1+$1,$6,$7,$8,$9,0*
20,1,$1+$1,$8,$9,$2,$3,0*%
G04 Aperture macros list end*
%TA.AperFunction,ComponentPad*%
%ADD10O,2.000000X4.000000*%
%TD*%
%TA.AperFunction,ComponentPad*%
%ADD11RoundRect,0.367648X-0.882352X-0.882352X0.882352X-0.882352X0.882352X0.882352X-0.882352X0.882352X0*%
%TD*%
%TA.AperFunction,ComponentPad*%
%ADD12R,2.000000X3.000000*%
%TD*%
%TA.AperFunction,ComponentPad*%
%ADD13O,2.000000X3.000000*%
%TD*%
%TA.AperFunction,ComponentPad*%
%ADD14O,2.000000X4.500000*%
%TD*%
%TA.AperFunction,ComponentPad*%
%ADD15O,2.000000X3.500000*%
%TD*%
%TA.AperFunction,ComponentPad*%
%ADD16O,3.000000X2.000000*%
%TD*%
%TA.AperFunction,ComponentPad*%
%ADD17C,3.000000*%
%TD*%
%TA.AperFunction,WasherPad*%
%ADD18C,1.300000*%
%TD*%
%TA.AperFunction,ComponentPad*%
%ADD19O,2.000000X2.600000*%
%TD*%
%TA.AperFunction,ComponentPad*%
%ADD20R,2.000000X4.000000*%
%TD*%
%TA.AperFunction,ComponentPad*%
%ADD21O,2.000000X3.250000*%
%TD*%
%TA.AperFunction,ComponentPad*%
%ADD22C,2.000000*%
%TD*%
%TA.AperFunction,ComponentPad*%
%ADD23O,3.000000X1.500000*%
%TD*%
%TA.AperFunction,ComponentPad*%
%ADD24O,4.000000X1.450000*%
%TD*%
%TA.AperFunction,Conductor*%
%ADD25C,1.000000*%
%TD*%
%TA.AperFunction,Conductor*%
%ADD26C,1.500000*%
%TD*%
%TA.AperFunction,Conductor*%
%ADD27C,0.500000*%
%TD*%
G04 APERTURE END LIST*
D10*
%TO.P,J7,5,SDA_5*%
%TO.N,/SDA*%
X100080000Y-210000D03*
%TO.P,J7,4,SCL_4*%
%TO.N,/SCL*%
X97540000Y-210000D03*
%TO.P,J7,3,GND_3*%
%TO.N,/GND*%
X95000000Y-210000D03*
%TO.P,J7,2,3V3_2*%
%TO.N,unconnected-(J7-3V3-Pad2)*%
X92460000Y-210000D03*
%TO.P,J7,1,VCC_1*%
%TO.N,/3V3*%
X89920000Y-210000D03*
%TD*%
D11*
%TO.P,,1*%
%TO.N,/3V3*%
X32300000Y36500000D03*
%TD*%
D12*
%TO.P,Q1,1,E_1*%
%TO.N,/GND*%
X109710000Y19300000D03*
D13*
%TO.P,Q1,2,B_2*%
%TO.N,/BUZZER_BASE*%
X112250000Y19300000D03*
%TO.P,Q1,3,C_3*%
%TO.N,/BUZZER_LOW*%
X114790000Y19300000D03*
%TD*%
D14*
%TO.P,J10,1,SDA/ESP21_1*%
%TO.N,/GPS_TX_THING_RX*%
X71725000Y58960000D03*
%TO.P,J10,2,SCL/ESP22_2*%
%TO.N,/GPS_RX_THING_TX*%
X69185000Y58960000D03*
%TO.P,J10,3,GPIO6/ESP14_3*%
%TO.N,unconnected-(J10-GPIO6{slash}ESP14-Pad3)*%
X66645000Y58960000D03*
%TO.P,J10,4,GPIO5/ESP32_4*%
%TO.N,/SCL*%
X64105000Y58960000D03*
D10*
%TO.P,J10,5,GPIO4/ESP15_5*%
%TO.N,unconnected-(J10-GPIO4{slash}ESP15-Pad5)*%
X61565000Y59210000D03*
%TO.P,J10,6,GPIO3/ESP33_6*%
%TO.N,/SDA*%
X59025000Y60210000D03*
%TO.P,J10,7,GPIO2/ESP27_7*%
%TO.N,/BUZZER3_GPIO2_ESP27*%
X56485000Y60210000D03*
%TO.P,J10,8,GPIO1/ESP12_8*%
%TO.N,unconnected-(J10-GPIO1{slash}ESP12-Pad8)*%
X53945000Y60210000D03*
%TO.P,J10,9,D13/ESP13_STAT_9*%
%TO.N,/D13_BUZZER_GPIO13*%
X51405000Y60210000D03*
%TO.P,J10,10,V_USB_10*%
%TO.N,unconnected-(J10-V_USB-Pad10)*%
X48865000Y60210000D03*
D15*
%TO.P,J10,11,EN_11*%
%TO.N,unconnected-(J10-EN-Pad11)*%
X46325000Y60210000D03*
D13*
%TO.P,J10,12,V_BATT_12*%
%TO.N,/SW_BAT*%
X43785000Y60210000D03*
%TO.P,J10,13,FREEBIE/ESP4_13*%
%TO.N,/OLED_CONFIRM*%
X71725000Y39890000D03*
%TO.P,J10,14,TX_ESP17_14*%
%TO.N,unconnected-(J10-TX_ESP17-Pad14)*%
X69185000Y39890000D03*
%TO.P,J10,15,RX_ESP16_15*%
%TO.N,unconnected-(J10-RX_ESP16-Pad15)*%
X66645000Y39890000D03*
%TO.P,J10,18,SCK_ESP18_18*%
%TO.N,unconnected-(J10-SCK_ESP18-Pad18)*%
X59025000Y39890000D03*
%TO.P,J10,19,A5/ESP35_19*%
%TO.N,/BTN_BACK_GPIO3*%
X56485000Y39890000D03*
%TO.P,J10,20,A4/ESP36_20*%
%TO.N,/BTN_NEXT_GPIO4*%
X53945000Y39890000D03*
%TO.P,J10,21,A3/ESP39_21*%
%TO.N,/BTN_DOWN_GPIO5*%
X51405000Y39890000D03*
%TO.P,J10,22,A2/ESP34_22*%
%TO.N,/BTN_UP_GPIO21*%
X48865000Y39890000D03*
%TO.P,J10,23,A1/ESP25_23*%
%TO.N,unconnected-(J10-A1{slash}ESP25-Pad23)*%
X46325000Y39890000D03*
%TO.P,J10,24,A0/ESP26_24*%
%TO.N,/BUZZER2_ESP26*%
X43785000Y39890000D03*
%TO.P,J10,25,GND_25*%
%TO.N,/GND*%
X41245000Y39890000D03*
%TO.P,J10,27,3V3_27*%
%TO.N,/3V3*%
X36165000Y39890000D03*
%TO.P,J10,28,RESET_28*%
%TO.N,unconnected-(J10-RESET-Pad28)*%
X33625000Y39890000D03*
%TD*%
D11*
%TO.P,,1*%
%TO.N,/OLED_CONFIRM*%
X71750000Y36300000D03*
%TD*%
D16*
%TO.P,C2,1*%
%TO.N,/GND*%
X13000000Y25800000D03*
%TO.P,C2,2*%
%TO.N,/3V3*%
X13000000Y30800000D03*
%TD*%
D17*
%TO.P,D2,1,K_1*%
%TO.N,/BOOST_5V*%
X119750000Y34800000D03*
D13*
%TO.P,D2,2,A_2*%
%TO.N,/BUZZER_LOW2*%
X119750000Y26800000D03*
%TD*%
D17*
%TO.P,,1,+_1*%
%TO.N,/BOOST_5V*%
X113000000Y49900000D03*
%TD*%
D18*
%TO.P,SW1,*%
%TO.N,*%
X14000000Y21050000D03*
D19*
%TO.P,SW1,1,ON_1*%
%TO.N,unconnected-(SW1-ON-Pad1)*%
X11000000Y21050000D03*
%TO.P,SW1,2,COM_2*%
%TO.N,/BAT_IN*%
X8000000Y21050000D03*
%TO.P,SW1,3,NC_3*%
%TO.N,/SW_BAT*%
X5000000Y21050000D03*
D18*
%TO.P,SW1,*%
%TO.N,*%
X2000000Y21050000D03*
%TD*%
D11*
%TO.P,,1*%
%TO.N,/GND*%
X87937500Y63700000D03*
%TD*%
%TO.P,,1*%
%TO.N,/OLED_CONFIRM*%
X28250000Y34050000D03*
%TD*%
D20*
%TO.P,U2,1,Vin_1*%
%TO.N,/SW_BAT*%
X90580000Y59800000D03*
D10*
%TO.P,U2,2,GND_2*%
%TO.N,/GND*%
X88040000Y59800000D03*
%TO.P,U2,3,Vout_3*%
%TO.N,/BOOST_5V*%
X85500000Y59800000D03*
%TD*%
D12*
%TO.P,U1,1,BAT+_1*%
%TO.N,/GND*%
X12684000Y11600000D03*
D21*
%TO.P,U1,2,BAT-_2*%
%TO.N,/BAT_IN*%
X7316000Y11600000D03*
%TO.P,U1,3*%
%TO.N,N/C*%
X4776000Y2600000D03*
%TO.P,U1,4*%
X15224000Y2600000D03*
%TO.P,U1,5*%
X4776000Y11600000D03*
%TO.P,U1,6*%
X15224000Y11600000D03*
%TD*%
D12*
%TO.P,Q3,1,E_1*%
%TO.N,/GND*%
X125460000Y19300000D03*
D13*
%TO.P,Q3,2,B_2*%
%TO.N,/BUZZER_BASE3*%
X128000000Y19300000D03*
%TO.P,Q3,3,C_3*%
%TO.N,/BUZZER_LOW3*%
X130540000Y19300000D03*
%TD*%
D22*
%TO.P,J5,1,RX_1*%
%TO.N,/OLD_GPS_RX_UNUSED*%
X84300000Y38490000D03*
%TO.P,J5,2,TX_2*%
%TO.N,/OLD_GPS_TX_UNUSED*%
X84300000Y41030000D03*
%TO.P,J5,3,VCC_3*%
%TO.N,/3V3*%
X84300000Y43570000D03*
%TO.P,J5,4,GND_4*%
%TO.N,/GND*%
X84300000Y46110000D03*
%TD*%
D12*
%TO.P,Q2,1,E_1*%
%TO.N,/GND*%
X117585000Y19300000D03*
D13*
%TO.P,Q2,2,B_2*%
%TO.N,/BUZZER_BASE2*%
X120125000Y19300000D03*
%TO.P,Q2,3,C_3*%
%TO.N,/BUZZER_LOW2*%
X122665000Y19300000D03*
%TD*%
D11*
%TO.P,REF\u002A\u002A,1*%
%TO.N,/BOOST_5V*%
X84000000Y63700000D03*
%TD*%
D17*
%TO.P,BZ1,1,+_1*%
%TO.N,/BOOST_5V*%
X104750000Y46550000D03*
%TO.P,BZ1,2,-_2*%
%TO.N,/BUZZER_LOW*%
X104750000Y39550000D03*
%TD*%
D15*
%TO.P,J11,1,3v3_1*%
%TO.N,/3V3*%
X48450000Y30550000D03*
D13*
%TO.P,J11,2,GND_2*%
%TO.N,/GND*%
X45910000Y30550000D03*
%TO.P,J11,3,BACK_3*%
%TO.N,/BTN_BACK_GPIO3*%
X43370000Y30550000D03*
%TO.P,J11,4,ENC_B_4*%
%TO.N,/BTN_NEXT_GPIO4*%
X40830000Y30550000D03*
%TO.P,J11,5,ENC_A_5*%
%TO.N,/BTN_DOWN_GPIO5*%
X38290000Y30550000D03*
%TO.P,J11,6,ENC_PUSH_6*%
%TO.N,/BTN_UP_GPIO21*%
X35750000Y30550000D03*
%TO.P,J11,7,OLED_SCL_7*%
%TO.N,/SCL*%
X33210000Y30550000D03*
%TO.P,J11,8,OLED_SDA_8*%
%TO.N,/SDA*%
X30670000Y30550000D03*
%TO.P,J11,9,CONFIRM_9*%
%TO.N,/OLED_CONFIRM*%
X28130000Y30550000D03*
%TD*%
D17*
%TO.P,BZ3,1,+_1*%
%TO.N,/BOOST_5V*%
X129500000Y46550000D03*
%TO.P,BZ3,2,-_2*%
%TO.N,/BUZZER_LOW3*%
X129500000Y39550000D03*
%TD*%
D23*
%TO.P,C1,1*%
%TO.N,/GND*%
X14600000Y43000000D03*
%TO.P,C1,2*%
%TO.N,/SW_BAT*%
X14600000Y41000000D03*
%TD*%
D10*
%TO.P,J6,1,VCC_1*%
%TO.N,/3V3*%
X86110000Y18450000D03*
%TO.P,J6,2,3V3_2*%
%TO.N,unconnected-(J6-3V3-Pad2)*%
X88650000Y18450000D03*
%TO.P,J6,3,GND_3*%
%TO.N,/GND*%
X91190000Y18450000D03*
%TO.P,J6,4,SCK/SCL_4*%
%TO.N,/SCL*%
X93730000Y18450000D03*
%TO.P,J6,5,SDO/ADR_5*%
%TO.N,unconnected-(J6-SDO{slash}ADR-Pad5)*%
X96270000Y18450000D03*
%TO.P,J6,6,SDI/SDA_6*%
%TO.N,/SDA*%
X98810000Y18450000D03*
%TO.P,J6,7,CS_7*%
%TO.N,unconnected-(J6-CS-Pad7)*%
X101350000Y18450000D03*
%TO.P,J6,8,INT_8*%
%TO.N,unconnected-(J6-INT-Pad8)*%
X103890000Y18450000D03*
%TD*%
D11*
%TO.P,,1*%
%TO.N,/SW_BAT*%
X92000000Y63700000D03*
%TD*%
D17*
%TO.P,BZ2,1,+_1*%
%TO.N,/BOOST_5V*%
X117125000Y46550000D03*
%TO.P,BZ2,2,-_2*%
%TO.N,/BUZZER_LOW2*%
X117125000Y39550000D03*
%TD*%
%TO.P,D1,1,K_1*%
%TO.N,/BOOST_5V*%
X112000000Y34800000D03*
D13*
%TO.P,D1,2,A_2*%
%TO.N,/BUZZER_LOW*%
X112000000Y26800000D03*
%TD*%
D17*
%TO.P,D3,1,K_1*%
%TO.N,/BOOST_5V*%
X126750000Y34800000D03*
D13*
%TO.P,D3,2,A_2*%
%TO.N,/BUZZER_LOW3*%
X126750000Y26800000D03*
%TD*%
D16*
%TO.P,R1-3,1*%
%TO.N,/GND*%
X105750000Y52550000D03*
%TO.P,R1-3,2*%
%TO.N,/BUZZER_BASE3*%
X95590000Y52550000D03*
%TD*%
D24*
%TO.P,J1,1,+_1*%
%TO.N,/GND*%
X150000Y34600000D03*
%TO.P,J1,2,-_2*%
%TO.N,/BAT_IN*%
X150000Y36600000D03*
%TD*%
D22*
%TO.P,R2,1*%
%TO.N,/BUZZER_BASE2*%
X53330000Y49050000D03*
%TO.P,R2,2*%
%TO.N,/BUZZER2_ESP26*%
X43170000Y49050000D03*
%TD*%
%TO.P,R1,1*%
%TO.N,/BUZZER_BASE*%
X61500000Y53900000D03*
%TO.P,R1,2*%
%TO.N,/D13_BUZZER_GPIO13*%
X51340000Y53900000D03*
%TD*%
D16*
%TO.P,R1-2,1*%
%TO.N,/GND*%
X105740000Y56300000D03*
%TO.P,R1-2,2*%
%TO.N,/BUZZER_BASE2*%
X95580000Y56300000D03*
%TD*%
%TO.P,R3,1*%
%TO.N,/BUZZER_BASE3*%
X66700000Y65400000D03*
%TO.P,R3,2*%
%TO.N,/BUZZER3_GPIO2_ESP27*%
X56540000Y65400000D03*
%TD*%
%TO.P,R1-1,1*%
%TO.N,/GND*%
X105740000Y60050000D03*
%TO.P,R1-1,2*%
%TO.N,/BUZZER_BASE*%
X95580000Y60050000D03*
%TD*%
%TO.N,/GND*%
D25*
X-2850000Y34600000D02*
X150000Y34600000D01*
X-2850000Y38750000D02*
X-2850000Y34600000D01*
X1400000Y43000000D02*
X-2850000Y38750000D01*
X14600000Y43000000D02*
X1400000Y43000000D01*
%TO.N,/BAT_IN*%
X350000Y25650000D02*
X350000Y16700000D01*
X3150000Y28450000D02*
X350000Y25650000D01*
X3150000Y35314518D02*
X3150000Y28450000D01*
X1864518Y36600000D02*
X3150000Y35314518D01*
X150000Y36600000D02*
X1864518Y36600000D01*
X350000Y16700000D02*
X7600000Y16700000D01*
X7600000Y16700000D02*
X7600000Y11884000D01*
%TO.N,/GND*%
X12684000Y9984000D02*
X12684000Y11600000D01*
X-1300000Y7800000D02*
X10500000Y7800000D01*
X10500000Y7800000D02*
X12684000Y9984000D01*
X-1300000Y33150000D02*
X-1300000Y7800000D01*
X150000Y34600000D02*
X-1300000Y33150000D01*
X26400000Y38000000D02*
X34510000Y46110000D01*
X15800000Y38000000D02*
X26400000Y38000000D01*
X34510000Y46110000D02*
X77500000Y46110000D01*
X10200000Y32400000D02*
X15800000Y38000000D01*
X10200000Y28600000D02*
X10200000Y32400000D01*
X13000000Y25800000D02*
X10200000Y28600000D01*
%TO.N,/SW_BAT*%
X5000000Y22550000D02*
X7000000Y24550000D01*
X14600000Y40600000D02*
X14600000Y41000000D01*
X5000000Y21050000D02*
X5000000Y22550000D01*
X7000000Y24550000D02*
X7000000Y33000000D01*
X7000000Y33000000D02*
X14600000Y40600000D01*
%TO.N,/GND*%
X82300000Y49500000D02*
X81595000Y50205000D01*
X102700000Y49500000D02*
X82300000Y49500000D01*
X105750000Y52550000D02*
X102700000Y49500000D01*
X81595000Y50205000D02*
X77500000Y46110000D01*
%TO.N,/BAT_IN*%
X7600000Y11884000D02*
X7316000Y11600000D01*
X7600000Y20650000D02*
X7600000Y16700000D01*
X8000000Y21050000D02*
X7600000Y20650000D01*
%TO.N,/SW_BAT*%
X16800000Y41000000D02*
X14600000Y41000000D01*
X21100000Y45300000D02*
X16800000Y41000000D01*
X26500000Y45300000D02*
X21100000Y45300000D01*
X43700000Y62500000D02*
X26500000Y45300000D01*
%TO.N,/GND*%
X91190000Y29910000D02*
X91190000Y25390000D01*
X87100000Y34000000D02*
X91190000Y29910000D01*
%TO.N,/3V3*%
X86110000Y18450000D02*
X50582232Y18450000D01*
%TO.N,/GND*%
X91190000Y25390000D02*
X99110000Y25390000D01*
X91190000Y25390000D02*
X91190000Y18450000D01*
X102210000Y22290000D02*
X99110000Y25390000D01*
X106720000Y22290000D02*
X102210000Y22290000D01*
X109710000Y19300000D02*
X106720000Y22290000D01*
X15650000Y16550000D02*
X12684000Y13584000D01*
X15650000Y23150000D02*
X15650000Y16550000D01*
X13000000Y25800000D02*
X15650000Y23150000D01*
X12684000Y13584000D02*
X12684000Y11600000D01*
X133000000Y25300000D02*
X133000000Y48050000D01*
X41245000Y34519466D02*
X41245000Y39890000D01*
X133000000Y48050000D02*
X128500000Y52550000D01*
X45900000Y34050000D02*
X45910000Y34040000D01*
X109710000Y15500000D02*
X117600000Y15500000D01*
X45900000Y34050000D02*
X41714466Y34050000D01*
D26*
X105740000Y60050000D02*
X105740000Y52560000D01*
D25*
X45910000Y34040000D02*
X45910000Y30550000D01*
D27*
X105740000Y60050000D02*
X105740000Y56300000D01*
D25*
X117585000Y19300000D02*
X117585000Y15515000D01*
X125500000Y23800000D02*
X131500000Y23800000D01*
D27*
X117585000Y15515000D02*
X117600000Y15500000D01*
D25*
X77500000Y46110000D02*
X77500000Y34000000D01*
X125460000Y19300000D02*
X125460000Y23760000D01*
D27*
X88040000Y59040000D02*
X88040000Y59800000D01*
D25*
X87100000Y34000000D02*
X77500000Y34000000D01*
X125460000Y15500000D02*
X125460000Y19300000D01*
X77500000Y34000000D02*
X77450000Y34050000D01*
X109710000Y19300000D02*
X109710000Y15500000D01*
D26*
X105740000Y52560000D02*
X105750000Y52550000D01*
D25*
X125460000Y23760000D02*
X125500000Y23800000D01*
X87937500Y63925000D02*
X87937500Y59902500D01*
X88040000Y56650000D02*
X81595000Y50205000D01*
X131500000Y23800000D02*
X133000000Y25300000D01*
X41714466Y34050000D02*
X41245000Y34519466D01*
X77450000Y34050000D02*
X45900000Y34050000D01*
X128500000Y52550000D02*
X105750000Y52550000D01*
X88040000Y59800000D02*
X88040000Y56650000D01*
X117600000Y15500000D02*
X125460000Y15500000D01*
D27*
X105740000Y56300000D02*
X105740000Y52560000D01*
D25*
X87937500Y59902500D02*
X88040000Y59800000D01*
%TO.N,/BUZZER3_GPIO2_ESP27*%
D27*
X56670000Y60395000D02*
X56485000Y60210000D01*
X56540000Y65400000D02*
X56670000Y65270000D01*
D26*
X56600000Y65200000D02*
X56600000Y60465000D01*
X56600000Y60465000D02*
X56670000Y60395000D01*
X56670000Y65270000D02*
X56600000Y65200000D01*
%TO.N,/D13_BUZZER_GPIO13*%
D27*
X51340000Y60145000D02*
X51405000Y60210000D01*
X51340000Y53900000D02*
X51340000Y60145000D01*
%TO.N,/SW_BAT*%
D25*
X48800000Y67600000D02*
X92000000Y67600000D01*
X92000000Y61220000D02*
X90580000Y59800000D01*
X44750000Y63550000D02*
X43700000Y62500000D01*
X43700000Y62500000D02*
X43700000Y60295000D01*
X44750000Y63550000D02*
X48800000Y67600000D01*
X43700000Y60295000D02*
X43785000Y60210000D01*
X92000000Y67600000D02*
X92000000Y61220000D01*
%TO.N,/OLED_CONFIRM*%
X71725000Y43300000D02*
X71725000Y39890000D01*
X35500000Y34050000D02*
X38250000Y36800000D01*
D27*
X71725000Y36325000D02*
X71750000Y36300000D01*
D25*
X38250000Y36800000D02*
X38250000Y42050000D01*
X39500000Y43300000D02*
X71725000Y43300000D01*
X71725000Y39890000D02*
X71725000Y36325000D01*
X38250000Y42050000D02*
X39500000Y43300000D01*
X28250000Y34050000D02*
X35500000Y34050000D01*
%TO.N,/BTN_DOWN_GPIO5*%
D27*
X51405000Y39890000D02*
X51510000Y39890000D01*
X51510000Y39890000D02*
X51900000Y39500000D01*
%TO.N,/3V3*%
D25*
X48450000Y30550000D02*
X48450000Y20582232D01*
X24750000Y34800000D02*
X26450000Y36500000D01*
X13000000Y30800000D02*
X16000000Y27800000D01*
X13000000Y30800000D02*
X18000000Y25800000D01*
X18000000Y25800000D02*
X24750000Y25800000D01*
X24750000Y25800000D02*
X24750000Y34800000D01*
X36250000Y39805000D02*
X36165000Y39890000D01*
X35200000Y36500000D02*
X36165000Y37465000D01*
X48450000Y20582232D02*
X50582232Y18450000D01*
X26450000Y36500000D02*
X35200000Y36500000D01*
X36165000Y37465000D02*
X36165000Y39890000D01*
X24750000Y25800000D02*
X48450000Y25800000D01*
%TO.N,/BOOST_5V*%
D26*
X112000000Y46550000D02*
X129250000Y46550000D01*
X112000000Y34800000D02*
X112000000Y46550000D01*
D25*
X84000000Y63900000D02*
X84000000Y61300000D01*
D26*
X112000000Y46550000D02*
X113000000Y47550000D01*
X113000000Y47550000D02*
X113000000Y49900000D01*
X111000000Y46550000D02*
X112000000Y46550000D01*
X104750000Y46550000D02*
X111000000Y46550000D01*
X112000000Y34800000D02*
X126750000Y34800000D01*
X129250000Y46550000D02*
X129500000Y46800000D01*
D25*
X84000000Y61300000D02*
X85500000Y59800000D01*
%TO.N,/BAT_IN*%
X7316000Y11084000D02*
X7316000Y11600000D01*
%TO.N,/3V3*%
X86110000Y14990000D02*
X89920000Y11180000D01*
X86110000Y18450000D02*
X86110000Y14990000D01*
X89920000Y11180000D02*
X89920000Y-210000D01*
%TO.N,/GND*%
X91190000Y16081573D02*
X91190000Y18450000D01*
X95000000Y-210000D02*
X95000000Y12271573D01*
X95000000Y12271573D02*
X91190000Y16081573D01*
%TD*%
M02*
