M48
; DRILL file KiCad 10.0.3 date 2026-06-26T04:12:36
; FORMAT={-:-/ absolute / metric / decimal}
; #@! TF.CreationDate,2026-06-26T04:12:36-04:00
; #@! TF.GenerationSoftware,Kicad,Pcbnew,10.0.3
; #@! TF.FileFunction,Plated,1,2,PTH
FMAT,2
METRIC
; #@! TA.AperFunction,Plated,PTH,ComponentDrill
T1C0.800
; #@! TA.AperFunction,Plated,PTH,ComponentDrill
T2C1.000
%
G90
G05
T1
X4.776Y11.6
X4.776Y2.6
X5.35Y36.8
X5.35Y34.8
X5.5Y21.05
X7.316Y11.6
X8.0Y21.05
X10.5Y21.05
X12.684Y11.6
X13.0Y30.8
X13.0Y25.8
X15.224Y11.6
X15.224Y2.6
X15.5Y37.3
X15.5Y35.3
X28.25Y34.05
X43.17Y49.05
X51.34Y53.9
X53.33Y49.05
X56.54Y65.4
X61.5Y53.9
X66.7Y65.4
X71.75Y36.3
X84.0Y63.7
X87.938Y63.7
X92.0Y63.7
X95.58Y60.05
X95.58Y56.3
X95.59Y52.55
X98.3Y8.7
X105.74Y60.05
X105.74Y56.3
X105.75Y52.55
X109.71Y19.3
X111.54Y6.357
X112.25Y19.3
X114.79Y19.3
X117.585Y19.3
X120.125Y19.3
X122.665Y19.3
X125.46Y19.3
X128.0Y19.3
X130.54Y19.3
T2
X28.13Y30.55
X30.67Y30.55
X33.21Y30.55
X33.625Y39.89
X35.75Y30.55
X36.165Y39.89
X38.29Y30.55
X40.83Y30.55
X41.245Y39.89
X43.37Y30.55
X43.785Y60.21
X43.785Y39.89
X45.91Y30.55
X46.325Y60.21
X46.325Y39.89
X48.45Y30.55
X48.865Y60.21
X48.865Y39.89
X51.405Y60.21
X51.405Y39.89
X53.945Y60.21
X53.945Y39.89
X56.485Y60.21
X56.485Y39.89
X59.025Y60.21
X59.025Y39.89
X61.565Y60.21
X64.105Y60.21
X66.645Y60.21
X66.645Y39.89
X69.185Y60.21
X69.185Y39.89
X71.725Y60.21
X71.725Y39.89
X84.3Y46.11
X84.3Y43.57
X84.3Y41.03
X84.3Y38.49
X85.5Y59.8
X86.11Y18.45
X88.04Y59.8
X88.65Y18.45
X89.92Y-0.21
X90.58Y59.8
X91.19Y18.45
X92.46Y-0.21
X93.73Y18.45
X95.0Y-0.21
X96.27Y18.45
X97.54Y-0.21
X98.81Y18.45
X100.08Y-0.21
X101.35Y18.45
X103.89Y18.45
X104.75Y46.55
X104.75Y39.55
X112.0Y34.8
X112.0Y26.8
X113.0Y49.9
X117.125Y46.55
X117.125Y39.55
X119.75Y34.8
X119.75Y26.8
X126.75Y34.8
X126.75Y26.8
X129.5Y46.55
X129.5Y39.55
M30
