%TF.GenerationSoftware,KiCad,Pcbnew,10.0.3*%
%TF.CreationDate,2026-06-25T18:37:20-04:00*%
%TF.ProjectId,Buzzer PCB,42757a7a-6572-4205-9043-422e6b696361,rev?*%
%TF.SameCoordinates,PX3aa6a60PY70d1d60*%
%TF.FileFunction,Copper,L2,Bot*%
%TF.FilePolarity,Positive*%
%FSLAX46Y46*%
G04 Gerber Fmt 4.6, Leading zero omitted, Abs format (unit mm)*
G04 Created by KiCad (PCBNEW 10.0.3) date 2026-06-25 18:37:20*
%MOMM*%
%LPD*%
G01*
G04 APERTURE LIST*
G04 Aperture macros list*
%AMRoundRect*
0 Rectangle with rounded corners*
0 $1 Rounding radius*
0 $2 $3 $4 $5 $6 $7 $8 $9 X,Y pos of 4 corners*
0 Add a 4 corners polygon primitive as box body*
4,1,4,$2,$3,$4,$5,$6,$7,$8,$9,$2,$3,0*
0 Add four circle primitives for the rounded corners*
1,1,$1+$1,$2,$3*
1,1,$1+$1,$4,$5*
1,1,$1+$1,$6,$7*
1,1,$1+$1,$8,$9*
0 Add four rect primitives between the rounded corners*
20,1,$1+$1,$2,$3,$4,$5,0*
20,1,$1+$1,$4,$5,$6,$7,0*
20,1,$1+$1,$6,$7,$8,$9,0*
20,1,$1+$1,$8,$9,$2,$3,0*%
G04 Aperture macros list end*
%TA.AperFunction,ComponentPad*%
%ADD10R,2.000000X3.000000*%
%TD*%
%TA.AperFunction,ComponentPad*%
%ADD11O,2.000000X3.000000*%
%TD*%
%TA.AperFunction,ComponentPad*%
%ADD12C,2.000000*%
%TD*%
%TA.AperFunction,ComponentPad*%
%ADD13RoundRect,0.367648X-0.882352X-0.882352X0.882352X-0.882352X0.882352X0.882352X-0.882352X0.882352X0*%
%TD*%
%TA.AperFunction,ComponentPad*%
%ADD14O,3.000000X1.600000*%
%TD*%
%TA.AperFunction,ComponentPad*%
%ADD15C,3.000000*%
%TD*%
%TA.AperFunction,ComponentPad*%
%ADD16O,1.400000X2.500000*%
%TD*%
%TA.AperFunction,ComponentPad*%
%ADD17R,2.000000X2.500000*%
%TD*%
%TA.AperFunction,ComponentPad*%
%ADD18O,1.600000X3.000000*%
%TD*%
%TA.AperFunction,ComponentPad*%
%ADD19O,2.000000X4.000000*%
%TD*%
%TA.AperFunction,ComponentPad*%
%ADD20R,1.800000X1.800000*%
%TD*%
%TA.AperFunction,ComponentPad*%
%ADD21C,1.800000*%
%TD*%
%TA.AperFunction,ComponentPad*%
%ADD22O,2.000000X1.500000*%
%TD*%
%TA.AperFunction,ComponentPad*%
%ADD23O,3.000000X2.000000*%
%TD*%
%TA.AperFunction,ComponentPad*%
%ADD24O,4.000000X1.450000*%
%TD*%
%TA.AperFunction,ViaPad*%
%ADD25C,3.000000*%
%TD*%
%TA.AperFunction,Conductor*%
%ADD26C,1.500000*%
%TD*%
%TA.AperFunction,Conductor*%
%ADD27C,1.000000*%
%TD*%
%TA.AperFunction,Conductor*%
%ADD28C,0.500000*%
%TD*%
%TA.AperFunction,Conductor*%
%ADD29C,0.750000*%
%TD*%
G04 APERTURE END LIST*
D10*
%TO.P,Q1,1,E_1*%
%TO.N,/GND*%
X109710000Y19300000D03*
D11*
%TO.P,Q1,2,B_2*%
%TO.N,/BUZZER_BASE*%
X112250000Y19300000D03*
%TO.P,Q1,3,C_3*%
%TO.N,/BUZZER_LOW*%
X114790000Y19300000D03*
%TD*%
D12*
%TO.P,J10,1,SDA/ESP21_1*%
%TO.N,/GPS_TX_THING_RX*%
X71725000Y60210000D03*
%TO.P,J10,2,SCL/ESP22_2*%
%TO.N,/GPS_RX_THING_TX*%
X69185000Y60210000D03*
%TO.P,J10,3,GPIO6/ESP14_3*%
%TO.N,unconnected-(J10-GPIO6{slash}ESP14-Pad3)*%
X66645000Y60210000D03*
%TO.P,J10,4,GPIO5/ESP32_4*%
%TO.N,/SCL*%
X64105000Y60210000D03*
%TO.P,J10,5,GPIO4/ESP15_5*%
%TO.N,unconnected-(J10-GPIO4{slash}ESP15-Pad5)*%
X61565000Y60210000D03*
%TO.P,J10,6,GPIO3/ESP33_6*%
%TO.N,/SDA*%
X59025000Y60210000D03*
%TO.P,J10,7,GPIO2/ESP27_7*%
%TO.N,/BUZZER3_GPIO2_ESP27*%
X56485000Y60210000D03*
%TO.P,J10,8,GPIO1/ESP12_8*%
%TO.N,unconnected-(J10-GPIO1{slash}ESP12-Pad8)*%
X53945000Y60210000D03*
%TO.P,J10,9,D13/ESP13_STAT_9*%
%TO.N,/D13_BUZZER_GPIO13*%
X51405000Y60210000D03*
%TO.P,J10,10,V_USB_10*%
%TO.N,unconnected-(J10-V_USB-Pad10)*%
X48865000Y60210000D03*
%TO.P,J10,11,EN_11*%
%TO.N,unconnected-(J10-EN-Pad11)*%
X46325000Y60210000D03*
%TO.P,J10,12,V_BATT_12*%
%TO.N,/SW_BAT*%
X43785000Y60210000D03*
%TO.P,J10,13,FREEBIE/ESP4_13*%
%TO.N,/OLED_CONFIRM*%
X71725000Y39890000D03*
%TO.P,J10,14,TX_ESP17_14*%
%TO.N,unconnected-(J10-TX_ESP17-Pad14)*%
X69185000Y39890000D03*
%TO.P,J10,15,RX_ESP16_15*%
%TO.N,unconnected-(J10-RX_ESP16-Pad15)*%
X66645000Y39890000D03*
%TO.P,J10,18,SCK_ESP18_18*%
%TO.N,unconnected-(J10-SCK_ESP18-Pad18)*%
X59025000Y39890000D03*
%TO.P,J10,19,A5/ESP35_19*%
%TO.N,/BTN_BACK_GPIO3*%
X56485000Y39890000D03*
%TO.P,J10,20,A4/ESP36_20*%
%TO.N,/BTN_NEXT_GPIO4*%
X53945000Y39890000D03*
%TO.P,J10,21,A3/ESP39_21*%
%TO.N,/BTN_DOWN_GPIO5*%
X51405000Y39890000D03*
%TO.P,J10,22,A2/ESP34_22*%
%TO.N,/BTN_UP_GPIO21*%
X48865000Y39890000D03*
%TO.P,J10,23,A1/ESP25_23*%
%TO.N,unconnected-(J10-A1{slash}ESP25-Pad23)*%
X46325000Y39890000D03*
%TO.P,J10,24,A0/ESP26_24*%
%TO.N,/BUZZER2_ESP26*%
X43785000Y39890000D03*
%TO.P,J10,25,GND_25*%
%TO.N,/GND*%
X41245000Y39890000D03*
%TO.P,J10,27,3V3_27*%
%TO.N,/3V3*%
X36165000Y39890000D03*
%TO.P,J10,28,RESET_28*%
%TO.N,unconnected-(J10-RESET-Pad28)*%
X33625000Y39890000D03*
%TD*%
D13*
%TO.P,,1*%
%TO.N,/OLED_CONFIRM*%
X71750000Y36300000D03*
%TD*%
D14*
%TO.P,C2,1*%
%TO.N,/GND*%
X13000000Y25800000D03*
%TO.P,C2,2*%
%TO.N,/3V3*%
X13000000Y30800000D03*
%TD*%
D15*
%TO.P,D2,1,K_1*%
%TO.N,/BOOST_5V*%
X119750000Y34800000D03*
D11*
%TO.P,D2,2,A_2*%
%TO.N,/BUZZER_LOW2*%
X119750000Y26800000D03*
%TD*%
D16*
%TO.P,SW1,1,ON_1*%
%TO.N,unconnected-(SW1-ON-Pad1)*%
X5500000Y21050000D03*
%TO.P,SW1,2,COM_2*%
%TO.N,/BAT_IN*%
X8000000Y21050000D03*
%TO.P,SW1,3,NC_3*%
%TO.N,/SW_BAT*%
X10500000Y21050000D03*
%TD*%
D13*
%TO.P,,1*%
%TO.N,/GND*%
X87937500Y63700000D03*
%TD*%
%TO.P,,1*%
%TO.N,/OLED_CONFIRM*%
X28250000Y34050000D03*
%TD*%
D17*
%TO.P,U2,1,Vin_1*%
%TO.N,/SW_BAT*%
X90580000Y59800000D03*
D11*
%TO.P,U2,2,GND_2*%
%TO.N,/GND*%
X88040000Y59800000D03*
%TO.P,U2,3,Vout_3*%
%TO.N,/BOOST_5V*%
X85500000Y59800000D03*
%TD*%
D10*
%TO.P,U1,1,BAT+_1*%
%TO.N,/BAT_IN*%
X12684000Y11600000D03*
D11*
%TO.P,U1,2,BAT-_2*%
%TO.N,/GND*%
X7316000Y11600000D03*
D18*
%TO.P,U1,3*%
%TO.N,N/C*%
X4776000Y2600000D03*
%TO.P,U1,4*%
X15224000Y2600000D03*
D11*
%TO.P,U1,5*%
X4776000Y11600000D03*
%TO.P,U1,6*%
X15224000Y11600000D03*
%TD*%
D10*
%TO.P,Q3,1,E_1*%
%TO.N,/GND*%
X125460000Y19300000D03*
D11*
%TO.P,Q3,2,B_2*%
%TO.N,/BUZZER_BASE3*%
X128000000Y19300000D03*
%TO.P,Q3,3,C_3*%
%TO.N,/BUZZER_LOW3*%
X130540000Y19300000D03*
%TD*%
D12*
%TO.P,J5,1,RX_1*%
%TO.N,/OLD_GPS_RX_UNUSED*%
X84300000Y38490000D03*
%TO.P,J5,2,TX_2*%
%TO.N,/OLD_GPS_TX_UNUSED*%
X84300000Y41030000D03*
%TO.P,J5,3,VCC_3*%
%TO.N,/3V3*%
X84300000Y43570000D03*
%TO.P,J5,4,GND_4*%
%TO.N,/GND*%
X84300000Y46110000D03*
%TD*%
D10*
%TO.P,Q2,1,E_1*%
%TO.N,/GND*%
X117585000Y19300000D03*
D11*
%TO.P,Q2,2,B_2*%
%TO.N,/BUZZER_BASE2*%
X120125000Y19300000D03*
%TO.P,Q2,3,C_3*%
%TO.N,/BUZZER_LOW2*%
X122665000Y19300000D03*
%TD*%
D19*
%TO.P,J7,1,VCC_1*%
%TO.N,/3V3*%
X100080000Y-210000D03*
%TO.P,J7,2,3V3_2*%
%TO.N,unconnected-(J7-3V3-Pad2)*%
X97540000Y-210000D03*
%TO.P,J7,3,GND_3*%
%TO.N,/GND*%
X95000000Y-210000D03*
%TO.P,J7,4,SCL_4*%
%TO.N,/SCL*%
X92460000Y-210000D03*
%TO.P,J7,5,SDA_5*%
%TO.N,/SDA*%
X89920000Y-210000D03*
%TD*%
D13*
%TO.P,REF\u002A\u002A,1*%
%TO.N,/BOOST_5V*%
X84000000Y63700000D03*
%TD*%
D15*
%TO.P,BZ1,1,+_1*%
%TO.N,/BOOST_5V*%
X104750000Y46550000D03*
%TO.P,BZ1,2,-_2*%
%TO.N,/BUZZER_LOW*%
X104750000Y39550000D03*
%TD*%
D20*
%TO.P,J11,1,3v3_1*%
%TO.N,/3V3*%
X48450000Y30550000D03*
D21*
%TO.P,J11,2,GND_2*%
%TO.N,/GND*%
X45910000Y30550000D03*
%TO.P,J11,3,BACK_3*%
%TO.N,/BTN_BACK_GPIO3*%
X43370000Y30550000D03*
%TO.P,J11,4,ENC_B_4*%
%TO.N,/BTN_NEXT_GPIO4*%
X40830000Y30550000D03*
%TO.P,J11,5,ENC_A_5*%
%TO.N,/BTN_DOWN_GPIO5*%
X38290000Y30550000D03*
%TO.P,J11,6,ENC_PUSH_6*%
%TO.N,/BTN_UP_GPIO21*%
X35750000Y30550000D03*
%TO.P,J11,7,OLED_SCL_7*%
%TO.N,/SCL*%
X33210000Y30550000D03*
%TO.P,J11,8,OLED_SDA_8*%
%TO.N,/SDA*%
X30670000Y30550000D03*
%TO.P,J11,9,CONFIRM_9*%
%TO.N,/OLED_CONFIRM*%
X28130000Y30550000D03*
%TD*%
D15*
%TO.P,BZ3,1,+_1*%
%TO.N,/BOOST_5V*%
X129500000Y46550000D03*
%TO.P,BZ3,2,-_2*%
%TO.N,/BUZZER_LOW3*%
X129500000Y39550000D03*
%TD*%
D22*
%TO.P,C1,1*%
%TO.N,/GND*%
X15500000Y37300000D03*
%TO.P,C1,2*%
%TO.N,/SW_BAT*%
X15500000Y35300000D03*
%TD*%
D19*
%TO.P,J6,1,VCC_1*%
%TO.N,/3V3*%
X103890000Y18450000D03*
D21*
%TO.P,J6,2,3V3_2*%
%TO.N,unconnected-(J6-3V3-Pad2)*%
X101350000Y18450000D03*
D19*
%TO.P,J6,3,GND_3*%
%TO.N,/GND*%
X98810000Y18450000D03*
%TO.P,J6,4,SCK/SCL_4*%
%TO.N,/SCL*%
X96270000Y18450000D03*
%TO.P,J6,5,SDO/ADR_5*%
%TO.N,unconnected-(J6-SDO{slash}ADR-Pad5)*%
X93730000Y18450000D03*
%TO.P,J6,6,SDI/SDA_6*%
%TO.N,/SDA*%
X91190000Y18450000D03*
%TO.P,J6,7,CS_7*%
%TO.N,unconnected-(J6-CS-Pad7)*%
X88650000Y18450000D03*
%TO.P,J6,8,INT_8*%
%TO.N,unconnected-(J6-INT-Pad8)*%
X86110000Y18450000D03*
%TD*%
D13*
%TO.P,,1*%
%TO.N,/SW_BAT*%
X92000000Y63700000D03*
%TD*%
D15*
%TO.P,BZ2,1,+_1*%
%TO.N,/BOOST_5V*%
X117125000Y46550000D03*
%TO.P,BZ2,2,-_2*%
%TO.N,/BUZZER_LOW2*%
X117125000Y39550000D03*
%TD*%
%TO.P,D1,1,K_1*%
%TO.N,/BOOST_5V*%
X112000000Y34800000D03*
D11*
%TO.P,D1,2,A_2*%
%TO.N,/BUZZER_LOW*%
X112000000Y26800000D03*
%TD*%
D15*
%TO.P,D3,1,K_1*%
%TO.N,/BOOST_5V*%
X126750000Y34800000D03*
D11*
%TO.P,D3,2,A_2*%
%TO.N,/BUZZER_LOW3*%
X126750000Y26800000D03*
%TD*%
D23*
%TO.P,R1-3,1*%
%TO.N,/GND*%
X105750000Y52550000D03*
%TO.P,R1-3,2*%
%TO.N,/BUZZER_BASE3*%
X95590000Y52550000D03*
%TD*%
D24*
%TO.P,J1,1,+_1*%
%TO.N,/BAT_IN*%
X5350000Y34800000D03*
%TO.P,J1,2,-_2*%
%TO.N,/GND*%
X5350000Y36800000D03*
%TD*%
D12*
%TO.P,R2,1*%
%TO.N,/BUZZER_BASE2*%
X53330000Y49050000D03*
%TO.P,R2,2*%
%TO.N,/BUZZER2_ESP26*%
X43170000Y49050000D03*
%TD*%
%TO.P,R1,1*%
%TO.N,/BUZZER_BASE*%
X61500000Y55050000D03*
%TO.P,R1,2*%
%TO.N,/D13_BUZZER_GPIO13*%
X51340000Y55050000D03*
%TD*%
D23*
%TO.P,R1-2,1*%
%TO.N,/GND*%
X105740000Y56300000D03*
%TO.P,R1-2,2*%
%TO.N,/BUZZER_BASE2*%
X95580000Y56300000D03*
%TD*%
%TO.P,R3,1*%
%TO.N,/BUZZER_BASE3*%
X66700000Y65400000D03*
%TO.P,R3,2*%
%TO.N,/BUZZER3_GPIO2_ESP27*%
X56540000Y65400000D03*
%TD*%
%TO.P,R1-1,1*%
%TO.N,/GND*%
X105740000Y60050000D03*
%TO.P,R1-1,2*%
%TO.N,/BUZZER_BASE*%
X95580000Y60050000D03*
%TD*%
D25*
%TO.N,/SW_BAT*%
X44750000Y63550000D03*
%TO.N,/BOOST_5V*%
X111000000Y50050000D03*
%TD*%
%TO.N,/GND*%
D26*
X105750000Y58300000D02*
X105750000Y52550000D01*
D27*
X87937500Y59902500D02*
X88040000Y59800000D01*
D26*
X105740000Y60050000D02*
X105740000Y59310000D01*
D27*
X109710000Y19500000D02*
X109730000Y19520000D01*
X87937500Y63700000D02*
X87937500Y59902500D01*
D26*
X105740000Y59310000D02*
X105750000Y59300000D01*
X105750000Y59300000D02*
X105750000Y58300000D01*
%TO.N,/BUZZER_BASE*%
D28*
X61500000Y55050000D02*
X62750000Y56300000D01*
X110250000Y62800000D02*
X105350000Y67700000D01*
X96725787Y36674213D02*
X96725787Y49050000D01*
X62500000Y67700000D02*
X62500000Y63225000D01*
X95580000Y65700000D02*
X95580000Y60050000D01*
X106750000Y49050000D02*
X110250000Y52550000D01*
X112250000Y19300000D02*
X112250000Y21150000D01*
X91830000Y56300000D02*
X95580000Y60050000D01*
X62500000Y63225000D02*
X71675000Y63225000D01*
X96725787Y49050000D02*
X106750000Y49050000D01*
X74150000Y65700000D02*
X95580000Y65700000D01*
X110250000Y52550000D02*
X110250000Y62800000D01*
X112250000Y21150000D02*
X96725787Y36674213D01*
X71675000Y63225000D02*
X74150000Y65700000D01*
X74750000Y56300000D02*
X91830000Y56300000D01*
X105350000Y67700000D02*
X62500000Y67700000D01*
X62750000Y56300000D02*
X74750000Y56300000D01*
%TO.N,/BUZZER_LOW*%
X108000000Y33700000D02*
X104750000Y36950000D01*
X114790000Y24510000D02*
X108000000Y31300000D01*
X104750000Y36950000D02*
X104750000Y39550000D01*
X114790000Y19300000D02*
X114790000Y24510000D01*
X108000000Y31300000D02*
X108000000Y33700000D01*
%TO.N,/SCL*%
X33210000Y30550000D02*
X40960000Y22800000D01*
X96270000Y19384874D02*
X92854874Y22800000D01*
X44920000Y52800000D02*
X54750000Y52800000D01*
X92854874Y22800000D02*
X57109874Y22800000D01*
X63000000Y42050000D02*
X60250000Y44800000D01*
X96270000Y18450000D02*
X96270000Y19384874D01*
X92350000Y-150000D02*
X92350000Y13150000D01*
X50000000Y22800000D02*
X63000000Y35800000D01*
X63000000Y35800000D02*
X63000000Y42050000D01*
X63660000Y58460000D02*
X64105000Y58905000D01*
X48750000Y44800000D02*
X44920000Y48629999D01*
X92350000Y13150000D02*
X96270000Y17070000D01*
X50000000Y22800000D02*
X57109874Y22800000D01*
X54750000Y58460000D02*
X63660000Y58460000D01*
X40960000Y22800000D02*
X50000000Y22800000D01*
X60250000Y44800000D02*
X48750000Y44800000D01*
X54750000Y52800000D02*
X54750000Y58460000D01*
X64105000Y58905000D02*
X64105000Y60210000D01*
X44920000Y48629999D02*
X44920000Y52800000D01*
X96270000Y17070000D02*
X96270000Y18450000D01*
%TO.N,/SDA*%
X25000000Y26550000D02*
X25000000Y46981981D01*
X91190000Y20110000D02*
X91190000Y18450000D01*
X45818019Y67800000D02*
X59025000Y67800000D01*
X91190000Y16990000D02*
X91190000Y18450000D01*
X30670000Y30550000D02*
X30500000Y30380000D01*
X27250000Y24300000D02*
X25000000Y26550000D01*
X39420000Y21800000D02*
X89500000Y21800000D01*
X30670000Y30550000D02*
X39420000Y21800000D01*
X89250000Y15050000D02*
X91190000Y16990000D01*
X89250000Y410000D02*
X89250000Y15050000D01*
X89500000Y21800000D02*
X91190000Y20110000D01*
X30500000Y24300000D02*
X27250000Y24300000D01*
X59025000Y67800000D02*
X59025000Y60210000D01*
X30500000Y30380000D02*
X30500000Y24300000D01*
X25000000Y46981981D02*
X45818019Y67800000D01*
X89810000Y-150000D02*
X89250000Y410000D01*
%TO.N,/SW_BAT*%
D27*
X92000000Y61220000D02*
X90580000Y59800000D01*
X92000000Y64050000D02*
X92000000Y61220000D01*
%TO.N,/OLED_CONFIRM*%
D28*
X71750000Y39865000D02*
X71725000Y39890000D01*
X28250000Y30670000D02*
X28130000Y30550000D01*
D27*
X71750000Y36300000D02*
X71750000Y39865000D01*
X28250000Y34050000D02*
X28250000Y30670000D01*
%TO.N,/BTN_BACK_GPIO3*%
D28*
X45020000Y32200000D02*
X48795000Y32200000D01*
X48795000Y32200000D02*
X56485000Y39890000D01*
X43370000Y30550000D02*
X45020000Y32200000D01*
%TO.N,/BTN_NEXT_GPIO4*%
X44080000Y33800000D02*
X47855000Y33800000D01*
X40830000Y30550000D02*
X44080000Y33800000D01*
X47855000Y33800000D02*
X53945000Y39890000D01*
%TO.N,/BTN_DOWN_GPIO5*%
X38290000Y30550000D02*
X45040000Y23800000D01*
X61500000Y41050000D02*
X58750000Y43800000D01*
X55315000Y43800000D02*
X51405000Y39890000D01*
X45040000Y23800000D02*
X47250000Y23800000D01*
X58750000Y43800000D02*
X55315000Y43800000D01*
X61500000Y41050000D02*
X61500000Y38050000D01*
X61500000Y38050000D02*
X47250000Y23800000D01*
%TO.N,/BTN_UP_GPIO21*%
X45025000Y36050000D02*
X48865000Y39890000D01*
X35750000Y30550000D02*
X41250000Y36050000D01*
X41250000Y36050000D02*
X45025000Y36050000D01*
%TO.N,/BUZZER2_ESP26*%
X43785000Y48435000D02*
X43170000Y49050000D01*
X43250000Y49130000D02*
X43170000Y49050000D01*
X43785000Y39890000D02*
X43785000Y48435000D01*
X43750000Y39855000D02*
X43785000Y39890000D01*
%TO.N,/BOOST_5V*%
D29*
X61809010Y68600000D02*
X62034010Y68825000D01*
X73840990Y63800000D02*
X72140990Y62100000D01*
X62034010Y68825000D02*
X113000000Y68825000D01*
X113000000Y68825000D02*
X113000000Y52050000D01*
X85500000Y59800000D02*
X84000000Y61300000D01*
X113000000Y52050000D02*
X111000000Y50050000D01*
X61375000Y68165990D02*
X61804505Y68595495D01*
X62034010Y62100000D02*
X61375000Y62759010D01*
X61375000Y62759010D02*
X61375000Y68165990D01*
X84000000Y63800000D02*
X73840990Y63800000D01*
X84000000Y61300000D02*
X84000000Y63800000D01*
X72140990Y62100000D02*
X62034010Y62100000D01*
%TO.N,/BUZZER_LOW2*%
D28*
X122290000Y24510000D02*
X119750000Y27050000D01*
X122290000Y19300000D02*
X122290000Y24510000D01*
X117000000Y39800000D02*
X117000000Y29800000D01*
X117000000Y29800000D02*
X119750000Y27050000D01*
%TO.N,/BUZZER_BASE3*%
X109000000Y61300000D02*
X109000000Y52714214D01*
X91250000Y37050000D02*
X107000000Y21300000D01*
X66700000Y65400000D02*
X67350000Y66050000D01*
X109000000Y52714214D02*
X106335786Y50050000D01*
X70450000Y66050000D02*
X71100000Y66700000D01*
X98090000Y50050000D02*
X95590000Y52550000D01*
X107000000Y17673453D02*
X110373453Y14300000D01*
X103600000Y66700000D02*
X109000000Y61300000D01*
X71100000Y66700000D02*
X103600000Y66700000D01*
X67350000Y66050000D02*
X70450000Y66050000D01*
X91250000Y46550000D02*
X91250000Y37050000D01*
X107000000Y21300000D02*
X107000000Y17673453D01*
X95590000Y50890000D02*
X91250000Y46550000D01*
X128000000Y14300000D02*
X128000000Y19300000D01*
X106335786Y50050000D02*
X98090000Y50050000D01*
X110373453Y14300000D02*
X128000000Y14300000D01*
X95590000Y52550000D02*
X95590000Y50890000D01*
%TO.N,/BUZZER_LOW3*%
X130540000Y23010000D02*
X126750000Y26800000D01*
X130250000Y30300000D02*
X126750000Y26800000D01*
X129500000Y39800000D02*
X130250000Y39050000D01*
X130250000Y39050000D02*
X130250000Y30300000D01*
X130540000Y19300000D02*
X130540000Y23010000D01*
%TO.N,/BUZZER_BASE2*%
X106000000Y17259239D02*
X106000000Y20885786D01*
X86500000Y49050000D02*
X53330000Y49050000D01*
X86875000Y40010786D02*
X86875000Y49425000D01*
X132290000Y39941981D02*
X132290000Y17175786D01*
X93750000Y56300000D02*
X86875000Y49425000D01*
X132290000Y17175786D02*
X128414214Y13300000D01*
X86875000Y49425000D02*
X86500000Y49050000D01*
X106000000Y20885786D02*
X86875000Y40010786D01*
X120125000Y23450126D02*
X114875000Y28700126D01*
X114875000Y40481981D02*
X116193019Y41800000D01*
X95580000Y56300000D02*
X93750000Y56300000D01*
X130431981Y41800000D02*
X132290000Y39941981D01*
X114875000Y28700126D02*
X114875000Y40481981D01*
X109959239Y13300000D02*
X106000000Y17259239D01*
X120125000Y19300000D02*
X120125000Y23450126D01*
X116193019Y41800000D02*
X130431981Y41800000D01*
X128414214Y13300000D02*
X109959239Y13300000D01*
%TD*%
M02*
