M48
; DRILL file KiCad 10.0.3 date 2026-06-24T00:20:34
; FORMAT={-:-/ absolute / metric / decimal}
; #@! TF.CreationDate,2026-06-24T00:20:34-04:00
; #@! TF.GenerationSoftware,Kicad,Pcbnew,10.0.3
; #@! TF.FileFunction,Plated,1,2,PTH
FMAT,2
METRIC
; #@! TA.AperFunction,Plated,PTH,ComponentDrill
T1C0.800
; #@! TA.AperFunction,Plated,PTH,ComponentDrill
T2C0.900
; #@! TA.AperFunction,Plated,PTH,ComponentDrill
T3C1.000
%
G90
G05
T1
X15.7Y-9.5
X20.7Y-9.5
X21.5Y-4.2
X23.5Y-4.2
X25.0Y-9.5
X25.0Y-12.0
X25.0Y-14.5
X70.5Y-11.19
X70.5Y-18.81
X74.0Y-11.19
X74.0Y-18.81
X77.0Y-46.75
X78.0Y-12.46
X78.0Y-15.0
X78.0Y-17.54
X79.0Y-46.75
X85.0Y-8.25
X87.0Y-8.25
X92.0Y-26.46
X92.0Y-29.0
X92.0Y-31.54
X92.0Y-32.19
X92.0Y-39.81
X92.0Y-46.46
X92.0Y-49.0
X92.0Y-51.54
X92.0Y-52.19
X92.0Y-59.81
T2
X5.276Y-2.3
X5.276Y-11.3
X7.816Y-11.3
X13.184Y-11.3
X15.724Y-2.3
X15.724Y-11.3
T3
X30.63Y-16.71
X33.17Y-16.71
X35.71Y-16.71
X38.25Y-16.71
X40.79Y-16.71
X43.33Y-16.71
X44.125Y-23.16
X45.65Y-38.2
X45.87Y-16.71
X46.665Y-23.16
X48.19Y-38.2
X48.41Y-16.71
X49.205Y-23.16
X50.73Y-38.2
X50.95Y-16.71
X51.745Y-23.16
X52.11Y-28.65
X53.27Y-38.2
X54.285Y-2.84
X54.285Y-23.16
X54.65Y-28.65
X55.81Y-38.2
X56.825Y-2.84
X56.825Y-23.16
X57.19Y-28.65
X58.35Y-38.2
X59.365Y-2.84
X59.365Y-23.16
X59.73Y-28.65
X61.905Y-2.84
X61.905Y-23.16
X62.27Y-28.65
X64.445Y-2.84
X64.445Y-23.16
X64.81Y-28.65
X66.985Y-2.84
X66.985Y-23.16
X67.35Y-28.65
X68.0Y-15.0
X68.19Y-47.2
X69.525Y-2.84
X69.525Y-23.16
X69.89Y-28.65
X70.73Y-47.2
X72.0Y-8.0
X72.065Y-2.84
X72.065Y-23.16
X73.27Y-47.2
X74.605Y-2.84
X74.605Y-23.16
X74.65Y-31.92
X74.65Y-34.46
X74.65Y-37.0
X74.65Y-39.54
X74.65Y-42.08
X75.81Y-47.2
X77.145Y-2.84
X77.145Y-23.16
X79.685Y-2.84
X79.685Y-23.16
X80.0Y-8.0
X81.5Y-13.0
X82.225Y-2.84
X82.225Y-23.16
X88.0Y-22.0
X88.0Y-42.0
X88.5Y-13.0
X96.0Y-22.0
X96.0Y-42.0
X97.46Y-11.5
X100.0Y-11.5
X100.5Y-22.0
X100.5Y-42.0
X102.54Y-11.5
X107.5Y-22.0
X107.5Y-42.0
M30
