%TF.GenerationSoftware,KiCad,Pcbnew,10.0.3*%
%TF.CreationDate,2026-06-21T20:06:11-04:00*%
%TF.ProjectId,Buzzer PCB,42757a7a-6572-4205-9043-422e6b696361,rev?*%
%TF.SameCoordinates,PX5176fe3PY6d58075*%
%TF.FileFunction,Copper,L1,Top*%
%TF.FilePolarity,Positive*%
%FSLAX46Y46*%
G04 Gerber Fmt 4.6, Leading zero omitted, Abs format (unit mm)*
G04 Created by KiCad (PCBNEW 10.0.3) date 2026-06-21 20:06:11*
%MOMM*%
%LPD*%
G01*
G04 APERTURE LIST*
%TA.AperFunction,ComponentPad*%
%ADD10C,1.800000*%
%TD*%
%TA.AperFunction,ComponentPad*%
%ADD11O,1.600000X2.500000*%
%TD*%
%TA.AperFunction,ComponentPad*%
%ADD12C,2.000000*%
%TD*%
%TA.AperFunction,ComponentPad*%
%ADD13O,2.500000X1.400000*%
%TD*%
%TA.AperFunction,ComponentPad*%
%ADD14O,1.600000X2.250000*%
%TD*%
%TA.AperFunction,ComponentPad*%
%ADD15O,3.000000X2.000000*%
%TD*%
%TA.AperFunction,ComponentPad*%
%ADD16C,3.000000*%
%TD*%
%TA.AperFunction,ComponentPad*%
%ADD17O,1.500000X2.000000*%
%TD*%
%TA.AperFunction,ComponentPad*%
%ADD18O,1.450000X2.250000*%
%TD*%
%TA.AperFunction,ComponentPad*%
%ADD19O,3.000000X1.800000*%
%TD*%
%TA.AperFunction,ViaPad*%
%ADD20C,2.000000*%
%TD*%
%TA.AperFunction,Conductor*%
%ADD21C,1.500000*%
%TD*%
%TA.AperFunction,Conductor*%
%ADD22C,1.000000*%
%TD*%
G04 APERTURE END LIST*
D10*
%TO.P,J4,1,Feather D13*%
%TO.N,D13*%
X21564000Y-1318600D03*
%TD*%
D11*
%TO.P,R1,2*%
%TO.N,BUZZER_BASE*%
X21434000Y8151400D03*
D12*
%TO.P,R1,1*%
%TO.N,D13*%
X21434000Y531400D03*
%TD*%
D13*
%TO.P,SW1,2,COM*%
%TO.N,BAT_IN*%
X1534000Y10741400D03*
%TO.P,SW1,1,ON*%
%TO.N,SW_BAT*%
X1534000Y8241400D03*
%TD*%
D12*
%TO.P,R2,2*%
%TO.N,GND*%
X18934000Y531400D03*
D11*
%TO.P,R2,1*%
%TO.N,BUZZER_BASE*%
X18934000Y8151400D03*
%TD*%
D14*
%TO.P,C2,2,-*%
%TO.N,GND*%
X4234000Y4241400D03*
%TO.P,C2,1,+*%
%TO.N,SW_BAT*%
X-766000Y4241400D03*
%TD*%
D15*
%TO.P,D1,2,A*%
%TO.N,BUZZER_LOW*%
X20634000Y18241400D03*
D16*
%TO.P,D1,1,K*%
%TO.N,SW_BAT*%
X12634000Y18241400D03*
%TD*%
D12*
%TO.P,BZ1,2,-*%
%TO.N,BUZZER_LOW*%
X14934000Y10541400D03*
%TO.P,BZ1,1,+*%
%TO.N,SW_BAT*%
X7934000Y10541400D03*
%TD*%
D17*
%TO.P,C1,2,-*%
%TO.N,GND*%
X7034000Y17041400D03*
%TO.P,C1,1,+*%
%TO.N,SW_BAT*%
X5034000Y17041400D03*
%TD*%
D18*
%TO.P,J2,1,+*%
%TO.N,SW_BAT*%
X6734000Y3691400D03*
%TO.P,J2,2,-*%
%TO.N,GND*%
X8734000Y3691400D03*
%TD*%
%TO.P,J1,2,-*%
%TO.N,GND*%
X14934000Y3691400D03*
%TO.P,J1,1,+*%
%TO.N,BAT_IN*%
X12934000Y3691400D03*
%TD*%
D10*
%TO.P,Q1,3,E*%
%TO.N,GND*%
X19434000Y15631400D03*
D19*
%TO.P,Q1,2,C*%
%TO.N,BUZZER_LOW*%
X19434000Y13091400D03*
D10*
%TO.P,Q1,1,B*%
%TO.N,BUZZER_BASE*%
X19434000Y10551400D03*
%TD*%
D20*
%TO.N,D13*%
X21434000Y3141400D03*
%TD*%
%TO.N,SW_BAT*%
D21*
X7434000Y11041400D02*
X7934000Y10541400D01*
X7434000Y12741400D02*
X7434000Y11041400D01*
%TO.N,GND*%
X18934000Y3741400D02*
X16934000Y5741400D01*
X15834000Y6841400D02*
X12934000Y6841400D01*
X12934000Y6841400D02*
X10384000Y9391400D01*
X18934000Y531400D02*
X18934000Y3741400D01*
%TO.N,SW_BAT*%
X5034000Y15141400D02*
X7434000Y12741400D01*
X5034000Y17041400D02*
X5034000Y15141400D01*
%TO.N,BAT_IN*%
D22*
X4434000Y10741400D02*
X1534000Y10741400D01*
%TO.N,SW_BAT*%
X6734000Y3691400D02*
X6734000Y5241400D01*
X3734000Y8241400D02*
X1534000Y8241400D01*
%TO.N,GND*%
X6812630Y531400D02*
X11894000Y531400D01*
D21*
X16934000Y5741400D02*
X15834000Y6841400D01*
D22*
X8734000Y3691400D02*
X11894000Y531400D01*
%TO.N,SW_BAT*%
X6734000Y5241400D02*
X3734000Y8241400D01*
%TO.N,BAT_IN*%
X12934000Y3691400D02*
X12934000Y3841400D01*
X8534000Y8241400D02*
X6934000Y8241400D01*
%TO.N,GND*%
X4234000Y3110030D02*
X6812630Y531400D01*
X4234000Y4241400D02*
X4234000Y3110030D01*
%TO.N,BUZZER_LOW*%
X19434000Y13091400D02*
X17484000Y13091400D01*
%TO.N,GND*%
X14934000Y3691400D02*
X14934000Y3741400D01*
%TO.N,BAT_IN*%
X6934000Y8241400D02*
X4434000Y10741400D01*
%TO.N,GND*%
X11894000Y531400D02*
X18934000Y531400D01*
%TO.N,BUZZER_LOW*%
X17484000Y13091400D02*
X14934000Y10541400D01*
%TO.N,GND*%
D21*
X14934000Y3741400D02*
X16934000Y5741400D01*
%TO.N,BAT_IN*%
D22*
X12934000Y3841400D02*
X8534000Y8241400D01*
%TO.N,SW_BAT*%
D21*
X263284Y15278400D02*
X3271000Y15278400D01*
X-966000Y14049116D02*
X263284Y15278400D01*
%TO.N,BUZZER_BASE*%
X21434000Y8151400D02*
X18934000Y8151400D01*
X18934000Y8151400D02*
X18934000Y10051400D01*
%TO.N,BUZZER_LOW*%
D22*
X21334000Y13441400D02*
X20984000Y13091400D01*
%TO.N,GND*%
D21*
X12934000Y11941400D02*
X16624000Y15631400D01*
%TO.N,BUZZER_LOW*%
D22*
X21334000Y17541400D02*
X21334000Y13441400D01*
X20634000Y18241400D02*
X21334000Y17541400D01*
%TO.N,SW_BAT*%
D21*
X1534000Y8241400D02*
X-966000Y8241400D01*
%TO.N,GND*%
X7034000Y17041400D02*
X10384000Y13691400D01*
%TO.N,SW_BAT*%
X-766000Y4241400D02*
X-966000Y4441400D01*
X-966000Y8241400D02*
X-966000Y14049116D01*
X3271000Y15278400D02*
X5034000Y17041400D01*
%TO.N,GND*%
X16624000Y15631400D02*
X19434000Y15631400D01*
X10384000Y9391400D02*
X12934000Y11941400D01*
%TO.N,BUZZER_BASE*%
D22*
X18934000Y10051400D02*
X19434000Y10551400D01*
%TO.N,SW_BAT*%
D21*
X-966000Y4441400D02*
X-966000Y8241400D01*
%TO.N,BUZZER_LOW*%
D22*
X20984000Y13091400D02*
X19434000Y13091400D01*
%TO.N,GND*%
D21*
X10384000Y13691400D02*
X10384000Y9391400D01*
%TO.N,SW_BAT*%
D22*
X12634000Y18241400D02*
X11834000Y19041400D01*
X11834000Y19041400D02*
X6309126Y19041400D01*
%TO.N,D13*%
D21*
X21434000Y531400D02*
X21434000Y-1188600D01*
%TO.N,SW_BAT*%
D22*
X5034000Y17766274D02*
X5034000Y17041400D01*
%TO.N,D13*%
X21434000Y-1188600D02*
X21564000Y-1318600D01*
%TO.N,SW_BAT*%
X6309126Y19041400D02*
X5034000Y17766274D01*
%TD*%
M02*
