%TF.GenerationSoftware,KiCad,Pcbnew,10.0.3*%
%TF.CreationDate,2026-06-27T19:36:56-04:00*%
%TF.ProjectId,Buzzer PCB V3 (rerouted traces),42757a7a-6572-4205-9043-422056332028,rev?*%
%TF.SameCoordinates,PX3aa6a60PY70d1d60*%
%TF.FileFunction,Copper,L2,Bot*%
%TF.FilePolarity,Positive*%
%FSLAX46Y46*%
G04 Gerber Fmt 4.6, Leading zero omitted, Abs format (unit mm)*
G04 Created by KiCad (PCBNEW 10.0.3) date 2026-06-27 19:36:56*
%MOMM*%
%LPD*%
G01*
G04 APERTURE LIST*
G04 Aperture macros list*
%AMRoundRect*
0 Rectangle with rounded corners*
0 $1 Rounding radius*
0 $2 $3 $4 $5 $6 $7 $8 $9 X,Y pos of 4 corners*
0 Add a 4 corners polygon primitive as box body*
4,1,4,$2,$3,$4,$5,$6,$7,$8,$9,$2,$3,0*
0 Add four circle primitives for the rounded corners*
1,1,$1+$1,$2,$3*
1,1,$1+$1,$4,$5*
1,1,$1+$1,$6,$7*
1,1,$1+$1,$8,$9*
0 Add four rect primitives between the rounded corners*
20,1,$1+$1,$2,$3,$4,$5,0*
20,1,$1+$1,$4,$5,$6,$7,0*
20,1,$1+$1,$6,$7,$8,$9,0*
20,1,$1+$1,$8,$9,$2,$3,0*%
G04 Aperture macros list end*
%TA.AperFunction,ComponentPad*%
%ADD10RoundRect,0.367648X-0.882352X-0.882352X0.882352X-0.882352X0.882352X0.882352X-0.882352X0.882352X0*%
%TD*%
%TA.AperFunction,ComponentPad*%
%ADD11R,2.000000X3.000000*%
%TD*%
%TA.AperFunction,ComponentPad*%
%ADD12O,2.000000X3.000000*%
%TD*%
%TA.AperFunction,ComponentPad*%
%ADD13C,3.000000*%
%TD*%
%TA.AperFunction,ComponentPad*%
%ADD14O,2.000000X4.500000*%
%TD*%
%TA.AperFunction,ComponentPad*%
%ADD15O,2.000000X4.000000*%
%TD*%
%TA.AperFunction,ComponentPad*%
%ADD16O,2.000000X3.500000*%
%TD*%
%TA.AperFunction,ComponentPad*%
%ADD17O,3.000000X2.000000*%
%TD*%
%TA.AperFunction,WasherPad*%
%ADD18O,2.000000X3.000000*%
%TD*%
%TA.AperFunction,ComponentPad*%
%ADD19O,2.400000X4.000000*%
%TD*%
%TA.AperFunction,ComponentPad*%
%ADD20R,2.000000X4.000000*%
%TD*%
%TA.AperFunction,ComponentPad*%
%ADD21O,2.000000X3.250000*%
%TD*%
%TA.AperFunction,ComponentPad*%
%ADD22RoundRect,0.294118X-0.705882X-0.705882X0.705882X-0.705882X0.705882X0.705882X-0.705882X0.705882X0*%
%TD*%
%TA.AperFunction,ComponentPad*%
%ADD23C,2.000000*%
%TD*%
%TA.AperFunction,ComponentPad*%
%ADD24O,4.000000X1.450000*%
%TD*%
%TA.AperFunction,ComponentPad*%
%ADD25O,3.000000X1.500000*%
%TD*%
%TA.AperFunction,Conductor*%
%ADD26C,2.000000*%
%TD*%
%TA.AperFunction,Conductor*%
%ADD27C,1.000000*%
%TD*%
%TA.AperFunction,Conductor*%
%ADD28C,1.500000*%
%TD*%
%TA.AperFunction,Conductor*%
%ADD29C,0.500000*%
%TD*%
G04 APERTURE END LIST*
D10*
%TO.P,,1*%
%TO.N,/3V3*%
X32300000Y36500000D03*
%TD*%
D11*
%TO.P,Q1,1,E_1*%
%TO.N,/GND*%
X107750000Y27675000D03*
D12*
%TO.P,Q1,2,B_2*%
%TO.N,/BUZZER_BASE*%
X110290000Y27675000D03*
%TO.P,Q1,3,C_3*%
%TO.N,/BUZZER_LOW*%
X112830000Y27675000D03*
%TD*%
D13*
%TO.P,,1,+_1*%
%TO.N,/SW_BAT*%
X33750000Y60050000D03*
%TD*%
%TO.P,,1,+_1*%
%TO.N,/GND*%
X65500000Y27800000D03*
%TD*%
D14*
%TO.P,J10,1,SDA/ESP21_1*%
%TO.N,/GPS_TX_THING_RX*%
X71725000Y58960000D03*
%TO.P,J10,2,SCL/ESP22_2*%
%TO.N,/GPS_RX_THING_TX*%
X69185000Y58960000D03*
%TO.P,J10,3,GPIO6/ESP14_3*%
%TO.N,unconnected-(J10-GPIO6{slash}ESP14-Pad3)*%
X66645000Y58960000D03*
%TO.P,J10,4,GPIO5/ESP32_4*%
%TO.N,/SCL*%
X64105000Y58960000D03*
D15*
%TO.P,J10,5,GPIO4/ESP15_5*%
%TO.N,unconnected-(J10-GPIO4{slash}ESP15-Pad5)*%
X61565000Y59210000D03*
%TO.P,J10,6,GPIO3/ESP33_6*%
%TO.N,/SDA*%
X59025000Y60210000D03*
%TO.P,J10,7,GPIO2/ESP27_7*%
%TO.N,/BUZZER3_GPIO2_ESP27*%
X56485000Y60210000D03*
%TO.P,J10,8,GPIO1/ESP12_8*%
%TO.N,unconnected-(J10-GPIO1{slash}ESP12-Pad8)*%
X53945000Y60210000D03*
%TO.P,J10,9,D13/ESP13_STAT_9*%
%TO.N,/D13_BUZZER_GPIO13*%
X51405000Y60210000D03*
%TO.P,J10,10,V_USB_10*%
%TO.N,unconnected-(J10-V_USB-Pad10)*%
X48865000Y60210000D03*
D16*
%TO.P,J10,11,EN_11*%
%TO.N,unconnected-(J10-EN-Pad11)*%
X46325000Y60210000D03*
D12*
%TO.P,J10,12,V_BATT_12*%
%TO.N,/SW_BAT*%
X43785000Y60210000D03*
%TO.P,J10,13,FREEBIE/ESP4_13*%
%TO.N,/OLED_CONFIRM*%
X71725000Y39890000D03*
%TO.P,J10,14,TX_ESP17_14*%
%TO.N,unconnected-(J10-TX_ESP17-Pad14)*%
X69185000Y39890000D03*
%TO.P,J10,15,RX_ESP16_15*%
%TO.N,unconnected-(J10-RX_ESP16-Pad15)*%
X66645000Y39890000D03*
%TO.P,J10,18,SCK_ESP18_18*%
%TO.N,unconnected-(J10-SCK_ESP18-Pad18)*%
X59025000Y39890000D03*
%TO.P,J10,19,A5/ESP35_19*%
%TO.N,/BTN_BACK_GPIO3*%
X56485000Y39890000D03*
%TO.P,J10,20,A4/ESP36_20*%
%TO.N,/BTN_NEXT_GPIO4*%
X53945000Y39890000D03*
%TO.P,J10,21,A3/ESP39_21*%
%TO.N,/BTN_DOWN_GPIO5*%
X51405000Y39890000D03*
%TO.P,J10,22,A2/ESP34_22*%
%TO.N,/BTN_UP_GPIO21*%
X48865000Y39890000D03*
%TO.P,J10,23,A1/ESP25_23*%
%TO.N,/VBAT_SENSE_A1*%
X46325000Y39890000D03*
%TO.P,J10,24,A0/ESP26_24*%
%TO.N,/BUZZER2_ESP26*%
X43785000Y39890000D03*
%TO.P,J10,25,GND_25*%
%TO.N,/GND*%
X41245000Y39890000D03*
%TO.P,J10,27,3V3_27*%
%TO.N,/3V3*%
X36165000Y39890000D03*
%TO.P,J10,28,RESET_28*%
%TO.N,unconnected-(J10-RESET-Pad28)*%
X33625000Y39890000D03*
%TD*%
D10*
%TO.P,,1*%
%TO.N,/OLED_CONFIRM*%
X71750000Y36300000D03*
%TD*%
D17*
%TO.P,R1-3,1*%
%TO.N,/GND*%
X105750000Y52550000D03*
%TO.P,R1-3,2*%
%TO.N,/BUZZER_BASE3*%
X95590000Y52550000D03*
%TD*%
D13*
%TO.P,D2,1,K_1*%
%TO.N,/BOOST_5V*%
X123830000Y10362500D03*
D12*
%TO.P,D2,2,A_2*%
%TO.N,/BUZZER_LOW2*%
X123830000Y2362500D03*
%TD*%
D18*
%TO.P,SW1,*%
%TO.N,*%
X14000000Y21050000D03*
X2000000Y21050000D03*
D19*
%TO.P,SW1,1,ON_1*%
%TO.N,unconnected-(SW1-ON-Pad1)*%
X11000000Y21050000D03*
%TO.P,SW1,2,COM_2*%
%TO.N,/BAT_IN*%
X8000000Y21050000D03*
%TO.P,SW1,3,NC_3*%
%TO.N,/SW_BAT*%
X5000000Y21050000D03*
%TD*%
D10*
%TO.P,,1*%
%TO.N,/GND*%
X87937500Y63700000D03*
%TD*%
D13*
%TO.P,,1,+_1*%
%TO.N,/BAT_IN*%
X7500000Y15300000D03*
%TD*%
D10*
%TO.P,,1*%
%TO.N,/OLED_CONFIRM*%
X28250000Y34050000D03*
%TD*%
D20*
%TO.P,U2,1,Vin_1*%
%TO.N,/SW_BAT*%
X90580000Y59800000D03*
D15*
%TO.P,U2,2,GND_2*%
%TO.N,/GND*%
X88040000Y59800000D03*
%TO.P,U2,3,Vout_3*%
%TO.N,/BOOST_5V*%
X85500000Y59800000D03*
%TD*%
D13*
%TO.P,,*%
%TO.N,/VBAT_SENSE_A1*%
X46000000Y53050000D03*
%TD*%
D21*
%TO.P,U1,1,BAT+_1*%
%TO.N,/BAT_IN*%
X7316000Y11600000D03*
D11*
%TO.P,U1,2,BAT-_2*%
%TO.N,/GND*%
X12684000Y11600000D03*
D21*
%TO.P,U1,3*%
%TO.N,N/C*%
X4776000Y2600000D03*
%TO.P,U1,4*%
X15224000Y2600000D03*
%TO.P,U1,5*%
X4776000Y11600000D03*
%TO.P,U1,6*%
X15224000Y11600000D03*
%TD*%
D11*
%TO.P,Q3,1,E_1*%
%TO.N,/GND*%
X107750000Y13237500D03*
D12*
%TO.P,Q3,2,B_2*%
%TO.N,/BUZZER_BASE3*%
X110290000Y13237500D03*
%TO.P,Q3,3,C_3*%
%TO.N,/BUZZER_LOW3*%
X112830000Y13237500D03*
%TD*%
D13*
%TO.P,,1,K_1*%
%TO.N,/GND*%
X104250000Y-950000D03*
%TD*%
D17*
%TO.P,R2,1*%
%TO.N,/BUZZER_BASE2*%
X53330000Y48300000D03*
%TO.P,R2,2*%
%TO.N,/BUZZER2_ESP26*%
X43170000Y48300000D03*
%TD*%
D13*
%TO.P,,1,K_1*%
%TO.N,/GND*%
X104250000Y27800000D03*
%TD*%
D22*
%TO.P,,1*%
%TO.N,/GND*%
X45750000Y27300000D03*
%TD*%
D23*
%TO.P,J5,1,RX_1*%
%TO.N,/OLD_GPS_RX_UNUSED*%
X84300000Y38490000D03*
%TO.P,J5,2,TX_2*%
%TO.N,/OLD_GPS_TX_UNUSED*%
X84300000Y41030000D03*
%TO.P,J5,3,VCC_3*%
%TO.N,/3V3*%
X84300000Y43570000D03*
%TO.P,J5,4,GND_4*%
%TO.N,/GND*%
X84300000Y46110000D03*
%TD*%
D17*
%TO.P,R1,1*%
%TO.N,/BUZZER_BASE*%
X61580000Y52800000D03*
%TO.P,R1,2*%
%TO.N,/D13_BUZZER_GPIO13*%
X51420000Y52800000D03*
%TD*%
D13*
%TO.P,,1,+_1*%
%TO.N,/GND*%
X38250000Y46300000D03*
%TD*%
D11*
%TO.P,Q2,1,E_1*%
%TO.N,/GND*%
X107750000Y-1012500D03*
D12*
%TO.P,Q2,2,B_2*%
%TO.N,/BUZZER_BASE2*%
X110290000Y-1012500D03*
%TO.P,Q2,3,C_3*%
%TO.N,/BUZZER_LOW2*%
X112830000Y-1012500D03*
%TD*%
D17*
%TO.P,R1-2,1*%
%TO.N,/GND*%
X105740000Y56300000D03*
%TO.P,R1-2,2*%
%TO.N,/BUZZER_BASE2*%
X95580000Y56300000D03*
%TD*%
D13*
%TO.P,,1,+_1*%
%TO.N,/SW_BAT*%
X3000000Y29050000D03*
%TD*%
D17*
%TO.P,R3,1*%
%TO.N,/BUZZER_BASE3*%
X66700000Y64050000D03*
%TO.P,R3,2*%
%TO.N,/BUZZER3_GPIO2_ESP27*%
X56540000Y64050000D03*
%TD*%
%TO.P,R1-1,1*%
%TO.N,/GND*%
X105740000Y60050000D03*
%TO.P,R1-1,2*%
%TO.N,/BUZZER_BASE*%
X95580000Y60050000D03*
%TD*%
D10*
%TO.P,REF\u002A\u002A,1*%
%TO.N,/BOOST_5V*%
X84000000Y63700000D03*
%TD*%
D22*
%TO.P,,1*%
%TO.N,/3V3*%
X48500000Y27050000D03*
%TD*%
D13*
%TO.P,BZ1,1,+_1*%
%TO.N,/BOOST_5V*%
X116330000Y38175000D03*
%TO.P,BZ1,2,-_2*%
%TO.N,/BUZZER_LOW*%
X116330000Y31175000D03*
%TD*%
%TO.P,,*%
%TO.N,/BUZZER_BASE3*%
X71750000Y64300000D03*
%TD*%
%TO.P,,1,K_1*%
%TO.N,/GND*%
X104250000Y13300000D03*
%TD*%
D16*
%TO.P,J11,1,3v3_1*%
%TO.N,/3V3*%
X48450000Y30550000D03*
D12*
%TO.P,J11,2,GND_2*%
%TO.N,/GND*%
X45910000Y30550000D03*
%TO.P,J11,3,BACK_3*%
%TO.N,/BTN_BACK_GPIO3*%
X43370000Y30550000D03*
%TO.P,J11,4,ENC_B_4*%
%TO.N,/BTN_NEXT_GPIO4*%
X40830000Y30550000D03*
%TO.P,J11,5,ENC_A_5*%
%TO.N,/BTN_DOWN_GPIO5*%
X38290000Y30550000D03*
%TO.P,J11,6,ENC_PUSH_6*%
%TO.N,/BTN_UP_GPIO21*%
X35750000Y30550000D03*
%TO.P,J11,7,OLED_SCL_7*%
%TO.N,/SCL*%
X33210000Y30550000D03*
%TO.P,J11,8,OLED_SDA_8*%
%TO.N,/SDA*%
X30670000Y30550000D03*
%TO.P,J11,9,CONFIRM_9*%
%TO.N,/OLED_CONFIRM*%
X28130000Y30550000D03*
%TD*%
D13*
%TO.P,BZ3,1,+_1*%
%TO.N,/BOOST_5V*%
X116330000Y23987500D03*
%TO.P,BZ3,2,-_2*%
%TO.N,/BUZZER_LOW3*%
X116330000Y16987500D03*
%TD*%
%TO.P,,1,+_1*%
%TO.N,/GND*%
X14500000Y15550000D03*
%TD*%
D15*
%TO.P,J6,1,VCC_1*%
%TO.N,/3V3*%
X70550000Y21250000D03*
%TO.P,J6,2,3V3_2*%
%TO.N,unconnected-(J6-3V3-Pad2)*%
X68010000Y21250000D03*
%TO.P,J6,3,GND_3*%
%TO.N,/GND*%
X65470000Y21250000D03*
%TO.P,J6,4,SCK/SCL_4*%
%TO.N,/SCL*%
X62930000Y21250000D03*
%TO.P,J6,5,SDO/ADR_5*%
%TO.N,unconnected-(J6-SDO{slash}ADR-Pad5)*%
X60390000Y21250000D03*
%TO.P,J6,6,SDI/SDA_6*%
%TO.N,/SDA*%
X57850000Y21250000D03*
%TO.P,J6,7,CS_7*%
%TO.N,unconnected-(J6-CS-Pad7)*%
X55310000Y21250000D03*
%TO.P,J6,8,INT_8*%
%TO.N,unconnected-(J6-INT-Pad8)*%
X52770000Y21250000D03*
%TD*%
D10*
%TO.P,,1*%
%TO.N,/SW_BAT*%
X92000000Y63700000D03*
%TD*%
D13*
%TO.P,BZ2,1,+_1*%
%TO.N,/BOOST_5V*%
X116330000Y9612500D03*
%TO.P,BZ2,2,-_2*%
%TO.N,/BUZZER_LOW2*%
X116330000Y2612500D03*
%TD*%
%TO.P,D1,1,K_1*%
%TO.N,/BOOST_5V*%
X123830000Y38925000D03*
D12*
%TO.P,D1,2,A_2*%
%TO.N,/BUZZER_LOW*%
X123830000Y30925000D03*
%TD*%
D13*
%TO.P,D3,1,K_1*%
%TO.N,/BOOST_5V*%
X123830000Y24737500D03*
D12*
%TO.P,D3,2,A_2*%
%TO.N,/BUZZER_LOW3*%
X123830000Y16737500D03*
%TD*%
D13*
%TO.P,,1,+_1*%
%TO.N,/3V3*%
X70500000Y27800000D03*
%TD*%
D17*
%TO.P,C2,1*%
%TO.N,/GND*%
X13000000Y25800000D03*
%TO.P,C2,2*%
%TO.N,/3V3*%
X13000000Y30800000D03*
%TD*%
D24*
%TO.P,J1,1,+_1*%
%TO.N,/BAT_IN*%
X150000Y34600000D03*
%TO.P,J1,2,-_2*%
%TO.N,/GND*%
X150000Y36600000D03*
%TD*%
D17*
%TO.P,R4,1*%
%TO.N,/VBAT_SENSE_A1*%
X42500000Y56550000D03*
%TO.P,R4,2*%
%TO.N,/SW_BAT*%
X32340000Y56550000D03*
%TD*%
%TO.P,R5,1*%
%TO.N,/GND*%
X32000000Y50800000D03*
%TO.P,R5,2*%
%TO.N,/VBAT_SENSE_A1*%
X42160000Y50800000D03*
%TD*%
D25*
%TO.P,C1,1*%
%TO.N,/GND*%
X14600000Y43000000D03*
%TO.P,C1,2*%
%TO.N,/SW_BAT*%
X14600000Y41000000D03*
%TD*%
%TO.N,/3V3*%
D26*
X48450000Y30550000D02*
X48450000Y27100000D01*
D27*
X32300000Y36500000D02*
X35275000Y36500000D01*
X48450000Y27100000D02*
X48500000Y27050000D01*
D28*
X70500000Y21730000D02*
X70580000Y21650000D01*
D27*
X35275000Y36500000D02*
X36165000Y37390000D01*
X36165000Y37390000D02*
X36165000Y39890000D01*
D28*
X70500000Y27800000D02*
X70500000Y21730000D01*
%TO.N,/GND*%
D26*
X45910000Y30550000D02*
X45910000Y27460000D01*
D28*
X104250000Y13300000D02*
X107687500Y13300000D01*
X104250000Y27800000D02*
X107625000Y27800000D01*
D27*
X107687500Y13300000D02*
X107750000Y13237500D01*
X107625000Y27800000D02*
X107750000Y27675000D01*
D26*
X65500000Y27800000D02*
X65500000Y21650000D01*
D27*
X41245000Y43555000D02*
X38500000Y46300000D01*
X87937500Y59902500D02*
X88040000Y59800000D01*
D28*
X104250000Y-950000D02*
X107687500Y-950000D01*
D27*
X38500000Y46300000D02*
X38250000Y46300000D01*
X105740000Y60050000D02*
X105740000Y52560000D01*
X32000000Y50800000D02*
X34000000Y50800000D01*
X41245000Y39890000D02*
X41245000Y43555000D01*
X38250000Y46550000D02*
X38250000Y46300000D01*
X45910000Y27460000D02*
X45750000Y27300000D01*
X107687500Y-950000D02*
X107750000Y-1012500D01*
X34000000Y50800000D02*
X38250000Y46550000D01*
X16500000Y22300000D02*
X13000000Y25800000D01*
X14500000Y15550000D02*
X16500000Y17550000D01*
X87937500Y63700000D02*
X87937500Y59902500D01*
X150000Y36600000D02*
X2200000Y36600000D01*
X105740000Y52560000D02*
X105750000Y52550000D01*
X14500000Y15550000D02*
X12684000Y13734000D01*
X2200000Y36600000D02*
X13000000Y25800000D01*
X12684000Y13734000D02*
X12684000Y11600000D01*
X16500000Y17550000D02*
X16500000Y22300000D01*
%TO.N,/BUZZER_BASE*%
X110290000Y27675000D02*
X110290000Y40510000D01*
X74750000Y56300000D02*
X71250000Y52800000D01*
X102250000Y60050000D02*
X95580000Y60050000D01*
X95580000Y60050000D02*
X91830000Y56300000D01*
X91830000Y56300000D02*
X74750000Y56300000D01*
X110290000Y40510000D02*
X102250000Y48550000D01*
X102250000Y48550000D02*
X102250000Y60050000D01*
X71250000Y52800000D02*
X61580000Y52800000D01*
%TO.N,/BUZZER_LOW*%
D28*
X116330000Y31050000D02*
X112830000Y27550000D01*
X116330000Y31300000D02*
X123580000Y31300000D01*
X116330000Y31300000D02*
X116330000Y31050000D01*
X123580000Y31300000D02*
X123830000Y31050000D01*
%TO.N,/SW_BAT*%
X32340000Y56550000D02*
X31840000Y57050000D01*
X31840000Y57050000D02*
X31840000Y58140000D01*
D27*
X92000000Y61220000D02*
X90580000Y59800000D01*
X3000000Y29050000D02*
X5000000Y27050000D01*
D28*
X43750000Y60175000D02*
X43785000Y60210000D01*
D27*
X5000000Y27050000D02*
X5000000Y21050000D01*
D28*
X31840000Y58140000D02*
X33750000Y60050000D01*
D27*
X92000000Y64050000D02*
X92000000Y61220000D01*
D28*
X33750000Y60050000D02*
X33875000Y60175000D01*
X33875000Y60175000D02*
X43750000Y60175000D01*
%TO.N,/SCL*%
D27*
X33210000Y26090000D02*
X36500000Y22800000D01*
X56100000Y50550000D02*
X56100000Y54500000D01*
X36500000Y22800000D02*
X50000000Y22800000D01*
X63000000Y42050000D02*
X59250000Y45800000D01*
X56100000Y54500000D02*
X56650000Y55050000D01*
D26*
X62960000Y21650000D02*
X62960000Y24840000D01*
D27*
X50000000Y22800000D02*
X53750000Y26550000D01*
X50250000Y45800000D02*
X50250000Y50550000D01*
X56650000Y55050000D02*
X62550000Y55050000D01*
X57500000Y30300000D02*
X63000000Y35800000D01*
X63000000Y35800000D02*
X63000000Y42050000D01*
X62960000Y24840000D02*
X57500000Y30300000D01*
X59250000Y45800000D02*
X50250000Y45800000D01*
X33210000Y30550000D02*
X33210000Y26090000D01*
X64105000Y56605000D02*
X64105000Y60210000D01*
X62550000Y55050000D02*
X64105000Y56605000D01*
X53750000Y26550000D02*
X57500000Y30300000D01*
X50250000Y50550000D02*
X56100000Y50550000D01*
%TO.N,/SDA*%
D28*
X57750000Y17050000D02*
X37750000Y17050000D01*
D27*
X27250000Y24300000D02*
X25750000Y25800000D01*
X59025000Y58921573D02*
X59025000Y60210000D01*
D28*
X57850000Y21250000D02*
X57850000Y17150000D01*
X37750000Y17050000D02*
X30500000Y24300000D01*
D27*
X30670000Y30550000D02*
X30500000Y30380000D01*
X46624466Y57210000D02*
X57313427Y57210000D01*
X30500000Y24300000D02*
X27250000Y24300000D01*
X43214466Y53800000D02*
X46624466Y57210000D01*
X25750000Y25800000D02*
X25750000Y53800000D01*
X30500000Y30380000D02*
X30500000Y24300000D01*
X57313427Y57210000D02*
X59025000Y58921573D01*
X25750000Y53800000D02*
X43214466Y53800000D01*
%TO.N,/BUZZER3_GPIO2_ESP27*%
D28*
X56540000Y60265000D02*
X56485000Y60210000D01*
X56540000Y64050000D02*
X56540000Y60265000D01*
%TO.N,/D13_BUZZER_GPIO13*%
D27*
X51340000Y60145000D02*
X51405000Y60210000D01*
%TO.N,/OLED_CONFIRM*%
D29*
X71750000Y39865000D02*
X71725000Y39890000D01*
X28250000Y30670000D02*
X28130000Y30550000D01*
D26*
X71750000Y36300000D02*
X71750000Y39865000D01*
D28*
X28250000Y34050000D02*
X28250000Y30670000D01*
%TO.N,/BTN_BACK_GPIO3*%
D26*
X43370000Y30550000D02*
X43370000Y32170000D01*
D27*
X56500000Y36050000D02*
X56500000Y38370000D01*
D29*
X56485000Y38385000D02*
X56485000Y39890000D01*
D27*
X56500000Y36050000D02*
X54250000Y33800000D01*
D29*
X56500000Y38370000D02*
X56485000Y38385000D01*
D27*
X43370000Y33800000D02*
X43370000Y32170000D01*
X54250000Y33800000D02*
X43370000Y33800000D01*
%TO.N,/BTN_NEXT_GPIO4*%
D29*
X54000000Y39400126D02*
X53945000Y39455126D01*
D27*
X52500000Y35300000D02*
X41530000Y35300000D01*
X41530000Y35300000D02*
X40830000Y34600000D01*
D29*
X53945000Y39455126D02*
X53945000Y39890000D01*
D27*
X54000000Y36800000D02*
X52500000Y35300000D01*
D26*
X40830000Y30550000D02*
X40830000Y34600000D01*
D27*
X54000000Y36800000D02*
X54000000Y39400126D01*
%TO.N,/BTN_DOWN_GPIO5*%
D26*
X38290000Y30550000D02*
X38290000Y27110000D01*
D29*
X61500000Y41050000D02*
X58750000Y43800000D01*
X40500000Y24900000D02*
X49350000Y24900000D01*
X51405000Y41705000D02*
X51405000Y39890000D01*
X58750000Y43800000D02*
X53500000Y43800000D01*
X49350000Y24900000D02*
X61500000Y37050000D01*
X53500000Y43800000D02*
X51405000Y41705000D01*
X61500000Y37050000D02*
X61500000Y41050000D01*
X38290000Y27110000D02*
X40500000Y24900000D01*
%TO.N,/BTN_UP_GPIO21*%
D27*
X38500000Y36800000D02*
X48865000Y36800000D01*
X35750000Y34050000D02*
X38500000Y36800000D01*
X48865000Y36800000D02*
X48865000Y39101573D01*
D29*
X48865000Y39101573D02*
X48865000Y39890000D01*
D26*
X35750000Y30550000D02*
X35750000Y34050000D01*
%TO.N,/BUZZER2_ESP26*%
D27*
X43170000Y48300000D02*
X43170000Y45330000D01*
D29*
X43785000Y39890000D02*
X43200000Y40475000D01*
X43170000Y49050000D02*
X43170000Y48300000D01*
X43170000Y48990000D02*
X43170000Y48300000D01*
X43200000Y49020000D02*
X43170000Y48990000D01*
X43250000Y49130000D02*
X43170000Y49050000D01*
D27*
X43170000Y45330000D02*
X43785000Y44715000D01*
X43785000Y44715000D02*
X43785000Y39890000D01*
D29*
X43750000Y39855000D02*
X43785000Y39890000D01*
%TO.N,/BOOST_5V*%
D26*
X123750000Y39130000D02*
X123830000Y39050000D01*
D27*
X113250000Y55300000D02*
X123750000Y44800000D01*
X123750000Y44800000D02*
X123750000Y39130000D01*
D28*
X117080000Y10300000D02*
X116330000Y9550000D01*
D27*
X84000000Y63700000D02*
X84000000Y61300000D01*
D28*
X123830000Y39050000D02*
X128250000Y34630000D01*
X123830000Y10300000D02*
X117080000Y10300000D01*
X123830000Y39050000D02*
X117080000Y39050000D01*
D27*
X113250000Y68050000D02*
X113250000Y55300000D01*
D28*
X128250000Y34630000D02*
X128250000Y29095000D01*
X123830000Y24675000D02*
X117080000Y24675000D01*
X117080000Y24675000D02*
X116330000Y23925000D01*
D27*
X84000000Y61300000D02*
X85500000Y59800000D01*
D28*
X123830000Y24675000D02*
X127750000Y20755000D01*
D27*
X84000000Y63700000D02*
X84000000Y68050000D01*
X84000000Y68050000D02*
X113250000Y68050000D01*
D28*
X127750000Y14220000D02*
X123830000Y10300000D01*
X128250000Y29095000D02*
X123830000Y24675000D01*
X117080000Y39050000D02*
X116330000Y38300000D01*
X127750000Y20755000D02*
X127750000Y14220000D01*
%TO.N,/BUZZER_LOW2*%
X123580000Y2550000D02*
X123830000Y2300000D01*
X116330000Y2550000D02*
X112830000Y-950000D01*
X116330000Y2550000D02*
X123580000Y2550000D01*
%TO.N,/BAT_IN*%
D27*
X8000000Y15800000D02*
X7500000Y15300000D01*
X150000Y34600000D02*
X1700000Y34600000D01*
X8000000Y21050000D02*
X8000000Y15800000D01*
X7316000Y15116000D02*
X7500000Y15300000D01*
X7316000Y11600000D02*
X7316000Y15116000D01*
%TO.N,/BUZZER_BASE3*%
X95500000Y41550000D02*
X95590000Y41640000D01*
X95590000Y41640000D02*
X95590000Y52550000D01*
X108250000Y21550000D02*
X101250000Y21550000D01*
D26*
X66700000Y64050000D02*
X71500000Y64050000D01*
D27*
X110290000Y13237500D02*
X110290000Y19510000D01*
X71500000Y64050000D02*
X71750000Y64300000D01*
X110290000Y19510000D02*
X108250000Y21550000D01*
X101250000Y41550000D02*
X95500000Y41550000D01*
X101250000Y21550000D02*
X101250000Y41550000D01*
%TO.N,/BUZZER_LOW3*%
D28*
X116330000Y16800000D02*
X112830000Y13300000D01*
X116330000Y16925000D02*
X116330000Y16800000D01*
X123580000Y16925000D02*
X123830000Y16675000D01*
X116330000Y16925000D02*
X123580000Y16925000D01*
%TO.N,/BUZZER_BASE2*%
D27*
X89000000Y22550000D02*
X89000000Y46050000D01*
X109750000Y-1012500D02*
X109750000Y6300000D01*
X86750000Y48300000D02*
X53330000Y48300000D01*
X101750000Y9800000D02*
X89000000Y22550000D01*
X109750000Y6300000D02*
X101750000Y6300000D01*
X95250000Y56300000D02*
X87250000Y48300000D01*
X87250000Y48300000D02*
X86750000Y48300000D01*
X101750000Y6300000D02*
X101750000Y9800000D01*
X110290000Y-1012500D02*
X109750000Y-1012500D01*
X95580000Y56300000D02*
X95250000Y56300000D01*
X89000000Y46050000D02*
X86750000Y48300000D01*
%TO.N,/VBAT_SENSE_A1*%
X46080000Y53880000D02*
X46080000Y40135000D01*
X46080000Y40135000D02*
X46325000Y39890000D01*
%TD*%
M02*
