  0
SECTION
  2
HEADER
  9
$ANGBASE
  50
0.0
  9
$ANGDIR
  70
1
  9
$MEASUREMENT
  70
1
  9
$INSUNITS
  70
4
  0
ENDSEC
  0
SECTION
  2
TABLES
  0
TABLE
  2
LTYPE
  70
4
  0
LTYPE
  5
40F
  2
CONTINUOUS
  70
0
  3
Solid line
  72
65
  73
0
  40
0.0
  0
LTYPE
  5
410
  2
DASHDOT
 70
0
  3
Dash Dot ____ _ ____ _
 72
65
 73
4
 40
2.0
 49
1.25
 49
-0.25
 49
0.25
 49
-0.25
  0
LTYPE
  5
411
  2
DASHED
 70
0
  3
Dashed __ __ __ __ __
 72
65
 73
2
 40
0.75
 49
0.5
 49
-0.25
  0
LTYPE
  5
43B
  2
DOTTED
 70
0
  3
Dotted .  .  .  .
 72
65
 73
2
 40
0.2
 49
0.0
 49
-0.2
  0
ENDTAB
  0
TABLE
  2
STYLE
  70
4
  0
STYLE
  2
KICAD
  70
0
  40
0
  41
1
  42
1
  50
0
  71
0
  3
isocp.shx
  0
STYLE
  2
KICADB
  70
0
  40
0
  41
1
  42
1
  50
0
  71
0
  3
isocp.shx
  0
STYLE
  2
KICADI
  70
0
  40
0
  41
1
  42
1
  50
15
  71
0
  3
isocp.shx
  0
STYLE
  2
KICADBI
  70
0
  40
0
  41
1
  42
1
  50
15
  71
0
  3
isocp.shx
  0
ENDTAB
  0
TABLE
  2
LAYER
  70
1
  0
LAYER
  2
BLACK
  70
0
  62
250
  6
CONTINUOUS
  0
ENDTAB
  0
ENDSEC
  0
SECTION
  2
ENTITIES
0
LINE
8
BLACK
6
CONTINUOUS
10
-4.6191389999999997
20
66.3841859999999997
11
-4.6039209999999997
21
66.7327879999999993
0
LINE
8
BLACK
6
CONTINUOUS
10
-4.6039209999999997
20
66.7327879999999993
11
-4.558376
21
67.0787610000000001
0
LINE
8
BLACK
6
CONTINUOUS
10
-4.558376
20
67.0787610000000001
11
-4.4828510000000001
21
67.4194490000000002
0
LINE
8
BLACK
6
CONTINUOUS
10
-4.4828510000000001
20
67.4194490000000002
11
-4.3779199999999996
21
67.7522570000000002
0
LINE
8
BLACK
6
CONTINUOUS
10
-4.3779199999999996
20
67.7522570000000002
11
-4.244383
21
68.0746539999999953
0
LINE
8
BLACK
6
CONTINUOUS
10
-4.244383
20
68.0746539999999953
11
-4.0832549999999994
21
68.3841859999999997
0
LINE
8
BLACK
6
CONTINUOUS
10
-4.0832549999999994
20
68.3841859999999997
11
-3.8957619999999999
21
68.6784959999999955
0
LINE
8
BLACK
6
CONTINUOUS
10
-3.8957619999999999
20
68.6784959999999955
11
-3.6833329999999997
21
68.9553459999999916
0
LINE
8
BLACK
6
CONTINUOUS
10
-3.6833329999999997
20
68.9553459999999916
11
-3.4475819999999997
21
69.2126269999999977
0
LINE
8
BLACK
6
CONTINUOUS
10
-3.4475819999999997
20
69.2126269999999977
11
-3.1903049999999999
21
69.4483829999999926
0
LINE
8
BLACK
6
CONTINUOUS
10
-3.1903049999999999
20
69.4483829999999926
11
-2.9134599999999997
21
69.6608179999999919
0
LINE
8
BLACK
6
CONTINUOUS
10
-2.9134599999999997
20
69.6608179999999919
11
-2.6191529999999998
21
69.848315999999997
0
LINE
8
BLACK
6
CONTINUOUS
10
-2.6191529999999998
20
69.848315999999997
11
-2.309625
21
70.0094500000000011
0
LINE
8
BLACK
6
CONTINUOUS
10
-2.309625
20
70.0094500000000011
11
-1.987231
21
70.1429940000000016
0
LINE
8
BLACK
6
CONTINUOUS
10
-1.987231
20
70.1429940000000016
11
-1.6544239999999999
21
70.2479309999999941
0
LINE
8
BLACK
6
CONTINUOUS
10
-1.6544239999999999
20
70.2479309999999941
11
-1.3137379999999999
21
70.3234630000000038
0
LINE
8
BLACK
6
CONTINUOUS
10
-1.3137379999999999
20
70.3234630000000038
11
-0.967765
21
70.3690139999999928
0
LINE
8
BLACK
6
CONTINUOUS
10
-0.967765
20
70.3690139999999928
11
-0.619139
21
70.3842389999999938
0
LINE
8
BLACK
6
CONTINUOUS
10
-0.619139
20
70.3842389999999938
11
-0.619139
21
70.3841859999999997
0
LINE
8
BLACK
6
CONTINUOUS
10
-0.619139
20
70.3841859999999997
11
132.0999999999999943
21
70.3841859999999997
0
LINE
8
BLACK
6
CONTINUOUS
10
132.0999999999999943
20
70.3841859999999997
11
132.1000139999999874
21
70.3841859999999997
0
LINE
8
BLACK
6
CONTINUOUS
10
132.1000139999999874
20
70.3841859999999997
11
132.4486359999999934
21
70.3689639999999912
0
LINE
8
BLACK
6
CONTINUOUS
10
132.4486359999999934
20
70.3689639999999912
11
132.7946039999999925
21
70.3234149999999971
0
LINE
8
BLACK
6
CONTINUOUS
10
132.7946039999999925
20
70.3234149999999971
11
133.1352860000000078
21
70.2478859999999941
0
LINE
8
BLACK
6
CONTINUOUS
10
133.1352860000000078
20
70.2478859999999941
11
133.468088999999992
21
70.1429529999999914
0
LINE
8
BLACK
6
CONTINUOUS
10
133.468088999999992
20
70.1429529999999914
11
133.7904800000000023
21
70.009412999999995
0
LINE
8
BLACK
6
CONTINUOUS
10
133.7904800000000023
20
70.009412999999995
11
134.1000049999999817
21
69.8482819999999975
0
LINE
8
BLACK
6
CONTINUOUS
10
134.1000049999999817
20
69.8482819999999975
11
134.3943089999999927
21
69.6607889999999941
0
LINE
8
BLACK
6
CONTINUOUS
10
134.3943089999999927
20
69.6607889999999941
11
134.6711520000000064
21
69.4483579999999989
0
LINE
8
BLACK
6
CONTINUOUS
10
134.6711520000000064
20
69.4483579999999989
11
134.9284269999999992
21
69.2126069999999913
0
LINE
8
BLACK
6
CONTINUOUS
10
134.9284269999999992
20
69.2126069999999913
11
135.1641759999999977
21
68.955331000000001
0
LINE
8
BLACK
6
CONTINUOUS
10
135.1641759999999977
20
68.955331000000001
11
135.3766049999999836
21
68.6784859999999924
0
LINE
8
BLACK
6
CONTINUOUS
10
135.3766049999999836
20
68.6784859999999924
11
135.5640960000000064
21
68.3841809999999981
0
LINE
8
BLACK
6
CONTINUOUS
10
135.5640960000000064
20
68.3841809999999981
11
135.7252239999999972
21
68.0746539999999953
0
LINE
8
BLACK
6
CONTINUOUS
10
135.7252239999999972
20
68.0746539999999953
11
135.8587619999999845
21
67.7522629999999992
0
LINE
8
BLACK
6
CONTINUOUS
10
135.8587619999999845
20
67.7522629999999992
11
135.9636930000000064
21
67.4194590000000034
0
LINE
8
BLACK
6
CONTINUOUS
10
135.9636930000000064
20
67.4194590000000034
11
136.0392200000000003
21
67.0787759999999906
0
LINE
8
BLACK
6
CONTINUOUS
10
136.0392200000000003
20
67.0787759999999906
11
136.0847660000000019
21
66.7328079999999915
0
LINE
8
BLACK
6
CONTINUOUS
10
136.0847660000000019
20
66.7328079999999915
11
136.0999860000000012
21
66.3841859999999997
0
LINE
8
BLACK
6
CONTINUOUS
10
136.0999860000000012
20
66.3841859999999997
11
136.0999999999999943
21
66.3841859999999997
0
LINE
8
BLACK
6
CONTINUOUS
10
136.0999999999999943
20
66.3841859999999997
11
136.0999999999999943
21
-0.5
0
LINE
8
BLACK
6
CONTINUOUS
10
136.0999999999999943
20
-0.5
11
136.0847789999999975
21
-0.848623
0
LINE
8
BLACK
6
CONTINUOUS
10
136.0847789999999975
20
-0.848623
11
136.0392310000000009
21
-1.194593
0
LINE
8
BLACK
6
CONTINUOUS
10
136.0392310000000009
20
-1.194593
11
135.9637029999999811
21
-1.5352759999999999
0
LINE
8
BLACK
6
CONTINUOUS
10
135.9637029999999811
20
-1.5352759999999999
11
135.8587699999999927
21
-1.8680809999999999
0
LINE
8
BLACK
6
CONTINUOUS
10
135.8587699999999927
20
-1.8680809999999999
11
135.725231000000008
21
-2.1904729999999999
0
LINE
8
BLACK
6
CONTINUOUS
10
135.725231000000008
20
-2.1904729999999999
11
135.5641019999999912
21
-2.5
0
LINE
8
BLACK
6
CONTINUOUS
10
135.5641019999999912
20
-2.5
11
135.3766080000000045
21
-2.7943059999999997
0
LINE
8
BLACK
6
CONTINUOUS
10
135.3766080000000045
20
-2.7943059999999997
11
135.1641779999999926
21
-3.0711499999999998
0
LINE
8
BLACK
6
CONTINUOUS
10
135.1641779999999926
20
-3.0711499999999998
11
134.9284269999999992
21
-3.328427
0
LINE
8
BLACK
6
CONTINUOUS
10
134.9284269999999992
20
-3.328427
11
134.671149999999983
21
-3.5641779999999996
0
LINE
8
BLACK
6
CONTINUOUS
10
134.671149999999983
20
-3.5641779999999996
11
134.3943060000000003
21
-3.776608
0
LINE
8
BLACK
6
CONTINUOUS
10
134.3943060000000003
20
-3.776608
11
134.0999999999999943
21
-3.964102
0
LINE
8
BLACK
6
CONTINUOUS
10
134.0999999999999943
20
-3.964102
11
133.7904729999999915
21
-4.1252309999999994
0
LINE
8
BLACK
6
CONTINUOUS
10
133.7904729999999915
20
-4.1252309999999994
11
133.4680809999999838
21
-4.2587700000000002
0
LINE
8
BLACK
6
CONTINUOUS
10
133.4680809999999838
20
-4.2587700000000002
11
133.1352760000000046
21
-4.3637030000000001
0
LINE
8
BLACK
6
CONTINUOUS
10
133.1352760000000046
20
-4.3637030000000001
11
132.7945929999999919
21
-4.4392309999999995
0
LINE
8
BLACK
6
CONTINUOUS
10
132.7945929999999919
20
-4.4392309999999995
11
132.4486229999999978
21
-4.4847789999999996
0
LINE
8
BLACK
6
CONTINUOUS
10
132.4486229999999978
20
-4.4847789999999996
11
132.0999999999999943
21
-4.5
0
LINE
8
BLACK
6
CONTINUOUS
10
132.0999999999999943
20
-4.5
11
-0.619139
21
-4.5
0
LINE
8
BLACK
6
CONTINUOUS
10
-0.619139
20
-4.5
11
-0.967723
21
-4.4847789999999996
0
LINE
8
BLACK
6
CONTINUOUS
10
-0.967723
20
-4.4847789999999996
11
-1.313693
21
-4.4392309999999995
0
LINE
8
BLACK
6
CONTINUOUS
10
-1.313693
20
-4.4392309999999995
11
-1.6543759999999998
21
-4.3637030000000001
0
LINE
8
BLACK
6
CONTINUOUS
10
-1.6543759999999998
20
-4.3637030000000001
11
-1.9871809999999999
21
-4.2587700000000002
0
LINE
8
BLACK
6
CONTINUOUS
10
-1.9871809999999999
20
-4.2587700000000002
11
-2.3095729999999999
21
-4.1252309999999994
0
LINE
8
BLACK
6
CONTINUOUS
10
-2.3095729999999999
20
-4.1252309999999994
11
-2.6191
21
-3.964102
0
LINE
8
BLACK
6
CONTINUOUS
10
-2.6191
20
-3.964102
11
-2.9134059999999997
21
-3.776608
0
LINE
8
BLACK
6
CONTINUOUS
10
-2.9134059999999997
20
-3.776608
11
-3.1902499999999998
21
-3.5641779999999996
0
LINE
8
BLACK
6
CONTINUOUS
10
-3.1902499999999998
20
-3.5641779999999996
11
-3.447527
21
-3.328427
0
LINE
8
BLACK
6
CONTINUOUS
10
-3.447527
20
-3.328427
11
-3.6832780000000001
21
-3.0711499999999998
0
LINE
8
BLACK
6
CONTINUOUS
10
-3.6832780000000001
20
-3.0711499999999998
11
-3.8957079999999999
21
-2.7943059999999997
0
LINE
8
BLACK
6
CONTINUOUS
10
-3.8957079999999999
20
-2.7943059999999997
11
-4.083202
21
-2.5
0
LINE
8
BLACK
6
CONTINUOUS
10
-4.083202
20
-2.5
11
-4.2443309999999999
21
-2.1904729999999999
0
LINE
8
BLACK
6
CONTINUOUS
10
-4.2443309999999999
20
-2.1904729999999999
11
-4.3778699999999997
21
-1.8680809999999999
0
LINE
8
BLACK
6
CONTINUOUS
10
-4.3778699999999997
20
-1.8680809999999999
11
-4.4828029999999996
21
-1.5352759999999999
0
LINE
8
BLACK
6
CONTINUOUS
10
-4.4828029999999996
20
-1.5352759999999999
11
-4.5583309999999999
21
-1.194593
0
LINE
8
BLACK
6
CONTINUOUS
10
-4.5583309999999999
20
-1.194593
11
-4.6038790000000001
21
-0.848623
0
LINE
8
BLACK
6
CONTINUOUS
10
-4.6038790000000001
20
-0.848623
11
-4.6190999999999995
21
-0.5
0
LINE
8
BLACK
6
CONTINUOUS
10
-4.6190999999999995
20
-0.5
11
-4.6191389999999997
21
-0.5
0
LINE
8
BLACK
6
CONTINUOUS
10
-4.6191389999999997
20
-0.5
11
-4.6191389999999997
21
66.3841859999999997
0
LINE
8
BLACK
6
CONTINUOUS
10
-0.25
20
37.
11
0.5499999999999999
21
36.1999999999999957
0
LINE
8
BLACK
6
CONTINUOUS
10
0.5499999999999999
20
37.
11
-0.25
21
36.1999999999999957
0
LINE
8
BLACK
6
CONTINUOUS
10
-0.25
20
35.
11
0.5499999999999999
21
34.1999999999999957
0
LINE
8
BLACK
6
CONTINUOUS
10
0.5499999999999999
20
35.
11
-0.25
21
34.1999999999999957
0
LINE
8
BLACK
6
CONTINUOUS
10
4.3759999999999994
20
12.
11
5.1760000000000002
21
11.1999999999999993
0
LINE
8
BLACK
6
CONTINUOUS
10
5.1760000000000002
20
12.
11
4.3759999999999994
21
11.1999999999999993
0
LINE
8
BLACK
6
CONTINUOUS
10
4.3759999999999994
20
3.
11
5.1760000000000002
21
2.1999999999999997
0
LINE
8
BLACK
6
CONTINUOUS
10
5.1760000000000002
20
3.
11
4.3759999999999994
21
2.1999999999999997
0
LINE
8
BLACK
6
CONTINUOUS
10
4.5999999999999996
20
21.4499999999999993
11
5.3999999999999995
21
20.6499999999999986
0
LINE
8
BLACK
6
CONTINUOUS
10
5.3999999999999995
20
21.4499999999999993
11
4.5999999999999996
21
20.6499999999999986
0
LINE
8
BLACK
6
CONTINUOUS
10
6.9159999999999995
20
12.
11
7.7159999999999993
21
11.1999999999999993
0
LINE
8
BLACK
6
CONTINUOUS
10
7.7159999999999993
20
12.
11
6.9159999999999995
21
11.1999999999999993
0
LINE
8
BLACK
6
CONTINUOUS
10
7.5999999999999996
20
21.4499999999999993
11
8.4000000000000004
21
20.6499999999999986
0
LINE
8
BLACK
6
CONTINUOUS
10
8.4000000000000004
20
21.4499999999999993
11
7.5999999999999996
21
20.6499999999999986
0
LINE
8
BLACK
6
CONTINUOUS
10
10.5999999999999996
20
21.4499999999999993
11
11.4000000000000004
21
20.6499999999999986
0
LINE
8
BLACK
6
CONTINUOUS
10
11.4000000000000004
20
21.4499999999999993
11
10.5999999999999996
21
20.6499999999999986
0
LINE
8
BLACK
6
CONTINUOUS
10
12.2839999999999989
20
12.
11
13.0839999999999996
21
11.1999999999999993
0
LINE
8
BLACK
6
CONTINUOUS
10
13.0839999999999996
20
12.
11
12.2839999999999989
21
11.1999999999999993
0
LINE
8
BLACK
6
CONTINUOUS
10
12.5999999999999996
20
31.1999999999999993
11
13.3999999999999986
21
30.3999999999999986
0
LINE
8
BLACK
6
CONTINUOUS
10
13.3999999999999986
20
31.1999999999999993
11
12.5999999999999996
21
30.3999999999999986
0
LINE
8
BLACK
6
CONTINUOUS
10
12.5999999999999996
20
26.1999999999999993
11
13.3999999999999986
21
25.3999999999999986
0
LINE
8
BLACK
6
CONTINUOUS
10
13.3999999999999986
20
26.1999999999999993
11
12.5999999999999996
21
25.3999999999999986
0
LINE
8
BLACK
6
CONTINUOUS
10
14.1999999999999993
20
43.3999999999999986
11
15.
21
42.6000000000000014
0
LINE
8
BLACK
6
CONTINUOUS
10
15.
20
43.3999999999999986
11
14.1999999999999993
21
42.6000000000000014
0
LINE
8
BLACK
6
CONTINUOUS
10
14.1999999999999993
20
41.3999999999999986
11
15.
21
40.6000000000000014
0
LINE
8
BLACK
6
CONTINUOUS
10
15.
20
41.3999999999999986
11
14.1999999999999993
21
40.6000000000000014
0
LINE
8
BLACK
6
CONTINUOUS
10
14.8239999999999998
20
12.
11
15.6239999999999988
21
11.1999999999999993
0
LINE
8
BLACK
6
CONTINUOUS
10
15.6239999999999988
20
12.
11
14.8239999999999998
21
11.1999999999999993
0
LINE
8
BLACK
6
CONTINUOUS
10
14.8239999999999998
20
3.
11
15.6239999999999988
21
2.1999999999999997
0
LINE
8
BLACK
6
CONTINUOUS
10
15.6239999999999988
20
3.
11
14.8239999999999998
21
2.1999999999999997
0
LINE
8
BLACK
6
CONTINUOUS
10
27.8499999999999979
20
34.4499999999999957
11
28.6499999999999986
21
33.6499999999999986
0
LINE
8
BLACK
6
CONTINUOUS
10
28.6499999999999986
20
34.4499999999999957
11
27.8499999999999979
21
33.6499999999999986
0
LINE
8
BLACK
6
CONTINUOUS
10
31.5999999999999979
20
51.1999999999999957
11
32.3999999999999986
21
50.3999999999999986
0
LINE
8
BLACK
6
CONTINUOUS
10
32.3999999999999986
20
51.1999999999999957
11
31.5999999999999979
21
50.3999999999999986
0
LINE
8
BLACK
6
CONTINUOUS
10
31.8999999999999986
20
36.8999999999999986
11
32.6999999999999957
21
36.1000000000000014
0
LINE
8
BLACK
6
CONTINUOUS
10
32.6999999999999957
20
36.8999999999999986
11
31.8999999999999986
21
36.1000000000000014
0
LINE
8
BLACK
6
CONTINUOUS
10
31.9399999999999977
20
56.9499999999999957
11
32.740000000000002
21
56.1499999999999986
0
LINE
8
BLACK
6
CONTINUOUS
10
32.740000000000002
20
56.9499999999999957
11
31.9399999999999977
21
56.1499999999999986
0
LINE
8
BLACK
6
CONTINUOUS
10
41.759999999999998
20
51.1999999999999957
11
42.5599999999999952
21
50.3999999999999986
0
LINE
8
BLACK
6
CONTINUOUS
10
42.5599999999999952
20
51.1999999999999957
11
41.759999999999998
21
50.3999999999999986
0
LINE
8
BLACK
6
CONTINUOUS
10
42.1000000000000014
20
56.9499999999999957
11
42.8999999999999986
21
56.1499999999999986
0
LINE
8
BLACK
6
CONTINUOUS
10
42.8999999999999986
20
56.9499999999999957
11
42.1000000000000014
21
56.1499999999999986
0
LINE
8
BLACK
6
CONTINUOUS
10
42.769999999999996
20
48.6999999999999957
11
43.5700000000000003
21
47.8999999999999986
0
LINE
8
BLACK
6
CONTINUOUS
10
43.5700000000000003
20
48.6999999999999957
11
42.769999999999996
21
47.8999999999999986
0
LINE
8
BLACK
6
CONTINUOUS
10
45.3500000000000014
20
27.6999999999999993
11
46.1499999999999986
21
26.8999999999999986
0
LINE
8
BLACK
6
CONTINUOUS
10
46.1499999999999986
20
27.6999999999999993
11
45.3500000000000014
21
26.8999999999999986
0
LINE
8
BLACK
6
CONTINUOUS
10
48.0999999999999943
20
27.4499999999999993
11
48.8999999999999986
21
26.6499999999999986
0
LINE
8
BLACK
6
CONTINUOUS
10
48.8999999999999986
20
27.4499999999999993
11
48.0999999999999943
21
26.6499999999999986
0
LINE
8
BLACK
6
CONTINUOUS
10
51.019999999999996
20
53.1999999999999957
11
51.8200000000000003
21
52.3999999999999986
0
LINE
8
BLACK
6
CONTINUOUS
10
51.8200000000000003
20
53.1999999999999957
11
51.019999999999996
21
52.3999999999999986
0
LINE
8
BLACK
6
CONTINUOUS
10
52.9299999999999997
20
48.6999999999999957
11
53.7299999999999969
21
47.8999999999999986
0
LINE
8
BLACK
6
CONTINUOUS
10
53.7299999999999969
20
48.6999999999999957
11
52.9299999999999997
21
47.8999999999999986
0
LINE
8
BLACK
6
CONTINUOUS
10
56.1400000000000006
20
64.4500000000000028
11
56.9399999999999977
21
63.6499999999999986
0
LINE
8
BLACK
6
CONTINUOUS
10
56.9399999999999977
20
64.4500000000000028
11
56.1400000000000006
21
63.6499999999999986
0
LINE
8
BLACK
6
CONTINUOUS
10
61.1799999999999997
20
53.1999999999999957
11
61.9799999999999969
21
52.3999999999999986
0
LINE
8
BLACK
6
CONTINUOUS
10
61.9799999999999969
20
53.1999999999999957
11
61.1799999999999997
21
52.3999999999999986
0
LINE
8
BLACK
6
CONTINUOUS
10
66.2999999999999972
20
64.4500000000000028
11
67.0999999999999943
21
63.6499999999999986
0
LINE
8
BLACK
6
CONTINUOUS
10
67.0999999999999943
20
64.4500000000000028
11
66.2999999999999972
21
63.6499999999999986
0
LINE
8
BLACK
6
CONTINUOUS
10
71.3499999999999943
20
36.6999999999999957
11
72.1499999999999915
21
35.8999999999999986
0
LINE
8
BLACK
6
CONTINUOUS
10
72.1499999999999915
20
36.6999999999999957
11
71.3499999999999943
21
35.8999999999999986
0
LINE
8
BLACK
6
CONTINUOUS
10
83.5999999999999943
20
64.0999999999999943
11
84.3999999999999915
21
63.2999999999999972
0
LINE
8
BLACK
6
CONTINUOUS
10
84.3999999999999915
20
64.0999999999999943
11
83.5999999999999943
21
63.2999999999999972
0
LINE
8
BLACK
6
CONTINUOUS
10
87.5374999999999943
20
64.0999999999999943
11
88.3374999999999915
21
63.2999999999999972
0
LINE
8
BLACK
6
CONTINUOUS
10
88.3374999999999915
20
64.0999999999999943
11
87.5374999999999943
21
63.2999999999999972
0
LINE
8
BLACK
6
CONTINUOUS
10
91.5999999999999943
20
64.0999999999999943
11
92.3999999999999915
21
63.2999999999999972
0
LINE
8
BLACK
6
CONTINUOUS
10
92.3999999999999915
20
64.0999999999999943
11
91.5999999999999943
21
63.2999999999999972
0
LINE
8
BLACK
6
CONTINUOUS
10
95.1799999999999926
20
60.4499999999999957
11
95.9799999999999898
21
59.6499999999999986
0
LINE
8
BLACK
6
CONTINUOUS
10
95.9799999999999898
20
60.4499999999999957
11
95.1799999999999926
21
59.6499999999999986
0
LINE
8
BLACK
6
CONTINUOUS
10
95.1799999999999926
20
56.6999999999999957
11
95.9799999999999898
21
55.8999999999999986
0
LINE
8
BLACK
6
CONTINUOUS
10
95.9799999999999898
20
56.6999999999999957
11
95.1799999999999926
21
55.8999999999999986
0
LINE
8
BLACK
6
CONTINUOUS
10
95.1899999999999977
20
52.9499999999999957
11
95.9899999999999949
21
52.1499999999999986
0
LINE
8
BLACK
6
CONTINUOUS
10
95.9899999999999949
20
52.9499999999999957
11
95.1899999999999977
21
52.1499999999999986
0
LINE
8
BLACK
6
CONTINUOUS
10
105.3399999999999892
20
60.4499999999999957
11
106.1400000000000006
21
59.6499999999999986
0
LINE
8
BLACK
6
CONTINUOUS
10
106.1400000000000006
20
60.4499999999999957
11
105.3399999999999892
21
59.6499999999999986
0
LINE
8
BLACK
6
CONTINUOUS
10
105.3399999999999892
20
56.6999999999999957
11
106.1400000000000006
21
55.8999999999999986
0
LINE
8
BLACK
6
CONTINUOUS
10
106.1400000000000006
20
56.6999999999999957
11
105.3399999999999892
21
55.8999999999999986
0
LINE
8
BLACK
6
CONTINUOUS
10
105.3499999999999943
20
52.9499999999999957
11
106.1499999999999915
21
52.1499999999999986
0
LINE
8
BLACK
6
CONTINUOUS
10
106.1499999999999915
20
52.9499999999999957
11
105.3499999999999943
21
52.1499999999999986
0
LINE
8
BLACK
6
CONTINUOUS
10
107.3499999999999943
20
28.0749999999999993
11
108.1499999999999915
21
27.2749999999999986
0
LINE
8
BLACK
6
CONTINUOUS
10
108.1499999999999915
20
28.0749999999999993
11
107.3499999999999943
21
27.2749999999999986
0
LINE
8
BLACK
6
CONTINUOUS
10
107.3499999999999943
20
13.6374999999999993
11
108.1499999999999915
21
12.8374999999999986
0
LINE
8
BLACK
6
CONTINUOUS
10
108.1499999999999915
20
13.6374999999999993
11
107.3499999999999943
21
12.8374999999999986
0
LINE
8
BLACK
6
CONTINUOUS
10
107.3499999999999943
20
-0.6124999999999999
11
108.1499999999999915
21
-1.4124999999999999
0
LINE
8
BLACK
6
CONTINUOUS
10
108.1499999999999915
20
-0.6124999999999999
11
107.3499999999999943
21
-1.4124999999999999
0
LINE
8
BLACK
6
CONTINUOUS
10
109.8900000000000006
20
28.0749999999999993
11
110.6899999999999977
21
27.2749999999999986
0
LINE
8
BLACK
6
CONTINUOUS
10
110.6899999999999977
20
28.0749999999999993
11
109.8900000000000006
21
27.2749999999999986
0
LINE
8
BLACK
6
CONTINUOUS
10
109.8900000000000006
20
13.6374999999999993
11
110.6899999999999977
21
12.8374999999999986
0
LINE
8
BLACK
6
CONTINUOUS
10
110.6899999999999977
20
13.6374999999999993
11
109.8900000000000006
21
12.8374999999999986
0
LINE
8
BLACK
6
CONTINUOUS
10
109.8900000000000006
20
-0.6124999999999999
11
110.6899999999999977
21
-1.4124999999999999
0
LINE
8
BLACK
6
CONTINUOUS
10
110.6899999999999977
20
-0.6124999999999999
11
109.8900000000000006
21
-1.4124999999999999
0
LINE
8
BLACK
6
CONTINUOUS
10
112.4299999999999926
20
28.0749999999999993
11
113.2299999999999898
21
27.2749999999999986
0
LINE
8
BLACK
6
CONTINUOUS
10
113.2299999999999898
20
28.0749999999999993
11
112.4299999999999926
21
27.2749999999999986
0
LINE
8
BLACK
6
CONTINUOUS
10
112.4299999999999926
20
13.6374999999999993
11
113.2299999999999898
21
12.8374999999999986
0
LINE
8
BLACK
6
CONTINUOUS
10
113.2299999999999898
20
13.6374999999999993
11
112.4299999999999926
21
12.8374999999999986
0
LINE
8
BLACK
6
CONTINUOUS
10
112.4299999999999926
20
-0.6124999999999999
11
113.2299999999999898
21
-1.4124999999999999
0
LINE
8
BLACK
6
CONTINUOUS
10
113.2299999999999898
20
-0.6124999999999999
11
112.4299999999999926
21
-1.4124999999999999
0
CIRCLE
8
BLACK
10
3.
20
29.0499999999999972
40
0.5
0
CIRCLE
8
BLACK
10
7.5
20
15.2999999999999989
40
0.5
0
CIRCLE
8
BLACK
10
14.5
20
15.5499999999999989
40
0.5
0
CIRCLE
8
BLACK
10
28.129999999999999
20
30.5499999999999972
40
0.5
0
CIRCLE
8
BLACK
10
30.6699999999999982
20
30.5499999999999972
40
0.5
0
CIRCLE
8
BLACK
10
33.2100000000000009
20
30.5499999999999972
40
0.5
0
CIRCLE
8
BLACK
10
33.625
20
39.8900000000000006
40
0.5
0
CIRCLE
8
BLACK
10
33.75
20
60.0499999999999972
40
0.5
0
CIRCLE
8
BLACK
10
35.75
20
30.5499999999999972
40
0.5
0
CIRCLE
8
BLACK
10
36.1649999999999991
20
39.8900000000000006
40
0.5
0
CIRCLE
8
BLACK
10
38.25
20
46.2999999999999972
40
0.5
0
CIRCLE
8
BLACK
10
38.2899999999999991
20
30.5499999999999972
40
0.5
0
CIRCLE
8
BLACK
10
40.8299999999999983
20
30.5499999999999972
40
0.5
0
CIRCLE
8
BLACK
10
41.2449999999999974
20
39.8900000000000006
40
0.5
0
CIRCLE
8
BLACK
10
43.3699999999999974
20
30.5499999999999972
40
0.5
0
CIRCLE
8
BLACK
10
43.7849999999999966
20
60.2099999999999937
40
0.5
0
CIRCLE
8
BLACK
10
43.7849999999999966
20
39.8900000000000006
40
0.5
0
CIRCLE
8
BLACK
10
45.9099999999999966
20
30.5499999999999972
40
0.5
0
CIRCLE
8
BLACK
10
46.
20
53.0499999999999972
40
0.5
0
CIRCLE
8
BLACK
10
46.3249999999999957
20
60.2099999999999937
40
0.5
0
CIRCLE
8
BLACK
10
46.3249999999999957
20
39.8900000000000006
40
0.5
0
CIRCLE
8
BLACK
10
48.4499999999999957
20
30.5499999999999972
40
0.5
0
CIRCLE
8
BLACK
10
48.8649999999999949
20
60.2099999999999937
40
0.5
0
CIRCLE
8
BLACK
10
48.8649999999999949
20
39.8900000000000006
40
0.5
0
CIRCLE
8
BLACK
10
51.4050000000000011
20
60.2099999999999937
40
0.5
0
CIRCLE
8
BLACK
10
51.4050000000000011
20
39.8900000000000006
40
0.5
0
CIRCLE
8
BLACK
10
52.769999999999996
20
21.25
40
0.5
0
CIRCLE
8
BLACK
10
53.9450000000000003
20
60.2099999999999937
40
0.5
0
CIRCLE
8
BLACK
10
53.9450000000000003
20
39.8900000000000006
40
0.5
0
CIRCLE
8
BLACK
10
55.3099999999999952
20
21.25
40
0.5
0
CIRCLE
8
BLACK
10
56.4849999999999994
20
60.2099999999999937
40
0.5
0
CIRCLE
8
BLACK
10
56.4849999999999994
20
39.8900000000000006
40
0.5
0
CIRCLE
8
BLACK
10
57.8499999999999943
20
21.25
40
0.5
0
CIRCLE
8
BLACK
10
59.0249999999999986
20
60.2099999999999937
40
0.5
0
CIRCLE
8
BLACK
10
59.0249999999999986
20
39.8900000000000006
40
0.5
0
CIRCLE
8
BLACK
10
60.3900000000000006
20
21.25
40
0.5
0
CIRCLE
8
BLACK
10
61.5649999999999977
20
60.2099999999999937
40
0.5
0
CIRCLE
8
BLACK
10
62.9299999999999997
20
21.25
40
0.5
0
CIRCLE
8
BLACK
10
64.105000000000004
20
60.2099999999999937
40
0.5
0
CIRCLE
8
BLACK
10
65.4699999999999989
20
21.25
40
0.5
0
CIRCLE
8
BLACK
10
65.5
20
27.7999999999999972
40
0.5
0
CIRCLE
8
BLACK
10
66.644999999999996
20
60.2099999999999937
40
0.5
0
CIRCLE
8
BLACK
10
66.644999999999996
20
39.8900000000000006
40
0.5
0
CIRCLE
8
BLACK
10
68.0099999999999909
20
21.25
40
0.5
0
CIRCLE
8
BLACK
10
69.1850000000000023
20
60.2099999999999937
40
0.5
0
CIRCLE
8
BLACK
10
69.1850000000000023
20
39.8900000000000006
40
0.5
0
CIRCLE
8
BLACK
10
70.5
20
27.7999999999999972
40
0.5
0
CIRCLE
8
BLACK
10
70.5499999999999972
20
21.25
40
0.5
0
CIRCLE
8
BLACK
10
71.7249999999999943
20
60.2099999999999937
40
0.5
0
CIRCLE
8
BLACK
10
71.7249999999999943
20
39.8900000000000006
40
0.5
0
CIRCLE
8
BLACK
10
71.75
20
64.2999999999999972
40
0.5
0
CIRCLE
8
BLACK
10
84.2999999999999972
20
46.1099999999999994
40
0.5
0
CIRCLE
8
BLACK
10
84.2999999999999972
20
43.5700000000000003
40
0.5
0
CIRCLE
8
BLACK
10
84.2999999999999972
20
41.0300000000000011
40
0.5
0
CIRCLE
8
BLACK
10
84.2999999999999972
20
38.4899999999999949
40
0.5
0
CIRCLE
8
BLACK
10
85.5
20
59.7999999999999972
40
0.5
0
CIRCLE
8
BLACK
10
88.039999999999992
20
59.7999999999999972
40
0.5
0
CIRCLE
8
BLACK
10
90.5799999999999983
20
59.7999999999999972
40
0.5
0
CIRCLE
8
BLACK
10
104.25
20
27.7999999999999972
40
0.5
0
CIRCLE
8
BLACK
10
104.25
20
13.2999999999999989
40
0.5
0
CIRCLE
8
BLACK
10
104.25
20
-0.95
40
0.5
0
CIRCLE
8
BLACK
10
116.3299999999999983
20
38.1749999999999972
40
0.5
0
CIRCLE
8
BLACK
10
116.3299999999999983
20
31.1749999999999972
40
0.5
0
CIRCLE
8
BLACK
10
116.3299999999999983
20
23.9874999999999972
40
0.5
0
CIRCLE
8
BLACK
10
116.3299999999999983
20
16.9875000000000007
40
0.5
0
CIRCLE
8
BLACK
10
116.3299999999999983
20
9.6124999999999989
40
0.5
0
CIRCLE
8
BLACK
10
116.3299999999999983
20
2.6124999999999998
40
0.5
0
CIRCLE
8
BLACK
10
123.8299999999999983
20
38.9249999999999972
40
0.5
0
CIRCLE
8
BLACK
10
123.8299999999999983
20
30.9249999999999972
40
0.5
0
CIRCLE
8
BLACK
10
123.8299999999999983
20
24.7374999999999972
40
0.5
0
CIRCLE
8
BLACK
10
123.8299999999999983
20
16.7375000000000007
40
0.5
0
CIRCLE
8
BLACK
10
123.8299999999999983
20
10.3624999999999989
40
0.5
0
CIRCLE
8
BLACK
10
123.8299999999999983
20
2.3624999999999998
40
0.5
0
LINE
8
BLACK
6
CONTINUOUS
10
-2.0363709999999999
20
-7.6398379999999992
11
-2.0363709999999999
21
-5.6398380000000001
0
LINE
8
BLACK
6
CONTINUOUS
10
-2.0363709999999999
20
-5.6398380000000001
11
-1.560181
21
-5.6398380000000001
0
LINE
8
BLACK
6
CONTINUOUS
10
-1.560181
20
-5.6398380000000001
11
-1.2744659999999999
21
-5.7350759999999994
0
LINE
8
BLACK
6
CONTINUOUS
10
-1.2744659999999999
20
-5.7350759999999994
11
-1.08399
21
-5.9255519999999997
0
LINE
8
BLACK
6
CONTINUOUS
10
-1.08399
20
-5.9255519999999997
11
-0.988752
21
-6.116028
0
LINE
8
BLACK
6
CONTINUOUS
10
-0.988752
20
-6.116028
11
-0.8935139999999999
21
-6.4969799999999998
0
LINE
8
BLACK
6
CONTINUOUS
10
-0.8935139999999999
20
-6.4969799999999998
11
-0.8935139999999999
21
-6.7826949999999995
0
LINE
8
BLACK
6
CONTINUOUS
10
-0.8935139999999999
20
-6.7826949999999995
11
-0.988752
21
-7.1636470000000001
0
LINE
8
BLACK
6
CONTINUOUS
10
-0.988752
20
-7.1636470000000001
11
-1.08399
21
-7.3541229999999995
0
LINE
8
BLACK
6
CONTINUOUS
10
-1.08399
20
-7.3541229999999995
11
-1.2744659999999999
21
-7.5446
0
LINE
8
BLACK
6
CONTINUOUS
10
-1.2744659999999999
20
-7.5446
11
-1.560181
21
-7.6398379999999992
0
LINE
8
BLACK
6
CONTINUOUS
10
-1.560181
20
-7.6398379999999992
11
-2.0363709999999999
21
-7.6398379999999992
0
LINE
8
BLACK
6
CONTINUOUS
10
-0.036371
20
-7.6398379999999992
11
-0.036371
21
-6.3065039999999994
0
LINE
8
BLACK
6
CONTINUOUS
10
-0.036371
20
-6.6874569999999993
11
0.058867
21
-6.4969799999999998
0
LINE
8
BLACK
6
CONTINUOUS
10
0.058867
20
-6.4969799999999998
11
0.154105
21
-6.4017419999999996
0
LINE
8
BLACK
6
CONTINUOUS
10
0.154105
20
-6.4017419999999996
11
0.344581
21
-6.3065039999999994
0
LINE
8
BLACK
6
CONTINUOUS
10
0.344581
20
-6.3065039999999994
11
0.5350579999999999
21
-6.3065039999999994
0
LINE
8
BLACK
6
CONTINUOUS
10
1.201724
20
-7.6398379999999992
11
1.201724
21
-6.3065039999999994
0
LINE
8
BLACK
6
CONTINUOUS
10
1.201724
20
-5.6398380000000001
11
1.1064859999999999
21
-5.7350759999999994
0
LINE
8
BLACK
6
CONTINUOUS
10
1.1064859999999999
20
-5.7350759999999994
11
1.201724
21
-5.8303139999999996
0
LINE
8
BLACK
6
CONTINUOUS
10
1.201724
20
-5.8303139999999996
11
1.2969619999999999
21
-5.7350759999999994
0
LINE
8
BLACK
6
CONTINUOUS
10
1.2969619999999999
20
-5.7350759999999994
11
1.201724
21
-5.6398380000000001
0
LINE
8
BLACK
6
CONTINUOUS
10
1.201724
20
-5.6398380000000001
11
1.201724
21
-5.8303139999999996
0
LINE
8
BLACK
6
CONTINUOUS
10
2.439819
20
-7.6398379999999992
11
2.2493430000000001
21
-7.5446
0
LINE
8
BLACK
6
CONTINUOUS
10
2.2493430000000001
20
-7.5446
11
2.1541049999999999
21
-7.3541229999999995
0
LINE
8
BLACK
6
CONTINUOUS
10
2.1541049999999999
20
-7.3541229999999995
11
2.1541049999999999
21
-5.6398380000000001
0
LINE
8
BLACK
6
CONTINUOUS
10
3.487438
20
-7.6398379999999992
11
3.2969619999999997
21
-7.5446
0
LINE
8
BLACK
6
CONTINUOUS
10
3.2969619999999997
20
-7.5446
11
3.201724
21
-7.3541229999999995
0
LINE
8
BLACK
6
CONTINUOUS
10
3.201724
20
-7.3541229999999995
11
3.201724
21
-5.6398380000000001
0
LINE
8
BLACK
6
CONTINUOUS
10
5.7731529999999998
20
-7.6398379999999992
11
5.7731529999999998
21
-5.6398380000000001
0
LINE
8
BLACK
6
CONTINUOUS
10
5.7731529999999998
20
-5.6398380000000001
11
6.4398200000000001
21
-7.0684089999999999
0
LINE
8
BLACK
6
CONTINUOUS
10
6.4398200000000001
20
-7.0684089999999999
11
7.1064859999999994
21
-5.6398380000000001
0
LINE
8
BLACK
6
CONTINUOUS
10
7.1064859999999994
20
-5.6398380000000001
11
7.1064859999999994
21
-7.6398379999999992
0
LINE
8
BLACK
6
CONTINUOUS
10
8.91601
20
-7.6398379999999992
11
8.91601
21
-6.5922190000000001
0
LINE
8
BLACK
6
CONTINUOUS
10
8.91601
20
-6.5922190000000001
11
8.8207719999999998
21
-6.4017419999999996
0
LINE
8
BLACK
6
CONTINUOUS
10
8.8207719999999998
20
-6.4017419999999996
11
8.6302959999999995
21
-6.3065039999999994
0
LINE
8
BLACK
6
CONTINUOUS
10
8.6302959999999995
20
-6.3065039999999994
11
8.2493429999999996
21
-6.3065039999999994
0
LINE
8
BLACK
6
CONTINUOUS
10
8.2493429999999996
20
-6.3065039999999994
11
8.0588669999999993
21
-6.4017419999999996
0
LINE
8
BLACK
6
CONTINUOUS
10
8.91601
20
-7.5446
11
8.7255339999999997
21
-7.6398379999999992
0
LINE
8
BLACK
6
CONTINUOUS
10
8.7255339999999997
20
-7.6398379999999992
11
8.2493429999999996
21
-7.6398379999999992
0
LINE
8
BLACK
6
CONTINUOUS
10
8.2493429999999996
20
-7.6398379999999992
11
8.0588669999999993
21
-7.5446
0
LINE
8
BLACK
6
CONTINUOUS
10
8.0588669999999993
20
-7.5446
11
7.9636290000000001
21
-7.3541229999999995
0
LINE
8
BLACK
6
CONTINUOUS
10
7.9636290000000001
20
-7.3541229999999995
11
7.9636290000000001
21
-7.1636470000000001
0
LINE
8
BLACK
6
CONTINUOUS
10
7.9636290000000001
20
-7.1636470000000001
11
8.0588669999999993
21
-6.9731709999999998
0
LINE
8
BLACK
6
CONTINUOUS
10
8.0588669999999993
20
-6.9731709999999998
11
8.2493429999999996
21
-6.8779329999999996
0
LINE
8
BLACK
6
CONTINUOUS
10
8.2493429999999996
20
-6.8779329999999996
11
8.7255339999999997
21
-6.8779329999999996
0
LINE
8
BLACK
6
CONTINUOUS
10
8.7255339999999997
20
-6.8779329999999996
11
8.91601
21
-6.7826949999999995
0
LINE
8
BLACK
6
CONTINUOUS
10
9.868390999999999
20
-6.3065039999999994
11
9.868390999999999
21
-8.3065040000000003
0
LINE
8
BLACK
6
CONTINUOUS
10
9.868390999999999
20
-6.4017419999999996
11
10.0588669999999993
21
-6.3065039999999994
0
LINE
8
BLACK
6
CONTINUOUS
10
10.0588669999999993
20
-6.3065039999999994
11
10.4398199999999992
21
-6.3065039999999994
0
LINE
8
BLACK
6
CONTINUOUS
10
10.4398199999999992
20
-6.3065039999999994
11
10.6302959999999995
21
-6.4017419999999996
0
LINE
8
BLACK
6
CONTINUOUS
10
10.6302959999999995
20
-6.4017419999999996
11
10.7255339999999997
21
-6.4969799999999998
0
LINE
8
BLACK
6
CONTINUOUS
10
10.7255339999999997
20
-6.4969799999999998
11
10.8207719999999998
21
-6.6874569999999993
0
LINE
8
BLACK
6
CONTINUOUS
10
10.8207719999999998
20
-6.6874569999999993
11
10.8207719999999998
21
-7.2588849999999994
0
LINE
8
BLACK
6
CONTINUOUS
10
10.8207719999999998
20
-7.2588849999999994
11
10.7255339999999997
21
-7.4493609999999997
0
LINE
8
BLACK
6
CONTINUOUS
10
10.7255339999999997
20
-7.4493609999999997
11
10.6302959999999995
21
-7.5446
0
LINE
8
BLACK
6
CONTINUOUS
10
10.6302959999999995
20
-7.5446
11
10.4398199999999992
21
-7.6398379999999992
0
LINE
8
BLACK
6
CONTINUOUS
10
10.4398199999999992
20
-7.6398379999999992
11
10.0588669999999993
21
-7.6398379999999992
0
LINE
8
BLACK
6
CONTINUOUS
10
10.0588669999999993
20
-7.6398379999999992
11
9.868390999999999
21
-7.5446
0
LINE
8
BLACK
6
CONTINUOUS
10
11.6779149999999987
20
-7.4493609999999997
11
11.7731529999999989
21
-7.5446
0
LINE
8
BLACK
6
CONTINUOUS
10
11.7731529999999989
20
-7.5446
11
11.6779149999999987
21
-7.6398379999999992
0
LINE
8
BLACK
6
CONTINUOUS
10
11.6779149999999987
20
-7.6398379999999992
11
11.5826770000000003
21
-7.5446
0
LINE
8
BLACK
6
CONTINUOUS
10
11.5826770000000003
20
-7.5446
11
11.6779149999999987
21
-7.4493609999999997
0
LINE
8
BLACK
6
CONTINUOUS
10
11.6779149999999987
20
-7.4493609999999997
11
11.6779149999999987
21
-7.6398379999999992
0
LINE
8
BLACK
6
CONTINUOUS
10
11.6779149999999987
20
-6.4017419999999996
11
11.7731529999999989
21
-6.4969799999999998
0
LINE
8
BLACK
6
CONTINUOUS
10
11.7731529999999989
20
-6.4969799999999998
11
11.6779149999999987
21
-6.5922190000000001
0
LINE
8
BLACK
6
CONTINUOUS
10
11.6779149999999987
20
-6.5922190000000001
11
11.5826770000000003
21
-6.4969799999999998
0
LINE
8
BLACK
6
CONTINUOUS
10
11.5826770000000003
20
-6.4969799999999998
11
11.6779149999999987
21
-6.4017419999999996
0
LINE
8
BLACK
6
CONTINUOUS
10
11.6779149999999987
20
-6.4017419999999996
11
11.6779149999999987
21
-6.5922190000000001
0
LINE
8
BLACK
6
CONTINUOUS
10
-5.4441389999999998
20
-10.5250000000000004
11
-4.644139
21
-11.3249999999999993
0
LINE
8
BLACK
6
CONTINUOUS
10
-4.644139
20
-10.5250000000000004
11
-5.4441389999999998
21
-11.3249999999999993
0
LINE
8
BLACK
6
CONTINUOUS
10
-1.655419
20
-9.8398380000000003
11
-1.464942
21
-9.8398380000000003
0
LINE
8
BLACK
6
CONTINUOUS
10
-1.464942
20
-9.8398380000000003
11
-1.2744659999999999
21
-9.9350759999999987
0
LINE
8
BLACK
6
CONTINUOUS
10
-1.2744659999999999
20
-9.9350759999999987
11
-1.1792279999999999
21
-10.0303139999999988
0
LINE
8
BLACK
6
CONTINUOUS
10
-1.1792279999999999
20
-10.0303139999999988
11
-1.08399
21
-10.2207899999999992
0
LINE
8
BLACK
6
CONTINUOUS
10
-1.08399
20
-10.2207899999999992
11
-0.988752
21
-10.6017419999999998
0
LINE
8
BLACK
6
CONTINUOUS
10
-0.988752
20
-10.6017419999999998
11
-0.988752
21
-11.0779329999999998
0
LINE
8
BLACK
6
CONTINUOUS
10
-0.988752
20
-11.0779329999999998
11
-1.08399
21
-11.4588849999999987
0
LINE
8
BLACK
6
CONTINUOUS
10
-1.08399
20
-11.4588849999999987
11
-1.1792279999999999
21
-11.649360999999999
0
LINE
8
BLACK
6
CONTINUOUS
10
-1.1792279999999999
20
-11.649360999999999
11
-1.2744659999999999
21
-11.7446000000000002
0
LINE
8
BLACK
6
CONTINUOUS
10
-1.2744659999999999
20
-11.7446000000000002
11
-1.464942
21
-11.8398380000000003
0
LINE
8
BLACK
6
CONTINUOUS
10
-1.464942
20
-11.8398380000000003
11
-1.655419
21
-11.8398380000000003
0
LINE
8
BLACK
6
CONTINUOUS
10
-1.655419
20
-11.8398380000000003
11
-1.8458949999999998
21
-11.7446000000000002
0
LINE
8
BLACK
6
CONTINUOUS
10
-1.8458949999999998
20
-11.7446000000000002
11
-1.941133
21
-11.649360999999999
0
LINE
8
BLACK
6
CONTINUOUS
10
-1.941133
20
-11.649360999999999
11
-2.0363709999999999
21
-11.4588849999999987
0
LINE
8
BLACK
6
CONTINUOUS
10
-2.0363709999999999
20
-11.4588849999999987
11
-2.1316090000000001
21
-11.0779329999999998
0
LINE
8
BLACK
6
CONTINUOUS
10
-2.1316090000000001
20
-11.0779329999999998
11
-2.1316090000000001
21
-10.6017419999999998
0
LINE
8
BLACK
6
CONTINUOUS
10
-2.1316090000000001
20
-10.6017419999999998
11
-2.0363709999999999
21
-10.2207899999999992
0
LINE
8
BLACK
6
CONTINUOUS
10
-2.0363709999999999
20
-10.2207899999999992
11
-1.941133
21
-10.0303139999999988
0
LINE
8
BLACK
6
CONTINUOUS
10
-1.941133
20
-10.0303139999999988
11
-1.8458949999999998
21
-9.9350759999999987
0
LINE
8
BLACK
6
CONTINUOUS
10
-1.8458949999999998
20
-9.9350759999999987
11
-1.655419
21
-9.8398380000000003
0
LINE
8
BLACK
6
CONTINUOUS
10
-0.131609
20
-11.649360999999999
11
-0.036371
21
-11.7446000000000002
0
LINE
8
BLACK
6
CONTINUOUS
10
-0.036371
20
-11.7446000000000002
11
-0.131609
21
-11.8398380000000003
0
LINE
8
BLACK
6
CONTINUOUS
10
-0.131609
20
-11.8398380000000003
11
-0.226847
21
-11.7446000000000002
0
LINE
8
BLACK
6
CONTINUOUS
10
-0.226847
20
-11.7446000000000002
11
-0.131609
21
-11.649360999999999
0
LINE
8
BLACK
6
CONTINUOUS
10
-0.131609
20
-11.649360999999999
11
-0.131609
21
-11.8398380000000003
0
LINE
8
BLACK
6
CONTINUOUS
10
1.1064859999999999
20
-10.6969799999999999
11
0.91601
21
-10.6017419999999998
0
LINE
8
BLACK
6
CONTINUOUS
10
0.91601
20
-10.6017419999999998
11
0.8207719999999999
21
-10.5065039999999996
0
LINE
8
BLACK
6
CONTINUOUS
10
0.8207719999999999
20
-10.5065039999999996
11
0.725534
21
-10.3160279999999993
0
LINE
8
BLACK
6
CONTINUOUS
10
0.725534
20
-10.3160279999999993
11
0.725534
21
-10.2207899999999992
0
LINE
8
BLACK
6
CONTINUOUS
10
0.725534
20
-10.2207899999999992
11
0.8207719999999999
21
-10.0303139999999988
0
LINE
8
BLACK
6
CONTINUOUS
10
0.8207719999999999
20
-10.0303139999999988
11
0.91601
21
-9.9350759999999987
0
LINE
8
BLACK
6
CONTINUOUS
10
0.91601
20
-9.9350759999999987
11
1.1064859999999999
21
-9.8398380000000003
0
LINE
8
BLACK
6
CONTINUOUS
10
1.1064859999999999
20
-9.8398380000000003
11
1.487439
21
-9.8398380000000003
0
LINE
8
BLACK
6
CONTINUOUS
10
1.487439
20
-9.8398380000000003
11
1.6779149999999998
21
-9.9350759999999987
0
LINE
8
BLACK
6
CONTINUOUS
10
1.6779149999999998
20
-9.9350759999999987
11
1.773153
21
-10.0303139999999988
0
LINE
8
BLACK
6
CONTINUOUS
10
1.773153
20
-10.0303139999999988
11
1.8683909999999999
21
-10.2207899999999992
0
LINE
8
BLACK
6
CONTINUOUS
10
1.8683909999999999
20
-10.2207899999999992
11
1.8683909999999999
21
-10.3160279999999993
0
LINE
8
BLACK
6
CONTINUOUS
10
1.8683909999999999
20
-10.3160279999999993
11
1.773153
21
-10.5065039999999996
0
LINE
8
BLACK
6
CONTINUOUS
10
1.773153
20
-10.5065039999999996
11
1.6779149999999998
21
-10.6017419999999998
0
LINE
8
BLACK
6
CONTINUOUS
10
1.6779149999999998
20
-10.6017419999999998
11
1.487439
21
-10.6969799999999999
0
LINE
8
BLACK
6
CONTINUOUS
10
1.487439
20
-10.6969799999999999
11
1.1064859999999999
21
-10.6969799999999999
0
LINE
8
BLACK
6
CONTINUOUS
10
1.1064859999999999
20
-10.6969799999999999
11
0.91601
21
-10.7922189999999993
0
LINE
8
BLACK
6
CONTINUOUS
10
0.91601
20
-10.7922189999999993
11
0.8207719999999999
21
-10.8874569999999995
0
LINE
8
BLACK
6
CONTINUOUS
10
0.8207719999999999
20
-10.8874569999999995
11
0.725534
21
-11.0779329999999998
0
LINE
8
BLACK
6
CONTINUOUS
10
0.725534
20
-11.0779329999999998
11
0.725534
21
-11.4588849999999987
0
LINE
8
BLACK
6
CONTINUOUS
10
0.725534
20
-11.4588849999999987
11
0.8207719999999999
21
-11.649360999999999
0
LINE
8
BLACK
6
CONTINUOUS
10
0.8207719999999999
20
-11.649360999999999
11
0.91601
21
-11.7446000000000002
0
LINE
8
BLACK
6
CONTINUOUS
10
0.91601
20
-11.7446000000000002
11
1.1064859999999999
21
-11.8398380000000003
0
LINE
8
BLACK
6
CONTINUOUS
10
1.1064859999999999
20
-11.8398380000000003
11
1.487439
21
-11.8398380000000003
0
LINE
8
BLACK
6
CONTINUOUS
10
1.487439
20
-11.8398380000000003
11
1.6779149999999998
21
-11.7446000000000002
0
LINE
8
BLACK
6
CONTINUOUS
10
1.6779149999999998
20
-11.7446000000000002
11
1.773153
21
-11.649360999999999
0
LINE
8
BLACK
6
CONTINUOUS
10
1.773153
20
-11.649360999999999
11
1.8683909999999999
21
-11.4588849999999987
0
LINE
8
BLACK
6
CONTINUOUS
10
1.8683909999999999
20
-11.4588849999999987
11
1.8683909999999999
21
-11.0779329999999998
0
LINE
8
BLACK
6
CONTINUOUS
10
1.8683909999999999
20
-11.0779329999999998
11
1.773153
21
-10.8874569999999995
0
LINE
8
BLACK
6
CONTINUOUS
10
1.773153
20
-10.8874569999999995
11
1.6779149999999998
21
-10.7922189999999993
0
LINE
8
BLACK
6
CONTINUOUS
10
1.6779149999999998
20
-10.7922189999999993
11
1.487439
21
-10.6969799999999999
0
LINE
8
BLACK
6
CONTINUOUS
10
3.1064859999999999
20
-9.8398380000000003
11
3.2969629999999999
21
-9.8398380000000003
0
LINE
8
BLACK
6
CONTINUOUS
10
3.2969629999999999
20
-9.8398380000000003
11
3.4874389999999997
21
-9.9350759999999987
0
LINE
8
BLACK
6
CONTINUOUS
10
3.4874389999999997
20
-9.9350759999999987
11
3.5826769999999999
21
-10.0303139999999988
0
LINE
8
BLACK
6
CONTINUOUS
10
3.5826769999999999
20
-10.0303139999999988
11
3.677915
21
-10.2207899999999992
0
LINE
8
BLACK
6
CONTINUOUS
10
3.677915
20
-10.2207899999999992
11
3.7731529999999998
21
-10.6017419999999998
0
LINE
8
BLACK
6
CONTINUOUS
10
3.7731529999999998
20
-10.6017419999999998
11
3.7731529999999998
21
-11.0779329999999998
0
LINE
8
BLACK
6
CONTINUOUS
10
3.7731529999999998
20
-11.0779329999999998
11
3.677915
21
-11.4588849999999987
0
LINE
8
BLACK
6
CONTINUOUS
10
3.677915
20
-11.4588849999999987
11
3.5826769999999999
21
-11.649360999999999
0
LINE
8
BLACK
6
CONTINUOUS
10
3.5826769999999999
20
-11.649360999999999
11
3.4874389999999997
21
-11.7446000000000002
0
LINE
8
BLACK
6
CONTINUOUS
10
3.4874389999999997
20
-11.7446000000000002
11
3.2969629999999999
21
-11.8398380000000003
0
LINE
8
BLACK
6
CONTINUOUS
10
3.2969629999999999
20
-11.8398380000000003
11
3.1064859999999999
21
-11.8398380000000003
0
LINE
8
BLACK
6
CONTINUOUS
10
3.1064859999999999
20
-11.8398380000000003
11
2.91601
21
-11.7446000000000002
0
LINE
8
BLACK
6
CONTINUOUS
10
2.91601
20
-11.7446000000000002
11
2.8207719999999998
21
-11.649360999999999
0
LINE
8
BLACK
6
CONTINUOUS
10
2.8207719999999998
20
-11.649360999999999
11
2.7255339999999997
21
-11.4588849999999987
0
LINE
8
BLACK
6
CONTINUOUS
10
2.7255339999999997
20
-11.4588849999999987
11
2.630296
21
-11.0779329999999998
0
LINE
8
BLACK
6
CONTINUOUS
10
2.630296
20
-11.0779329999999998
11
2.630296
21
-10.6017419999999998
0
LINE
8
BLACK
6
CONTINUOUS
10
2.630296
20
-10.6017419999999998
11
2.7255339999999997
21
-10.2207899999999992
0
LINE
8
BLACK
6
CONTINUOUS
10
2.7255339999999997
20
-10.2207899999999992
11
2.8207719999999998
21
-10.0303139999999988
0
LINE
8
BLACK
6
CONTINUOUS
10
2.8207719999999998
20
-10.0303139999999988
11
2.91601
21
-9.9350759999999987
0
LINE
8
BLACK
6
CONTINUOUS
10
2.91601
20
-9.9350759999999987
11
3.1064859999999999
21
-9.8398380000000003
0
LINE
8
BLACK
6
CONTINUOUS
10
5.0112480000000001
20
-9.8398380000000003
11
5.2017249999999997
21
-9.8398380000000003
0
LINE
8
BLACK
6
CONTINUOUS
10
5.2017249999999997
20
-9.8398380000000003
11
5.392201
21
-9.9350759999999987
0
LINE
8
BLACK
6
CONTINUOUS
10
5.392201
20
-9.9350759999999987
11
5.4874390000000002
21
-10.0303139999999988
0
LINE
8
BLACK
6
CONTINUOUS
10
5.4874390000000002
20
-10.0303139999999988
11
5.5826769999999994
21
-10.2207899999999992
0
LINE
8
BLACK
6
CONTINUOUS
10
5.5826769999999994
20
-10.2207899999999992
11
5.6779149999999996
21
-10.6017419999999998
0
LINE
8
BLACK
6
CONTINUOUS
10
5.6779149999999996
20
-10.6017419999999998
11
5.6779149999999996
21
-11.0779329999999998
0
LINE
8
BLACK
6
CONTINUOUS
10
5.6779149999999996
20
-11.0779329999999998
11
5.5826769999999994
21
-11.4588849999999987
0
LINE
8
BLACK
6
CONTINUOUS
10
5.5826769999999994
20
-11.4588849999999987
11
5.4874390000000002
21
-11.649360999999999
0
LINE
8
BLACK
6
CONTINUOUS
10
5.4874390000000002
20
-11.649360999999999
11
5.392201
21
-11.7446000000000002
0
LINE
8
BLACK
6
CONTINUOUS
10
5.392201
20
-11.7446000000000002
11
5.2017249999999997
21
-11.8398380000000003
0
LINE
8
BLACK
6
CONTINUOUS
10
5.2017249999999997
20
-11.8398380000000003
11
5.0112480000000001
21
-11.8398380000000003
0
LINE
8
BLACK
6
CONTINUOUS
10
5.0112480000000001
20
-11.8398380000000003
11
4.8207719999999998
21
-11.7446000000000002
0
LINE
8
BLACK
6
CONTINUOUS
10
4.8207719999999998
20
-11.7446000000000002
11
4.7255339999999997
21
-11.649360999999999
0
LINE
8
BLACK
6
CONTINUOUS
10
4.7255339999999997
20
-11.649360999999999
11
4.6302959999999995
21
-11.4588849999999987
0
LINE
8
BLACK
6
CONTINUOUS
10
4.6302959999999995
20
-11.4588849999999987
11
4.5350579999999994
21
-11.0779329999999998
0
LINE
8
BLACK
6
CONTINUOUS
10
4.5350579999999994
20
-11.0779329999999998
11
4.5350579999999994
21
-10.6017419999999998
0
LINE
8
BLACK
6
CONTINUOUS
10
4.5350579999999994
20
-10.6017419999999998
11
4.6302959999999995
21
-10.2207899999999992
0
LINE
8
BLACK
6
CONTINUOUS
10
4.6302959999999995
20
-10.2207899999999992
11
4.7255339999999997
21
-10.0303139999999988
0
LINE
8
BLACK
6
CONTINUOUS
10
4.7255339999999997
20
-10.0303139999999988
11
4.8207719999999998
21
-9.9350759999999987
0
LINE
8
BLACK
6
CONTINUOUS
10
4.8207719999999998
20
-9.9350759999999987
11
5.0112480000000001
21
-9.8398380000000003
0
LINE
8
BLACK
6
CONTINUOUS
10
6.5350579999999994
20
-11.8398380000000003
11
6.5350579999999994
21
-10.5065039999999996
0
LINE
8
BLACK
6
CONTINUOUS
10
6.5350579999999994
20
-10.6969799999999999
11
6.6302959999999995
21
-10.6017419999999998
0
LINE
8
BLACK
6
CONTINUOUS
10
6.6302959999999995
20
-10.6017419999999998
11
6.8207719999999998
21
-10.5065039999999996
0
LINE
8
BLACK
6
CONTINUOUS
10
6.8207719999999998
20
-10.5065039999999996
11
7.1064869999999996
21
-10.5065039999999996
0
LINE
8
BLACK
6
CONTINUOUS
10
7.1064869999999996
20
-10.5065039999999996
11
7.2969629999999999
21
-10.6017419999999998
0
LINE
8
BLACK
6
CONTINUOUS
10
7.2969629999999999
20
-10.6017419999999998
11
7.392201
21
-10.7922189999999993
0
LINE
8
BLACK
6
CONTINUOUS
10
7.392201
20
-10.7922189999999993
11
7.392201
21
-11.8398380000000003
0
LINE
8
BLACK
6
CONTINUOUS
10
7.392201
20
-10.7922189999999993
11
7.4874389999999993
21
-10.6017419999999998
0
LINE
8
BLACK
6
CONTINUOUS
10
7.4874389999999993
20
-10.6017419999999998
11
7.6779149999999996
21
-10.5065039999999996
0
LINE
8
BLACK
6
CONTINUOUS
10
7.6779149999999996
20
-10.5065039999999996
11
7.9636290000000001
21
-10.5065039999999996
0
LINE
8
BLACK
6
CONTINUOUS
10
7.9636290000000001
20
-10.5065039999999996
11
8.1541059999999987
21
-10.6017419999999998
0
LINE
8
BLACK
6
CONTINUOUS
10
8.1541059999999987
20
-10.6017419999999998
11
8.2493439999999989
21
-10.7922189999999993
0
LINE
8
BLACK
6
CONTINUOUS
10
8.2493439999999989
20
-10.7922189999999993
11
8.2493439999999989
21
-11.8398380000000003
0
LINE
8
BLACK
6
CONTINUOUS
10
9.2017249999999997
20
-11.8398380000000003
11
9.2017249999999997
21
-10.5065039999999996
0
LINE
8
BLACK
6
CONTINUOUS
10
9.2017249999999997
20
-10.6969799999999999
11
9.2969629999999999
21
-10.6017419999999998
0
LINE
8
BLACK
6
CONTINUOUS
10
9.2969629999999999
20
-10.6017419999999998
11
9.4874390000000002
21
-10.5065039999999996
0
LINE
8
BLACK
6
CONTINUOUS
10
9.4874390000000002
20
-10.5065039999999996
11
9.7731539999999999
21
-10.5065039999999996
0
LINE
8
BLACK
6
CONTINUOUS
10
9.7731539999999999
20
-10.5065039999999996
11
9.9636300000000002
21
-10.6017419999999998
0
LINE
8
BLACK
6
CONTINUOUS
10
9.9636300000000002
20
-10.6017419999999998
11
10.0588680000000004
21
-10.7922189999999993
0
LINE
8
BLACK
6
CONTINUOUS
10
10.0588680000000004
20
-10.7922189999999993
11
10.0588680000000004
21
-11.8398380000000003
0
LINE
8
BLACK
6
CONTINUOUS
10
10.0588680000000004
20
-10.7922189999999993
11
10.1541059999999987
21
-10.6017419999999998
0
LINE
8
BLACK
6
CONTINUOUS
10
10.1541059999999987
20
-10.6017419999999998
11
10.3445819999999991
21
-10.5065039999999996
0
LINE
8
BLACK
6
CONTINUOUS
10
10.3445819999999991
20
-10.5065039999999996
11
10.6302959999999995
21
-10.5065039999999996
0
LINE
8
BLACK
6
CONTINUOUS
10
10.6302959999999995
20
-10.5065039999999996
11
10.8207729999999991
21
-10.6017419999999998
0
LINE
8
BLACK
6
CONTINUOUS
10
10.8207729999999991
20
-10.6017419999999998
11
10.9160109999999992
21
-10.7922189999999993
0
LINE
8
BLACK
6
CONTINUOUS
10
10.9160109999999992
20
-10.7922189999999993
11
10.9160109999999992
21
-11.8398380000000003
0
LINE
8
BLACK
6
CONTINUOUS
10
14.8207729999999991
20
-9.7446000000000002
11
13.1064879999999988
21
-12.3160279999999993
0
LINE
8
BLACK
6
CONTINUOUS
10
17.3922019999999975
20
-9.8398380000000003
11
17.5826789999999988
21
-9.8398380000000003
0
LINE
8
BLACK
6
CONTINUOUS
10
17.5826789999999988
20
-9.8398380000000003
11
17.7731549999999991
21
-9.9350759999999987
0
LINE
8
BLACK
6
CONTINUOUS
10
17.7731549999999991
20
-9.9350759999999987
11
17.8683929999999975
21
-10.0303139999999988
0
LINE
8
BLACK
6
CONTINUOUS
10
17.8683929999999975
20
-10.0303139999999988
11
17.9636309999999995
21
-10.2207899999999992
0
LINE
8
BLACK
6
CONTINUOUS
10
17.9636309999999995
20
-10.2207899999999992
11
18.0588689999999978
21
-10.6017419999999998
0
LINE
8
BLACK
6
CONTINUOUS
10
18.0588689999999978
20
-10.6017419999999998
11
18.0588689999999978
21
-11.0779329999999998
0
LINE
8
BLACK
6
CONTINUOUS
10
18.0588689999999978
20
-11.0779329999999998
11
17.9636309999999995
21
-11.4588849999999987
0
LINE
8
BLACK
6
CONTINUOUS
10
17.9636309999999995
20
-11.4588849999999987
11
17.8683929999999975
21
-11.649360999999999
0
LINE
8
BLACK
6
CONTINUOUS
10
17.8683929999999975
20
-11.649360999999999
11
17.7731549999999991
21
-11.7446000000000002
0
LINE
8
BLACK
6
CONTINUOUS
10
17.7731549999999991
20
-11.7446000000000002
11
17.5826789999999988
21
-11.8398380000000003
0
LINE
8
BLACK
6
CONTINUOUS
10
17.5826789999999988
20
-11.8398380000000003
11
17.3922019999999975
21
-11.8398380000000003
0
LINE
8
BLACK
6
CONTINUOUS
10
17.3922019999999975
20
-11.8398380000000003
11
17.2017260000000007
21
-11.7446000000000002
0
LINE
8
BLACK
6
CONTINUOUS
10
17.2017260000000007
20
-11.7446000000000002
11
17.1064879999999988
21
-11.649360999999999
0
LINE
8
BLACK
6
CONTINUOUS
10
17.1064879999999988
20
-11.649360999999999
11
17.0112500000000004
21
-11.4588849999999987
0
LINE
8
BLACK
6
CONTINUOUS
10
17.0112500000000004
20
-11.4588849999999987
11
16.9160119999999985
21
-11.0779329999999998
0
LINE
8
BLACK
6
CONTINUOUS
10
16.9160119999999985
20
-11.0779329999999998
11
16.9160119999999985
21
-10.6017419999999998
0
LINE
8
BLACK
6
CONTINUOUS
10
16.9160119999999985
20
-10.6017419999999998
11
17.0112500000000004
21
-10.2207899999999992
0
LINE
8
BLACK
6
CONTINUOUS
10
17.0112500000000004
20
-10.2207899999999992
11
17.1064879999999988
21
-10.0303139999999988
0
LINE
8
BLACK
6
CONTINUOUS
10
17.1064879999999988
20
-10.0303139999999988
11
17.2017260000000007
21
-9.9350759999999987
0
LINE
8
BLACK
6
CONTINUOUS
10
17.2017260000000007
20
-9.9350759999999987
11
17.3922019999999975
21
-9.8398380000000003
0
LINE
8
BLACK
6
CONTINUOUS
10
18.9160119999999985
20
-11.649360999999999
11
19.0112500000000004
21
-11.7446000000000002
0
LINE
8
BLACK
6
CONTINUOUS
10
19.0112500000000004
20
-11.7446000000000002
11
18.9160119999999985
21
-11.8398380000000003
0
LINE
8
BLACK
6
CONTINUOUS
10
18.9160119999999985
20
-11.8398380000000003
11
18.8207740000000001
21
-11.7446000000000002
0
LINE
8
BLACK
6
CONTINUOUS
10
18.8207740000000001
20
-11.7446000000000002
11
18.9160119999999985
21
-11.649360999999999
0
LINE
8
BLACK
6
CONTINUOUS
10
18.9160119999999985
20
-11.649360999999999
11
18.9160119999999985
21
-11.8398380000000003
0
LINE
8
BLACK
6
CONTINUOUS
10
20.2493449999999982
20
-9.8398380000000003
11
20.4398219999999995
21
-9.8398380000000003
0
LINE
8
BLACK
6
CONTINUOUS
10
20.4398219999999995
20
-9.8398380000000003
11
20.6302979999999998
21
-9.9350759999999987
0
LINE
8
BLACK
6
CONTINUOUS
10
20.6302979999999998
20
-9.9350759999999987
11
20.7255359999999982
21
-10.0303139999999988
0
LINE
8
BLACK
6
CONTINUOUS
10
20.7255359999999982
20
-10.0303139999999988
11
20.8207740000000001
21
-10.2207899999999992
0
LINE
8
BLACK
6
CONTINUOUS
10
20.8207740000000001
20
-10.2207899999999992
11
20.9160119999999985
21
-10.6017419999999998
0
LINE
8
BLACK
6
CONTINUOUS
10
20.9160119999999985
20
-10.6017419999999998
11
20.9160119999999985
21
-11.0779329999999998
0
LINE
8
BLACK
6
CONTINUOUS
10
20.9160119999999985
20
-11.0779329999999998
11
20.8207740000000001
21
-11.4588849999999987
0
LINE
8
BLACK
6
CONTINUOUS
10
20.8207740000000001
20
-11.4588849999999987
11
20.7255359999999982
21
-11.649360999999999
0
LINE
8
BLACK
6
CONTINUOUS
10
20.7255359999999982
20
-11.649360999999999
11
20.6302979999999998
21
-11.7446000000000002
0
LINE
8
BLACK
6
CONTINUOUS
10
20.6302979999999998
20
-11.7446000000000002
11
20.4398219999999995
21
-11.8398380000000003
0
LINE
8
BLACK
6
CONTINUOUS
10
20.4398219999999995
20
-11.8398380000000003
11
20.2493449999999982
21
-11.8398380000000003
0
LINE
8
BLACK
6
CONTINUOUS
10
20.2493449999999982
20
-11.8398380000000003
11
20.0588689999999978
21
-11.7446000000000002
0
LINE
8
BLACK
6
CONTINUOUS
10
20.0588689999999978
20
-11.7446000000000002
11
19.9636309999999995
21
-11.649360999999999
0
LINE
8
BLACK
6
CONTINUOUS
10
19.9636309999999995
20
-11.649360999999999
11
19.8683929999999975
21
-11.4588849999999987
0
LINE
8
BLACK
6
CONTINUOUS
10
19.8683929999999975
20
-11.4588849999999987
11
19.7731549999999991
21
-11.0779329999999998
0
LINE
8
BLACK
6
CONTINUOUS
10
19.7731549999999991
20
-11.0779329999999998
11
19.7731549999999991
21
-10.6017419999999998
0
LINE
8
BLACK
6
CONTINUOUS
10
19.7731549999999991
20
-10.6017419999999998
11
19.8683929999999975
21
-10.2207899999999992
0
LINE
8
BLACK
6
CONTINUOUS
10
19.8683929999999975
20
-10.2207899999999992
11
19.9636309999999995
21
-10.0303139999999988
0
LINE
8
BLACK
6
CONTINUOUS
10
19.9636309999999995
20
-10.0303139999999988
11
20.0588689999999978
21
-9.9350759999999987
0
LINE
8
BLACK
6
CONTINUOUS
10
20.0588689999999978
20
-9.9350759999999987
11
20.2493449999999982
21
-9.8398380000000003
0
LINE
8
BLACK
6
CONTINUOUS
10
21.5826789999999988
20
-9.8398380000000003
11
22.8207740000000001
21
-9.8398380000000003
0
LINE
8
BLACK
6
CONTINUOUS
10
22.8207740000000001
20
-9.8398380000000003
11
22.1541069999999998
21
-10.6017419999999998
0
LINE
8
BLACK
6
CONTINUOUS
10
22.1541069999999998
20
-10.6017419999999998
11
22.4398219999999995
21
-10.6017419999999998
0
LINE
8
BLACK
6
CONTINUOUS
10
22.4398219999999995
20
-10.6017419999999998
11
22.6302979999999998
21
-10.6969799999999999
0
LINE
8
BLACK
6
CONTINUOUS
10
22.6302979999999998
20
-10.6969799999999999
11
22.7255359999999982
21
-10.7922189999999993
0
LINE
8
BLACK
6
CONTINUOUS
10
22.7255359999999982
20
-10.7922189999999993
11
22.8207740000000001
21
-10.9826949999999997
0
LINE
8
BLACK
6
CONTINUOUS
10
22.8207740000000001
20
-10.9826949999999997
11
22.8207740000000001
21
-11.4588849999999987
0
LINE
8
BLACK
6
CONTINUOUS
10
22.8207740000000001
20
-11.4588849999999987
11
22.7255359999999982
21
-11.649360999999999
0
LINE
8
BLACK
6
CONTINUOUS
10
22.7255359999999982
20
-11.649360999999999
11
22.6302979999999998
21
-11.7446000000000002
0
LINE
8
BLACK
6
CONTINUOUS
10
22.6302979999999998
20
-11.7446000000000002
11
22.4398219999999995
21
-11.8398380000000003
0
LINE
8
BLACK
6
CONTINUOUS
10
22.4398219999999995
20
-11.8398380000000003
11
21.8683929999999975
21
-11.8398380000000003
0
LINE
8
BLACK
6
CONTINUOUS
10
21.8683929999999975
20
-11.8398380000000003
11
21.6779170000000008
21
-11.7446000000000002
0
LINE
8
BLACK
6
CONTINUOUS
10
21.6779170000000008
20
-11.7446000000000002
11
21.5826789999999988
21
-11.649360999999999
0
LINE
8
BLACK
6
CONTINUOUS
10
24.7255359999999982
20
-11.8398380000000003
11
23.5826789999999988
21
-11.8398380000000003
0
LINE
8
BLACK
6
CONTINUOUS
10
24.1541069999999998
20
-11.8398380000000003
11
24.1541069999999998
21
-9.8398380000000003
0
LINE
8
BLACK
6
CONTINUOUS
10
24.1541069999999998
20
-9.8398380000000003
11
23.9636309999999995
21
-10.125551999999999
0
LINE
8
BLACK
6
CONTINUOUS
10
23.9636309999999995
20
-10.125551999999999
11
23.7731549999999991
21
-10.3160279999999993
0
LINE
8
BLACK
6
CONTINUOUS
10
23.7731549999999991
20
-10.3160279999999993
11
23.5826789999999988
21
-10.4112659999999995
0
LINE
8
BLACK
6
CONTINUOUS
10
26.5350599999999979
20
-9.8398380000000003
11
25.5826789999999988
21
-9.8398380000000003
0
LINE
8
BLACK
6
CONTINUOUS
10
25.5826789999999988
20
-9.8398380000000003
11
25.4874410000000005
21
-10.7922189999999993
0
LINE
8
BLACK
6
CONTINUOUS
10
25.4874410000000005
20
-10.7922189999999993
11
25.5826789999999988
21
-10.6969799999999999
0
LINE
8
BLACK
6
CONTINUOUS
10
25.5826789999999988
20
-10.6969799999999999
11
25.7731549999999991
21
-10.6017419999999998
0
LINE
8
BLACK
6
CONTINUOUS
10
25.7731549999999991
20
-10.6017419999999998
11
26.2493459999999992
21
-10.6017419999999998
0
LINE
8
BLACK
6
CONTINUOUS
10
26.2493459999999992
20
-10.6017419999999998
11
26.4398219999999995
21
-10.6969799999999999
0
LINE
8
BLACK
6
CONTINUOUS
10
26.4398219999999995
20
-10.6969799999999999
11
26.5350599999999979
21
-10.7922189999999993
0
LINE
8
BLACK
6
CONTINUOUS
10
26.5350599999999979
20
-10.7922189999999993
11
26.6302979999999998
21
-10.9826949999999997
0
LINE
8
BLACK
6
CONTINUOUS
10
26.6302979999999998
20
-10.9826949999999997
11
26.6302979999999998
21
-11.4588849999999987
0
LINE
8
BLACK
6
CONTINUOUS
10
26.6302979999999998
20
-11.4588849999999987
11
26.5350599999999979
21
-11.649360999999999
0
LINE
8
BLACK
6
CONTINUOUS
10
26.5350599999999979
20
-11.649360999999999
11
26.4398219999999995
21
-11.7446000000000002
0
LINE
8
BLACK
6
CONTINUOUS
10
26.4398219999999995
20
-11.7446000000000002
11
26.2493459999999992
21
-11.8398380000000003
0
LINE
8
BLACK
6
CONTINUOUS
10
26.2493459999999992
20
-11.8398380000000003
11
25.7731549999999991
21
-11.8398380000000003
0
LINE
8
BLACK
6
CONTINUOUS
10
25.7731549999999991
20
-11.8398380000000003
11
25.5826789999999988
21
-11.7446000000000002
0
LINE
8
BLACK
6
CONTINUOUS
10
25.5826789999999988
20
-11.7446000000000002
11
25.4874410000000005
21
-11.649360999999999
0
LINE
8
BLACK
6
CONTINUOUS
10
27.3922029999999985
20
-9.8398380000000003
11
27.3922029999999985
21
-10.2207899999999992
0
LINE
8
BLACK
6
CONTINUOUS
10
28.1541079999999972
20
-9.8398380000000003
11
28.1541079999999972
21
-10.2207899999999992
0
LINE
8
BLACK
6
CONTINUOUS
10
31.1064899999999973
20
-12.6017419999999998
11
31.0112509999999979
21
-12.5065039999999996
0
LINE
8
BLACK
6
CONTINUOUS
10
31.0112509999999979
20
-12.5065039999999996
11
30.8207749999999976
21
-12.2207899999999992
0
LINE
8
BLACK
6
CONTINUOUS
10
30.8207749999999976
20
-12.2207899999999992
11
30.7255369999999992
21
-12.0303139999999988
0
LINE
8
BLACK
6
CONTINUOUS
10
30.7255369999999992
20
-12.0303139999999988
11
30.6302989999999973
21
-11.7446000000000002
0
LINE
8
BLACK
6
CONTINUOUS
10
30.6302989999999973
20
-11.7446000000000002
11
30.5350609999999989
21
-11.2684090000000001
0
LINE
8
BLACK
6
CONTINUOUS
10
30.5350609999999989
20
-11.2684090000000001
11
30.5350609999999989
21
-10.8874569999999995
0
LINE
8
BLACK
6
CONTINUOUS
10
30.5350609999999989
20
-10.8874569999999995
11
30.6302989999999973
21
-10.4112659999999995
0
LINE
8
BLACK
6
CONTINUOUS
10
30.6302989999999973
20
-10.4112659999999995
11
30.7255369999999992
21
-10.125551999999999
0
LINE
8
BLACK
6
CONTINUOUS
10
30.7255369999999992
20
-10.125551999999999
11
30.8207749999999976
21
-9.9350759999999987
0
LINE
8
BLACK
6
CONTINUOUS
10
30.8207749999999976
20
-9.9350759999999987
11
31.0112509999999979
21
-9.649360999999999
0
LINE
8
BLACK
6
CONTINUOUS
10
31.0112509999999979
20
-9.649360999999999
11
31.1064899999999973
21
-9.5541229999999988
0
LINE
8
BLACK
6
CONTINUOUS
10
32.7255369999999957
20
-10.5065039999999996
11
32.7255369999999957
21
-11.8398380000000003
0
LINE
8
BLACK
6
CONTINUOUS
10
32.2493459999999956
20
-9.7446000000000002
11
31.7731560000000002
21
-11.173171
0
LINE
8
BLACK
6
CONTINUOUS
10
31.7731560000000002
20
-11.173171
11
33.0112510000000015
21
-11.173171
0
LINE
8
BLACK
6
CONTINUOUS
10
34.0588699999999989
20
-10.6969799999999999
11
33.868393999999995
21
-10.6017419999999998
0
LINE
8
BLACK
6
CONTINUOUS
10
33.868393999999995
20
-10.6017419999999998
11
33.7731560000000002
21
-10.5065039999999996
0
LINE
8
BLACK
6
CONTINUOUS
10
33.7731560000000002
20
-10.5065039999999996
11
33.6779179999999982
21
-10.3160279999999993
0
LINE
8
BLACK
6
CONTINUOUS
10
33.6779179999999982
20
-10.3160279999999993
11
33.6779179999999982
21
-10.2207899999999992
0
LINE
8
BLACK
6
CONTINUOUS
10
33.6779179999999982
20
-10.2207899999999992
11
33.7731560000000002
21
-10.0303139999999988
0
LINE
8
BLACK
6
CONTINUOUS
10
33.7731560000000002
20
-10.0303139999999988
11
33.868393999999995
21
-9.9350759999999987
0
LINE
8
BLACK
6
CONTINUOUS
10
33.868393999999995
20
-9.9350759999999987
11
34.0588699999999989
21
-9.8398380000000003
0
LINE
8
BLACK
6
CONTINUOUS
10
34.0588699999999989
20
-9.8398380000000003
11
34.439822999999997
21
-9.8398380000000003
0
LINE
8
BLACK
6
CONTINUOUS
10
34.439822999999997
20
-9.8398380000000003
11
34.6302990000000008
21
-9.9350759999999987
0
LINE
8
BLACK
6
CONTINUOUS
10
34.6302990000000008
20
-9.9350759999999987
11
34.7255369999999957
21
-10.0303139999999988
0
LINE
8
BLACK
6
CONTINUOUS
10
34.7255369999999957
20
-10.0303139999999988
11
34.8207749999999976
21
-10.2207899999999992
0
LINE
8
BLACK
6
CONTINUOUS
10
34.8207749999999976
20
-10.2207899999999992
11
34.8207749999999976
21
-10.3160279999999993
0
LINE
8
BLACK
6
CONTINUOUS
10
34.8207749999999976
20
-10.3160279999999993
11
34.7255369999999957
21
-10.5065039999999996
0
LINE
8
BLACK
6
CONTINUOUS
10
34.7255369999999957
20
-10.5065039999999996
11
34.6302990000000008
21
-10.6017419999999998
0
LINE
8
BLACK
6
CONTINUOUS
10
34.6302990000000008
20
-10.6017419999999998
11
34.439822999999997
21
-10.6969799999999999
0
LINE
8
BLACK
6
CONTINUOUS
10
34.439822999999997
20
-10.6969799999999999
11
34.0588699999999989
21
-10.6969799999999999
0
LINE
8
BLACK
6
CONTINUOUS
10
34.0588699999999989
20
-10.6969799999999999
11
33.868393999999995
21
-10.7922189999999993
0
LINE
8
BLACK
6
CONTINUOUS
10
33.868393999999995
20
-10.7922189999999993
11
33.7731560000000002
21
-10.8874569999999995
0
LINE
8
BLACK
6
CONTINUOUS
10
33.7731560000000002
20
-10.8874569999999995
11
33.6779179999999982
21
-11.0779329999999998
0
LINE
8
BLACK
6
CONTINUOUS
10
33.6779179999999982
20
-11.0779329999999998
11
33.6779179999999982
21
-11.4588849999999987
0
LINE
8
BLACK
6
CONTINUOUS
10
33.6779179999999982
20
-11.4588849999999987
11
33.7731560000000002
21
-11.649360999999999
0
LINE
8
BLACK
6
CONTINUOUS
10
33.7731560000000002
20
-11.649360999999999
11
33.868393999999995
21
-11.7446000000000002
0
LINE
8
BLACK
6
CONTINUOUS
10
33.868393999999995
20
-11.7446000000000002
11
34.0588699999999989
21
-11.8398380000000003
0
LINE
8
BLACK
6
CONTINUOUS
10
34.0588699999999989
20
-11.8398380000000003
11
34.439822999999997
21
-11.8398380000000003
0
LINE
8
BLACK
6
CONTINUOUS
10
34.439822999999997
20
-11.8398380000000003
11
34.6302990000000008
21
-11.7446000000000002
0
LINE
8
BLACK
6
CONTINUOUS
10
34.6302990000000008
20
-11.7446000000000002
11
34.7255369999999957
21
-11.649360999999999
0
LINE
8
BLACK
6
CONTINUOUS
10
34.7255369999999957
20
-11.649360999999999
11
34.8207749999999976
21
-11.4588849999999987
0
LINE
8
BLACK
6
CONTINUOUS
10
34.8207749999999976
20
-11.4588849999999987
11
34.8207749999999976
21
-11.0779329999999998
0
LINE
8
BLACK
6
CONTINUOUS
10
34.8207749999999976
20
-11.0779329999999998
11
34.7255369999999957
21
-10.8874569999999995
0
LINE
8
BLACK
6
CONTINUOUS
10
34.7255369999999957
20
-10.8874569999999995
11
34.6302990000000008
21
-10.7922189999999993
0
LINE
8
BLACK
6
CONTINUOUS
10
34.6302990000000008
20
-10.7922189999999993
11
34.439822999999997
21
-10.6969799999999999
0
LINE
8
BLACK
6
CONTINUOUS
10
37.2017279999999957
20
-11.8398380000000003
11
37.2017279999999957
21
-9.8398380000000003
0
LINE
8
BLACK
6
CONTINUOUS
10
38.0588709999999963
20
-11.8398380000000003
11
38.0588709999999963
21
-10.7922189999999993
0
LINE
8
BLACK
6
CONTINUOUS
10
38.0588709999999963
20
-10.7922189999999993
11
37.9636330000000015
21
-10.6017419999999998
0
LINE
8
BLACK
6
CONTINUOUS
10
37.9636330000000015
20
-10.6017419999999998
11
37.7731569999999977
21
-10.5065039999999996
0
LINE
8
BLACK
6
CONTINUOUS
10
37.7731569999999977
20
-10.5065039999999996
11
37.4874420000000015
21
-10.5065039999999996
0
LINE
8
BLACK
6
CONTINUOUS
10
37.4874420000000015
20
-10.5065039999999996
11
37.2969659999999976
21
-10.6017419999999998
0
LINE
8
BLACK
6
CONTINUOUS
10
37.2969659999999976
20
-10.6017419999999998
11
37.2017279999999957
21
-10.6969799999999999
0
LINE
8
BLACK
6
CONTINUOUS
10
39.2969659999999976
20
-11.8398380000000003
11
39.1064900000000009
21
-11.7446000000000002
0
LINE
8
BLACK
6
CONTINUOUS
10
39.1064900000000009
20
-11.7446000000000002
11
39.0112519999999989
21
-11.649360999999999
0
LINE
8
BLACK
6
CONTINUOUS
10
39.0112519999999989
20
-11.649360999999999
11
38.916013999999997
21
-11.4588849999999987
0
LINE
8
BLACK
6
CONTINUOUS
10
38.916013999999997
20
-11.4588849999999987
11
38.916013999999997
21
-10.8874569999999995
0
LINE
8
BLACK
6
CONTINUOUS
10
38.916013999999997
20
-10.8874569999999995
11
39.0112519999999989
21
-10.6969799999999999
0
LINE
8
BLACK
6
CONTINUOUS
10
39.0112519999999989
20
-10.6969799999999999
11
39.1064900000000009
21
-10.6017419999999998
0
LINE
8
BLACK
6
CONTINUOUS
10
39.1064900000000009
20
-10.6017419999999998
11
39.2969659999999976
21
-10.5065039999999996
0
LINE
8
BLACK
6
CONTINUOUS
10
39.2969659999999976
20
-10.5065039999999996
11
39.5826810000000009
21
-10.5065039999999996
0
LINE
8
BLACK
6
CONTINUOUS
10
39.5826810000000009
20
-10.5065039999999996
11
39.7731569999999977
21
-10.6017419999999998
0
LINE
8
BLACK
6
CONTINUOUS
10
39.7731569999999977
20
-10.6017419999999998
11
39.8683949999999996
21
-10.6969799999999999
0
LINE
8
BLACK
6
CONTINUOUS
10
39.8683949999999996
20
-10.6969799999999999
11
39.9636330000000015
21
-10.8874569999999995
0
LINE
8
BLACK
6
CONTINUOUS
10
39.9636330000000015
20
-10.8874569999999995
11
39.9636330000000015
21
-11.4588849999999987
0
LINE
8
BLACK
6
CONTINUOUS
10
39.9636330000000015
20
-11.4588849999999987
11
39.8683949999999996
21
-11.649360999999999
0
LINE
8
BLACK
6
CONTINUOUS
10
39.8683949999999996
20
-11.649360999999999
11
39.7731569999999977
21
-11.7446000000000002
0
LINE
8
BLACK
6
CONTINUOUS
10
39.7731569999999977
20
-11.7446000000000002
11
39.5826810000000009
21
-11.8398380000000003
0
LINE
8
BLACK
6
CONTINUOUS
10
39.5826810000000009
20
-11.8398380000000003
11
39.2969659999999976
21
-11.8398380000000003
0
LINE
8
BLACK
6
CONTINUOUS
10
41.1064900000000009
20
-11.8398380000000003
11
40.916013999999997
21
-11.7446000000000002
0
LINE
8
BLACK
6
CONTINUOUS
10
40.916013999999997
20
-11.7446000000000002
11
40.8207759999999951
21
-11.5541229999999988
0
LINE
8
BLACK
6
CONTINUOUS
10
40.8207759999999951
20
-11.5541229999999988
11
40.8207759999999951
21
-9.8398380000000003
0
LINE
8
BLACK
6
CONTINUOUS
10
42.6302999999999983
20
-11.7446000000000002
11
42.4398240000000015
21
-11.8398380000000003
0
LINE
8
BLACK
6
CONTINUOUS
10
42.4398240000000015
20
-11.8398380000000003
11
42.0588709999999963
21
-11.8398380000000003
0
LINE
8
BLACK
6
CONTINUOUS
10
42.0588709999999963
20
-11.8398380000000003
11
41.8683949999999996
21
-11.7446000000000002
0
LINE
8
BLACK
6
CONTINUOUS
10
41.8683949999999996
20
-11.7446000000000002
11
41.7731569999999977
21
-11.5541229999999988
0
LINE
8
BLACK
6
CONTINUOUS
10
41.7731569999999977
20
-11.5541229999999988
11
41.7731569999999977
21
-10.7922189999999993
0
LINE
8
BLACK
6
CONTINUOUS
10
41.7731569999999977
20
-10.7922189999999993
11
41.8683949999999996
21
-10.6017419999999998
0
LINE
8
BLACK
6
CONTINUOUS
10
41.8683949999999996
20
-10.6017419999999998
11
42.0588709999999963
21
-10.5065039999999996
0
LINE
8
BLACK
6
CONTINUOUS
10
42.0588709999999963
20
-10.5065039999999996
11
42.4398240000000015
21
-10.5065039999999996
0
LINE
8
BLACK
6
CONTINUOUS
10
42.4398240000000015
20
-10.5065039999999996
11
42.6302999999999983
21
-10.6017419999999998
0
LINE
8
BLACK
6
CONTINUOUS
10
42.6302999999999983
20
-10.6017419999999998
11
42.7255380000000002
21
-10.7922189999999993
0
LINE
8
BLACK
6
CONTINUOUS
10
42.7255380000000002
20
-10.7922189999999993
11
42.7255380000000002
21
-10.9826949999999997
0
LINE
8
BLACK
6
CONTINUOUS
10
42.7255380000000002
20
-10.9826949999999997
11
41.7731569999999977
21
-11.173171
0
LINE
8
BLACK
6
CONTINUOUS
10
43.487442999999999
20
-11.7446000000000002
11
43.6779189999999957
21
-11.8398380000000003
0
LINE
8
BLACK
6
CONTINUOUS
10
43.6779189999999957
20
-11.8398380000000003
11
44.0588709999999963
21
-11.8398380000000003
0
LINE
8
BLACK
6
CONTINUOUS
10
44.0588709999999963
20
-11.8398380000000003
11
44.2493479999999977
21
-11.7446000000000002
0
LINE
8
BLACK
6
CONTINUOUS
10
44.2493479999999977
20
-11.7446000000000002
11
44.3445859999999996
21
-11.5541229999999988
0
LINE
8
BLACK
6
CONTINUOUS
10
44.3445859999999996
20
-11.5541229999999988
11
44.3445859999999996
21
-11.4588849999999987
0
LINE
8
BLACK
6
CONTINUOUS
10
44.3445859999999996
20
-11.4588849999999987
11
44.2493479999999977
21
-11.2684090000000001
0
LINE
8
BLACK
6
CONTINUOUS
10
44.2493479999999977
20
-11.2684090000000001
11
44.0588709999999963
21
-11.173171
0
LINE
8
BLACK
6
CONTINUOUS
10
44.0588709999999963
20
-11.173171
11
43.7731569999999977
21
-11.173171
0
LINE
8
BLACK
6
CONTINUOUS
10
43.7731569999999977
20
-11.173171
11
43.5826810000000009
21
-11.0779329999999998
0
LINE
8
BLACK
6
CONTINUOUS
10
43.5826810000000009
20
-11.0779329999999998
11
43.487442999999999
21
-10.8874569999999995
0
LINE
8
BLACK
6
CONTINUOUS
10
43.487442999999999
20
-10.8874569999999995
11
43.487442999999999
21
-10.7922189999999993
0
LINE
8
BLACK
6
CONTINUOUS
10
43.487442999999999
20
-10.7922189999999993
11
43.5826810000000009
21
-10.6017419999999998
0
LINE
8
BLACK
6
CONTINUOUS
10
43.5826810000000009
20
-10.6017419999999998
11
43.7731569999999977
21
-10.5065039999999996
0
LINE
8
BLACK
6
CONTINUOUS
10
43.7731569999999977
20
-10.5065039999999996
11
44.0588709999999963
21
-10.5065039999999996
0
LINE
8
BLACK
6
CONTINUOUS
10
44.0588709999999963
20
-10.5065039999999996
11
44.2493479999999977
21
-10.6017419999999998
0
LINE
8
BLACK
6
CONTINUOUS
10
45.0112529999999964
20
-12.6017419999999998
11
45.1064909999999983
21
-12.5065039999999996
0
LINE
8
BLACK
6
CONTINUOUS
10
45.1064909999999983
20
-12.5065039999999996
11
45.2969669999999951
21
-12.2207899999999992
0
LINE
8
BLACK
6
CONTINUOUS
10
45.2969669999999951
20
-12.2207899999999992
11
45.392204999999997
21
-12.0303139999999988
0
LINE
8
BLACK
6
CONTINUOUS
10
45.392204999999997
20
-12.0303139999999988
11
45.487442999999999
21
-11.7446000000000002
0
LINE
8
BLACK
6
CONTINUOUS
10
45.487442999999999
20
-11.7446000000000002
11
45.5826810000000009
21
-11.2684090000000001
0
LINE
8
BLACK
6
CONTINUOUS
10
45.5826810000000009
20
-11.2684090000000001
11
45.5826810000000009
21
-10.8874569999999995
0
LINE
8
BLACK
6
CONTINUOUS
10
45.5826810000000009
20
-10.8874569999999995
11
45.487442999999999
21
-10.4112659999999995
0
LINE
8
BLACK
6
CONTINUOUS
10
45.487442999999999
20
-10.4112659999999995
11
45.392204999999997
21
-10.125551999999999
0
LINE
8
BLACK
6
CONTINUOUS
10
45.392204999999997
20
-10.125551999999999
11
45.2969669999999951
21
-9.9350759999999987
0
LINE
8
BLACK
6
CONTINUOUS
10
45.2969669999999951
20
-9.9350759999999987
11
45.1064909999999983
21
-9.649360999999999
0
LINE
8
BLACK
6
CONTINUOUS
10
45.1064909999999983
20
-9.649360999999999
11
45.0112529999999964
21
-9.5541229999999988
0
CIRCLE
8
BLACK
10
-5.144139
20
-13.5649999999999995
40
0.5
0
LINE
8
BLACK
6
CONTINUOUS
10
-0.988752
20
-14.4798379999999991
11
-2.1316090000000001
21
-14.4798379999999991
0
LINE
8
BLACK
6
CONTINUOUS
10
-1.560181
20
-14.4798379999999991
11
-1.560181
21
-12.4798379999999991
0
LINE
8
BLACK
6
CONTINUOUS
10
-1.560181
20
-12.4798379999999991
11
-1.7506569999999999
21
-12.7655519999999996
0
LINE
8
BLACK
6
CONTINUOUS
10
-1.7506569999999999
20
-12.7655519999999996
11
-1.941133
21
-12.9560279999999999
0
LINE
8
BLACK
6
CONTINUOUS
10
-1.941133
20
-12.9560279999999999
11
-2.1316090000000001
21
-13.051266
0
LINE
8
BLACK
6
CONTINUOUS
10
-0.131609
20
-14.2893609999999995
11
-0.036371
21
-14.3845999999999989
0
LINE
8
BLACK
6
CONTINUOUS
10
-0.036371
20
-14.3845999999999989
11
-0.131609
21
-14.4798379999999991
0
LINE
8
BLACK
6
CONTINUOUS
10
-0.131609
20
-14.4798379999999991
11
-0.226847
21
-14.3845999999999989
0
LINE
8
BLACK
6
CONTINUOUS
10
-0.226847
20
-14.3845999999999989
11
-0.131609
21
-14.2893609999999995
0
LINE
8
BLACK
6
CONTINUOUS
10
-0.131609
20
-14.2893609999999995
11
-0.131609
21
-14.4798379999999991
0
LINE
8
BLACK
6
CONTINUOUS
10
1.201724
20
-12.4798379999999991
11
1.392201
21
-12.4798379999999991
0
LINE
8
BLACK
6
CONTINUOUS
10
1.392201
20
-12.4798379999999991
11
1.5826769999999999
21
-12.5750759999999993
0
LINE
8
BLACK
6
CONTINUOUS
10
1.5826769999999999
20
-12.5750759999999993
11
1.6779149999999998
21
-12.6703139999999994
0
LINE
8
BLACK
6
CONTINUOUS
10
1.6779149999999998
20
-12.6703139999999994
11
1.773153
21
-12.8607899999999997
0
LINE
8
BLACK
6
CONTINUOUS
10
1.773153
20
-12.8607899999999997
11
1.8683909999999999
21
-13.2417419999999986
0
LINE
8
BLACK
6
CONTINUOUS
10
1.8683909999999999
20
-13.2417419999999986
11
1.8683909999999999
21
-13.7179329999999986
0
LINE
8
BLACK
6
CONTINUOUS
10
1.8683909999999999
20
-13.7179329999999986
11
1.773153
21
-14.0988849999999992
0
LINE
8
BLACK
6
CONTINUOUS
10
1.773153
20
-14.0988849999999992
11
1.6779149999999998
21
-14.2893609999999995
0
LINE
8
BLACK
6
CONTINUOUS
10
1.6779149999999998
20
-14.2893609999999995
11
1.5826769999999999
21
-14.3845999999999989
0
LINE
8
BLACK
6
CONTINUOUS
10
1.5826769999999999
20
-14.3845999999999989
11
1.392201
21
-14.4798379999999991
0
LINE
8
BLACK
6
CONTINUOUS
10
1.392201
20
-14.4798379999999991
11
1.201724
21
-14.4798379999999991
0
LINE
8
BLACK
6
CONTINUOUS
10
1.201724
20
-14.4798379999999991
11
1.0112479999999999
21
-14.3845999999999989
0
LINE
8
BLACK
6
CONTINUOUS
10
1.0112479999999999
20
-14.3845999999999989
11
0.91601
21
-14.2893609999999995
0
LINE
8
BLACK
6
CONTINUOUS
10
0.91601
20
-14.2893609999999995
11
0.8207719999999999
21
-14.0988849999999992
0
LINE
8
BLACK
6
CONTINUOUS
10
0.8207719999999999
20
-14.0988849999999992
11
0.725534
21
-13.7179329999999986
0
LINE
8
BLACK
6
CONTINUOUS
10
0.725534
20
-13.7179329999999986
11
0.725534
21
-13.2417419999999986
0
LINE
8
BLACK
6
CONTINUOUS
10
0.725534
20
-13.2417419999999986
11
0.8207719999999999
21
-12.8607899999999997
0
LINE
8
BLACK
6
CONTINUOUS
10
0.8207719999999999
20
-12.8607899999999997
11
0.91601
21
-12.6703139999999994
0
LINE
8
BLACK
6
CONTINUOUS
10
0.91601
20
-12.6703139999999994
11
1.0112479999999999
21
-12.5750759999999993
0
LINE
8
BLACK
6
CONTINUOUS
10
1.0112479999999999
20
-12.5750759999999993
11
1.201724
21
-12.4798379999999991
0
LINE
8
BLACK
6
CONTINUOUS
10
3.1064859999999999
20
-12.4798379999999991
11
3.2969629999999999
21
-12.4798379999999991
0
LINE
8
BLACK
6
CONTINUOUS
10
3.2969629999999999
20
-12.4798379999999991
11
3.4874389999999997
21
-12.5750759999999993
0
LINE
8
BLACK
6
CONTINUOUS
10
3.4874389999999997
20
-12.5750759999999993
11
3.5826769999999999
21
-12.6703139999999994
0
LINE
8
BLACK
6
CONTINUOUS
10
3.5826769999999999
20
-12.6703139999999994
11
3.677915
21
-12.8607899999999997
0
LINE
8
BLACK
6
CONTINUOUS
10
3.677915
20
-12.8607899999999997
11
3.7731529999999998
21
-13.2417419999999986
0
LINE
8
BLACK
6
CONTINUOUS
10
3.7731529999999998
20
-13.2417419999999986
11
3.7731529999999998
21
-13.7179329999999986
0
LINE
8
BLACK
6
CONTINUOUS
10
3.7731529999999998
20
-13.7179329999999986
11
3.677915
21
-14.0988849999999992
0
LINE
8
BLACK
6
CONTINUOUS
10
3.677915
20
-14.0988849999999992
11
3.5826769999999999
21
-14.2893609999999995
0
LINE
8
BLACK
6
CONTINUOUS
10
3.5826769999999999
20
-14.2893609999999995
11
3.4874389999999997
21
-14.3845999999999989
0
LINE
8
BLACK
6
CONTINUOUS
10
3.4874389999999997
20
-14.3845999999999989
11
3.2969629999999999
21
-14.4798379999999991
0
LINE
8
BLACK
6
CONTINUOUS
10
3.2969629999999999
20
-14.4798379999999991
11
3.1064859999999999
21
-14.4798379999999991
0
LINE
8
BLACK
6
CONTINUOUS
10
3.1064859999999999
20
-14.4798379999999991
11
2.91601
21
-14.3845999999999989
0
LINE
8
BLACK
6
CONTINUOUS
10
2.91601
20
-14.3845999999999989
11
2.8207719999999998
21
-14.2893609999999995
0
LINE
8
BLACK
6
CONTINUOUS
10
2.8207719999999998
20
-14.2893609999999995
11
2.7255339999999997
21
-14.0988849999999992
0
LINE
8
BLACK
6
CONTINUOUS
10
2.7255339999999997
20
-14.0988849999999992
11
2.630296
21
-13.7179329999999986
0
LINE
8
BLACK
6
CONTINUOUS
10
2.630296
20
-13.7179329999999986
11
2.630296
21
-13.2417419999999986
0
LINE
8
BLACK
6
CONTINUOUS
10
2.630296
20
-13.2417419999999986
11
2.7255339999999997
21
-12.8607899999999997
0
LINE
8
BLACK
6
CONTINUOUS
10
2.7255339999999997
20
-12.8607899999999997
11
2.8207719999999998
21
-12.6703139999999994
0
LINE
8
BLACK
6
CONTINUOUS
10
2.8207719999999998
20
-12.6703139999999994
11
2.91601
21
-12.5750759999999993
0
LINE
8
BLACK
6
CONTINUOUS
10
2.91601
20
-12.5750759999999993
11
3.1064859999999999
21
-12.4798379999999991
0
LINE
8
BLACK
6
CONTINUOUS
10
5.0112480000000001
20
-12.4798379999999991
11
5.2017249999999997
21
-12.4798379999999991
0
LINE
8
BLACK
6
CONTINUOUS
10
5.2017249999999997
20
-12.4798379999999991
11
5.392201
21
-12.5750759999999993
0
LINE
8
BLACK
6
CONTINUOUS
10
5.392201
20
-12.5750759999999993
11
5.4874390000000002
21
-12.6703139999999994
0
LINE
8
BLACK
6
CONTINUOUS
10
5.4874390000000002
20
-12.6703139999999994
11
5.5826769999999994
21
-12.8607899999999997
0
LINE
8
BLACK
6
CONTINUOUS
10
5.5826769999999994
20
-12.8607899999999997
11
5.6779149999999996
21
-13.2417419999999986
0
LINE
8
BLACK
6
CONTINUOUS
10
5.6779149999999996
20
-13.2417419999999986
11
5.6779149999999996
21
-13.7179329999999986
0
LINE
8
BLACK
6
CONTINUOUS
10
5.6779149999999996
20
-13.7179329999999986
11
5.5826769999999994
21
-14.0988849999999992
0
LINE
8
BLACK
6
CONTINUOUS
10
5.5826769999999994
20
-14.0988849999999992
11
5.4874390000000002
21
-14.2893609999999995
0
LINE
8
BLACK
6
CONTINUOUS
10
5.4874390000000002
20
-14.2893609999999995
11
5.392201
21
-14.3845999999999989
0
LINE
8
BLACK
6
CONTINUOUS
10
5.392201
20
-14.3845999999999989
11
5.2017249999999997
21
-14.4798379999999991
0
LINE
8
BLACK
6
CONTINUOUS
10
5.2017249999999997
20
-14.4798379999999991
11
5.0112480000000001
21
-14.4798379999999991
0
LINE
8
BLACK
6
CONTINUOUS
10
5.0112480000000001
20
-14.4798379999999991
11
4.8207719999999998
21
-14.3845999999999989
0
LINE
8
BLACK
6
CONTINUOUS
10
4.8207719999999998
20
-14.3845999999999989
11
4.7255339999999997
21
-14.2893609999999995
0
LINE
8
BLACK
6
CONTINUOUS
10
4.7255339999999997
20
-14.2893609999999995
11
4.6302959999999995
21
-14.0988849999999992
0
LINE
8
BLACK
6
CONTINUOUS
10
4.6302959999999995
20
-14.0988849999999992
11
4.5350579999999994
21
-13.7179329999999986
0
LINE
8
BLACK
6
CONTINUOUS
10
4.5350579999999994
20
-13.7179329999999986
11
4.5350579999999994
21
-13.2417419999999986
0
LINE
8
BLACK
6
CONTINUOUS
10
4.5350579999999994
20
-13.2417419999999986
11
4.6302959999999995
21
-12.8607899999999997
0
LINE
8
BLACK
6
CONTINUOUS
10
4.6302959999999995
20
-12.8607899999999997
11
4.7255339999999997
21
-12.6703139999999994
0
LINE
8
BLACK
6
CONTINUOUS
10
4.7255339999999997
20
-12.6703139999999994
11
4.8207719999999998
21
-12.5750759999999993
0
LINE
8
BLACK
6
CONTINUOUS
10
4.8207719999999998
20
-12.5750759999999993
11
5.0112480000000001
21
-12.4798379999999991
0
LINE
8
BLACK
6
CONTINUOUS
10
6.5350579999999994
20
-14.4798379999999991
11
6.5350579999999994
21
-13.1465040000000002
0
LINE
8
BLACK
6
CONTINUOUS
10
6.5350579999999994
20
-13.3369799999999987
11
6.6302959999999995
21
-13.2417419999999986
0
LINE
8
BLACK
6
CONTINUOUS
10
6.6302959999999995
20
-13.2417419999999986
11
6.8207719999999998
21
-13.1465040000000002
0
LINE
8
BLACK
6
CONTINUOUS
10
6.8207719999999998
20
-13.1465040000000002
11
7.1064869999999996
21
-13.1465040000000002
0
LINE
8
BLACK
6
CONTINUOUS
10
7.1064869999999996
20
-13.1465040000000002
11
7.2969629999999999
21
-13.2417419999999986
0
LINE
8
BLACK
6
CONTINUOUS
10
7.2969629999999999
20
-13.2417419999999986
11
7.392201
21
-13.4322189999999999
0
LINE
8
BLACK
6
CONTINUOUS
10
7.392201
20
-13.4322189999999999
11
7.392201
21
-14.4798379999999991
0
LINE
8
BLACK
6
CONTINUOUS
10
7.392201
20
-13.4322189999999999
11
7.4874389999999993
21
-13.2417419999999986
0
LINE
8
BLACK
6
CONTINUOUS
10
7.4874389999999993
20
-13.2417419999999986
11
7.6779149999999996
21
-13.1465040000000002
0
LINE
8
BLACK
6
CONTINUOUS
10
7.6779149999999996
20
-13.1465040000000002
11
7.9636290000000001
21
-13.1465040000000002
0
LINE
8
BLACK
6
CONTINUOUS
10
7.9636290000000001
20
-13.1465040000000002
11
8.1541059999999987
21
-13.2417419999999986
0
LINE
8
BLACK
6
CONTINUOUS
10
8.1541059999999987
20
-13.2417419999999986
11
8.2493439999999989
21
-13.4322189999999999
0
LINE
8
BLACK
6
CONTINUOUS
10
8.2493439999999989
20
-13.4322189999999999
11
8.2493439999999989
21
-14.4798379999999991
0
LINE
8
BLACK
6
CONTINUOUS
10
9.2017249999999997
20
-14.4798379999999991
11
9.2017249999999997
21
-13.1465040000000002
0
LINE
8
BLACK
6
CONTINUOUS
10
9.2017249999999997
20
-13.3369799999999987
11
9.2969629999999999
21
-13.2417419999999986
0
LINE
8
BLACK
6
CONTINUOUS
10
9.2969629999999999
20
-13.2417419999999986
11
9.4874390000000002
21
-13.1465040000000002
0
LINE
8
BLACK
6
CONTINUOUS
10
9.4874390000000002
20
-13.1465040000000002
11
9.7731539999999999
21
-13.1465040000000002
0
LINE
8
BLACK
6
CONTINUOUS
10
9.7731539999999999
20
-13.1465040000000002
11
9.9636300000000002
21
-13.2417419999999986
0
LINE
8
BLACK
6
CONTINUOUS
10
9.9636300000000002
20
-13.2417419999999986
11
10.0588680000000004
21
-13.4322189999999999
0
LINE
8
BLACK
6
CONTINUOUS
10
10.0588680000000004
20
-13.4322189999999999
11
10.0588680000000004
21
-14.4798379999999991
0
LINE
8
BLACK
6
CONTINUOUS
10
10.0588680000000004
20
-13.4322189999999999
11
10.1541059999999987
21
-13.2417419999999986
0
LINE
8
BLACK
6
CONTINUOUS
10
10.1541059999999987
20
-13.2417419999999986
11
10.3445819999999991
21
-13.1465040000000002
0
LINE
8
BLACK
6
CONTINUOUS
10
10.3445819999999991
20
-13.1465040000000002
11
10.6302959999999995
21
-13.1465040000000002
0
LINE
8
BLACK
6
CONTINUOUS
10
10.6302959999999995
20
-13.1465040000000002
11
10.8207729999999991
21
-13.2417419999999986
0
LINE
8
BLACK
6
CONTINUOUS
10
10.8207729999999991
20
-13.2417419999999986
11
10.9160109999999992
21
-13.4322189999999999
0
LINE
8
BLACK
6
CONTINUOUS
10
10.9160109999999992
20
-13.4322189999999999
11
10.9160109999999992
21
-14.4798379999999991
0
LINE
8
BLACK
6
CONTINUOUS
10
14.8207729999999991
20
-12.3845999999999989
11
13.1064879999999988
21
-14.9560279999999999
0
LINE
8
BLACK
6
CONTINUOUS
10
17.3922019999999975
20
-12.4798379999999991
11
17.5826789999999988
21
-12.4798379999999991
0
LINE
8
BLACK
6
CONTINUOUS
10
17.5826789999999988
20
-12.4798379999999991
11
17.7731549999999991
21
-12.5750759999999993
0
LINE
8
BLACK
6
CONTINUOUS
10
17.7731549999999991
20
-12.5750759999999993
11
17.8683929999999975
21
-12.6703139999999994
0
LINE
8
BLACK
6
CONTINUOUS
10
17.8683929999999975
20
-12.6703139999999994
11
17.9636309999999995
21
-12.8607899999999997
0
LINE
8
BLACK
6
CONTINUOUS
10
17.9636309999999995
20
-12.8607899999999997
11
18.0588689999999978
21
-13.2417419999999986
0
LINE
8
BLACK
6
CONTINUOUS
10
18.0588689999999978
20
-13.2417419999999986
11
18.0588689999999978
21
-13.7179329999999986
0
LINE
8
BLACK
6
CONTINUOUS
10
18.0588689999999978
20
-13.7179329999999986
11
17.9636309999999995
21
-14.0988849999999992
0
LINE
8
BLACK
6
CONTINUOUS
10
17.9636309999999995
20
-14.0988849999999992
11
17.8683929999999975
21
-14.2893609999999995
0
LINE
8
BLACK
6
CONTINUOUS
10
17.8683929999999975
20
-14.2893609999999995
11
17.7731549999999991
21
-14.3845999999999989
0
LINE
8
BLACK
6
CONTINUOUS
10
17.7731549999999991
20
-14.3845999999999989
11
17.5826789999999988
21
-14.4798379999999991
0
LINE
8
BLACK
6
CONTINUOUS
10
17.5826789999999988
20
-14.4798379999999991
11
17.3922019999999975
21
-14.4798379999999991
0
LINE
8
BLACK
6
CONTINUOUS
10
17.3922019999999975
20
-14.4798379999999991
11
17.2017260000000007
21
-14.3845999999999989
0
LINE
8
BLACK
6
CONTINUOUS
10
17.2017260000000007
20
-14.3845999999999989
11
17.1064879999999988
21
-14.2893609999999995
0
LINE
8
BLACK
6
CONTINUOUS
10
17.1064879999999988
20
-14.2893609999999995
11
17.0112500000000004
21
-14.0988849999999992
0
LINE
8
BLACK
6
CONTINUOUS
10
17.0112500000000004
20
-14.0988849999999992
11
16.9160119999999985
21
-13.7179329999999986
0
LINE
8
BLACK
6
CONTINUOUS
10
16.9160119999999985
20
-13.7179329999999986
11
16.9160119999999985
21
-13.2417419999999986
0
LINE
8
BLACK
6
CONTINUOUS
10
16.9160119999999985
20
-13.2417419999999986
11
17.0112500000000004
21
-12.8607899999999997
0
LINE
8
BLACK
6
CONTINUOUS
10
17.0112500000000004
20
-12.8607899999999997
11
17.1064879999999988
21
-12.6703139999999994
0
LINE
8
BLACK
6
CONTINUOUS
10
17.1064879999999988
20
-12.6703139999999994
11
17.2017260000000007
21
-12.5750759999999993
0
LINE
8
BLACK
6
CONTINUOUS
10
17.2017260000000007
20
-12.5750759999999993
11
17.3922019999999975
21
-12.4798379999999991
0
LINE
8
BLACK
6
CONTINUOUS
10
18.9160119999999985
20
-14.2893609999999995
11
19.0112500000000004
21
-14.3845999999999989
0
LINE
8
BLACK
6
CONTINUOUS
10
19.0112500000000004
20
-14.3845999999999989
11
18.9160119999999985
21
-14.4798379999999991
0
LINE
8
BLACK
6
CONTINUOUS
10
18.9160119999999985
20
-14.4798379999999991
11
18.8207740000000001
21
-14.3845999999999989
0
LINE
8
BLACK
6
CONTINUOUS
10
18.8207740000000001
20
-14.3845999999999989
11
18.9160119999999985
21
-14.2893609999999995
0
LINE
8
BLACK
6
CONTINUOUS
10
18.9160119999999985
20
-14.2893609999999995
11
18.9160119999999985
21
-14.4798379999999991
0
LINE
8
BLACK
6
CONTINUOUS
10
20.2493449999999982
20
-12.4798379999999991
11
20.4398219999999995
21
-12.4798379999999991
0
LINE
8
BLACK
6
CONTINUOUS
10
20.4398219999999995
20
-12.4798379999999991
11
20.6302979999999998
21
-12.5750759999999993
0
LINE
8
BLACK
6
CONTINUOUS
10
20.6302979999999998
20
-12.5750759999999993
11
20.7255359999999982
21
-12.6703139999999994
0
LINE
8
BLACK
6
CONTINUOUS
10
20.7255359999999982
20
-12.6703139999999994
11
20.8207740000000001
21
-12.8607899999999997
0
LINE
8
BLACK
6
CONTINUOUS
10
20.8207740000000001
20
-12.8607899999999997
11
20.9160119999999985
21
-13.2417419999999986
0
LINE
8
BLACK
6
CONTINUOUS
10
20.9160119999999985
20
-13.2417419999999986
11
20.9160119999999985
21
-13.7179329999999986
0
LINE
8
BLACK
6
CONTINUOUS
10
20.9160119999999985
20
-13.7179329999999986
11
20.8207740000000001
21
-14.0988849999999992
0
LINE
8
BLACK
6
CONTINUOUS
10
20.8207740000000001
20
-14.0988849999999992
11
20.7255359999999982
21
-14.2893609999999995
0
LINE
8
BLACK
6
CONTINUOUS
10
20.7255359999999982
20
-14.2893609999999995
11
20.6302979999999998
21
-14.3845999999999989
0
LINE
8
BLACK
6
CONTINUOUS
10
20.6302979999999998
20
-14.3845999999999989
11
20.4398219999999995
21
-14.4798379999999991
0
LINE
8
BLACK
6
CONTINUOUS
10
20.4398219999999995
20
-14.4798379999999991
11
20.2493449999999982
21
-14.4798379999999991
0
LINE
8
BLACK
6
CONTINUOUS
10
20.2493449999999982
20
-14.4798379999999991
11
20.0588689999999978
21
-14.3845999999999989
0
LINE
8
BLACK
6
CONTINUOUS
10
20.0588689999999978
20
-14.3845999999999989
11
19.9636309999999995
21
-14.2893609999999995
0
LINE
8
BLACK
6
CONTINUOUS
10
19.9636309999999995
20
-14.2893609999999995
11
19.8683929999999975
21
-14.0988849999999992
0
LINE
8
BLACK
6
CONTINUOUS
10
19.8683929999999975
20
-14.0988849999999992
11
19.7731549999999991
21
-13.7179329999999986
0
LINE
8
BLACK
6
CONTINUOUS
10
19.7731549999999991
20
-13.7179329999999986
11
19.7731549999999991
21
-13.2417419999999986
0
LINE
8
BLACK
6
CONTINUOUS
10
19.7731549999999991
20
-13.2417419999999986
11
19.8683929999999975
21
-12.8607899999999997
0
LINE
8
BLACK
6
CONTINUOUS
10
19.8683929999999975
20
-12.8607899999999997
11
19.9636309999999995
21
-12.6703139999999994
0
LINE
8
BLACK
6
CONTINUOUS
10
19.9636309999999995
20
-12.6703139999999994
11
20.0588689999999978
21
-12.5750759999999993
0
LINE
8
BLACK
6
CONTINUOUS
10
20.0588689999999978
20
-12.5750759999999993
11
20.2493449999999982
21
-12.4798379999999991
0
LINE
8
BLACK
6
CONTINUOUS
10
21.5826789999999988
20
-12.4798379999999991
11
22.8207740000000001
21
-12.4798379999999991
0
LINE
8
BLACK
6
CONTINUOUS
10
22.8207740000000001
20
-12.4798379999999991
11
22.1541069999999998
21
-13.2417419999999986
0
LINE
8
BLACK
6
CONTINUOUS
10
22.1541069999999998
20
-13.2417419999999986
11
22.4398219999999995
21
-13.2417419999999986
0
LINE
8
BLACK
6
CONTINUOUS
10
22.4398219999999995
20
-13.2417419999999986
11
22.6302979999999998
21
-13.3369799999999987
0
LINE
8
BLACK
6
CONTINUOUS
10
22.6302979999999998
20
-13.3369799999999987
11
22.7255359999999982
21
-13.4322189999999999
0
LINE
8
BLACK
6
CONTINUOUS
10
22.7255359999999982
20
-13.4322189999999999
11
22.8207740000000001
21
-13.6226950000000002
0
LINE
8
BLACK
6
CONTINUOUS
10
22.8207740000000001
20
-13.6226950000000002
11
22.8207740000000001
21
-14.0988849999999992
0
LINE
8
BLACK
6
CONTINUOUS
10
22.8207740000000001
20
-14.0988849999999992
11
22.7255359999999982
21
-14.2893609999999995
0
LINE
8
BLACK
6
CONTINUOUS
10
22.7255359999999982
20
-14.2893609999999995
11
22.6302979999999998
21
-14.3845999999999989
0
LINE
8
BLACK
6
CONTINUOUS
10
22.6302979999999998
20
-14.3845999999999989
11
22.4398219999999995
21
-14.4798379999999991
0
LINE
8
BLACK
6
CONTINUOUS
10
22.4398219999999995
20
-14.4798379999999991
11
21.8683929999999975
21
-14.4798379999999991
0
LINE
8
BLACK
6
CONTINUOUS
10
21.8683929999999975
20
-14.4798379999999991
11
21.6779170000000008
21
-14.3845999999999989
0
LINE
8
BLACK
6
CONTINUOUS
10
21.6779170000000008
20
-14.3845999999999989
11
21.5826789999999988
21
-14.2893609999999995
0
LINE
8
BLACK
6
CONTINUOUS
10
23.7731549999999991
20
-14.4798379999999991
11
24.1541069999999998
21
-14.4798379999999991
0
LINE
8
BLACK
6
CONTINUOUS
10
24.1541069999999998
20
-14.4798379999999991
11
24.3445839999999976
21
-14.3845999999999989
0
LINE
8
BLACK
6
CONTINUOUS
10
24.3445839999999976
20
-14.3845999999999989
11
24.4398219999999995
21
-14.2893609999999995
0
LINE
8
BLACK
6
CONTINUOUS
10
24.4398219999999995
20
-14.2893609999999995
11
24.6302979999999998
21
-14.0036469999999991
0
LINE
8
BLACK
6
CONTINUOUS
10
24.6302979999999998
20
-14.0036469999999991
11
24.7255359999999982
21
-13.6226950000000002
0
LINE
8
BLACK
6
CONTINUOUS
10
24.7255359999999982
20
-13.6226950000000002
11
24.7255359999999982
21
-12.8607899999999997
0
LINE
8
BLACK
6
CONTINUOUS
10
24.7255359999999982
20
-12.8607899999999997
11
24.6302979999999998
21
-12.6703139999999994
0
LINE
8
BLACK
6
CONTINUOUS
10
24.6302979999999998
20
-12.6703139999999994
11
24.5350599999999979
21
-12.5750759999999993
0
LINE
8
BLACK
6
CONTINUOUS
10
24.5350599999999979
20
-12.5750759999999993
11
24.3445839999999976
21
-12.4798379999999991
0
LINE
8
BLACK
6
CONTINUOUS
10
24.3445839999999976
20
-12.4798379999999991
11
23.9636309999999995
21
-12.4798379999999991
0
LINE
8
BLACK
6
CONTINUOUS
10
23.9636309999999995
20
-12.4798379999999991
11
23.7731549999999991
21
-12.5750759999999993
0
LINE
8
BLACK
6
CONTINUOUS
10
23.7731549999999991
20
-12.5750759999999993
11
23.6779169999999972
21
-12.6703139999999994
0
LINE
8
BLACK
6
CONTINUOUS
10
23.6779169999999972
20
-12.6703139999999994
11
23.5826789999999988
21
-12.8607899999999997
0
LINE
8
BLACK
6
CONTINUOUS
10
23.5826789999999988
20
-12.8607899999999997
11
23.5826789999999988
21
-13.3369799999999987
0
LINE
8
BLACK
6
CONTINUOUS
10
23.5826789999999988
20
-13.3369799999999987
11
23.6779169999999972
21
-13.5274570000000001
0
LINE
8
BLACK
6
CONTINUOUS
10
23.6779169999999972
20
-13.5274570000000001
11
23.7731549999999991
21
-13.6226950000000002
0
LINE
8
BLACK
6
CONTINUOUS
10
23.7731549999999991
20
-13.6226950000000002
11
23.9636309999999995
21
-13.7179329999999986
0
LINE
8
BLACK
6
CONTINUOUS
10
23.9636309999999995
20
-13.7179329999999986
11
24.3445839999999976
21
-13.7179329999999986
0
LINE
8
BLACK
6
CONTINUOUS
10
24.3445839999999976
20
-13.7179329999999986
11
24.5350599999999979
21
-13.6226950000000002
0
LINE
8
BLACK
6
CONTINUOUS
10
24.5350599999999979
20
-13.6226950000000002
11
24.6302979999999998
21
-13.5274570000000001
0
LINE
8
BLACK
6
CONTINUOUS
10
24.6302979999999998
20
-13.5274570000000001
11
24.7255359999999982
21
-13.3369799999999987
0
LINE
8
BLACK
6
CONTINUOUS
10
26.4398219999999995
20
-13.1465040000000002
11
26.4398219999999995
21
-14.4798379999999991
0
LINE
8
BLACK
6
CONTINUOUS
10
25.9636309999999995
20
-12.3845999999999989
11
25.4874410000000005
21
-13.8131709999999988
0
LINE
8
BLACK
6
CONTINUOUS
10
25.4874410000000005
20
-13.8131709999999988
11
26.7255359999999982
21
-13.8131709999999988
0
LINE
8
BLACK
6
CONTINUOUS
10
27.3922029999999985
20
-12.4798379999999991
11
27.3922029999999985
21
-12.8607899999999997
0
LINE
8
BLACK
6
CONTINUOUS
10
28.1541079999999972
20
-12.4798379999999991
11
28.1541079999999972
21
-12.8607899999999997
0
LINE
8
BLACK
6
CONTINUOUS
10
31.1064899999999973
20
-15.2417419999999986
11
31.0112509999999979
21
-15.1465040000000002
0
LINE
8
BLACK
6
CONTINUOUS
10
31.0112509999999979
20
-15.1465040000000002
11
30.8207749999999976
21
-14.8607899999999997
0
LINE
8
BLACK
6
CONTINUOUS
10
30.8207749999999976
20
-14.8607899999999997
11
30.7255369999999992
21
-14.6703139999999994
0
LINE
8
BLACK
6
CONTINUOUS
10
30.7255369999999992
20
-14.6703139999999994
11
30.6302989999999973
21
-14.3845999999999989
0
LINE
8
BLACK
6
CONTINUOUS
10
30.6302989999999973
20
-14.3845999999999989
11
30.5350609999999989
21
-13.9084089999999989
0
LINE
8
BLACK
6
CONTINUOUS
10
30.5350609999999989
20
-13.9084089999999989
11
30.5350609999999989
21
-13.5274570000000001
0
LINE
8
BLACK
6
CONTINUOUS
10
30.5350609999999989
20
-13.5274570000000001
11
30.6302989999999973
21
-13.051266
0
LINE
8
BLACK
6
CONTINUOUS
10
30.6302989999999973
20
-13.051266
11
30.7255369999999992
21
-12.7655519999999996
0
LINE
8
BLACK
6
CONTINUOUS
10
30.7255369999999992
20
-12.7655519999999996
11
30.8207749999999976
21
-12.5750759999999993
0
LINE
8
BLACK
6
CONTINUOUS
10
30.8207749999999976
20
-12.5750759999999993
11
31.0112509999999979
21
-12.2893609999999995
0
LINE
8
BLACK
6
CONTINUOUS
10
31.0112509999999979
20
-12.2893609999999995
11
31.1064899999999973
21
-12.1941229999999994
0
LINE
8
BLACK
6
CONTINUOUS
10
31.6779179999999982
20
-12.4798379999999991
11
33.0112510000000015
21
-12.4798379999999991
0
LINE
8
BLACK
6
CONTINUOUS
10
33.0112510000000015
20
-12.4798379999999991
11
32.1541080000000008
21
-14.4798379999999991
0
LINE
8
BLACK
6
CONTINUOUS
10
33.5826799999999963
20
-12.4798379999999991
11
34.8207749999999976
21
-12.4798379999999991
0
LINE
8
BLACK
6
CONTINUOUS
10
34.8207749999999976
20
-12.4798379999999991
11
34.1541080000000008
21
-13.2417419999999986
0
LINE
8
BLACK
6
CONTINUOUS
10
34.1541080000000008
20
-13.2417419999999986
11
34.439822999999997
21
-13.2417419999999986
0
LINE
8
BLACK
6
CONTINUOUS
10
34.439822999999997
20
-13.2417419999999986
11
34.6302990000000008
21
-13.3369799999999987
0
LINE
8
BLACK
6
CONTINUOUS
10
34.6302990000000008
20
-13.3369799999999987
11
34.7255369999999957
21
-13.4322189999999999
0
LINE
8
BLACK
6
CONTINUOUS
10
34.7255369999999957
20
-13.4322189999999999
11
34.8207749999999976
21
-13.6226950000000002
0
LINE
8
BLACK
6
CONTINUOUS
10
34.8207749999999976
20
-13.6226950000000002
11
34.8207749999999976
21
-14.0988849999999992
0
LINE
8
BLACK
6
CONTINUOUS
10
34.8207749999999976
20
-14.0988849999999992
11
34.7255369999999957
21
-14.2893609999999995
0
LINE
8
BLACK
6
CONTINUOUS
10
34.7255369999999957
20
-14.2893609999999995
11
34.6302990000000008
21
-14.3845999999999989
0
LINE
8
BLACK
6
CONTINUOUS
10
34.6302990000000008
20
-14.3845999999999989
11
34.439822999999997
21
-14.4798379999999991
0
LINE
8
BLACK
6
CONTINUOUS
10
34.439822999999997
20
-14.4798379999999991
11
33.868393999999995
21
-14.4798379999999991
0
LINE
8
BLACK
6
CONTINUOUS
10
33.868393999999995
20
-14.4798379999999991
11
33.6779179999999982
21
-14.3845999999999989
0
LINE
8
BLACK
6
CONTINUOUS
10
33.6779179999999982
20
-14.3845999999999989
11
33.5826799999999963
21
-14.2893609999999995
0
LINE
8
BLACK
6
CONTINUOUS
10
37.2017279999999957
20
-14.4798379999999991
11
37.2017279999999957
21
-12.4798379999999991
0
LINE
8
BLACK
6
CONTINUOUS
10
38.0588709999999963
20
-14.4798379999999991
11
38.0588709999999963
21
-13.4322189999999999
0
LINE
8
BLACK
6
CONTINUOUS
10
38.0588709999999963
20
-13.4322189999999999
11
37.9636330000000015
21
-13.2417419999999986
0
LINE
8
BLACK
6
CONTINUOUS
10
37.9636330000000015
20
-13.2417419999999986
11
37.7731569999999977
21
-13.1465040000000002
0
LINE
8
BLACK
6
CONTINUOUS
10
37.7731569999999977
20
-13.1465040000000002
11
37.4874420000000015
21
-13.1465040000000002
0
LINE
8
BLACK
6
CONTINUOUS
10
37.4874420000000015
20
-13.1465040000000002
11
37.2969659999999976
21
-13.2417419999999986
0
LINE
8
BLACK
6
CONTINUOUS
10
37.2969659999999976
20
-13.2417419999999986
11
37.2017279999999957
21
-13.3369799999999987
0
LINE
8
BLACK
6
CONTINUOUS
10
39.2969659999999976
20
-14.4798379999999991
11
39.1064900000000009
21
-14.3845999999999989
0
LINE
8
BLACK
6
CONTINUOUS
10
39.1064900000000009
20
-14.3845999999999989
11
39.0112519999999989
21
-14.2893609999999995
0
LINE
8
BLACK
6
CONTINUOUS
10
39.0112519999999989
20
-14.2893609999999995
11
38.916013999999997
21
-14.0988849999999992
0
LINE
8
BLACK
6
CONTINUOUS
10
38.916013999999997
20
-14.0988849999999992
11
38.916013999999997
21
-13.5274570000000001
0
LINE
8
BLACK
6
CONTINUOUS
10
38.916013999999997
20
-13.5274570000000001
11
39.0112519999999989
21
-13.3369799999999987
0
LINE
8
BLACK
6
CONTINUOUS
10
39.0112519999999989
20
-13.3369799999999987
11
39.1064900000000009
21
-13.2417419999999986
0
LINE
8
BLACK
6
CONTINUOUS
10
39.1064900000000009
20
-13.2417419999999986
11
39.2969659999999976
21
-13.1465040000000002
0
LINE
8
BLACK
6
CONTINUOUS
10
39.2969659999999976
20
-13.1465040000000002
11
39.5826810000000009
21
-13.1465040000000002
0
LINE
8
BLACK
6
CONTINUOUS
10
39.5826810000000009
20
-13.1465040000000002
11
39.7731569999999977
21
-13.2417419999999986
0
LINE
8
BLACK
6
CONTINUOUS
10
39.7731569999999977
20
-13.2417419999999986
11
39.8683949999999996
21
-13.3369799999999987
0
LINE
8
BLACK
6
CONTINUOUS
10
39.8683949999999996
20
-13.3369799999999987
11
39.9636330000000015
21
-13.5274570000000001
0
LINE
8
BLACK
6
CONTINUOUS
10
39.9636330000000015
20
-13.5274570000000001
11
39.9636330000000015
21
-14.0988849999999992
0
LINE
8
BLACK
6
CONTINUOUS
10
39.9636330000000015
20
-14.0988849999999992
11
39.8683949999999996
21
-14.2893609999999995
0
LINE
8
BLACK
6
CONTINUOUS
10
39.8683949999999996
20
-14.2893609999999995
11
39.7731569999999977
21
-14.3845999999999989
0
LINE
8
BLACK
6
CONTINUOUS
10
39.7731569999999977
20
-14.3845999999999989
11
39.5826810000000009
21
-14.4798379999999991
0
LINE
8
BLACK
6
CONTINUOUS
10
39.5826810000000009
20
-14.4798379999999991
11
39.2969659999999976
21
-14.4798379999999991
0
LINE
8
BLACK
6
CONTINUOUS
10
41.1064900000000009
20
-14.4798379999999991
11
40.916013999999997
21
-14.3845999999999989
0
LINE
8
BLACK
6
CONTINUOUS
10
40.916013999999997
20
-14.3845999999999989
11
40.8207759999999951
21
-14.1941229999999994
0
LINE
8
BLACK
6
CONTINUOUS
10
40.8207759999999951
20
-14.1941229999999994
11
40.8207759999999951
21
-12.4798379999999991
0
LINE
8
BLACK
6
CONTINUOUS
10
42.6302999999999983
20
-14.3845999999999989
11
42.4398240000000015
21
-14.4798379999999991
0
LINE
8
BLACK
6
CONTINUOUS
10
42.4398240000000015
20
-14.4798379999999991
11
42.0588709999999963
21
-14.4798379999999991
0
LINE
8
BLACK
6
CONTINUOUS
10
42.0588709999999963
20
-14.4798379999999991
11
41.8683949999999996
21
-14.3845999999999989
0
LINE
8
BLACK
6
CONTINUOUS
10
41.8683949999999996
20
-14.3845999999999989
11
41.7731569999999977
21
-14.1941229999999994
0
LINE
8
BLACK
6
CONTINUOUS
10
41.7731569999999977
20
-14.1941229999999994
11
41.7731569999999977
21
-13.4322189999999999
0
LINE
8
BLACK
6
CONTINUOUS
10
41.7731569999999977
20
-13.4322189999999999
11
41.8683949999999996
21
-13.2417419999999986
0
LINE
8
BLACK
6
CONTINUOUS
10
41.8683949999999996
20
-13.2417419999999986
11
42.0588709999999963
21
-13.1465040000000002
0
LINE
8
BLACK
6
CONTINUOUS
10
42.0588709999999963
20
-13.1465040000000002
11
42.4398240000000015
21
-13.1465040000000002
0
LINE
8
BLACK
6
CONTINUOUS
10
42.4398240000000015
20
-13.1465040000000002
11
42.6302999999999983
21
-13.2417419999999986
0
LINE
8
BLACK
6
CONTINUOUS
10
42.6302999999999983
20
-13.2417419999999986
11
42.7255380000000002
21
-13.4322189999999999
0
LINE
8
BLACK
6
CONTINUOUS
10
42.7255380000000002
20
-13.4322189999999999
11
42.7255380000000002
21
-13.6226950000000002
0
LINE
8
BLACK
6
CONTINUOUS
10
42.7255380000000002
20
-13.6226950000000002
11
41.7731569999999977
21
-13.8131709999999988
0
LINE
8
BLACK
6
CONTINUOUS
10
43.487442999999999
20
-14.3845999999999989
11
43.6779189999999957
21
-14.4798379999999991
0
LINE
8
BLACK
6
CONTINUOUS
10
43.6779189999999957
20
-14.4798379999999991
11
44.0588709999999963
21
-14.4798379999999991
0
LINE
8
BLACK
6
CONTINUOUS
10
44.0588709999999963
20
-14.4798379999999991
11
44.2493479999999977
21
-14.3845999999999989
0
LINE
8
BLACK
6
CONTINUOUS
10
44.2493479999999977
20
-14.3845999999999989
11
44.3445859999999996
21
-14.1941229999999994
0
LINE
8
BLACK
6
CONTINUOUS
10
44.3445859999999996
20
-14.1941229999999994
11
44.3445859999999996
21
-14.0988849999999992
0
LINE
8
BLACK
6
CONTINUOUS
10
44.3445859999999996
20
-14.0988849999999992
11
44.2493479999999977
21
-13.9084089999999989
0
LINE
8
BLACK
6
CONTINUOUS
10
44.2493479999999977
20
-13.9084089999999989
11
44.0588709999999963
21
-13.8131709999999988
0
LINE
8
BLACK
6
CONTINUOUS
10
44.0588709999999963
20
-13.8131709999999988
11
43.7731569999999977
21
-13.8131709999999988
0
LINE
8
BLACK
6
CONTINUOUS
10
43.7731569999999977
20
-13.8131709999999988
11
43.5826810000000009
21
-13.7179329999999986
0
LINE
8
BLACK
6
CONTINUOUS
10
43.5826810000000009
20
-13.7179329999999986
11
43.487442999999999
21
-13.5274570000000001
0
LINE
8
BLACK
6
CONTINUOUS
10
43.487442999999999
20
-13.5274570000000001
11
43.487442999999999
21
-13.4322189999999999
0
LINE
8
BLACK
6
CONTINUOUS
10
43.487442999999999
20
-13.4322189999999999
11
43.5826810000000009
21
-13.2417419999999986
0
LINE
8
BLACK
6
CONTINUOUS
10
43.5826810000000009
20
-13.2417419999999986
11
43.7731569999999977
21
-13.1465040000000002
0
LINE
8
BLACK
6
CONTINUOUS
10
43.7731569999999977
20
-13.1465040000000002
11
44.0588709999999963
21
-13.1465040000000002
0
LINE
8
BLACK
6
CONTINUOUS
10
44.0588709999999963
20
-13.1465040000000002
11
44.2493479999999977
21
-13.2417419999999986
0
LINE
8
BLACK
6
CONTINUOUS
10
45.0112529999999964
20
-15.2417419999999986
11
45.1064909999999983
21
-15.1465040000000002
0
LINE
8
BLACK
6
CONTINUOUS
10
45.1064909999999983
20
-15.1465040000000002
11
45.2969669999999951
21
-14.8607899999999997
0
LINE
8
BLACK
6
CONTINUOUS
10
45.2969669999999951
20
-14.8607899999999997
11
45.392204999999997
21
-14.6703139999999994
0
LINE
8
BLACK
6
CONTINUOUS
10
45.392204999999997
20
-14.6703139999999994
11
45.487442999999999
21
-14.3845999999999989
0
LINE
8
BLACK
6
CONTINUOUS
10
45.487442999999999
20
-14.3845999999999989
11
45.5826810000000009
21
-13.9084089999999989
0
LINE
8
BLACK
6
CONTINUOUS
10
45.5826810000000009
20
-13.9084089999999989
11
45.5826810000000009
21
-13.5274570000000001
0
LINE
8
BLACK
6
CONTINUOUS
10
45.5826810000000009
20
-13.5274570000000001
11
45.487442999999999
21
-13.051266
0
LINE
8
BLACK
6
CONTINUOUS
10
45.487442999999999
20
-13.051266
11
45.392204999999997
21
-12.7655519999999996
0
LINE
8
BLACK
6
CONTINUOUS
10
45.392204999999997
20
-12.7655519999999996
11
45.2969669999999951
21
-12.5750759999999993
0
LINE
8
BLACK
6
CONTINUOUS
10
45.2969669999999951
20
-12.5750759999999993
11
45.1064909999999983
21
-12.2893609999999995
0
LINE
8
BLACK
6
CONTINUOUS
10
45.1064909999999983
20
-12.2893609999999995
11
45.0112529999999964
21
-12.1941229999999994
  0
ENDSEC
  0
EOF
